<?xml version="1.0" encoding="utf-8" standalone="no"?>
<!DOCTYPE svg PUBLIC "-//W3C//DTD SVG 1.1//EN"
  "http://www.w3.org/Graphics/SVG/1.1/DTD/svg11.dtd">
<svg xmlns:xlink="http://www.w3.org/1999/xlink" width="216pt" height="216pt" viewBox="0 0 216 216" xmlns="http://www.w3.org/2000/svg" version="1.1">
 <metadata>
  <rdf:RDF xmlns:dc="http://purl.org/dc/elements/1.1/" xmlns:cc="http://creativecommons.org/ns#" xmlns:rdf="http://www.w3.org/1999/02/22-rdf-syntax-ns#">
   <cc:Work>
    <dc:type rdf:resource="http://purl.org/dc/dcmitype/StillImage"/>
    <dc:date>2025-08-25T17:11:39.571617</dc:date>
    <dc:format>image/svg+xml</dc:format>
    <dc:creator>
     <cc:Agent>
      <dc:title>Matplotlib v3.10.1, https://matplotlib.org/</dc:title>
     </cc:Agent>
    </dc:creator>
   </cc:Work>
  </rdf:RDF>
 </metadata>
 <defs>
  <style type="text/css">*{stroke-linejoin: round; stroke-linecap: butt}</style>
 </defs>
 <g id="figure_1">
  <g id="patch_1">
   <path d="M 0 216 
L 216 216 
L 216 0 
L 0 0 
L 0 216 
z
" style="fill: none"/>
  </g>
  <g id="axes_1">
   <g id="patch_2">
    <path d="M 27 192.24 
L 194.4 192.24 
L 194.4 25.92 
L 27 25.92 
L 27 192.24 
z
" style="fill: none"/>
   </g>
   <g id="patch_3">
    <path d="M 56.050701 192.24 
L 59.670333 192.24 
L 59.670333 151.242353 
L 56.050701 151.242353 
z
" clip-path="url(#p63d98a9ae1)" style="fill: #f7941d; opacity: 0.6"/>
   </g>
   <g id="patch_4">
    <path d="M 59.670333 192.24 
L 63.289966 192.24 
L 63.289966 116.456471 
L 59.670333 116.456471 
z
" clip-path="url(#p63d98a9ae1)" style="fill: #f7941d; opacity: 0.6"/>
   </g>
   <g id="patch_5">
    <path d="M 63.289966 192.24 
L 66.909598 192.24 
L 66.909598 184.785882 
L 63.289966 184.785882 
z
" clip-path="url(#p63d98a9ae1)" style="fill: #f7941d; opacity: 0.6"/>
   </g>
   <g id="patch_6">
    <path d="M 66.909598 192.24 
L 70.52923 192.24 
L 70.52923 170.809412 
L 66.909598 170.809412 
z
" clip-path="url(#p63d98a9ae1)" style="fill: #f7941d; opacity: 0.6"/>
   </g>
   <g id="patch_7">
    <path d="M 70.52923 192.24 
L 74.148862 192.24 
L 74.148862 147.204706 
L 70.52923 147.204706 
z
" clip-path="url(#p63d98a9ae1)" style="fill: #f7941d; opacity: 0.6"/>
   </g>
   <g id="patch_8">
    <path d="M 74.148862 192.24 
L 77.768495 192.24 
L 77.768495 141.614118 
L 74.148862 141.614118 
z
" clip-path="url(#p63d98a9ae1)" style="fill: #f7941d; opacity: 0.6"/>
   </g>
   <g id="patch_9">
    <path d="M 77.768495 192.24 
L 81.388127 192.24 
L 81.388127 185.407059 
L 77.768495 185.407059 
z
" clip-path="url(#p63d98a9ae1)" style="fill: #f7941d; opacity: 0.6"/>
   </g>
   <g id="patch_10">
    <path d="M 81.388127 192.24 
L 85.007759 192.24 
L 85.007759 191.929412 
L 81.388127 191.929412 
z
" clip-path="url(#p63d98a9ae1)" style="fill: #f7941d; opacity: 0.6"/>
   </g>
   <g id="patch_11">
    <path d="M 85.007759 192.24 
L 88.627391 192.24 
L 88.627391 192.24 
L 85.007759 192.24 
z
" clip-path="url(#p63d98a9ae1)" style="fill: #f7941d; opacity: 0.6"/>
   </g>
   <g id="patch_12">
    <path d="M 88.627391 192.24 
L 92.247023 192.24 
L 92.247023 192.24 
L 88.627391 192.24 
z
" clip-path="url(#p63d98a9ae1)" style="fill: #f7941d; opacity: 0.6"/>
   </g>
   <g id="patch_13">
    <path d="M 92.247023 192.24 
L 95.866655 192.24 
L 95.866655 192.24 
L 92.247023 192.24 
z
" clip-path="url(#p63d98a9ae1)" style="fill: #f7941d; opacity: 0.6"/>
   </g>
   <g id="patch_14">
    <path d="M 95.866655 192.24 
L 99.48629 192.24 
L 99.48629 192.24 
L 95.866655 192.24 
z
" clip-path="url(#p63d98a9ae1)" style="fill: #f7941d; opacity: 0.6"/>
   </g>
   <g id="patch_15">
    <path d="M 99.48629 192.24 
L 103.105922 192.24 
L 103.105922 191.929412 
L 99.48629 191.929412 
z
" clip-path="url(#p63d98a9ae1)" style="fill: #f7941d; opacity: 0.6"/>
   </g>
   <g id="patch_16">
    <path d="M 103.105922 192.24 
L 106.725553 192.24 
L 106.725553 184.164706 
L 103.105922 184.164706 
z
" clip-path="url(#p63d98a9ae1)" style="fill: #f7941d; opacity: 0.6"/>
   </g>
   <g id="patch_17">
    <path d="M 106.725553 192.24 
L 110.345184 192.24 
L 110.345184 178.884706 
L 106.725553 178.884706 
z
" clip-path="url(#p63d98a9ae1)" style="fill: #f7941d; opacity: 0.6"/>
   </g>
   <g id="patch_18">
    <path d="M 110.345184 192.24 
L 113.964816 192.24 
L 113.964816 183.543529 
L 110.345184 183.543529 
z
" clip-path="url(#p63d98a9ae1)" style="fill: #f7941d; opacity: 0.6"/>
   </g>
   <g id="patch_19">
    <path d="M 113.964816 192.24 
L 117.584447 192.24 
L 117.584447 191.618824 
L 113.964816 191.618824 
z
" clip-path="url(#p63d98a9ae1)" style="fill: #f7941d; opacity: 0.6"/>
   </g>
   <g id="patch_20">
    <path d="M 117.584447 192.24 
L 121.204079 192.24 
L 121.204079 192.24 
L 117.584447 192.24 
z
" clip-path="url(#p63d98a9ae1)" style="fill: #f7941d; opacity: 0.6"/>
   </g>
   <g id="patch_21">
    <path d="M 121.204079 192.24 
L 124.823711 192.24 
L 124.823711 192.24 
L 121.204079 192.24 
z
" clip-path="url(#p63d98a9ae1)" style="fill: #f7941d; opacity: 0.6"/>
   </g>
   <g id="patch_22">
    <path d="M 124.823711 192.24 
L 128.443343 192.24 
L 128.443343 192.24 
L 124.823711 192.24 
z
" clip-path="url(#p63d98a9ae1)" style="fill: #f7941d; opacity: 0.6"/>
   </g>
   <g id="patch_23">
    <path d="M 128.443343 192.24 
L 132.062975 192.24 
L 132.062975 192.24 
L 128.443343 192.24 
z
" clip-path="url(#p63d98a9ae1)" style="fill: #f7941d; opacity: 0.6"/>
   </g>
   <g id="patch_24">
    <path d="M 132.062975 192.24 
L 135.682607 192.24 
L 135.682607 192.24 
L 132.062975 192.24 
z
" clip-path="url(#p63d98a9ae1)" style="fill: #f7941d; opacity: 0.6"/>
   </g>
   <g id="patch_25">
    <path d="M 135.682607 192.24 
L 139.302239 192.24 
L 139.302239 192.24 
L 135.682607 192.24 
z
" clip-path="url(#p63d98a9ae1)" style="fill: #f7941d; opacity: 0.6"/>
   </g>
   <g id="patch_26">
    <path d="M 139.302239 192.24 
L 142.921877 192.24 
L 142.921877 192.24 
L 139.302239 192.24 
z
" clip-path="url(#p63d98a9ae1)" style="fill: #f7941d; opacity: 0.6"/>
   </g>
   <g id="patch_27">
    <path d="M 142.921877 192.24 
L 146.541509 192.24 
L 146.541509 192.24 
L 142.921877 192.24 
z
" clip-path="url(#p63d98a9ae1)" style="fill: #f7941d; opacity: 0.6"/>
   </g>
   <g id="patch_28">
    <path d="M 146.541509 192.24 
L 150.16114 192.24 
L 150.16114 192.24 
L 146.541509 192.24 
z
" clip-path="url(#p63d98a9ae1)" style="fill: #f7941d; opacity: 0.6"/>
   </g>
   <g id="patch_29">
    <path d="M 150.16114 192.24 
L 153.780772 192.24 
L 153.780772 192.24 
L 150.16114 192.24 
z
" clip-path="url(#p63d98a9ae1)" style="fill: #f7941d; opacity: 0.6"/>
   </g>
   <g id="patch_30">
    <path d="M 153.780772 192.24 
L 157.400404 192.24 
L 157.400404 191.308235 
L 153.780772 191.308235 
z
" clip-path="url(#p63d98a9ae1)" style="fill: #f7941d; opacity: 0.6"/>
   </g>
   <g id="patch_31">
    <path d="M 157.400404 192.24 
L 161.020036 192.24 
L 161.020036 177.021176 
L 157.400404 177.021176 
z
" clip-path="url(#p63d98a9ae1)" style="fill: #f7941d; opacity: 0.6"/>
   </g>
   <g id="patch_32">
    <path d="M 161.020036 192.24 
L 164.639674 192.24 
L 164.639674 177.331765 
L 161.020036 177.331765 
z
" clip-path="url(#p63d98a9ae1)" style="fill: #f7941d; opacity: 0.6"/>
   </g>
   <g id="patch_33">
    <path d="M 50.457059 192.24 
L 55.026676 192.24 
L 55.026676 145.651765 
L 50.457059 145.651765 
z
" clip-path="url(#p63d98a9ae1)" style="fill: #00a651; opacity: 0.9"/>
   </g>
   <g id="patch_34">
    <path d="M 55.026676 192.24 
L 59.596294 192.24 
L 59.596294 176.710588 
L 55.026676 176.710588 
z
" clip-path="url(#p63d98a9ae1)" style="fill: #00a651; opacity: 0.9"/>
   </g>
   <g id="patch_35">
    <path d="M 59.596294 192.24 
L 64.165911 192.24 
L 64.165911 192.24 
L 59.596294 192.24 
z
" clip-path="url(#p63d98a9ae1)" style="fill: #00a651; opacity: 0.9"/>
   </g>
   <g id="patch_36">
    <path d="M 64.165911 192.24 
L 68.735528 192.24 
L 68.735528 173.604706 
L 64.165911 173.604706 
z
" clip-path="url(#p63d98a9ae1)" style="fill: #00a651; opacity: 0.9"/>
   </g>
   <g id="patch_37">
    <path d="M 68.735528 192.24 
L 73.305145 192.24 
L 73.305145 167.392941 
L 68.735528 167.392941 
z
" clip-path="url(#p63d98a9ae1)" style="fill: #00a651; opacity: 0.9"/>
   </g>
   <g id="patch_38">
    <path d="M 73.305145 192.24 
L 77.874762 192.24 
L 77.874762 176.710588 
L 73.305145 176.710588 
z
" clip-path="url(#p63d98a9ae1)" style="fill: #00a651; opacity: 0.9"/>
   </g>
   <g id="patch_39">
    <path d="M 77.874762 192.24 
L 82.444378 192.24 
L 82.444378 33.84 
L 77.874762 33.84 
z
" clip-path="url(#p63d98a9ae1)" style="fill: #00a651; opacity: 0.9"/>
   </g>
   <g id="patch_40">
    <path d="M 82.444378 192.24 
L 87.013997 192.24 
L 87.013997 192.24 
L 82.444378 192.24 
z
" clip-path="url(#p63d98a9ae1)" style="fill: #00a651; opacity: 0.9"/>
   </g>
   <g id="patch_41">
    <path d="M 87.013997 192.24 
L 91.583615 192.24 
L 91.583615 192.24 
L 87.013997 192.24 
z
" clip-path="url(#p63d98a9ae1)" style="fill: #00a651; opacity: 0.9"/>
   </g>
   <g id="patch_42">
    <path d="M 91.583615 192.24 
L 96.153231 192.24 
L 96.153231 192.24 
L 91.583615 192.24 
z
" clip-path="url(#p63d98a9ae1)" style="fill: #00a651; opacity: 0.9"/>
   </g>
   <g id="patch_43">
    <path d="M 96.153231 192.24 
L 100.722846 192.24 
L 100.722846 192.24 
L 96.153231 192.24 
z
" clip-path="url(#p63d98a9ae1)" style="fill: #00a651; opacity: 0.9"/>
   </g>
   <g id="patch_44">
    <path d="M 100.722846 192.24 
L 105.292465 192.24 
L 105.292465 192.24 
L 100.722846 192.24 
z
" clip-path="url(#p63d98a9ae1)" style="fill: #00a651; opacity: 0.9"/>
   </g>
   <g id="patch_45">
    <path d="M 105.292465 192.24 
L 109.862084 192.24 
L 109.862084 192.24 
L 105.292465 192.24 
z
" clip-path="url(#p63d98a9ae1)" style="fill: #00a651; opacity: 0.9"/>
   </g>
   <g id="patch_46">
    <path d="M 109.862084 192.24 
L 114.431696 192.24 
L 114.431696 189.134118 
L 109.862084 189.134118 
z
" clip-path="url(#p63d98a9ae1)" style="fill: #00a651; opacity: 0.9"/>
   </g>
   <g id="patch_47">
    <path d="M 114.431696 192.24 
L 119.001315 192.24 
L 119.001315 186.028235 
L 114.431696 186.028235 
z
" clip-path="url(#p63d98a9ae1)" style="fill: #00a651; opacity: 0.9"/>
   </g>
   <g id="patch_48">
    <path d="M 119.001315 192.24 
L 123.570934 192.24 
L 123.570934 186.028235 
L 119.001315 186.028235 
z
" clip-path="url(#p63d98a9ae1)" style="fill: #00a651; opacity: 0.9"/>
   </g>
   <g id="patch_49">
    <path d="M 123.570934 192.24 
L 128.140553 192.24 
L 128.140553 192.24 
L 123.570934 192.24 
z
" clip-path="url(#p63d98a9ae1)" style="fill: #00a651; opacity: 0.9"/>
   </g>
   <g id="patch_50">
    <path d="M 128.140553 192.24 
L 132.710171 192.24 
L 132.710171 192.24 
L 128.140553 192.24 
z
" clip-path="url(#p63d98a9ae1)" style="fill: #00a651; opacity: 0.9"/>
   </g>
   <g id="patch_51">
    <path d="M 132.710171 192.24 
L 137.279781 192.24 
L 137.279781 192.24 
L 132.710171 192.24 
z
" clip-path="url(#p63d98a9ae1)" style="fill: #00a651; opacity: 0.9"/>
   </g>
   <g id="patch_52">
    <path d="M 137.279781 192.24 
L 141.849406 192.24 
L 141.849406 192.24 
L 137.279781 192.24 
z
" clip-path="url(#p63d98a9ae1)" style="fill: #00a651; opacity: 0.9"/>
   </g>
   <g id="patch_53">
    <path d="M 141.849406 192.24 
L 146.419018 192.24 
L 146.419018 192.24 
L 141.849406 192.24 
z
" clip-path="url(#p63d98a9ae1)" style="fill: #00a651; opacity: 0.9"/>
   </g>
   <g id="patch_54">
    <path d="M 146.419018 192.24 
L 150.988631 192.24 
L 150.988631 192.24 
L 146.419018 192.24 
z
" clip-path="url(#p63d98a9ae1)" style="fill: #00a651; opacity: 0.9"/>
   </g>
   <g id="patch_55">
    <path d="M 150.988631 192.24 
L 155.558256 192.24 
L 155.558256 192.24 
L 150.988631 192.24 
z
" clip-path="url(#p63d98a9ae1)" style="fill: #00a651; opacity: 0.9"/>
   </g>
   <g id="patch_56">
    <path d="M 155.558256 192.24 
L 160.127868 192.24 
L 160.127868 192.24 
L 155.558256 192.24 
z
" clip-path="url(#p63d98a9ae1)" style="fill: #00a651; opacity: 0.9"/>
   </g>
   <g id="patch_57">
    <path d="M 160.127868 192.24 
L 164.69748 192.24 
L 164.69748 192.24 
L 160.127868 192.24 
z
" clip-path="url(#p63d98a9ae1)" style="fill: #00a651; opacity: 0.9"/>
   </g>
   <g id="patch_58">
    <path d="M 164.69748 192.24 
L 169.267106 192.24 
L 169.267106 192.24 
L 164.69748 192.24 
z
" clip-path="url(#p63d98a9ae1)" style="fill: #00a651; opacity: 0.9"/>
   </g>
   <g id="patch_59">
    <path d="M 169.267106 192.24 
L 173.836718 192.24 
L 173.836718 192.24 
L 169.267106 192.24 
z
" clip-path="url(#p63d98a9ae1)" style="fill: #00a651; opacity: 0.9"/>
   </g>
   <g id="patch_60">
    <path d="M 173.836718 192.24 
L 178.40633 192.24 
L 178.40633 192.24 
L 173.836718 192.24 
z
" clip-path="url(#p63d98a9ae1)" style="fill: #00a651; opacity: 0.9"/>
   </g>
   <g id="patch_61">
    <path d="M 178.40633 192.24 
L 182.975955 192.24 
L 182.975955 192.24 
L 178.40633 192.24 
z
" clip-path="url(#p63d98a9ae1)" style="fill: #00a651; opacity: 0.9"/>
   </g>
   <g id="patch_62">
    <path d="M 182.975955 192.24 
L 187.545574 192.24 
L 187.545574 176.710588 
L 182.975955 176.710588 
z
" clip-path="url(#p63d98a9ae1)" style="fill: #00a651; opacity: 0.9"/>
   </g>
   <g id="matplotlib.axis_1">
    <g id="xtick_1">
     <g id="line2d_1">
      <defs>
       <path id="m7fa5303a1a" d="M 0 0 
L 0 3.5 
" style="stroke: #000000; stroke-width: 0.8"/>
      </defs>
      <g>
       <use xlink:href="#m7fa5303a1a" x="27" y="192.24" style="stroke: #000000; stroke-width: 0.8"/>
      </g>
     </g>
     <g id="text_1">
      <!-- −0.5 -->
      <g transform="translate(5.145469 212.917188) scale(0.18 -0.18)">
       <defs>
        <path id="DejaVuSans-2212" d="M 678 2272 
L 4684 2272 
L 4684 1741 
L 678 1741 
L 678 2272 
z
" transform="scale(0.015625)"/>
        <path id="DejaVuSans-30" d="M 2034 4250 
Q 1547 4250 1301 3770 
Q 1056 3291 1056 2328 
Q 1056 1369 1301 889 
Q 1547 409 2034 409 
Q 2525 409 2770 889 
Q 3016 1369 3016 2328 
Q 3016 3291 2770 3770 
Q 2525 4250 2034 4250 
z
M 2034 4750 
Q 2819 4750 3233 4129 
Q 3647 3509 3647 2328 
Q 3647 1150 3233 529 
Q 2819 -91 2034 -91 
Q 1250 -91 836 529 
Q 422 1150 422 2328 
Q 422 3509 836 4129 
Q 1250 4750 2034 4750 
z
" transform="scale(0.015625)"/>
        <path id="DejaVuSans-2e" d="M 684 794 
L 1344 794 
L 1344 0 
L 684 0 
L 684 794 
z
" transform="scale(0.015625)"/>
        <path id="DejaVuSans-35" d="M 691 4666 
L 3169 4666 
L 3169 4134 
L 1269 4134 
L 1269 2991 
Q 1406 3038 1543 3061 
Q 1681 3084 1819 3084 
Q 2600 3084 3056 2656 
Q 3513 2228 3513 1497 
Q 3513 744 3044 326 
Q 2575 -91 1722 -91 
Q 1428 -91 1123 -41 
Q 819 9 494 109 
L 494 744 
Q 775 591 1075 516 
Q 1375 441 1709 441 
Q 2250 441 2565 725 
Q 2881 1009 2881 1497 
Q 2881 1984 2565 2268 
Q 2250 2553 1709 2553 
Q 1456 2553 1204 2497 
Q 953 2441 691 2322 
L 691 4666 
z
" transform="scale(0.015625)"/>
       </defs>
       <use xlink:href="#DejaVuSans-2212"/>
       <use xlink:href="#DejaVuSans-30" transform="translate(83.789062 0)"/>
       <use xlink:href="#DejaVuSans-2e" transform="translate(147.412109 0)"/>
       <use xlink:href="#DejaVuSans-35" transform="translate(179.199219 0)"/>
      </g>
     </g>
    </g>
    <g id="xtick_2">
     <g id="line2d_2">
      <g>
       <use xlink:href="#m7fa5303a1a" x="80.522471" y="192.24" style="stroke: #000000; stroke-width: 0.8"/>
      </g>
     </g>
     <g id="text_2">
      <!-- 0.0 -->
      <g transform="translate(66.209659 212.917188) scale(0.18 -0.18)">
       <use xlink:href="#DejaVuSans-30"/>
       <use xlink:href="#DejaVuSans-2e" transform="translate(63.623047 0)"/>
       <use xlink:href="#DejaVuSans-30" transform="translate(95.410156 0)"/>
      </g>
     </g>
    </g>
    <g id="xtick_3">
     <g id="line2d_3">
      <g>
       <use xlink:href="#m7fa5303a1a" x="134.044943" y="192.24" style="stroke: #000000; stroke-width: 0.8"/>
      </g>
     </g>
     <g id="text_3">
      <!-- 0.5 -->
      <g transform="translate(119.73213 212.917188) scale(0.18 -0.18)">
       <use xlink:href="#DejaVuSans-30"/>
       <use xlink:href="#DejaVuSans-2e" transform="translate(63.623047 0)"/>
       <use xlink:href="#DejaVuSans-35" transform="translate(95.410156 0)"/>
      </g>
     </g>
    </g>
    <g id="xtick_4">
     <g id="line2d_4">
      <g>
       <use xlink:href="#m7fa5303a1a" x="187.567414" y="192.24" style="stroke: #000000; stroke-width: 0.8"/>
      </g>
     </g>
     <g id="text_4">
      <!-- 1.0 -->
      <g transform="translate(173.254602 212.917188) scale(0.18 -0.18)">
       <defs>
        <path id="DejaVuSans-31" d="M 794 531 
L 1825 531 
L 1825 4091 
L 703 3866 
L 703 4441 
L 1819 4666 
L 2450 4666 
L 2450 531 
L 3481 531 
L 3481 0 
L 794 0 
L 794 531 
z
" transform="scale(0.015625)"/>
       </defs>
       <use xlink:href="#DejaVuSans-31"/>
       <use xlink:href="#DejaVuSans-2e" transform="translate(63.623047 0)"/>
       <use xlink:href="#DejaVuSans-30" transform="translate(95.410156 0)"/>
      </g>
     </g>
    </g>
    <g id="text_5">
     <!-- Selectivity -->
     <g transform="translate(58.534375 235.8575) scale(0.2 -0.2)">
      <defs>
       <path id="DejaVuSans-53" d="M 3425 4513 
L 3425 3897 
Q 3066 4069 2747 4153 
Q 2428 4238 2131 4238 
Q 1616 4238 1336 4038 
Q 1056 3838 1056 3469 
Q 1056 3159 1242 3001 
Q 1428 2844 1947 2747 
L 2328 2669 
Q 3034 2534 3370 2195 
Q 3706 1856 3706 1288 
Q 3706 609 3251 259 
Q 2797 -91 1919 -91 
Q 1588 -91 1214 -16 
Q 841 59 441 206 
L 441 856 
Q 825 641 1194 531 
Q 1563 422 1919 422 
Q 2459 422 2753 634 
Q 3047 847 3047 1241 
Q 3047 1584 2836 1778 
Q 2625 1972 2144 2069 
L 1759 2144 
Q 1053 2284 737 2584 
Q 422 2884 422 3419 
Q 422 4038 858 4394 
Q 1294 4750 2059 4750 
Q 2388 4750 2728 4690 
Q 3069 4631 3425 4513 
z
" transform="scale(0.015625)"/>
       <path id="DejaVuSans-65" d="M 3597 1894 
L 3597 1613 
L 953 1613 
Q 991 1019 1311 708 
Q 1631 397 2203 397 
Q 2534 397 2845 478 
Q 3156 559 3463 722 
L 3463 178 
Q 3153 47 2828 -22 
Q 2503 -91 2169 -91 
Q 1331 -91 842 396 
Q 353 884 353 1716 
Q 353 2575 817 3079 
Q 1281 3584 2069 3584 
Q 2775 3584 3186 3129 
Q 3597 2675 3597 1894 
z
M 3022 2063 
Q 3016 2534 2758 2815 
Q 2500 3097 2075 3097 
Q 1594 3097 1305 2825 
Q 1016 2553 972 2059 
L 3022 2063 
z
" transform="scale(0.015625)"/>
       <path id="DejaVuSans-6c" d="M 603 4863 
L 1178 4863 
L 1178 0 
L 603 0 
L 603 4863 
z
" transform="scale(0.015625)"/>
       <path id="DejaVuSans-63" d="M 3122 3366 
L 3122 2828 
Q 2878 2963 2633 3030 
Q 2388 3097 2138 3097 
Q 1578 3097 1268 2742 
Q 959 2388 959 1747 
Q 959 1106 1268 751 
Q 1578 397 2138 397 
Q 2388 397 2633 464 
Q 2878 531 3122 666 
L 3122 134 
Q 2881 22 2623 -34 
Q 2366 -91 2075 -91 
Q 1284 -91 818 406 
Q 353 903 353 1747 
Q 353 2603 823 3093 
Q 1294 3584 2113 3584 
Q 2378 3584 2631 3529 
Q 2884 3475 3122 3366 
z
" transform="scale(0.015625)"/>
       <path id="DejaVuSans-74" d="M 1172 4494 
L 1172 3500 
L 2356 3500 
L 2356 3053 
L 1172 3053 
L 1172 1153 
Q 1172 725 1289 603 
Q 1406 481 1766 481 
L 2356 481 
L 2356 0 
L 1766 0 
Q 1100 0 847 248 
Q 594 497 594 1153 
L 594 3053 
L 172 3053 
L 172 3500 
L 594 3500 
L 594 4494 
L 1172 4494 
z
" transform="scale(0.015625)"/>
       <path id="DejaVuSans-69" d="M 603 3500 
L 1178 3500 
L 1178 0 
L 603 0 
L 603 3500 
z
M 603 4863 
L 1178 4863 
L 1178 4134 
L 603 4134 
L 603 4863 
z
" transform="scale(0.015625)"/>
       <path id="DejaVuSans-76" d="M 191 3500 
L 800 3500 
L 1894 563 
L 2988 3500 
L 3597 3500 
L 2284 0 
L 1503 0 
L 191 3500 
z
" transform="scale(0.015625)"/>
       <path id="DejaVuSans-79" d="M 2059 -325 
Q 1816 -950 1584 -1140 
Q 1353 -1331 966 -1331 
L 506 -1331 
L 506 -850 
L 844 -850 
Q 1081 -850 1212 -737 
Q 1344 -625 1503 -206 
L 1606 56 
L 191 3500 
L 800 3500 
L 1894 763 
L 2988 3500 
L 3597 3500 
L 2059 -325 
z
" transform="scale(0.015625)"/>
      </defs>
      <use xlink:href="#DejaVuSans-53"/>
      <use xlink:href="#DejaVuSans-65" transform="translate(63.476562 0)"/>
      <use xlink:href="#DejaVuSans-6c" transform="translate(125 0)"/>
      <use xlink:href="#DejaVuSans-65" transform="translate(152.783203 0)"/>
      <use xlink:href="#DejaVuSans-63" transform="translate(214.306641 0)"/>
      <use xlink:href="#DejaVuSans-74" transform="translate(269.287109 0)"/>
      <use xlink:href="#DejaVuSans-69" transform="translate(308.496094 0)"/>
      <use xlink:href="#DejaVuSans-76" transform="translate(336.279297 0)"/>
      <use xlink:href="#DejaVuSans-69" transform="translate(395.458984 0)"/>
      <use xlink:href="#DejaVuSans-74" transform="translate(423.242188 0)"/>
      <use xlink:href="#DejaVuSans-79" transform="translate(462.451172 0)"/>
     </g>
    </g>
   </g>
   <g id="matplotlib.axis_2"/>
   <g id="patch_63">
    <path d="M 27 192.24 
L 27 25.92 
" style="fill: none; stroke: #000000; stroke-width: 0.8; stroke-linejoin: miter; stroke-linecap: square"/>
   </g>
   <g id="patch_64">
    <path d="M 27 192.24 
L 194.4 192.24 
" style="fill: none; stroke: #000000; stroke-width: 0.8; stroke-linejoin: miter; stroke-linecap: square"/>
   </g>
   <g id="legend_1">
    <g id="patch_65">
     <path d="M 23.99 52.4775 
L 55.99 52.4775 
L 55.99 41.2775 
L 23.99 41.2775 
z
" style="fill: #f7941d; opacity: 0.6"/>
    </g>
    <g id="text_6">
     <!-- MTL-sensory -->
     <g transform="translate(68.79 52.4775) scale(0.16 -0.16)">
      <defs>
       <path id="DejaVuSans-4d" d="M 628 4666 
L 1569 4666 
L 2759 1491 
L 3956 4666 
L 4897 4666 
L 4897 0 
L 4281 0 
L 4281 4097 
L 3078 897 
L 2444 897 
L 1241 4097 
L 1241 0 
L 628 0 
L 628 4666 
z
" transform="scale(0.015625)"/>
       <path id="DejaVuSans-54" d="M -19 4666 
L 3928 4666 
L 3928 4134 
L 2272 4134 
L 2272 0 
L 1638 0 
L 1638 4134 
L -19 4134 
L -19 4666 
z
" transform="scale(0.015625)"/>
       <path id="DejaVuSans-4c" d="M 628 4666 
L 1259 4666 
L 1259 531 
L 3531 531 
L 3531 0 
L 628 0 
L 628 4666 
z
" transform="scale(0.015625)"/>
       <path id="DejaVuSans-2d" d="M 313 2009 
L 1997 2009 
L 1997 1497 
L 313 1497 
L 313 2009 
z
" transform="scale(0.015625)"/>
       <path id="DejaVuSans-73" d="M 2834 3397 
L 2834 2853 
Q 2591 2978 2328 3040 
Q 2066 3103 1784 3103 
Q 1356 3103 1142 2972 
Q 928 2841 928 2578 
Q 928 2378 1081 2264 
Q 1234 2150 1697 2047 
L 1894 2003 
Q 2506 1872 2764 1633 
Q 3022 1394 3022 966 
Q 3022 478 2636 193 
Q 2250 -91 1575 -91 
Q 1294 -91 989 -36 
Q 684 19 347 128 
L 347 722 
Q 666 556 975 473 
Q 1284 391 1588 391 
Q 1994 391 2212 530 
Q 2431 669 2431 922 
Q 2431 1156 2273 1281 
Q 2116 1406 1581 1522 
L 1381 1569 
Q 847 1681 609 1914 
Q 372 2147 372 2553 
Q 372 3047 722 3315 
Q 1072 3584 1716 3584 
Q 2034 3584 2315 3537 
Q 2597 3491 2834 3397 
z
" transform="scale(0.015625)"/>
       <path id="DejaVuSans-6e" d="M 3513 2113 
L 3513 0 
L 2938 0 
L 2938 2094 
Q 2938 2591 2744 2837 
Q 2550 3084 2163 3084 
Q 1697 3084 1428 2787 
Q 1159 2491 1159 1978 
L 1159 0 
L 581 0 
L 581 3500 
L 1159 3500 
L 1159 2956 
Q 1366 3272 1645 3428 
Q 1925 3584 2291 3584 
Q 2894 3584 3203 3211 
Q 3513 2838 3513 2113 
z
" transform="scale(0.015625)"/>
       <path id="DejaVuSans-6f" d="M 1959 3097 
Q 1497 3097 1228 2736 
Q 959 2375 959 1747 
Q 959 1119 1226 758 
Q 1494 397 1959 397 
Q 2419 397 2687 759 
Q 2956 1122 2956 1747 
Q 2956 2369 2687 2733 
Q 2419 3097 1959 3097 
z
M 1959 3584 
Q 2709 3584 3137 3096 
Q 3566 2609 3566 1747 
Q 3566 888 3137 398 
Q 2709 -91 1959 -91 
Q 1206 -91 779 398 
Q 353 888 353 1747 
Q 353 2609 779 3096 
Q 1206 3584 1959 3584 
z
" transform="scale(0.015625)"/>
       <path id="DejaVuSans-72" d="M 2631 2963 
Q 2534 3019 2420 3045 
Q 2306 3072 2169 3072 
Q 1681 3072 1420 2755 
Q 1159 2438 1159 1844 
L 1159 0 
L 581 0 
L 581 3500 
L 1159 3500 
L 1159 2956 
Q 1341 3275 1631 3429 
Q 1922 3584 2338 3584 
Q 2397 3584 2469 3576 
Q 2541 3569 2628 3553 
L 2631 2963 
z
" transform="scale(0.015625)"/>
      </defs>
      <use xlink:href="#DejaVuSans-4d"/>
      <use xlink:href="#DejaVuSans-54" transform="translate(86.279297 0)"/>
      <use xlink:href="#DejaVuSans-4c" transform="translate(147.363281 0)"/>
      <use xlink:href="#DejaVuSans-2d" transform="translate(201.326172 0)"/>
      <use xlink:href="#DejaVuSans-73" transform="translate(237.410156 0)"/>
      <use xlink:href="#DejaVuSans-65" transform="translate(289.509766 0)"/>
      <use xlink:href="#DejaVuSans-6e" transform="translate(351.033203 0)"/>
      <use xlink:href="#DejaVuSans-73" transform="translate(414.412109 0)"/>
      <use xlink:href="#DejaVuSans-6f" transform="translate(466.511719 0)"/>
      <use xlink:href="#DejaVuSans-72" transform="translate(527.693359 0)"/>
      <use xlink:href="#DejaVuSans-79" transform="translate(568.806641 0)"/>
     </g>
    </g>
    <g id="patch_66">
     <path d="M 23.99 75.9625 
L 55.99 75.9625 
L 55.99 64.7625 
L 23.99 64.7625 
z
" style="fill: #00a651; opacity: 0.9"/>
    </g>
    <g id="text_7">
     <!-- MTL-semantic -->
     <g transform="translate(68.79 75.9625) scale(0.16 -0.16)">
      <defs>
       <path id="DejaVuSans-6d" d="M 3328 2828 
Q 3544 3216 3844 3400 
Q 4144 3584 4550 3584 
Q 5097 3584 5394 3201 
Q 5691 2819 5691 2113 
L 5691 0 
L 5113 0 
L 5113 2094 
Q 5113 2597 4934 2840 
Q 4756 3084 4391 3084 
Q 3944 3084 3684 2787 
Q 3425 2491 3425 1978 
L 3425 0 
L 2847 0 
L 2847 2094 
Q 2847 2600 2669 2842 
Q 2491 3084 2119 3084 
Q 1678 3084 1418 2786 
Q 1159 2488 1159 1978 
L 1159 0 
L 581 0 
L 581 3500 
L 1159 3500 
L 1159 2956 
Q 1356 3278 1631 3431 
Q 1906 3584 2284 3584 
Q 2666 3584 2933 3390 
Q 3200 3197 3328 2828 
z
" transform="scale(0.015625)"/>
       <path id="DejaVuSans-61" d="M 2194 1759 
Q 1497 1759 1228 1600 
Q 959 1441 959 1056 
Q 959 750 1161 570 
Q 1363 391 1709 391 
Q 2188 391 2477 730 
Q 2766 1069 2766 1631 
L 2766 1759 
L 2194 1759 
z
M 3341 1997 
L 3341 0 
L 2766 0 
L 2766 531 
Q 2569 213 2275 61 
Q 1981 -91 1556 -91 
Q 1019 -91 701 211 
Q 384 513 384 1019 
Q 384 1609 779 1909 
Q 1175 2209 1959 2209 
L 2766 2209 
L 2766 2266 
Q 2766 2663 2505 2880 
Q 2244 3097 1772 3097 
Q 1472 3097 1187 3025 
Q 903 2953 641 2809 
L 641 3341 
Q 956 3463 1253 3523 
Q 1550 3584 1831 3584 
Q 2591 3584 2966 3190 
Q 3341 2797 3341 1997 
z
" transform="scale(0.015625)"/>
      </defs>
      <use xlink:href="#DejaVuSans-4d"/>
      <use xlink:href="#DejaVuSans-54" transform="translate(86.279297 0)"/>
      <use xlink:href="#DejaVuSans-4c" transform="translate(147.363281 0)"/>
      <use xlink:href="#DejaVuSans-2d" transform="translate(201.326172 0)"/>
      <use xlink:href="#DejaVuSans-73" transform="translate(237.410156 0)"/>
      <use xlink:href="#DejaVuSans-65" transform="translate(289.509766 0)"/>
      <use xlink:href="#DejaVuSans-6d" transform="translate(351.033203 0)"/>
      <use xlink:href="#DejaVuSans-61" transform="translate(448.445312 0)"/>
      <use xlink:href="#DejaVuSans-6e" transform="translate(509.724609 0)"/>
      <use xlink:href="#DejaVuSans-74" transform="translate(573.103516 0)"/>
      <use xlink:href="#DejaVuSans-69" transform="translate(612.3125 0)"/>
      <use xlink:href="#DejaVuSans-63" transform="translate(640.095703 0)"/>
     </g>
    </g>
   </g>
  </g>
 </g>
 <defs>
  <clipPath id="p63d98a9ae1">
   <rect x="27" y="25.92" width="167.4" height="166.32"/>
  </clipPath>
 </defs>
</svg>
