<?xml version="1.0" encoding="utf-8" standalone="no"?>
<!DOCTYPE svg PUBLIC "-//W3C//DTD SVG 1.1//EN"
  "http://www.w3.org/Graphics/SVG/1.1/DTD/svg11.dtd">
<svg xmlns:xlink="http://www.w3.org/1999/xlink" width="288pt" height="288pt" viewBox="0 0 288 288" xmlns="http://www.w3.org/2000/svg" version="1.1">
 <metadata>
  <rdf:RDF xmlns:dc="http://purl.org/dc/elements/1.1/" xmlns:cc="http://creativecommons.org/ns#" xmlns:rdf="http://www.w3.org/1999/02/22-rdf-syntax-ns#">
   <cc:Work>
    <dc:type rdf:resource="http://purl.org/dc/dcmitype/StillImage"/>
    <dc:date>2025-08-25T17:11:44.596267</dc:date>
    <dc:format>image/svg+xml</dc:format>
    <dc:creator>
     <cc:Agent>
      <dc:title>Matplotlib v3.10.1, https://matplotlib.org/</dc:title>
     </cc:Agent>
    </dc:creator>
   </cc:Work>
  </rdf:RDF>
 </metadata>
 <defs>
  <style type="text/css">*{stroke-linejoin: round; stroke-linecap: butt}</style>
 </defs>
 <g id="figure_1">
  <g id="patch_1">
   <path d="M 0 288 
L 288 288 
L 288 0 
L 0 0 
L 0 288 
z
" style="fill: none"/>
  </g>
  <g id="axes_1">
   <g id="patch_2">
    <path d="M 105.338 192.550081 
L 277.2 192.550081 
L 277.2 79.296 
L 105.338 79.296 
L 105.338 192.550081 
z
" style="fill: none"/>
   </g>
   <g id="FillBetweenPolyCollection_1">
    <defs>
     <path id="m6dd75e1f74" d="M 143.566602 -141.250204 
L 127.372697 -141.250204 
L 126.677525 -141.629888 
L 125.962416 -142.009573 
L 125.231354 -142.389257 
L 124.488718 -142.768942 
L 123.739238 -143.148626 
L 122.987941 -143.52831 
L 122.240095 -143.907995 
L 121.501143 -144.287679 
L 120.776636 -144.667364 
L 120.072169 -145.047048 
L 119.393309 -145.426732 
L 118.745527 -145.806417 
L 118.134134 -146.186101 
L 117.564221 -146.565786 
L 117.040597 -146.94547 
L 116.567738 -147.325155 
L 116.149738 -147.704839 
L 115.790265 -148.084523 
L 115.492521 -148.464208 
L 115.259209 -148.843892 
L 115.092497 -149.223577 
L 114.993991 -149.603261 
L 114.964712 -149.982945 
L 115.005064 -150.36263 
L 115.114819 -150.742314 
L 115.293097 -151.121999 
L 115.538345 -151.501683 
L 115.848329 -151.881368 
L 116.220123 -152.261052 
L 116.650114 -152.640736 
L 117.134001 -153.020421 
L 117.66682 -153.400105 
L 118.242963 -153.77979 
L 118.856223 -154.159474 
L 119.499839 -154.539158 
L 120.166564 -154.918843 
L 120.848738 -155.298527 
L 121.538372 -155.678212 
L 122.227246 -156.057896 
L 122.90701 -156.43758 
L 123.569292 -156.817265 
L 124.205807 -157.196949 
L 124.808469 -157.576634 
L 125.369496 -157.956318 
L 125.881515 -158.336003 
L 126.337655 -158.715687 
L 126.731638 -159.095371 
L 127.057856 -159.475056 
L 127.311441 -159.85474 
L 127.488327 -160.234425 
L 127.585303 -160.614109 
L 127.600054 -160.993793 
L 127.531201 -161.373478 
L 127.378334 -161.753162 
L 127.14203 -162.132847 
L 126.82388 -162.512531 
L 126.426496 -162.892216 
L 125.953521 -163.2719 
L 125.409619 -163.651584 
L 124.80047 -164.031269 
L 124.132735 -164.410953 
L 123.414021 -164.790638 
L 122.65282 -165.170322 
L 121.858432 -165.550006 
L 121.040868 -165.929691 
L 120.210732 -166.309375 
L 119.379081 -166.68906 
L 118.557272 -167.068744 
L 117.756779 -167.448428 
L 116.989013 -167.828113 
L 116.26512 -168.207797 
L 115.595778 -168.587482 
L 114.991001 -168.967166 
L 114.459942 -169.346851 
L 114.010716 -169.726535 
L 113.650241 -170.106219 
L 113.384102 -170.485904 
L 113.216445 -170.865588 
L 113.149909 -171.245273 
L 113.185584 -171.624957 
L 113.323016 -172.004641 
L 113.56024 -172.384326 
L 113.893853 -172.76401 
L 114.31912 -173.143695 
L 114.830099 -173.523379 
L 115.419804 -173.903064 
L 116.080377 -174.282748 
L 116.803269 -174.662432 
L 117.57944 -175.042117 
L 118.399548 -175.421801 
L 119.254138 -175.801486 
L 120.133824 -176.18117 
L 121.029448 -176.560854 
L 121.932236 -176.940539 
L 122.833915 -177.320223 
L 123.72683 -177.699908 
L 124.604015 -178.079592 
L 125.459266 -178.459276 
L 126.28717 -178.838961 
L 144.652129 -178.838961 
L 144.652129 -178.838961 
L 145.480032 -178.459276 
L 146.335283 -178.079592 
L 147.212469 -177.699908 
L 148.105383 -177.320223 
L 149.007063 -176.940539 
L 149.90985 -176.560854 
L 150.805475 -176.18117 
L 151.685161 -175.801486 
L 152.539751 -175.421801 
L 153.359859 -175.042117 
L 154.13603 -174.662432 
L 154.858922 -174.282748 
L 155.519494 -173.903064 
L 156.1092 -173.523379 
L 156.620179 -173.143695 
L 157.045445 -172.76401 
L 157.379059 -172.384326 
L 157.616283 -172.004641 
L 157.753714 -171.624957 
L 157.78939 -171.245273 
L 157.722853 -170.865588 
L 157.555197 -170.485904 
L 157.289058 -170.106219 
L 156.928583 -169.726535 
L 156.479357 -169.346851 
L 155.948298 -168.967166 
L 155.343521 -168.587482 
L 154.674179 -168.207797 
L 153.950285 -167.828113 
L 153.18252 -167.448428 
L 152.382027 -167.068744 
L 151.560217 -166.68906 
L 150.728567 -166.309375 
L 149.898431 -165.929691 
L 149.080866 -165.550006 
L 148.286478 -165.170322 
L 147.525278 -164.790638 
L 146.806564 -164.410953 
L 146.138829 -164.031269 
L 145.52968 -163.651584 
L 144.985778 -163.2719 
L 144.512802 -162.892216 
L 144.115419 -162.512531 
L 143.797269 -162.132847 
L 143.560965 -161.753162 
L 143.408097 -161.373478 
L 143.339245 -160.993793 
L 143.353996 -160.614109 
L 143.450972 -160.234425 
L 143.627858 -159.85474 
L 143.881443 -159.475056 
L 144.207661 -159.095371 
L 144.601643 -158.715687 
L 145.057783 -158.336003 
L 145.569802 -157.956318 
L 146.13083 -157.576634 
L 146.733492 -157.196949 
L 147.370007 -156.817265 
L 148.032289 -156.43758 
L 148.712053 -156.057896 
L 149.400927 -155.678212 
L 150.090561 -155.298527 
L 150.772735 -154.918843 
L 151.43946 -154.539158 
L 152.083076 -154.159474 
L 152.696335 -153.77979 
L 153.272479 -153.400105 
L 153.805297 -153.020421 
L 154.289185 -152.640736 
L 154.719176 -152.261052 
L 155.09097 -151.881368 
L 155.400954 -151.501683 
L 155.646201 -151.121999 
L 155.824479 -150.742314 
L 155.934235 -150.36263 
L 155.974587 -149.982945 
L 155.945307 -149.603261 
L 155.846802 -149.223577 
L 155.68009 -148.843892 
L 155.446778 -148.464208 
L 155.149034 -148.084523 
L 154.789561 -147.704839 
L 154.371561 -147.325155 
L 153.898702 -146.94547 
L 153.375078 -146.565786 
L 152.805164 -146.186101 
L 152.193772 -145.806417 
L 151.54599 -145.426732 
L 150.867129 -145.047048 
L 150.162662 -144.667364 
L 149.438156 -144.287679 
L 148.699203 -143.907995 
L 147.951357 -143.52831 
L 147.200061 -143.148626 
L 146.450581 -142.768942 
L 145.707945 -142.389257 
L 144.976883 -142.009573 
L 144.261774 -141.629888 
L 143.566602 -141.250204 
z
" style="stroke: #323232; stroke-opacity: 0.4; stroke-width: 1.25"/>
    </defs>
    <g clip-path="url(#p76e019baad)">
     <use xlink:href="#m6dd75e1f74" x="0" y="288" style="fill: #dc9238; fill-opacity: 0.4; stroke: #323232; stroke-opacity: 0.4; stroke-width: 1.25"/>
    </g>
   </g>
   <g id="FillBetweenPolyCollection_2">
    <defs>
     <path id="m3f9cbc81fe" d="M 197.868597 -157.022846 
L 184.669403 -157.022846 
L 184.515857 -157.374061 
L 184.380346 -157.725276 
L 184.263135 -158.076491 
L 184.164231 -158.427705 
L 184.083394 -158.77892 
L 184.020148 -159.130135 
L 183.973797 -159.48135 
L 183.943441 -159.832565 
L 183.928 -160.18378 
L 183.926232 -160.534995 
L 183.936758 -160.88621 
L 183.958082 -161.237425 
L 183.988615 -161.58864 
L 184.026696 -161.939855 
L 184.070611 -162.29107 
L 184.118618 -162.642285 
L 184.16896 -162.9935 
L 184.219891 -163.344715 
L 184.269693 -163.695929 
L 184.316693 -164.047144 
L 184.359287 -164.398359 
L 184.395959 -164.749574 
L 184.425298 -165.100789 
L 184.446024 -165.452004 
L 184.457002 -165.803219 
L 184.457264 -166.154434 
L 184.446027 -166.505649 
L 184.422705 -166.856864 
L 184.386925 -167.208079 
L 184.338532 -167.559294 
L 184.277595 -167.910509 
L 184.204408 -168.261724 
L 184.119481 -168.612939 
L 184.023527 -168.964154 
L 183.91745 -169.315368 
L 183.802319 -169.666583 
L 183.679339 -170.017798 
L 183.549822 -170.369013 
L 183.415151 -170.720228 
L 183.276737 -171.071443 
L 183.135988 -171.422658 
L 182.99426 -171.773873 
L 182.852827 -172.125088 
L 182.712836 -172.476303 
L 182.575279 -172.827518 
L 182.440964 -173.178733 
L 182.310486 -173.529948 
L 182.184212 -173.881163 
L 182.062267 -174.232378 
L 181.944524 -174.583592 
L 181.830609 -174.934807 
L 181.719896 -175.286022 
L 181.611526 -175.637237 
L 181.504415 -175.988452 
L 181.397274 -176.339667 
L 181.288632 -176.690882 
L 181.176857 -177.042097 
L 181.060188 -177.393312 
L 180.936759 -177.744527 
L 180.804631 -178.095742 
L 180.661825 -178.446957 
L 180.506351 -178.798172 
L 180.336243 -179.149387 
L 180.149592 -179.500602 
L 179.944579 -179.851816 
L 179.719516 -180.203031 
L 179.472876 -180.554246 
L 179.203336 -180.905461 
L 178.909812 -181.256676 
L 178.5915 -181.607891 
L 178.247917 -181.959106 
L 177.878938 -182.310321 
L 177.484837 -182.661536 
L 177.066324 -183.012751 
L 176.624577 -183.363966 
L 176.161277 -183.715181 
L 175.678627 -184.066396 
L 175.179373 -184.417611 
L 174.666813 -184.768826 
L 174.144796 -185.120041 
L 173.617708 -185.471255 
L 173.090446 -185.82247 
L 172.568385 -186.173685 
L 172.057314 -186.5249 
L 171.563378 -186.876115 
L 171.092987 -187.22733 
L 170.652724 -187.578545 
L 170.249235 -187.92976 
L 169.88911 -188.280975 
L 169.578753 -188.63219 
L 169.324253 -188.983405 
L 169.13125 -189.33462 
L 169.004801 -189.685835 
L 168.94926 -190.03705 
L 168.968156 -190.388265 
L 169.0641 -190.739479 
L 169.2387 -191.090694 
L 169.492498 -191.441909 
L 169.824934 -191.793124 
L 212.713066 -191.793124 
L 212.713066 -191.793124 
L 213.045502 -191.441909 
L 213.2993 -191.090694 
L 213.4739 -190.739479 
L 213.569844 -190.388265 
L 213.58874 -190.03705 
L 213.533199 -189.685835 
L 213.40675 -189.33462 
L 213.213747 -188.983405 
L 212.959247 -188.63219 
L 212.64889 -188.280975 
L 212.288765 -187.92976 
L 211.885276 -187.578545 
L 211.445013 -187.22733 
L 210.974622 -186.876115 
L 210.480686 -186.5249 
L 209.969615 -186.173685 
L 209.447554 -185.82247 
L 208.920292 -185.471255 
L 208.393204 -185.120041 
L 207.871187 -184.768826 
L 207.358627 -184.417611 
L 206.859373 -184.066396 
L 206.376723 -183.715181 
L 205.913423 -183.363966 
L 205.471676 -183.012751 
L 205.053163 -182.661536 
L 204.659062 -182.310321 
L 204.290083 -181.959106 
L 203.9465 -181.607891 
L 203.628188 -181.256676 
L 203.334664 -180.905461 
L 203.065124 -180.554246 
L 202.818484 -180.203031 
L 202.593421 -179.851816 
L 202.388408 -179.500602 
L 202.201757 -179.149387 
L 202.031649 -178.798172 
L 201.876175 -178.446957 
L 201.733369 -178.095742 
L 201.601241 -177.744527 
L 201.477812 -177.393312 
L 201.361143 -177.042097 
L 201.249368 -176.690882 
L 201.140726 -176.339667 
L 201.033585 -175.988452 
L 200.926474 -175.637237 
L 200.818104 -175.286022 
L 200.707391 -174.934807 
L 200.593476 -174.583592 
L 200.475733 -174.232378 
L 200.353788 -173.881163 
L 200.227514 -173.529948 
L 200.097036 -173.178733 
L 199.962721 -172.827518 
L 199.825164 -172.476303 
L 199.685173 -172.125088 
L 199.54374 -171.773873 
L 199.402012 -171.422658 
L 199.261263 -171.071443 
L 199.122849 -170.720228 
L 198.988178 -170.369013 
L 198.858661 -170.017798 
L 198.735681 -169.666583 
L 198.62055 -169.315368 
L 198.514473 -168.964154 
L 198.418519 -168.612939 
L 198.333592 -168.261724 
L 198.260405 -167.910509 
L 198.199468 -167.559294 
L 198.151075 -167.208079 
L 198.115295 -166.856864 
L 198.091973 -166.505649 
L 198.080736 -166.154434 
L 198.080998 -165.803219 
L 198.091976 -165.452004 
L 198.112702 -165.100789 
L 198.142041 -164.749574 
L 198.178713 -164.398359 
L 198.221307 -164.047144 
L 198.268307 -163.695929 
L 198.318109 -163.344715 
L 198.36904 -162.9935 
L 198.419382 -162.642285 
L 198.467389 -162.29107 
L 198.511304 -161.939855 
L 198.549385 -161.58864 
L 198.579918 -161.237425 
L 198.601242 -160.88621 
L 198.611768 -160.534995 
L 198.61 -160.18378 
L 198.594559 -159.832565 
L 198.564203 -159.48135 
L 198.517852 -159.130135 
L 198.454606 -158.77892 
L 198.373769 -158.427705 
L 198.274865 -158.076491 
L 198.157654 -157.725276 
L 198.022143 -157.374061 
L 197.868597 -157.022846 
z
" style="stroke: #323232; stroke-opacity: 0.4; stroke-width: 1.25"/>
    </defs>
    <g clip-path="url(#p76e019baad)">
     <use xlink:href="#m3f9cbc81fe" x="0" y="288" style="fill: #159152; fill-opacity: 0.4; stroke: #323232; stroke-opacity: 0.4; stroke-width: 1.25"/>
    </g>
   </g>
   <g id="FillBetweenPolyCollection_3">
    <defs>
     <path id="m16d748a79b" d="M 253.31599 -157.022846 
L 240.820711 -157.022846 
L 240.635579 -157.374061 
L 240.467956 -157.725276 
L 240.318597 -158.076491 
L 240.188005 -158.427705 
L 240.07643 -158.77892 
L 239.983878 -159.130135 
L 239.910106 -159.48135 
L 239.854634 -159.832565 
L 239.816753 -160.18378 
L 239.795529 -160.534995 
L 239.789815 -160.88621 
L 239.79826 -161.237425 
L 239.81932 -161.58864 
L 239.851266 -161.939855 
L 239.892205 -162.29107 
L 239.940088 -162.642285 
L 239.992737 -162.9935 
L 240.047867 -163.344715 
L 240.103112 -163.695929 
L 240.15606 -164.047144 
L 240.204294 -164.398359 
L 240.24543 -164.749574 
L 240.277165 -165.100789 
L 240.297323 -165.452004 
L 240.303907 -165.803219 
L 240.295147 -166.154434 
L 240.269541 -166.505649 
L 240.225903 -166.856864 
L 240.163389 -167.208079 
L 240.081531 -167.559294 
L 239.980248 -167.910509 
L 239.859853 -168.261724 
L 239.721046 -168.612939 
L 239.564894 -168.964154 
L 239.392804 -169.315368 
L 239.20648 -169.666583 
L 239.007871 -170.017798 
L 238.799117 -170.369013 
L 238.582477 -170.720228 
L 238.360269 -171.071443 
L 238.134796 -171.422658 
L 237.908279 -171.773873 
L 237.682796 -172.125088 
L 237.460218 -172.476303 
L 237.242163 -172.827518 
L 237.029952 -173.178733 
L 236.824576 -173.529948 
L 236.626674 -173.881163 
L 236.436523 -174.232378 
L 236.254034 -174.583592 
L 236.078761 -174.934807 
L 235.909914 -175.286022 
L 235.746386 -175.637237 
L 235.586777 -175.988452 
L 235.429434 -176.339667 
L 235.27248 -176.690882 
L 235.113865 -177.042097 
L 234.951402 -177.393312 
L 234.782814 -177.744527 
L 234.605783 -178.095742 
L 234.417999 -178.446957 
L 234.217207 -178.798172 
L 234.001265 -179.149387 
L 233.768192 -179.500602 
L 233.516225 -179.851816 
L 233.243874 -180.203031 
L 232.94998 -180.554246 
L 232.633763 -180.905461 
L 232.294879 -181.256676 
L 231.933462 -181.607891 
L 231.550171 -181.959106 
L 231.146216 -182.310321 
L 230.723388 -182.661536 
L 230.284069 -183.012751 
L 229.831234 -183.363966 
L 229.368435 -183.715181 
L 228.899779 -184.066396 
L 228.429883 -184.417611 
L 227.963821 -184.768826 
L 227.507056 -185.120041 
L 227.065362 -185.471255 
L 226.644731 -185.82247 
L 226.251282 -186.173685 
L 225.891148 -186.5249 
L 225.570376 -186.876115 
L 225.294812 -187.22733 
L 225.069997 -187.578545 
L 224.901054 -187.92976 
L 224.792592 -188.280975 
L 224.74861 -188.63219 
L 224.77241 -188.983405 
L 224.866523 -189.33462 
L 225.032646 -189.685835 
L 225.271594 -190.03705 
L 225.583264 -190.388265 
L 225.966622 -190.739479 
L 226.419699 -191.090694 
L 226.939614 -191.441909 
L 227.522604 -191.793124 
L 266.614098 -191.793124 
L 266.614098 -191.793124 
L 267.197088 -191.441909 
L 267.717002 -191.090694 
L 268.17008 -190.739479 
L 268.553438 -190.388265 
L 268.865108 -190.03705 
L 269.104055 -189.685835 
L 269.270178 -189.33462 
L 269.364291 -188.983405 
L 269.388091 -188.63219 
L 269.344109 -188.280975 
L 269.235647 -187.92976 
L 269.066705 -187.578545 
L 268.841889 -187.22733 
L 268.566326 -186.876115 
L 268.245554 -186.5249 
L 267.88542 -186.173685 
L 267.49197 -185.82247 
L 267.07134 -185.471255 
L 266.629645 -185.120041 
L 266.17288 -184.768826 
L 265.706818 -184.417611 
L 265.236922 -184.066396 
L 264.768266 -183.715181 
L 264.305467 -183.363966 
L 263.852632 -183.012751 
L 263.413313 -182.661536 
L 262.990486 -182.310321 
L 262.586531 -181.959106 
L 262.203239 -181.607891 
L 261.841823 -181.256676 
L 261.502938 -180.905461 
L 261.186721 -180.554246 
L 260.892827 -180.203031 
L 260.620477 -179.851816 
L 260.368509 -179.500602 
L 260.135436 -179.149387 
L 259.919494 -178.798172 
L 259.718703 -178.446957 
L 259.530918 -178.095742 
L 259.353888 -177.744527 
L 259.1853 -177.393312 
L 259.022836 -177.042097 
L 258.864221 -176.690882 
L 258.707268 -176.339667 
L 258.549924 -175.988452 
L 258.390316 -175.637237 
L 258.226787 -175.286022 
L 258.057941 -174.934807 
L 257.882667 -174.583592 
L 257.700178 -174.232378 
L 257.510027 -173.881163 
L 257.312125 -173.529948 
L 257.106749 -173.178733 
L 256.894538 -172.827518 
L 256.676483 -172.476303 
L 256.453905 -172.125088 
L 256.228422 -171.773873 
L 256.001906 -171.422658 
L 255.776433 -171.071443 
L 255.554224 -170.720228 
L 255.337585 -170.369013 
L 255.12883 -170.017798 
L 254.930221 -169.666583 
L 254.743897 -169.315368 
L 254.571808 -168.964154 
L 254.415656 -168.612939 
L 254.276848 -168.261724 
L 254.156453 -167.910509 
L 254.05517 -167.559294 
L 253.973312 -167.208079 
L 253.910799 -166.856864 
L 253.86716 -166.505649 
L 253.841554 -166.154434 
L 253.832794 -165.803219 
L 253.839378 -165.452004 
L 253.859537 -165.100789 
L 253.891271 -164.749574 
L 253.932407 -164.398359 
L 253.980641 -164.047144 
L 254.03359 -163.695929 
L 254.088834 -163.344715 
L 254.143964 -162.9935 
L 254.196613 -162.642285 
L 254.244497 -162.29107 
L 254.285435 -161.939855 
L 254.317381 -161.58864 
L 254.338441 -161.237425 
L 254.346886 -160.88621 
L 254.341172 -160.534995 
L 254.319948 -160.18378 
L 254.282067 -159.832565 
L 254.226596 -159.48135 
L 254.152823 -159.130135 
L 254.060271 -158.77892 
L 253.948697 -158.427705 
L 253.818104 -158.076491 
L 253.668745 -157.725276 
L 253.501123 -157.374061 
L 253.31599 -157.022846 
z
" style="stroke: #323232; stroke-opacity: 0.4; stroke-width: 1.25"/>
    </defs>
    <g clip-path="url(#p76e019baad)">
     <use xlink:href="#m16d748a79b" x="0" y="288" style="fill: #c0c0c0; fill-opacity: 0.4; stroke: #323232; stroke-opacity: 0.4; stroke-width: 1.25"/>
    </g>
   </g>
   <g id="matplotlib.axis_1">
    <g id="xtick_1">
     <g id="line2d_1">
      <defs>
       <path id="mdc4a748892" d="M 0 0 
L 0 3.5 
" style="stroke: #000000; stroke-width: 0.8"/>
      </defs>
      <g>
       <use xlink:href="#mdc4a748892" x="135.469649" y="192.550081" style="stroke: #000000; stroke-width: 0.8"/>
      </g>
     </g>
     <g id="text_1">
      <!-- MTL-sensory -->
      <g transform="translate(89.006549 267.913467) rotate(-30) scale(0.18 -0.18)">
       <defs>
        <path id="DejaVuSans-4d" d="M 628 4666 
L 1569 4666 
L 2759 1491 
L 3956 4666 
L 4897 4666 
L 4897 0 
L 4281 0 
L 4281 4097 
L 3078 897 
L 2444 897 
L 1241 4097 
L 1241 0 
L 628 0 
L 628 4666 
z
" transform="scale(0.015625)"/>
        <path id="DejaVuSans-54" d="M -19 4666 
L 3928 4666 
L 3928 4134 
L 2272 4134 
L 2272 0 
L 1638 0 
L 1638 4134 
L -19 4134 
L -19 4666 
z
" transform="scale(0.015625)"/>
        <path id="DejaVuSans-4c" d="M 628 4666 
L 1259 4666 
L 1259 531 
L 3531 531 
L 3531 0 
L 628 0 
L 628 4666 
z
" transform="scale(0.015625)"/>
        <path id="DejaVuSans-2d" d="M 313 2009 
L 1997 2009 
L 1997 1497 
L 313 1497 
L 313 2009 
z
" transform="scale(0.015625)"/>
        <path id="DejaVuSans-73" d="M 2834 3397 
L 2834 2853 
Q 2591 2978 2328 3040 
Q 2066 3103 1784 3103 
Q 1356 3103 1142 2972 
Q 928 2841 928 2578 
Q 928 2378 1081 2264 
Q 1234 2150 1697 2047 
L 1894 2003 
Q 2506 1872 2764 1633 
Q 3022 1394 3022 966 
Q 3022 478 2636 193 
Q 2250 -91 1575 -91 
Q 1294 -91 989 -36 
Q 684 19 347 128 
L 347 722 
Q 666 556 975 473 
Q 1284 391 1588 391 
Q 1994 391 2212 530 
Q 2431 669 2431 922 
Q 2431 1156 2273 1281 
Q 2116 1406 1581 1522 
L 1381 1569 
Q 847 1681 609 1914 
Q 372 2147 372 2553 
Q 372 3047 722 3315 
Q 1072 3584 1716 3584 
Q 2034 3584 2315 3537 
Q 2597 3491 2834 3397 
z
" transform="scale(0.015625)"/>
        <path id="DejaVuSans-65" d="M 3597 1894 
L 3597 1613 
L 953 1613 
Q 991 1019 1311 708 
Q 1631 397 2203 397 
Q 2534 397 2845 478 
Q 3156 559 3463 722 
L 3463 178 
Q 3153 47 2828 -22 
Q 2503 -91 2169 -91 
Q 1331 -91 842 396 
Q 353 884 353 1716 
Q 353 2575 817 3079 
Q 1281 3584 2069 3584 
Q 2775 3584 3186 3129 
Q 3597 2675 3597 1894 
z
M 3022 2063 
Q 3016 2534 2758 2815 
Q 2500 3097 2075 3097 
Q 1594 3097 1305 2825 
Q 1016 2553 972 2059 
L 3022 2063 
z
" transform="scale(0.015625)"/>
        <path id="DejaVuSans-6e" d="M 3513 2113 
L 3513 0 
L 2938 0 
L 2938 2094 
Q 2938 2591 2744 2837 
Q 2550 3084 2163 3084 
Q 1697 3084 1428 2787 
Q 1159 2491 1159 1978 
L 1159 0 
L 581 0 
L 581 3500 
L 1159 3500 
L 1159 2956 
Q 1366 3272 1645 3428 
Q 1925 3584 2291 3584 
Q 2894 3584 3203 3211 
Q 3513 2838 3513 2113 
z
" transform="scale(0.015625)"/>
        <path id="DejaVuSans-6f" d="M 1959 3097 
Q 1497 3097 1228 2736 
Q 959 2375 959 1747 
Q 959 1119 1226 758 
Q 1494 397 1959 397 
Q 2419 397 2687 759 
Q 2956 1122 2956 1747 
Q 2956 2369 2687 2733 
Q 2419 3097 1959 3097 
z
M 1959 3584 
Q 2709 3584 3137 3096 
Q 3566 2609 3566 1747 
Q 3566 888 3137 398 
Q 2709 -91 1959 -91 
Q 1206 -91 779 398 
Q 353 888 353 1747 
Q 353 2609 779 3096 
Q 1206 3584 1959 3584 
z
" transform="scale(0.015625)"/>
        <path id="DejaVuSans-72" d="M 2631 2963 
Q 2534 3019 2420 3045 
Q 2306 3072 2169 3072 
Q 1681 3072 1420 2755 
Q 1159 2438 1159 1844 
L 1159 0 
L 581 0 
L 581 3500 
L 1159 3500 
L 1159 2956 
Q 1341 3275 1631 3429 
Q 1922 3584 2338 3584 
Q 2397 3584 2469 3576 
Q 2541 3569 2628 3553 
L 2631 2963 
z
" transform="scale(0.015625)"/>
        <path id="DejaVuSans-79" d="M 2059 -325 
Q 1816 -950 1584 -1140 
Q 1353 -1331 966 -1331 
L 506 -1331 
L 506 -850 
L 844 -850 
Q 1081 -850 1212 -737 
Q 1344 -625 1503 -206 
L 1606 56 
L 191 3500 
L 800 3500 
L 1894 763 
L 2988 3500 
L 3597 3500 
L 2059 -325 
z
" transform="scale(0.015625)"/>
       </defs>
       <use xlink:href="#DejaVuSans-4d"/>
       <use xlink:href="#DejaVuSans-54" transform="translate(86.279297 0)"/>
       <use xlink:href="#DejaVuSans-4c" transform="translate(147.363281 0)"/>
       <use xlink:href="#DejaVuSans-2d" transform="translate(201.326172 0)"/>
       <use xlink:href="#DejaVuSans-73" transform="translate(237.410156 0)"/>
       <use xlink:href="#DejaVuSans-65" transform="translate(289.509766 0)"/>
       <use xlink:href="#DejaVuSans-6e" transform="translate(351.033203 0)"/>
       <use xlink:href="#DejaVuSans-73" transform="translate(414.412109 0)"/>
       <use xlink:href="#DejaVuSans-6f" transform="translate(466.511719 0)"/>
       <use xlink:href="#DejaVuSans-72" transform="translate(527.693359 0)"/>
       <use xlink:href="#DejaVuSans-79" transform="translate(568.806641 0)"/>
      </g>
     </g>
    </g>
    <g id="xtick_2">
     <g id="line2d_2">
      <g>
       <use xlink:href="#mdc4a748892" x="191.269" y="192.550081" style="stroke: #000000; stroke-width: 0.8"/>
      </g>
     </g>
     <g id="text_2">
      <!-- MTL-semantic -->
      <g transform="translate(139.577677 273.950498) rotate(-30) scale(0.18 -0.18)">
       <defs>
        <path id="DejaVuSans-6d" d="M 3328 2828 
Q 3544 3216 3844 3400 
Q 4144 3584 4550 3584 
Q 5097 3584 5394 3201 
Q 5691 2819 5691 2113 
L 5691 0 
L 5113 0 
L 5113 2094 
Q 5113 2597 4934 2840 
Q 4756 3084 4391 3084 
Q 3944 3084 3684 2787 
Q 3425 2491 3425 1978 
L 3425 0 
L 2847 0 
L 2847 2094 
Q 2847 2600 2669 2842 
Q 2491 3084 2119 3084 
Q 1678 3084 1418 2786 
Q 1159 2488 1159 1978 
L 1159 0 
L 581 0 
L 581 3500 
L 1159 3500 
L 1159 2956 
Q 1356 3278 1631 3431 
Q 1906 3584 2284 3584 
Q 2666 3584 2933 3390 
Q 3200 3197 3328 2828 
z
" transform="scale(0.015625)"/>
        <path id="DejaVuSans-61" d="M 2194 1759 
Q 1497 1759 1228 1600 
Q 959 1441 959 1056 
Q 959 750 1161 570 
Q 1363 391 1709 391 
Q 2188 391 2477 730 
Q 2766 1069 2766 1631 
L 2766 1759 
L 2194 1759 
z
M 3341 1997 
L 3341 0 
L 2766 0 
L 2766 531 
Q 2569 213 2275 61 
Q 1981 -91 1556 -91 
Q 1019 -91 701 211 
Q 384 513 384 1019 
Q 384 1609 779 1909 
Q 1175 2209 1959 2209 
L 2766 2209 
L 2766 2266 
Q 2766 2663 2505 2880 
Q 2244 3097 1772 3097 
Q 1472 3097 1187 3025 
Q 903 2953 641 2809 
L 641 3341 
Q 956 3463 1253 3523 
Q 1550 3584 1831 3584 
Q 2591 3584 2966 3190 
Q 3341 2797 3341 1997 
z
" transform="scale(0.015625)"/>
        <path id="DejaVuSans-74" d="M 1172 4494 
L 1172 3500 
L 2356 3500 
L 2356 3053 
L 1172 3053 
L 1172 1153 
Q 1172 725 1289 603 
Q 1406 481 1766 481 
L 2356 481 
L 2356 0 
L 1766 0 
Q 1100 0 847 248 
Q 594 497 594 1153 
L 594 3053 
L 172 3053 
L 172 3500 
L 594 3500 
L 594 4494 
L 1172 4494 
z
" transform="scale(0.015625)"/>
        <path id="DejaVuSans-69" d="M 603 3500 
L 1178 3500 
L 1178 0 
L 603 0 
L 603 3500 
z
M 603 4863 
L 1178 4863 
L 1178 4134 
L 603 4134 
L 603 4863 
z
" transform="scale(0.015625)"/>
        <path id="DejaVuSans-63" d="M 3122 3366 
L 3122 2828 
Q 2878 2963 2633 3030 
Q 2388 3097 2138 3097 
Q 1578 3097 1268 2742 
Q 959 2388 959 1747 
Q 959 1106 1268 751 
Q 1578 397 2138 397 
Q 2388 397 2633 464 
Q 2878 531 3122 666 
L 3122 134 
Q 2881 22 2623 -34 
Q 2366 -91 2075 -91 
Q 1284 -91 818 406 
Q 353 903 353 1747 
Q 353 2603 823 3093 
Q 1294 3584 2113 3584 
Q 2378 3584 2631 3529 
Q 2884 3475 3122 3366 
z
" transform="scale(0.015625)"/>
       </defs>
       <use xlink:href="#DejaVuSans-4d"/>
       <use xlink:href="#DejaVuSans-54" transform="translate(86.279297 0)"/>
       <use xlink:href="#DejaVuSans-4c" transform="translate(147.363281 0)"/>
       <use xlink:href="#DejaVuSans-2d" transform="translate(201.326172 0)"/>
       <use xlink:href="#DejaVuSans-73" transform="translate(237.410156 0)"/>
       <use xlink:href="#DejaVuSans-65" transform="translate(289.509766 0)"/>
       <use xlink:href="#DejaVuSans-6d" transform="translate(351.033203 0)"/>
       <use xlink:href="#DejaVuSans-61" transform="translate(448.445312 0)"/>
       <use xlink:href="#DejaVuSans-6e" transform="translate(509.724609 0)"/>
       <use xlink:href="#DejaVuSans-74" transform="translate(573.103516 0)"/>
       <use xlink:href="#DejaVuSans-69" transform="translate(612.3125 0)"/>
       <use xlink:href="#DejaVuSans-63" transform="translate(640.095703 0)"/>
      </g>
     </g>
    </g>
    <g id="xtick_3">
     <g id="line2d_3">
      <g>
       <use xlink:href="#mdc4a748892" x="247.068351" y="192.550081" style="stroke: #000000; stroke-width: 0.8"/>
      </g>
     </g>
     <g id="text_3">
      <!-- labels -->
      <g transform="translate(226.64041 237.850654) rotate(-30) scale(0.18 -0.18)">
       <defs>
        <path id="DejaVuSans-6c" d="M 603 4863 
L 1178 4863 
L 1178 0 
L 603 0 
L 603 4863 
z
" transform="scale(0.015625)"/>
        <path id="DejaVuSans-62" d="M 3116 1747 
Q 3116 2381 2855 2742 
Q 2594 3103 2138 3103 
Q 1681 3103 1420 2742 
Q 1159 2381 1159 1747 
Q 1159 1113 1420 752 
Q 1681 391 2138 391 
Q 2594 391 2855 752 
Q 3116 1113 3116 1747 
z
M 1159 2969 
Q 1341 3281 1617 3432 
Q 1894 3584 2278 3584 
Q 2916 3584 3314 3078 
Q 3713 2572 3713 1747 
Q 3713 922 3314 415 
Q 2916 -91 2278 -91 
Q 1894 -91 1617 61 
Q 1341 213 1159 525 
L 1159 0 
L 581 0 
L 581 4863 
L 1159 4863 
L 1159 2969 
z
" transform="scale(0.015625)"/>
       </defs>
       <use xlink:href="#DejaVuSans-6c"/>
       <use xlink:href="#DejaVuSans-61" transform="translate(27.783203 0)"/>
       <use xlink:href="#DejaVuSans-62" transform="translate(89.0625 0)"/>
       <use xlink:href="#DejaVuSans-65" transform="translate(152.539062 0)"/>
       <use xlink:href="#DejaVuSans-6c" transform="translate(214.0625 0)"/>
       <use xlink:href="#DejaVuSans-73" transform="translate(241.845703 0)"/>
      </g>
     </g>
    </g>
   </g>
   <g id="matplotlib.axis_2">
    <g id="ytick_1">
     <g id="line2d_4">
      <defs>
       <path id="m7ebfaff11e" d="M 0 0 
L -3.5 0 
" style="stroke: #000000; stroke-width: 0.8"/>
      </defs>
      <g>
       <use xlink:href="#m7ebfaff11e" x="105.338" y="192.550081" style="stroke: #000000; stroke-width: 0.8"/>
      </g>
     </g>
     <g id="text_4">
      <!-- 0.00 -->
      <g transform="translate(58.259875 199.388675) scale(0.18 -0.18)">
       <defs>
        <path id="DejaVuSans-30" d="M 2034 4250 
Q 1547 4250 1301 3770 
Q 1056 3291 1056 2328 
Q 1056 1369 1301 889 
Q 1547 409 2034 409 
Q 2525 409 2770 889 
Q 3016 1369 3016 2328 
Q 3016 3291 2770 3770 
Q 2525 4250 2034 4250 
z
M 2034 4750 
Q 2819 4750 3233 4129 
Q 3647 3509 3647 2328 
Q 3647 1150 3233 529 
Q 2819 -91 2034 -91 
Q 1250 -91 836 529 
Q 422 1150 422 2328 
Q 422 3509 836 4129 
Q 1250 4750 2034 4750 
z
" transform="scale(0.015625)"/>
        <path id="DejaVuSans-2e" d="M 684 794 
L 1344 794 
L 1344 0 
L 684 0 
L 684 794 
z
" transform="scale(0.015625)"/>
       </defs>
       <use xlink:href="#DejaVuSans-30"/>
       <use xlink:href="#DejaVuSans-2e" transform="translate(63.623047 0)"/>
       <use xlink:href="#DejaVuSans-30" transform="translate(95.410156 0)"/>
       <use xlink:href="#DejaVuSans-30" transform="translate(159.033203 0)"/>
      </g>
     </g>
    </g>
    <g id="ytick_2">
     <g id="line2d_5">
      <g>
       <use xlink:href="#m7ebfaff11e" x="105.338" y="165.584824" style="stroke: #000000; stroke-width: 0.8"/>
      </g>
     </g>
     <g id="text_5">
      <!-- 0.25 -->
      <g transform="translate(58.259875 172.423417) scale(0.18 -0.18)">
       <defs>
        <path id="DejaVuSans-32" d="M 1228 531 
L 3431 531 
L 3431 0 
L 469 0 
L 469 531 
Q 828 903 1448 1529 
Q 2069 2156 2228 2338 
Q 2531 2678 2651 2914 
Q 2772 3150 2772 3378 
Q 2772 3750 2511 3984 
Q 2250 4219 1831 4219 
Q 1534 4219 1204 4116 
Q 875 4013 500 3803 
L 500 4441 
Q 881 4594 1212 4672 
Q 1544 4750 1819 4750 
Q 2544 4750 2975 4387 
Q 3406 4025 3406 3419 
Q 3406 3131 3298 2873 
Q 3191 2616 2906 2266 
Q 2828 2175 2409 1742 
Q 1991 1309 1228 531 
z
" transform="scale(0.015625)"/>
        <path id="DejaVuSans-35" d="M 691 4666 
L 3169 4666 
L 3169 4134 
L 1269 4134 
L 1269 2991 
Q 1406 3038 1543 3061 
Q 1681 3084 1819 3084 
Q 2600 3084 3056 2656 
Q 3513 2228 3513 1497 
Q 3513 744 3044 326 
Q 2575 -91 1722 -91 
Q 1428 -91 1123 -41 
Q 819 9 494 109 
L 494 744 
Q 775 591 1075 516 
Q 1375 441 1709 441 
Q 2250 441 2565 725 
Q 2881 1009 2881 1497 
Q 2881 1984 2565 2268 
Q 2250 2553 1709 2553 
Q 1456 2553 1204 2497 
Q 953 2441 691 2322 
L 691 4666 
z
" transform="scale(0.015625)"/>
       </defs>
       <use xlink:href="#DejaVuSans-30"/>
       <use xlink:href="#DejaVuSans-2e" transform="translate(63.623047 0)"/>
       <use xlink:href="#DejaVuSans-32" transform="translate(95.410156 0)"/>
       <use xlink:href="#DejaVuSans-35" transform="translate(159.033203 0)"/>
      </g>
     </g>
    </g>
    <g id="ytick_3">
     <g id="line2d_6">
      <g>
       <use xlink:href="#m7ebfaff11e" x="105.338" y="138.619566" style="stroke: #000000; stroke-width: 0.8"/>
      </g>
     </g>
     <g id="text_6">
      <!-- 0.50 -->
      <g transform="translate(58.259875 145.45816) scale(0.18 -0.18)">
       <use xlink:href="#DejaVuSans-30"/>
       <use xlink:href="#DejaVuSans-2e" transform="translate(63.623047 0)"/>
       <use xlink:href="#DejaVuSans-35" transform="translate(95.410156 0)"/>
       <use xlink:href="#DejaVuSans-30" transform="translate(159.033203 0)"/>
      </g>
     </g>
    </g>
    <g id="ytick_4">
     <g id="line2d_7">
      <g>
       <use xlink:href="#m7ebfaff11e" x="105.338" y="111.654309" style="stroke: #000000; stroke-width: 0.8"/>
      </g>
     </g>
     <g id="text_7">
      <!-- 0.75 -->
      <g transform="translate(58.259875 118.492903) scale(0.18 -0.18)">
       <defs>
        <path id="DejaVuSans-37" d="M 525 4666 
L 3525 4666 
L 3525 4397 
L 1831 0 
L 1172 0 
L 2766 4134 
L 525 4134 
L 525 4666 
z
" transform="scale(0.015625)"/>
       </defs>
       <use xlink:href="#DejaVuSans-30"/>
       <use xlink:href="#DejaVuSans-2e" transform="translate(63.623047 0)"/>
       <use xlink:href="#DejaVuSans-37" transform="translate(95.410156 0)"/>
       <use xlink:href="#DejaVuSans-35" transform="translate(159.033203 0)"/>
      </g>
     </g>
    </g>
    <g id="ytick_5">
     <g id="line2d_8">
      <g>
       <use xlink:href="#m7ebfaff11e" x="105.338" y="84.689051" style="stroke: #000000; stroke-width: 0.8"/>
      </g>
     </g>
     <g id="text_8">
      <!-- 1.00 -->
      <g transform="translate(58.259875 91.527645) scale(0.18 -0.18)">
       <defs>
        <path id="DejaVuSans-31" d="M 794 531 
L 1825 531 
L 1825 4091 
L 703 3866 
L 703 4441 
L 1819 4666 
L 2450 4666 
L 2450 531 
L 3481 531 
L 3481 0 
L 794 0 
L 794 531 
z
" transform="scale(0.015625)"/>
       </defs>
       <use xlink:href="#DejaVuSans-31"/>
       <use xlink:href="#DejaVuSans-2e" transform="translate(63.623047 0)"/>
       <use xlink:href="#DejaVuSans-30" transform="translate(95.410156 0)"/>
       <use xlink:href="#DejaVuSans-30" transform="translate(159.033203 0)"/>
      </g>
     </g>
    </g>
    <g id="text_9">
     <!-- Decoder Accuracy -->
     <g transform="translate(27.704875 226.840228) rotate(-90) scale(0.2 -0.2)">
      <defs>
       <path id="DejaVuSans-44" d="M 1259 4147 
L 1259 519 
L 2022 519 
Q 2988 519 3436 956 
Q 3884 1394 3884 2338 
Q 3884 3275 3436 3711 
Q 2988 4147 2022 4147 
L 1259 4147 
z
M 628 4666 
L 1925 4666 
Q 3281 4666 3915 4102 
Q 4550 3538 4550 2338 
Q 4550 1131 3912 565 
Q 3275 0 1925 0 
L 628 0 
L 628 4666 
z
" transform="scale(0.015625)"/>
       <path id="DejaVuSans-64" d="M 2906 2969 
L 2906 4863 
L 3481 4863 
L 3481 0 
L 2906 0 
L 2906 525 
Q 2725 213 2448 61 
Q 2172 -91 1784 -91 
Q 1150 -91 751 415 
Q 353 922 353 1747 
Q 353 2572 751 3078 
Q 1150 3584 1784 3584 
Q 2172 3584 2448 3432 
Q 2725 3281 2906 2969 
z
M 947 1747 
Q 947 1113 1208 752 
Q 1469 391 1925 391 
Q 2381 391 2643 752 
Q 2906 1113 2906 1747 
Q 2906 2381 2643 2742 
Q 2381 3103 1925 3103 
Q 1469 3103 1208 2742 
Q 947 2381 947 1747 
z
" transform="scale(0.015625)"/>
       <path id="DejaVuSans-20" transform="scale(0.015625)"/>
       <path id="DejaVuSans-41" d="M 2188 4044 
L 1331 1722 
L 3047 1722 
L 2188 4044 
z
M 1831 4666 
L 2547 4666 
L 4325 0 
L 3669 0 
L 3244 1197 
L 1141 1197 
L 716 0 
L 50 0 
L 1831 4666 
z
" transform="scale(0.015625)"/>
       <path id="DejaVuSans-75" d="M 544 1381 
L 544 3500 
L 1119 3500 
L 1119 1403 
Q 1119 906 1312 657 
Q 1506 409 1894 409 
Q 2359 409 2629 706 
Q 2900 1003 2900 1516 
L 2900 3500 
L 3475 3500 
L 3475 0 
L 2900 0 
L 2900 538 
Q 2691 219 2414 64 
Q 2138 -91 1772 -91 
Q 1169 -91 856 284 
Q 544 659 544 1381 
z
M 1991 3584 
L 1991 3584 
z
" transform="scale(0.015625)"/>
      </defs>
      <use xlink:href="#DejaVuSans-44"/>
      <use xlink:href="#DejaVuSans-65" transform="translate(77.001953 0)"/>
      <use xlink:href="#DejaVuSans-63" transform="translate(138.525391 0)"/>
      <use xlink:href="#DejaVuSans-6f" transform="translate(193.505859 0)"/>
      <use xlink:href="#DejaVuSans-64" transform="translate(254.6875 0)"/>
      <use xlink:href="#DejaVuSans-65" transform="translate(318.164062 0)"/>
      <use xlink:href="#DejaVuSans-72" transform="translate(379.6875 0)"/>
      <use xlink:href="#DejaVuSans-20" transform="translate(420.800781 0)"/>
      <use xlink:href="#DejaVuSans-41" transform="translate(452.587891 0)"/>
      <use xlink:href="#DejaVuSans-63" transform="translate(519.246094 0)"/>
      <use xlink:href="#DejaVuSans-63" transform="translate(574.226562 0)"/>
      <use xlink:href="#DejaVuSans-75" transform="translate(629.207031 0)"/>
      <use xlink:href="#DejaVuSans-72" transform="translate(692.585938 0)"/>
      <use xlink:href="#DejaVuSans-61" transform="translate(733.699219 0)"/>
      <use xlink:href="#DejaVuSans-63" transform="translate(794.978516 0)"/>
      <use xlink:href="#DejaVuSans-79" transform="translate(849.958984 0)"/>
     </g>
     <!-- (1 epoch) -->
     <g transform="translate(50.1005 183.723041) rotate(-90) scale(0.2 -0.2)">
      <defs>
       <path id="DejaVuSans-28" d="M 1984 4856 
Q 1566 4138 1362 3434 
Q 1159 2731 1159 2009 
Q 1159 1288 1364 580 
Q 1569 -128 1984 -844 
L 1484 -844 
Q 1016 -109 783 600 
Q 550 1309 550 2009 
Q 550 2706 781 3412 
Q 1013 4119 1484 4856 
L 1984 4856 
z
" transform="scale(0.015625)"/>
       <path id="DejaVuSans-70" d="M 1159 525 
L 1159 -1331 
L 581 -1331 
L 581 3500 
L 1159 3500 
L 1159 2969 
Q 1341 3281 1617 3432 
Q 1894 3584 2278 3584 
Q 2916 3584 3314 3078 
Q 3713 2572 3713 1747 
Q 3713 922 3314 415 
Q 2916 -91 2278 -91 
Q 1894 -91 1617 61 
Q 1341 213 1159 525 
z
M 3116 1747 
Q 3116 2381 2855 2742 
Q 2594 3103 2138 3103 
Q 1681 3103 1420 2742 
Q 1159 2381 1159 1747 
Q 1159 1113 1420 752 
Q 1681 391 2138 391 
Q 2594 391 2855 752 
Q 3116 1113 3116 1747 
z
" transform="scale(0.015625)"/>
       <path id="DejaVuSans-68" d="M 3513 2113 
L 3513 0 
L 2938 0 
L 2938 2094 
Q 2938 2591 2744 2837 
Q 2550 3084 2163 3084 
Q 1697 3084 1428 2787 
Q 1159 2491 1159 1978 
L 1159 0 
L 581 0 
L 581 4863 
L 1159 4863 
L 1159 2956 
Q 1366 3272 1645 3428 
Q 1925 3584 2291 3584 
Q 2894 3584 3203 3211 
Q 3513 2838 3513 2113 
z
" transform="scale(0.015625)"/>
       <path id="DejaVuSans-29" d="M 513 4856 
L 1013 4856 
Q 1481 4119 1714 3412 
Q 1947 2706 1947 2009 
Q 1947 1309 1714 600 
Q 1481 -109 1013 -844 
L 513 -844 
Q 928 -128 1133 580 
Q 1338 1288 1338 2009 
Q 1338 2731 1133 3434 
Q 928 4138 513 4856 
z
" transform="scale(0.015625)"/>
      </defs>
      <use xlink:href="#DejaVuSans-28"/>
      <use xlink:href="#DejaVuSans-31" transform="translate(39.013672 0)"/>
      <use xlink:href="#DejaVuSans-20" transform="translate(102.636719 0)"/>
      <use xlink:href="#DejaVuSans-65" transform="translate(134.423828 0)"/>
      <use xlink:href="#DejaVuSans-70" transform="translate(195.947266 0)"/>
      <use xlink:href="#DejaVuSans-6f" transform="translate(259.423828 0)"/>
      <use xlink:href="#DejaVuSans-63" transform="translate(320.605469 0)"/>
      <use xlink:href="#DejaVuSans-68" transform="translate(375.585938 0)"/>
      <use xlink:href="#DejaVuSans-29" transform="translate(438.964844 0)"/>
     </g>
    </g>
   </g>
   <g id="line2d_9">
    <path d="M 135.469649 97.552186 
L 135.469649 84.608869 
L 247.068351 84.608869 
L 247.068351 97.552186 
" style="fill: none; stroke: #000000; stroke-width: 2; stroke-linecap: square"/>
   </g>
   <g id="line2d_10">
    <path d="M 135.469649 69.508326 
L 135.469649 56.565002 
L 188.479032 56.565002 
L 188.479032 69.508326 
" style="fill: none; stroke: #000000; stroke-width: 2; stroke-linecap: square"/>
   </g>
   <g id="line2d_11">
    <path d="M 194.058968 69.508326 
L 194.058968 56.565002 
L 247.068351 56.565002 
L 247.068351 69.508326 
" style="fill: none; stroke: #000000; stroke-width: 2; stroke-linecap: square"/>
   </g>
   <g id="patch_3">
    <path d="M 105.338 192.550081 
L 105.338 79.296 
" style="fill: none; stroke: #000000; stroke-width: 0.8; stroke-linejoin: miter; stroke-linecap: square"/>
   </g>
   <g id="patch_4">
    <path d="M 105.338 192.550081 
L 277.2 192.550081 
" style="fill: none; stroke: #000000; stroke-width: 0.8; stroke-linejoin: miter; stroke-linecap: square"/>
   </g>
   <g id="PathCollection_1">
    <defs>
     <path id="m76c3623bf8" d="M 0 1.5 
C 0.397805 1.5 0.77937 1.341951 1.06066 1.06066 
C 1.341951 0.77937 1.5 0.397805 1.5 0 
C 1.5 -0.397805 1.341951 -0.77937 1.06066 -1.06066 
C 0.77937 -1.341951 0.397805 -1.5 0 -1.5 
C -0.397805 -1.5 -0.77937 -1.341951 -1.06066 -1.06066 
C -1.341951 -0.77937 -1.5 -0.397805 -1.5 0 
C -1.5 0.397805 -1.341951 0.77937 -1.06066 1.06066 
C -0.77937 1.341951 -0.397805 1.5 0 1.5 
z
"/>
    </defs>
    <g clip-path="url(#p76e019baad)">
     <use xlink:href="#m76c3623bf8" x="136.559154" y="135.746888" style="fill-opacity: 0.1"/>
     <use xlink:href="#m76c3623bf8" x="140.27262" y="114.337286" style="fill-opacity: 0.1"/>
     <use xlink:href="#m76c3623bf8" x="137.763301" y="137.264528" style="fill-opacity: 0.1"/>
     <use xlink:href="#m76c3623bf8" x="136.47143" y="119.10702" style="fill-opacity: 0.1"/>
     <use xlink:href="#m76c3623bf8" x="133.765644" y="142.603378" style="fill-opacity: 0.1"/>
     <use xlink:href="#m76c3623bf8" x="138.725968" y="117.453875" style="fill-opacity: 0.1"/>
     <use xlink:href="#m76c3623bf8" x="134.076612" y="138.348557" style="fill-opacity: 0.1"/>
     <use xlink:href="#m76c3623bf8" x="144.213921" y="119.350924" style="fill-opacity: 0.1"/>
     <use xlink:href="#m76c3623bf8" x="145.818482" y="133.307815" style="fill-opacity: 0.1"/>
     <use xlink:href="#m76c3623bf8" x="132.868094" y="115.556819" style="fill-opacity: 0.1"/>
     <use xlink:href="#m76c3623bf8" x="141.980876" y="141.465146" style="fill-opacity: 0.1"/>
     <use xlink:href="#m76c3623bf8" x="136.114576" y="116.288538" style="fill-opacity: 0.1"/>
     <use xlink:href="#m76c3623bf8" x="136.988386" y="136.261801" style="fill-opacity: 0.1"/>
     <use xlink:href="#m76c3623bf8" x="144.968856" y="118.456602" style="fill-opacity: 0.1"/>
     <use xlink:href="#m76c3623bf8" x="125.895286" y="142.603378" style="fill-opacity: 0.1"/>
     <use xlink:href="#m76c3623bf8" x="126.254483" y="117.914585" style="fill-opacity: 0.1"/>
     <use xlink:href="#m76c3623bf8" x="124.761049" y="139.595192" style="fill-opacity: 0.1"/>
     <use xlink:href="#m76c3623bf8" x="142.893638" y="113.76817" style="fill-opacity: 0.1"/>
     <use xlink:href="#m76c3623bf8" x="141.678036" y="134.581551" style="fill-opacity: 0.1"/>
     <use xlink:href="#m76c3623bf8" x="143.728224" y="116.695051" style="fill-opacity: 0.1"/>
     <use xlink:href="#m76c3623bf8" x="146.152286" y="133.551725" style="fill-opacity: 0.1"/>
     <use xlink:href="#m76c3623bf8" x="142.146791" y="115.041907" style="fill-opacity: 0.1"/>
     <use xlink:href="#m76c3623bf8" x="134.609879" y="144.717236" style="fill-opacity: 0.1"/>
     <use xlink:href="#m76c3623bf8" x="141.730988" y="121.681591" style="fill-opacity: 0.1"/>
     <use xlink:href="#m76c3623bf8" x="126.949634" y="134.473152" style="fill-opacity: 0.1"/>
     <use xlink:href="#m76c3623bf8" x="138.59265" y="119.513527" style="fill-opacity: 0.1"/>
     <use xlink:href="#m76c3623bf8" x="127.509387" y="143.822912" style="fill-opacity: 0.1"/>
     <use xlink:href="#m76c3623bf8" x="145.394544" y="114.987703" style="fill-opacity: 0.1"/>
     <use xlink:href="#m76c3623bf8" x="135.957298" y="132.657397" style="fill-opacity: 0.1"/>
     <use xlink:href="#m76c3623bf8" x="133.564926" y="109.161039" style="fill-opacity: 0.1"/>
     <use xlink:href="#m76c3623bf8" x="130.214592" y="137.508433" style="fill-opacity: 0.1"/>
     <use xlink:href="#m76c3623bf8" x="141.590474" y="117.697779" style="fill-opacity: 0.1"/>
     <use xlink:href="#m76c3623bf8" x="134.490936" y="139.974604" style="fill-opacity: 0.1"/>
     <use xlink:href="#m76c3623bf8" x="136.997077" y="116.424043" style="fill-opacity: 0.1"/>
     <use xlink:href="#m76c3623bf8" x="124.729163" y="142.142665" style="fill-opacity: 0.1"/>
     <use xlink:href="#m76c3623bf8" x="138.095243" y="116.505344" style="fill-opacity: 0.1"/>
     <use xlink:href="#m76c3623bf8" x="137.971597" y="133.985337" style="fill-opacity: 0.1"/>
     <use xlink:href="#m76c3623bf8" x="138.079586" y="109.757253" style="fill-opacity: 0.1"/>
     <use xlink:href="#m76c3623bf8" x="145.373991" y="140.408216" style="fill-opacity: 0.1"/>
     <use xlink:href="#m76c3623bf8" x="139.527831" y="118.619205" style="fill-opacity: 0.1"/>
     <use xlink:href="#m76c3623bf8" x="132.333902" y="143.904216" style="fill-opacity: 0.1"/>
     <use xlink:href="#m76c3623bf8" x="134.064219" y="118.402399" style="fill-opacity: 0.1"/>
     <use xlink:href="#m76c3623bf8" x="139.880726" y="136.830917" style="fill-opacity: 0.1"/>
     <use xlink:href="#m76c3623bf8" x="125.653996" y="113.87657" style="fill-opacity: 0.1"/>
     <use xlink:href="#m76c3623bf8" x="139.191839" y="140.977332" style="fill-opacity: 0.1"/>
     <use xlink:href="#m76c3623bf8" x="139.278242" y="118.456602" style="fill-opacity: 0.1"/>
     <use xlink:href="#m76c3623bf8" x="129.005463" y="134.635754" style="fill-opacity: 0.1"/>
     <use xlink:href="#m76c3623bf8" x="127.187381" y="111.193599" style="fill-opacity: 0.1"/>
     <use xlink:href="#m76c3623bf8" x="131.350058" y="131.600467" style="fill-opacity: 0.1"/>
     <use xlink:href="#m76c3623bf8" x="132.427709" y="117.480973" style="fill-opacity: 0.1"/>
     <use xlink:href="#m76c3623bf8" x="137.036423" y="140.408216" style="fill-opacity: 0.1"/>
     <use xlink:href="#m76c3623bf8" x="134.099251" y="117.697779" style="fill-opacity: 0.1"/>
     <use xlink:href="#m76c3623bf8" x="146.370027" y="139.324187" style="fill-opacity: 0.1"/>
     <use xlink:href="#m76c3623bf8" x="126.587393" y="115.069005" style="fill-opacity: 0.1"/>
     <use xlink:href="#m76c3623bf8" x="128.971854" y="138.538265" style="fill-opacity: 0.1"/>
     <use xlink:href="#m76c3623bf8" x="127.910166" y="125.990608" style="fill-opacity: 0.1"/>
     <use xlink:href="#m76c3623bf8" x="138.886987" y="137.969149" style="fill-opacity: 0.1"/>
     <use xlink:href="#m76c3623bf8" x="129.963182" y="116.884759" style="fill-opacity: 0.1"/>
     <use xlink:href="#m76c3623bf8" x="134.717715" y="138.348557" style="fill-opacity: 0.1"/>
     <use xlink:href="#m76c3623bf8" x="129.765295" y="112.196327" style="fill-opacity: 0.1"/>
     <use xlink:href="#m76c3623bf8" x="127.857939" y="146.126477" style="fill-opacity: 0.1"/>
     <use xlink:href="#m76c3623bf8" x="126.773324" y="114.364384" style="fill-opacity: 0.1"/>
     <use xlink:href="#m76c3623bf8" x="138.958885" y="139.351288" style="fill-opacity: 0.1"/>
     <use xlink:href="#m76c3623bf8" x="127.393987" y="119.757437" style="fill-opacity: 0.1"/>
     <use xlink:href="#m76c3623bf8" x="128.697446" y="132.35929" style="fill-opacity: 0.1"/>
     <use xlink:href="#m76c3623bf8" x="132.539629" y="124.771075" style="fill-opacity: 0.1"/>
     <use xlink:href="#m76c3623bf8" x="142.634135" y="136.424404" style="fill-opacity: 0.1"/>
     <use xlink:href="#m76c3623bf8" x="126.477054" y="115.665219" style="fill-opacity: 0.1"/>
     <use xlink:href="#m76c3623bf8" x="143.012492" y="143.687407" style="fill-opacity: 0.1"/>
     <use xlink:href="#m76c3623bf8" x="126.454671" y="120.16395" style="fill-opacity: 0.1"/>
     <use xlink:href="#m76c3623bf8" x="146.104101" y="137.34583" style="fill-opacity: 0.1"/>
     <use xlink:href="#m76c3623bf8" x="134.769952" y="119.947145" style="fill-opacity: 0.1"/>
     <use xlink:href="#m76c3623bf8" x="146.110833" y="143.579004" style="fill-opacity: 0.1"/>
     <use xlink:href="#m76c3623bf8" x="137.809774" y="115.692324" style="fill-opacity: 0.1"/>
     <use xlink:href="#m76c3623bf8" x="140.80995" y="134.418949" style="fill-opacity: 0.1"/>
     <use xlink:href="#m76c3623bf8" x="125.184441" y="122.386211" style="fill-opacity: 0.1"/>
     <use xlink:href="#m76c3623bf8" x="130.621957" y="134.771259" style="fill-opacity: 0.1"/>
     <use xlink:href="#m76c3623bf8" x="126.992535" y="113.171949" style="fill-opacity: 0.1"/>
     <use xlink:href="#m76c3623bf8" x="130.919552" y="146.749796" style="fill-opacity: 0.1"/>
     <use xlink:href="#m76c3623bf8" x="126.959751" y="116.071732" style="fill-opacity: 0.1"/>
     <use xlink:href="#m76c3623bf8" x="131.407081" y="141.817456" style="fill-opacity: 0.1"/>
     <use xlink:href="#m76c3623bf8" x="133.556022" y="120.353651" style="fill-opacity: 0.1"/>
     <use xlink:href="#m76c3623bf8" x="125.741535" y="133.904036" style="fill-opacity: 0.1"/>
     <use xlink:href="#m76c3623bf8" x="139.765577" y="113.334559" style="fill-opacity: 0.1"/>
     <use xlink:href="#m76c3623bf8" x="136.956177" y="139.920404" style="fill-opacity: 0.1"/>
     <use xlink:href="#m76c3623bf8" x="130.233204" y="113.984976" style="fill-opacity: 0.1"/>
     <use xlink:href="#m76c3623bf8" x="135.98854" y="140.679224" style="fill-opacity: 0.1"/>
     <use xlink:href="#m76c3623bf8" x="126.406507" y="116.830556" style="fill-opacity: 0.1"/>
     <use xlink:href="#m76c3623bf8" x="137.164755" y="134.14794" style="fill-opacity: 0.1"/>
     <use xlink:href="#m76c3623bf8" x="145.051429" y="119.838739" style="fill-opacity: 0.1"/>
     <use xlink:href="#m76c3623bf8" x="131.420155" y="137.942044" style="fill-opacity: 0.1"/>
     <use xlink:href="#m76c3623bf8" x="139.206206" y="116.532449" style="fill-opacity: 0.1"/>
     <use xlink:href="#m76c3623bf8" x="127.251473" y="140.679224" style="fill-opacity: 0.1"/>
     <use xlink:href="#m76c3623bf8" x="140.298016" y="112.304726" style="fill-opacity: 0.1"/>
     <use xlink:href="#m76c3623bf8" x="130.769248" y="138.294354" style="fill-opacity: 0.1"/>
     <use xlink:href="#m76c3623bf8" x="128.398563" y="118.998614" style="fill-opacity: 0.1"/>
     <use xlink:href="#m76c3623bf8" x="137.400596" y="132.955505" style="fill-opacity: 0.1"/>
     <use xlink:href="#m76c3623bf8" x="124.758574" y="110.705784" style="fill-opacity: 0.1"/>
     <use xlink:href="#m76c3623bf8" x="142.811505" y="133.931134" style="fill-opacity: 0.1"/>
     <use xlink:href="#m76c3623bf8" x="124.414581" y="115.692324" style="fill-opacity: 0.1"/>
    </g>
   </g>
   <g id="PathCollection_2">
    <g clip-path="url(#p76e019baad)">
     <use xlink:href="#m76c3623bf8" x="195.237819" y="124.879481" style="fill-opacity: 0.1"/>
     <use xlink:href="#m76c3623bf8" x="186.135638" y="96.206876" style="fill-opacity: 0.1"/>
     <use xlink:href="#m76c3623bf8" x="196.518469" y="124.229064" style="fill-opacity: 0.1"/>
     <use xlink:href="#m76c3623bf8" x="201.584928" y="96.206876" style="fill-opacity: 0.1"/>
     <use xlink:href="#m76c3623bf8" x="185.661235" y="130.977154" style="fill-opacity: 0.1"/>
     <use xlink:href="#m76c3623bf8" x="192.968812" y="96.206876" style="fill-opacity: 0.1"/>
     <use xlink:href="#m76c3623bf8" x="193.323352" y="114.743793" style="fill-opacity: 0.1"/>
     <use xlink:href="#m76c3623bf8" x="192.881644" y="101.030812" style="fill-opacity: 0.1"/>
     <use xlink:href="#m76c3623bf8" x="185.088254" y="118.808913" style="fill-opacity: 0.1"/>
     <use xlink:href="#m76c3623bf8" x="201.37424" y="102.304549" style="fill-opacity: 0.1"/>
     <use xlink:href="#m76c3623bf8" x="190.088852" y="124.229064" style="fill-opacity: 0.1"/>
     <use xlink:href="#m76c3623bf8" x="199.000752" y="100.542998" style="fill-opacity: 0.1"/>
     <use xlink:href="#m76c3623bf8" x="195.721326" y="124.906579" style="fill-opacity: 0.1"/>
     <use xlink:href="#m76c3623bf8" x="186.747845" y="105.366935" style="fill-opacity: 0.1"/>
     <use xlink:href="#m76c3623bf8" x="198.272886" y="130.977154" style="fill-opacity: 0.1"/>
     <use xlink:href="#m76c3623bf8" x="188.959035" y="96.206876" style="fill-opacity: 0.1"/>
     <use xlink:href="#m76c3623bf8" x="199.775124" y="130.977154" style="fill-opacity: 0.1"/>
     <use xlink:href="#m76c3623bf8" x="193.082989" y="96.206876" style="fill-opacity: 0.1"/>
     <use xlink:href="#m76c3623bf8" x="199.789234" y="130.977154" style="fill-opacity: 0.1"/>
     <use xlink:href="#m76c3623bf8" x="195.566255" y="96.206876" style="fill-opacity: 0.1"/>
     <use xlink:href="#m76c3623bf8" x="196.296617" y="101.898036" style="fill-opacity: 0.1"/>
     <use xlink:href="#m76c3623bf8" x="191.29856" y="96.206876" style="fill-opacity: 0.1"/>
     <use xlink:href="#m76c3623bf8" x="201.448668" y="124.906579" style="fill-opacity: 0.1"/>
     <use xlink:href="#m76c3623bf8" x="194.482824" y="96.206876" style="fill-opacity: 0.1"/>
     <use xlink:href="#m76c3623bf8" x="189.569464" y="101.898036" style="fill-opacity: 0.1"/>
     <use xlink:href="#m76c3623bf8" x="193.643669" y="96.206876" style="fill-opacity: 0.1"/>
     <use xlink:href="#m76c3623bf8" x="180.537517" y="124.879481" style="fill-opacity: 0.1"/>
     <use xlink:href="#m76c3623bf8" x="186.840201" y="96.206876" style="fill-opacity: 0.1"/>
     <use xlink:href="#m76c3623bf8" x="194.844032" y="108.646126" style="fill-opacity: 0.1"/>
     <use xlink:href="#m76c3623bf8" x="186.583587" y="96.206876" style="fill-opacity: 0.1"/>
     <use xlink:href="#m76c3623bf8" x="193.903074" y="108.646126" style="fill-opacity: 0.1"/>
     <use xlink:href="#m76c3623bf8" x="189.679136" y="96.206876" style="fill-opacity: 0.1"/>
     <use xlink:href="#m76c3623bf8" x="183.132876" y="130.977154" style="fill-opacity: 0.1"/>
     <use xlink:href="#m76c3623bf8" x="186.766714" y="101.030812" style="fill-opacity: 0.1"/>
     <use xlink:href="#m76c3623bf8" x="192.830599" y="124.879481" style="fill-opacity: 0.1"/>
     <use xlink:href="#m76c3623bf8" x="193.297256" y="96.206876" style="fill-opacity: 0.1"/>
     <use xlink:href="#m76c3623bf8" x="192.92792" y="101.898036" style="fill-opacity: 0.1"/>
     <use xlink:href="#m76c3623bf8" x="194.688403" y="96.206876" style="fill-opacity: 0.1"/>
     <use xlink:href="#m76c3623bf8" x="194.663905" y="119.45933" style="fill-opacity: 0.1"/>
     <use xlink:href="#m76c3623bf8" x="189.738277" y="96.206876" style="fill-opacity: 0.1"/>
     <use xlink:href="#m76c3623bf8" x="200.119817" y="119.486428" style="fill-opacity: 0.1"/>
     <use xlink:href="#m76c3623bf8" x="188.313015" y="96.206876" style="fill-opacity: 0.1"/>
     <use xlink:href="#m76c3623bf8" x="189.837522" y="130.977154" style="fill-opacity: 0.1"/>
     <use xlink:href="#m76c3623bf8" x="200.016627" y="96.206876" style="fill-opacity: 0.1"/>
     <use xlink:href="#m76c3623bf8" x="198.10317" y="114.743793" style="fill-opacity: 0.1"/>
     <use xlink:href="#m76c3623bf8" x="195.81974" y="96.206876" style="fill-opacity: 0.1"/>
     <use xlink:href="#m76c3623bf8" x="182.346168" y="113.76817" style="fill-opacity: 0.1"/>
     <use xlink:href="#m76c3623bf8" x="200.631743" y="96.206876" style="fill-opacity: 0.1"/>
     <use xlink:href="#m76c3623bf8" x="196.05081" y="101.898036" style="fill-opacity: 0.1"/>
     <use xlink:href="#m76c3623bf8" x="202.403136" y="101.030812" style="fill-opacity: 0.1"/>
     <use xlink:href="#m76c3623bf8" x="183.444777" y="114.743793" style="fill-opacity: 0.1"/>
     <use xlink:href="#m76c3623bf8" x="199.485478" y="96.206876" style="fill-opacity: 0.1"/>
     <use xlink:href="#m76c3623bf8" x="183.73593" y="114.743793" style="fill-opacity: 0.1"/>
     <use xlink:href="#m76c3623bf8" x="193.848259" y="96.206876" style="fill-opacity: 0.1"/>
     <use xlink:href="#m76c3623bf8" x="182.87276" y="130.977154" style="fill-opacity: 0.1"/>
     <use xlink:href="#m76c3623bf8" x="199.036453" y="105.366935" style="fill-opacity: 0.1"/>
     <use xlink:href="#m76c3623bf8" x="198.128279" y="108.646126" style="fill-opacity: 0.1"/>
     <use xlink:href="#m76c3623bf8" x="192.811311" y="96.206876" style="fill-opacity: 0.1"/>
     <use xlink:href="#m76c3623bf8" x="189.197355" y="114.743793" style="fill-opacity: 0.1"/>
     <use xlink:href="#m76c3623bf8" x="181.652919" y="96.206876" style="fill-opacity: 0.1"/>
     <use xlink:href="#m76c3623bf8" x="195.675559" y="108.646126" style="fill-opacity: 0.1"/>
     <use xlink:href="#m76c3623bf8" x="190.232085" y="96.206876" style="fill-opacity: 0.1"/>
     <use xlink:href="#m76c3623bf8" x="196.225223" y="130.977154" style="fill-opacity: 0.1"/>
     <use xlink:href="#m76c3623bf8" x="199.446558" y="96.206876" style="fill-opacity: 0.1"/>
     <use xlink:href="#m76c3623bf8" x="201.882516" y="101.898036" style="fill-opacity: 0.1"/>
     <use xlink:href="#m76c3623bf8" x="199.210438" y="101.030812" style="fill-opacity: 0.1"/>
     <use xlink:href="#m76c3623bf8" x="180.370585" y="108.646126" style="fill-opacity: 0.1"/>
     <use xlink:href="#m76c3623bf8" x="188.143747" y="96.206876" style="fill-opacity: 0.1"/>
     <use xlink:href="#m76c3623bf8" x="196.40233" y="114.066277" style="fill-opacity: 0.1"/>
     <use xlink:href="#m76c3623bf8" x="183.93986" y="96.206876" style="fill-opacity: 0.1"/>
     <use xlink:href="#m76c3623bf8" x="191.738532" y="107.995709" style="fill-opacity: 0.1"/>
     <use xlink:href="#m76c3623bf8" x="181.32194" y="96.206876" style="fill-opacity: 0.1"/>
     <use xlink:href="#m76c3623bf8" x="184.573" y="124.906579" style="fill-opacity: 0.1"/>
     <use xlink:href="#m76c3623bf8" x="180.522532" y="96.206876" style="fill-opacity: 0.1"/>
     <use xlink:href="#m76c3623bf8" x="197.824256" y="107.995709" style="fill-opacity: 0.1"/>
     <use xlink:href="#m76c3623bf8" x="185.107071" y="105.366935" style="fill-opacity: 0.1"/>
     <use xlink:href="#m76c3623bf8" x="187.81729" y="114.743793" style="fill-opacity: 0.1"/>
     <use xlink:href="#m76c3623bf8" x="200.823663" y="96.206876" style="fill-opacity: 0.1"/>
     <use xlink:href="#m76c3623bf8" x="195.831476" y="114.743793" style="fill-opacity: 0.1"/>
     <use xlink:href="#m76c3623bf8" x="180.819767" y="96.206876" style="fill-opacity: 0.1"/>
     <use xlink:href="#m76c3623bf8" x="183.785061" y="130.977154" style="fill-opacity: 0.1"/>
     <use xlink:href="#m76c3623bf8" x="193.980366" y="101.030812" style="fill-opacity: 0.1"/>
     <use xlink:href="#m76c3623bf8" x="192.992722" y="113.388755" style="fill-opacity: 0.1"/>
     <use xlink:href="#m76c3623bf8" x="185.418836" y="96.206876" style="fill-opacity: 0.1"/>
     <use xlink:href="#m76c3623bf8" x="200.960544" y="108.646126" style="fill-opacity: 0.1"/>
     <use xlink:href="#m76c3623bf8" x="193.812691" y="101.030812" style="fill-opacity: 0.1"/>
     <use xlink:href="#m76c3623bf8" x="192.064315" y="130.977154" style="fill-opacity: 0.1"/>
     <use xlink:href="#m76c3623bf8" x="193.275767" y="96.206876" style="fill-opacity: 0.1"/>
     <use xlink:href="#m76c3623bf8" x="196.405264" y="101.898036" style="fill-opacity: 0.1"/>
     <use xlink:href="#m76c3623bf8" x="187.071661" y="96.206876" style="fill-opacity: 0.1"/>
     <use xlink:href="#m76c3623bf8" x="188.997321" y="114.716695" style="fill-opacity: 0.1"/>
     <use xlink:href="#m76c3623bf8" x="184.792788" y="96.206876" style="fill-opacity: 0.1"/>
     <use xlink:href="#m76c3623bf8" x="184.264909" y="130.977154" style="fill-opacity: 0.1"/>
     <use xlink:href="#m76c3623bf8" x="201.187276" y="96.206876" style="fill-opacity: 0.1"/>
     <use xlink:href="#m76c3623bf8" x="196.615712" y="113.41586" style="fill-opacity: 0.1"/>
     <use xlink:href="#m76c3623bf8" x="191.056043" y="96.206876" style="fill-opacity: 0.1"/>
     <use xlink:href="#m76c3623bf8" x="185.184965" y="101.898036" style="fill-opacity: 0.1"/>
     <use xlink:href="#m76c3623bf8" x="185.7863" y="96.206876" style="fill-opacity: 0.1"/>
     <use xlink:href="#m76c3623bf8" x="181.404326" y="108.646126" style="fill-opacity: 0.1"/>
     <use xlink:href="#m76c3623bf8" x="189.805196" y="101.030812" style="fill-opacity: 0.1"/>
    </g>
   </g>
   <g id="PathCollection_3">
    <g clip-path="url(#p76e019baad)">
     <use xlink:href="#m76c3623bf8" x="242.867684" y="124.879481" style="fill-opacity: 0.1"/>
     <use xlink:href="#m76c3623bf8" x="251.450686" y="101.030812" style="fill-opacity: 0.1"/>
     <use xlink:href="#m76c3623bf8" x="244.339803" y="124.879481" style="fill-opacity: 0.1"/>
     <use xlink:href="#m76c3623bf8" x="239.917188" y="100.542998" style="fill-opacity: 0.1"/>
     <use xlink:href="#m76c3623bf8" x="236.459303" y="130.977154" style="fill-opacity: 0.1"/>
     <use xlink:href="#m76c3623bf8" x="237.409475" y="105.285627" style="fill-opacity: 0.1"/>
     <use xlink:href="#m76c3623bf8" x="251.072351" y="130.977154" style="fill-opacity: 0.1"/>
     <use xlink:href="#m76c3623bf8" x="246.034876" y="101.030812" style="fill-opacity: 0.1"/>
     <use xlink:href="#m76c3623bf8" x="247.884789" y="114.743793" style="fill-opacity: 0.1"/>
     <use xlink:href="#m76c3623bf8" x="255.921951" y="101.030812" style="fill-opacity: 0.1"/>
     <use xlink:href="#m76c3623bf8" x="258.012589" y="101.898036" style="fill-opacity: 0.1"/>
     <use xlink:href="#m76c3623bf8" x="240.749565" y="96.206876" style="fill-opacity: 0.1"/>
     <use xlink:href="#m76c3623bf8" x="250.708214" y="107.995709" style="fill-opacity: 0.1"/>
     <use xlink:href="#m76c3623bf8" x="241.785768" y="101.030812" style="fill-opacity: 0.1"/>
     <use xlink:href="#m76c3623bf8" x="236.369405" y="108.646126" style="fill-opacity: 0.1"/>
     <use xlink:href="#m76c3623bf8" x="252.835295" y="100.542998" style="fill-opacity: 0.1"/>
     <use xlink:href="#m76c3623bf8" x="243.05118" y="130.977154" style="fill-opacity: 0.1"/>
     <use xlink:href="#m76c3623bf8" x="244.467295" y="96.206876" style="fill-opacity: 0.1"/>
     <use xlink:href="#m76c3623bf8" x="249.039566" y="124.229064" style="fill-opacity: 0.1"/>
     <use xlink:href="#m76c3623bf8" x="254.457266" y="101.030812" style="fill-opacity: 0.1"/>
     <use xlink:href="#m76c3623bf8" x="249.947192" y="108.646126" style="fill-opacity: 0.1"/>
     <use xlink:href="#m76c3623bf8" x="255.385816" y="96.206876" style="fill-opacity: 0.1"/>
     <use xlink:href="#m76c3623bf8" x="242.013868" y="130.977154" style="fill-opacity: 0.1"/>
     <use xlink:href="#m76c3623bf8" x="253.720679" y="101.030812" style="fill-opacity: 0.1"/>
     <use xlink:href="#m76c3623bf8" x="240.051827" y="108.646126" style="fill-opacity: 0.1"/>
     <use xlink:href="#m76c3623bf8" x="257.174543" y="101.030812" style="fill-opacity: 0.1"/>
     <use xlink:href="#m76c3623bf8" x="251.25304" y="130.977154" style="fill-opacity: 0.1"/>
     <use xlink:href="#m76c3623bf8" x="240.718556" y="101.030812" style="fill-opacity: 0.1"/>
     <use xlink:href="#m76c3623bf8" x="257.053546" y="113.76817" style="fill-opacity: 0.1"/>
     <use xlink:href="#m76c3623bf8" x="252.220992" y="96.206876" style="fill-opacity: 0.1"/>
     <use xlink:href="#m76c3623bf8" x="241.576392" y="108.646126" style="fill-opacity: 0.1"/>
     <use xlink:href="#m76c3623bf8" x="240.669548" y="96.206876" style="fill-opacity: 0.1"/>
     <use xlink:href="#m76c3623bf8" x="247.474586" y="130.977154" style="fill-opacity: 0.1"/>
     <use xlink:href="#m76c3623bf8" x="236.481266" y="96.206876" style="fill-opacity: 0.1"/>
     <use xlink:href="#m76c3623bf8" x="240.539159" y="130.977154" style="fill-opacity: 0.1"/>
     <use xlink:href="#m76c3623bf8" x="245.38735" y="100.542998" style="fill-opacity: 0.1"/>
     <use xlink:href="#m76c3623bf8" x="244.259857" y="114.743793" style="fill-opacity: 0.1"/>
     <use xlink:href="#m76c3623bf8" x="246.255364" y="96.206876" style="fill-opacity: 0.1"/>
     <use xlink:href="#m76c3623bf8" x="242.105081" y="113.388755" style="fill-opacity: 0.1"/>
     <use xlink:href="#m76c3623bf8" x="249.005355" y="96.206876" style="fill-opacity: 0.1"/>
     <use xlink:href="#m76c3623bf8" x="255.189513" y="126.234519" style="fill-opacity: 0.1"/>
     <use xlink:href="#m76c3623bf8" x="238.531761" y="96.206876" style="fill-opacity: 0.1"/>
     <use xlink:href="#m76c3623bf8" x="247.456248" y="114.743793" style="fill-opacity: 0.1"/>
     <use xlink:href="#m76c3623bf8" x="238.856206" y="101.030812" style="fill-opacity: 0.1"/>
     <use xlink:href="#m76c3623bf8" x="251.908602" y="124.879481" style="fill-opacity: 0.1"/>
     <use xlink:href="#m76c3623bf8" x="244.74843" y="96.206876" style="fill-opacity: 0.1"/>
     <use xlink:href="#m76c3623bf8" x="248.528537" y="108.646126" style="fill-opacity: 0.1"/>
     <use xlink:href="#m76c3623bf8" x="239.999239" y="96.206876" style="fill-opacity: 0.1"/>
     <use xlink:href="#m76c3623bf8" x="239.141445" y="113.388755" style="fill-opacity: 0.1"/>
     <use xlink:href="#m76c3623bf8" x="246.80177" y="96.206876" style="fill-opacity: 0.1"/>
     <use xlink:href="#m76c3623bf8" x="243.845664" y="114.743793" style="fill-opacity: 0.1"/>
     <use xlink:href="#m76c3623bf8" x="256.898677" y="101.030812" style="fill-opacity: 0.1"/>
     <use xlink:href="#m76c3623bf8" x="252.990341" y="108.646126" style="fill-opacity: 0.1"/>
     <use xlink:href="#m76c3623bf8" x="252.618458" y="96.206876" style="fill-opacity: 0.1"/>
     <use xlink:href="#m76c3623bf8" x="256.07927" y="118.808913" style="fill-opacity: 0.1"/>
     <use xlink:href="#m76c3623bf8" x="237.770448" y="101.030812" style="fill-opacity: 0.1"/>
     <use xlink:href="#m76c3623bf8" x="248.233273" y="101.898036" style="fill-opacity: 0.1"/>
     <use xlink:href="#m76c3623bf8" x="248.953835" y="101.030812" style="fill-opacity: 0.1"/>
     <use xlink:href="#m76c3623bf8" x="257.378651" y="113.76817" style="fill-opacity: 0.1"/>
     <use xlink:href="#m76c3623bf8" x="242.429137" y="96.206876" style="fill-opacity: 0.1"/>
     <use xlink:href="#m76c3623bf8" x="241.283716" y="124.879481" style="fill-opacity: 0.1"/>
     <use xlink:href="#m76c3623bf8" x="238.147015" y="96.206876" style="fill-opacity: 0.1"/>
     <use xlink:href="#m76c3623bf8" x="236.275186" y="114.743793" style="fill-opacity: 0.1"/>
     <use xlink:href="#m76c3623bf8" x="256.655333" y="101.030812" style="fill-opacity: 0.1"/>
     <use xlink:href="#m76c3623bf8" x="250.860844" y="101.898036" style="fill-opacity: 0.1"/>
     <use xlink:href="#m76c3623bf8" x="253.43289" y="105.366935" style="fill-opacity: 0.1"/>
     <use xlink:href="#m76c3623bf8" x="242.196623" y="108.646126" style="fill-opacity: 0.1"/>
     <use xlink:href="#m76c3623bf8" x="248.997003" y="96.206876" style="fill-opacity: 0.1"/>
     <use xlink:href="#m76c3623bf8" x="237.335945" y="124.879481" style="fill-opacity: 0.1"/>
     <use xlink:href="#m76c3623bf8" x="246.747562" y="96.206876" style="fill-opacity: 0.1"/>
     <use xlink:href="#m76c3623bf8" x="257.725918" y="114.743793" style="fill-opacity: 0.1"/>
     <use xlink:href="#m76c3623bf8" x="255.47185" y="96.206876" style="fill-opacity: 0.1"/>
     <use xlink:href="#m76c3623bf8" x="243.4561" y="130.977154" style="fill-opacity: 0.1"/>
     <use xlink:href="#m76c3623bf8" x="257.370477" y="96.206876" style="fill-opacity: 0.1"/>
     <use xlink:href="#m76c3623bf8" x="241.080001" y="108.646126" style="fill-opacity: 0.1"/>
     <use xlink:href="#m76c3623bf8" x="257.09703" y="105.366935" style="fill-opacity: 0.1"/>
     <use xlink:href="#m76c3623bf8" x="256.919786" y="126.234519" style="fill-opacity: 0.1"/>
     <use xlink:href="#m76c3623bf8" x="253.746475" y="96.206876" style="fill-opacity: 0.1"/>
     <use xlink:href="#m76c3623bf8" x="249.979915" y="118.808913" style="fill-opacity: 0.1"/>
     <use xlink:href="#m76c3623bf8" x="255.422361" y="96.206876" style="fill-opacity: 0.1"/>
     <use xlink:href="#m76c3623bf8" x="242.448617" y="130.977154" style="fill-opacity: 0.1"/>
     <use xlink:href="#m76c3623bf8" x="254.85668" y="96.206876" style="fill-opacity: 0.1"/>
     <use xlink:href="#m76c3623bf8" x="249.699328" y="118.131391" style="fill-opacity: 0.1"/>
     <use xlink:href="#m76c3623bf8" x="236.203924" y="101.030812" style="fill-opacity: 0.1"/>
     <use xlink:href="#m76c3623bf8" x="243.658642" y="124.879481" style="fill-opacity: 0.1"/>
     <use xlink:href="#m76c3623bf8" x="239.214946" y="101.030812" style="fill-opacity: 0.1"/>
     <use xlink:href="#m76c3623bf8" x="257.822657" y="114.743793" style="fill-opacity: 0.1"/>
     <use xlink:href="#m76c3623bf8" x="246.585582" y="96.206876" style="fill-opacity: 0.1"/>
     <use xlink:href="#m76c3623bf8" x="247.010127" y="101.898036" style="fill-opacity: 0.1"/>
     <use xlink:href="#m76c3623bf8" x="250.181341" y="96.206876" style="fill-opacity: 0.1"/>
     <use xlink:href="#m76c3623bf8" x="244.135193" y="108.646126" style="fill-opacity: 0.1"/>
     <use xlink:href="#m76c3623bf8" x="238.964059" y="100.542998" style="fill-opacity: 0.1"/>
     <use xlink:href="#m76c3623bf8" x="254.257935" y="114.743793" style="fill-opacity: 0.1"/>
     <use xlink:href="#m76c3623bf8" x="240.145837" y="96.206876" style="fill-opacity: 0.1"/>
     <use xlink:href="#m76c3623bf8" x="247.320987" y="107.968604" style="fill-opacity: 0.1"/>
     <use xlink:href="#m76c3623bf8" x="240.915178" y="101.030812" style="fill-opacity: 0.1"/>
     <use xlink:href="#m76c3623bf8" x="238.092344" y="114.743793" style="fill-opacity: 0.1"/>
     <use xlink:href="#m76c3623bf8" x="255.152371" y="96.206876" style="fill-opacity: 0.1"/>
     <use xlink:href="#m76c3623bf8" x="257.623791" y="107.995709" style="fill-opacity: 0.1"/>
     <use xlink:href="#m76c3623bf8" x="257.354061" y="101.030812" style="fill-opacity: 0.1"/>
    </g>
   </g>
   <g id="text_10">
    <!-- *** -->
    <g transform="translate(179.269 86.674422) scale(0.16 -0.16)">
     <defs>
      <path id="DejaVuSans-2a" d="M 3009 3897 
L 1888 3291 
L 3009 2681 
L 2828 2375 
L 1778 3009 
L 1778 1831 
L 1422 1831 
L 1422 3009 
L 372 2375 
L 191 2681 
L 1313 3291 
L 191 3897 
L 372 4206 
L 1422 3572 
L 1422 4750 
L 1778 4750 
L 1778 3572 
L 2828 4206 
L 3009 3897 
z
" transform="scale(0.015625)"/>
     </defs>
     <use xlink:href="#DejaVuSans-2a"/>
     <use xlink:href="#DejaVuSans-2a" transform="translate(50 0)"/>
     <use xlink:href="#DejaVuSans-2a" transform="translate(100 0)"/>
    </g>
   </g>
   <g id="text_11">
    <!-- *** -->
    <g transform="translate(151.369325 58.630548) scale(0.16 -0.16)">
     <use xlink:href="#DejaVuSans-2a"/>
     <use xlink:href="#DejaVuSans-2a" transform="translate(50 0)"/>
     <use xlink:href="#DejaVuSans-2a" transform="translate(100 0)"/>
    </g>
   </g>
   <g id="text_12">
    <!-- ns -->
    <g transform="translate(209.931175 52.158893) scale(0.16 -0.16)">
     <use xlink:href="#DejaVuSans-6e"/>
     <use xlink:href="#DejaVuSans-73" transform="translate(63.378906 0)"/>
    </g>
   </g>
   <g id="text_13">
    <!-- In-Distribution -->
    <g transform="translate(120.036187 28.50475) scale(0.2 -0.2)">
     <defs>
      <path id="DejaVuSans-49" d="M 628 4666 
L 1259 4666 
L 1259 0 
L 628 0 
L 628 4666 
z
" transform="scale(0.015625)"/>
     </defs>
     <use xlink:href="#DejaVuSans-49"/>
     <use xlink:href="#DejaVuSans-6e" transform="translate(29.492188 0)"/>
     <use xlink:href="#DejaVuSans-2d" transform="translate(92.871094 0)"/>
     <use xlink:href="#DejaVuSans-44" transform="translate(128.955078 0)"/>
     <use xlink:href="#DejaVuSans-69" transform="translate(205.957031 0)"/>
     <use xlink:href="#DejaVuSans-73" transform="translate(233.740234 0)"/>
     <use xlink:href="#DejaVuSans-74" transform="translate(285.839844 0)"/>
     <use xlink:href="#DejaVuSans-72" transform="translate(325.048828 0)"/>
     <use xlink:href="#DejaVuSans-69" transform="translate(366.162109 0)"/>
     <use xlink:href="#DejaVuSans-62" transform="translate(393.945312 0)"/>
     <use xlink:href="#DejaVuSans-75" transform="translate(457.421875 0)"/>
     <use xlink:href="#DejaVuSans-74" transform="translate(520.800781 0)"/>
     <use xlink:href="#DejaVuSans-69" transform="translate(560.009766 0)"/>
     <use xlink:href="#DejaVuSans-6f" transform="translate(587.792969 0)"/>
     <use xlink:href="#DejaVuSans-6e" transform="translate(648.974609 0)"/>
    </g>
    <!--  -->
    <g transform="translate(191.269 50.900375) scale(0.2 -0.2)"/>
    <!--  -->
    <g transform="translate(191.269 73.296) scale(0.2 -0.2)"/>
   </g>
   <g id="LineCollection_1">
    <path d="M 135.469649 128.67455 
L 135.469649 126.380985 
" clip-path="url(#p76e019baad)" style="fill: none; stroke: #000000; stroke-width: 2"/>
    <path d="M 191.269 108.633082 
L 191.269 106.181067 
" clip-path="url(#p76e019baad)" style="fill: none; stroke: #000000; stroke-width: 2"/>
    <path d="M 247.068351 109.090088 
L 247.068351 106.789683 
" clip-path="url(#p76e019baad)" style="fill: none; stroke: #000000; stroke-width: 2"/>
   </g>
   <g id="line2d_12">
    <defs>
     <path id="mfad1203ac8" d="M 5 0 
L -5 -0 
" style="stroke: #000000"/>
    </defs>
    <g clip-path="url(#p76e019baad)">
     <use xlink:href="#mfad1203ac8" x="135.469649" y="128.67455" style="stroke: #000000"/>
     <use xlink:href="#mfad1203ac8" x="191.269" y="108.633082" style="stroke: #000000"/>
     <use xlink:href="#mfad1203ac8" x="247.068351" y="109.090088" style="stroke: #000000"/>
    </g>
   </g>
   <g id="line2d_13">
    <g clip-path="url(#p76e019baad)">
     <use xlink:href="#mfad1203ac8" x="135.469649" y="126.380985" style="stroke: #000000"/>
     <use xlink:href="#mfad1203ac8" x="191.269" y="106.181067" style="stroke: #000000"/>
     <use xlink:href="#mfad1203ac8" x="247.068351" y="106.789683" style="stroke: #000000"/>
    </g>
   </g>
   <g id="line2d_14">
    <defs>
     <path id="mb5135d482c" d="M 0 3 
C 0.795609 3 1.55874 2.683901 2.12132 2.12132 
C 2.683901 1.55874 3 0.795609 3 0 
C 3 -0.795609 2.683901 -1.55874 2.12132 -2.12132 
C 1.55874 -2.683901 0.795609 -3 0 -3 
C -0.795609 -3 -1.55874 -2.683901 -2.12132 -2.12132 
C -2.683901 -1.55874 -3 -0.795609 -3 0 
C -3 0.795609 -2.683901 1.55874 -2.12132 2.12132 
C -1.55874 2.683901 -0.795609 3 0 3 
z
" style="stroke: #000000"/>
    </defs>
    <g clip-path="url(#p76e019baad)">
     <use xlink:href="#mb5135d482c" x="135.469649" y="127.527767" style="stroke: #000000"/>
     <use xlink:href="#mb5135d482c" x="191.269" y="107.407074" style="stroke: #000000"/>
     <use xlink:href="#mb5135d482c" x="247.068351" y="107.939886" style="stroke: #000000"/>
    </g>
   </g>
  </g>
 </g>
 <defs>
  <clipPath id="p76e019baad">
   <rect x="105.338" y="79.296" width="171.862" height="113.254081"/>
  </clipPath>
 </defs>
</svg>
