<?xml version="1.0" encoding="utf-8" standalone="no"?>
<!DOCTYPE svg PUBLIC "-//W3C//DTD SVG 1.1//EN"
  "http://www.w3.org/Graphics/SVG/1.1/DTD/svg11.dtd">
<svg xmlns:xlink="http://www.w3.org/1999/xlink" width="288pt" height="288pt" viewBox="0 0 288 288" xmlns="http://www.w3.org/2000/svg" version="1.1">
 <metadata>
  <rdf:RDF xmlns:dc="http://purl.org/dc/elements/1.1/" xmlns:cc="http://creativecommons.org/ns#" xmlns:rdf="http://www.w3.org/1999/02/22-rdf-syntax-ns#">
   <cc:Work>
    <dc:type rdf:resource="http://purl.org/dc/dcmitype/StillImage"/>
    <dc:date>2025-09-24T18:33:05.474448</dc:date>
    <dc:format>image/svg+xml</dc:format>
    <dc:creator>
     <cc:Agent>
      <dc:title>Matplotlib v3.10.1, https://matplotlib.org/</dc:title>
     </cc:Agent>
    </dc:creator>
   </cc:Work>
  </rdf:RDF>
 </metadata>
 <defs>
  <style type="text/css">*{stroke-linejoin: round; stroke-linecap: butt}</style>
 </defs>
 <g id="figure_1">
  <g id="patch_1">
   <path d="M 0 288 
L 288 288 
L 288 0 
L 0 0 
L 0 288 
z
" style="fill: none"/>
  </g>
  <g id="axes_1">
   <g id="patch_2">
    <path d="M 105.338 192.550081 
L 277.2 192.550081 
L 277.2 79.296 
L 105.338 79.296 
L 105.338 192.550081 
z
" style="fill: none"/>
   </g>
   <g id="FillBetweenPolyCollection_1">
    <defs>
     <path id="md523263d3c" d="M 137.283428 -140.382981 
L 133.655871 -140.382981 
L 133.498143 -140.803179 
L 133.34037 -141.223378 
L 133.184132 -141.643577 
L 133.030942 -142.063775 
L 132.88218 -142.483974 
L 132.739044 -142.904173 
L 132.602498 -143.324371 
L 132.473232 -143.74457 
L 132.351633 -144.164769 
L 132.237769 -144.584967 
L 132.131385 -145.005166 
L 132.031908 -145.425365 
L 131.938466 -145.845563 
L 131.849915 -146.265762 
L 131.764875 -146.685961 
L 131.681765 -147.106159 
L 131.598856 -147.526358 
L 131.514312 -147.946557 
L 131.426242 -148.366755 
L 131.332757 -148.786954 
L 131.232024 -149.207153 
L 131.122324 -149.627351 
L 131.002119 -150.04755 
L 130.870107 -150.467749 
L 130.725294 -150.887947 
L 130.567047 -151.308146 
L 130.395148 -151.728345 
L 130.209836 -152.148543 
L 130.011828 -152.568742 
L 129.802323 -152.988941 
L 129.582975 -153.409139 
L 129.355849 -153.829338 
L 129.123335 -154.249537 
L 128.888049 -154.669735 
L 128.652705 -155.089934 
L 128.419978 -155.510132 
L 128.192365 -155.930331 
L 127.972042 -156.35053 
L 127.760754 -156.770728 
L 127.559714 -157.190927 
L 127.369552 -157.611126 
L 127.190293 -158.031324 
L 127.02138 -158.451523 
L 126.861727 -158.871722 
L 126.709815 -159.29192 
L 126.563794 -159.712119 
L 126.421599 -160.132318 
L 126.28106 -160.552516 
L 126.139993 -160.972715 
L 125.996266 -161.392914 
L 125.847822 -161.813112 
L 125.69268 -162.233311 
L 125.528883 -162.65351 
L 125.354441 -163.073708 
L 125.167238 -163.493907 
L 124.964956 -163.914106 
L 124.745002 -164.334304 
L 124.504468 -164.754503 
L 124.240137 -165.174702 
L 123.948535 -165.5949 
L 123.626049 -166.015099 
L 123.269093 -166.435298 
L 122.874335 -166.855496 
L 122.438966 -167.275695 
L 121.960998 -167.695894 
L 121.439571 -168.116092 
L 120.875258 -168.536291 
L 120.270339 -168.95649 
L 119.629027 -169.376688 
L 118.957618 -169.796887 
L 118.264567 -170.217086 
L 117.560445 -170.637284 
L 116.857804 -171.057483 
L 116.170913 -171.477682 
L 115.515386 -171.89788 
L 114.907713 -172.318079 
L 114.364696 -172.738278 
L 113.90283 -173.158476 
L 113.537654 -173.578675 
L 113.283095 -173.998873 
L 113.150862 -174.419072 
L 113.149909 -174.839271 
L 113.286009 -175.259469 
L 113.56146 -175.679668 
L 113.974955 -176.099867 
L 114.521605 -176.520065 
L 115.193135 -176.940264 
L 115.978221 -177.360463 
L 116.862968 -177.780661 
L 117.831471 -178.20086 
L 118.866453 -178.621059 
L 119.949918 -179.041257 
L 121.063793 -179.461456 
L 122.190532 -179.881655 
L 123.313634 -180.301853 
L 124.418076 -180.722052 
L 125.490635 -181.142251 
L 126.5201 -181.562449 
L 127.497377 -181.982648 
L 143.441921 -181.982648 
L 143.441921 -181.982648 
L 144.419199 -181.562449 
L 145.448664 -181.142251 
L 146.521223 -180.722052 
L 147.625665 -180.301853 
L 148.748767 -179.881655 
L 149.875506 -179.461456 
L 150.989381 -179.041257 
L 152.072845 -178.621059 
L 153.107827 -178.20086 
L 154.076331 -177.780661 
L 154.961078 -177.360463 
L 155.746164 -176.940264 
L 156.417693 -176.520065 
L 156.964344 -176.099867 
L 157.377839 -175.679668 
L 157.65329 -175.259469 
L 157.78939 -174.839271 
L 157.788437 -174.419072 
L 157.656204 -173.998873 
L 157.401645 -173.578675 
L 157.036468 -173.158476 
L 156.574603 -172.738278 
L 156.031586 -172.318079 
L 155.423912 -171.89788 
L 154.768386 -171.477682 
L 154.081495 -171.057483 
L 153.378854 -170.637284 
L 152.674732 -170.217086 
L 151.98168 -169.796887 
L 151.310272 -169.376688 
L 150.66896 -168.95649 
L 150.064041 -168.536291 
L 149.499728 -168.116092 
L 148.978301 -167.695894 
L 148.500332 -167.275695 
L 148.064964 -166.855496 
L 147.670206 -166.435298 
L 147.31325 -166.015099 
L 146.990763 -165.5949 
L 146.699162 -165.174702 
L 146.434831 -164.754503 
L 146.194297 -164.334304 
L 145.974342 -163.914106 
L 145.77206 -163.493907 
L 145.584858 -163.073708 
L 145.410415 -162.65351 
L 145.246619 -162.233311 
L 145.091476 -161.813112 
L 144.943033 -161.392914 
L 144.799305 -160.972715 
L 144.658239 -160.552516 
L 144.5177 -160.132318 
L 144.375504 -159.712119 
L 144.229483 -159.29192 
L 144.077572 -158.871722 
L 143.917919 -158.451523 
L 143.749005 -158.031324 
L 143.569746 -157.611126 
L 143.379585 -157.190927 
L 143.178545 -156.770728 
L 142.967256 -156.35053 
L 142.746934 -155.930331 
L 142.519321 -155.510132 
L 142.286594 -155.089934 
L 142.05125 -154.669735 
L 141.815963 -154.249537 
L 141.583449 -153.829338 
L 141.356323 -153.409139 
L 141.136976 -152.988941 
L 140.92747 -152.568742 
L 140.729462 -152.148543 
L 140.54415 -151.728345 
L 140.372252 -151.308146 
L 140.214004 -150.887947 
L 140.069191 -150.467749 
L 139.93718 -150.04755 
L 139.816974 -149.627351 
L 139.707275 -149.207153 
L 139.606542 -148.786954 
L 139.513057 -148.366755 
L 139.424987 -147.946557 
L 139.340443 -147.526358 
L 139.257533 -147.106159 
L 139.174424 -146.685961 
L 139.089383 -146.265762 
L 139.000833 -145.845563 
L 138.907391 -145.425365 
L 138.807914 -145.005166 
L 138.70153 -144.584967 
L 138.587666 -144.164769 
L 138.466067 -143.74457 
L 138.336801 -143.324371 
L 138.200255 -142.904173 
L 138.057119 -142.483974 
L 137.908357 -142.063775 
L 137.755167 -141.643577 
L 137.598929 -141.223378 
L 137.441155 -140.803179 
L 137.283428 -140.382981 
z
" style="stroke: #323232; stroke-opacity: 0.4; stroke-width: 1.25"/>
    </defs>
    <g clip-path="url(#p5ab2f2c83b)">
     <use xlink:href="#md523263d3c" x="0" y="288" style="fill: #dc9238; fill-opacity: 0.4; stroke: #323232; stroke-opacity: 0.4; stroke-width: 1.25"/>
    </g>
   </g>
   <g id="FillBetweenPolyCollection_2">
    <defs>
     <path id="m78e3c498ff" d="M 192.426947 -175.722372 
L 190.111053 -175.722372 
L 190.105549 -175.84501 
L 190.110915 -175.967648 
L 190.124659 -176.090286 
L 190.14342 -176.212923 
L 190.163092 -176.335561 
L 190.179002 -176.458199 
L 190.186137 -176.580837 
L 190.179403 -176.703475 
L 190.153917 -176.826112 
L 190.105304 -176.94875 
L 190.029995 -177.071388 
L 189.925511 -177.194026 
L 189.790711 -177.316664 
L 189.625983 -177.439301 
L 189.43338 -177.561939 
L 189.21665 -177.684577 
L 188.981185 -177.807215 
L 188.733842 -177.929853 
L 188.48266 -178.052491 
L 188.236464 -178.175128 
L 188.00437 -178.297766 
L 187.795224 -178.420404 
L 187.616996 -178.543042 
L 187.47617 -178.66568 
L 187.377172 -178.788317 
L 187.32187 -178.910955 
L 187.309184 -179.033593 
L 187.334829 -179.156231 
L 187.39121 -179.278869 
L 187.467482 -179.401506 
L 187.549761 -179.524144 
L 187.621505 -179.646782 
L 187.664035 -179.76942 
L 187.657194 -179.892058 
L 187.580142 -180.014695 
L 187.412262 -180.137333 
L 187.134171 -180.259971 
L 186.728813 -180.382609 
L 186.182597 -180.505247 
L 185.486523 -180.627885 
L 184.637243 -180.750522 
L 183.637952 -180.87316 
L 182.499032 -180.995798 
L 181.238331 -181.118436 
L 179.881006 -181.241074 
L 178.458858 -181.363711 
L 177.009138 -181.486349 
L 175.572855 -181.608987 
L 174.192668 -181.731625 
L 172.910497 -181.854263 
L 171.765035 -181.9769 
L 170.789366 -182.099538 
L 170.008898 -182.222176 
L 169.439793 -182.344814 
L 169.088044 -182.467452 
L 168.94926 -182.59009 
L 169.009172 -182.712727 
L 169.244791 -182.835365 
L 169.626085 -182.958003 
L 170.118005 -183.080641 
L 170.682669 -183.203279 
L 171.28153 -183.325916 
L 171.877367 -183.448554 
L 172.435998 -183.571192 
L 172.927656 -183.69383 
L 173.32801 -183.816468 
L 173.618868 -183.939105 
L 173.7886 -184.061743 
L 173.832341 -184.184381 
L 173.751993 -184.307019 
L 173.556066 -184.429657 
L 173.259341 -184.552294 
L 172.882327 -184.674932 
L 172.450479 -184.79757 
L 171.99315 -184.920208 
L 171.54226 -185.042846 
L 171.130713 -185.165484 
L 170.790616 -185.288121 
L 170.551416 -185.410759 
L 170.438076 -185.533397 
L 170.469469 -185.656035 
L 170.657122 -185.778673 
L 171.004464 -185.90131 
L 171.506667 -186.023948 
L 172.151109 -186.146586 
L 172.918448 -186.269224 
L 173.784199 -186.391862 
L 174.720675 -186.514499 
L 175.699106 -186.637137 
L 176.691722 -186.759775 
L 177.673623 -186.882413 
L 178.624249 -187.005051 
L 179.528346 -187.127689 
L 180.376371 -187.250326 
L 181.164335 -187.372964 
L 181.893158 -187.495602 
L 182.567654 -187.61824 
L 183.195275 -187.740878 
L 183.784788 -187.863515 
L 198.753212 -187.863515 
L 198.753212 -187.863515 
L 199.342725 -187.740878 
L 199.970346 -187.61824 
L 200.644842 -187.495602 
L 201.373665 -187.372964 
L 202.161629 -187.250326 
L 203.009654 -187.127689 
L 203.913751 -187.005051 
L 204.864377 -186.882413 
L 205.846278 -186.759775 
L 206.838894 -186.637137 
L 207.817325 -186.514499 
L 208.753801 -186.391862 
L 209.619552 -186.269224 
L 210.386891 -186.146586 
L 211.031333 -186.023948 
L 211.533536 -185.90131 
L 211.880878 -185.778673 
L 212.068531 -185.656035 
L 212.099924 -185.533397 
L 211.986584 -185.410759 
L 211.747384 -185.288121 
L 211.407287 -185.165484 
L 210.99574 -185.042846 
L 210.54485 -184.920208 
L 210.087521 -184.79757 
L 209.655673 -184.674932 
L 209.278659 -184.552294 
L 208.981934 -184.429657 
L 208.786007 -184.307019 
L 208.705659 -184.184381 
L 208.7494 -184.061743 
L 208.919132 -183.939105 
L 209.20999 -183.816468 
L 209.610344 -183.69383 
L 210.102002 -183.571192 
L 210.660633 -183.448554 
L 211.25647 -183.325916 
L 211.855331 -183.203279 
L 212.419995 -183.080641 
L 212.911915 -182.958003 
L 213.293209 -182.835365 
L 213.528828 -182.712727 
L 213.58874 -182.59009 
L 213.449956 -182.467452 
L 213.098207 -182.344814 
L 212.529102 -182.222176 
L 211.748634 -182.099538 
L 210.772965 -181.9769 
L 209.627503 -181.854263 
L 208.345332 -181.731625 
L 206.965145 -181.608987 
L 205.528862 -181.486349 
L 204.079142 -181.363711 
L 202.656994 -181.241074 
L 201.299669 -181.118436 
L 200.038968 -180.995798 
L 198.900048 -180.87316 
L 197.900757 -180.750522 
L 197.051477 -180.627885 
L 196.355403 -180.505247 
L 195.809187 -180.382609 
L 195.403829 -180.259971 
L 195.125738 -180.137333 
L 194.957858 -180.014695 
L 194.880806 -179.892058 
L 194.873965 -179.76942 
L 194.916495 -179.646782 
L 194.988239 -179.524144 
L 195.070518 -179.401506 
L 195.14679 -179.278869 
L 195.203171 -179.156231 
L 195.228816 -179.033593 
L 195.21613 -178.910955 
L 195.160828 -178.788317 
L 195.06183 -178.66568 
L 194.921004 -178.543042 
L 194.742776 -178.420404 
L 194.53363 -178.297766 
L 194.301536 -178.175128 
L 194.05534 -178.052491 
L 193.804158 -177.929853 
L 193.556815 -177.807215 
L 193.32135 -177.684577 
L 193.10462 -177.561939 
L 192.912017 -177.439301 
L 192.747289 -177.316664 
L 192.612489 -177.194026 
L 192.508005 -177.071388 
L 192.432696 -176.94875 
L 192.384083 -176.826112 
L 192.358597 -176.703475 
L 192.351863 -176.580837 
L 192.358998 -176.458199 
L 192.374908 -176.335561 
L 192.39458 -176.212923 
L 192.413341 -176.090286 
L 192.427085 -175.967648 
L 192.432451 -175.84501 
L 192.426947 -175.722372 
z
" style="stroke: #323232; stroke-opacity: 0.4; stroke-width: 1.25"/>
    </defs>
    <g clip-path="url(#p5ab2f2c83b)">
     <use xlink:href="#m78e3c498ff" x="0" y="288" style="fill: #159152; fill-opacity: 0.4; stroke: #323232; stroke-opacity: 0.4; stroke-width: 1.25"/>
    </g>
   </g>
   <g id="FillBetweenPolyCollection_3">
    <defs>
     <path id="m238a95067e" d="M 248.075016 -175.722372 
L 246.061685 -175.722372 
L 246.061427 -175.84501 
L 246.072787 -175.967648 
L 246.093842 -176.090286 
L 246.121901 -176.212923 
L 246.153628 -176.335561 
L 246.185202 -176.458199 
L 246.212514 -176.580837 
L 246.231398 -176.703475 
L 246.237861 -176.826112 
L 246.228331 -176.94875 
L 246.199885 -177.071388 
L 246.15046 -177.194026 
L 246.079032 -177.316664 
L 245.985748 -177.439301 
L 245.872008 -177.561939 
L 245.74048 -177.684577 
L 245.595033 -177.807215 
L 245.440599 -177.929853 
L 245.282946 -178.052491 
L 245.128377 -178.175128 
L 244.983364 -178.297766 
L 244.854129 -178.420404 
L 244.746211 -178.543042 
L 244.664029 -178.66568 
L 244.610483 -178.788317 
L 244.586614 -178.910955 
L 244.591346 -179.033593 
L 244.621323 -179.156231 
L 244.670857 -179.278869 
L 244.73198 -179.401506 
L 244.794603 -179.524144 
L 244.846765 -179.646782 
L 244.874989 -179.76942 
L 244.864714 -179.892058 
L 244.800826 -180.014695 
L 244.668271 -180.137333 
L 244.452765 -180.259971 
L 244.14159 -180.382609 
L 243.724455 -180.505247 
L 243.194398 -180.627885 
L 242.548665 -180.750522 
L 241.789509 -180.87316 
L 240.924802 -180.995798 
L 239.968382 -181.118436 
L 238.940031 -181.241074 
L 237.865016 -181.363711 
L 236.773149 -181.486349 
L 235.697387 -181.608987 
L 234.67201 -181.731625 
L 233.730514 -181.854263 
L 232.903367 -181.9769 
L 232.215827 -182.099538 
L 231.686021 -182.222176 
L 231.323484 -182.344814 
L 231.128294 -182.467452 
L 231.090906 -182.59009 
L 231.192712 -182.712727 
L 231.407255 -182.835365 
L 231.702001 -182.958003 
L 232.040499 -183.080641 
L 232.384727 -183.203279 
L 232.697437 -183.325916 
L 232.944323 -183.448554 
L 233.095876 -183.571192 
L 233.128829 -183.69383 
L 233.027167 -183.816468 
L 232.782696 -183.939105 
L 232.395216 -184.061743 
L 231.872341 -184.184381 
L 231.229048 -184.307019 
L 230.486968 -184.429657 
L 229.673482 -184.552294 
L 228.820625 -184.674932 
L 227.963799 -184.79757 
L 227.140311 -184.920208 
L 226.387744 -185.042846 
L 225.7422 -185.165484 
L 225.236476 -185.288121 
L 224.898281 -185.410759 
L 224.74861 -185.533397 
L 224.80042 -185.656035 
L 225.057732 -185.778673 
L 225.515297 -185.90131 
L 226.158873 -186.023948 
L 226.966161 -186.146586 
L 227.908319 -186.269224 
L 228.951969 -186.391862 
L 230.061514 -186.514499 
L 231.201556 -186.637137 
L 232.339205 -186.759775 
L 233.446055 -186.882413 
L 234.499665 -187.005051 
L 235.484423 -187.127689 
L 236.391757 -187.250326 
L 237.219713 -187.372964 
L 237.971988 -187.495602 
L 238.656586 -187.61824 
L 239.284241 -187.740878 
L 239.866823 -187.863515 
L 254.269879 -187.863515 
L 254.269879 -187.863515 
L 254.85246 -187.740878 
L 255.480116 -187.61824 
L 256.164713 -187.495602 
L 256.916989 -187.372964 
L 257.744944 -187.250326 
L 258.652279 -187.127689 
L 259.637037 -187.005051 
L 260.690646 -186.882413 
L 261.797496 -186.759775 
L 262.935145 -186.637137 
L 264.075187 -186.514499 
L 265.184732 -186.391862 
L 266.228382 -186.269224 
L 267.17054 -186.146586 
L 267.977828 -186.023948 
L 268.621405 -185.90131 
L 269.078969 -185.778673 
L 269.336281 -185.656035 
L 269.388091 -185.533397 
L 269.238421 -185.410759 
L 268.900225 -185.288121 
L 268.394501 -185.165484 
L 267.748957 -185.042846 
L 266.996391 -184.920208 
L 266.172903 -184.79757 
L 265.316076 -184.674932 
L 264.463219 -184.552294 
L 263.649733 -184.429657 
L 262.907653 -184.307019 
L 262.26436 -184.184381 
L 261.741486 -184.061743 
L 261.354005 -183.939105 
L 261.109534 -183.816468 
L 261.007873 -183.69383 
L 261.040826 -183.571192 
L 261.192378 -183.448554 
L 261.439265 -183.325916 
L 261.751974 -183.203279 
L 262.096202 -183.080641 
L 262.4347 -182.958003 
L 262.729446 -182.835365 
L 262.943989 -182.712727 
L 263.045795 -182.59009 
L 263.008408 -182.467452 
L 262.813217 -182.344814 
L 262.45068 -182.222176 
L 261.920874 -182.099538 
L 261.233334 -181.9769 
L 260.406188 -181.854263 
L 259.464692 -181.731625 
L 258.439314 -181.608987 
L 257.363552 -181.486349 
L 256.271685 -181.363711 
L 255.19667 -181.241074 
L 254.168319 -181.118436 
L 253.2119 -180.995798 
L 252.347192 -180.87316 
L 251.588036 -180.750522 
L 250.942303 -180.627885 
L 250.412246 -180.505247 
L 249.995111 -180.382609 
L 249.683936 -180.259971 
L 249.46843 -180.137333 
L 249.335875 -180.014695 
L 249.271987 -179.892058 
L 249.261713 -179.76942 
L 249.289937 -179.646782 
L 249.342099 -179.524144 
L 249.404721 -179.401506 
L 249.465844 -179.278869 
L 249.515379 -179.156231 
L 249.545356 -179.033593 
L 249.550087 -178.910955 
L 249.526218 -178.788317 
L 249.472673 -178.66568 
L 249.39049 -178.543042 
L 249.282572 -178.420404 
L 249.153338 -178.297766 
L 249.008324 -178.175128 
L 248.853756 -178.052491 
L 248.696103 -177.929853 
L 248.541668 -177.807215 
L 248.396221 -177.684577 
L 248.264693 -177.561939 
L 248.150954 -177.439301 
L 248.057669 -177.316664 
L 247.986241 -177.194026 
L 247.936816 -177.071388 
L 247.90837 -176.94875 
L 247.898841 -176.826112 
L 247.905304 -176.703475 
L 247.924187 -176.580837 
L 247.9515 -176.458199 
L 247.983073 -176.335561 
L 248.0148 -176.212923 
L 248.04286 -176.090286 
L 248.063914 -175.967648 
L 248.075275 -175.84501 
L 248.075016 -175.722372 
z
" style="stroke: #323232; stroke-opacity: 0.4; stroke-width: 1.25"/>
    </defs>
    <g clip-path="url(#p5ab2f2c83b)">
     <use xlink:href="#m238a95067e" x="0" y="288" style="fill: #c0c0c0; fill-opacity: 0.4; stroke: #323232; stroke-opacity: 0.4; stroke-width: 1.25"/>
    </g>
   </g>
   <g id="matplotlib.axis_1">
    <g id="xtick_1">
     <g id="line2d_1">
      <defs>
       <path id="m237f24a8ad" d="M 0 0 
L 0 3.5 
" style="stroke: #000000; stroke-width: 0.8"/>
      </defs>
      <g>
       <use xlink:href="#m237f24a8ad" x="135.469649" y="192.550081" style="stroke: #000000; stroke-width: 0.8"/>
      </g>
     </g>
     <g id="text_1">
      <!-- MTL-sensory -->
      <g transform="translate(89.006549 267.913467) rotate(-30) scale(0.18 -0.18)">
       <defs>
        <path id="DejaVuSans-4d" d="M 628 4666 
L 1569 4666 
L 2759 1491 
L 3956 4666 
L 4897 4666 
L 4897 0 
L 4281 0 
L 4281 4097 
L 3078 897 
L 2444 897 
L 1241 4097 
L 1241 0 
L 628 0 
L 628 4666 
z
" transform="scale(0.015625)"/>
        <path id="DejaVuSans-54" d="M -19 4666 
L 3928 4666 
L 3928 4134 
L 2272 4134 
L 2272 0 
L 1638 0 
L 1638 4134 
L -19 4134 
L -19 4666 
z
" transform="scale(0.015625)"/>
        <path id="DejaVuSans-4c" d="M 628 4666 
L 1259 4666 
L 1259 531 
L 3531 531 
L 3531 0 
L 628 0 
L 628 4666 
z
" transform="scale(0.015625)"/>
        <path id="DejaVuSans-2d" d="M 313 2009 
L 1997 2009 
L 1997 1497 
L 313 1497 
L 313 2009 
z
" transform="scale(0.015625)"/>
        <path id="DejaVuSans-73" d="M 2834 3397 
L 2834 2853 
Q 2591 2978 2328 3040 
Q 2066 3103 1784 3103 
Q 1356 3103 1142 2972 
Q 928 2841 928 2578 
Q 928 2378 1081 2264 
Q 1234 2150 1697 2047 
L 1894 2003 
Q 2506 1872 2764 1633 
Q 3022 1394 3022 966 
Q 3022 478 2636 193 
Q 2250 -91 1575 -91 
Q 1294 -91 989 -36 
Q 684 19 347 128 
L 347 722 
Q 666 556 975 473 
Q 1284 391 1588 391 
Q 1994 391 2212 530 
Q 2431 669 2431 922 
Q 2431 1156 2273 1281 
Q 2116 1406 1581 1522 
L 1381 1569 
Q 847 1681 609 1914 
Q 372 2147 372 2553 
Q 372 3047 722 3315 
Q 1072 3584 1716 3584 
Q 2034 3584 2315 3537 
Q 2597 3491 2834 3397 
z
" transform="scale(0.015625)"/>
        <path id="DejaVuSans-65" d="M 3597 1894 
L 3597 1613 
L 953 1613 
Q 991 1019 1311 708 
Q 1631 397 2203 397 
Q 2534 397 2845 478 
Q 3156 559 3463 722 
L 3463 178 
Q 3153 47 2828 -22 
Q 2503 -91 2169 -91 
Q 1331 -91 842 396 
Q 353 884 353 1716 
Q 353 2575 817 3079 
Q 1281 3584 2069 3584 
Q 2775 3584 3186 3129 
Q 3597 2675 3597 1894 
z
M 3022 2063 
Q 3016 2534 2758 2815 
Q 2500 3097 2075 3097 
Q 1594 3097 1305 2825 
Q 1016 2553 972 2059 
L 3022 2063 
z
" transform="scale(0.015625)"/>
        <path id="DejaVuSans-6e" d="M 3513 2113 
L 3513 0 
L 2938 0 
L 2938 2094 
Q 2938 2591 2744 2837 
Q 2550 3084 2163 3084 
Q 1697 3084 1428 2787 
Q 1159 2491 1159 1978 
L 1159 0 
L 581 0 
L 581 3500 
L 1159 3500 
L 1159 2956 
Q 1366 3272 1645 3428 
Q 1925 3584 2291 3584 
Q 2894 3584 3203 3211 
Q 3513 2838 3513 2113 
z
" transform="scale(0.015625)"/>
        <path id="DejaVuSans-6f" d="M 1959 3097 
Q 1497 3097 1228 2736 
Q 959 2375 959 1747 
Q 959 1119 1226 758 
Q 1494 397 1959 397 
Q 2419 397 2687 759 
Q 2956 1122 2956 1747 
Q 2956 2369 2687 2733 
Q 2419 3097 1959 3097 
z
M 1959 3584 
Q 2709 3584 3137 3096 
Q 3566 2609 3566 1747 
Q 3566 888 3137 398 
Q 2709 -91 1959 -91 
Q 1206 -91 779 398 
Q 353 888 353 1747 
Q 353 2609 779 3096 
Q 1206 3584 1959 3584 
z
" transform="scale(0.015625)"/>
        <path id="DejaVuSans-72" d="M 2631 2963 
Q 2534 3019 2420 3045 
Q 2306 3072 2169 3072 
Q 1681 3072 1420 2755 
Q 1159 2438 1159 1844 
L 1159 0 
L 581 0 
L 581 3500 
L 1159 3500 
L 1159 2956 
Q 1341 3275 1631 3429 
Q 1922 3584 2338 3584 
Q 2397 3584 2469 3576 
Q 2541 3569 2628 3553 
L 2631 2963 
z
" transform="scale(0.015625)"/>
        <path id="DejaVuSans-79" d="M 2059 -325 
Q 1816 -950 1584 -1140 
Q 1353 -1331 966 -1331 
L 506 -1331 
L 506 -850 
L 844 -850 
Q 1081 -850 1212 -737 
Q 1344 -625 1503 -206 
L 1606 56 
L 191 3500 
L 800 3500 
L 1894 763 
L 2988 3500 
L 3597 3500 
L 2059 -325 
z
" transform="scale(0.015625)"/>
       </defs>
       <use xlink:href="#DejaVuSans-4d"/>
       <use xlink:href="#DejaVuSans-54" transform="translate(86.279297 0)"/>
       <use xlink:href="#DejaVuSans-4c" transform="translate(147.363281 0)"/>
       <use xlink:href="#DejaVuSans-2d" transform="translate(201.326172 0)"/>
       <use xlink:href="#DejaVuSans-73" transform="translate(237.410156 0)"/>
       <use xlink:href="#DejaVuSans-65" transform="translate(289.509766 0)"/>
       <use xlink:href="#DejaVuSans-6e" transform="translate(351.033203 0)"/>
       <use xlink:href="#DejaVuSans-73" transform="translate(414.412109 0)"/>
       <use xlink:href="#DejaVuSans-6f" transform="translate(466.511719 0)"/>
       <use xlink:href="#DejaVuSans-72" transform="translate(527.693359 0)"/>
       <use xlink:href="#DejaVuSans-79" transform="translate(568.806641 0)"/>
      </g>
     </g>
    </g>
    <g id="xtick_2">
     <g id="line2d_2">
      <g>
       <use xlink:href="#m237f24a8ad" x="191.269" y="192.550081" style="stroke: #000000; stroke-width: 0.8"/>
      </g>
     </g>
     <g id="text_2">
      <!-- MTL-semantic -->
      <g transform="translate(139.577677 273.950498) rotate(-30) scale(0.18 -0.18)">
       <defs>
        <path id="DejaVuSans-6d" d="M 3328 2828 
Q 3544 3216 3844 3400 
Q 4144 3584 4550 3584 
Q 5097 3584 5394 3201 
Q 5691 2819 5691 2113 
L 5691 0 
L 5113 0 
L 5113 2094 
Q 5113 2597 4934 2840 
Q 4756 3084 4391 3084 
Q 3944 3084 3684 2787 
Q 3425 2491 3425 1978 
L 3425 0 
L 2847 0 
L 2847 2094 
Q 2847 2600 2669 2842 
Q 2491 3084 2119 3084 
Q 1678 3084 1418 2786 
Q 1159 2488 1159 1978 
L 1159 0 
L 581 0 
L 581 3500 
L 1159 3500 
L 1159 2956 
Q 1356 3278 1631 3431 
Q 1906 3584 2284 3584 
Q 2666 3584 2933 3390 
Q 3200 3197 3328 2828 
z
" transform="scale(0.015625)"/>
        <path id="DejaVuSans-61" d="M 2194 1759 
Q 1497 1759 1228 1600 
Q 959 1441 959 1056 
Q 959 750 1161 570 
Q 1363 391 1709 391 
Q 2188 391 2477 730 
Q 2766 1069 2766 1631 
L 2766 1759 
L 2194 1759 
z
M 3341 1997 
L 3341 0 
L 2766 0 
L 2766 531 
Q 2569 213 2275 61 
Q 1981 -91 1556 -91 
Q 1019 -91 701 211 
Q 384 513 384 1019 
Q 384 1609 779 1909 
Q 1175 2209 1959 2209 
L 2766 2209 
L 2766 2266 
Q 2766 2663 2505 2880 
Q 2244 3097 1772 3097 
Q 1472 3097 1187 3025 
Q 903 2953 641 2809 
L 641 3341 
Q 956 3463 1253 3523 
Q 1550 3584 1831 3584 
Q 2591 3584 2966 3190 
Q 3341 2797 3341 1997 
z
" transform="scale(0.015625)"/>
        <path id="DejaVuSans-74" d="M 1172 4494 
L 1172 3500 
L 2356 3500 
L 2356 3053 
L 1172 3053 
L 1172 1153 
Q 1172 725 1289 603 
Q 1406 481 1766 481 
L 2356 481 
L 2356 0 
L 1766 0 
Q 1100 0 847 248 
Q 594 497 594 1153 
L 594 3053 
L 172 3053 
L 172 3500 
L 594 3500 
L 594 4494 
L 1172 4494 
z
" transform="scale(0.015625)"/>
        <path id="DejaVuSans-69" d="M 603 3500 
L 1178 3500 
L 1178 0 
L 603 0 
L 603 3500 
z
M 603 4863 
L 1178 4863 
L 1178 4134 
L 603 4134 
L 603 4863 
z
" transform="scale(0.015625)"/>
        <path id="DejaVuSans-63" d="M 3122 3366 
L 3122 2828 
Q 2878 2963 2633 3030 
Q 2388 3097 2138 3097 
Q 1578 3097 1268 2742 
Q 959 2388 959 1747 
Q 959 1106 1268 751 
Q 1578 397 2138 397 
Q 2388 397 2633 464 
Q 2878 531 3122 666 
L 3122 134 
Q 2881 22 2623 -34 
Q 2366 -91 2075 -91 
Q 1284 -91 818 406 
Q 353 903 353 1747 
Q 353 2603 823 3093 
Q 1294 3584 2113 3584 
Q 2378 3584 2631 3529 
Q 2884 3475 3122 3366 
z
" transform="scale(0.015625)"/>
       </defs>
       <use xlink:href="#DejaVuSans-4d"/>
       <use xlink:href="#DejaVuSans-54" transform="translate(86.279297 0)"/>
       <use xlink:href="#DejaVuSans-4c" transform="translate(147.363281 0)"/>
       <use xlink:href="#DejaVuSans-2d" transform="translate(201.326172 0)"/>
       <use xlink:href="#DejaVuSans-73" transform="translate(237.410156 0)"/>
       <use xlink:href="#DejaVuSans-65" transform="translate(289.509766 0)"/>
       <use xlink:href="#DejaVuSans-6d" transform="translate(351.033203 0)"/>
       <use xlink:href="#DejaVuSans-61" transform="translate(448.445312 0)"/>
       <use xlink:href="#DejaVuSans-6e" transform="translate(509.724609 0)"/>
       <use xlink:href="#DejaVuSans-74" transform="translate(573.103516 0)"/>
       <use xlink:href="#DejaVuSans-69" transform="translate(612.3125 0)"/>
       <use xlink:href="#DejaVuSans-63" transform="translate(640.095703 0)"/>
      </g>
     </g>
    </g>
    <g id="xtick_3">
     <g id="line2d_3">
      <g>
       <use xlink:href="#m237f24a8ad" x="247.068351" y="192.550081" style="stroke: #000000; stroke-width: 0.8"/>
      </g>
     </g>
     <g id="text_3">
      <!-- labels -->
      <g transform="translate(226.64041 237.850654) rotate(-30) scale(0.18 -0.18)">
       <defs>
        <path id="DejaVuSans-6c" d="M 603 4863 
L 1178 4863 
L 1178 0 
L 603 0 
L 603 4863 
z
" transform="scale(0.015625)"/>
        <path id="DejaVuSans-62" d="M 3116 1747 
Q 3116 2381 2855 2742 
Q 2594 3103 2138 3103 
Q 1681 3103 1420 2742 
Q 1159 2381 1159 1747 
Q 1159 1113 1420 752 
Q 1681 391 2138 391 
Q 2594 391 2855 752 
Q 3116 1113 3116 1747 
z
M 1159 2969 
Q 1341 3281 1617 3432 
Q 1894 3584 2278 3584 
Q 2916 3584 3314 3078 
Q 3713 2572 3713 1747 
Q 3713 922 3314 415 
Q 2916 -91 2278 -91 
Q 1894 -91 1617 61 
Q 1341 213 1159 525 
L 1159 0 
L 581 0 
L 581 4863 
L 1159 4863 
L 1159 2969 
z
" transform="scale(0.015625)"/>
       </defs>
       <use xlink:href="#DejaVuSans-6c"/>
       <use xlink:href="#DejaVuSans-61" transform="translate(27.783203 0)"/>
       <use xlink:href="#DejaVuSans-62" transform="translate(89.0625 0)"/>
       <use xlink:href="#DejaVuSans-65" transform="translate(152.539062 0)"/>
       <use xlink:href="#DejaVuSans-6c" transform="translate(214.0625 0)"/>
       <use xlink:href="#DejaVuSans-73" transform="translate(241.845703 0)"/>
      </g>
     </g>
    </g>
   </g>
   <g id="matplotlib.axis_2">
    <g id="ytick_1">
     <g id="line2d_4">
      <defs>
       <path id="ma5e4f20715" d="M 0 0 
L -3.5 0 
" style="stroke: #000000; stroke-width: 0.8"/>
      </defs>
      <g>
       <use xlink:href="#ma5e4f20715" x="105.338" y="192.550081" style="stroke: #000000; stroke-width: 0.8"/>
      </g>
     </g>
     <g id="text_4">
      <!-- 0.00 -->
      <g transform="translate(58.259875 199.388675) scale(0.18 -0.18)">
       <defs>
        <path id="DejaVuSans-30" d="M 2034 4250 
Q 1547 4250 1301 3770 
Q 1056 3291 1056 2328 
Q 1056 1369 1301 889 
Q 1547 409 2034 409 
Q 2525 409 2770 889 
Q 3016 1369 3016 2328 
Q 3016 3291 2770 3770 
Q 2525 4250 2034 4250 
z
M 2034 4750 
Q 2819 4750 3233 4129 
Q 3647 3509 3647 2328 
Q 3647 1150 3233 529 
Q 2819 -91 2034 -91 
Q 1250 -91 836 529 
Q 422 1150 422 2328 
Q 422 3509 836 4129 
Q 1250 4750 2034 4750 
z
" transform="scale(0.015625)"/>
        <path id="DejaVuSans-2e" d="M 684 794 
L 1344 794 
L 1344 0 
L 684 0 
L 684 794 
z
" transform="scale(0.015625)"/>
       </defs>
       <use xlink:href="#DejaVuSans-30"/>
       <use xlink:href="#DejaVuSans-2e" transform="translate(63.623047 0)"/>
       <use xlink:href="#DejaVuSans-30" transform="translate(95.410156 0)"/>
       <use xlink:href="#DejaVuSans-30" transform="translate(159.033203 0)"/>
      </g>
     </g>
    </g>
    <g id="ytick_2">
     <g id="line2d_5">
      <g>
       <use xlink:href="#ma5e4f20715" x="105.338" y="165.584824" style="stroke: #000000; stroke-width: 0.8"/>
      </g>
     </g>
     <g id="text_5">
      <!-- 0.25 -->
      <g transform="translate(58.259875 172.423417) scale(0.18 -0.18)">
       <defs>
        <path id="DejaVuSans-32" d="M 1228 531 
L 3431 531 
L 3431 0 
L 469 0 
L 469 531 
Q 828 903 1448 1529 
Q 2069 2156 2228 2338 
Q 2531 2678 2651 2914 
Q 2772 3150 2772 3378 
Q 2772 3750 2511 3984 
Q 2250 4219 1831 4219 
Q 1534 4219 1204 4116 
Q 875 4013 500 3803 
L 500 4441 
Q 881 4594 1212 4672 
Q 1544 4750 1819 4750 
Q 2544 4750 2975 4387 
Q 3406 4025 3406 3419 
Q 3406 3131 3298 2873 
Q 3191 2616 2906 2266 
Q 2828 2175 2409 1742 
Q 1991 1309 1228 531 
z
" transform="scale(0.015625)"/>
        <path id="DejaVuSans-35" d="M 691 4666 
L 3169 4666 
L 3169 4134 
L 1269 4134 
L 1269 2991 
Q 1406 3038 1543 3061 
Q 1681 3084 1819 3084 
Q 2600 3084 3056 2656 
Q 3513 2228 3513 1497 
Q 3513 744 3044 326 
Q 2575 -91 1722 -91 
Q 1428 -91 1123 -41 
Q 819 9 494 109 
L 494 744 
Q 775 591 1075 516 
Q 1375 441 1709 441 
Q 2250 441 2565 725 
Q 2881 1009 2881 1497 
Q 2881 1984 2565 2268 
Q 2250 2553 1709 2553 
Q 1456 2553 1204 2497 
Q 953 2441 691 2322 
L 691 4666 
z
" transform="scale(0.015625)"/>
       </defs>
       <use xlink:href="#DejaVuSans-30"/>
       <use xlink:href="#DejaVuSans-2e" transform="translate(63.623047 0)"/>
       <use xlink:href="#DejaVuSans-32" transform="translate(95.410156 0)"/>
       <use xlink:href="#DejaVuSans-35" transform="translate(159.033203 0)"/>
      </g>
     </g>
    </g>
    <g id="ytick_3">
     <g id="line2d_6">
      <g>
       <use xlink:href="#ma5e4f20715" x="105.338" y="138.619566" style="stroke: #000000; stroke-width: 0.8"/>
      </g>
     </g>
     <g id="text_6">
      <!-- 0.50 -->
      <g transform="translate(58.259875 145.45816) scale(0.18 -0.18)">
       <use xlink:href="#DejaVuSans-30"/>
       <use xlink:href="#DejaVuSans-2e" transform="translate(63.623047 0)"/>
       <use xlink:href="#DejaVuSans-35" transform="translate(95.410156 0)"/>
       <use xlink:href="#DejaVuSans-30" transform="translate(159.033203 0)"/>
      </g>
     </g>
    </g>
    <g id="ytick_4">
     <g id="line2d_7">
      <g>
       <use xlink:href="#ma5e4f20715" x="105.338" y="111.654309" style="stroke: #000000; stroke-width: 0.8"/>
      </g>
     </g>
     <g id="text_7">
      <!-- 0.75 -->
      <g transform="translate(58.259875 118.492903) scale(0.18 -0.18)">
       <defs>
        <path id="DejaVuSans-37" d="M 525 4666 
L 3525 4666 
L 3525 4397 
L 1831 0 
L 1172 0 
L 2766 4134 
L 525 4134 
L 525 4666 
z
" transform="scale(0.015625)"/>
       </defs>
       <use xlink:href="#DejaVuSans-30"/>
       <use xlink:href="#DejaVuSans-2e" transform="translate(63.623047 0)"/>
       <use xlink:href="#DejaVuSans-37" transform="translate(95.410156 0)"/>
       <use xlink:href="#DejaVuSans-35" transform="translate(159.033203 0)"/>
      </g>
     </g>
    </g>
    <g id="ytick_5">
     <g id="line2d_8">
      <g>
       <use xlink:href="#ma5e4f20715" x="105.338" y="84.689051" style="stroke: #000000; stroke-width: 0.8"/>
      </g>
     </g>
     <g id="text_8">
      <!-- 1.00 -->
      <g transform="translate(58.259875 91.527645) scale(0.18 -0.18)">
       <defs>
        <path id="DejaVuSans-31" d="M 794 531 
L 1825 531 
L 1825 4091 
L 703 3866 
L 703 4441 
L 1819 4666 
L 2450 4666 
L 2450 531 
L 3481 531 
L 3481 0 
L 794 0 
L 794 531 
z
" transform="scale(0.015625)"/>
       </defs>
       <use xlink:href="#DejaVuSans-31"/>
       <use xlink:href="#DejaVuSans-2e" transform="translate(63.623047 0)"/>
       <use xlink:href="#DejaVuSans-30" transform="translate(95.410156 0)"/>
       <use xlink:href="#DejaVuSans-30" transform="translate(159.033203 0)"/>
      </g>
     </g>
    </g>
    <g id="text_9">
     <!-- Decoder Accuracy -->
     <g transform="translate(27.704875 226.840228) rotate(-90) scale(0.2 -0.2)">
      <defs>
       <path id="DejaVuSans-44" d="M 1259 4147 
L 1259 519 
L 2022 519 
Q 2988 519 3436 956 
Q 3884 1394 3884 2338 
Q 3884 3275 3436 3711 
Q 2988 4147 2022 4147 
L 1259 4147 
z
M 628 4666 
L 1925 4666 
Q 3281 4666 3915 4102 
Q 4550 3538 4550 2338 
Q 4550 1131 3912 565 
Q 3275 0 1925 0 
L 628 0 
L 628 4666 
z
" transform="scale(0.015625)"/>
       <path id="DejaVuSans-64" d="M 2906 2969 
L 2906 4863 
L 3481 4863 
L 3481 0 
L 2906 0 
L 2906 525 
Q 2725 213 2448 61 
Q 2172 -91 1784 -91 
Q 1150 -91 751 415 
Q 353 922 353 1747 
Q 353 2572 751 3078 
Q 1150 3584 1784 3584 
Q 2172 3584 2448 3432 
Q 2725 3281 2906 2969 
z
M 947 1747 
Q 947 1113 1208 752 
Q 1469 391 1925 391 
Q 2381 391 2643 752 
Q 2906 1113 2906 1747 
Q 2906 2381 2643 2742 
Q 2381 3103 1925 3103 
Q 1469 3103 1208 2742 
Q 947 2381 947 1747 
z
" transform="scale(0.015625)"/>
       <path id="DejaVuSans-20" transform="scale(0.015625)"/>
       <path id="DejaVuSans-41" d="M 2188 4044 
L 1331 1722 
L 3047 1722 
L 2188 4044 
z
M 1831 4666 
L 2547 4666 
L 4325 0 
L 3669 0 
L 3244 1197 
L 1141 1197 
L 716 0 
L 50 0 
L 1831 4666 
z
" transform="scale(0.015625)"/>
       <path id="DejaVuSans-75" d="M 544 1381 
L 544 3500 
L 1119 3500 
L 1119 1403 
Q 1119 906 1312 657 
Q 1506 409 1894 409 
Q 2359 409 2629 706 
Q 2900 1003 2900 1516 
L 2900 3500 
L 3475 3500 
L 3475 0 
L 2900 0 
L 2900 538 
Q 2691 219 2414 64 
Q 2138 -91 1772 -91 
Q 1169 -91 856 284 
Q 544 659 544 1381 
z
M 1991 3584 
L 1991 3584 
z
" transform="scale(0.015625)"/>
      </defs>
      <use xlink:href="#DejaVuSans-44"/>
      <use xlink:href="#DejaVuSans-65" transform="translate(77.001953 0)"/>
      <use xlink:href="#DejaVuSans-63" transform="translate(138.525391 0)"/>
      <use xlink:href="#DejaVuSans-6f" transform="translate(193.505859 0)"/>
      <use xlink:href="#DejaVuSans-64" transform="translate(254.6875 0)"/>
      <use xlink:href="#DejaVuSans-65" transform="translate(318.164062 0)"/>
      <use xlink:href="#DejaVuSans-72" transform="translate(379.6875 0)"/>
      <use xlink:href="#DejaVuSans-20" transform="translate(420.800781 0)"/>
      <use xlink:href="#DejaVuSans-41" transform="translate(452.587891 0)"/>
      <use xlink:href="#DejaVuSans-63" transform="translate(519.246094 0)"/>
      <use xlink:href="#DejaVuSans-63" transform="translate(574.226562 0)"/>
      <use xlink:href="#DejaVuSans-75" transform="translate(629.207031 0)"/>
      <use xlink:href="#DejaVuSans-72" transform="translate(692.585938 0)"/>
      <use xlink:href="#DejaVuSans-61" transform="translate(733.699219 0)"/>
      <use xlink:href="#DejaVuSans-63" transform="translate(794.978516 0)"/>
      <use xlink:href="#DejaVuSans-79" transform="translate(849.958984 0)"/>
     </g>
     <!-- (1 epoch) -->
     <g transform="translate(50.1005 183.723041) rotate(-90) scale(0.2 -0.2)">
      <defs>
       <path id="DejaVuSans-28" d="M 1984 4856 
Q 1566 4138 1362 3434 
Q 1159 2731 1159 2009 
Q 1159 1288 1364 580 
Q 1569 -128 1984 -844 
L 1484 -844 
Q 1016 -109 783 600 
Q 550 1309 550 2009 
Q 550 2706 781 3412 
Q 1013 4119 1484 4856 
L 1984 4856 
z
" transform="scale(0.015625)"/>
       <path id="DejaVuSans-70" d="M 1159 525 
L 1159 -1331 
L 581 -1331 
L 581 3500 
L 1159 3500 
L 1159 2969 
Q 1341 3281 1617 3432 
Q 1894 3584 2278 3584 
Q 2916 3584 3314 3078 
Q 3713 2572 3713 1747 
Q 3713 922 3314 415 
Q 2916 -91 2278 -91 
Q 1894 -91 1617 61 
Q 1341 213 1159 525 
z
M 3116 1747 
Q 3116 2381 2855 2742 
Q 2594 3103 2138 3103 
Q 1681 3103 1420 2742 
Q 1159 2381 1159 1747 
Q 1159 1113 1420 752 
Q 1681 391 2138 391 
Q 2594 391 2855 752 
Q 3116 1113 3116 1747 
z
" transform="scale(0.015625)"/>
       <path id="DejaVuSans-68" d="M 3513 2113 
L 3513 0 
L 2938 0 
L 2938 2094 
Q 2938 2591 2744 2837 
Q 2550 3084 2163 3084 
Q 1697 3084 1428 2787 
Q 1159 2491 1159 1978 
L 1159 0 
L 581 0 
L 581 4863 
L 1159 4863 
L 1159 2956 
Q 1366 3272 1645 3428 
Q 1925 3584 2291 3584 
Q 2894 3584 3203 3211 
Q 3513 2838 3513 2113 
z
" transform="scale(0.015625)"/>
       <path id="DejaVuSans-29" d="M 513 4856 
L 1013 4856 
Q 1481 4119 1714 3412 
Q 1947 2706 1947 2009 
Q 1947 1309 1714 600 
Q 1481 -109 1013 -844 
L 513 -844 
Q 928 -128 1133 580 
Q 1338 1288 1338 2009 
Q 1338 2731 1133 3434 
Q 928 4138 513 4856 
z
" transform="scale(0.015625)"/>
      </defs>
      <use xlink:href="#DejaVuSans-28"/>
      <use xlink:href="#DejaVuSans-31" transform="translate(39.013672 0)"/>
      <use xlink:href="#DejaVuSans-20" transform="translate(102.636719 0)"/>
      <use xlink:href="#DejaVuSans-65" transform="translate(134.423828 0)"/>
      <use xlink:href="#DejaVuSans-70" transform="translate(195.947266 0)"/>
      <use xlink:href="#DejaVuSans-6f" transform="translate(259.423828 0)"/>
      <use xlink:href="#DejaVuSans-63" transform="translate(320.605469 0)"/>
      <use xlink:href="#DejaVuSans-68" transform="translate(375.585938 0)"/>
      <use xlink:href="#DejaVuSans-29" transform="translate(438.964844 0)"/>
     </g>
    </g>
   </g>
   <g id="line2d_9">
    <path d="M 135.469649 94.909828 
L 135.469649 81.966504 
L 247.068351 81.966504 
L 247.068351 94.909828 
" style="fill: none; stroke: #000000; stroke-width: 2; stroke-linecap: square"/>
   </g>
   <g id="line2d_10">
    <path d="M 135.469649 66.865961 
L 135.469649 53.922637 
L 188.479032 53.922637 
L 188.479032 66.865961 
" style="fill: none; stroke: #000000; stroke-width: 2; stroke-linecap: square"/>
   </g>
   <g id="line2d_11">
    <path d="M 194.058968 66.865961 
L 194.058968 53.922637 
L 247.068351 53.922637 
L 247.068351 66.865961 
" style="fill: none; stroke: #000000; stroke-width: 2; stroke-linecap: square"/>
   </g>
   <g id="patch_3">
    <path d="M 105.338 192.550081 
L 105.338 79.296 
" style="fill: none; stroke: #000000; stroke-width: 0.8; stroke-linejoin: miter; stroke-linecap: square"/>
   </g>
   <g id="patch_4">
    <path d="M 105.338 192.550081 
L 277.2 192.550081 
" style="fill: none; stroke: #000000; stroke-width: 0.8; stroke-linejoin: miter; stroke-linecap: square"/>
   </g>
   <g id="PathCollection_1">
    <defs>
     <path id="mbedfb3ecfd" d="M 0 1.5 
C 0.397805 1.5 0.77937 1.341951 1.06066 1.06066 
C 1.341951 0.77937 1.5 0.397805 1.5 0 
C 1.5 -0.397805 1.341951 -0.77937 1.06066 -1.06066 
C 0.77937 -1.341951 0.397805 -1.5 0 -1.5 
C -0.397805 -1.5 -0.77937 -1.341951 -1.06066 -1.06066 
C -1.341951 -0.77937 -1.5 -0.397805 -1.5 0 
C -1.5 0.397805 -1.341951 0.77937 -1.06066 1.06066 
C -0.77937 1.341951 -0.397805 1.5 0 1.5 
z
"/>
    </defs>
    <g clip-path="url(#p5ab2f2c83b)">
     <use xlink:href="#mbedfb3ecfd" x="136.559154" y="123.443142" style="fill-opacity: 0.1"/>
     <use xlink:href="#mbedfb3ecfd" x="140.27262" y="111.112291" style="fill-opacity: 0.1"/>
     <use xlink:href="#mbedfb3ecfd" x="137.763301" y="138.05045" style="fill-opacity: 0.1"/>
     <use xlink:href="#mbedfb3ecfd" x="136.47143" y="107.318187" style="fill-opacity: 0.1"/>
     <use xlink:href="#mbedfb3ecfd" x="133.765644" y="134.03954" style="fill-opacity: 0.1"/>
     <use xlink:href="#mbedfb3ecfd" x="138.725968" y="115.069005" style="fill-opacity: 0.1"/>
     <use xlink:href="#mbedfb3ecfd" x="134.076612" y="122.359107" style="fill-opacity: 0.1"/>
     <use xlink:href="#mbedfb3ecfd" x="144.213921" y="107.941506" style="fill-opacity: 0.1"/>
     <use xlink:href="#mbedfb3ecfd" x="145.818482" y="120.922767" style="fill-opacity: 0.1"/>
     <use xlink:href="#mbedfb3ecfd" x="132.868094" y="118.185594" style="fill-opacity: 0.1"/>
     <use xlink:href="#mbedfb3ecfd" x="141.980876" y="131.004253" style="fill-opacity: 0.1"/>
     <use xlink:href="#mbedfb3ecfd" x="136.114576" y="112.033717" style="fill-opacity: 0.1"/>
     <use xlink:href="#mbedfb3ecfd" x="136.988386" y="129.134302" style="fill-opacity: 0.1"/>
     <use xlink:href="#mbedfb3ecfd" x="144.968856" y="111.898213" style="fill-opacity: 0.1"/>
     <use xlink:href="#mbedfb3ecfd" x="125.895286" y="139.405488" style="fill-opacity: 0.1"/>
     <use xlink:href="#mbedfb3ecfd" x="126.254483" y="111.166494" style="fill-opacity: 0.1"/>
     <use xlink:href="#mbedfb3ecfd" x="124.761049" y="128.80909" style="fill-opacity: 0.1"/>
     <use xlink:href="#mbedfb3ecfd" x="142.893638" y="113.090648" style="fill-opacity: 0.1"/>
     <use xlink:href="#mbedfb3ecfd" x="141.678036" y="124.987881" style="fill-opacity: 0.1"/>
     <use xlink:href="#mbedfb3ecfd" x="143.728224" y="111.73561" style="fill-opacity: 0.1"/>
     <use xlink:href="#mbedfb3ecfd" x="146.152286" y="116.72215" style="fill-opacity: 0.1"/>
     <use xlink:href="#mbedfb3ecfd" x="142.146791" y="111.871115" style="fill-opacity: 0.1"/>
     <use xlink:href="#mbedfb3ecfd" x="134.609879" y="142.603378" style="fill-opacity: 0.1"/>
     <use xlink:href="#mbedfb3ecfd" x="141.730988" y="111.166494" style="fill-opacity: 0.1"/>
     <use xlink:href="#mbedfb3ecfd" x="126.949634" y="119.486428" style="fill-opacity: 0.1"/>
     <use xlink:href="#mbedfb3ecfd" x="138.59265" y="111.73561" style="fill-opacity: 0.1"/>
     <use xlink:href="#mbedfb3ecfd" x="127.509387" y="144.771439" style="fill-opacity: 0.1"/>
     <use xlink:href="#mbedfb3ecfd" x="145.394544" y="112.033717" style="fill-opacity: 0.1"/>
     <use xlink:href="#mbedfb3ecfd" x="135.957298" y="118.75471" style="fill-opacity: 0.1"/>
     <use xlink:href="#mbedfb3ecfd" x="133.564926" y="111.329097" style="fill-opacity: 0.1"/>
     <use xlink:href="#mbedfb3ecfd" x="130.214592" y="123.82255" style="fill-opacity: 0.1"/>
     <use xlink:href="#mbedfb3ecfd" x="141.590474" y="111.681407" style="fill-opacity: 0.1"/>
     <use xlink:href="#mbedfb3ecfd" x="134.490936" y="134.202143" style="fill-opacity: 0.1"/>
     <use xlink:href="#mbedfb3ecfd" x="136.997077" y="113.334559" style="fill-opacity: 0.1"/>
     <use xlink:href="#mbedfb3ecfd" x="124.729163" y="140.354016" style="fill-opacity: 0.1"/>
     <use xlink:href="#mbedfb3ecfd" x="138.095243" y="114.499889" style="fill-opacity: 0.1"/>
     <use xlink:href="#mbedfb3ecfd" x="137.971597" y="123.361841" style="fill-opacity: 0.1"/>
     <use xlink:href="#mbedfb3ecfd" x="138.079586" y="111.003892" style="fill-opacity: 0.1"/>
     <use xlink:href="#mbedfb3ecfd" x="145.373991" y="127.508255" style="fill-opacity: 0.1"/>
     <use xlink:href="#mbedfb3ecfd" x="139.527831" y="109.106836" style="fill-opacity: 0.1"/>
     <use xlink:href="#mbedfb3ecfd" x="132.333902" y="137.616839" style="fill-opacity: 0.1"/>
     <use xlink:href="#mbedfb3ecfd" x="134.064219" y="114.797996" style="fill-opacity: 0.1"/>
     <use xlink:href="#mbedfb3ecfd" x="139.880726" y="132.928406" style="fill-opacity: 0.1"/>
     <use xlink:href="#mbedfb3ecfd" x="125.653996" y="114.418587" style="fill-opacity: 0.1"/>
     <use xlink:href="#mbedfb3ecfd" x="139.191839" y="136.53281" style="fill-opacity: 0.1"/>
     <use xlink:href="#mbedfb3ecfd" x="139.278242" y="113.52426" style="fill-opacity: 0.1"/>
     <use xlink:href="#mbedfb3ecfd" x="129.005463" y="117.724877" style="fill-opacity: 0.1"/>
     <use xlink:href="#mbedfb3ecfd" x="127.187381" y="108.266711" style="fill-opacity: 0.1"/>
     <use xlink:href="#mbedfb3ecfd" x="131.350058" y="114.201782" style="fill-opacity: 0.1"/>
     <use xlink:href="#mbedfb3ecfd" x="132.427709" y="108.320914" style="fill-opacity: 0.1"/>
     <use xlink:href="#mbedfb3ecfd" x="137.036423" y="123.280533" style="fill-opacity: 0.1"/>
     <use xlink:href="#mbedfb3ecfd" x="134.099251" y="112.846744" style="fill-opacity: 0.1"/>
     <use xlink:href="#mbedfb3ecfd" x="146.370027" y="121.491883" style="fill-opacity: 0.1"/>
     <use xlink:href="#mbedfb3ecfd" x="126.587393" y="116.911857" style="fill-opacity: 0.1"/>
     <use xlink:href="#mbedfb3ecfd" x="128.971854" y="130.245429" style="fill-opacity: 0.1"/>
     <use xlink:href="#mbedfb3ecfd" x="127.910166" y="106.017352" style="fill-opacity: 0.1"/>
     <use xlink:href="#mbedfb3ecfd" x="138.886987" y="124.147762" style="fill-opacity: 0.1"/>
     <use xlink:href="#mbedfb3ecfd" x="129.963182" y="114.526987" style="fill-opacity: 0.1"/>
     <use xlink:href="#mbedfb3ecfd" x="134.717715" y="123.795452" style="fill-opacity: 0.1"/>
     <use xlink:href="#mbedfb3ecfd" x="129.765295" y="113.117753" style="fill-opacity: 0.1"/>
     <use xlink:href="#mbedfb3ecfd" x="127.857939" y="147.617019" style="fill-opacity: 0.1"/>
     <use xlink:href="#mbedfb3ecfd" x="126.773324" y="115.746527" style="fill-opacity: 0.1"/>
     <use xlink:href="#mbedfb3ecfd" x="138.958885" y="130.95005" style="fill-opacity: 0.1"/>
     <use xlink:href="#mbedfb3ecfd" x="127.393987" y="111.871115" style="fill-opacity: 0.1"/>
     <use xlink:href="#mbedfb3ecfd" x="128.697446" y="113.822367" style="fill-opacity: 0.1"/>
     <use xlink:href="#mbedfb3ecfd" x="132.539629" y="106.965877" style="fill-opacity: 0.1"/>
     <use xlink:href="#mbedfb3ecfd" x="142.634135" y="124.120658" style="fill-opacity: 0.1"/>
     <use xlink:href="#mbedfb3ecfd" x="126.477054" y="112.657036" style="fill-opacity: 0.1"/>
     <use xlink:href="#mbedfb3ecfd" x="143.012492" y="132.684502" style="fill-opacity: 0.1"/>
     <use xlink:href="#mbedfb3ecfd" x="126.454671" y="117.101565" style="fill-opacity: 0.1"/>
     <use xlink:href="#mbedfb3ecfd" x="146.104101" y="122.494611" style="fill-opacity: 0.1"/>
     <use xlink:href="#mbedfb3ecfd" x="134.769952" y="111.410405" style="fill-opacity: 0.1"/>
     <use xlink:href="#mbedfb3ecfd" x="146.110833" y="143.714509" style="fill-opacity: 0.1"/>
     <use xlink:href="#mbedfb3ecfd" x="137.809774" y="113.144851" style="fill-opacity: 0.1"/>
     <use xlink:href="#mbedfb3ecfd" x="140.80995" y="123.930957" style="fill-opacity: 0.1"/>
     <use xlink:href="#mbedfb3ecfd" x="125.184441" y="113.361657" style="fill-opacity: 0.1"/>
     <use xlink:href="#mbedfb3ecfd" x="130.621957" y="118.75471" style="fill-opacity: 0.1"/>
     <use xlink:href="#mbedfb3ecfd" x="126.992535" y="114.472791" style="fill-opacity: 0.1"/>
     <use xlink:href="#mbedfb3ecfd" x="130.919552" y="143.958416" style="fill-opacity: 0.1"/>
     <use xlink:href="#mbedfb3ecfd" x="126.959751" y="111.491706" style="fill-opacity: 0.1"/>
     <use xlink:href="#mbedfb3ecfd" x="131.407081" y="130.055728" style="fill-opacity: 0.1"/>
     <use xlink:href="#mbedfb3ecfd" x="133.556022" y="112.413132" style="fill-opacity: 0.1"/>
     <use xlink:href="#mbedfb3ecfd" x="125.741535" y="113.686869" style="fill-opacity: 0.1"/>
     <use xlink:href="#mbedfb3ecfd" x="139.765577" y="113.849471" style="fill-opacity: 0.1"/>
     <use xlink:href="#mbedfb3ecfd" x="136.956177" y="129.920224" style="fill-opacity: 0.1"/>
     <use xlink:href="#mbedfb3ecfd" x="130.233204" y="111.112291" style="fill-opacity: 0.1"/>
     <use xlink:href="#mbedfb3ecfd" x="135.98854" y="130.462235" style="fill-opacity: 0.1"/>
     <use xlink:href="#mbedfb3ecfd" x="126.406507" y="111.816912" style="fill-opacity: 0.1"/>
     <use xlink:href="#mbedfb3ecfd" x="137.164755" y="125.367296" style="fill-opacity: 0.1"/>
     <use xlink:href="#mbedfb3ecfd" x="145.051429" y="116.288538" style="fill-opacity: 0.1"/>
     <use xlink:href="#mbedfb3ecfd" x="131.420155" y="118.75471" style="fill-opacity: 0.1"/>
     <use xlink:href="#mbedfb3ecfd" x="139.206206" y="111.871115" style="fill-opacity: 0.1"/>
     <use xlink:href="#mbedfb3ecfd" x="127.251473" y="129.025896" style="fill-opacity: 0.1"/>
     <use xlink:href="#mbedfb3ecfd" x="140.298016" y="116.803451" style="fill-opacity: 0.1"/>
     <use xlink:href="#mbedfb3ecfd" x="130.769248" y="128.917496" style="fill-opacity: 0.1"/>
     <use xlink:href="#mbedfb3ecfd" x="128.398563" y="112.900947" style="fill-opacity: 0.1"/>
     <use xlink:href="#mbedfb3ecfd" x="137.400596" y="118.673408" style="fill-opacity: 0.1"/>
     <use xlink:href="#mbedfb3ecfd" x="124.758574" y="114.066277" style="fill-opacity: 0.1"/>
     <use xlink:href="#mbedfb3ecfd" x="142.811505" y="118.022991" style="fill-opacity: 0.1"/>
     <use xlink:href="#mbedfb3ecfd" x="124.414581" y="110.543175" style="fill-opacity: 0.1"/>
    </g>
   </g>
   <g id="PathCollection_2">
    <g clip-path="url(#p5ab2f2c83b)">
     <use xlink:href="#mbedfb3ecfd" x="195.237819" y="102.304549" style="fill-opacity: 0.1"/>
     <use xlink:href="#mbedfb3ecfd" x="186.135638" y="105.665042" style="fill-opacity: 0.1"/>
     <use xlink:href="#mbedfb3ecfd" x="196.518469" y="104.201598" style="fill-opacity: 0.1"/>
     <use xlink:href="#mbedfb3ecfd" x="201.584928" y="105.665042" style="fill-opacity: 0.1"/>
     <use xlink:href="#mbedfb3ecfd" x="185.661235" y="102.03354" style="fill-opacity: 0.1"/>
     <use xlink:href="#mbedfb3ecfd" x="192.968812" y="103.090471" style="fill-opacity: 0.1"/>
     <use xlink:href="#mbedfb3ecfd" x="193.323352" y="104.201598" style="fill-opacity: 0.1"/>
     <use xlink:href="#mbedfb3ecfd" x="192.881644" y="105.665042" style="fill-opacity: 0.1"/>
     <use xlink:href="#mbedfb3ecfd" x="185.088254" y="102.304549" style="fill-opacity: 0.1"/>
     <use xlink:href="#mbedfb3ecfd" x="201.37424" y="112.277628" style="fill-opacity: 0.1"/>
     <use xlink:href="#mbedfb3ecfd" x="190.088852" y="104.201598" style="fill-opacity: 0.1"/>
     <use xlink:href="#mbedfb3ecfd" x="199.000752" y="103.090471" style="fill-opacity: 0.1"/>
     <use xlink:href="#mbedfb3ecfd" x="195.721326" y="102.03354" style="fill-opacity: 0.1"/>
     <use xlink:href="#mbedfb3ecfd" x="186.747845" y="103.090471" style="fill-opacity: 0.1"/>
     <use xlink:href="#mbedfb3ecfd" x="198.272886" y="104.201598" style="fill-opacity: 0.1"/>
     <use xlink:href="#mbedfb3ecfd" x="188.959035" y="105.665042" style="fill-opacity: 0.1"/>
     <use xlink:href="#mbedfb3ecfd" x="199.775124" y="102.03354" style="fill-opacity: 0.1"/>
     <use xlink:href="#mbedfb3ecfd" x="193.082989" y="105.665042" style="fill-opacity: 0.1"/>
     <use xlink:href="#mbedfb3ecfd" x="199.789234" y="102.304549" style="fill-opacity: 0.1"/>
     <use xlink:href="#mbedfb3ecfd" x="195.566255" y="105.665042" style="fill-opacity: 0.1"/>
     <use xlink:href="#mbedfb3ecfd" x="196.296617" y="100.136485" style="fill-opacity: 0.1"/>
     <use xlink:href="#mbedfb3ecfd" x="191.29856" y="105.665042" style="fill-opacity: 0.1"/>
     <use xlink:href="#mbedfb3ecfd" x="201.448668" y="102.03354" style="fill-opacity: 0.1"/>
     <use xlink:href="#mbedfb3ecfd" x="194.482824" y="103.090471" style="fill-opacity: 0.1"/>
     <use xlink:href="#mbedfb3ecfd" x="189.569464" y="100.136485" style="fill-opacity: 0.1"/>
     <use xlink:href="#mbedfb3ecfd" x="193.643669" y="108.754526" style="fill-opacity: 0.1"/>
     <use xlink:href="#mbedfb3ecfd" x="180.537517" y="102.304549" style="fill-opacity: 0.1"/>
     <use xlink:href="#mbedfb3ecfd" x="186.840201" y="105.665042" style="fill-opacity: 0.1"/>
     <use xlink:href="#mbedfb3ecfd" x="194.844032" y="100.136485" style="fill-opacity: 0.1"/>
     <use xlink:href="#mbedfb3ecfd" x="186.583587" y="105.665042" style="fill-opacity: 0.1"/>
     <use xlink:href="#mbedfb3ecfd" x="193.903074" y="102.304549" style="fill-opacity: 0.1"/>
     <use xlink:href="#mbedfb3ecfd" x="189.679136" y="105.665042" style="fill-opacity: 0.1"/>
     <use xlink:href="#mbedfb3ecfd" x="183.132876" y="102.03354" style="fill-opacity: 0.1"/>
     <use xlink:href="#mbedfb3ecfd" x="186.766714" y="105.665042" style="fill-opacity: 0.1"/>
     <use xlink:href="#mbedfb3ecfd" x="192.830599" y="104.201598" style="fill-opacity: 0.1"/>
     <use xlink:href="#mbedfb3ecfd" x="193.297256" y="109.188137" style="fill-opacity: 0.1"/>
     <use xlink:href="#mbedfb3ecfd" x="192.92792" y="102.304549" style="fill-opacity: 0.1"/>
     <use xlink:href="#mbedfb3ecfd" x="194.688403" y="105.665042" style="fill-opacity: 0.1"/>
     <use xlink:href="#mbedfb3ecfd" x="194.663905" y="104.201598" style="fill-opacity: 0.1"/>
     <use xlink:href="#mbedfb3ecfd" x="189.738277" y="103.090471" style="fill-opacity: 0.1"/>
     <use xlink:href="#mbedfb3ecfd" x="200.119817" y="104.201598" style="fill-opacity: 0.1"/>
     <use xlink:href="#mbedfb3ecfd" x="188.313015" y="108.754526" style="fill-opacity: 0.1"/>
     <use xlink:href="#mbedfb3ecfd" x="189.837522" y="102.304549" style="fill-opacity: 0.1"/>
     <use xlink:href="#mbedfb3ecfd" x="200.016627" y="105.665042" style="fill-opacity: 0.1"/>
     <use xlink:href="#mbedfb3ecfd" x="198.10317" y="104.201598" style="fill-opacity: 0.1"/>
     <use xlink:href="#mbedfb3ecfd" x="195.81974" y="105.665042" style="fill-opacity: 0.1"/>
     <use xlink:href="#mbedfb3ecfd" x="182.346168" y="100.136485" style="fill-opacity: 0.1"/>
     <use xlink:href="#mbedfb3ecfd" x="200.631743" y="105.665042" style="fill-opacity: 0.1"/>
     <use xlink:href="#mbedfb3ecfd" x="196.05081" y="102.304549" style="fill-opacity: 0.1"/>
     <use xlink:href="#mbedfb3ecfd" x="202.403136" y="105.665042" style="fill-opacity: 0.1"/>
     <use xlink:href="#mbedfb3ecfd" x="183.444777" y="102.03354" style="fill-opacity: 0.1"/>
     <use xlink:href="#mbedfb3ecfd" x="199.485478" y="105.665042" style="fill-opacity: 0.1"/>
     <use xlink:href="#mbedfb3ecfd" x="183.73593" y="102.03354" style="fill-opacity: 0.1"/>
     <use xlink:href="#mbedfb3ecfd" x="193.848259" y="112.277628" style="fill-opacity: 0.1"/>
     <use xlink:href="#mbedfb3ecfd" x="182.87276" y="102.03354" style="fill-opacity: 0.1"/>
     <use xlink:href="#mbedfb3ecfd" x="199.036453" y="103.090471" style="fill-opacity: 0.1"/>
     <use xlink:href="#mbedfb3ecfd" x="198.128279" y="100.136485" style="fill-opacity: 0.1"/>
     <use xlink:href="#mbedfb3ecfd" x="192.811311" y="109.188137" style="fill-opacity: 0.1"/>
     <use xlink:href="#mbedfb3ecfd" x="189.197355" y="102.03354" style="fill-opacity: 0.1"/>
     <use xlink:href="#mbedfb3ecfd" x="181.652919" y="105.665042" style="fill-opacity: 0.1"/>
     <use xlink:href="#mbedfb3ecfd" x="195.675559" y="102.03354" style="fill-opacity: 0.1"/>
     <use xlink:href="#mbedfb3ecfd" x="190.232085" y="109.188137" style="fill-opacity: 0.1"/>
     <use xlink:href="#mbedfb3ecfd" x="196.225223" y="104.201598" style="fill-opacity: 0.1"/>
     <use xlink:href="#mbedfb3ecfd" x="199.446558" y="103.090471" style="fill-opacity: 0.1"/>
     <use xlink:href="#mbedfb3ecfd" x="201.882516" y="102.304549" style="fill-opacity: 0.1"/>
     <use xlink:href="#mbedfb3ecfd" x="199.210438" y="105.665042" style="fill-opacity: 0.1"/>
     <use xlink:href="#mbedfb3ecfd" x="180.370585" y="102.304549" style="fill-opacity: 0.1"/>
     <use xlink:href="#mbedfb3ecfd" x="188.143747" y="105.665042" style="fill-opacity: 0.1"/>
     <use xlink:href="#mbedfb3ecfd" x="196.40233" y="102.03354" style="fill-opacity: 0.1"/>
     <use xlink:href="#mbedfb3ecfd" x="183.93986" y="109.188137" style="fill-opacity: 0.1"/>
     <use xlink:href="#mbedfb3ecfd" x="191.738532" y="100.136485" style="fill-opacity: 0.1"/>
     <use xlink:href="#mbedfb3ecfd" x="181.32194" y="105.665042" style="fill-opacity: 0.1"/>
     <use xlink:href="#mbedfb3ecfd" x="184.573" y="102.03354" style="fill-opacity: 0.1"/>
     <use xlink:href="#mbedfb3ecfd" x="180.522532" y="105.665042" style="fill-opacity: 0.1"/>
     <use xlink:href="#mbedfb3ecfd" x="197.824256" y="104.201598" style="fill-opacity: 0.1"/>
     <use xlink:href="#mbedfb3ecfd" x="185.107071" y="105.665042" style="fill-opacity: 0.1"/>
     <use xlink:href="#mbedfb3ecfd" x="187.81729" y="102.03354" style="fill-opacity: 0.1"/>
     <use xlink:href="#mbedfb3ecfd" x="200.823663" y="105.665042" style="fill-opacity: 0.1"/>
     <use xlink:href="#mbedfb3ecfd" x="195.831476" y="102.03354" style="fill-opacity: 0.1"/>
     <use xlink:href="#mbedfb3ecfd" x="180.819767" y="105.665042" style="fill-opacity: 0.1"/>
     <use xlink:href="#mbedfb3ecfd" x="183.785061" y="104.201598" style="fill-opacity: 0.1"/>
     <use xlink:href="#mbedfb3ecfd" x="193.980366" y="105.665042" style="fill-opacity: 0.1"/>
     <use xlink:href="#mbedfb3ecfd" x="192.992722" y="102.304549" style="fill-opacity: 0.1"/>
     <use xlink:href="#mbedfb3ecfd" x="185.418836" y="105.665042" style="fill-opacity: 0.1"/>
     <use xlink:href="#mbedfb3ecfd" x="200.960544" y="102.304549" style="fill-opacity: 0.1"/>
     <use xlink:href="#mbedfb3ecfd" x="193.812691" y="105.665042" style="fill-opacity: 0.1"/>
     <use xlink:href="#mbedfb3ecfd" x="192.064315" y="102.03354" style="fill-opacity: 0.1"/>
     <use xlink:href="#mbedfb3ecfd" x="193.275767" y="105.665042" style="fill-opacity: 0.1"/>
     <use xlink:href="#mbedfb3ecfd" x="196.405264" y="102.304549" style="fill-opacity: 0.1"/>
     <use xlink:href="#mbedfb3ecfd" x="187.071661" y="105.665042" style="fill-opacity: 0.1"/>
     <use xlink:href="#mbedfb3ecfd" x="188.997321" y="100.136485" style="fill-opacity: 0.1"/>
     <use xlink:href="#mbedfb3ecfd" x="184.792788" y="105.665042" style="fill-opacity: 0.1"/>
     <use xlink:href="#mbedfb3ecfd" x="184.264909" y="102.03354" style="fill-opacity: 0.1"/>
     <use xlink:href="#mbedfb3ecfd" x="201.187276" y="109.188137" style="fill-opacity: 0.1"/>
     <use xlink:href="#mbedfb3ecfd" x="196.615712" y="104.201598" style="fill-opacity: 0.1"/>
     <use xlink:href="#mbedfb3ecfd" x="191.056043" y="105.665042" style="fill-opacity: 0.1"/>
     <use xlink:href="#mbedfb3ecfd" x="185.184965" y="100.136485" style="fill-opacity: 0.1"/>
     <use xlink:href="#mbedfb3ecfd" x="185.7863" y="105.665042" style="fill-opacity: 0.1"/>
     <use xlink:href="#mbedfb3ecfd" x="181.404326" y="100.136485" style="fill-opacity: 0.1"/>
     <use xlink:href="#mbedfb3ecfd" x="189.805196" y="105.665042" style="fill-opacity: 0.1"/>
    </g>
   </g>
   <g id="PathCollection_3">
    <g clip-path="url(#p5ab2f2c83b)">
     <use xlink:href="#mbedfb3ecfd" x="242.867684" y="102.304549" style="fill-opacity: 0.1"/>
     <use xlink:href="#mbedfb3ecfd" x="251.450686" y="105.665042" style="fill-opacity: 0.1"/>
     <use xlink:href="#mbedfb3ecfd" x="244.339803" y="102.304549" style="fill-opacity: 0.1"/>
     <use xlink:href="#mbedfb3ecfd" x="239.917188" y="103.090471" style="fill-opacity: 0.1"/>
     <use xlink:href="#mbedfb3ecfd" x="236.459303" y="102.03354" style="fill-opacity: 0.1"/>
     <use xlink:href="#mbedfb3ecfd" x="237.409475" y="103.090471" style="fill-opacity: 0.1"/>
     <use xlink:href="#mbedfb3ecfd" x="251.072351" y="102.03354" style="fill-opacity: 0.1"/>
     <use xlink:href="#mbedfb3ecfd" x="246.034876" y="105.665042" style="fill-opacity: 0.1"/>
     <use xlink:href="#mbedfb3ecfd" x="247.884789" y="102.03354" style="fill-opacity: 0.1"/>
     <use xlink:href="#mbedfb3ecfd" x="255.921951" y="112.277628" style="fill-opacity: 0.1"/>
     <use xlink:href="#mbedfb3ecfd" x="258.012589" y="102.304549" style="fill-opacity: 0.1"/>
     <use xlink:href="#mbedfb3ecfd" x="240.749565" y="105.665042" style="fill-opacity: 0.1"/>
     <use xlink:href="#mbedfb3ecfd" x="250.708214" y="100.136485" style="fill-opacity: 0.1"/>
     <use xlink:href="#mbedfb3ecfd" x="241.785768" y="105.665042" style="fill-opacity: 0.1"/>
     <use xlink:href="#mbedfb3ecfd" x="236.369405" y="100.136485" style="fill-opacity: 0.1"/>
     <use xlink:href="#mbedfb3ecfd" x="252.835295" y="103.090471" style="fill-opacity: 0.1"/>
     <use xlink:href="#mbedfb3ecfd" x="243.05118" y="102.03354" style="fill-opacity: 0.1"/>
     <use xlink:href="#mbedfb3ecfd" x="244.467295" y="109.188137" style="fill-opacity: 0.1"/>
     <use xlink:href="#mbedfb3ecfd" x="249.039566" y="104.201598" style="fill-opacity: 0.1"/>
     <use xlink:href="#mbedfb3ecfd" x="254.457266" y="105.665042" style="fill-opacity: 0.1"/>
     <use xlink:href="#mbedfb3ecfd" x="249.947192" y="102.304549" style="fill-opacity: 0.1"/>
     <use xlink:href="#mbedfb3ecfd" x="255.385816" y="105.665042" style="fill-opacity: 0.1"/>
     <use xlink:href="#mbedfb3ecfd" x="242.013868" y="104.201598" style="fill-opacity: 0.1"/>
     <use xlink:href="#mbedfb3ecfd" x="253.720679" y="103.388578" style="fill-opacity: 0.1"/>
     <use xlink:href="#mbedfb3ecfd" x="240.051827" y="102.304549" style="fill-opacity: 0.1"/>
     <use xlink:href="#mbedfb3ecfd" x="257.174543" y="105.665042" style="fill-opacity: 0.1"/>
     <use xlink:href="#mbedfb3ecfd" x="251.25304" y="102.03354" style="fill-opacity: 0.1"/>
     <use xlink:href="#mbedfb3ecfd" x="240.718556" y="105.665042" style="fill-opacity: 0.1"/>
     <use xlink:href="#mbedfb3ecfd" x="257.053546" y="100.136485" style="fill-opacity: 0.1"/>
     <use xlink:href="#mbedfb3ecfd" x="252.220992" y="105.665042" style="fill-opacity: 0.1"/>
     <use xlink:href="#mbedfb3ecfd" x="241.576392" y="102.304549" style="fill-opacity: 0.1"/>
     <use xlink:href="#mbedfb3ecfd" x="240.669548" y="103.090471" style="fill-opacity: 0.1"/>
     <use xlink:href="#mbedfb3ecfd" x="247.474586" y="102.03354" style="fill-opacity: 0.1"/>
     <use xlink:href="#mbedfb3ecfd" x="236.481266" y="105.665042" style="fill-opacity: 0.1"/>
     <use xlink:href="#mbedfb3ecfd" x="240.539159" y="102.03354" style="fill-opacity: 0.1"/>
     <use xlink:href="#mbedfb3ecfd" x="245.38735" y="103.090471" style="fill-opacity: 0.1"/>
     <use xlink:href="#mbedfb3ecfd" x="244.259857" y="100.136485" style="fill-opacity: 0.1"/>
     <use xlink:href="#mbedfb3ecfd" x="246.255364" y="103.388578" style="fill-opacity: 0.1"/>
     <use xlink:href="#mbedfb3ecfd" x="242.105081" y="104.201598" style="fill-opacity: 0.1"/>
     <use xlink:href="#mbedfb3ecfd" x="249.005355" y="105.665042" style="fill-opacity: 0.1"/>
     <use xlink:href="#mbedfb3ecfd" x="255.189513" y="102.03354" style="fill-opacity: 0.1"/>
     <use xlink:href="#mbedfb3ecfd" x="238.531761" y="105.665042" style="fill-opacity: 0.1"/>
     <use xlink:href="#mbedfb3ecfd" x="247.456248" y="104.201598" style="fill-opacity: 0.1"/>
     <use xlink:href="#mbedfb3ecfd" x="238.856206" y="103.090471" style="fill-opacity: 0.1"/>
     <use xlink:href="#mbedfb3ecfd" x="251.908602" y="102.304549" style="fill-opacity: 0.1"/>
     <use xlink:href="#mbedfb3ecfd" x="244.74843" y="105.665042" style="fill-opacity: 0.1"/>
     <use xlink:href="#mbedfb3ecfd" x="248.528537" y="104.201598" style="fill-opacity: 0.1"/>
     <use xlink:href="#mbedfb3ecfd" x="239.999239" y="105.665042" style="fill-opacity: 0.1"/>
     <use xlink:href="#mbedfb3ecfd" x="239.141445" y="102.304549" style="fill-opacity: 0.1"/>
     <use xlink:href="#mbedfb3ecfd" x="246.80177" y="103.388578" style="fill-opacity: 0.1"/>
     <use xlink:href="#mbedfb3ecfd" x="243.845664" y="102.03354" style="fill-opacity: 0.1"/>
     <use xlink:href="#mbedfb3ecfd" x="256.898677" y="105.665042" style="fill-opacity: 0.1"/>
     <use xlink:href="#mbedfb3ecfd" x="252.990341" y="100.136485" style="fill-opacity: 0.1"/>
     <use xlink:href="#mbedfb3ecfd" x="252.618458" y="109.188137" style="fill-opacity: 0.1"/>
     <use xlink:href="#mbedfb3ecfd" x="256.07927" y="102.304549" style="fill-opacity: 0.1"/>
     <use xlink:href="#mbedfb3ecfd" x="237.770448" y="103.090471" style="fill-opacity: 0.1"/>
     <use xlink:href="#mbedfb3ecfd" x="248.233273" y="102.304549" style="fill-opacity: 0.1"/>
     <use xlink:href="#mbedfb3ecfd" x="248.953835" y="105.665042" style="fill-opacity: 0.1"/>
     <use xlink:href="#mbedfb3ecfd" x="257.378651" y="102.03354" style="fill-opacity: 0.1"/>
     <use xlink:href="#mbedfb3ecfd" x="242.429137" y="112.277628" style="fill-opacity: 0.1"/>
     <use xlink:href="#mbedfb3ecfd" x="241.283716" y="102.03354" style="fill-opacity: 0.1"/>
     <use xlink:href="#mbedfb3ecfd" x="238.147015" y="105.665042" style="fill-opacity: 0.1"/>
     <use xlink:href="#mbedfb3ecfd" x="236.275186" y="102.03354" style="fill-opacity: 0.1"/>
     <use xlink:href="#mbedfb3ecfd" x="256.655333" y="103.090471" style="fill-opacity: 0.1"/>
     <use xlink:href="#mbedfb3ecfd" x="250.860844" y="100.136485" style="fill-opacity: 0.1"/>
     <use xlink:href="#mbedfb3ecfd" x="253.43289" y="103.090471" style="fill-opacity: 0.1"/>
     <use xlink:href="#mbedfb3ecfd" x="242.196623" y="100.136485" style="fill-opacity: 0.1"/>
     <use xlink:href="#mbedfb3ecfd" x="248.997003" y="105.665042" style="fill-opacity: 0.1"/>
     <use xlink:href="#mbedfb3ecfd" x="237.335945" y="102.03354" style="fill-opacity: 0.1"/>
     <use xlink:href="#mbedfb3ecfd" x="246.747562" y="105.665042" style="fill-opacity: 0.1"/>
     <use xlink:href="#mbedfb3ecfd" x="257.725918" y="102.03354" style="fill-opacity: 0.1"/>
     <use xlink:href="#mbedfb3ecfd" x="255.47185" y="105.665042" style="fill-opacity: 0.1"/>
     <use xlink:href="#mbedfb3ecfd" x="243.4561" y="102.03354" style="fill-opacity: 0.1"/>
     <use xlink:href="#mbedfb3ecfd" x="257.370477" y="105.665042" style="fill-opacity: 0.1"/>
     <use xlink:href="#mbedfb3ecfd" x="241.080001" y="102.304549" style="fill-opacity: 0.1"/>
     <use xlink:href="#mbedfb3ecfd" x="257.09703" y="103.090471" style="fill-opacity: 0.1"/>
     <use xlink:href="#mbedfb3ecfd" x="256.919786" y="104.201598" style="fill-opacity: 0.1"/>
     <use xlink:href="#mbedfb3ecfd" x="253.746475" y="109.188137" style="fill-opacity: 0.1"/>
     <use xlink:href="#mbedfb3ecfd" x="249.979915" y="102.304549" style="fill-opacity: 0.1"/>
     <use xlink:href="#mbedfb3ecfd" x="255.422361" y="105.665042" style="fill-opacity: 0.1"/>
     <use xlink:href="#mbedfb3ecfd" x="242.448617" y="102.03354" style="fill-opacity: 0.1"/>
     <use xlink:href="#mbedfb3ecfd" x="254.85668" y="108.754526" style="fill-opacity: 0.1"/>
     <use xlink:href="#mbedfb3ecfd" x="249.699328" y="102.304549" style="fill-opacity: 0.1"/>
     <use xlink:href="#mbedfb3ecfd" x="236.203924" y="105.665042" style="fill-opacity: 0.1"/>
     <use xlink:href="#mbedfb3ecfd" x="243.658642" y="102.304549" style="fill-opacity: 0.1"/>
     <use xlink:href="#mbedfb3ecfd" x="239.214946" y="105.665042" style="fill-opacity: 0.1"/>
     <use xlink:href="#mbedfb3ecfd" x="257.822657" y="100.136485" style="fill-opacity: 0.1"/>
     <use xlink:href="#mbedfb3ecfd" x="246.585582" y="105.665042" style="fill-opacity: 0.1"/>
     <use xlink:href="#mbedfb3ecfd" x="247.010127" y="102.304549" style="fill-opacity: 0.1"/>
     <use xlink:href="#mbedfb3ecfd" x="250.181341" y="103.388578" style="fill-opacity: 0.1"/>
     <use xlink:href="#mbedfb3ecfd" x="244.135193" y="100.136485" style="fill-opacity: 0.1"/>
     <use xlink:href="#mbedfb3ecfd" x="238.964059" y="105.665042" style="fill-opacity: 0.1"/>
     <use xlink:href="#mbedfb3ecfd" x="254.257935" y="102.03354" style="fill-opacity: 0.1"/>
     <use xlink:href="#mbedfb3ecfd" x="240.145837" y="109.188137" style="fill-opacity: 0.1"/>
     <use xlink:href="#mbedfb3ecfd" x="247.320987" y="102.304549" style="fill-opacity: 0.1"/>
     <use xlink:href="#mbedfb3ecfd" x="240.915178" y="105.665042" style="fill-opacity: 0.1"/>
     <use xlink:href="#mbedfb3ecfd" x="238.092344" y="100.136485" style="fill-opacity: 0.1"/>
     <use xlink:href="#mbedfb3ecfd" x="255.152371" y="105.665042" style="fill-opacity: 0.1"/>
     <use xlink:href="#mbedfb3ecfd" x="257.623791" y="102.03354" style="fill-opacity: 0.1"/>
     <use xlink:href="#mbedfb3ecfd" x="257.354061" y="105.665042" style="fill-opacity: 0.1"/>
    </g>
   </g>
   <g id="text_10">
    <!-- *** -->
    <g transform="translate(179.269 84.032056) scale(0.16 -0.16)">
     <defs>
      <path id="DejaVuSans-2a" d="M 3009 3897 
L 1888 3291 
L 3009 2681 
L 2828 2375 
L 1778 3009 
L 1778 1831 
L 1422 1831 
L 1422 3009 
L 372 2375 
L 191 2681 
L 1313 3291 
L 191 3897 
L 372 4206 
L 1422 3572 
L 1422 4750 
L 1778 4750 
L 1778 3572 
L 2828 4206 
L 3009 3897 
z
" transform="scale(0.015625)"/>
     </defs>
     <use xlink:href="#DejaVuSans-2a"/>
     <use xlink:href="#DejaVuSans-2a" transform="translate(50 0)"/>
     <use xlink:href="#DejaVuSans-2a" transform="translate(100 0)"/>
    </g>
   </g>
   <g id="text_11">
    <!-- *** -->
    <g transform="translate(151.369325 55.988183) scale(0.16 -0.16)">
     <use xlink:href="#DejaVuSans-2a"/>
     <use xlink:href="#DejaVuSans-2a" transform="translate(50 0)"/>
     <use xlink:href="#DejaVuSans-2a" transform="translate(100 0)"/>
    </g>
   </g>
   <g id="text_12">
    <!-- ns -->
    <g transform="translate(209.931175 49.516528) scale(0.16 -0.16)">
     <use xlink:href="#DejaVuSans-6e"/>
     <use xlink:href="#DejaVuSans-73" transform="translate(63.378906 0)"/>
    </g>
   </g>
   <g id="text_13">
    <!-- In-Distribution -->
    <g transform="translate(120.036187 28.50475) scale(0.2 -0.2)">
     <defs>
      <path id="DejaVuSans-49" d="M 628 4666 
L 1259 4666 
L 1259 0 
L 628 0 
L 628 4666 
z
" transform="scale(0.015625)"/>
     </defs>
     <use xlink:href="#DejaVuSans-49"/>
     <use xlink:href="#DejaVuSans-6e" transform="translate(29.492188 0)"/>
     <use xlink:href="#DejaVuSans-2d" transform="translate(92.871094 0)"/>
     <use xlink:href="#DejaVuSans-44" transform="translate(128.955078 0)"/>
     <use xlink:href="#DejaVuSans-69" transform="translate(205.957031 0)"/>
     <use xlink:href="#DejaVuSans-73" transform="translate(233.740234 0)"/>
     <use xlink:href="#DejaVuSans-74" transform="translate(285.839844 0)"/>
     <use xlink:href="#DejaVuSans-72" transform="translate(325.048828 0)"/>
     <use xlink:href="#DejaVuSans-69" transform="translate(366.162109 0)"/>
     <use xlink:href="#DejaVuSans-62" transform="translate(393.945312 0)"/>
     <use xlink:href="#DejaVuSans-75" transform="translate(457.421875 0)"/>
     <use xlink:href="#DejaVuSans-74" transform="translate(520.800781 0)"/>
     <use xlink:href="#DejaVuSans-69" transform="translate(560.009766 0)"/>
     <use xlink:href="#DejaVuSans-6f" transform="translate(587.792969 0)"/>
     <use xlink:href="#DejaVuSans-6e" transform="translate(648.974609 0)"/>
    </g>
    <!--  -->
    <g transform="translate(191.269 50.900375) scale(0.2 -0.2)"/>
    <!--  -->
    <g transform="translate(191.269 73.296) scale(0.2 -0.2)"/>
   </g>
   <g id="LineCollection_1">
    <path d="M 135.469649 121.112559 
L 135.469649 119.09935 
" clip-path="url(#p5ab2f2c83b)" style="fill: none; stroke: #000000; stroke-width: 2"/>
    <path d="M 191.269 104.419825 
L 191.269 103.908036 
" clip-path="url(#p5ab2f2c83b)" style="fill: none; stroke: #000000; stroke-width: 2"/>
    <path d="M 247.068351 104.038449 
L 247.068351 103.538708 
" clip-path="url(#p5ab2f2c83b)" style="fill: none; stroke: #000000; stroke-width: 2"/>
   </g>
   <g id="line2d_12">
    <defs>
     <path id="m0104712888" d="M 5 0 
L -5 -0 
" style="stroke: #000000"/>
    </defs>
    <g clip-path="url(#p5ab2f2c83b)">
     <use xlink:href="#m0104712888" x="135.469649" y="121.112559" style="stroke: #000000"/>
     <use xlink:href="#m0104712888" x="191.269" y="104.419825" style="stroke: #000000"/>
     <use xlink:href="#m0104712888" x="247.068351" y="104.038449" style="stroke: #000000"/>
    </g>
   </g>
   <g id="line2d_13">
    <g clip-path="url(#p5ab2f2c83b)">
     <use xlink:href="#m0104712888" x="135.469649" y="119.09935" style="stroke: #000000"/>
     <use xlink:href="#m0104712888" x="191.269" y="103.908036" style="stroke: #000000"/>
     <use xlink:href="#m0104712888" x="247.068351" y="103.538708" style="stroke: #000000"/>
    </g>
   </g>
   <g id="line2d_14">
    <defs>
     <path id="m1ae5edf456" d="M 0 3 
C 0.795609 3 1.55874 2.683901 2.12132 2.12132 
C 2.683901 1.55874 3 0.795609 3 0 
C 3 -0.795609 2.683901 -1.55874 2.12132 -2.12132 
C 1.55874 -2.683901 0.795609 -3 0 -3 
C -0.795609 -3 -1.55874 -2.683901 -2.12132 -2.12132 
C -2.683901 -1.55874 -3 -0.795609 -3 0 
C -3 0.795609 -2.683901 1.55874 -2.12132 2.12132 
C -1.55874 2.683901 -0.795609 3 0 3 
z
" style="stroke: #000000"/>
    </defs>
    <g clip-path="url(#p5ab2f2c83b)">
     <use xlink:href="#m1ae5edf456" x="135.469649" y="120.105954" style="stroke: #000000"/>
     <use xlink:href="#m1ae5edf456" x="191.269" y="104.16393" style="stroke: #000000"/>
     <use xlink:href="#m1ae5edf456" x="247.068351" y="103.788578" style="stroke: #000000"/>
    </g>
   </g>
  </g>
 </g>
 <defs>
  <clipPath id="p5ab2f2c83b">
   <rect x="105.338" y="79.296" width="171.862" height="113.254081"/>
  </clipPath>
 </defs>
</svg>
