<?xml version="1.0" encoding="utf-8" standalone="no"?>
<!DOCTYPE svg PUBLIC "-//W3C//DTD SVG 1.1//EN"
  "http://www.w3.org/Graphics/SVG/1.1/DTD/svg11.dtd">
<svg xmlns:xlink="http://www.w3.org/1999/xlink" width="288pt" height="288pt" viewBox="0 0 288 288" xmlns="http://www.w3.org/2000/svg" version="1.1">
 <metadata>
  <rdf:RDF xmlns:dc="http://purl.org/dc/elements/1.1/" xmlns:cc="http://creativecommons.org/ns#" xmlns:rdf="http://www.w3.org/1999/02/22-rdf-syntax-ns#">
   <cc:Work>
    <dc:type rdf:resource="http://purl.org/dc/dcmitype/StillImage"/>
    <dc:date>2025-10-17T19:19:24.766670</dc:date>
    <dc:format>image/svg+xml</dc:format>
    <dc:creator>
     <cc:Agent>
      <dc:title>Matplotlib v3.10.1, https://matplotlib.org/</dc:title>
     </cc:Agent>
    </dc:creator>
   </cc:Work>
  </rdf:RDF>
 </metadata>
 <defs>
  <style type="text/css">*{stroke-linejoin: round; stroke-linecap: butt}</style>
 </defs>
 <g id="figure_1">
  <g id="patch_1">
   <path d="M 0 288 
L 288 288 
L 288 0 
L 0 0 
L 0 288 
z
" style="fill: none"/>
  </g>
  <g id="axes_1">
   <g id="patch_2">
    <path d="M 105.338 192.550081 
L 277.2 192.550081 
L 277.2 79.296 
L 105.338 79.296 
L 105.338 192.550081 
z
" style="fill: none"/>
   </g>
   <g id="FillBetweenPolyCollection_1">
    <defs>
     <path id="m9e06da77c5" d="M 144.253692 -139.434453 
L 126.685606 -139.434453 
L 125.995642 -139.906116 
L 125.28907 -140.377779 
L 124.56975 -140.849441 
L 123.841948 -141.321104 
L 123.110303 -141.792767 
L 122.379798 -142.26443 
L 121.655713 -142.736093 
L 120.943579 -143.207755 
L 120.249113 -143.679418 
L 119.578159 -144.151081 
L 118.936609 -144.622744 
L 118.330328 -145.094407 
L 117.765062 -145.566069 
L 117.246355 -146.037732 
L 116.779452 -146.509395 
L 116.369211 -146.981058 
L 116.020003 -147.45272 
L 115.735634 -147.924383 
L 115.519254 -148.396046 
L 115.373287 -148.867709 
L 115.29937 -149.339372 
L 115.298299 -149.811034 
L 115.369994 -150.282697 
L 115.513485 -150.75436 
L 115.726908 -151.226023 
L 116.007525 -151.697686 
L 116.351758 -152.169348 
L 116.755248 -152.641011 
L 117.212918 -153.112674 
L 117.719069 -153.584337 
L 118.267466 -154.055999 
L 118.851455 -154.527662 
L 119.464068 -154.999325 
L 120.098143 -155.470988 
L 120.746437 -155.942651 
L 121.401735 -156.414313 
L 122.056951 -156.885976 
L 122.705225 -157.357639 
L 123.339998 -157.829302 
L 123.955079 -158.300965 
L 124.544698 -158.772627 
L 125.103538 -159.24429 
L 125.626759 -159.715953 
L 126.110004 -160.187616 
L 126.549395 -160.659279 
L 126.941519 -161.130941 
L 127.283406 -161.602604 
L 127.572502 -162.074267 
L 127.806643 -162.54593 
L 127.984028 -163.017592 
L 128.103189 -163.489255 
L 128.162982 -163.960918 
L 128.162566 -164.432581 
L 128.101406 -164.904244 
L 127.979278 -165.375906 
L 127.796279 -165.847569 
L 127.55286 -166.319232 
L 127.249847 -166.790895 
L 126.888487 -167.262558 
L 126.470486 -167.73422 
L 125.998054 -168.205883 
L 125.473948 -168.677546 
L 124.90151 -169.149209 
L 124.284702 -169.620872 
L 123.628127 -170.092534 
L 122.937042 -170.564197 
L 122.217354 -171.03586 
L 121.475601 -171.507523 
L 120.718914 -171.979185 
L 119.954961 -172.450848 
L 119.191871 -172.922511 
L 118.438142 -173.394174 
L 117.702528 -173.865837 
L 116.993913 -174.337499 
L 116.321176 -174.809162 
L 115.693039 -175.280825 
L 115.117917 -175.752488 
L 114.60376 -176.224151 
L 114.157904 -176.695813 
L 113.786929 -177.167476 
L 113.496521 -177.639139 
L 113.291361 -178.110802 
L 113.175024 -178.582464 
L 113.149909 -179.054127 
L 113.217187 -179.52579 
L 113.376778 -179.997453 
L 113.627356 -180.469116 
L 113.966379 -180.940778 
L 114.390149 -181.412441 
L 114.89389 -181.884104 
L 115.471854 -182.355767 
L 116.117441 -182.82743 
L 116.823336 -183.299092 
L 117.581661 -183.770755 
L 118.384123 -184.242418 
L 119.222178 -184.714081 
L 120.087184 -185.185744 
L 120.970555 -185.657406 
L 121.863903 -186.129069 
L 149.075396 -186.129069 
L 149.075396 -186.129069 
L 149.968743 -185.657406 
L 150.852115 -185.185744 
L 151.717121 -184.714081 
L 152.555176 -184.242418 
L 153.357638 -183.770755 
L 154.115962 -183.299092 
L 154.821858 -182.82743 
L 155.467445 -182.355767 
L 156.045408 -181.884104 
L 156.54915 -181.412441 
L 156.972919 -180.940778 
L 157.311943 -180.469116 
L 157.562521 -179.997453 
L 157.722112 -179.52579 
L 157.78939 -179.054127 
L 157.764275 -178.582464 
L 157.647938 -178.110802 
L 157.442778 -177.639139 
L 157.152369 -177.167476 
L 156.781394 -176.695813 
L 156.335539 -176.224151 
L 155.821382 -175.752488 
L 155.24626 -175.280825 
L 154.618123 -174.809162 
L 153.945386 -174.337499 
L 153.236771 -173.865837 
L 152.501156 -173.394174 
L 151.747427 -172.922511 
L 150.984338 -172.450848 
L 150.220385 -171.979185 
L 149.463698 -171.507523 
L 148.721945 -171.03586 
L 148.002257 -170.564197 
L 147.311172 -170.092534 
L 146.654597 -169.620872 
L 146.037788 -169.149209 
L 145.46535 -168.677546 
L 144.941244 -168.205883 
L 144.468813 -167.73422 
L 144.050812 -167.262558 
L 143.689452 -166.790895 
L 143.386439 -166.319232 
L 143.143019 -165.847569 
L 142.960021 -165.375906 
L 142.837892 -164.904244 
L 142.776733 -164.432581 
L 142.776317 -163.960918 
L 142.836109 -163.489255 
L 142.955271 -163.017592 
L 143.132655 -162.54593 
L 143.366797 -162.074267 
L 143.655893 -161.602604 
L 143.99778 -161.130941 
L 144.389904 -160.659279 
L 144.829295 -160.187616 
L 145.31254 -159.715953 
L 145.835761 -159.24429 
L 146.394601 -158.772627 
L 146.984219 -158.300965 
L 147.599301 -157.829302 
L 148.234073 -157.357639 
L 148.882347 -156.885976 
L 149.537564 -156.414313 
L 150.192861 -155.942651 
L 150.841155 -155.470988 
L 151.475231 -154.999325 
L 152.087844 -154.527662 
L 152.671833 -154.055999 
L 153.22023 -153.584337 
L 153.72638 -153.112674 
L 154.184051 -152.641011 
L 154.58754 -152.169348 
L 154.931774 -151.697686 
L 155.212391 -151.226023 
L 155.425814 -150.75436 
L 155.569305 -150.282697 
L 155.641 -149.811034 
L 155.639928 -149.339372 
L 155.566011 -148.867709 
L 155.420045 -148.396046 
L 155.203665 -147.924383 
L 154.919296 -147.45272 
L 154.570088 -146.981058 
L 154.159846 -146.509395 
L 153.692944 -146.037732 
L 153.174237 -145.566069 
L 152.608971 -145.094407 
L 152.002689 -144.622744 
L 151.36114 -144.151081 
L 150.690186 -143.679418 
L 149.99572 -143.207755 
L 149.283585 -142.736093 
L 148.559501 -142.26443 
L 147.828996 -141.792767 
L 147.097351 -141.321104 
L 146.369549 -140.849441 
L 145.650229 -140.377779 
L 144.943656 -139.906116 
L 144.253692 -139.434453 
z
" style="stroke: #323232; stroke-opacity: 0.4; stroke-width: 1.25"/>
    </defs>
    <g clip-path="url(#p42e478f9d1)">
     <use xlink:href="#m9e06da77c5" x="0" y="288" style="fill: #dc9238; fill-opacity: 0.4; stroke: #323232; stroke-opacity: 0.4; stroke-width: 1.25"/>
    </g>
   </g>
   <g id="FillBetweenPolyCollection_2">
    <defs>
     <path id="m693e161b3c" d="M 209.005198 -162.714006 
L 173.532802 -162.714006 
L 173.088476 -163.048796 
L 172.682896 -163.383586 
L 172.318828 -163.718376 
L 171.998755 -164.053167 
L 171.724851 -164.387957 
L 171.498959 -164.722747 
L 171.322569 -165.057537 
L 171.196809 -165.392327 
L 171.122429 -165.727118 
L 171.099798 -166.061908 
L 171.128903 -166.396698 
L 171.209351 -166.731488 
L 171.340372 -167.066279 
L 171.520834 -167.401069 
L 171.749259 -167.735859 
L 172.023835 -168.070649 
L 172.342439 -168.405439 
L 172.702665 -168.74023 
L 173.101846 -169.07502 
L 173.537084 -169.40981 
L 174.005278 -169.7446 
L 174.503161 -170.079391 
L 175.027326 -170.414181 
L 175.574262 -170.748971 
L 176.140389 -171.083761 
L 176.722086 -171.418551 
L 177.315724 -171.753342 
L 177.917698 -172.088132 
L 178.524456 -172.422922 
L 179.132522 -172.757712 
L 179.738525 -173.092503 
L 180.339219 -173.427293 
L 180.9315 -173.762083 
L 181.512424 -174.096873 
L 182.079218 -174.431663 
L 182.629293 -174.766454 
L 183.160241 -175.101244 
L 183.669847 -175.436034 
L 184.156081 -175.770824 
L 184.617097 -176.105615 
L 185.051224 -176.440405 
L 185.456956 -176.775195 
L 185.832943 -177.109985 
L 186.177971 -177.444775 
L 186.490955 -177.779566 
L 186.770914 -178.114356 
L 187.016962 -178.449146 
L 187.228288 -178.783936 
L 187.404143 -179.118727 
L 187.543825 -179.453517 
L 187.64667 -179.788307 
L 187.712041 -180.123097 
L 187.739324 -180.457887 
L 187.727929 -180.792678 
L 187.677286 -181.127468 
L 187.586856 -181.462258 
L 187.456141 -181.797048 
L 187.284698 -182.131838 
L 187.072159 -182.466629 
L 186.818254 -182.801419 
L 186.522837 -183.136209 
L 186.185915 -183.470999 
L 185.807682 -183.80579 
L 185.388552 -184.14058 
L 184.929191 -184.47537 
L 184.430553 -184.81016 
L 183.893912 -185.14495 
L 183.320891 -185.479741 
L 182.713488 -185.814531 
L 182.0741 -186.149321 
L 181.405537 -186.484111 
L 180.71103 -186.818902 
L 179.994235 -187.153692 
L 179.259225 -187.488482 
L 178.510475 -187.823272 
L 177.752838 -188.158062 
L 176.991508 -188.492853 
L 176.231982 -188.827643 
L 175.480005 -189.162433 
L 174.741509 -189.497223 
L 174.022552 -189.832014 
L 173.329237 -190.166804 
L 172.66764 -190.501594 
L 172.043724 -190.836384 
L 171.463262 -191.171174 
L 170.931745 -191.505965 
L 170.454309 -191.840755 
L 170.03565 -192.175545 
L 169.679956 -192.510335 
L 169.390838 -192.845126 
L 169.171275 -193.179916 
L 169.023562 -193.514706 
L 168.949279 -193.849496 
L 168.94926 -194.184286 
L 169.023583 -194.519077 
L 169.171571 -194.853867 
L 169.391801 -195.188657 
L 169.682132 -195.523447 
L 170.03974 -195.858238 
L 212.49826 -195.858238 
L 212.49826 -195.858238 
L 212.855868 -195.523447 
L 213.146199 -195.188657 
L 213.366429 -194.853867 
L 213.514417 -194.519077 
L 213.58874 -194.184286 
L 213.588721 -193.849496 
L 213.514438 -193.514706 
L 213.366725 -193.179916 
L 213.147162 -192.845126 
L 212.858044 -192.510335 
L 212.50235 -192.175545 
L 212.083691 -191.840755 
L 211.606255 -191.505965 
L 211.074738 -191.171174 
L 210.494276 -190.836384 
L 209.87036 -190.501594 
L 209.208763 -190.166804 
L 208.515448 -189.832014 
L 207.796491 -189.497223 
L 207.057995 -189.162433 
L 206.306018 -188.827643 
L 205.546492 -188.492853 
L 204.785162 -188.158062 
L 204.027525 -187.823272 
L 203.278775 -187.488482 
L 202.543765 -187.153692 
L 201.82697 -186.818902 
L 201.132463 -186.484111 
L 200.4639 -186.149321 
L 199.824512 -185.814531 
L 199.217109 -185.479741 
L 198.644088 -185.14495 
L 198.107447 -184.81016 
L 197.608809 -184.47537 
L 197.149448 -184.14058 
L 196.730318 -183.80579 
L 196.352085 -183.470999 
L 196.015163 -183.136209 
L 195.719746 -182.801419 
L 195.465841 -182.466629 
L 195.253302 -182.131838 
L 195.081859 -181.797048 
L 194.951144 -181.462258 
L 194.860714 -181.127468 
L 194.810071 -180.792678 
L 194.798676 -180.457887 
L 194.825959 -180.123097 
L 194.89133 -179.788307 
L 194.994175 -179.453517 
L 195.133857 -179.118727 
L 195.309712 -178.783936 
L 195.521038 -178.449146 
L 195.767086 -178.114356 
L 196.047045 -177.779566 
L 196.360029 -177.444775 
L 196.705057 -177.109985 
L 197.081044 -176.775195 
L 197.486776 -176.440405 
L 197.920903 -176.105615 
L 198.381919 -175.770824 
L 198.868153 -175.436034 
L 199.377759 -175.101244 
L 199.908707 -174.766454 
L 200.458782 -174.431663 
L 201.025576 -174.096873 
L 201.6065 -173.762083 
L 202.198781 -173.427293 
L 202.799475 -173.092503 
L 203.405478 -172.757712 
L 204.013544 -172.422922 
L 204.620302 -172.088132 
L 205.222276 -171.753342 
L 205.815914 -171.418551 
L 206.397611 -171.083761 
L 206.963738 -170.748971 
L 207.510674 -170.414181 
L 208.034839 -170.079391 
L 208.532722 -169.7446 
L 209.000916 -169.40981 
L 209.436154 -169.07502 
L 209.835335 -168.74023 
L 210.195561 -168.405439 
L 210.514165 -168.070649 
L 210.788741 -167.735859 
L 211.017166 -167.401069 
L 211.197628 -167.066279 
L 211.328649 -166.731488 
L 211.409097 -166.396698 
L 211.438202 -166.061908 
L 211.415571 -165.727118 
L 211.341191 -165.392327 
L 211.215431 -165.057537 
L 211.039041 -164.722747 
L 210.813149 -164.387957 
L 210.539245 -164.053167 
L 210.219172 -163.718376 
L 209.855104 -163.383586 
L 209.449524 -163.048796 
L 209.005198 -162.714006 
z
" style="stroke: #323232; stroke-opacity: 0.4; stroke-width: 1.25"/>
    </defs>
    <g clip-path="url(#p42e478f9d1)">
     <use xlink:href="#m693e161b3c" x="0" y="288" style="fill: #159152; fill-opacity: 0.4; stroke: #323232; stroke-opacity: 0.4; stroke-width: 1.25"/>
    </g>
   </g>
   <g id="FillBetweenPolyCollection_3">
    <defs>
     <path id="m37888a1b33" d="M 250.286365 -152.876431 
L 243.850336 -152.876431 
L 243.423329 -153.33249 
L 242.952894 -153.78855 
L 242.437629 -154.244609 
L 241.876696 -154.700668 
L 241.269922 -155.156728 
L 240.617886 -155.612787 
L 239.922008 -156.068846 
L 239.184606 -156.524905 
L 238.408946 -156.980965 
L 237.599268 -157.437024 
L 236.760786 -157.893083 
L 235.899659 -158.349143 
L 235.02294 -158.805202 
L 234.13849 -159.261261 
L 233.254874 -159.717321 
L 232.381223 -160.17338 
L 231.52708 -160.629439 
L 230.702225 -161.085498 
L 229.916491 -161.541558 
L 229.179562 -161.997617 
L 228.50078 -162.453676 
L 227.888944 -162.909736 
L 227.352122 -163.365795 
L 226.897478 -163.821854 
L 226.531116 -164.277914 
L 226.257942 -164.733973 
L 226.081561 -165.190032 
L 226.004197 -165.646091 
L 226.026644 -166.102151 
L 226.148256 -166.55821 
L 226.366958 -167.014269 
L 226.679298 -167.470329 
L 227.080521 -167.926388 
L 227.564678 -168.382447 
L 228.12475 -168.838507 
L 228.752801 -169.294566 
L 229.440138 -169.750625 
L 230.177489 -170.206685 
L 230.955182 -170.662744 
L 231.763334 -171.118803 
L 232.592024 -171.574862 
L 233.43147 -172.030922 
L 234.272185 -172.486981 
L 235.105122 -172.94304 
L 235.921795 -173.3991 
L 236.714378 -173.855159 
L 237.475781 -174.311218 
L 238.199701 -174.767278 
L 238.880638 -175.223337 
L 239.513897 -175.679396 
L 240.09556 -176.135455 
L 240.62243 -176.591515 
L 241.091969 -177.047574 
L 241.50221 -177.503633 
L 241.851664 -177.959693 
L 242.13922 -178.415752 
L 242.36405 -178.871811 
L 242.525507 -179.327871 
L 242.623051 -179.78393 
L 242.656178 -180.239989 
L 242.624375 -180.696048 
L 242.5271 -181.152108 
L 242.363786 -181.608167 
L 242.133873 -182.064226 
L 241.836877 -182.520286 
L 241.472471 -182.976345 
L 241.040606 -183.432404 
L 240.541638 -183.888464 
L 239.976481 -184.344523 
L 239.346759 -184.800582 
L 238.654958 -185.256641 
L 237.904572 -185.712701 
L 237.100227 -186.16876 
L 236.247778 -186.624819 
L 235.35437 -187.080879 
L 234.428458 -187.536938 
L 233.479776 -187.992997 
L 232.519259 -188.449057 
L 231.558904 -188.905116 
L 230.611585 -189.361175 
L 229.690817 -189.817234 
L 228.810478 -190.273294 
L 227.984494 -190.729353 
L 227.226509 -191.185412 
L 226.549528 -191.641472 
L 225.965578 -192.097531 
L 225.485374 -192.55359 
L 225.118013 -193.00965 
L 224.870715 -193.465709 
L 224.74861 -193.921768 
L 224.754587 -194.377827 
L 224.889208 -194.833887 
L 225.150695 -195.289946 
L 225.534984 -195.746005 
L 226.035852 -196.202065 
L 226.645098 -196.658124 
L 227.352789 -197.114183 
L 228.147544 -197.570243 
L 229.016853 -198.026302 
L 265.119849 -198.026302 
L 265.119849 -198.026302 
L 265.989157 -197.570243 
L 266.783912 -197.114183 
L 267.491603 -196.658124 
L 268.100849 -196.202065 
L 268.601717 -195.746005 
L 268.986006 -195.289946 
L 269.247493 -194.833887 
L 269.382114 -194.377827 
L 269.388091 -193.921768 
L 269.265986 -193.465709 
L 269.018689 -193.00965 
L 268.651328 -192.55359 
L 268.171123 -192.097531 
L 267.587173 -191.641472 
L 266.910192 -191.185412 
L 266.152207 -190.729353 
L 265.326224 -190.273294 
L 264.445884 -189.817234 
L 263.525116 -189.361175 
L 262.577797 -188.905116 
L 261.617442 -188.449057 
L 260.656925 -187.992997 
L 259.708244 -187.536938 
L 258.782331 -187.080879 
L 257.888923 -186.624819 
L 257.036474 -186.16876 
L 256.232129 -185.712701 
L 255.481744 -185.256641 
L 254.789943 -184.800582 
L 254.16022 -184.344523 
L 253.595063 -183.888464 
L 253.096096 -183.432404 
L 252.66423 -182.976345 
L 252.299824 -182.520286 
L 252.002828 -182.064226 
L 251.772916 -181.608167 
L 251.609601 -181.152108 
L 251.512326 -180.696048 
L 251.480523 -180.239989 
L 251.51365 -179.78393 
L 251.611194 -179.327871 
L 251.772651 -178.871811 
L 251.997481 -178.415752 
L 252.285038 -177.959693 
L 252.634492 -177.503633 
L 253.044732 -177.047574 
L 253.514271 -176.591515 
L 254.041141 -176.135455 
L 254.622804 -175.679396 
L 255.256064 -175.223337 
L 255.937001 -174.767278 
L 256.66092 -174.311218 
L 257.422324 -173.855159 
L 258.214907 -173.3991 
L 259.031579 -172.94304 
L 259.864516 -172.486981 
L 260.705232 -172.030922 
L 261.544677 -171.574862 
L 262.373367 -171.118803 
L 263.181519 -170.662744 
L 263.959212 -170.206685 
L 264.696563 -169.750625 
L 265.3839 -169.294566 
L 266.011951 -168.838507 
L 266.572024 -168.382447 
L 267.056181 -167.926388 
L 267.457404 -167.470329 
L 267.769743 -167.014269 
L 267.988445 -166.55821 
L 268.110057 -166.102151 
L 268.132505 -165.646091 
L 268.05514 -165.190032 
L 267.878759 -164.733973 
L 267.605585 -164.277914 
L 267.239223 -163.821854 
L 266.784579 -163.365795 
L 266.247758 -162.909736 
L 265.635921 -162.453676 
L 264.957139 -161.997617 
L 264.220211 -161.541558 
L 263.434476 -161.085498 
L 262.609622 -160.629439 
L 261.755478 -160.17338 
L 260.881827 -159.717321 
L 259.998211 -159.261261 
L 259.113761 -158.805202 
L 258.237042 -158.349143 
L 257.375915 -157.893083 
L 256.537433 -157.437024 
L 255.727756 -156.980965 
L 254.952096 -156.524905 
L 254.214693 -156.068846 
L 253.518815 -155.612787 
L 252.86678 -155.156728 
L 252.260005 -154.700668 
L 251.699072 -154.244609 
L 251.183807 -153.78855 
L 250.713372 -153.33249 
L 250.286365 -152.876431 
z
" style="stroke: #323232; stroke-opacity: 0.4; stroke-width: 1.25"/>
    </defs>
    <g clip-path="url(#p42e478f9d1)">
     <use xlink:href="#m37888a1b33" x="0" y="288" style="fill: #c0c0c0; fill-opacity: 0.4; stroke: #323232; stroke-opacity: 0.4; stroke-width: 1.25"/>
    </g>
   </g>
   <g id="matplotlib.axis_1">
    <g id="xtick_1">
     <g id="line2d_1">
      <defs>
       <path id="m26b382ae21" d="M 0 0 
L 0 3.5 
" style="stroke: #000000; stroke-width: 0.8"/>
      </defs>
      <g>
       <use xlink:href="#m26b382ae21" x="135.469649" y="192.550081" style="stroke: #000000; stroke-width: 0.8"/>
      </g>
     </g>
     <g id="text_1">
      <!-- MTL-sensory -->
      <g transform="translate(89.006549 267.913467) rotate(-30) scale(0.18 -0.18)">
       <defs>
        <path id="DejaVuSans-4d" d="M 628 4666 
L 1569 4666 
L 2759 1491 
L 3956 4666 
L 4897 4666 
L 4897 0 
L 4281 0 
L 4281 4097 
L 3078 897 
L 2444 897 
L 1241 4097 
L 1241 0 
L 628 0 
L 628 4666 
z
" transform="scale(0.015625)"/>
        <path id="DejaVuSans-54" d="M -19 4666 
L 3928 4666 
L 3928 4134 
L 2272 4134 
L 2272 0 
L 1638 0 
L 1638 4134 
L -19 4134 
L -19 4666 
z
" transform="scale(0.015625)"/>
        <path id="DejaVuSans-4c" d="M 628 4666 
L 1259 4666 
L 1259 531 
L 3531 531 
L 3531 0 
L 628 0 
L 628 4666 
z
" transform="scale(0.015625)"/>
        <path id="DejaVuSans-2d" d="M 313 2009 
L 1997 2009 
L 1997 1497 
L 313 1497 
L 313 2009 
z
" transform="scale(0.015625)"/>
        <path id="DejaVuSans-73" d="M 2834 3397 
L 2834 2853 
Q 2591 2978 2328 3040 
Q 2066 3103 1784 3103 
Q 1356 3103 1142 2972 
Q 928 2841 928 2578 
Q 928 2378 1081 2264 
Q 1234 2150 1697 2047 
L 1894 2003 
Q 2506 1872 2764 1633 
Q 3022 1394 3022 966 
Q 3022 478 2636 193 
Q 2250 -91 1575 -91 
Q 1294 -91 989 -36 
Q 684 19 347 128 
L 347 722 
Q 666 556 975 473 
Q 1284 391 1588 391 
Q 1994 391 2212 530 
Q 2431 669 2431 922 
Q 2431 1156 2273 1281 
Q 2116 1406 1581 1522 
L 1381 1569 
Q 847 1681 609 1914 
Q 372 2147 372 2553 
Q 372 3047 722 3315 
Q 1072 3584 1716 3584 
Q 2034 3584 2315 3537 
Q 2597 3491 2834 3397 
z
" transform="scale(0.015625)"/>
        <path id="DejaVuSans-65" d="M 3597 1894 
L 3597 1613 
L 953 1613 
Q 991 1019 1311 708 
Q 1631 397 2203 397 
Q 2534 397 2845 478 
Q 3156 559 3463 722 
L 3463 178 
Q 3153 47 2828 -22 
Q 2503 -91 2169 -91 
Q 1331 -91 842 396 
Q 353 884 353 1716 
Q 353 2575 817 3079 
Q 1281 3584 2069 3584 
Q 2775 3584 3186 3129 
Q 3597 2675 3597 1894 
z
M 3022 2063 
Q 3016 2534 2758 2815 
Q 2500 3097 2075 3097 
Q 1594 3097 1305 2825 
Q 1016 2553 972 2059 
L 3022 2063 
z
" transform="scale(0.015625)"/>
        <path id="DejaVuSans-6e" d="M 3513 2113 
L 3513 0 
L 2938 0 
L 2938 2094 
Q 2938 2591 2744 2837 
Q 2550 3084 2163 3084 
Q 1697 3084 1428 2787 
Q 1159 2491 1159 1978 
L 1159 0 
L 581 0 
L 581 3500 
L 1159 3500 
L 1159 2956 
Q 1366 3272 1645 3428 
Q 1925 3584 2291 3584 
Q 2894 3584 3203 3211 
Q 3513 2838 3513 2113 
z
" transform="scale(0.015625)"/>
        <path id="DejaVuSans-6f" d="M 1959 3097 
Q 1497 3097 1228 2736 
Q 959 2375 959 1747 
Q 959 1119 1226 758 
Q 1494 397 1959 397 
Q 2419 397 2687 759 
Q 2956 1122 2956 1747 
Q 2956 2369 2687 2733 
Q 2419 3097 1959 3097 
z
M 1959 3584 
Q 2709 3584 3137 3096 
Q 3566 2609 3566 1747 
Q 3566 888 3137 398 
Q 2709 -91 1959 -91 
Q 1206 -91 779 398 
Q 353 888 353 1747 
Q 353 2609 779 3096 
Q 1206 3584 1959 3584 
z
" transform="scale(0.015625)"/>
        <path id="DejaVuSans-72" d="M 2631 2963 
Q 2534 3019 2420 3045 
Q 2306 3072 2169 3072 
Q 1681 3072 1420 2755 
Q 1159 2438 1159 1844 
L 1159 0 
L 581 0 
L 581 3500 
L 1159 3500 
L 1159 2956 
Q 1341 3275 1631 3429 
Q 1922 3584 2338 3584 
Q 2397 3584 2469 3576 
Q 2541 3569 2628 3553 
L 2631 2963 
z
" transform="scale(0.015625)"/>
        <path id="DejaVuSans-79" d="M 2059 -325 
Q 1816 -950 1584 -1140 
Q 1353 -1331 966 -1331 
L 506 -1331 
L 506 -850 
L 844 -850 
Q 1081 -850 1212 -737 
Q 1344 -625 1503 -206 
L 1606 56 
L 191 3500 
L 800 3500 
L 1894 763 
L 2988 3500 
L 3597 3500 
L 2059 -325 
z
" transform="scale(0.015625)"/>
       </defs>
       <use xlink:href="#DejaVuSans-4d"/>
       <use xlink:href="#DejaVuSans-54" transform="translate(86.279297 0)"/>
       <use xlink:href="#DejaVuSans-4c" transform="translate(147.363281 0)"/>
       <use xlink:href="#DejaVuSans-2d" transform="translate(201.326172 0)"/>
       <use xlink:href="#DejaVuSans-73" transform="translate(237.410156 0)"/>
       <use xlink:href="#DejaVuSans-65" transform="translate(289.509766 0)"/>
       <use xlink:href="#DejaVuSans-6e" transform="translate(351.033203 0)"/>
       <use xlink:href="#DejaVuSans-73" transform="translate(414.412109 0)"/>
       <use xlink:href="#DejaVuSans-6f" transform="translate(466.511719 0)"/>
       <use xlink:href="#DejaVuSans-72" transform="translate(527.693359 0)"/>
       <use xlink:href="#DejaVuSans-79" transform="translate(568.806641 0)"/>
      </g>
     </g>
    </g>
    <g id="xtick_2">
     <g id="line2d_2">
      <g>
       <use xlink:href="#m26b382ae21" x="191.269" y="192.550081" style="stroke: #000000; stroke-width: 0.8"/>
      </g>
     </g>
     <g id="text_2">
      <!-- MTL-semantic -->
      <g transform="translate(139.577677 273.950498) rotate(-30) scale(0.18 -0.18)">
       <defs>
        <path id="DejaVuSans-6d" d="M 3328 2828 
Q 3544 3216 3844 3400 
Q 4144 3584 4550 3584 
Q 5097 3584 5394 3201 
Q 5691 2819 5691 2113 
L 5691 0 
L 5113 0 
L 5113 2094 
Q 5113 2597 4934 2840 
Q 4756 3084 4391 3084 
Q 3944 3084 3684 2787 
Q 3425 2491 3425 1978 
L 3425 0 
L 2847 0 
L 2847 2094 
Q 2847 2600 2669 2842 
Q 2491 3084 2119 3084 
Q 1678 3084 1418 2786 
Q 1159 2488 1159 1978 
L 1159 0 
L 581 0 
L 581 3500 
L 1159 3500 
L 1159 2956 
Q 1356 3278 1631 3431 
Q 1906 3584 2284 3584 
Q 2666 3584 2933 3390 
Q 3200 3197 3328 2828 
z
" transform="scale(0.015625)"/>
        <path id="DejaVuSans-61" d="M 2194 1759 
Q 1497 1759 1228 1600 
Q 959 1441 959 1056 
Q 959 750 1161 570 
Q 1363 391 1709 391 
Q 2188 391 2477 730 
Q 2766 1069 2766 1631 
L 2766 1759 
L 2194 1759 
z
M 3341 1997 
L 3341 0 
L 2766 0 
L 2766 531 
Q 2569 213 2275 61 
Q 1981 -91 1556 -91 
Q 1019 -91 701 211 
Q 384 513 384 1019 
Q 384 1609 779 1909 
Q 1175 2209 1959 2209 
L 2766 2209 
L 2766 2266 
Q 2766 2663 2505 2880 
Q 2244 3097 1772 3097 
Q 1472 3097 1187 3025 
Q 903 2953 641 2809 
L 641 3341 
Q 956 3463 1253 3523 
Q 1550 3584 1831 3584 
Q 2591 3584 2966 3190 
Q 3341 2797 3341 1997 
z
" transform="scale(0.015625)"/>
        <path id="DejaVuSans-74" d="M 1172 4494 
L 1172 3500 
L 2356 3500 
L 2356 3053 
L 1172 3053 
L 1172 1153 
Q 1172 725 1289 603 
Q 1406 481 1766 481 
L 2356 481 
L 2356 0 
L 1766 0 
Q 1100 0 847 248 
Q 594 497 594 1153 
L 594 3053 
L 172 3053 
L 172 3500 
L 594 3500 
L 594 4494 
L 1172 4494 
z
" transform="scale(0.015625)"/>
        <path id="DejaVuSans-69" d="M 603 3500 
L 1178 3500 
L 1178 0 
L 603 0 
L 603 3500 
z
M 603 4863 
L 1178 4863 
L 1178 4134 
L 603 4134 
L 603 4863 
z
" transform="scale(0.015625)"/>
        <path id="DejaVuSans-63" d="M 3122 3366 
L 3122 2828 
Q 2878 2963 2633 3030 
Q 2388 3097 2138 3097 
Q 1578 3097 1268 2742 
Q 959 2388 959 1747 
Q 959 1106 1268 751 
Q 1578 397 2138 397 
Q 2388 397 2633 464 
Q 2878 531 3122 666 
L 3122 134 
Q 2881 22 2623 -34 
Q 2366 -91 2075 -91 
Q 1284 -91 818 406 
Q 353 903 353 1747 
Q 353 2603 823 3093 
Q 1294 3584 2113 3584 
Q 2378 3584 2631 3529 
Q 2884 3475 3122 3366 
z
" transform="scale(0.015625)"/>
       </defs>
       <use xlink:href="#DejaVuSans-4d"/>
       <use xlink:href="#DejaVuSans-54" transform="translate(86.279297 0)"/>
       <use xlink:href="#DejaVuSans-4c" transform="translate(147.363281 0)"/>
       <use xlink:href="#DejaVuSans-2d" transform="translate(201.326172 0)"/>
       <use xlink:href="#DejaVuSans-73" transform="translate(237.410156 0)"/>
       <use xlink:href="#DejaVuSans-65" transform="translate(289.509766 0)"/>
       <use xlink:href="#DejaVuSans-6d" transform="translate(351.033203 0)"/>
       <use xlink:href="#DejaVuSans-61" transform="translate(448.445312 0)"/>
       <use xlink:href="#DejaVuSans-6e" transform="translate(509.724609 0)"/>
       <use xlink:href="#DejaVuSans-74" transform="translate(573.103516 0)"/>
       <use xlink:href="#DejaVuSans-69" transform="translate(612.3125 0)"/>
       <use xlink:href="#DejaVuSans-63" transform="translate(640.095703 0)"/>
      </g>
     </g>
    </g>
    <g id="xtick_3">
     <g id="line2d_3">
      <g>
       <use xlink:href="#m26b382ae21" x="247.068351" y="192.550081" style="stroke: #000000; stroke-width: 0.8"/>
      </g>
     </g>
     <g id="text_3">
      <!-- labels -->
      <g transform="translate(226.64041 237.850654) rotate(-30) scale(0.18 -0.18)">
       <defs>
        <path id="DejaVuSans-6c" d="M 603 4863 
L 1178 4863 
L 1178 0 
L 603 0 
L 603 4863 
z
" transform="scale(0.015625)"/>
        <path id="DejaVuSans-62" d="M 3116 1747 
Q 3116 2381 2855 2742 
Q 2594 3103 2138 3103 
Q 1681 3103 1420 2742 
Q 1159 2381 1159 1747 
Q 1159 1113 1420 752 
Q 1681 391 2138 391 
Q 2594 391 2855 752 
Q 3116 1113 3116 1747 
z
M 1159 2969 
Q 1341 3281 1617 3432 
Q 1894 3584 2278 3584 
Q 2916 3584 3314 3078 
Q 3713 2572 3713 1747 
Q 3713 922 3314 415 
Q 2916 -91 2278 -91 
Q 1894 -91 1617 61 
Q 1341 213 1159 525 
L 1159 0 
L 581 0 
L 581 4863 
L 1159 4863 
L 1159 2969 
z
" transform="scale(0.015625)"/>
       </defs>
       <use xlink:href="#DejaVuSans-6c"/>
       <use xlink:href="#DejaVuSans-61" transform="translate(27.783203 0)"/>
       <use xlink:href="#DejaVuSans-62" transform="translate(89.0625 0)"/>
       <use xlink:href="#DejaVuSans-65" transform="translate(152.539062 0)"/>
       <use xlink:href="#DejaVuSans-6c" transform="translate(214.0625 0)"/>
       <use xlink:href="#DejaVuSans-73" transform="translate(241.845703 0)"/>
      </g>
     </g>
    </g>
   </g>
   <g id="matplotlib.axis_2">
    <g id="ytick_1">
     <g id="line2d_4">
      <defs>
       <path id="m07dd1f2e83" d="M 0 0 
L -3.5 0 
" style="stroke: #000000; stroke-width: 0.8"/>
      </defs>
      <g>
       <use xlink:href="#m07dd1f2e83" x="105.338" y="192.550081" style="stroke: #000000; stroke-width: 0.8"/>
      </g>
     </g>
     <g id="text_4">
      <!-- 0.00 -->
      <g transform="translate(58.259875 199.388675) scale(0.18 -0.18)">
       <defs>
        <path id="DejaVuSans-30" d="M 2034 4250 
Q 1547 4250 1301 3770 
Q 1056 3291 1056 2328 
Q 1056 1369 1301 889 
Q 1547 409 2034 409 
Q 2525 409 2770 889 
Q 3016 1369 3016 2328 
Q 3016 3291 2770 3770 
Q 2525 4250 2034 4250 
z
M 2034 4750 
Q 2819 4750 3233 4129 
Q 3647 3509 3647 2328 
Q 3647 1150 3233 529 
Q 2819 -91 2034 -91 
Q 1250 -91 836 529 
Q 422 1150 422 2328 
Q 422 3509 836 4129 
Q 1250 4750 2034 4750 
z
" transform="scale(0.015625)"/>
        <path id="DejaVuSans-2e" d="M 684 794 
L 1344 794 
L 1344 0 
L 684 0 
L 684 794 
z
" transform="scale(0.015625)"/>
       </defs>
       <use xlink:href="#DejaVuSans-30"/>
       <use xlink:href="#DejaVuSans-2e" transform="translate(63.623047 0)"/>
       <use xlink:href="#DejaVuSans-30" transform="translate(95.410156 0)"/>
       <use xlink:href="#DejaVuSans-30" transform="translate(159.033203 0)"/>
      </g>
     </g>
    </g>
    <g id="ytick_2">
     <g id="line2d_5">
      <g>
       <use xlink:href="#m07dd1f2e83" x="105.338" y="165.584824" style="stroke: #000000; stroke-width: 0.8"/>
      </g>
     </g>
     <g id="text_5">
      <!-- 0.25 -->
      <g transform="translate(58.259875 172.423417) scale(0.18 -0.18)">
       <defs>
        <path id="DejaVuSans-32" d="M 1228 531 
L 3431 531 
L 3431 0 
L 469 0 
L 469 531 
Q 828 903 1448 1529 
Q 2069 2156 2228 2338 
Q 2531 2678 2651 2914 
Q 2772 3150 2772 3378 
Q 2772 3750 2511 3984 
Q 2250 4219 1831 4219 
Q 1534 4219 1204 4116 
Q 875 4013 500 3803 
L 500 4441 
Q 881 4594 1212 4672 
Q 1544 4750 1819 4750 
Q 2544 4750 2975 4387 
Q 3406 4025 3406 3419 
Q 3406 3131 3298 2873 
Q 3191 2616 2906 2266 
Q 2828 2175 2409 1742 
Q 1991 1309 1228 531 
z
" transform="scale(0.015625)"/>
        <path id="DejaVuSans-35" d="M 691 4666 
L 3169 4666 
L 3169 4134 
L 1269 4134 
L 1269 2991 
Q 1406 3038 1543 3061 
Q 1681 3084 1819 3084 
Q 2600 3084 3056 2656 
Q 3513 2228 3513 1497 
Q 3513 744 3044 326 
Q 2575 -91 1722 -91 
Q 1428 -91 1123 -41 
Q 819 9 494 109 
L 494 744 
Q 775 591 1075 516 
Q 1375 441 1709 441 
Q 2250 441 2565 725 
Q 2881 1009 2881 1497 
Q 2881 1984 2565 2268 
Q 2250 2553 1709 2553 
Q 1456 2553 1204 2497 
Q 953 2441 691 2322 
L 691 4666 
z
" transform="scale(0.015625)"/>
       </defs>
       <use xlink:href="#DejaVuSans-30"/>
       <use xlink:href="#DejaVuSans-2e" transform="translate(63.623047 0)"/>
       <use xlink:href="#DejaVuSans-32" transform="translate(95.410156 0)"/>
       <use xlink:href="#DejaVuSans-35" transform="translate(159.033203 0)"/>
      </g>
     </g>
    </g>
    <g id="ytick_3">
     <g id="line2d_6">
      <g>
       <use xlink:href="#m07dd1f2e83" x="105.338" y="138.619566" style="stroke: #000000; stroke-width: 0.8"/>
      </g>
     </g>
     <g id="text_6">
      <!-- 0.50 -->
      <g transform="translate(58.259875 145.45816) scale(0.18 -0.18)">
       <use xlink:href="#DejaVuSans-30"/>
       <use xlink:href="#DejaVuSans-2e" transform="translate(63.623047 0)"/>
       <use xlink:href="#DejaVuSans-35" transform="translate(95.410156 0)"/>
       <use xlink:href="#DejaVuSans-30" transform="translate(159.033203 0)"/>
      </g>
     </g>
    </g>
    <g id="ytick_4">
     <g id="line2d_7">
      <g>
       <use xlink:href="#m07dd1f2e83" x="105.338" y="111.654309" style="stroke: #000000; stroke-width: 0.8"/>
      </g>
     </g>
     <g id="text_7">
      <!-- 0.75 -->
      <g transform="translate(58.259875 118.492903) scale(0.18 -0.18)">
       <defs>
        <path id="DejaVuSans-37" d="M 525 4666 
L 3525 4666 
L 3525 4397 
L 1831 0 
L 1172 0 
L 2766 4134 
L 525 4134 
L 525 4666 
z
" transform="scale(0.015625)"/>
       </defs>
       <use xlink:href="#DejaVuSans-30"/>
       <use xlink:href="#DejaVuSans-2e" transform="translate(63.623047 0)"/>
       <use xlink:href="#DejaVuSans-37" transform="translate(95.410156 0)"/>
       <use xlink:href="#DejaVuSans-35" transform="translate(159.033203 0)"/>
      </g>
     </g>
    </g>
    <g id="ytick_5">
     <g id="line2d_8">
      <g>
       <use xlink:href="#m07dd1f2e83" x="105.338" y="84.689051" style="stroke: #000000; stroke-width: 0.8"/>
      </g>
     </g>
     <g id="text_8">
      <!-- 1.00 -->
      <g transform="translate(58.259875 91.527645) scale(0.18 -0.18)">
       <defs>
        <path id="DejaVuSans-31" d="M 794 531 
L 1825 531 
L 1825 4091 
L 703 3866 
L 703 4441 
L 1819 4666 
L 2450 4666 
L 2450 531 
L 3481 531 
L 3481 0 
L 794 0 
L 794 531 
z
" transform="scale(0.015625)"/>
       </defs>
       <use xlink:href="#DejaVuSans-31"/>
       <use xlink:href="#DejaVuSans-2e" transform="translate(63.623047 0)"/>
       <use xlink:href="#DejaVuSans-30" transform="translate(95.410156 0)"/>
       <use xlink:href="#DejaVuSans-30" transform="translate(159.033203 0)"/>
      </g>
     </g>
    </g>
    <g id="text_9">
     <!-- Decoder Accuracy -->
     <g transform="translate(27.704875 226.840228) rotate(-90) scale(0.2 -0.2)">
      <defs>
       <path id="DejaVuSans-44" d="M 1259 4147 
L 1259 519 
L 2022 519 
Q 2988 519 3436 956 
Q 3884 1394 3884 2338 
Q 3884 3275 3436 3711 
Q 2988 4147 2022 4147 
L 1259 4147 
z
M 628 4666 
L 1925 4666 
Q 3281 4666 3915 4102 
Q 4550 3538 4550 2338 
Q 4550 1131 3912 565 
Q 3275 0 1925 0 
L 628 0 
L 628 4666 
z
" transform="scale(0.015625)"/>
       <path id="DejaVuSans-64" d="M 2906 2969 
L 2906 4863 
L 3481 4863 
L 3481 0 
L 2906 0 
L 2906 525 
Q 2725 213 2448 61 
Q 2172 -91 1784 -91 
Q 1150 -91 751 415 
Q 353 922 353 1747 
Q 353 2572 751 3078 
Q 1150 3584 1784 3584 
Q 2172 3584 2448 3432 
Q 2725 3281 2906 2969 
z
M 947 1747 
Q 947 1113 1208 752 
Q 1469 391 1925 391 
Q 2381 391 2643 752 
Q 2906 1113 2906 1747 
Q 2906 2381 2643 2742 
Q 2381 3103 1925 3103 
Q 1469 3103 1208 2742 
Q 947 2381 947 1747 
z
" transform="scale(0.015625)"/>
       <path id="DejaVuSans-20" transform="scale(0.015625)"/>
       <path id="DejaVuSans-41" d="M 2188 4044 
L 1331 1722 
L 3047 1722 
L 2188 4044 
z
M 1831 4666 
L 2547 4666 
L 4325 0 
L 3669 0 
L 3244 1197 
L 1141 1197 
L 716 0 
L 50 0 
L 1831 4666 
z
" transform="scale(0.015625)"/>
       <path id="DejaVuSans-75" d="M 544 1381 
L 544 3500 
L 1119 3500 
L 1119 1403 
Q 1119 906 1312 657 
Q 1506 409 1894 409 
Q 2359 409 2629 706 
Q 2900 1003 2900 1516 
L 2900 3500 
L 3475 3500 
L 3475 0 
L 2900 0 
L 2900 538 
Q 2691 219 2414 64 
Q 2138 -91 1772 -91 
Q 1169 -91 856 284 
Q 544 659 544 1381 
z
M 1991 3584 
L 1991 3584 
z
" transform="scale(0.015625)"/>
      </defs>
      <use xlink:href="#DejaVuSans-44"/>
      <use xlink:href="#DejaVuSans-65" transform="translate(77.001953 0)"/>
      <use xlink:href="#DejaVuSans-63" transform="translate(138.525391 0)"/>
      <use xlink:href="#DejaVuSans-6f" transform="translate(193.505859 0)"/>
      <use xlink:href="#DejaVuSans-64" transform="translate(254.6875 0)"/>
      <use xlink:href="#DejaVuSans-65" transform="translate(318.164062 0)"/>
      <use xlink:href="#DejaVuSans-72" transform="translate(379.6875 0)"/>
      <use xlink:href="#DejaVuSans-20" transform="translate(420.800781 0)"/>
      <use xlink:href="#DejaVuSans-41" transform="translate(452.587891 0)"/>
      <use xlink:href="#DejaVuSans-63" transform="translate(519.246094 0)"/>
      <use xlink:href="#DejaVuSans-63" transform="translate(574.226562 0)"/>
      <use xlink:href="#DejaVuSans-75" transform="translate(629.207031 0)"/>
      <use xlink:href="#DejaVuSans-72" transform="translate(692.585938 0)"/>
      <use xlink:href="#DejaVuSans-61" transform="translate(733.699219 0)"/>
      <use xlink:href="#DejaVuSans-63" transform="translate(794.978516 0)"/>
      <use xlink:href="#DejaVuSans-79" transform="translate(849.958984 0)"/>
     </g>
     <!-- (1 epoch) -->
     <g transform="translate(50.1005 183.723041) rotate(-90) scale(0.2 -0.2)">
      <defs>
       <path id="DejaVuSans-28" d="M 1984 4856 
Q 1566 4138 1362 3434 
Q 1159 2731 1159 2009 
Q 1159 1288 1364 580 
Q 1569 -128 1984 -844 
L 1484 -844 
Q 1016 -109 783 600 
Q 550 1309 550 2009 
Q 550 2706 781 3412 
Q 1013 4119 1484 4856 
L 1984 4856 
z
" transform="scale(0.015625)"/>
       <path id="DejaVuSans-70" d="M 1159 525 
L 1159 -1331 
L 581 -1331 
L 581 3500 
L 1159 3500 
L 1159 2969 
Q 1341 3281 1617 3432 
Q 1894 3584 2278 3584 
Q 2916 3584 3314 3078 
Q 3713 2572 3713 1747 
Q 3713 922 3314 415 
Q 2916 -91 2278 -91 
Q 1894 -91 1617 61 
Q 1341 213 1159 525 
z
M 3116 1747 
Q 3116 2381 2855 2742 
Q 2594 3103 2138 3103 
Q 1681 3103 1420 2742 
Q 1159 2381 1159 1747 
Q 1159 1113 1420 752 
Q 1681 391 2138 391 
Q 2594 391 2855 752 
Q 3116 1113 3116 1747 
z
" transform="scale(0.015625)"/>
       <path id="DejaVuSans-68" d="M 3513 2113 
L 3513 0 
L 2938 0 
L 2938 2094 
Q 2938 2591 2744 2837 
Q 2550 3084 2163 3084 
Q 1697 3084 1428 2787 
Q 1159 2491 1159 1978 
L 1159 0 
L 581 0 
L 581 4863 
L 1159 4863 
L 1159 2956 
Q 1366 3272 1645 3428 
Q 1925 3584 2291 3584 
Q 2894 3584 3203 3211 
Q 3513 2838 3513 2113 
z
" transform="scale(0.015625)"/>
       <path id="DejaVuSans-29" d="M 513 4856 
L 1013 4856 
Q 1481 4119 1714 3412 
Q 1947 2706 1947 2009 
Q 1947 1309 1714 600 
Q 1481 -109 1013 -844 
L 513 -844 
Q 928 -128 1133 580 
Q 1338 1288 1338 2009 
Q 1338 2731 1133 3434 
Q 928 4138 513 4856 
z
" transform="scale(0.015625)"/>
      </defs>
      <use xlink:href="#DejaVuSans-28"/>
      <use xlink:href="#DejaVuSans-31" transform="translate(39.013672 0)"/>
      <use xlink:href="#DejaVuSans-20" transform="translate(102.636719 0)"/>
      <use xlink:href="#DejaVuSans-65" transform="translate(134.423828 0)"/>
      <use xlink:href="#DejaVuSans-70" transform="translate(195.947266 0)"/>
      <use xlink:href="#DejaVuSans-6f" transform="translate(259.423828 0)"/>
      <use xlink:href="#DejaVuSans-63" transform="translate(320.605469 0)"/>
      <use xlink:href="#DejaVuSans-68" transform="translate(375.585938 0)"/>
      <use xlink:href="#DejaVuSans-29" transform="translate(438.964844 0)"/>
     </g>
    </g>
   </g>
   <g id="line2d_9">
    <path d="M 135.469649 97.960898 
L 135.469649 85.017574 
L 247.068351 85.017574 
L 247.068351 97.960898 
" style="fill: none; stroke: #000000; stroke-width: 2; stroke-linecap: square"/>
   </g>
   <g id="line2d_10">
    <path d="M 135.469649 69.917032 
L 135.469649 56.973708 
L 188.479032 56.973708 
L 188.479032 69.917032 
" style="fill: none; stroke: #000000; stroke-width: 2; stroke-linecap: square"/>
   </g>
   <g id="line2d_11">
    <path d="M 194.058968 69.917032 
L 194.058968 56.973708 
L 247.068351 56.973708 
L 247.068351 69.917032 
" style="fill: none; stroke: #000000; stroke-width: 2; stroke-linecap: square"/>
   </g>
   <g id="patch_3">
    <path d="M 105.338 192.550081 
L 105.338 79.296 
" style="fill: none; stroke: #000000; stroke-width: 0.8; stroke-linejoin: miter; stroke-linecap: square"/>
   </g>
   <g id="patch_4">
    <path d="M 105.338 192.550081 
L 277.2 192.550081 
" style="fill: none; stroke: #000000; stroke-width: 0.8; stroke-linejoin: miter; stroke-linecap: square"/>
   </g>
   <g id="PathCollection_1">
    <defs>
     <path id="ma07f8baaa3" d="M 0 1.5 
C 0.397805 1.5 0.77937 1.341951 1.06066 1.06066 
C 1.341951 0.77937 1.5 0.397805 1.5 0 
C 1.5 -0.397805 1.341951 -0.77937 1.06066 -1.06066 
C 0.77937 -1.341951 0.397805 -1.5 0 -1.5 
C -0.397805 -1.5 -0.77937 -1.341951 -1.06066 -1.06066 
C -1.341951 -0.77937 -1.5 -0.397805 -1.5 0 
C -1.5 0.397805 -1.341951 0.77937 -1.06066 1.06066 
C -0.77937 1.341951 -0.397805 1.5 0 1.5 
z
"/>
    </defs>
    <g clip-path="url(#p42e478f9d1)">
     <use xlink:href="#ma07f8baaa3" x="136.559154" y="139.7849" style="fill-opacity: 0.1"/>
     <use xlink:href="#ma07f8baaa3" x="140.27262" y="103.117569" style="fill-opacity: 0.1"/>
     <use xlink:href="#ma07f8baaa3" x="137.763301" y="135.340375" style="fill-opacity: 0.1"/>
     <use xlink:href="#ma07f8baaa3" x="136.47143" y="109.703057" style="fill-opacity: 0.1"/>
     <use xlink:href="#ma07f8baaa3" x="133.765644" y="144.256523" style="fill-opacity: 0.1"/>
     <use xlink:href="#ma07f8baaa3" x="138.725968" y="112.413132" style="fill-opacity: 0.1"/>
     <use xlink:href="#ma07f8baaa3" x="134.076612" y="134.446047" style="fill-opacity: 0.1"/>
     <use xlink:href="#ma07f8baaa3" x="144.213921" y="111.03099" style="fill-opacity: 0.1"/>
     <use xlink:href="#ma07f8baaa3" x="145.818482" y="138.917673" style="fill-opacity: 0.1"/>
     <use xlink:href="#ma07f8baaa3" x="132.868094" y="111.844016" style="fill-opacity: 0.1"/>
     <use xlink:href="#ma07f8baaa3" x="141.980876" y="124.066455" style="fill-opacity: 0.1"/>
     <use xlink:href="#ma07f8baaa3" x="136.114576" y="103.930589" style="fill-opacity: 0.1"/>
     <use xlink:href="#ma07f8baaa3" x="136.988386" y="139.757798" style="fill-opacity: 0.1"/>
     <use xlink:href="#ma07f8baaa3" x="144.968856" y="116.96606" style="fill-opacity: 0.1"/>
     <use xlink:href="#ma07f8baaa3" x="125.895286" y="137.996247" style="fill-opacity: 0.1"/>
     <use xlink:href="#ma07f8baaa3" x="126.254483" y="106.938778" style="fill-opacity: 0.1"/>
     <use xlink:href="#ma07f8baaa3" x="124.761049" y="143.524804" style="fill-opacity: 0.1"/>
     <use xlink:href="#ma07f8baaa3" x="142.893638" y="108.808729" style="fill-opacity: 0.1"/>
     <use xlink:href="#ma07f8baaa3" x="141.678036" y="143.904216" style="fill-opacity: 0.1"/>
     <use xlink:href="#ma07f8baaa3" x="143.728224" y="119.649031" style="fill-opacity: 0.1"/>
     <use xlink:href="#ma07f8baaa3" x="146.152286" y="147.833825" style="fill-opacity: 0.1"/>
     <use xlink:href="#ma07f8baaa3" x="142.146791" y="115.611022" style="fill-opacity: 0.1"/>
     <use xlink:href="#ma07f8baaa3" x="134.609879" y="130.218331" style="fill-opacity: 0.1"/>
     <use xlink:href="#ma07f8baaa3" x="141.730988" y="113.930773" style="fill-opacity: 0.1"/>
     <use xlink:href="#ma07f8baaa3" x="126.949634" y="131.139757" style="fill-opacity: 0.1"/>
     <use xlink:href="#ma07f8baaa3" x="138.59265" y="107.670497" style="fill-opacity: 0.1"/>
     <use xlink:href="#ma07f8baaa3" x="127.509387" y="141.546448" style="fill-opacity: 0.1"/>
     <use xlink:href="#ma07f8baaa3" x="145.394544" y="104.960421" style="fill-opacity: 0.1"/>
     <use xlink:href="#ma07f8baaa3" x="135.957298" y="145.096648" style="fill-opacity: 0.1"/>
     <use xlink:href="#ma07f8baaa3" x="133.564926" y="111.003892" style="fill-opacity: 0.1"/>
     <use xlink:href="#ma07f8baaa3" x="130.214592" y="129.053001" style="fill-opacity: 0.1"/>
     <use xlink:href="#ma07f8baaa3" x="141.590474" y="117.020257" style="fill-opacity: 0.1"/>
     <use xlink:href="#ma07f8baaa3" x="134.490936" y="124.879481" style="fill-opacity: 0.1"/>
     <use xlink:href="#ma07f8baaa3" x="136.997077" y="103.605384" style="fill-opacity: 0.1"/>
     <use xlink:href="#ma07f8baaa3" x="124.729163" y="137.643937" style="fill-opacity: 0.1"/>
     <use xlink:href="#ma07f8baaa3" x="138.095243" y="106.261256" style="fill-opacity: 0.1"/>
     <use xlink:href="#ma07f8baaa3" x="137.971597" y="134.120841" style="fill-opacity: 0.1"/>
     <use xlink:href="#ma07f8baaa3" x="138.079586" y="110.272173" style="fill-opacity: 0.1"/>
     <use xlink:href="#ma07f8baaa3" x="145.373991" y="137.156122" style="fill-opacity: 0.1"/>
     <use xlink:href="#ma07f8baaa3" x="139.527831" y="109.133941" style="fill-opacity: 0.1"/>
     <use xlink:href="#ma07f8baaa3" x="132.333902" y="141.194137" style="fill-opacity: 0.1"/>
     <use xlink:href="#ma07f8baaa3" x="134.064219" y="105.095926" style="fill-opacity: 0.1"/>
     <use xlink:href="#ma07f8baaa3" x="139.880726" y="143.253796" style="fill-opacity: 0.1"/>
     <use xlink:href="#ma07f8baaa3" x="125.653996" y="109.513349" style="fill-opacity: 0.1"/>
     <use xlink:href="#ma07f8baaa3" x="139.191839" y="141.221239" style="fill-opacity: 0.1"/>
     <use xlink:href="#ma07f8baaa3" x="139.278242" y="114.987703" style="fill-opacity: 0.1"/>
     <use xlink:href="#ma07f8baaa3" x="129.005463" y="126.586829" style="fill-opacity: 0.1"/>
     <use xlink:href="#ma07f8baaa3" x="127.187381" y="110.028262" style="fill-opacity: 0.1"/>
     <use xlink:href="#ma07f8baaa3" x="131.350058" y="133.605928" style="fill-opacity: 0.1"/>
     <use xlink:href="#ma07f8baaa3" x="132.427709" y="105.800546" style="fill-opacity: 0.1"/>
     <use xlink:href="#ma07f8baaa3" x="137.036423" y="138.348557" style="fill-opacity: 0.1"/>
     <use xlink:href="#ma07f8baaa3" x="134.099251" y="103.063366" style="fill-opacity: 0.1"/>
     <use xlink:href="#ma07f8baaa3" x="146.370027" y="137.183227" style="fill-opacity: 0.1"/>
     <use xlink:href="#ma07f8baaa3" x="126.587393" y="102.927862" style="fill-opacity: 0.1"/>
     <use xlink:href="#ma07f8baaa3" x="128.971854" y="135.069366" style="fill-opacity: 0.1"/>
     <use xlink:href="#ma07f8baaa3" x="127.910166" y="109.730155" style="fill-opacity: 0.1"/>
     <use xlink:href="#ma07f8baaa3" x="138.886987" y="148.565547" style="fill-opacity: 0.1"/>
     <use xlink:href="#ma07f8baaa3" x="129.963182" y="106.532265" style="fill-opacity: 0.1"/>
     <use xlink:href="#ma07f8baaa3" x="134.717715" y="136.099198" style="fill-opacity: 0.1"/>
     <use xlink:href="#ma07f8baaa3" x="129.765295" y="105.69214" style="fill-opacity: 0.1"/>
     <use xlink:href="#ma07f8baaa3" x="127.857939" y="147.34601" style="fill-opacity: 0.1"/>
     <use xlink:href="#ma07f8baaa3" x="126.773324" y="103.659587" style="fill-opacity: 0.1"/>
     <use xlink:href="#ma07f8baaa3" x="138.958885" y="135.475879" style="fill-opacity: 0.1"/>
     <use xlink:href="#ma07f8baaa3" x="127.393987" y="108.673224" style="fill-opacity: 0.1"/>
     <use xlink:href="#ma07f8baaa3" x="128.697446" y="134.960966" style="fill-opacity: 0.1"/>
     <use xlink:href="#ma07f8baaa3" x="132.539629" y="107.101381" style="fill-opacity: 0.1"/>
     <use xlink:href="#ma07f8baaa3" x="142.634135" y="141.004433" style="fill-opacity: 0.1"/>
     <use xlink:href="#ma07f8baaa3" x="126.477054" y="110.597378" style="fill-opacity: 0.1"/>
     <use xlink:href="#ma07f8baaa3" x="143.012492" y="136.587006" style="fill-opacity: 0.1"/>
     <use xlink:href="#ma07f8baaa3" x="126.454671" y="109.432048" style="fill-opacity: 0.1"/>
     <use xlink:href="#ma07f8baaa3" x="146.104101" y="142.63048" style="fill-opacity: 0.1"/>
     <use xlink:href="#ma07f8baaa3" x="134.769952" y="107.209787" style="fill-opacity: 0.1"/>
     <use xlink:href="#ma07f8baaa3" x="146.110833" y="137.779441" style="fill-opacity: 0.1"/>
     <use xlink:href="#ma07f8baaa3" x="137.809774" y="111.681407" style="fill-opacity: 0.1"/>
     <use xlink:href="#ma07f8baaa3" x="140.80995" y="135.394578" style="fill-opacity: 0.1"/>
     <use xlink:href="#ma07f8baaa3" x="125.184441" y="101.870931" style="fill-opacity: 0.1"/>
     <use xlink:href="#ma07f8baaa3" x="130.621957" y="141.383845" style="fill-opacity: 0.1"/>
     <use xlink:href="#ma07f8baaa3" x="126.992535" y="110.57028" style="fill-opacity: 0.1"/>
     <use xlink:href="#ma07f8baaa3" x="130.919552" y="134.310542" style="fill-opacity: 0.1"/>
     <use xlink:href="#ma07f8baaa3" x="126.959751" y="115.90913" style="fill-opacity: 0.1"/>
     <use xlink:href="#ma07f8baaa3" x="131.407081" y="144.012619" style="fill-opacity: 0.1"/>
     <use xlink:href="#ma07f8baaa3" x="133.556022" y="112.955144" style="fill-opacity: 0.1"/>
     <use xlink:href="#ma07f8baaa3" x="125.741535" y="139.676497" style="fill-opacity: 0.1"/>
     <use xlink:href="#ma07f8baaa3" x="139.765577" y="108.862932" style="fill-opacity: 0.1"/>
     <use xlink:href="#ma07f8baaa3" x="136.956177" y="136.01789" style="fill-opacity: 0.1"/>
     <use xlink:href="#ma07f8baaa3" x="130.233204" y="109.404943" style="fill-opacity: 0.1"/>
     <use xlink:href="#ma07f8baaa3" x="135.98854" y="141.736155" style="fill-opacity: 0.1"/>
     <use xlink:href="#ma07f8baaa3" x="126.406507" y="110.380572" style="fill-opacity: 0.1"/>
     <use xlink:href="#ma07f8baaa3" x="137.164755" y="137.806546" style="fill-opacity: 0.1"/>
     <use xlink:href="#ma07f8baaa3" x="145.051429" y="108.022807" style="fill-opacity: 0.1"/>
     <use xlink:href="#ma07f8baaa3" x="131.420155" y="136.830917" style="fill-opacity: 0.1"/>
     <use xlink:href="#ma07f8baaa3" x="139.206206" y="111.600106" style="fill-opacity: 0.1"/>
     <use xlink:href="#ma07f8baaa3" x="127.251473" y="139.297085" style="fill-opacity: 0.1"/>
     <use xlink:href="#ma07f8baaa3" x="140.298016" y="108.158312" style="fill-opacity: 0.1"/>
     <use xlink:href="#ma07f8baaa3" x="130.769248" y="136.749616" style="fill-opacity: 0.1"/>
     <use xlink:href="#ma07f8baaa3" x="128.398563" y="106.776169" style="fill-opacity: 0.1"/>
     <use xlink:href="#ma07f8baaa3" x="137.400596" y="135.313276" style="fill-opacity: 0.1"/>
     <use xlink:href="#ma07f8baaa3" x="124.758574" y="111.600106" style="fill-opacity: 0.1"/>
     <use xlink:href="#ma07f8baaa3" x="142.811505" y="145.394755" style="fill-opacity: 0.1"/>
     <use xlink:href="#ma07f8baaa3" x="124.414581" y="109.675952" style="fill-opacity: 0.1"/>
    </g>
   </g>
   <g id="PathCollection_2">
    <g clip-path="url(#p42e478f9d1)">
     <use xlink:href="#ma07f8baaa3" x="195.237819" y="120.136846" style="fill-opacity: 0.1"/>
     <use xlink:href="#ma07f8baaa3" x="186.135638" y="94.716334" style="fill-opacity: 0.1"/>
     <use xlink:href="#ma07f8baaa3" x="196.518469" y="120.678863" style="fill-opacity: 0.1"/>
     <use xlink:href="#ma07f8baaa3" x="201.584928" y="94.716334" style="fill-opacity: 0.1"/>
     <use xlink:href="#ma07f8baaa3" x="185.661235" y="125.285994" style="fill-opacity: 0.1"/>
     <use xlink:href="#ma07f8baaa3" x="192.968812" y="94.716334" style="fill-opacity: 0.1"/>
     <use xlink:href="#ma07f8baaa3" x="193.323352" y="117.182866" style="fill-opacity: 0.1"/>
     <use xlink:href="#ma07f8baaa3" x="192.881644" y="94.716334" style="fill-opacity: 0.1"/>
     <use xlink:href="#ma07f8baaa3" x="185.088254" y="120.136846" style="fill-opacity: 0.1"/>
     <use xlink:href="#ma07f8baaa3" x="201.37424" y="94.716334" style="fill-opacity: 0.1"/>
     <use xlink:href="#ma07f8baaa3" x="190.088852" y="117.182866" style="fill-opacity: 0.1"/>
     <use xlink:href="#ma07f8baaa3" x="199.000752" y="94.716334" style="fill-opacity: 0.1"/>
     <use xlink:href="#ma07f8baaa3" x="195.721326" y="117.182866" style="fill-opacity: 0.1"/>
     <use xlink:href="#ma07f8baaa3" x="186.747845" y="94.716334" style="fill-opacity: 0.1"/>
     <use xlink:href="#ma07f8baaa3" x="198.272886" y="125.285994" style="fill-opacity: 0.1"/>
     <use xlink:href="#ma07f8baaa3" x="188.959035" y="94.716334" style="fill-opacity: 0.1"/>
     <use xlink:href="#ma07f8baaa3" x="199.775124" y="122.30491" style="fill-opacity: 0.1"/>
     <use xlink:href="#ma07f8baaa3" x="193.082989" y="94.716334" style="fill-opacity: 0.1"/>
     <use xlink:href="#ma07f8baaa3" x="199.789234" y="125.285994" style="fill-opacity: 0.1"/>
     <use xlink:href="#ma07f8baaa3" x="195.566255" y="94.716334" style="fill-opacity: 0.1"/>
     <use xlink:href="#ma07f8baaa3" x="196.296617" y="122.846921" style="fill-opacity: 0.1"/>
     <use xlink:href="#ma07f8baaa3" x="191.29856" y="94.716334" style="fill-opacity: 0.1"/>
     <use xlink:href="#ma07f8baaa3" x="201.448668" y="120.136846" style="fill-opacity: 0.1"/>
     <use xlink:href="#ma07f8baaa3" x="194.482824" y="92.141762" style="fill-opacity: 0.1"/>
     <use xlink:href="#ma07f8baaa3" x="189.569464" y="125.285994" style="fill-opacity: 0.1"/>
     <use xlink:href="#ma07f8baaa3" x="193.643669" y="92.141762" style="fill-opacity: 0.1"/>
     <use xlink:href="#ma07f8baaa3" x="180.537517" y="119.350924" style="fill-opacity: 0.1"/>
     <use xlink:href="#ma07f8baaa3" x="186.840201" y="94.716334" style="fill-opacity: 0.1"/>
     <use xlink:href="#ma07f8baaa3" x="194.844032" y="120.136846" style="fill-opacity: 0.1"/>
     <use xlink:href="#ma07f8baaa3" x="186.583587" y="94.716334" style="fill-opacity: 0.1"/>
     <use xlink:href="#ma07f8baaa3" x="193.903074" y="117.182866" style="fill-opacity: 0.1"/>
     <use xlink:href="#ma07f8baaa3" x="189.679136" y="94.716334" style="fill-opacity: 0.1"/>
     <use xlink:href="#ma07f8baaa3" x="183.132876" y="117.182866" style="fill-opacity: 0.1"/>
     <use xlink:href="#ma07f8baaa3" x="186.766714" y="92.141762" style="fill-opacity: 0.1"/>
     <use xlink:href="#ma07f8baaa3" x="192.830599" y="125.285994" style="fill-opacity: 0.1"/>
     <use xlink:href="#ma07f8baaa3" x="193.297256" y="94.716334" style="fill-opacity: 0.1"/>
     <use xlink:href="#ma07f8baaa3" x="192.92792" y="117.182866" style="fill-opacity: 0.1"/>
     <use xlink:href="#ma07f8baaa3" x="194.688403" y="94.716334" style="fill-opacity: 0.1"/>
     <use xlink:href="#ma07f8baaa3" x="194.663905" y="120.136846" style="fill-opacity: 0.1"/>
     <use xlink:href="#ma07f8baaa3" x="189.738277" y="105.556636" style="fill-opacity: 0.1"/>
     <use xlink:href="#ma07f8baaa3" x="200.119817" y="125.285994" style="fill-opacity: 0.1"/>
     <use xlink:href="#ma07f8baaa3" x="188.313015" y="94.716334" style="fill-opacity: 0.1"/>
     <use xlink:href="#ma07f8baaa3" x="189.837522" y="125.285994" style="fill-opacity: 0.1"/>
     <use xlink:href="#ma07f8baaa3" x="200.016627" y="92.141762" style="fill-opacity: 0.1"/>
     <use xlink:href="#ma07f8baaa3" x="198.10317" y="125.285994" style="fill-opacity: 0.1"/>
     <use xlink:href="#ma07f8baaa3" x="195.81974" y="94.716334" style="fill-opacity: 0.1"/>
     <use xlink:href="#ma07f8baaa3" x="182.346168" y="120.136846" style="fill-opacity: 0.1"/>
     <use xlink:href="#ma07f8baaa3" x="200.631743" y="94.716334" style="fill-opacity: 0.1"/>
     <use xlink:href="#ma07f8baaa3" x="196.05081" y="125.285994" style="fill-opacity: 0.1"/>
     <use xlink:href="#ma07f8baaa3" x="202.403136" y="94.716334" style="fill-opacity: 0.1"/>
     <use xlink:href="#ma07f8baaa3" x="183.444777" y="125.285994" style="fill-opacity: 0.1"/>
     <use xlink:href="#ma07f8baaa3" x="199.485478" y="92.141762" style="fill-opacity: 0.1"/>
     <use xlink:href="#ma07f8baaa3" x="183.73593" y="117.182866" style="fill-opacity: 0.1"/>
     <use xlink:href="#ma07f8baaa3" x="193.848259" y="94.716334" style="fill-opacity: 0.1"/>
     <use xlink:href="#ma07f8baaa3" x="182.87276" y="120.136846" style="fill-opacity: 0.1"/>
     <use xlink:href="#ma07f8baaa3" x="199.036453" y="94.716334" style="fill-opacity: 0.1"/>
     <use xlink:href="#ma07f8baaa3" x="198.128279" y="125.285994" style="fill-opacity: 0.1"/>
     <use xlink:href="#ma07f8baaa3" x="192.811311" y="92.141762" style="fill-opacity: 0.1"/>
     <use xlink:href="#ma07f8baaa3" x="189.197355" y="120.136846" style="fill-opacity: 0.1"/>
     <use xlink:href="#ma07f8baaa3" x="181.652919" y="94.716334" style="fill-opacity: 0.1"/>
     <use xlink:href="#ma07f8baaa3" x="195.675559" y="122.30491" style="fill-opacity: 0.1"/>
     <use xlink:href="#ma07f8baaa3" x="190.232085" y="92.141762" style="fill-opacity: 0.1"/>
     <use xlink:href="#ma07f8baaa3" x="196.225223" y="122.30491" style="fill-opacity: 0.1"/>
     <use xlink:href="#ma07f8baaa3" x="199.446558" y="94.716334" style="fill-opacity: 0.1"/>
     <use xlink:href="#ma07f8baaa3" x="201.882516" y="117.697779" style="fill-opacity: 0.1"/>
     <use xlink:href="#ma07f8baaa3" x="199.210438" y="94.716334" style="fill-opacity: 0.1"/>
     <use xlink:href="#ma07f8baaa3" x="180.370585" y="125.285994" style="fill-opacity: 0.1"/>
     <use xlink:href="#ma07f8baaa3" x="188.143747" y="94.716334" style="fill-opacity: 0.1"/>
     <use xlink:href="#ma07f8baaa3" x="196.40233" y="117.182866" style="fill-opacity: 0.1"/>
     <use xlink:href="#ma07f8baaa3" x="183.93986" y="92.141762" style="fill-opacity: 0.1"/>
     <use xlink:href="#ma07f8baaa3" x="191.738532" y="117.182866" style="fill-opacity: 0.1"/>
     <use xlink:href="#ma07f8baaa3" x="181.32194" y="92.141762" style="fill-opacity: 0.1"/>
     <use xlink:href="#ma07f8baaa3" x="184.573" y="120.136846" style="fill-opacity: 0.1"/>
     <use xlink:href="#ma07f8baaa3" x="180.522532" y="92.141762" style="fill-opacity: 0.1"/>
     <use xlink:href="#ma07f8baaa3" x="197.824256" y="123.11793" style="fill-opacity: 0.1"/>
     <use xlink:href="#ma07f8baaa3" x="185.107071" y="92.141762" style="fill-opacity: 0.1"/>
     <use xlink:href="#ma07f8baaa3" x="187.81729" y="125.285994" style="fill-opacity: 0.1"/>
     <use xlink:href="#ma07f8baaa3" x="200.823663" y="94.716334" style="fill-opacity: 0.1"/>
     <use xlink:href="#ma07f8baaa3" x="195.831476" y="120.136846" style="fill-opacity: 0.1"/>
     <use xlink:href="#ma07f8baaa3" x="180.819767" y="92.141762" style="fill-opacity: 0.1"/>
     <use xlink:href="#ma07f8baaa3" x="183.785061" y="123.11793" style="fill-opacity: 0.1"/>
     <use xlink:href="#ma07f8baaa3" x="193.980366" y="92.141762" style="fill-opacity: 0.1"/>
     <use xlink:href="#ma07f8baaa3" x="192.992722" y="122.332008" style="fill-opacity: 0.1"/>
     <use xlink:href="#ma07f8baaa3" x="185.418836" y="92.141762" style="fill-opacity: 0.1"/>
     <use xlink:href="#ma07f8baaa3" x="200.960544" y="120.136846" style="fill-opacity: 0.1"/>
     <use xlink:href="#ma07f8baaa3" x="193.812691" y="94.716334" style="fill-opacity: 0.1"/>
     <use xlink:href="#ma07f8baaa3" x="192.064315" y="125.285994" style="fill-opacity: 0.1"/>
     <use xlink:href="#ma07f8baaa3" x="193.275767" y="94.716334" style="fill-opacity: 0.1"/>
     <use xlink:href="#ma07f8baaa3" x="196.405264" y="122.30491" style="fill-opacity: 0.1"/>
     <use xlink:href="#ma07f8baaa3" x="187.071661" y="94.716334" style="fill-opacity: 0.1"/>
     <use xlink:href="#ma07f8baaa3" x="188.997321" y="125.285994" style="fill-opacity: 0.1"/>
     <use xlink:href="#ma07f8baaa3" x="184.792788" y="92.141762" style="fill-opacity: 0.1"/>
     <use xlink:href="#ma07f8baaa3" x="184.264909" y="122.846921" style="fill-opacity: 0.1"/>
     <use xlink:href="#ma07f8baaa3" x="201.187276" y="94.716334" style="fill-opacity: 0.1"/>
     <use xlink:href="#ma07f8baaa3" x="196.615712" y="125.285994" style="fill-opacity: 0.1"/>
     <use xlink:href="#ma07f8baaa3" x="191.056043" y="94.716334" style="fill-opacity: 0.1"/>
     <use xlink:href="#ma07f8baaa3" x="185.184965" y="125.285994" style="fill-opacity: 0.1"/>
     <use xlink:href="#ma07f8baaa3" x="185.7863" y="94.716334" style="fill-opacity: 0.1"/>
     <use xlink:href="#ma07f8baaa3" x="181.404326" y="125.285994" style="fill-opacity: 0.1"/>
     <use xlink:href="#ma07f8baaa3" x="189.805196" y="94.716334" style="fill-opacity: 0.1"/>
    </g>
   </g>
   <g id="PathCollection_3">
    <g clip-path="url(#p42e478f9d1)">
     <use xlink:href="#ma07f8baaa3" x="242.867684" y="120.136846" style="fill-opacity: 0.1"/>
     <use xlink:href="#ma07f8baaa3" x="251.450686" y="92.141762" style="fill-opacity: 0.1"/>
     <use xlink:href="#ma07f8baaa3" x="244.339803" y="120.136846" style="fill-opacity: 0.1"/>
     <use xlink:href="#ma07f8baaa3" x="239.917188" y="94.716334" style="fill-opacity: 0.1"/>
     <use xlink:href="#ma07f8baaa3" x="236.459303" y="125.285994" style="fill-opacity: 0.1"/>
     <use xlink:href="#ma07f8baaa3" x="237.409475" y="105.556636" style="fill-opacity: 0.1"/>
     <use xlink:href="#ma07f8baaa3" x="251.072351" y="125.285994" style="fill-opacity: 0.1"/>
     <use xlink:href="#ma07f8baaa3" x="246.034876" y="94.716334" style="fill-opacity: 0.1"/>
     <use xlink:href="#ma07f8baaa3" x="247.884789" y="122.332008" style="fill-opacity: 0.1"/>
     <use xlink:href="#ma07f8baaa3" x="255.921951" y="94.716334" style="fill-opacity: 0.1"/>
     <use xlink:href="#ma07f8baaa3" x="258.012589" y="117.182866" style="fill-opacity: 0.1"/>
     <use xlink:href="#ma07f8baaa3" x="240.749565" y="94.716334" style="fill-opacity: 0.1"/>
     <use xlink:href="#ma07f8baaa3" x="250.708214" y="120.136846" style="fill-opacity: 0.1"/>
     <use xlink:href="#ma07f8baaa3" x="241.785768" y="94.716334" style="fill-opacity: 0.1"/>
     <use xlink:href="#ma07f8baaa3" x="236.369405" y="125.285994" style="fill-opacity: 0.1"/>
     <use xlink:href="#ma07f8baaa3" x="252.835295" y="94.716334" style="fill-opacity: 0.1"/>
     <use xlink:href="#ma07f8baaa3" x="243.05118" y="119.350924" style="fill-opacity: 0.1"/>
     <use xlink:href="#ma07f8baaa3" x="244.467295" y="94.716334" style="fill-opacity: 0.1"/>
     <use xlink:href="#ma07f8baaa3" x="249.039566" y="120.136846" style="fill-opacity: 0.1"/>
     <use xlink:href="#ma07f8baaa3" x="254.457266" y="94.716334" style="fill-opacity: 0.1"/>
     <use xlink:href="#ma07f8baaa3" x="249.947192" y="122.30491" style="fill-opacity: 0.1"/>
     <use xlink:href="#ma07f8baaa3" x="255.385816" y="94.716334" style="fill-opacity: 0.1"/>
     <use xlink:href="#ma07f8baaa3" x="242.013868" y="117.182866" style="fill-opacity: 0.1"/>
     <use xlink:href="#ma07f8baaa3" x="253.720679" y="94.716334" style="fill-opacity: 0.1"/>
     <use xlink:href="#ma07f8baaa3" x="240.051827" y="122.332008" style="fill-opacity: 0.1"/>
     <use xlink:href="#ma07f8baaa3" x="257.174543" y="94.716334" style="fill-opacity: 0.1"/>
     <use xlink:href="#ma07f8baaa3" x="251.25304" y="123.11793" style="fill-opacity: 0.1"/>
     <use xlink:href="#ma07f8baaa3" x="240.718556" y="94.716334" style="fill-opacity: 0.1"/>
     <use xlink:href="#ma07f8baaa3" x="257.053546" y="125.285994" style="fill-opacity: 0.1"/>
     <use xlink:href="#ma07f8baaa3" x="252.220992" y="94.716334" style="fill-opacity: 0.1"/>
     <use xlink:href="#ma07f8baaa3" x="241.576392" y="122.332008" style="fill-opacity: 0.1"/>
     <use xlink:href="#ma07f8baaa3" x="240.669548" y="92.141762" style="fill-opacity: 0.1"/>
     <use xlink:href="#ma07f8baaa3" x="247.474586" y="117.182866" style="fill-opacity: 0.1"/>
     <use xlink:href="#ma07f8baaa3" x="236.481266" y="92.141762" style="fill-opacity: 0.1"/>
     <use xlink:href="#ma07f8baaa3" x="240.539159" y="120.136846" style="fill-opacity: 0.1"/>
     <use xlink:href="#ma07f8baaa3" x="245.38735" y="94.716334" style="fill-opacity: 0.1"/>
     <use xlink:href="#ma07f8baaa3" x="244.259857" y="117.182866" style="fill-opacity: 0.1"/>
     <use xlink:href="#ma07f8baaa3" x="246.255364" y="92.141762" style="fill-opacity: 0.1"/>
     <use xlink:href="#ma07f8baaa3" x="242.105081" y="122.332008" style="fill-opacity: 0.1"/>
     <use xlink:href="#ma07f8baaa3" x="249.005355" y="105.556636" style="fill-opacity: 0.1"/>
     <use xlink:href="#ma07f8baaa3" x="255.189513" y="125.285994" style="fill-opacity: 0.1"/>
     <use xlink:href="#ma07f8baaa3" x="238.531761" y="94.716334" style="fill-opacity: 0.1"/>
     <use xlink:href="#ma07f8baaa3" x="247.456248" y="125.285994" style="fill-opacity: 0.1"/>
     <use xlink:href="#ma07f8baaa3" x="238.856206" y="92.141762" style="fill-opacity: 0.1"/>
     <use xlink:href="#ma07f8baaa3" x="251.908602" y="125.285994" style="fill-opacity: 0.1"/>
     <use xlink:href="#ma07f8baaa3" x="244.74843" y="94.716334" style="fill-opacity: 0.1"/>
     <use xlink:href="#ma07f8baaa3" x="248.528537" y="117.182866" style="fill-opacity: 0.1"/>
     <use xlink:href="#ma07f8baaa3" x="239.999239" y="92.141762" style="fill-opacity: 0.1"/>
     <use xlink:href="#ma07f8baaa3" x="239.141445" y="117.182866" style="fill-opacity: 0.1"/>
     <use xlink:href="#ma07f8baaa3" x="246.80177" y="94.716334" style="fill-opacity: 0.1"/>
     <use xlink:href="#ma07f8baaa3" x="243.845664" y="120.136846" style="fill-opacity: 0.1"/>
     <use xlink:href="#ma07f8baaa3" x="256.898677" y="94.716334" style="fill-opacity: 0.1"/>
     <use xlink:href="#ma07f8baaa3" x="252.990341" y="120.136846" style="fill-opacity: 0.1"/>
     <use xlink:href="#ma07f8baaa3" x="252.618458" y="94.716334" style="fill-opacity: 0.1"/>
     <use xlink:href="#ma07f8baaa3" x="256.07927" y="120.136846" style="fill-opacity: 0.1"/>
     <use xlink:href="#ma07f8baaa3" x="237.770448" y="105.556636" style="fill-opacity: 0.1"/>
     <use xlink:href="#ma07f8baaa3" x="248.233273" y="125.285994" style="fill-opacity: 0.1"/>
     <use xlink:href="#ma07f8baaa3" x="248.953835" y="92.141762" style="fill-opacity: 0.1"/>
     <use xlink:href="#ma07f8baaa3" x="257.378651" y="125.285994" style="fill-opacity: 0.1"/>
     <use xlink:href="#ma07f8baaa3" x="242.429137" y="92.141762" style="fill-opacity: 0.1"/>
     <use xlink:href="#ma07f8baaa3" x="241.283716" y="125.285994" style="fill-opacity: 0.1"/>
     <use xlink:href="#ma07f8baaa3" x="238.147015" y="94.716334" style="fill-opacity: 0.1"/>
     <use xlink:href="#ma07f8baaa3" x="236.275186" y="120.136846" style="fill-opacity: 0.1"/>
     <use xlink:href="#ma07f8baaa3" x="256.655333" y="94.716334" style="fill-opacity: 0.1"/>
     <use xlink:href="#ma07f8baaa3" x="250.860844" y="125.285994" style="fill-opacity: 0.1"/>
     <use xlink:href="#ma07f8baaa3" x="253.43289" y="92.141762" style="fill-opacity: 0.1"/>
     <use xlink:href="#ma07f8baaa3" x="242.196623" y="125.285994" style="fill-opacity: 0.1"/>
     <use xlink:href="#ma07f8baaa3" x="248.997003" y="94.716334" style="fill-opacity: 0.1"/>
     <use xlink:href="#ma07f8baaa3" x="237.335945" y="120.136846" style="fill-opacity: 0.1"/>
     <use xlink:href="#ma07f8baaa3" x="246.747562" y="94.716334" style="fill-opacity: 0.1"/>
     <use xlink:href="#ma07f8baaa3" x="257.725918" y="122.332008" style="fill-opacity: 0.1"/>
     <use xlink:href="#ma07f8baaa3" x="255.47185" y="94.716334" style="fill-opacity: 0.1"/>
     <use xlink:href="#ma07f8baaa3" x="243.4561" y="119.350924" style="fill-opacity: 0.1"/>
     <use xlink:href="#ma07f8baaa3" x="257.370477" y="92.141762" style="fill-opacity: 0.1"/>
     <use xlink:href="#ma07f8baaa3" x="241.080001" y="120.136846" style="fill-opacity: 0.1"/>
     <use xlink:href="#ma07f8baaa3" x="257.09703" y="89.973698" style="fill-opacity: 0.1"/>
     <use xlink:href="#ma07f8baaa3" x="256.919786" y="125.285994" style="fill-opacity: 0.1"/>
     <use xlink:href="#ma07f8baaa3" x="253.746475" y="94.716334" style="fill-opacity: 0.1"/>
     <use xlink:href="#ma07f8baaa3" x="249.979915" y="120.136846" style="fill-opacity: 0.1"/>
     <use xlink:href="#ma07f8baaa3" x="255.422361" y="94.716334" style="fill-opacity: 0.1"/>
     <use xlink:href="#ma07f8baaa3" x="242.448617" y="125.285994" style="fill-opacity: 0.1"/>
     <use xlink:href="#ma07f8baaa3" x="254.85668" y="92.141762" style="fill-opacity: 0.1"/>
     <use xlink:href="#ma07f8baaa3" x="249.699328" y="125.285994" style="fill-opacity: 0.1"/>
     <use xlink:href="#ma07f8baaa3" x="236.203924" y="92.141762" style="fill-opacity: 0.1"/>
     <use xlink:href="#ma07f8baaa3" x="243.658642" y="120.136846" style="fill-opacity: 0.1"/>
     <use xlink:href="#ma07f8baaa3" x="239.214946" y="92.141762" style="fill-opacity: 0.1"/>
     <use xlink:href="#ma07f8baaa3" x="257.822657" y="125.285994" style="fill-opacity: 0.1"/>
     <use xlink:href="#ma07f8baaa3" x="246.585582" y="94.716334" style="fill-opacity: 0.1"/>
     <use xlink:href="#ma07f8baaa3" x="247.010127" y="135.123569" style="fill-opacity: 0.1"/>
     <use xlink:href="#ma07f8baaa3" x="250.181341" y="92.141762" style="fill-opacity: 0.1"/>
     <use xlink:href="#ma07f8baaa3" x="244.135193" y="125.285994" style="fill-opacity: 0.1"/>
     <use xlink:href="#ma07f8baaa3" x="238.964059" y="94.716334" style="fill-opacity: 0.1"/>
     <use xlink:href="#ma07f8baaa3" x="254.257935" y="125.285994" style="fill-opacity: 0.1"/>
     <use xlink:href="#ma07f8baaa3" x="240.145837" y="92.141762" style="fill-opacity: 0.1"/>
     <use xlink:href="#ma07f8baaa3" x="247.320987" y="120.136846" style="fill-opacity: 0.1"/>
     <use xlink:href="#ma07f8baaa3" x="240.915178" y="94.716334" style="fill-opacity: 0.1"/>
     <use xlink:href="#ma07f8baaa3" x="238.092344" y="125.285994" style="fill-opacity: 0.1"/>
     <use xlink:href="#ma07f8baaa3" x="255.152371" y="92.141762" style="fill-opacity: 0.1"/>
     <use xlink:href="#ma07f8baaa3" x="257.623791" y="123.11793" style="fill-opacity: 0.1"/>
     <use xlink:href="#ma07f8baaa3" x="257.354061" y="94.716334" style="fill-opacity: 0.1"/>
    </g>
   </g>
   <g id="text_10">
    <!-- *** -->
    <g transform="translate(179.269 87.083127) scale(0.16 -0.16)">
     <defs>
      <path id="DejaVuSans-2a" d="M 3009 3897 
L 1888 3291 
L 3009 2681 
L 2828 2375 
L 1778 3009 
L 1778 1831 
L 1422 1831 
L 1422 3009 
L 372 2375 
L 191 2681 
L 1313 3291 
L 191 3897 
L 372 4206 
L 1422 3572 
L 1422 4750 
L 1778 4750 
L 1778 3572 
L 2828 4206 
L 3009 3897 
z
" transform="scale(0.015625)"/>
     </defs>
     <use xlink:href="#DejaVuSans-2a"/>
     <use xlink:href="#DejaVuSans-2a" transform="translate(50 0)"/>
     <use xlink:href="#DejaVuSans-2a" transform="translate(100 0)"/>
    </g>
   </g>
   <g id="text_11">
    <!-- *** -->
    <g transform="translate(151.369325 59.039254) scale(0.16 -0.16)">
     <use xlink:href="#DejaVuSans-2a"/>
     <use xlink:href="#DejaVuSans-2a" transform="translate(50 0)"/>
     <use xlink:href="#DejaVuSans-2a" transform="translate(100 0)"/>
    </g>
   </g>
   <g id="text_12">
    <!-- ns -->
    <g transform="translate(209.931175 52.567598) scale(0.16 -0.16)">
     <use xlink:href="#DejaVuSans-6e"/>
     <use xlink:href="#DejaVuSans-73" transform="translate(63.378906 0)"/>
    </g>
   </g>
   <g id="text_13">
    <!-- In-Distribution -->
    <g transform="translate(120.036187 28.50475) scale(0.2 -0.2)">
     <defs>
      <path id="DejaVuSans-49" d="M 628 4666 
L 1259 4666 
L 1259 0 
L 628 0 
L 628 4666 
z
" transform="scale(0.015625)"/>
     </defs>
     <use xlink:href="#DejaVuSans-49"/>
     <use xlink:href="#DejaVuSans-6e" transform="translate(29.492188 0)"/>
     <use xlink:href="#DejaVuSans-2d" transform="translate(92.871094 0)"/>
     <use xlink:href="#DejaVuSans-44" transform="translate(128.955078 0)"/>
     <use xlink:href="#DejaVuSans-69" transform="translate(205.957031 0)"/>
     <use xlink:href="#DejaVuSans-73" transform="translate(233.740234 0)"/>
     <use xlink:href="#DejaVuSans-74" transform="translate(285.839844 0)"/>
     <use xlink:href="#DejaVuSans-72" transform="translate(325.048828 0)"/>
     <use xlink:href="#DejaVuSans-69" transform="translate(366.162109 0)"/>
     <use xlink:href="#DejaVuSans-62" transform="translate(393.945312 0)"/>
     <use xlink:href="#DejaVuSans-75" transform="translate(457.421875 0)"/>
     <use xlink:href="#DejaVuSans-74" transform="translate(520.800781 0)"/>
     <use xlink:href="#DejaVuSans-69" transform="translate(560.009766 0)"/>
     <use xlink:href="#DejaVuSans-6f" transform="translate(587.792969 0)"/>
     <use xlink:href="#DejaVuSans-6e" transform="translate(648.974609 0)"/>
    </g>
    <!--  -->
    <g transform="translate(191.269 50.900375) scale(0.2 -0.2)"/>
    <!--  -->
    <g transform="translate(191.269 73.296) scale(0.2 -0.2)"/>
   </g>
   <g id="LineCollection_1">
    <path d="M 135.469649 125.153492 
L 135.469649 122.10462 
" clip-path="url(#p42e478f9d1)" style="fill: none; stroke: #000000; stroke-width: 2"/>
    <path d="M 191.269 109.421131 
L 191.269 106.589779 
" clip-path="url(#p42e478f9d1)" style="fill: none; stroke: #000000; stroke-width: 2"/>
    <path d="M 247.068351 109.860214 
L 247.068351 106.977288 
" clip-path="url(#p42e478f9d1)" style="fill: none; stroke: #000000; stroke-width: 2"/>
   </g>
   <g id="line2d_12">
    <defs>
     <path id="m7d39d61009" d="M 5 0 
L -5 -0 
" style="stroke: #000000"/>
    </defs>
    <g clip-path="url(#p42e478f9d1)">
     <use xlink:href="#m7d39d61009" x="135.469649" y="125.153492" style="stroke: #000000"/>
     <use xlink:href="#m7d39d61009" x="191.269" y="109.421131" style="stroke: #000000"/>
     <use xlink:href="#m7d39d61009" x="247.068351" y="109.860214" style="stroke: #000000"/>
    </g>
   </g>
   <g id="line2d_13">
    <g clip-path="url(#p42e478f9d1)">
     <use xlink:href="#m7d39d61009" x="135.469649" y="122.10462" style="stroke: #000000"/>
     <use xlink:href="#m7d39d61009" x="191.269" y="106.589779" style="stroke: #000000"/>
     <use xlink:href="#m7d39d61009" x="247.068351" y="106.977288" style="stroke: #000000"/>
    </g>
   </g>
   <g id="line2d_14">
    <defs>
     <path id="mc2117119ce" d="M 0 3 
C 0.795609 3 1.55874 2.683901 2.12132 2.12132 
C 2.683901 1.55874 3 0.795609 3 0 
C 3 -0.795609 2.683901 -1.55874 2.12132 -2.12132 
C 1.55874 -2.683901 0.795609 -3 0 -3 
C -0.795609 -3 -1.55874 -2.683901 -2.12132 -2.12132 
C -2.683901 -1.55874 -3 -0.795609 -3 0 
C -3 0.795609 -2.683901 1.55874 -2.12132 2.12132 
C -1.55874 2.683901 -0.795609 3 0 3 
z
" style="stroke: #000000"/>
    </defs>
    <g clip-path="url(#p42e478f9d1)">
     <use xlink:href="#mc2117119ce" x="135.469649" y="123.629056" style="stroke: #000000"/>
     <use xlink:href="#mc2117119ce" x="191.269" y="108.005455" style="stroke: #000000"/>
     <use xlink:href="#mc2117119ce" x="247.068351" y="108.418751" style="stroke: #000000"/>
    </g>
   </g>
  </g>
 </g>
 <defs>
  <clipPath id="p42e478f9d1">
   <rect x="105.338" y="79.296" width="171.862" height="113.254081"/>
  </clipPath>
 </defs>
</svg>
