<?xml version="1.0" encoding="utf-8" standalone="no"?>
<!DOCTYPE svg PUBLIC "-//W3C//DTD SVG 1.1//EN"
  "http://www.w3.org/Graphics/SVG/1.1/DTD/svg11.dtd">
<svg xmlns:xlink="http://www.w3.org/1999/xlink" width="216pt" height="288pt" viewBox="0 0 216 288" xmlns="http://www.w3.org/2000/svg" version="1.1">
 <metadata>
  <rdf:RDF xmlns:dc="http://purl.org/dc/elements/1.1/" xmlns:cc="http://creativecommons.org/ns#" xmlns:rdf="http://www.w3.org/1999/02/22-rdf-syntax-ns#">
   <cc:Work>
    <dc:type rdf:resource="http://purl.org/dc/dcmitype/StillImage"/>
    <dc:date>2025-08-25T17:11:48.546621</dc:date>
    <dc:format>image/svg+xml</dc:format>
    <dc:creator>
     <cc:Agent>
      <dc:title>Matplotlib v3.10.1, https://matplotlib.org/</dc:title>
     </cc:Agent>
    </dc:creator>
   </cc:Work>
  </rdf:RDF>
 </metadata>
 <defs>
  <style type="text/css">*{stroke-linejoin: round; stroke-linecap: butt}</style>
 </defs>
 <g id="figure_1">
  <g id="patch_1">
   <path d="M 0 288 
L 216 288 
L 216 0 
L 0 0 
L 0 288 
z
" style="fill: none"/>
  </g>
  <g id="axes_1">
   <g id="patch_2">
    <path d="M 34.87429 192.550081 
L 205.2 192.550081 
L 205.2 102.624 
L 34.87429 102.624 
L 34.87429 192.550081 
z
" style="fill: none"/>
   </g>
   <g id="FillBetweenPolyCollection_1">
    <defs>
     <path id="m83795c2d10" d="M 66.45781 -148.729884 
L 63.015369 -148.729884 
L 62.806832 -148.990498 
L 62.579254 -149.251112 
L 62.331857 -149.511725 
L 62.064192 -149.772339 
L 61.776215 -150.032953 
L 61.468368 -150.293566 
L 61.141613 -150.55418 
L 60.79745 -150.814794 
L 60.437891 -151.075408 
L 60.065392 -151.336021 
L 59.68275 -151.596635 
L 59.292958 -151.857249 
L 58.899033 -152.117863 
L 58.503815 -152.378476 
L 58.109768 -152.63909 
L 57.718767 -152.899704 
L 57.331913 -153.160318 
L 56.949376 -153.420931 
L 56.570272 -153.681545 
L 56.192616 -153.942159 
L 55.81332 -154.202773 
L 55.42828 -154.463386 
L 55.032538 -154.724 
L 54.62052 -154.984614 
L 54.186346 -155.245228 
L 53.724207 -155.505841 
L 53.228777 -155.766455 
L 52.695661 -156.027069 
L 52.121834 -156.287683 
L 51.506049 -156.548296 
L 50.849189 -156.80891 
L 50.154526 -157.069524 
L 49.427868 -157.330138 
L 48.67756 -157.590751 
L 47.91434 -157.851365 
L 47.151036 -158.111979 
L 46.402103 -158.372592 
L 45.683034 -158.633206 
L 45.009648 -158.89382 
L 44.397316 -159.154434 
L 43.86015 -159.415047 
L 43.410215 -159.675661 
L 43.056818 -159.936275 
L 42.805916 -160.196889 
L 42.659698 -160.457502 
L 42.616367 -160.718116 
L 42.670152 -160.97873 
L 42.811544 -161.239344 
L 43.027768 -161.499957 
L 43.303438 -161.760571 
L 43.621371 -162.021185 
L 43.963503 -162.281799 
L 44.311838 -162.542412 
L 44.649383 -162.803026 
L 44.960989 -163.06364 
L 45.23406 -163.324254 
L 45.459082 -163.584867 
L 45.629946 -163.845481 
L 45.744069 -164.106095 
L 45.802293 -164.366709 
L 45.808617 -164.627322 
L 45.769773 -164.887936 
L 45.694695 -165.14855 
L 45.593928 -165.409163 
L 45.479015 -165.669777 
L 45.361914 -165.930391 
L 45.254452 -166.191005 
L 45.167869 -166.451618 
L 45.112438 -166.712232 
L 45.097178 -166.972846 
L 45.129658 -167.23346 
L 45.21587 -167.494073 
L 45.360175 -167.754687 
L 45.565298 -168.015301 
L 45.832366 -168.275915 
L 46.160984 -168.536528 
L 46.549329 -168.797142 
L 46.994278 -169.057756 
L 47.491556 -169.31837 
L 48.035906 -169.578983 
L 48.621284 -169.839597 
L 49.241071 -170.100211 
L 49.888305 -170.360825 
L 50.555915 -170.621438 
L 51.236961 -170.882052 
L 51.924854 -171.142666 
L 52.613556 -171.40328 
L 53.297737 -171.663893 
L 53.972887 -171.924507 
L 54.635372 -172.185121 
L 55.282432 -172.445734 
L 55.91212 -172.706348 
L 56.523199 -172.966962 
L 57.114991 -173.227576 
L 57.687214 -173.488189 
L 58.239801 -173.748803 
L 58.772739 -174.009417 
L 59.28593 -174.270031 
L 59.779087 -174.530644 
L 69.694092 -174.530644 
L 69.694092 -174.530644 
L 70.187249 -174.270031 
L 70.70044 -174.009417 
L 71.233379 -173.748803 
L 71.785965 -173.488189 
L 72.358188 -173.227576 
L 72.94998 -172.966962 
L 73.561059 -172.706348 
L 74.190748 -172.445734 
L 74.837807 -172.185121 
L 75.500292 -171.924507 
L 76.175442 -171.663893 
L 76.859623 -171.40328 
L 77.548325 -171.142666 
L 78.236218 -170.882052 
L 78.917264 -170.621438 
L 79.584874 -170.360825 
L 80.232108 -170.100211 
L 80.851896 -169.839597 
L 81.437273 -169.578983 
L 81.981623 -169.31837 
L 82.478901 -169.057756 
L 82.92385 -168.797142 
L 83.312195 -168.536528 
L 83.640813 -168.275915 
L 83.907882 -168.015301 
L 84.113004 -167.754687 
L 84.257309 -167.494073 
L 84.343521 -167.23346 
L 84.376001 -166.972846 
L 84.360741 -166.712232 
L 84.30531 -166.451618 
L 84.218727 -166.191005 
L 84.111266 -165.930391 
L 83.994164 -165.669777 
L 83.879252 -165.409163 
L 83.778484 -165.14855 
L 83.703406 -164.887936 
L 83.664562 -164.627322 
L 83.670886 -164.366709 
L 83.72911 -164.106095 
L 83.843233 -163.845481 
L 84.014098 -163.584867 
L 84.239119 -163.324254 
L 84.51219 -163.06364 
L 84.823796 -162.803026 
L 85.161341 -162.542412 
L 85.509677 -162.281799 
L 85.851808 -162.021185 
L 86.169741 -161.760571 
L 86.445411 -161.499957 
L 86.661635 -161.239344 
L 86.803028 -160.97873 
L 86.856812 -160.718116 
L 86.813481 -160.457502 
L 86.667263 -160.196889 
L 86.416361 -159.936275 
L 86.062964 -159.675661 
L 85.613029 -159.415047 
L 85.075863 -159.154434 
L 84.463531 -158.89382 
L 83.790145 -158.633206 
L 83.071076 -158.372592 
L 82.322143 -158.111979 
L 81.558839 -157.851365 
L 80.795619 -157.590751 
L 80.045311 -157.330138 
L 79.318653 -157.069524 
L 78.623991 -156.80891 
L 77.96713 -156.548296 
L 77.351345 -156.287683 
L 76.777518 -156.027069 
L 76.244403 -155.766455 
L 75.748973 -155.505841 
L 75.286833 -155.245228 
L 74.852659 -154.984614 
L 74.440641 -154.724 
L 74.044899 -154.463386 
L 73.659859 -154.202773 
L 73.280563 -153.942159 
L 72.902907 -153.681545 
L 72.523804 -153.420931 
L 72.141266 -153.160318 
L 71.754412 -152.899704 
L 71.363411 -152.63909 
L 70.969364 -152.378476 
L 70.574147 -152.117863 
L 70.180221 -151.857249 
L 69.790429 -151.596635 
L 69.407787 -151.336021 
L 69.035288 -151.075408 
L 68.675729 -150.814794 
L 68.331566 -150.55418 
L 68.004811 -150.293566 
L 67.696964 -150.032953 
L 67.408988 -149.772339 
L 67.141322 -149.511725 
L 66.893926 -149.251112 
L 66.666347 -148.990498 
L 66.45781 -148.729884 
z
" style="stroke: #323232; stroke-opacity: 0.4; stroke-width: 1.25"/>
    </defs>
    <g clip-path="url(#pae51d102b8)">
     <use xlink:href="#m83795c2d10" x="0" y="288" style="fill: #dc9238; fill-opacity: 0.4; stroke: #323232; stroke-opacity: 0.4; stroke-width: 1.25"/>
    </g>
   </g>
   <g id="FillBetweenPolyCollection_2">
    <defs>
     <path id="m3280732100" d="M 120.703737 -151.807041 
L 119.370553 -151.807041 
L 119.357737 -152.102867 
L 119.349869 -152.398693 
L 119.345507 -152.694519 
L 119.342797 -152.990345 
L 119.339585 -153.286171 
L 119.333533 -153.581997 
L 119.322252 -153.877823 
L 119.303427 -154.173649 
L 119.274917 -154.469475 
L 119.23483 -154.7653 
L 119.181562 -155.061126 
L 119.113803 -155.356952 
L 119.030502 -155.652778 
L 118.930819 -155.948604 
L 118.814042 -156.24443 
L 118.679506 -156.540256 
L 118.526501 -156.836082 
L 118.354185 -157.131908 
L 118.161505 -157.427734 
L 117.947128 -157.72356 
L 117.709398 -158.019385 
L 117.446301 -158.315211 
L 117.155481 -158.611037 
L 116.834285 -158.906863 
L 116.479872 -159.202689 
L 116.089378 -159.498515 
L 115.660154 -159.794341 
L 115.190063 -160.090167 
L 114.677817 -160.385993 
L 114.123339 -160.681819 
L 113.528082 -160.977644 
L 112.895279 -161.27347 
L 112.230072 -161.569296 
L 111.539452 -161.865122 
L 110.832025 -162.160948 
L 110.117567 -162.456774 
L 109.406413 -162.7526 
L 108.708728 -163.048426 
L 108.033736 -163.344252 
L 107.389001 -163.640078 
L 106.779847 -163.935903 
L 106.208993 -164.231729 
L 105.676447 -164.527555 
L 105.179696 -164.823381 
L 104.714126 -165.119207 
L 104.273665 -165.415033 
L 103.851517 -165.710859 
L 103.440925 -166.006685 
L 103.035861 -166.302511 
L 102.631568 -166.598337 
L 102.224916 -166.894162 
L 101.814567 -167.189988 
L 101.400959 -167.485814 
L 100.986171 -167.78164 
L 100.573703 -168.077466 
L 100.16824 -168.373292 
L 99.775423 -168.669118 
L 99.401647 -168.964944 
L 99.053882 -169.26077 
L 98.739478 -169.556596 
L 98.465936 -169.852421 
L 98.240611 -170.148247 
L 98.070332 -170.444073 
L 97.960964 -170.739899 
L 97.916923 -171.035725 
L 97.940726 -171.331551 
L 98.032622 -171.627377 
L 98.19037 -171.923203 
L 98.409227 -172.219029 
L 98.68215 -172.514855 
L 99.000223 -172.81068 
L 99.353272 -173.106506 
L 99.73061 -173.402332 
L 100.121841 -173.698158 
L 100.51764 -173.993984 
L 100.910442 -174.28981 
L 101.294972 -174.585636 
L 101.668566 -174.881462 
L 102.031267 -175.177288 
L 102.385683 -175.473114 
L 102.736628 -175.768939 
L 103.090574 -176.064765 
L 103.454975 -176.360591 
L 103.837517 -176.656417 
L 104.245375 -176.952243 
L 104.684537 -177.248069 
L 105.159275 -177.543895 
L 105.671798 -177.839721 
L 106.222129 -178.135547 
L 106.808198 -178.431373 
L 107.426131 -178.727198 
L 108.070679 -179.023024 
L 108.735735 -179.31885 
L 109.414844 -179.614676 
L 110.10166 -179.910502 
L 110.790283 -180.206328 
L 111.475459 -180.502154 
L 112.152626 -180.79798 
L 112.817843 -181.093806 
L 127.256447 -181.093806 
L 127.256447 -181.093806 
L 127.921663 -180.79798 
L 128.59883 -180.502154 
L 129.284007 -180.206328 
L 129.97263 -179.910502 
L 130.659446 -179.614676 
L 131.338555 -179.31885 
L 132.003611 -179.023024 
L 132.648159 -178.727198 
L 133.266091 -178.431373 
L 133.852161 -178.135547 
L 134.402492 -177.839721 
L 134.915015 -177.543895 
L 135.389753 -177.248069 
L 135.828915 -176.952243 
L 136.236772 -176.656417 
L 136.619315 -176.360591 
L 136.983715 -176.064765 
L 137.337661 -175.768939 
L 137.688606 -175.473114 
L 138.043023 -175.177288 
L 138.405724 -174.881462 
L 138.779318 -174.585636 
L 139.163848 -174.28981 
L 139.55665 -173.993984 
L 139.952449 -173.698158 
L 140.34368 -173.402332 
L 140.721018 -173.106506 
L 141.074067 -172.81068 
L 141.39214 -172.514855 
L 141.665062 -172.219029 
L 141.88392 -171.923203 
L 142.041668 -171.627377 
L 142.133563 -171.331551 
L 142.157367 -171.035725 
L 142.113326 -170.739899 
L 142.003958 -170.444073 
L 141.833679 -170.148247 
L 141.608353 -169.852421 
L 141.334811 -169.556596 
L 141.020408 -169.26077 
L 140.672643 -168.964944 
L 140.298867 -168.669118 
L 139.90605 -168.373292 
L 139.500586 -168.077466 
L 139.088119 -167.78164 
L 138.673331 -167.485814 
L 138.259723 -167.189988 
L 137.849374 -166.894162 
L 137.442722 -166.598337 
L 137.038429 -166.302511 
L 136.633365 -166.006685 
L 136.222773 -165.710859 
L 135.800624 -165.415033 
L 135.360163 -165.119207 
L 134.894594 -164.823381 
L 134.397842 -164.527555 
L 133.865297 -164.231729 
L 133.294442 -163.935903 
L 132.685289 -163.640078 
L 132.040554 -163.344252 
L 131.365562 -163.048426 
L 130.667877 -162.7526 
L 129.956723 -162.456774 
L 129.242265 -162.160948 
L 128.534838 -161.865122 
L 127.844218 -161.569296 
L 127.17901 -161.27347 
L 126.546208 -160.977644 
L 125.95095 -160.681819 
L 125.396472 -160.385993 
L 124.884227 -160.090167 
L 124.414136 -159.794341 
L 123.984912 -159.498515 
L 123.594418 -159.202689 
L 123.240004 -158.906863 
L 122.918809 -158.611037 
L 122.627989 -158.315211 
L 122.364892 -158.019385 
L 122.127161 -157.72356 
L 121.912785 -157.427734 
L 121.720105 -157.131908 
L 121.547789 -156.836082 
L 121.394784 -156.540256 
L 121.260248 -156.24443 
L 121.143471 -155.948604 
L 121.043788 -155.652778 
L 120.960487 -155.356952 
L 120.892727 -155.061126 
L 120.83946 -154.7653 
L 120.799373 -154.469475 
L 120.770863 -154.173649 
L 120.752038 -153.877823 
L 120.740757 -153.581997 
L 120.734704 -153.286171 
L 120.731492 -152.990345 
L 120.728783 -152.694519 
L 120.72442 -152.398693 
L 120.716552 -152.102867 
L 120.703737 -151.807041 
z
" style="stroke: #323232; stroke-opacity: 0.4; stroke-width: 1.25"/>
    </defs>
    <g clip-path="url(#pae51d102b8)">
     <use xlink:href="#m3280732100" x="0" y="288" style="fill: #159152; fill-opacity: 0.4; stroke: #323232; stroke-opacity: 0.4; stroke-width: 1.25"/>
    </g>
   </g>
   <g id="FillBetweenPolyCollection_3">
    <defs>
     <path id="m21fff9b484" d="M 177.654988 -154.066491 
L 173.020412 -154.066491 
L 172.936119 -154.339494 
L 172.859866 -154.612497 
L 172.790087 -154.8855 
L 172.724708 -155.158504 
L 172.661237 -155.431507 
L 172.596872 -155.70451 
L 172.528612 -155.977513 
L 172.453371 -156.250516 
L 172.368081 -156.523519 
L 172.269776 -156.796523 
L 172.155663 -157.069526 
L 172.02316 -157.342529 
L 171.869928 -157.615532 
L 171.693871 -157.888535 
L 171.493143 -158.161538 
L 171.266134 -158.434542 
L 171.011472 -158.707545 
L 170.728024 -158.980548 
L 170.414914 -159.253551 
L 170.071553 -159.526554 
L 169.697675 -159.799558 
L 169.293385 -160.072561 
L 168.859206 -160.345564 
L 168.396113 -160.618567 
L 167.905553 -160.89157 
L 167.389446 -161.164573 
L 166.850149 -161.437577 
L 166.290394 -161.71058 
L 165.713205 -161.983583 
L 165.121777 -162.256586 
L 164.519368 -162.529589 
L 163.909175 -162.802593 
L 163.294238 -163.075596 
L 162.677369 -163.348599 
L 162.06113 -163.621602 
L 161.447848 -163.894605 
L 160.839678 -164.167608 
L 160.238708 -164.440612 
L 159.647079 -164.713615 
L 159.067114 -164.986618 
L 158.501422 -165.259621 
L 157.952971 -165.532624 
L 157.425089 -165.805628 
L 156.921409 -166.078631 
L 156.445728 -166.351634 
L 156.001811 -166.624637 
L 155.593136 -166.89764 
L 155.222623 -167.170643 
L 154.892367 -167.443647 
L 154.603401 -167.71665 
L 154.355542 -167.989653 
L 154.147313 -168.262656 
L 153.975983 -168.535659 
L 153.837704 -168.808663 
L 153.727756 -169.081666 
L 153.640877 -169.354669 
L 153.571636 -169.627672 
L 153.514841 -169.900675 
L 153.465933 -170.173678 
L 153.421329 -170.446682 
L 153.378707 -170.719685 
L 153.337195 -170.992688 
L 153.297457 -171.265691 
L 153.261674 -171.538694 
L 153.233426 -171.811698 
L 153.217478 -172.084701 
L 153.219491 -172.357704 
L 153.245683 -172.630707 
L 153.302444 -172.90371 
L 153.395949 -173.176713 
L 153.531769 -173.449717 
L 153.714525 -173.72272 
L 153.947575 -173.995723 
L 154.232785 -174.268726 
L 154.57036 -174.541729 
L 154.95878 -174.814733 
L 155.394821 -175.087736 
L 155.873674 -175.360739 
L 156.389148 -175.633742 
L 156.933958 -175.906745 
L 157.500072 -176.179748 
L 158.079104 -176.452752 
L 158.662729 -176.725755 
L 159.243094 -176.998758 
L 159.813208 -177.271761 
L 160.36728 -177.544764 
L 160.900989 -177.817767 
L 161.411671 -178.090771 
L 161.898406 -178.363774 
L 162.362002 -178.636777 
L 162.804877 -178.90978 
L 163.230843 -179.182783 
L 163.644805 -179.455787 
L 164.05239 -179.72879 
L 164.459537 -180.001793 
L 164.872068 -180.274796 
L 165.295269 -180.547799 
L 165.733509 -180.820802 
L 166.189928 -181.093806 
L 184.485472 -181.093806 
L 184.485472 -181.093806 
L 184.941892 -180.820802 
L 185.380131 -180.547799 
L 185.803332 -180.274796 
L 186.215863 -180.001793 
L 186.623011 -179.72879 
L 187.030595 -179.455787 
L 187.444557 -179.182783 
L 187.870523 -178.90978 
L 188.313398 -178.636777 
L 188.776994 -178.363774 
L 189.263729 -178.090771 
L 189.774411 -177.817767 
L 190.308121 -177.544764 
L 190.862193 -177.271761 
L 191.432307 -176.998758 
L 192.012671 -176.725755 
L 192.596296 -176.452752 
L 193.175328 -176.179748 
L 193.741442 -175.906745 
L 194.286252 -175.633742 
L 194.801726 -175.360739 
L 195.280579 -175.087736 
L 195.716621 -174.814733 
L 196.105041 -174.541729 
L 196.442616 -174.268726 
L 196.727825 -173.995723 
L 196.960876 -173.72272 
L 197.143631 -173.449717 
L 197.279451 -173.176713 
L 197.372956 -172.90371 
L 197.429717 -172.630707 
L 197.455909 -172.357704 
L 197.457922 -172.084701 
L 197.441974 -171.811698 
L 197.413726 -171.538694 
L 197.377943 -171.265691 
L 197.338205 -170.992688 
L 197.296693 -170.719685 
L 197.254072 -170.446682 
L 197.209467 -170.173678 
L 197.160559 -169.900675 
L 197.103765 -169.627672 
L 197.034524 -169.354669 
L 196.947644 -169.081666 
L 196.837697 -168.808663 
L 196.699417 -168.535659 
L 196.528087 -168.262656 
L 196.319859 -167.989653 
L 196.072 -167.71665 
L 195.783034 -167.443647 
L 195.452777 -167.170643 
L 195.082264 -166.89764 
L 194.673589 -166.624637 
L 194.229672 -166.351634 
L 193.753991 -166.078631 
L 193.250311 -165.805628 
L 192.72243 -165.532624 
L 192.173978 -165.259621 
L 191.608287 -164.986618 
L 191.028321 -164.713615 
L 190.436693 -164.440612 
L 189.835723 -164.167608 
L 189.227553 -163.894605 
L 188.61427 -163.621602 
L 187.998031 -163.348599 
L 187.381163 -163.075596 
L 186.766225 -162.802593 
L 186.156032 -162.529589 
L 185.553623 -162.256586 
L 184.962196 -161.983583 
L 184.385006 -161.71058 
L 183.825252 -161.437577 
L 183.285954 -161.164573 
L 182.769847 -160.89157 
L 182.279287 -160.618567 
L 181.816194 -160.345564 
L 181.382015 -160.072561 
L 180.977726 -159.799558 
L 180.603848 -159.526554 
L 180.260486 -159.253551 
L 179.947376 -158.980548 
L 179.663928 -158.707545 
L 179.409266 -158.434542 
L 179.182257 -158.161538 
L 178.981529 -157.888535 
L 178.805473 -157.615532 
L 178.65224 -157.342529 
L 178.519738 -157.069526 
L 178.405624 -156.796523 
L 178.30732 -156.523519 
L 178.222029 -156.250516 
L 178.146788 -155.977513 
L 178.078528 -155.70451 
L 178.014163 -155.431507 
L 177.950693 -155.158504 
L 177.885313 -154.8855 
L 177.815534 -154.612497 
L 177.739281 -154.339494 
L 177.654988 -154.066491 
z
" style="stroke: #323232; stroke-opacity: 0.4; stroke-width: 1.25"/>
    </defs>
    <g clip-path="url(#pae51d102b8)">
     <use xlink:href="#m21fff9b484" x="0" y="288" style="fill: #c0c0c0; fill-opacity: 0.4; stroke: #323232; stroke-opacity: 0.4; stroke-width: 1.25"/>
    </g>
   </g>
   <g id="matplotlib.axis_1">
    <g id="xtick_1">
     <g id="line2d_1">
      <defs>
       <path id="m9d3261af65" d="M 0 0 
L 0 3.5 
" style="stroke: #000000; stroke-width: 0.8"/>
      </defs>
      <g>
       <use xlink:href="#m9d3261af65" x="64.73659" y="192.550081" style="stroke: #000000; stroke-width: 0.8"/>
      </g>
     </g>
     <g id="text_1">
      <!-- MTL-sensory -->
      <g transform="translate(18.273489 267.913467) rotate(-30) scale(0.18 -0.18)">
       <defs>
        <path id="DejaVuSans-4d" d="M 628 4666 
L 1569 4666 
L 2759 1491 
L 3956 4666 
L 4897 4666 
L 4897 0 
L 4281 0 
L 4281 4097 
L 3078 897 
L 2444 897 
L 1241 4097 
L 1241 0 
L 628 0 
L 628 4666 
z
" transform="scale(0.015625)"/>
        <path id="DejaVuSans-54" d="M -19 4666 
L 3928 4666 
L 3928 4134 
L 2272 4134 
L 2272 0 
L 1638 0 
L 1638 4134 
L -19 4134 
L -19 4666 
z
" transform="scale(0.015625)"/>
        <path id="DejaVuSans-4c" d="M 628 4666 
L 1259 4666 
L 1259 531 
L 3531 531 
L 3531 0 
L 628 0 
L 628 4666 
z
" transform="scale(0.015625)"/>
        <path id="DejaVuSans-2d" d="M 313 2009 
L 1997 2009 
L 1997 1497 
L 313 1497 
L 313 2009 
z
" transform="scale(0.015625)"/>
        <path id="DejaVuSans-73" d="M 2834 3397 
L 2834 2853 
Q 2591 2978 2328 3040 
Q 2066 3103 1784 3103 
Q 1356 3103 1142 2972 
Q 928 2841 928 2578 
Q 928 2378 1081 2264 
Q 1234 2150 1697 2047 
L 1894 2003 
Q 2506 1872 2764 1633 
Q 3022 1394 3022 966 
Q 3022 478 2636 193 
Q 2250 -91 1575 -91 
Q 1294 -91 989 -36 
Q 684 19 347 128 
L 347 722 
Q 666 556 975 473 
Q 1284 391 1588 391 
Q 1994 391 2212 530 
Q 2431 669 2431 922 
Q 2431 1156 2273 1281 
Q 2116 1406 1581 1522 
L 1381 1569 
Q 847 1681 609 1914 
Q 372 2147 372 2553 
Q 372 3047 722 3315 
Q 1072 3584 1716 3584 
Q 2034 3584 2315 3537 
Q 2597 3491 2834 3397 
z
" transform="scale(0.015625)"/>
        <path id="DejaVuSans-65" d="M 3597 1894 
L 3597 1613 
L 953 1613 
Q 991 1019 1311 708 
Q 1631 397 2203 397 
Q 2534 397 2845 478 
Q 3156 559 3463 722 
L 3463 178 
Q 3153 47 2828 -22 
Q 2503 -91 2169 -91 
Q 1331 -91 842 396 
Q 353 884 353 1716 
Q 353 2575 817 3079 
Q 1281 3584 2069 3584 
Q 2775 3584 3186 3129 
Q 3597 2675 3597 1894 
z
M 3022 2063 
Q 3016 2534 2758 2815 
Q 2500 3097 2075 3097 
Q 1594 3097 1305 2825 
Q 1016 2553 972 2059 
L 3022 2063 
z
" transform="scale(0.015625)"/>
        <path id="DejaVuSans-6e" d="M 3513 2113 
L 3513 0 
L 2938 0 
L 2938 2094 
Q 2938 2591 2744 2837 
Q 2550 3084 2163 3084 
Q 1697 3084 1428 2787 
Q 1159 2491 1159 1978 
L 1159 0 
L 581 0 
L 581 3500 
L 1159 3500 
L 1159 2956 
Q 1366 3272 1645 3428 
Q 1925 3584 2291 3584 
Q 2894 3584 3203 3211 
Q 3513 2838 3513 2113 
z
" transform="scale(0.015625)"/>
        <path id="DejaVuSans-6f" d="M 1959 3097 
Q 1497 3097 1228 2736 
Q 959 2375 959 1747 
Q 959 1119 1226 758 
Q 1494 397 1959 397 
Q 2419 397 2687 759 
Q 2956 1122 2956 1747 
Q 2956 2369 2687 2733 
Q 2419 3097 1959 3097 
z
M 1959 3584 
Q 2709 3584 3137 3096 
Q 3566 2609 3566 1747 
Q 3566 888 3137 398 
Q 2709 -91 1959 -91 
Q 1206 -91 779 398 
Q 353 888 353 1747 
Q 353 2609 779 3096 
Q 1206 3584 1959 3584 
z
" transform="scale(0.015625)"/>
        <path id="DejaVuSans-72" d="M 2631 2963 
Q 2534 3019 2420 3045 
Q 2306 3072 2169 3072 
Q 1681 3072 1420 2755 
Q 1159 2438 1159 1844 
L 1159 0 
L 581 0 
L 581 3500 
L 1159 3500 
L 1159 2956 
Q 1341 3275 1631 3429 
Q 1922 3584 2338 3584 
Q 2397 3584 2469 3576 
Q 2541 3569 2628 3553 
L 2631 2963 
z
" transform="scale(0.015625)"/>
        <path id="DejaVuSans-79" d="M 2059 -325 
Q 1816 -950 1584 -1140 
Q 1353 -1331 966 -1331 
L 506 -1331 
L 506 -850 
L 844 -850 
Q 1081 -850 1212 -737 
Q 1344 -625 1503 -206 
L 1606 56 
L 191 3500 
L 800 3500 
L 1894 763 
L 2988 3500 
L 3597 3500 
L 2059 -325 
z
" transform="scale(0.015625)"/>
       </defs>
       <use xlink:href="#DejaVuSans-4d"/>
       <use xlink:href="#DejaVuSans-54" transform="translate(86.279297 0)"/>
       <use xlink:href="#DejaVuSans-4c" transform="translate(147.363281 0)"/>
       <use xlink:href="#DejaVuSans-2d" transform="translate(201.326172 0)"/>
       <use xlink:href="#DejaVuSans-73" transform="translate(237.410156 0)"/>
       <use xlink:href="#DejaVuSans-65" transform="translate(289.509766 0)"/>
       <use xlink:href="#DejaVuSans-6e" transform="translate(351.033203 0)"/>
       <use xlink:href="#DejaVuSans-73" transform="translate(414.412109 0)"/>
       <use xlink:href="#DejaVuSans-6f" transform="translate(466.511719 0)"/>
       <use xlink:href="#DejaVuSans-72" transform="translate(527.693359 0)"/>
       <use xlink:href="#DejaVuSans-79" transform="translate(568.806641 0)"/>
      </g>
     </g>
    </g>
    <g id="xtick_2">
     <g id="line2d_2">
      <g>
       <use xlink:href="#m9d3261af65" x="120.037145" y="192.550081" style="stroke: #000000; stroke-width: 0.8"/>
      </g>
     </g>
     <g id="text_2">
      <!-- MTL-semantic -->
      <g transform="translate(68.345822 273.950498) rotate(-30) scale(0.18 -0.18)">
       <defs>
        <path id="DejaVuSans-6d" d="M 3328 2828 
Q 3544 3216 3844 3400 
Q 4144 3584 4550 3584 
Q 5097 3584 5394 3201 
Q 5691 2819 5691 2113 
L 5691 0 
L 5113 0 
L 5113 2094 
Q 5113 2597 4934 2840 
Q 4756 3084 4391 3084 
Q 3944 3084 3684 2787 
Q 3425 2491 3425 1978 
L 3425 0 
L 2847 0 
L 2847 2094 
Q 2847 2600 2669 2842 
Q 2491 3084 2119 3084 
Q 1678 3084 1418 2786 
Q 1159 2488 1159 1978 
L 1159 0 
L 581 0 
L 581 3500 
L 1159 3500 
L 1159 2956 
Q 1356 3278 1631 3431 
Q 1906 3584 2284 3584 
Q 2666 3584 2933 3390 
Q 3200 3197 3328 2828 
z
" transform="scale(0.015625)"/>
        <path id="DejaVuSans-61" d="M 2194 1759 
Q 1497 1759 1228 1600 
Q 959 1441 959 1056 
Q 959 750 1161 570 
Q 1363 391 1709 391 
Q 2188 391 2477 730 
Q 2766 1069 2766 1631 
L 2766 1759 
L 2194 1759 
z
M 3341 1997 
L 3341 0 
L 2766 0 
L 2766 531 
Q 2569 213 2275 61 
Q 1981 -91 1556 -91 
Q 1019 -91 701 211 
Q 384 513 384 1019 
Q 384 1609 779 1909 
Q 1175 2209 1959 2209 
L 2766 2209 
L 2766 2266 
Q 2766 2663 2505 2880 
Q 2244 3097 1772 3097 
Q 1472 3097 1187 3025 
Q 903 2953 641 2809 
L 641 3341 
Q 956 3463 1253 3523 
Q 1550 3584 1831 3584 
Q 2591 3584 2966 3190 
Q 3341 2797 3341 1997 
z
" transform="scale(0.015625)"/>
        <path id="DejaVuSans-74" d="M 1172 4494 
L 1172 3500 
L 2356 3500 
L 2356 3053 
L 1172 3053 
L 1172 1153 
Q 1172 725 1289 603 
Q 1406 481 1766 481 
L 2356 481 
L 2356 0 
L 1766 0 
Q 1100 0 847 248 
Q 594 497 594 1153 
L 594 3053 
L 172 3053 
L 172 3500 
L 594 3500 
L 594 4494 
L 1172 4494 
z
" transform="scale(0.015625)"/>
        <path id="DejaVuSans-69" d="M 603 3500 
L 1178 3500 
L 1178 0 
L 603 0 
L 603 3500 
z
M 603 4863 
L 1178 4863 
L 1178 4134 
L 603 4134 
L 603 4863 
z
" transform="scale(0.015625)"/>
        <path id="DejaVuSans-63" d="M 3122 3366 
L 3122 2828 
Q 2878 2963 2633 3030 
Q 2388 3097 2138 3097 
Q 1578 3097 1268 2742 
Q 959 2388 959 1747 
Q 959 1106 1268 751 
Q 1578 397 2138 397 
Q 2388 397 2633 464 
Q 2878 531 3122 666 
L 3122 134 
Q 2881 22 2623 -34 
Q 2366 -91 2075 -91 
Q 1284 -91 818 406 
Q 353 903 353 1747 
Q 353 2603 823 3093 
Q 1294 3584 2113 3584 
Q 2378 3584 2631 3529 
Q 2884 3475 3122 3366 
z
" transform="scale(0.015625)"/>
       </defs>
       <use xlink:href="#DejaVuSans-4d"/>
       <use xlink:href="#DejaVuSans-54" transform="translate(86.279297 0)"/>
       <use xlink:href="#DejaVuSans-4c" transform="translate(147.363281 0)"/>
       <use xlink:href="#DejaVuSans-2d" transform="translate(201.326172 0)"/>
       <use xlink:href="#DejaVuSans-73" transform="translate(237.410156 0)"/>
       <use xlink:href="#DejaVuSans-65" transform="translate(289.509766 0)"/>
       <use xlink:href="#DejaVuSans-6d" transform="translate(351.033203 0)"/>
       <use xlink:href="#DejaVuSans-61" transform="translate(448.445312 0)"/>
       <use xlink:href="#DejaVuSans-6e" transform="translate(509.724609 0)"/>
       <use xlink:href="#DejaVuSans-74" transform="translate(573.103516 0)"/>
       <use xlink:href="#DejaVuSans-69" transform="translate(612.3125 0)"/>
       <use xlink:href="#DejaVuSans-63" transform="translate(640.095703 0)"/>
      </g>
     </g>
    </g>
    <g id="xtick_3">
     <g id="line2d_3">
      <g>
       <use xlink:href="#m9d3261af65" x="175.3377" y="192.550081" style="stroke: #000000; stroke-width: 0.8"/>
      </g>
     </g>
     <g id="text_3">
      <!-- labels -->
      <g transform="translate(154.909759 237.850654) rotate(-30) scale(0.18 -0.18)">
       <defs>
        <path id="DejaVuSans-6c" d="M 603 4863 
L 1178 4863 
L 1178 0 
L 603 0 
L 603 4863 
z
" transform="scale(0.015625)"/>
        <path id="DejaVuSans-62" d="M 3116 1747 
Q 3116 2381 2855 2742 
Q 2594 3103 2138 3103 
Q 1681 3103 1420 2742 
Q 1159 2381 1159 1747 
Q 1159 1113 1420 752 
Q 1681 391 2138 391 
Q 2594 391 2855 752 
Q 3116 1113 3116 1747 
z
M 1159 2969 
Q 1341 3281 1617 3432 
Q 1894 3584 2278 3584 
Q 2916 3584 3314 3078 
Q 3713 2572 3713 1747 
Q 3713 922 3314 415 
Q 2916 -91 2278 -91 
Q 1894 -91 1617 61 
Q 1341 213 1159 525 
L 1159 0 
L 581 0 
L 581 4863 
L 1159 4863 
L 1159 2969 
z
" transform="scale(0.015625)"/>
       </defs>
       <use xlink:href="#DejaVuSans-6c"/>
       <use xlink:href="#DejaVuSans-61" transform="translate(27.783203 0)"/>
       <use xlink:href="#DejaVuSans-62" transform="translate(89.0625 0)"/>
       <use xlink:href="#DejaVuSans-65" transform="translate(152.539062 0)"/>
       <use xlink:href="#DejaVuSans-6c" transform="translate(214.0625 0)"/>
       <use xlink:href="#DejaVuSans-73" transform="translate(241.845703 0)"/>
      </g>
     </g>
    </g>
   </g>
   <g id="matplotlib.axis_2"/>
   <g id="line2d_4">
    <path d="M 64.73659 109.731906 
L 64.73659 99.454644 
L 175.3377 99.454644 
L 175.3377 109.731906 
" style="fill: none; stroke: #000000; stroke-width: 2; stroke-linecap: square"/>
   </g>
   <g id="line2d_5">
    <path d="M 64.73659 87.464501 
L 64.73659 77.187235 
L 117.272117 77.187235 
L 117.272117 87.464501 
" style="fill: none; stroke: #000000; stroke-width: 2; stroke-linecap: square"/>
   </g>
   <g id="line2d_6">
    <path d="M 122.802173 87.464501 
L 122.802173 77.187235 
L 175.3377 77.187235 
L 175.3377 87.464501 
" style="fill: none; stroke: #000000; stroke-width: 2; stroke-linecap: square"/>
   </g>
   <g id="patch_3">
    <path d="M 34.87429 192.550081 
L 34.87429 102.624 
" style="fill: none; stroke: #000000; stroke-width: 0.8; stroke-linejoin: miter; stroke-linecap: square"/>
   </g>
   <g id="patch_4">
    <path d="M 34.87429 192.550081 
L 205.2 192.550081 
" style="fill: none; stroke: #000000; stroke-width: 0.8; stroke-linejoin: miter; stroke-linecap: square"/>
   </g>
   <g id="PathCollection_1">
    <defs>
     <path id="ma94269cf78" d="M 0 1.5 
C 0.397805 1.5 0.77937 1.341951 1.06066 1.06066 
C 1.341951 0.77937 1.5 0.397805 1.5 0 
C 1.5 -0.397805 1.341951 -0.77937 1.06066 -1.06066 
C 0.77937 -1.341951 0.397805 -1.5 0 -1.5 
C -0.397805 -1.5 -0.77937 -1.341951 -1.06066 -1.06066 
C -1.341951 -0.77937 -1.5 -0.397805 -1.5 0 
C -1.5 0.397805 -1.341951 0.77937 -1.06066 1.06066 
C -0.77937 1.341951 -0.397805 1.5 0 1.5 
z
"/>
    </defs>
    <g clip-path="url(#pae51d102b8)">
     <use xlink:href="#ma94269cf78" x="73.729688" y="133.330993" style="fill-opacity: 0.1"/>
     <use xlink:href="#ma94269cf78" x="70.798577" y="119.257852" style="fill-opacity: 0.1"/>
     <use xlink:href="#ma94269cf78" x="61.045723" y="121.861598" style="fill-opacity: 0.1"/>
     <use xlink:href="#ma94269cf78" x="55.470459" y="118.117364" style="fill-opacity: 0.1"/>
     <use xlink:href="#ma94269cf78" x="62.684744" y="126.74631" style="fill-opacity: 0.1"/>
     <use xlink:href="#ma94269cf78" x="58.813549" y="117.407254" style="fill-opacity: 0.1"/>
     <use xlink:href="#ma94269cf78" x="56.607134" y="133.287954" style="fill-opacity: 0.1"/>
     <use xlink:href="#ma94269cf78" x="54.8583" y="119.838852" style="fill-opacity: 0.1"/>
     <use xlink:href="#ma94269cf78" x="69.726787" y="121.990708" style="fill-opacity: 0.1"/>
     <use xlink:href="#ma94269cf78" x="53.929256" y="122.098301" style="fill-opacity: 0.1"/>
     <use xlink:href="#ma94269cf78" x="70.721896" y="124.422306" style="fill-opacity: 0.1"/>
     <use xlink:href="#ma94269cf78" x="56.926971" y="127.305793" style="fill-opacity: 0.1"/>
     <use xlink:href="#ma94269cf78" x="55.435525" y="127.348831" style="fill-opacity: 0.1"/>
     <use xlink:href="#ma94269cf78" x="55.658518" y="119.257852" style="fill-opacity: 0.1"/>
     <use xlink:href="#ma94269cf78" x="68.542325" y="128.446276" style="fill-opacity: 0.1"/>
     <use xlink:href="#ma94269cf78" x="59.104056" y="114.265542" style="fill-opacity: 0.1"/>
     <use xlink:href="#ma94269cf78" x="62.978905" y="127.564018" style="fill-opacity: 0.1"/>
     <use xlink:href="#ma94269cf78" x="66.0056" y="120.054039" style="fill-opacity: 0.1"/>
     <use xlink:href="#ma94269cf78" x="72.712062" y="135.009437" style="fill-opacity: 0.1"/>
     <use xlink:href="#ma94269cf78" x="69.758859" y="120.312258" style="fill-opacity: 0.1"/>
     <use xlink:href="#ma94269cf78" x="59.656192" y="126.445052" style="fill-opacity: 0.1"/>
     <use xlink:href="#ma94269cf78" x="56.584907" y="128.855133" style="fill-opacity: 0.1"/>
     <use xlink:href="#ma94269cf78" x="54.901371" y="132.706955" style="fill-opacity: 0.1"/>
     <use xlink:href="#ma94269cf78" x="60.347907" y="131.803175" style="fill-opacity: 0.1"/>
     <use xlink:href="#ma94269cf78" x="59.47459" y="134.191734" style="fill-opacity: 0.1"/>
     <use xlink:href="#ma94269cf78" x="63.766409" y="125.218492" style="fill-opacity: 0.1"/>
     <use xlink:href="#ma94269cf78" x="68.790813" y="126.595683" style="fill-opacity: 0.1"/>
     <use xlink:href="#ma94269cf78" x="69.063868" y="126.767832" style="fill-opacity: 0.1"/>
     <use xlink:href="#ma94269cf78" x="59.947978" y="128.015908" style="fill-opacity: 0.1"/>
     <use xlink:href="#ma94269cf78" x="62.080547" y="126.48809" style="fill-opacity: 0.1"/>
     <use xlink:href="#ma94269cf78" x="57.683578" y="129.479171" style="fill-opacity: 0.1"/>
     <use xlink:href="#ma94269cf78" x="71.11928" y="117.514848" style="fill-opacity: 0.1"/>
     <use xlink:href="#ma94269cf78" x="54.933971" y="126.552645" style="fill-opacity: 0.1"/>
     <use xlink:href="#ma94269cf78" x="69.094212" y="123.604603" style="fill-opacity: 0.1"/>
     <use xlink:href="#ma94269cf78" x="70.901394" y="130.83484" style="fill-opacity: 0.1"/>
     <use xlink:href="#ma94269cf78" x="70.872906" y="129.005759" style="fill-opacity: 0.1"/>
     <use xlink:href="#ma94269cf78" x="59.414963" y="139.270116" style="fill-opacity: 0.1"/>
     <use xlink:href="#ma94269cf78" x="61.945308" y="116.783216" style="fill-opacity: 0.1"/>
     <use xlink:href="#ma94269cf78" x="66.674313" y="128.123501" style="fill-opacity: 0.1"/>
     <use xlink:href="#ma94269cf78" x="59.71136" y="119.150259" style="fill-opacity: 0.1"/>
     <use xlink:href="#ma94269cf78" x="61.879825" y="125.476717" style="fill-opacity: 0.1"/>
     <use xlink:href="#ma94269cf78" x="58.035363" y="121.797043" style="fill-opacity: 0.1"/>
     <use xlink:href="#ma94269cf78" x="63.848593" y="129.436132" style="fill-opacity: 0.1"/>
     <use xlink:href="#ma94269cf78" x="54.663313" y="119.645182" style="fill-opacity: 0.1"/>
     <use xlink:href="#ma94269cf78" x="71.368141" y="126.724793" style="fill-opacity: 0.1"/>
     <use xlink:href="#ma94269cf78" x="55.378772" y="135.676514" style="fill-opacity: 0.1"/>
     <use xlink:href="#ma94269cf78" x="65.153227" y="127.434903" style="fill-opacity: 0.1"/>
     <use xlink:href="#ma94269cf78" x="60.463186" y="116.481958" style="fill-opacity: 0.1"/>
     <use xlink:href="#ma94269cf78" x="66.451857" y="129.780429" style="fill-opacity: 0.1"/>
     <use xlink:href="#ma94269cf78" x="74.899357" y="123.002081" style="fill-opacity: 0.1"/>
     <use xlink:href="#ma94269cf78" x="67.956636" y="128.747539" style="fill-opacity: 0.1"/>
     <use xlink:href="#ma94269cf78" x="54.458703" y="123.583081" style="fill-opacity: 0.1"/>
     <use xlink:href="#ma94269cf78" x="63.197076" y="129.134869" style="fill-opacity: 0.1"/>
     <use xlink:href="#ma94269cf78" x="64.958165" y="124.314712" style="fill-opacity: 0.1"/>
     <use xlink:href="#ma94269cf78" x="65.536844" y="120.979335" style="fill-opacity: 0.1"/>
     <use xlink:href="#ma94269cf78" x="68.749032" y="119.322407" style="fill-opacity: 0.1"/>
     <use xlink:href="#ma94269cf78" x="59.816966" y="117.407254" style="fill-opacity: 0.1"/>
     <use xlink:href="#ma94269cf78" x="56.526903" y="122.442598" style="fill-opacity: 0.1"/>
     <use xlink:href="#ma94269cf78" x="62.362552" y="135.676514" style="fill-opacity: 0.1"/>
     <use xlink:href="#ma94269cf78" x="74.832386" y="119.903407" style="fill-opacity: 0.1"/>
     <use xlink:href="#ma94269cf78" x="57.815855" y="121.775521" style="fill-opacity: 0.1"/>
     <use xlink:href="#ma94269cf78" x="73.672804" y="121.065412" style="fill-opacity: 0.1"/>
     <use xlink:href="#ma94269cf78" x="65.705587" y="127.585535" style="fill-opacity: 0.1"/>
     <use xlink:href="#ma94269cf78" x="63.783461" y="129.307022" style="fill-opacity: 0.1"/>
     <use xlink:href="#ma94269cf78" x="73.18743" y="117.923699" style="fill-opacity: 0.1"/>
     <use xlink:href="#ma94269cf78" x="63.8209" y="121.667928" style="fill-opacity: 0.1"/>
     <use xlink:href="#ma94269cf78" x="69.695228" y="132.620878" style="fill-opacity: 0.1"/>
     <use xlink:href="#ma94269cf78" x="62.503007" y="119.494555" style="fill-opacity: 0.1"/>
     <use xlink:href="#ma94269cf78" x="73.674141" y="127.06909" style="fill-opacity: 0.1"/>
     <use xlink:href="#ma94269cf78" x="68.939985" y="123.626119" style="fill-opacity: 0.1"/>
     <use xlink:href="#ma94269cf78" x="69.152274" y="117.213584" style="fill-opacity: 0.1"/>
     <use xlink:href="#ma94269cf78" x="60.925727" y="126.315942" style="fill-opacity: 0.1"/>
     <use xlink:href="#ma94269cf78" x="70.41659" y="133.632251" style="fill-opacity: 0.1"/>
     <use xlink:href="#ma94269cf78" x="67.74629" y="113.469356" style="fill-opacity: 0.1"/>
     <use xlink:href="#ma94269cf78" x="58.98578" y="129.070314" style="fill-opacity: 0.1"/>
     <use xlink:href="#ma94269cf78" x="57.227633" y="118.224957" style="fill-opacity: 0.1"/>
     <use xlink:href="#ma94269cf78" x="71.292835" y="126.079233" style="fill-opacity: 0.1"/>
     <use xlink:href="#ma94269cf78" x="74.893457" y="116.180695" style="fill-opacity: 0.1"/>
     <use xlink:href="#ma94269cf78" x="63.810611" y="127.628573" style="fill-opacity: 0.1"/>
     <use xlink:href="#ma94269cf78" x="66.74918" y="124.61597" style="fill-opacity: 0.1"/>
     <use xlink:href="#ma94269cf78" x="72.649494" y="121.969191" style="fill-opacity: 0.1"/>
     <use xlink:href="#ma94269cf78" x="63.790363" y="122.442598" style="fill-opacity: 0.1"/>
     <use xlink:href="#ma94269cf78" x="74.732153" y="118.762924" style="fill-opacity: 0.1"/>
     <use xlink:href="#ma94269cf78" x="66.412222" y="119.43" style="fill-opacity: 0.1"/>
     <use xlink:href="#ma94269cf78" x="71.83203" y="131.953802" style="fill-opacity: 0.1"/>
     <use xlink:href="#ma94269cf78" x="73.780303" y="122.464114" style="fill-opacity: 0.1"/>
     <use xlink:href="#ma94269cf78" x="71.716047" y="127.176683" style="fill-opacity: 0.1"/>
     <use xlink:href="#ma94269cf78" x="57.202762" y="114.868064" style="fill-opacity: 0.1"/>
     <use xlink:href="#ma94269cf78" x="67.587852" y="127.779199" style="fill-opacity: 0.1"/>
     <use xlink:href="#ma94269cf78" x="62.489933" y="130.877874" style="fill-opacity: 0.1"/>
     <use xlink:href="#ma94269cf78" x="55.063703" y="128.661463" style="fill-opacity: 0.1"/>
     <use xlink:href="#ma94269cf78" x="63.056166" y="130.64117" style="fill-opacity: 0.1"/>
     <use xlink:href="#ma94269cf78" x="59.398628" y="127.155161" style="fill-opacity: 0.1"/>
     <use xlink:href="#ma94269cf78" x="72.457395" y="121.000852" style="fill-opacity: 0.1"/>
     <use xlink:href="#ma94269cf78" x="54.413184" y="134.536031" style="fill-opacity: 0.1"/>
     <use xlink:href="#ma94269cf78" x="74.889389" y="114.050355" style="fill-opacity: 0.1"/>
     <use xlink:href="#ma94269cf78" x="61.537316" y="136.66637" style="fill-opacity: 0.1"/>
     <use xlink:href="#ma94269cf78" x="61.566914" y="120.161632" style="fill-opacity: 0.1"/>
     <use xlink:href="#ma94269cf78" x="54.037669" y="122.614746" style="fill-opacity: 0.1"/>
     <use xlink:href="#ma94269cf78" x="57.773859" y="114.394657" style="fill-opacity: 0.1"/>
    </g>
   </g>
   <g id="PathCollection_2">
    <g clip-path="url(#pae51d102b8)">
     <use xlink:href="#ma94269cf78" x="117.852983" y="116.912326" style="fill-opacity: 0.1"/>
     <use xlink:href="#ma94269cf78" x="129.533166" y="106.906194" style="fill-opacity: 0.1"/>
     <use xlink:href="#ma94269cf78" x="111.180538" y="119.386962" style="fill-opacity: 0.1"/>
     <use xlink:href="#ma94269cf78" x="129.887314" y="113.576949" style="fill-opacity: 0.1"/>
     <use xlink:href="#ma94269cf78" x="128.210313" y="126.358975" style="fill-opacity: 0.1"/>
     <use xlink:href="#ma94269cf78" x="119.023207" y="106.906194" style="fill-opacity: 0.1"/>
     <use xlink:href="#ma94269cf78" x="116.20373" y="123.475487" style="fill-opacity: 0.1"/>
     <use xlink:href="#ma94269cf78" x="114.125386" y="119.817335" style="fill-opacity: 0.1"/>
     <use xlink:href="#ma94269cf78" x="122.56913" y="113.576949" style="fill-opacity: 0.1"/>
     <use xlink:href="#ma94269cf78" x="109.708651" y="113.038987" style="fill-opacity: 0.1"/>
     <use xlink:href="#ma94269cf78" x="109.322243" y="116.589546" style="fill-opacity: 0.1"/>
     <use xlink:href="#ma94269cf78" x="118.46209" y="110.456758" style="fill-opacity: 0.1"/>
     <use xlink:href="#ma94269cf78" x="110.482847" y="124.099526" style="fill-opacity: 0.1"/>
     <use xlink:href="#ma94269cf78" x="114.550024" y="116.266771" style="fill-opacity: 0.1"/>
     <use xlink:href="#ma94269cf78" x="113.869162" y="116.589546" style="fill-opacity: 0.1"/>
     <use xlink:href="#ma94269cf78" x="114.577679" y="113.340246" style="fill-opacity: 0.1"/>
     <use xlink:href="#ma94269cf78" x="111.876005" y="123.884344" style="fill-opacity: 0.1"/>
     <use xlink:href="#ma94269cf78" x="109.243278" y="110.456758" style="fill-opacity: 0.1"/>
     <use xlink:href="#ma94269cf78" x="111.531572" y="112.931394" style="fill-opacity: 0.1"/>
     <use xlink:href="#ma94269cf78" x="122.657955" y="106.906194" style="fill-opacity: 0.1"/>
     <use xlink:href="#ma94269cf78" x="130.527798" y="123.131191" style="fill-opacity: 0.1"/>
     <use xlink:href="#ma94269cf78" x="130.883685" y="118.956589" style="fill-opacity: 0.1"/>
     <use xlink:href="#ma94269cf78" x="118.025401" y="109.596017" style="fill-opacity: 0.1"/>
     <use xlink:href="#ma94269cf78" x="112.581622" y="110.887126" style="fill-opacity: 0.1"/>
     <use xlink:href="#ma94269cf78" x="123.106586" y="124.293196" style="fill-opacity: 0.1"/>
     <use xlink:href="#ma94269cf78" x="119.822697" y="113.576949" style="fill-opacity: 0.1"/>
     <use xlink:href="#ma94269cf78" x="130.862998" y="112.931394" style="fill-opacity: 0.1"/>
     <use xlink:href="#ma94269cf78" x="110.421577" y="117.321178" style="fill-opacity: 0.1"/>
     <use xlink:href="#ma94269cf78" x="126.302354" y="120.247704" style="fill-opacity: 0.1"/>
     <use xlink:href="#ma94269cf78" x="115.356473" y="110.650423" style="fill-opacity: 0.1"/>
     <use xlink:href="#ma94269cf78" x="114.317267" y="124.293196" style="fill-opacity: 0.1"/>
     <use xlink:href="#ma94269cf78" x="123.631782" y="116.24525" style="fill-opacity: 0.1"/>
     <use xlink:href="#ma94269cf78" x="114.420006" y="124.293196" style="fill-opacity: 0.1"/>
     <use xlink:href="#ma94269cf78" x="123.705985" y="116.266771" style="fill-opacity: 0.1"/>
     <use xlink:href="#ma94269cf78" x="120.420013" y="110.86561" style="fill-opacity: 0.1"/>
     <use xlink:href="#ma94269cf78" x="118.357976" y="109.596017" style="fill-opacity: 0.1"/>
     <use xlink:href="#ma94269cf78" x="121.246851" y="124.293196" style="fill-opacity: 0.1"/>
     <use xlink:href="#ma94269cf78" x="115.326677" y="109.596017" style="fill-opacity: 0.1"/>
     <use xlink:href="#ma94269cf78" x="124.606623" y="116.912326" style="fill-opacity: 0.1"/>
     <use xlink:href="#ma94269cf78" x="118.15376" y="110.887126" style="fill-opacity: 0.1"/>
     <use xlink:href="#ma94269cf78" x="116.952382" y="122.055263" style="fill-opacity: 0.1"/>
     <use xlink:href="#ma94269cf78" x="127.307109" y="116.481958" style="fill-opacity: 0.1"/>
     <use xlink:href="#ma94269cf78" x="129.437507" y="119.064182" style="fill-opacity: 0.1"/>
     <use xlink:href="#ma94269cf78" x="109.994726" y="113.340246" style="fill-opacity: 0.1"/>
     <use xlink:href="#ma94269cf78" x="114.122795" y="136.192959" style="fill-opacity: 0.1"/>
     <use xlink:href="#ma94269cf78" x="116.68636" y="119.924924" style="fill-opacity: 0.1"/>
     <use xlink:href="#ma94269cf78" x="127.004273" y="115.599695" style="fill-opacity: 0.1"/>
     <use xlink:href="#ma94269cf78" x="130.776323" y="113.038987" style="fill-opacity: 0.1"/>
     <use xlink:href="#ma94269cf78" x="130.410903" y="119.924924" style="fill-opacity: 0.1"/>
     <use xlink:href="#ma94269cf78" x="128.994692" y="110.887126" style="fill-opacity: 0.1"/>
     <use xlink:href="#ma94269cf78" x="115.536924" y="128.274128" style="fill-opacity: 0.1"/>
     <use xlink:href="#ma94269cf78" x="130.920543" y="122.937526" style="fill-opacity: 0.1"/>
     <use xlink:href="#ma94269cf78" x="114.494261" y="119.924924" style="fill-opacity: 0.1"/>
     <use xlink:href="#ma94269cf78" x="111.319701" y="113.792136" style="fill-opacity: 0.1"/>
     <use xlink:href="#ma94269cf78" x="130.012317" y="119.924924" style="fill-opacity: 0.1"/>
     <use xlink:href="#ma94269cf78" x="114.140342" y="109.38083" style="fill-opacity: 0.1"/>
     <use xlink:href="#ma94269cf78" x="124.234861" y="124.293196" style="fill-opacity: 0.1"/>
     <use xlink:href="#ma94269cf78" x="110.267889" y="123.152713" style="fill-opacity: 0.1"/>
     <use xlink:href="#ma94269cf78" x="125.140481" y="116.589546" style="fill-opacity: 0.1"/>
     <use xlink:href="#ma94269cf78" x="128.480881" y="106.906194" style="fill-opacity: 0.1"/>
     <use xlink:href="#ma94269cf78" x="115.003398" y="124.293196" style="fill-opacity: 0.1"/>
     <use xlink:href="#ma94269cf78" x="117.361857" y="110.456758" style="fill-opacity: 0.1"/>
     <use xlink:href="#ma94269cf78" x="117.256549" y="130.942428" style="fill-opacity: 0.1"/>
     <use xlink:href="#ma94269cf78" x="125.540396" y="115.599695" style="fill-opacity: 0.1"/>
     <use xlink:href="#ma94269cf78" x="114.237383" y="113.899729" style="fill-opacity: 0.1"/>
     <use xlink:href="#ma94269cf78" x="112.778463" y="117.01992" style="fill-opacity: 0.1"/>
     <use xlink:href="#ma94269cf78" x="118.915465" y="121.732483" style="fill-opacity: 0.1"/>
     <use xlink:href="#ma94269cf78" x="115.711943" y="116.460436" style="fill-opacity: 0.1"/>
     <use xlink:href="#ma94269cf78" x="127.540084" y="122.399559" style="fill-opacity: 0.1"/>
     <use xlink:href="#ma94269cf78" x="114.235936" y="119.042666" style="fill-opacity: 0.1"/>
     <use xlink:href="#ma94269cf78" x="120.09" y="127.628573" style="fill-opacity: 0.1"/>
     <use xlink:href="#ma94269cf78" x="129.827192" y="110.887126" style="fill-opacity: 0.1"/>
     <use xlink:href="#ma94269cf78" x="123.001204" y="106.906194" style="fill-opacity: 0.1"/>
     <use xlink:href="#ma94269cf78" x="128.161668" y="113.878207" style="fill-opacity: 0.1"/>
     <use xlink:href="#ma94269cf78" x="129.774681" y="119.064182" style="fill-opacity: 0.1"/>
     <use xlink:href="#ma94269cf78" x="125.584119" y="106.906194" style="fill-opacity: 0.1"/>
     <use xlink:href="#ma94269cf78" x="124.45179" y="127.628573" style="fill-opacity: 0.1"/>
     <use xlink:href="#ma94269cf78" x="130.388647" y="119.602149" style="fill-opacity: 0.1"/>
     <use xlink:href="#ma94269cf78" x="130.9734" y="116.589546" style="fill-opacity: 0.1"/>
     <use xlink:href="#ma94269cf78" x="118.97143" y="116.374365" style="fill-opacity: 0.1"/>
     <use xlink:href="#ma94269cf78" x="110.544689" y="120.548962" style="fill-opacity: 0.1"/>
     <use xlink:href="#ma94269cf78" x="115.453703" y="110.887126" style="fill-opacity: 0.1"/>
     <use xlink:href="#ma94269cf78" x="112.347154" y="119.279369" style="fill-opacity: 0.1"/>
     <use xlink:href="#ma94269cf78" x="118.211925" y="114.114915" style="fill-opacity: 0.1"/>
     <use xlink:href="#ma94269cf78" x="111.881183" y="120.548962" style="fill-opacity: 0.1"/>
     <use xlink:href="#ma94269cf78" x="122.340254" y="114.63136" style="fill-opacity: 0.1"/>
     <use xlink:href="#ma94269cf78" x="117.444833" y="116.481958" style="fill-opacity: 0.1"/>
     <use xlink:href="#ma94269cf78" x="128.783168" y="117.321178" style="fill-opacity: 0.1"/>
     <use xlink:href="#ma94269cf78" x="130.384867" y="116.589546" style="fill-opacity: 0.1"/>
     <use xlink:href="#ma94269cf78" x="121.074249" y="116.266771" style="fill-opacity: 0.1"/>
     <use xlink:href="#ma94269cf78" x="115.056192" y="122.399559" style="fill-opacity: 0.1"/>
     <use xlink:href="#ma94269cf78" x="122.077302" y="110.650423" style="fill-opacity: 0.1"/>
     <use xlink:href="#ma94269cf78" x="128.81359" y="124.293196" style="fill-opacity: 0.1"/>
     <use xlink:href="#ma94269cf78" x="117.974066" y="109.918792" style="fill-opacity: 0.1"/>
     <use xlink:href="#ma94269cf78" x="121.189128" y="119.795814" style="fill-opacity: 0.1"/>
     <use xlink:href="#ma94269cf78" x="114.986053" y="116.266771" style="fill-opacity: 0.1"/>
     <use xlink:href="#ma94269cf78" x="119.05156" y="120.570483" style="fill-opacity: 0.1"/>
     <use xlink:href="#ma94269cf78" x="117.863026" y="119.924924" style="fill-opacity: 0.1"/>
     <use xlink:href="#ma94269cf78" x="114.471995" y="124.293196" style="fill-opacity: 0.1"/>
     <use xlink:href="#ma94269cf78" x="120.166911" y="117.01992" style="fill-opacity: 0.1"/>
    </g>
   </g>
   <g id="PathCollection_3">
    <g clip-path="url(#pae51d102b8)">
     <use xlink:href="#ma94269cf78" x="171.143282" y="106.906194" style="fill-opacity: 0.1"/>
     <use xlink:href="#ma94269cf78" x="172.529203" y="114.416174" style="fill-opacity: 0.1"/>
     <use xlink:href="#ma94269cf78" x="175.890052" y="120.548962" style="fill-opacity: 0.1"/>
     <use xlink:href="#ma94269cf78" x="180.880918" y="117.105996" style="fill-opacity: 0.1"/>
     <use xlink:href="#ma94269cf78" x="171.654848" y="116.589546" style="fill-opacity: 0.1"/>
     <use xlink:href="#ma94269cf78" x="184.720186" y="106.906194" style="fill-opacity: 0.1"/>
     <use xlink:href="#ma94269cf78" x="183.352267" y="126.574162" style="fill-opacity: 0.1"/>
     <use xlink:href="#ma94269cf78" x="165.354629" y="119.924924" style="fill-opacity: 0.1"/>
     <use xlink:href="#ma94269cf78" x="169.888218" y="113.232652" style="fill-opacity: 0.1"/>
     <use xlink:href="#ma94269cf78" x="174.146206" y="110.887126" style="fill-opacity: 0.1"/>
     <use xlink:href="#ma94269cf78" x="166.591981" y="116.589546" style="fill-opacity: 0.1"/>
     <use xlink:href="#ma94269cf78" x="171.985955" y="126.574162" style="fill-opacity: 0.1"/>
     <use xlink:href="#ma94269cf78" x="180.648711" y="124.293196" style="fill-opacity: 0.1"/>
     <use xlink:href="#ma94269cf78" x="179.330721" y="119.924924" style="fill-opacity: 0.1"/>
     <use xlink:href="#ma94269cf78" x="178.044871" y="124.293196" style="fill-opacity: 0.1"/>
     <use xlink:href="#ma94269cf78" x="179.994635" y="116.159178" style="fill-opacity: 0.1"/>
     <use xlink:href="#ma94269cf78" x="168.810547" y="133.933509" style="fill-opacity: 0.1"/>
     <use xlink:href="#ma94269cf78" x="171.836027" y="114.63136" style="fill-opacity: 0.1"/>
     <use xlink:href="#ma94269cf78" x="179.236223" y="116.589546" style="fill-opacity: 0.1"/>
     <use xlink:href="#ma94269cf78" x="183.726457" y="106.906194" style="fill-opacity: 0.1"/>
     <use xlink:href="#ma94269cf78" x="176.303868" y="113.899729" style="fill-opacity: 0.1"/>
     <use xlink:href="#ma94269cf78" x="170.530968" y="133.847438" style="fill-opacity: 0.1"/>
     <use xlink:href="#ma94269cf78" x="164.9464" y="127.628573" style="fill-opacity: 0.1"/>
     <use xlink:href="#ma94269cf78" x="179.990398" y="106.906194" style="fill-opacity: 0.1"/>
     <use xlink:href="#ma94269cf78" x="164.451987" y="133.868954" style="fill-opacity: 0.1"/>
     <use xlink:href="#ma94269cf78" x="172.521333" y="117.321178" style="fill-opacity: 0.1"/>
     <use xlink:href="#ma94269cf78" x="176.01319" y="120.46289" style="fill-opacity: 0.1"/>
     <use xlink:href="#ma94269cf78" x="184.674899" y="116.266771" style="fill-opacity: 0.1"/>
     <use xlink:href="#ma94269cf78" x="166.257228" y="120.871742" style="fill-opacity: 0.1"/>
     <use xlink:href="#ma94269cf78" x="173.257123" y="113.878207" style="fill-opacity: 0.1"/>
     <use xlink:href="#ma94269cf78" x="164.815402" y="123.540042" style="fill-opacity: 0.1"/>
     <use xlink:href="#ma94269cf78" x="171.85622" y="112.501021" style="fill-opacity: 0.1"/>
     <use xlink:href="#ma94269cf78" x="178.041478" y="124.529899" style="fill-opacity: 0.1"/>
     <use xlink:href="#ma94269cf78" x="170.450634" y="116.589546" style="fill-opacity: 0.1"/>
     <use xlink:href="#ma94269cf78" x="168.917305" y="113.576949" style="fill-opacity: 0.1"/>
     <use xlink:href="#ma94269cf78" x="166.83697" y="106.906194" style="fill-opacity: 0.1"/>
     <use xlink:href="#ma94269cf78" x="177.044059" y="123.453971" style="fill-opacity: 0.1"/>
     <use xlink:href="#ma94269cf78" x="179.657116" y="113.792136" style="fill-opacity: 0.1"/>
     <use xlink:href="#ma94269cf78" x="179.14143" y="119.924924" style="fill-opacity: 0.1"/>
     <use xlink:href="#ma94269cf78" x="185.266606" y="115.492102" style="fill-opacity: 0.1"/>
     <use xlink:href="#ma94269cf78" x="164.337385" y="116.589546" style="fill-opacity: 0.1"/>
     <use xlink:href="#ma94269cf78" x="178.593723" y="115.384508" style="fill-opacity: 0.1"/>
     <use xlink:href="#ma94269cf78" x="177.558399" y="119.924924" style="fill-opacity: 0.1"/>
     <use xlink:href="#ma94269cf78" x="177.30064" y="110.456758" style="fill-opacity: 0.1"/>
     <use xlink:href="#ma94269cf78" x="185.574282" y="124.293196" style="fill-opacity: 0.1"/>
     <use xlink:href="#ma94269cf78" x="164.650794" y="110.456758" style="fill-opacity: 0.1"/>
     <use xlink:href="#ma94269cf78" x="179.683935" y="123.260301" style="fill-opacity: 0.1"/>
     <use xlink:href="#ma94269cf78" x="182.276342" y="119.924924" style="fill-opacity: 0.1"/>
     <use xlink:href="#ma94269cf78" x="175.554638" y="129.888022" style="fill-opacity: 0.1"/>
     <use xlink:href="#ma94269cf78" x="171.664966" y="109.596017" style="fill-opacity: 0.1"/>
     <use xlink:href="#ma94269cf78" x="181.771149" y="124.293196" style="fill-opacity: 0.1"/>
     <use xlink:href="#ma94269cf78" x="166.428624" y="110.456758" style="fill-opacity: 0.1"/>
     <use xlink:href="#ma94269cf78" x="174.055516" y="117.622441" style="fill-opacity: 0.1"/>
     <use xlink:href="#ma94269cf78" x="175.779051" y="120.14011" style="fill-opacity: 0.1"/>
     <use xlink:href="#ma94269cf78" x="179.628059" y="116.912326" style="fill-opacity: 0.1"/>
     <use xlink:href="#ma94269cf78" x="166.288002" y="110.456758" style="fill-opacity: 0.1"/>
     <use xlink:href="#ma94269cf78" x="169.31568" y="120.247704" style="fill-opacity: 0.1"/>
     <use xlink:href="#ma94269cf78" x="173.353551" y="106.906194" style="fill-opacity: 0.1"/>
     <use xlink:href="#ma94269cf78" x="178.065006" y="119.386962" style="fill-opacity: 0.1"/>
     <use xlink:href="#ma94269cf78" x="183.897359" y="109.38083" style="fill-opacity: 0.1"/>
     <use xlink:href="#ma94269cf78" x="177.966161" y="116.589546" style="fill-opacity: 0.1"/>
     <use xlink:href="#ma94269cf78" x="167.229786" y="113.340246" style="fill-opacity: 0.1"/>
     <use xlink:href="#ma94269cf78" x="185.968239" y="127.628573" style="fill-opacity: 0.1"/>
     <use xlink:href="#ma94269cf78" x="183.561683" y="110.456758" style="fill-opacity: 0.1"/>
     <use xlink:href="#ma94269cf78" x="175.397884" y="113.576949" style="fill-opacity: 0.1"/>
     <use xlink:href="#ma94269cf78" x="184.680131" y="106.906194" style="fill-opacity: 0.1"/>
     <use xlink:href="#ma94269cf78" x="176.253052" y="120.441373" style="fill-opacity: 0.1"/>
     <use xlink:href="#ma94269cf78" x="184.701324" y="113.146576" style="fill-opacity: 0.1"/>
     <use xlink:href="#ma94269cf78" x="182.635103" y="112.931394" style="fill-opacity: 0.1"/>
     <use xlink:href="#ma94269cf78" x="185.6963" y="119.903407" style="fill-opacity: 0.1"/>
     <use xlink:href="#ma94269cf78" x="184.623389" y="119.924924" style="fill-opacity: 0.1"/>
     <use xlink:href="#ma94269cf78" x="165.074665" y="113.576949" style="fill-opacity: 0.1"/>
     <use xlink:href="#ma94269cf78" x="168.143585" y="112.931394" style="fill-opacity: 0.1"/>
     <use xlink:href="#ma94269cf78" x="172.885335" y="119.924924" style="fill-opacity: 0.1"/>
     <use xlink:href="#ma94269cf78" x="185.339197" y="112.931394" style="fill-opacity: 0.1"/>
     <use xlink:href="#ma94269cf78" x="170.914295" y="106.906194" style="fill-opacity: 0.1"/>
     <use xlink:href="#ma94269cf78" x="167.827169" y="124.293196" style="fill-opacity: 0.1"/>
     <use xlink:href="#ma94269cf78" x="183.882845" y="122.916004" style="fill-opacity: 0.1"/>
     <use xlink:href="#ma94269cf78" x="174.151933" y="122.808411" style="fill-opacity: 0.1"/>
     <use xlink:href="#ma94269cf78" x="184.359999" y="116.481958" style="fill-opacity: 0.1"/>
     <use xlink:href="#ma94269cf78" x="167.821923" y="116.589546" style="fill-opacity: 0.1"/>
     <use xlink:href="#ma94269cf78" x="178.901655" y="119.924924" style="fill-opacity: 0.1"/>
     <use xlink:href="#ma94269cf78" x="174.016321" y="120.46289" style="fill-opacity: 0.1"/>
     <use xlink:href="#ma94269cf78" x="165.969493" y="114.114915" style="fill-opacity: 0.1"/>
     <use xlink:href="#ma94269cf78" x="179.683509" y="120.46289" style="fill-opacity: 0.1"/>
     <use xlink:href="#ma94269cf78" x="169.750105" y="113.340246" style="fill-opacity: 0.1"/>
     <use xlink:href="#ma94269cf78" x="165.153893" y="106.906194" style="fill-opacity: 0.1"/>
     <use xlink:href="#ma94269cf78" x="165.60357" y="116.481958" style="fill-opacity: 0.1"/>
     <use xlink:href="#ma94269cf78" x="165.62866" y="113.038987" style="fill-opacity: 0.1"/>
     <use xlink:href="#ma94269cf78" x="184.356844" y="119.924924" style="fill-opacity: 0.1"/>
     <use xlink:href="#ma94269cf78" x="180.643986" y="112.823801" style="fill-opacity: 0.1"/>
     <use xlink:href="#ma94269cf78" x="184.142928" y="122.679301" style="fill-opacity: 0.1"/>
     <use xlink:href="#ma94269cf78" x="179.155259" y="110.564352" style="fill-opacity: 0.1"/>
     <use xlink:href="#ma94269cf78" x="175.977858" y="120.011" style="fill-opacity: 0.1"/>
     <use xlink:href="#ma94269cf78" x="171.01201" y="124.293196" style="fill-opacity: 0.1"/>
     <use xlink:href="#ma94269cf78" x="186.352736" y="113.576949" style="fill-opacity: 0.1"/>
     <use xlink:href="#ma94269cf78" x="172.289292" y="129.888022" style="fill-opacity: 0.1"/>
     <use xlink:href="#ma94269cf78" x="174.688448" y="119.924924" style="fill-opacity: 0.1"/>
     <use xlink:href="#ma94269cf78" x="172.644456" y="124.293196" style="fill-opacity: 0.1"/>
     <use xlink:href="#ma94269cf78" x="185.944942" y="106.906194" style="fill-opacity: 0.1"/>
    </g>
   </g>
   <g id="text_4">
    <!-- *** -->
    <g transform="translate(108.037145 100.409334) scale(0.16 -0.16)">
     <defs>
      <path id="DejaVuSans-2a" d="M 3009 3897 
L 1888 3291 
L 3009 2681 
L 2828 2375 
L 1778 3009 
L 1778 1831 
L 1422 1831 
L 1422 3009 
L 372 2375 
L 191 2681 
L 1313 3291 
L 191 3897 
L 372 4206 
L 1422 3572 
L 1422 4750 
L 1778 4750 
L 1778 3572 
L 2828 4206 
L 3009 3897 
z
" transform="scale(0.015625)"/>
     </defs>
     <use xlink:href="#DejaVuSans-2a"/>
     <use xlink:href="#DejaVuSans-2a" transform="translate(50 0)"/>
     <use xlink:href="#DejaVuSans-2a" transform="translate(100 0)"/>
    </g>
   </g>
   <g id="text_5">
    <!-- *** -->
    <g transform="translate(80.386867 78.141925) scale(0.16 -0.16)">
     <use xlink:href="#DejaVuSans-2a"/>
     <use xlink:href="#DejaVuSans-2a" transform="translate(50 0)"/>
     <use xlink:href="#DejaVuSans-2a" transform="translate(100 0)"/>
    </g>
   </g>
   <g id="text_6">
    <!-- ns -->
    <g transform="translate(138.449923 73.003296) scale(0.16 -0.16)">
     <use xlink:href="#DejaVuSans-6e"/>
     <use xlink:href="#DejaVuSans-73" transform="translate(63.378906 0)"/>
    </g>
   </g>
   <g id="text_7">
    <!-- Compositional -->
    <g transform="translate(48.679332 29.437125) scale(0.2 -0.2)">
     <defs>
      <path id="DejaVuSans-43" d="M 4122 4306 
L 4122 3641 
Q 3803 3938 3442 4084 
Q 3081 4231 2675 4231 
Q 1875 4231 1450 3742 
Q 1025 3253 1025 2328 
Q 1025 1406 1450 917 
Q 1875 428 2675 428 
Q 3081 428 3442 575 
Q 3803 722 4122 1019 
L 4122 359 
Q 3791 134 3420 21 
Q 3050 -91 2638 -91 
Q 1578 -91 968 557 
Q 359 1206 359 2328 
Q 359 3453 968 4101 
Q 1578 4750 2638 4750 
Q 3056 4750 3426 4639 
Q 3797 4528 4122 4306 
z
" transform="scale(0.015625)"/>
      <path id="DejaVuSans-70" d="M 1159 525 
L 1159 -1331 
L 581 -1331 
L 581 3500 
L 1159 3500 
L 1159 2969 
Q 1341 3281 1617 3432 
Q 1894 3584 2278 3584 
Q 2916 3584 3314 3078 
Q 3713 2572 3713 1747 
Q 3713 922 3314 415 
Q 2916 -91 2278 -91 
Q 1894 -91 1617 61 
Q 1341 213 1159 525 
z
M 3116 1747 
Q 3116 2381 2855 2742 
Q 2594 3103 2138 3103 
Q 1681 3103 1420 2742 
Q 1159 2381 1159 1747 
Q 1159 1113 1420 752 
Q 1681 391 2138 391 
Q 2594 391 2855 752 
Q 3116 1113 3116 1747 
z
" transform="scale(0.015625)"/>
     </defs>
     <use xlink:href="#DejaVuSans-43"/>
     <use xlink:href="#DejaVuSans-6f" transform="translate(69.824219 0)"/>
     <use xlink:href="#DejaVuSans-6d" transform="translate(131.005859 0)"/>
     <use xlink:href="#DejaVuSans-70" transform="translate(228.417969 0)"/>
     <use xlink:href="#DejaVuSans-6f" transform="translate(291.894531 0)"/>
     <use xlink:href="#DejaVuSans-73" transform="translate(353.076172 0)"/>
     <use xlink:href="#DejaVuSans-69" transform="translate(405.175781 0)"/>
     <use xlink:href="#DejaVuSans-74" transform="translate(432.958984 0)"/>
     <use xlink:href="#DejaVuSans-69" transform="translate(472.167969 0)"/>
     <use xlink:href="#DejaVuSans-6f" transform="translate(499.951172 0)"/>
     <use xlink:href="#DejaVuSans-6e" transform="translate(561.132812 0)"/>
     <use xlink:href="#DejaVuSans-61" transform="translate(624.511719 0)"/>
     <use xlink:href="#DejaVuSans-6c" transform="translate(685.791016 0)"/>
    </g>
    <!-- Out-Of-Distribution -->
    <g transform="translate(25.237145 51.83275) scale(0.2 -0.2)">
     <defs>
      <path id="DejaVuSans-4f" d="M 2522 4238 
Q 1834 4238 1429 3725 
Q 1025 3213 1025 2328 
Q 1025 1447 1429 934 
Q 1834 422 2522 422 
Q 3209 422 3611 934 
Q 4013 1447 4013 2328 
Q 4013 3213 3611 3725 
Q 3209 4238 2522 4238 
z
M 2522 4750 
Q 3503 4750 4090 4092 
Q 4678 3434 4678 2328 
Q 4678 1225 4090 567 
Q 3503 -91 2522 -91 
Q 1538 -91 948 565 
Q 359 1222 359 2328 
Q 359 3434 948 4092 
Q 1538 4750 2522 4750 
z
" transform="scale(0.015625)"/>
      <path id="DejaVuSans-75" d="M 544 1381 
L 544 3500 
L 1119 3500 
L 1119 1403 
Q 1119 906 1312 657 
Q 1506 409 1894 409 
Q 2359 409 2629 706 
Q 2900 1003 2900 1516 
L 2900 3500 
L 3475 3500 
L 3475 0 
L 2900 0 
L 2900 538 
Q 2691 219 2414 64 
Q 2138 -91 1772 -91 
Q 1169 -91 856 284 
Q 544 659 544 1381 
z
M 1991 3584 
L 1991 3584 
z
" transform="scale(0.015625)"/>
      <path id="DejaVuSans-66" d="M 2375 4863 
L 2375 4384 
L 1825 4384 
Q 1516 4384 1395 4259 
Q 1275 4134 1275 3809 
L 1275 3500 
L 2222 3500 
L 2222 3053 
L 1275 3053 
L 1275 0 
L 697 0 
L 697 3053 
L 147 3053 
L 147 3500 
L 697 3500 
L 697 3744 
Q 697 4328 969 4595 
Q 1241 4863 1831 4863 
L 2375 4863 
z
" transform="scale(0.015625)"/>
      <path id="DejaVuSans-44" d="M 1259 4147 
L 1259 519 
L 2022 519 
Q 2988 519 3436 956 
Q 3884 1394 3884 2338 
Q 3884 3275 3436 3711 
Q 2988 4147 2022 4147 
L 1259 4147 
z
M 628 4666 
L 1925 4666 
Q 3281 4666 3915 4102 
Q 4550 3538 4550 2338 
Q 4550 1131 3912 565 
Q 3275 0 1925 0 
L 628 0 
L 628 4666 
z
" transform="scale(0.015625)"/>
     </defs>
     <use xlink:href="#DejaVuSans-4f"/>
     <use xlink:href="#DejaVuSans-75" transform="translate(78.710938 0)"/>
     <use xlink:href="#DejaVuSans-74" transform="translate(142.089844 0)"/>
     <use xlink:href="#DejaVuSans-2d" transform="translate(181.298828 0)"/>
     <use xlink:href="#DejaVuSans-4f" transform="translate(220.132812 0)"/>
     <use xlink:href="#DejaVuSans-66" transform="translate(298.84375 0)"/>
     <use xlink:href="#DejaVuSans-2d" transform="translate(328.548828 0)"/>
     <use xlink:href="#DejaVuSans-44" transform="translate(364.632812 0)"/>
     <use xlink:href="#DejaVuSans-69" transform="translate(441.634766 0)"/>
     <use xlink:href="#DejaVuSans-73" transform="translate(469.417969 0)"/>
     <use xlink:href="#DejaVuSans-74" transform="translate(521.517578 0)"/>
     <use xlink:href="#DejaVuSans-72" transform="translate(560.726562 0)"/>
     <use xlink:href="#DejaVuSans-69" transform="translate(601.839844 0)"/>
     <use xlink:href="#DejaVuSans-62" transform="translate(629.623047 0)"/>
     <use xlink:href="#DejaVuSans-75" transform="translate(693.099609 0)"/>
     <use xlink:href="#DejaVuSans-74" transform="translate(756.478516 0)"/>
     <use xlink:href="#DejaVuSans-69" transform="translate(795.6875 0)"/>
     <use xlink:href="#DejaVuSans-6f" transform="translate(823.470703 0)"/>
     <use xlink:href="#DejaVuSans-6e" transform="translate(884.652344 0)"/>
    </g>
    <!--  -->
    <g transform="translate(120.037145 74.228375) scale(0.2 -0.2)"/>
    <!--  -->
    <g transform="translate(120.037145 96.624) scale(0.2 -0.2)"/>
   </g>
   <g id="LineCollection_1">
    <path d="M 64.73659 125.427456 
L 64.73659 124.261975 
" clip-path="url(#pae51d102b8)" style="fill: none; stroke: #000000; stroke-width: 2"/>
    <path d="M 120.037145 117.758973 
L 120.037145 116.583415 
" clip-path="url(#pae51d102b8)" style="fill: none; stroke: #000000; stroke-width: 2"/>
    <path d="M 175.3377 118.022329 
L 175.3377 116.730627 
" clip-path="url(#pae51d102b8)" style="fill: none; stroke: #000000; stroke-width: 2"/>
   </g>
   <g id="line2d_7">
    <defs>
     <path id="m00991a25ad" d="M 5 0 
L -5 -0 
" style="stroke: #000000"/>
    </defs>
    <g clip-path="url(#pae51d102b8)">
     <use xlink:href="#m00991a25ad" x="64.73659" y="125.427456" style="stroke: #000000"/>
     <use xlink:href="#m00991a25ad" x="120.037145" y="117.758973" style="stroke: #000000"/>
     <use xlink:href="#m00991a25ad" x="175.3377" y="118.022329" style="stroke: #000000"/>
    </g>
   </g>
   <g id="line2d_8">
    <g clip-path="url(#pae51d102b8)">
     <use xlink:href="#m00991a25ad" x="64.73659" y="124.261975" style="stroke: #000000"/>
     <use xlink:href="#m00991a25ad" x="120.037145" y="116.583415" style="stroke: #000000"/>
     <use xlink:href="#m00991a25ad" x="175.3377" y="116.730627" style="stroke: #000000"/>
    </g>
   </g>
   <g id="line2d_9">
    <defs>
     <path id="macde27b1e3" d="M 0 3 
C 0.795609 3 1.55874 2.683901 2.12132 2.12132 
C 2.683901 1.55874 3 0.795609 3 0 
C 3 -0.795609 2.683901 -1.55874 2.12132 -2.12132 
C 1.55874 -2.683901 0.795609 -3 0 -3 
C -0.795609 -3 -1.55874 -2.683901 -2.12132 -2.12132 
C -2.683901 -1.55874 -3 -0.795609 -3 0 
C -3 0.795609 -2.683901 1.55874 -2.12132 2.12132 
C -1.55874 2.683901 -0.795609 3 0 3 
z
" style="stroke: #000000"/>
    </defs>
    <g clip-path="url(#pae51d102b8)">
     <use xlink:href="#macde27b1e3" x="64.73659" y="124.844715" style="stroke: #000000"/>
     <use xlink:href="#macde27b1e3" x="120.037145" y="117.171194" style="stroke: #000000"/>
     <use xlink:href="#macde27b1e3" x="175.3377" y="117.376478" style="stroke: #000000"/>
    </g>
   </g>
  </g>
 </g>
 <defs>
  <clipPath id="pae51d102b8">
   <rect x="34.87429" y="102.624" width="170.32571" height="89.926081"/>
  </clipPath>
 </defs>
</svg>
