<?xml version="1.0" encoding="utf-8" standalone="no"?>
<!DOCTYPE svg PUBLIC "-//W3C//DTD SVG 1.1//EN"
  "http://www.w3.org/Graphics/SVG/1.1/DTD/svg11.dtd">
<svg xmlns:xlink="http://www.w3.org/1999/xlink" width="216pt" height="288pt" viewBox="0 0 216 288" xmlns="http://www.w3.org/2000/svg" version="1.1">
 <metadata>
  <rdf:RDF xmlns:dc="http://purl.org/dc/elements/1.1/" xmlns:cc="http://creativecommons.org/ns#" xmlns:rdf="http://www.w3.org/1999/02/22-rdf-syntax-ns#">
   <cc:Work>
    <dc:type rdf:resource="http://purl.org/dc/dcmitype/StillImage"/>
    <dc:date>2025-09-24T18:35:10.049101</dc:date>
    <dc:format>image/svg+xml</dc:format>
    <dc:creator>
     <cc:Agent>
      <dc:title>Matplotlib v3.10.1, https://matplotlib.org/</dc:title>
     </cc:Agent>
    </dc:creator>
   </cc:Work>
  </rdf:RDF>
 </metadata>
 <defs>
  <style type="text/css">*{stroke-linejoin: round; stroke-linecap: butt}</style>
 </defs>
 <g id="figure_1">
  <g id="patch_1">
   <path d="M 0 288 
L 216 288 
L 216 0 
L 0 0 
L 0 288 
z
" style="fill: none"/>
  </g>
  <g id="axes_1">
   <g id="patch_2">
    <path d="M 34.87429 192.550081 
L 205.2 192.550081 
L 205.2 102.624 
L 34.87429 102.624 
L 34.87429 192.550081 
z
" style="fill: none"/>
   </g>
   <g id="FillBetweenPolyCollection_1">
    <defs>
     <path id="m65b28c2e12" d="M 85.165179 -165.708034 
L 44.308 -165.708034 
L 43.76068 -165.859316 
L 43.31554 -166.010598 
L 42.977091 -166.16188 
L 42.747813 -166.313162 
L 42.628116 -166.464444 
L 42.616367 -166.615726 
L 42.708989 -166.767008 
L 42.900606 -166.91829 
L 43.184259 -167.069572 
L 43.551647 -167.220854 
L 43.993413 -167.372136 
L 44.499435 -167.523418 
L 45.059137 -167.6747 
L 45.661778 -167.825982 
L 46.296732 -167.977264 
L 46.95374 -168.128546 
L 47.623127 -168.279828 
L 48.29597 -168.43111 
L 48.964238 -168.582392 
L 49.620878 -168.733674 
L 50.259859 -168.884956 
L 50.876182 -169.036238 
L 51.465857 -169.18752 
L 52.025846 -169.338802 
L 52.553991 -169.490084 
L 53.048925 -169.641366 
L 53.509975 -169.792648 
L 53.937061 -169.94393 
L 54.3306 -170.095213 
L 54.691415 -170.246495 
L 55.020651 -170.397777 
L 55.319704 -170.549059 
L 55.590158 -170.700341 
L 55.833741 -170.851623 
L 56.052276 -171.002905 
L 56.247657 -171.154187 
L 56.421821 -171.305469 
L 56.576726 -171.456751 
L 56.714335 -171.608033 
L 56.8366 -171.759315 
L 56.945441 -171.910597 
L 57.042735 -172.061879 
L 57.130289 -172.213161 
L 57.209823 -172.364443 
L 57.282944 -172.515725 
L 57.351124 -172.667007 
L 57.415679 -172.818289 
L 57.477742 -172.969571 
L 57.538247 -173.120853 
L 57.597913 -173.272135 
L 57.657235 -173.423417 
L 57.716481 -173.574699 
L 57.775693 -173.725981 
L 57.834699 -173.877263 
L 57.893128 -174.028545 
L 57.950443 -174.179827 
L 58.005964 -174.331109 
L 58.058911 -174.482391 
L 58.108446 -174.633673 
L 58.153718 -174.784955 
L 58.193911 -174.936237 
L 58.228292 -175.087519 
L 58.256257 -175.238801 
L 58.277373 -175.390083 
L 58.291416 -175.541365 
L 58.298402 -175.692647 
L 58.298607 -175.843929 
L 58.292583 -175.995211 
L 58.281159 -176.146493 
L 58.265431 -176.297775 
L 58.246752 -176.449057 
L 58.226693 -176.60034 
L 58.207015 -176.751622 
L 58.189619 -176.902904 
L 58.176493 -177.054186 
L 58.16966 -177.205468 
L 58.171115 -177.35675 
L 58.182769 -177.508032 
L 58.206394 -177.659314 
L 58.243565 -177.810596 
L 58.29562 -177.961878 
L 58.363619 -178.11316 
L 58.448317 -178.264442 
L 58.550145 -178.415724 
L 58.6692 -178.567006 
L 58.805249 -178.718288 
L 58.957742 -178.86957 
L 59.125832 -179.020852 
L 59.308403 -179.172134 
L 59.504106 -179.323416 
L 59.711397 -179.474698 
L 59.928581 -179.62598 
L 60.153854 -179.777262 
L 60.385348 -179.928544 
L 60.621168 -180.079826 
L 60.859435 -180.231108 
L 61.098317 -180.38239 
L 61.336063 -180.533672 
L 61.571025 -180.684954 
L 67.902154 -180.684954 
L 67.902154 -180.684954 
L 68.137116 -180.533672 
L 68.374862 -180.38239 
L 68.613744 -180.231108 
L 68.852011 -180.079826 
L 69.087831 -179.928544 
L 69.319325 -179.777262 
L 69.544598 -179.62598 
L 69.761782 -179.474698 
L 69.969073 -179.323416 
L 70.164776 -179.172134 
L 70.347347 -179.020852 
L 70.515437 -178.86957 
L 70.66793 -178.718288 
L 70.80398 -178.567006 
L 70.923034 -178.415724 
L 71.024862 -178.264442 
L 71.10956 -178.11316 
L 71.17756 -177.961878 
L 71.229615 -177.810596 
L 71.266785 -177.659314 
L 71.29041 -177.508032 
L 71.302064 -177.35675 
L 71.303519 -177.205468 
L 71.296686 -177.054186 
L 71.28356 -176.902904 
L 71.266164 -176.751622 
L 71.246486 -176.60034 
L 71.226428 -176.449057 
L 71.207748 -176.297775 
L 71.192021 -176.146493 
L 71.180596 -175.995211 
L 71.174572 -175.843929 
L 71.174777 -175.692647 
L 71.181763 -175.541365 
L 71.195807 -175.390083 
L 71.216923 -175.238801 
L 71.244887 -175.087519 
L 71.279268 -174.936237 
L 71.319461 -174.784955 
L 71.364733 -174.633673 
L 71.414268 -174.482391 
L 71.467215 -174.331109 
L 71.522736 -174.179827 
L 71.580051 -174.028545 
L 71.638481 -173.877263 
L 71.697486 -173.725981 
L 71.756698 -173.574699 
L 71.815944 -173.423417 
L 71.875267 -173.272135 
L 71.934933 -173.120853 
L 71.995437 -172.969571 
L 72.0575 -172.818289 
L 72.122055 -172.667007 
L 72.190236 -172.515725 
L 72.263357 -172.364443 
L 72.34289 -172.213161 
L 72.430444 -172.061879 
L 72.527738 -171.910597 
L 72.63658 -171.759315 
L 72.758844 -171.608033 
L 72.896453 -171.456751 
L 73.051358 -171.305469 
L 73.225522 -171.154187 
L 73.420903 -171.002905 
L 73.639439 -170.851623 
L 73.883021 -170.700341 
L 74.153475 -170.549059 
L 74.452528 -170.397777 
L 74.781764 -170.246495 
L 75.142579 -170.095213 
L 75.536118 -169.94393 
L 75.963204 -169.792648 
L 76.424254 -169.641366 
L 76.919188 -169.490084 
L 77.447333 -169.338802 
L 78.007322 -169.18752 
L 78.596997 -169.036238 
L 79.21332 -168.884956 
L 79.852301 -168.733674 
L 80.508941 -168.582392 
L 81.177209 -168.43111 
L 81.850053 -168.279828 
L 82.519439 -168.128546 
L 83.176447 -167.977264 
L 83.811401 -167.825982 
L 84.414042 -167.6747 
L 84.973744 -167.523418 
L 85.479767 -167.372136 
L 85.921532 -167.220854 
L 86.28892 -167.069572 
L 86.572573 -166.91829 
L 86.76419 -166.767008 
L 86.856812 -166.615726 
L 86.845064 -166.464444 
L 86.725366 -166.313162 
L 86.496088 -166.16188 
L 86.157639 -166.010598 
L 85.712499 -165.859316 
L 85.165179 -165.708034 
z
" style="stroke: #323232; stroke-opacity: 0.4; stroke-width: 1.25"/>
    </defs>
    <g clip-path="url(#peff3b38ef8)">
     <use xlink:href="#m65b28c2e12" x="0" y="288" style="fill: #dc9238; fill-opacity: 0.4; stroke: #323232; stroke-opacity: 0.4; stroke-width: 1.25"/>
    </g>
   </g>
   <g id="FillBetweenPolyCollection_2">
    <defs>
     <path id="mb4d75a86a1" d="M 136.724358 -165.837144 
L 103.349932 -165.837144 
L 103.371595 -165.991251 
L 103.436446 -166.145359 
L 103.543982 -166.299467 
L 103.693365 -166.453575 
L 103.883442 -166.607682 
L 104.112756 -166.76179 
L 104.379563 -166.915898 
L 104.681855 -167.070005 
L 105.017387 -167.224113 
L 105.383702 -167.378221 
L 105.77816 -167.532328 
L 106.197972 -167.686436 
L 106.640228 -167.840544 
L 107.101935 -167.994651 
L 107.580046 -168.148759 
L 108.071493 -168.302867 
L 108.573217 -168.456975 
L 109.082201 -168.611082 
L 109.595496 -168.76519 
L 110.110245 -168.919298 
L 110.623708 -169.073405 
L 111.133283 -169.227513 
L 111.63652 -169.381621 
L 112.131139 -169.535728 
L 112.615037 -169.689836 
L 113.086299 -169.843944 
L 113.543198 -169.998052 
L 113.984201 -170.152159 
L 114.407966 -170.306267 
L 114.813334 -170.460375 
L 115.199328 -170.614482 
L 115.565137 -170.76859 
L 115.910111 -170.922698 
L 116.233743 -171.076805 
L 116.535657 -171.230913 
L 116.815592 -171.385021 
L 117.073386 -171.539129 
L 117.308959 -171.693236 
L 117.522293 -171.847344 
L 117.713423 -172.001452 
L 117.882411 -172.155559 
L 118.029339 -172.309667 
L 118.154288 -172.463775 
L 118.257328 -172.617882 
L 118.338505 -172.77199 
L 118.39783 -172.926098 
L 118.435271 -173.080205 
L 118.450745 -173.234313 
L 118.444116 -173.388421 
L 118.415189 -173.542529 
L 118.363711 -173.696636 
L 118.28937 -173.850744 
L 118.191805 -174.004852 
L 118.070606 -174.158959 
L 117.925322 -174.313067 
L 117.755478 -174.467175 
L 117.560579 -174.621282 
L 117.34013 -174.77539 
L 117.093649 -174.929498 
L 116.820683 -175.083606 
L 116.520834 -175.237713 
L 116.193767 -175.391821 
L 115.839241 -175.545929 
L 115.457125 -175.700036 
L 115.047419 -175.854144 
L 114.610277 -176.008252 
L 114.146023 -176.162359 
L 113.655174 -176.316467 
L 113.138459 -176.470575 
L 112.596828 -176.624682 
L 112.031472 -176.77879 
L 111.443833 -176.932898 
L 110.835608 -177.087006 
L 110.20876 -177.241113 
L 109.565513 -177.395221 
L 108.908354 -177.549329 
L 108.240024 -177.703436 
L 107.563505 -177.857544 
L 106.882012 -178.011652 
L 106.198964 -178.165759 
L 105.517969 -178.319867 
L 104.842793 -178.473975 
L 104.177327 -178.628083 
L 103.525557 -178.78219 
L 102.891524 -178.936298 
L 102.279284 -179.090406 
L 101.692867 -179.244513 
L 101.136236 -179.398621 
L 100.61324 -179.552729 
L 100.127571 -179.706836 
L 99.682725 -179.860944 
L 99.281955 -180.015052 
L 98.928236 -180.169159 
L 98.624227 -180.323267 
L 98.372235 -180.477375 
L 98.174193 -180.631483 
L 98.031629 -180.78559 
L 97.945649 -180.939698 
L 97.916923 -181.093806 
L 142.157367 -181.093806 
L 142.157367 -181.093806 
L 142.12864 -180.939698 
L 142.04266 -180.78559 
L 141.900096 -180.631483 
L 141.702054 -180.477375 
L 141.450063 -180.323267 
L 141.146053 -180.169159 
L 140.792335 -180.015052 
L 140.391565 -179.860944 
L 139.946719 -179.706836 
L 139.46105 -179.552729 
L 138.938054 -179.398621 
L 138.381423 -179.244513 
L 137.795006 -179.090406 
L 137.182766 -178.936298 
L 136.548732 -178.78219 
L 135.896963 -178.628083 
L 135.231497 -178.473975 
L 134.55632 -178.319867 
L 133.875326 -178.165759 
L 133.192278 -178.011652 
L 132.510784 -177.857544 
L 131.834266 -177.703436 
L 131.165935 -177.549329 
L 130.508776 -177.395221 
L 129.86553 -177.241113 
L 129.238682 -177.087006 
L 128.630457 -176.932898 
L 128.042818 -176.77879 
L 127.477462 -176.624682 
L 126.935831 -176.470575 
L 126.419115 -176.316467 
L 125.928267 -176.162359 
L 125.464013 -176.008252 
L 125.02687 -175.854144 
L 124.617164 -175.700036 
L 124.235049 -175.545929 
L 123.880523 -175.391821 
L 123.553456 -175.237713 
L 123.253606 -175.083606 
L 122.980641 -174.929498 
L 122.73416 -174.77539 
L 122.513711 -174.621282 
L 122.318812 -174.467175 
L 122.148967 -174.313067 
L 122.003684 -174.158959 
L 121.882484 -174.004852 
L 121.784919 -173.850744 
L 121.710579 -173.696636 
L 121.6591 -173.542529 
L 121.630173 -173.388421 
L 121.623545 -173.234313 
L 121.639019 -173.080205 
L 121.67646 -172.926098 
L 121.735785 -172.77199 
L 121.816961 -172.617882 
L 121.920001 -172.463775 
L 122.04495 -172.309667 
L 122.191878 -172.155559 
L 122.360867 -172.001452 
L 122.551996 -171.847344 
L 122.765331 -171.693236 
L 123.000903 -171.539129 
L 123.258697 -171.385021 
L 123.538633 -171.230913 
L 123.840547 -171.076805 
L 124.164179 -170.922698 
L 124.509152 -170.76859 
L 124.874962 -170.614482 
L 125.260955 -170.460375 
L 125.666324 -170.306267 
L 126.090089 -170.152159 
L 126.531092 -169.998052 
L 126.987991 -169.843944 
L 127.459252 -169.689836 
L 127.943151 -169.535728 
L 128.437769 -169.381621 
L 128.941007 -169.227513 
L 129.450582 -169.073405 
L 129.964045 -168.919298 
L 130.478794 -168.76519 
L 130.992089 -168.611082 
L 131.501073 -168.456975 
L 132.002797 -168.302867 
L 132.494243 -168.148759 
L 132.972354 -167.994651 
L 133.434062 -167.840544 
L 133.876318 -167.686436 
L 134.296129 -167.532328 
L 134.690587 -167.378221 
L 135.056902 -167.224113 
L 135.392435 -167.070005 
L 135.694727 -166.915898 
L 135.961534 -166.76179 
L 136.190848 -166.607682 
L 136.380925 -166.453575 
L 136.530308 -166.299467 
L 136.637843 -166.145359 
L 136.702695 -165.991251 
L 136.724358 -165.837144 
z
" style="stroke: #323232; stroke-opacity: 0.4; stroke-width: 1.25"/>
    </defs>
    <g clip-path="url(#peff3b38ef8)">
     <use xlink:href="#mb4d75a86a1" x="0" y="288" style="fill: #159152; fill-opacity: 0.4; stroke: #323232; stroke-opacity: 0.4; stroke-width: 1.25"/>
    </g>
   </g>
   <g id="FillBetweenPolyCollection_3">
    <defs>
     <path id="macdfa4257f" d="M 188.328964 -165.837144 
L 162.346437 -165.837144 
L 162.364174 -165.991251 
L 162.417259 -166.145359 
L 162.505256 -166.299467 
L 162.627448 -166.453575 
L 162.782843 -166.607682 
L 162.97019 -166.76179 
L 163.187994 -166.915898 
L 163.434537 -167.070005 
L 163.707899 -167.224113 
L 164.005983 -167.378221 
L 164.326542 -167.532328 
L 164.667209 -167.686436 
L 165.025518 -167.840544 
L 165.398943 -167.994651 
L 165.78492 -168.148759 
L 166.180875 -168.302867 
L 166.584258 -168.456975 
L 166.99256 -168.611082 
L 167.403342 -168.76519 
L 167.814257 -168.919298 
L 168.223066 -169.073405 
L 168.627655 -169.227513 
L 169.026053 -169.381621 
L 169.416439 -169.535728 
L 169.79715 -169.689836 
L 170.166687 -169.843944 
L 170.523716 -169.998052 
L 170.86707 -170.152159 
L 171.195744 -170.306267 
L 171.508887 -170.460375 
L 171.805799 -170.614482 
L 172.085915 -170.76859 
L 172.348801 -170.922698 
L 172.594134 -171.076805 
L 172.821693 -171.230913 
L 173.031339 -171.385021 
L 173.223006 -171.539129 
L 173.396678 -171.693236 
L 173.552382 -171.847344 
L 173.690161 -172.001452 
L 173.810071 -172.155559 
L 173.912159 -172.309667 
L 173.996451 -172.463775 
L 174.062942 -172.617882 
L 174.111585 -172.77199 
L 174.142279 -172.926098 
L 174.154863 -173.080205 
L 174.149112 -173.234313 
L 174.12473 -173.388421 
L 174.08135 -173.542529 
L 174.018534 -173.696636 
L 173.935775 -173.850744 
L 173.832501 -174.004852 
L 173.708082 -174.158959 
L 173.56184 -174.313067 
L 173.393057 -174.467175 
L 173.200994 -174.621282 
L 172.984898 -174.77539 
L 172.744025 -174.929498 
L 172.477659 -175.083606 
L 172.185127 -175.237713 
L 171.865825 -175.391821 
L 171.519238 -175.545929 
L 171.144966 -175.700036 
L 170.742744 -175.854144 
L 170.312468 -176.008252 
L 169.854216 -176.162359 
L 169.368271 -176.316467 
L 168.855145 -176.470575 
L 168.315591 -176.624682 
L 167.750626 -176.77879 
L 167.161542 -176.932898 
L 166.549918 -177.087006 
L 165.917628 -177.241113 
L 165.26684 -177.395221 
L 164.600024 -177.549329 
L 163.919937 -177.703436 
L 163.229619 -177.857544 
L 162.532376 -178.011652 
L 161.83176 -178.165759 
L 161.131547 -178.319867 
L 160.435703 -178.473975 
L 159.748355 -178.628083 
L 159.073751 -178.78219 
L 158.416218 -178.936298 
L 157.780123 -179.090406 
L 157.169817 -179.244513 
L 156.589595 -179.398621 
L 156.043643 -179.552729 
L 155.535988 -179.706836 
L 155.070451 -179.860944 
L 154.650595 -180.015052 
L 154.279688 -180.169159 
L 153.960651 -180.323267 
L 153.696027 -180.477375 
L 153.487946 -180.631483 
L 153.338094 -180.78559 
L 153.247691 -180.939698 
L 153.217478 -181.093806 
L 197.457922 -181.093806 
L 197.457922 -181.093806 
L 197.427709 -180.939698 
L 197.337306 -180.78559 
L 197.187454 -180.631483 
L 196.979373 -180.477375 
L 196.714749 -180.323267 
L 196.395713 -180.169159 
L 196.024805 -180.015052 
L 195.60495 -179.860944 
L 195.139412 -179.706836 
L 194.631757 -179.552729 
L 194.085805 -179.398621 
L 193.505583 -179.244513 
L 192.895278 -179.090406 
L 192.259182 -178.936298 
L 191.60165 -178.78219 
L 190.927046 -178.628083 
L 190.239697 -178.473975 
L 189.543853 -178.319867 
L 188.84364 -178.165759 
L 188.143024 -178.011652 
L 187.445781 -177.857544 
L 186.755463 -177.703436 
L 186.075376 -177.549329 
L 185.40856 -177.395221 
L 184.757773 -177.241113 
L 184.125482 -177.087006 
L 183.513858 -176.932898 
L 182.924774 -176.77879 
L 182.359809 -176.624682 
L 181.820255 -176.470575 
L 181.307129 -176.316467 
L 180.821185 -176.162359 
L 180.362933 -176.008252 
L 179.932656 -175.854144 
L 179.530434 -175.700036 
L 179.156162 -175.545929 
L 178.809576 -175.391821 
L 178.490273 -175.237713 
L 178.197741 -175.083606 
L 177.931375 -174.929498 
L 177.690503 -174.77539 
L 177.474407 -174.621282 
L 177.282343 -174.467175 
L 177.113561 -174.313067 
L 176.967318 -174.158959 
L 176.842899 -174.004852 
L 176.739625 -173.850744 
L 176.656866 -173.696636 
L 176.59405 -173.542529 
L 176.550671 -173.388421 
L 176.526289 -173.234313 
L 176.520538 -173.080205 
L 176.533122 -172.926098 
L 176.563815 -172.77199 
L 176.612458 -172.617882 
L 176.678949 -172.463775 
L 176.763241 -172.309667 
L 176.865329 -172.155559 
L 176.985239 -172.001452 
L 177.123019 -171.847344 
L 177.278722 -171.693236 
L 177.452395 -171.539129 
L 177.644061 -171.385021 
L 177.853708 -171.230913 
L 178.081266 -171.076805 
L 178.326599 -170.922698 
L 178.589485 -170.76859 
L 178.869602 -170.614482 
L 179.166513 -170.460375 
L 179.479656 -170.306267 
L 179.80833 -170.152159 
L 180.151684 -169.998052 
L 180.508714 -169.843944 
L 180.87825 -169.689836 
L 181.258961 -169.535728 
L 181.649347 -169.381621 
L 182.047745 -169.227513 
L 182.452335 -169.073405 
L 182.861143 -168.919298 
L 183.272058 -168.76519 
L 183.68284 -168.611082 
L 184.091142 -168.456975 
L 184.494525 -168.302867 
L 184.890481 -168.148759 
L 185.276457 -167.994651 
L 185.649882 -167.840544 
L 186.008192 -167.686436 
L 186.348858 -167.532328 
L 186.669418 -167.378221 
L 186.967502 -167.224113 
L 187.240864 -167.070005 
L 187.487406 -166.915898 
L 187.70521 -166.76179 
L 187.892557 -166.607682 
L 188.047952 -166.453575 
L 188.170144 -166.299467 
L 188.258141 -166.145359 
L 188.311226 -165.991251 
L 188.328964 -165.837144 
z
" style="stroke: #323232; stroke-opacity: 0.4; stroke-width: 1.25"/>
    </defs>
    <g clip-path="url(#peff3b38ef8)">
     <use xlink:href="#macdfa4257f" x="0" y="288" style="fill: #c0c0c0; fill-opacity: 0.4; stroke: #323232; stroke-opacity: 0.4; stroke-width: 1.25"/>
    </g>
   </g>
   <g id="matplotlib.axis_1">
    <g id="xtick_1">
     <g id="line2d_1">
      <defs>
       <path id="m1bcc38faac" d="M 0 0 
L 0 3.5 
" style="stroke: #000000; stroke-width: 0.8"/>
      </defs>
      <g>
       <use xlink:href="#m1bcc38faac" x="64.73659" y="192.550081" style="stroke: #000000; stroke-width: 0.8"/>
      </g>
     </g>
     <g id="text_1">
      <!-- MTL-sensory -->
      <g transform="translate(18.273489 267.913467) rotate(-30) scale(0.18 -0.18)">
       <defs>
        <path id="DejaVuSans-4d" d="M 628 4666 
L 1569 4666 
L 2759 1491 
L 3956 4666 
L 4897 4666 
L 4897 0 
L 4281 0 
L 4281 4097 
L 3078 897 
L 2444 897 
L 1241 4097 
L 1241 0 
L 628 0 
L 628 4666 
z
" transform="scale(0.015625)"/>
        <path id="DejaVuSans-54" d="M -19 4666 
L 3928 4666 
L 3928 4134 
L 2272 4134 
L 2272 0 
L 1638 0 
L 1638 4134 
L -19 4134 
L -19 4666 
z
" transform="scale(0.015625)"/>
        <path id="DejaVuSans-4c" d="M 628 4666 
L 1259 4666 
L 1259 531 
L 3531 531 
L 3531 0 
L 628 0 
L 628 4666 
z
" transform="scale(0.015625)"/>
        <path id="DejaVuSans-2d" d="M 313 2009 
L 1997 2009 
L 1997 1497 
L 313 1497 
L 313 2009 
z
" transform="scale(0.015625)"/>
        <path id="DejaVuSans-73" d="M 2834 3397 
L 2834 2853 
Q 2591 2978 2328 3040 
Q 2066 3103 1784 3103 
Q 1356 3103 1142 2972 
Q 928 2841 928 2578 
Q 928 2378 1081 2264 
Q 1234 2150 1697 2047 
L 1894 2003 
Q 2506 1872 2764 1633 
Q 3022 1394 3022 966 
Q 3022 478 2636 193 
Q 2250 -91 1575 -91 
Q 1294 -91 989 -36 
Q 684 19 347 128 
L 347 722 
Q 666 556 975 473 
Q 1284 391 1588 391 
Q 1994 391 2212 530 
Q 2431 669 2431 922 
Q 2431 1156 2273 1281 
Q 2116 1406 1581 1522 
L 1381 1569 
Q 847 1681 609 1914 
Q 372 2147 372 2553 
Q 372 3047 722 3315 
Q 1072 3584 1716 3584 
Q 2034 3584 2315 3537 
Q 2597 3491 2834 3397 
z
" transform="scale(0.015625)"/>
        <path id="DejaVuSans-65" d="M 3597 1894 
L 3597 1613 
L 953 1613 
Q 991 1019 1311 708 
Q 1631 397 2203 397 
Q 2534 397 2845 478 
Q 3156 559 3463 722 
L 3463 178 
Q 3153 47 2828 -22 
Q 2503 -91 2169 -91 
Q 1331 -91 842 396 
Q 353 884 353 1716 
Q 353 2575 817 3079 
Q 1281 3584 2069 3584 
Q 2775 3584 3186 3129 
Q 3597 2675 3597 1894 
z
M 3022 2063 
Q 3016 2534 2758 2815 
Q 2500 3097 2075 3097 
Q 1594 3097 1305 2825 
Q 1016 2553 972 2059 
L 3022 2063 
z
" transform="scale(0.015625)"/>
        <path id="DejaVuSans-6e" d="M 3513 2113 
L 3513 0 
L 2938 0 
L 2938 2094 
Q 2938 2591 2744 2837 
Q 2550 3084 2163 3084 
Q 1697 3084 1428 2787 
Q 1159 2491 1159 1978 
L 1159 0 
L 581 0 
L 581 3500 
L 1159 3500 
L 1159 2956 
Q 1366 3272 1645 3428 
Q 1925 3584 2291 3584 
Q 2894 3584 3203 3211 
Q 3513 2838 3513 2113 
z
" transform="scale(0.015625)"/>
        <path id="DejaVuSans-6f" d="M 1959 3097 
Q 1497 3097 1228 2736 
Q 959 2375 959 1747 
Q 959 1119 1226 758 
Q 1494 397 1959 397 
Q 2419 397 2687 759 
Q 2956 1122 2956 1747 
Q 2956 2369 2687 2733 
Q 2419 3097 1959 3097 
z
M 1959 3584 
Q 2709 3584 3137 3096 
Q 3566 2609 3566 1747 
Q 3566 888 3137 398 
Q 2709 -91 1959 -91 
Q 1206 -91 779 398 
Q 353 888 353 1747 
Q 353 2609 779 3096 
Q 1206 3584 1959 3584 
z
" transform="scale(0.015625)"/>
        <path id="DejaVuSans-72" d="M 2631 2963 
Q 2534 3019 2420 3045 
Q 2306 3072 2169 3072 
Q 1681 3072 1420 2755 
Q 1159 2438 1159 1844 
L 1159 0 
L 581 0 
L 581 3500 
L 1159 3500 
L 1159 2956 
Q 1341 3275 1631 3429 
Q 1922 3584 2338 3584 
Q 2397 3584 2469 3576 
Q 2541 3569 2628 3553 
L 2631 2963 
z
" transform="scale(0.015625)"/>
        <path id="DejaVuSans-79" d="M 2059 -325 
Q 1816 -950 1584 -1140 
Q 1353 -1331 966 -1331 
L 506 -1331 
L 506 -850 
L 844 -850 
Q 1081 -850 1212 -737 
Q 1344 -625 1503 -206 
L 1606 56 
L 191 3500 
L 800 3500 
L 1894 763 
L 2988 3500 
L 3597 3500 
L 2059 -325 
z
" transform="scale(0.015625)"/>
       </defs>
       <use xlink:href="#DejaVuSans-4d"/>
       <use xlink:href="#DejaVuSans-54" transform="translate(86.279297 0)"/>
       <use xlink:href="#DejaVuSans-4c" transform="translate(147.363281 0)"/>
       <use xlink:href="#DejaVuSans-2d" transform="translate(201.326172 0)"/>
       <use xlink:href="#DejaVuSans-73" transform="translate(237.410156 0)"/>
       <use xlink:href="#DejaVuSans-65" transform="translate(289.509766 0)"/>
       <use xlink:href="#DejaVuSans-6e" transform="translate(351.033203 0)"/>
       <use xlink:href="#DejaVuSans-73" transform="translate(414.412109 0)"/>
       <use xlink:href="#DejaVuSans-6f" transform="translate(466.511719 0)"/>
       <use xlink:href="#DejaVuSans-72" transform="translate(527.693359 0)"/>
       <use xlink:href="#DejaVuSans-79" transform="translate(568.806641 0)"/>
      </g>
     </g>
    </g>
    <g id="xtick_2">
     <g id="line2d_2">
      <g>
       <use xlink:href="#m1bcc38faac" x="120.037145" y="192.550081" style="stroke: #000000; stroke-width: 0.8"/>
      </g>
     </g>
     <g id="text_2">
      <!-- MTL-semantic -->
      <g transform="translate(68.345822 273.950498) rotate(-30) scale(0.18 -0.18)">
       <defs>
        <path id="DejaVuSans-6d" d="M 3328 2828 
Q 3544 3216 3844 3400 
Q 4144 3584 4550 3584 
Q 5097 3584 5394 3201 
Q 5691 2819 5691 2113 
L 5691 0 
L 5113 0 
L 5113 2094 
Q 5113 2597 4934 2840 
Q 4756 3084 4391 3084 
Q 3944 3084 3684 2787 
Q 3425 2491 3425 1978 
L 3425 0 
L 2847 0 
L 2847 2094 
Q 2847 2600 2669 2842 
Q 2491 3084 2119 3084 
Q 1678 3084 1418 2786 
Q 1159 2488 1159 1978 
L 1159 0 
L 581 0 
L 581 3500 
L 1159 3500 
L 1159 2956 
Q 1356 3278 1631 3431 
Q 1906 3584 2284 3584 
Q 2666 3584 2933 3390 
Q 3200 3197 3328 2828 
z
" transform="scale(0.015625)"/>
        <path id="DejaVuSans-61" d="M 2194 1759 
Q 1497 1759 1228 1600 
Q 959 1441 959 1056 
Q 959 750 1161 570 
Q 1363 391 1709 391 
Q 2188 391 2477 730 
Q 2766 1069 2766 1631 
L 2766 1759 
L 2194 1759 
z
M 3341 1997 
L 3341 0 
L 2766 0 
L 2766 531 
Q 2569 213 2275 61 
Q 1981 -91 1556 -91 
Q 1019 -91 701 211 
Q 384 513 384 1019 
Q 384 1609 779 1909 
Q 1175 2209 1959 2209 
L 2766 2209 
L 2766 2266 
Q 2766 2663 2505 2880 
Q 2244 3097 1772 3097 
Q 1472 3097 1187 3025 
Q 903 2953 641 2809 
L 641 3341 
Q 956 3463 1253 3523 
Q 1550 3584 1831 3584 
Q 2591 3584 2966 3190 
Q 3341 2797 3341 1997 
z
" transform="scale(0.015625)"/>
        <path id="DejaVuSans-74" d="M 1172 4494 
L 1172 3500 
L 2356 3500 
L 2356 3053 
L 1172 3053 
L 1172 1153 
Q 1172 725 1289 603 
Q 1406 481 1766 481 
L 2356 481 
L 2356 0 
L 1766 0 
Q 1100 0 847 248 
Q 594 497 594 1153 
L 594 3053 
L 172 3053 
L 172 3500 
L 594 3500 
L 594 4494 
L 1172 4494 
z
" transform="scale(0.015625)"/>
        <path id="DejaVuSans-69" d="M 603 3500 
L 1178 3500 
L 1178 0 
L 603 0 
L 603 3500 
z
M 603 4863 
L 1178 4863 
L 1178 4134 
L 603 4134 
L 603 4863 
z
" transform="scale(0.015625)"/>
        <path id="DejaVuSans-63" d="M 3122 3366 
L 3122 2828 
Q 2878 2963 2633 3030 
Q 2388 3097 2138 3097 
Q 1578 3097 1268 2742 
Q 959 2388 959 1747 
Q 959 1106 1268 751 
Q 1578 397 2138 397 
Q 2388 397 2633 464 
Q 2878 531 3122 666 
L 3122 134 
Q 2881 22 2623 -34 
Q 2366 -91 2075 -91 
Q 1284 -91 818 406 
Q 353 903 353 1747 
Q 353 2603 823 3093 
Q 1294 3584 2113 3584 
Q 2378 3584 2631 3529 
Q 2884 3475 3122 3366 
z
" transform="scale(0.015625)"/>
       </defs>
       <use xlink:href="#DejaVuSans-4d"/>
       <use xlink:href="#DejaVuSans-54" transform="translate(86.279297 0)"/>
       <use xlink:href="#DejaVuSans-4c" transform="translate(147.363281 0)"/>
       <use xlink:href="#DejaVuSans-2d" transform="translate(201.326172 0)"/>
       <use xlink:href="#DejaVuSans-73" transform="translate(237.410156 0)"/>
       <use xlink:href="#DejaVuSans-65" transform="translate(289.509766 0)"/>
       <use xlink:href="#DejaVuSans-6d" transform="translate(351.033203 0)"/>
       <use xlink:href="#DejaVuSans-61" transform="translate(448.445312 0)"/>
       <use xlink:href="#DejaVuSans-6e" transform="translate(509.724609 0)"/>
       <use xlink:href="#DejaVuSans-74" transform="translate(573.103516 0)"/>
       <use xlink:href="#DejaVuSans-69" transform="translate(612.3125 0)"/>
       <use xlink:href="#DejaVuSans-63" transform="translate(640.095703 0)"/>
      </g>
     </g>
    </g>
    <g id="xtick_3">
     <g id="line2d_3">
      <g>
       <use xlink:href="#m1bcc38faac" x="175.3377" y="192.550081" style="stroke: #000000; stroke-width: 0.8"/>
      </g>
     </g>
     <g id="text_3">
      <!-- labels -->
      <g transform="translate(154.909759 237.850654) rotate(-30) scale(0.18 -0.18)">
       <defs>
        <path id="DejaVuSans-6c" d="M 603 4863 
L 1178 4863 
L 1178 0 
L 603 0 
L 603 4863 
z
" transform="scale(0.015625)"/>
        <path id="DejaVuSans-62" d="M 3116 1747 
Q 3116 2381 2855 2742 
Q 2594 3103 2138 3103 
Q 1681 3103 1420 2742 
Q 1159 2381 1159 1747 
Q 1159 1113 1420 752 
Q 1681 391 2138 391 
Q 2594 391 2855 752 
Q 3116 1113 3116 1747 
z
M 1159 2969 
Q 1341 3281 1617 3432 
Q 1894 3584 2278 3584 
Q 2916 3584 3314 3078 
Q 3713 2572 3713 1747 
Q 3713 922 3314 415 
Q 2916 -91 2278 -91 
Q 1894 -91 1617 61 
Q 1341 213 1159 525 
L 1159 0 
L 581 0 
L 581 4863 
L 1159 4863 
L 1159 2969 
z
" transform="scale(0.015625)"/>
       </defs>
       <use xlink:href="#DejaVuSans-6c"/>
       <use xlink:href="#DejaVuSans-61" transform="translate(27.783203 0)"/>
       <use xlink:href="#DejaVuSans-62" transform="translate(89.0625 0)"/>
       <use xlink:href="#DejaVuSans-65" transform="translate(152.539062 0)"/>
       <use xlink:href="#DejaVuSans-6c" transform="translate(214.0625 0)"/>
       <use xlink:href="#DejaVuSans-73" transform="translate(241.845703 0)"/>
      </g>
     </g>
    </g>
   </g>
   <g id="matplotlib.axis_2"/>
   <g id="line2d_4">
    <path d="M 64.73659 104.959336 
L 64.73659 94.682069 
L 175.3377 94.682069 
L 175.3377 104.959336 
" style="fill: none; stroke: #000000; stroke-width: 2; stroke-linecap: square"/>
   </g>
   <g id="line2d_5">
    <path d="M 64.73659 82.691926 
L 64.73659 72.414659 
L 117.272117 72.414659 
L 117.272117 82.691926 
" style="fill: none; stroke: #000000; stroke-width: 2; stroke-linecap: square"/>
   </g>
   <g id="line2d_6">
    <path d="M 122.802173 82.691926 
L 122.802173 72.414659 
L 175.3377 72.414659 
L 175.3377 82.691926 
" style="fill: none; stroke: #000000; stroke-width: 2; stroke-linecap: square"/>
   </g>
   <g id="patch_3">
    <path d="M 34.87429 192.550081 
L 34.87429 102.624 
" style="fill: none; stroke: #000000; stroke-width: 0.8; stroke-linejoin: miter; stroke-linecap: square"/>
   </g>
   <g id="patch_4">
    <path d="M 34.87429 192.550081 
L 205.2 192.550081 
" style="fill: none; stroke: #000000; stroke-width: 0.8; stroke-linejoin: miter; stroke-linecap: square"/>
   </g>
   <g id="PathCollection_1">
    <defs>
     <path id="m45e3e6cbd5" d="M 0 1.5 
C 0.397805 1.5 0.77937 1.341951 1.06066 1.06066 
C 1.341951 0.77937 1.5 0.397805 1.5 0 
C 1.5 -0.397805 1.341951 -0.77937 1.06066 -1.06066 
C 0.77937 -1.341951 0.397805 -1.5 0 -1.5 
C -0.397805 -1.5 -0.77937 -1.341951 -1.06066 -1.06066 
C -1.341951 -0.77937 -1.5 -0.397805 -1.5 0 
C -1.5 0.397805 -1.341951 0.77937 -1.06066 1.06066 
C -0.77937 1.341951 -0.397805 1.5 0 1.5 
z
"/>
    </defs>
    <g clip-path="url(#peff3b38ef8)">
     <use xlink:href="#m45e3e6cbd5" x="73.729688" y="121.732483" style="fill-opacity: 0.1"/>
     <use xlink:href="#m45e3e6cbd5" x="70.798577" y="108.304902" style="fill-opacity: 0.1"/>
     <use xlink:href="#m45e3e6cbd5" x="61.045723" y="122.14134" style="fill-opacity: 0.1"/>
     <use xlink:href="#m45e3e6cbd5" x="55.470459" y="112.694686" style="fill-opacity: 0.1"/>
     <use xlink:href="#m45e3e6cbd5" x="62.684744" y="112.866839" style="fill-opacity: 0.1"/>
     <use xlink:href="#m45e3e6cbd5" x="58.813549" y="115.98703" style="fill-opacity: 0.1"/>
     <use xlink:href="#m45e3e6cbd5" x="56.607134" y="122.162856" style="fill-opacity: 0.1"/>
     <use xlink:href="#m45e3e6cbd5" x="54.8583" y="120.936297" style="fill-opacity: 0.1"/>
     <use xlink:href="#m45e3e6cbd5" x="69.726787" y="114.88958" style="fill-opacity: 0.1"/>
     <use xlink:href="#m45e3e6cbd5" x="53.929256" y="122.098301" style="fill-opacity: 0.1"/>
     <use xlink:href="#m45e3e6cbd5" x="70.721896" y="119.042666" style="fill-opacity: 0.1"/>
     <use xlink:href="#m45e3e6cbd5" x="56.926971" y="120.054039" style="fill-opacity: 0.1"/>
     <use xlink:href="#m45e3e6cbd5" x="55.435525" y="121.431225" style="fill-opacity: 0.1"/>
     <use xlink:href="#m45e3e6cbd5" x="55.658518" y="122.162856" style="fill-opacity: 0.1"/>
     <use xlink:href="#m45e3e6cbd5" x="68.542325" y="114.200987" style="fill-opacity: 0.1"/>
     <use xlink:href="#m45e3e6cbd5" x="59.104056" y="121.49578" style="fill-opacity: 0.1"/>
     <use xlink:href="#m45e3e6cbd5" x="62.978905" y="122.162856" style="fill-opacity: 0.1"/>
     <use xlink:href="#m45e3e6cbd5" x="66.0056" y="122.162856" style="fill-opacity: 0.1"/>
     <use xlink:href="#m45e3e6cbd5" x="72.712062" y="122.033746" style="fill-opacity: 0.1"/>
     <use xlink:href="#m45e3e6cbd5" x="69.758859" y="108.369457" style="fill-opacity: 0.1"/>
     <use xlink:href="#m45e3e6cbd5" x="59.656192" y="114.244025" style="fill-opacity: 0.1"/>
     <use xlink:href="#m45e3e6cbd5" x="56.584907" y="122.033746" style="fill-opacity: 0.1"/>
     <use xlink:href="#m45e3e6cbd5" x="54.901371" y="109.746643" style="fill-opacity: 0.1"/>
     <use xlink:href="#m45e3e6cbd5" x="60.347907" y="114.459212" style="fill-opacity: 0.1"/>
     <use xlink:href="#m45e3e6cbd5" x="59.47459" y="121.431225" style="fill-opacity: 0.1"/>
     <use xlink:href="#m45e3e6cbd5" x="63.766409" y="119.021144" style="fill-opacity: 0.1"/>
     <use xlink:href="#m45e3e6cbd5" x="68.790813" y="122.162856" style="fill-opacity: 0.1"/>
     <use xlink:href="#m45e3e6cbd5" x="69.063868" y="113.318729" style="fill-opacity: 0.1"/>
     <use xlink:href="#m45e3e6cbd5" x="59.947978" y="110.349165" style="fill-opacity: 0.1"/>
     <use xlink:href="#m45e3e6cbd5" x="62.080547" y="119.68822" style="fill-opacity: 0.1"/>
     <use xlink:href="#m45e3e6cbd5" x="57.683578" y="122.27045" style="fill-opacity: 0.1"/>
     <use xlink:href="#m45e3e6cbd5" x="71.11928" y="120.678077" style="fill-opacity: 0.1"/>
     <use xlink:href="#m45e3e6cbd5" x="54.933971" y="110.650423" style="fill-opacity: 0.1"/>
     <use xlink:href="#m45e3e6cbd5" x="69.094212" y="117.643958" style="fill-opacity: 0.1"/>
     <use xlink:href="#m45e3e6cbd5" x="70.901394" y="114.695915" style="fill-opacity: 0.1"/>
     <use xlink:href="#m45e3e6cbd5" x="70.872906" y="121.581856" style="fill-opacity: 0.1"/>
     <use xlink:href="#m45e3e6cbd5" x="59.414963" y="109.423869" style="fill-opacity: 0.1"/>
     <use xlink:href="#m45e3e6cbd5" x="61.945308" y="117.471809" style="fill-opacity: 0.1"/>
     <use xlink:href="#m45e3e6cbd5" x="66.674313" y="121.754005" style="fill-opacity: 0.1"/>
     <use xlink:href="#m45e3e6cbd5" x="59.71136" y="121.452741" style="fill-opacity: 0.1"/>
     <use xlink:href="#m45e3e6cbd5" x="61.879825" y="121.108445" style="fill-opacity: 0.1"/>
     <use xlink:href="#m45e3e6cbd5" x="58.035363" y="121.259077" style="fill-opacity: 0.1"/>
     <use xlink:href="#m45e3e6cbd5" x="63.848593" y="122.119818" style="fill-opacity: 0.1"/>
     <use xlink:href="#m45e3e6cbd5" x="54.663313" y="121.94767" style="fill-opacity: 0.1"/>
     <use xlink:href="#m45e3e6cbd5" x="71.368141" y="121.94767" style="fill-opacity: 0.1"/>
     <use xlink:href="#m45e3e6cbd5" x="55.378772" y="115.427547" style="fill-opacity: 0.1"/>
     <use xlink:href="#m45e3e6cbd5" x="65.153227" y="121.129967" style="fill-opacity: 0.1"/>
     <use xlink:href="#m45e3e6cbd5" x="60.463186" y="115.08325" style="fill-opacity: 0.1"/>
     <use xlink:href="#m45e3e6cbd5" x="66.451857" y="119.322407" style="fill-opacity: 0.1"/>
     <use xlink:href="#m45e3e6cbd5" x="74.899357" y="118.483182" style="fill-opacity: 0.1"/>
     <use xlink:href="#m45e3e6cbd5" x="67.956636" y="117.256623" style="fill-opacity: 0.1"/>
     <use xlink:href="#m45e3e6cbd5" x="54.458703" y="116.395881" style="fill-opacity: 0.1"/>
     <use xlink:href="#m45e3e6cbd5" x="63.197076" y="122.162856" style="fill-opacity: 0.1"/>
     <use xlink:href="#m45e3e6cbd5" x="64.958165" y="116.524991" style="fill-opacity: 0.1"/>
     <use xlink:href="#m45e3e6cbd5" x="65.536844" y="121.323631" style="fill-opacity: 0.1"/>
     <use xlink:href="#m45e3e6cbd5" x="68.749032" y="114.480729" style="fill-opacity: 0.1"/>
     <use xlink:href="#m45e3e6cbd5" x="59.816966" y="122.162856" style="fill-opacity: 0.1"/>
     <use xlink:href="#m45e3e6cbd5" x="56.526903" y="107.315046" style="fill-opacity: 0.1"/>
     <use xlink:href="#m45e3e6cbd5" x="62.362552" y="122.162856" style="fill-opacity: 0.1"/>
     <use xlink:href="#m45e3e6cbd5" x="74.832386" y="122.162856" style="fill-opacity: 0.1"/>
     <use xlink:href="#m45e3e6cbd5" x="57.815855" y="122.162856" style="fill-opacity: 0.1"/>
     <use xlink:href="#m45e3e6cbd5" x="73.672804" y="109.402347" style="fill-opacity: 0.1"/>
     <use xlink:href="#m45e3e6cbd5" x="65.705587" y="122.055263" style="fill-opacity: 0.1"/>
     <use xlink:href="#m45e3e6cbd5" x="63.783461" y="118.805962" style="fill-opacity: 0.1"/>
     <use xlink:href="#m45e3e6cbd5" x="73.18743" y="117.557886" style="fill-opacity: 0.1"/>
     <use xlink:href="#m45e3e6cbd5" x="63.8209" y="121.474263" style="fill-opacity: 0.1"/>
     <use xlink:href="#m45e3e6cbd5" x="69.695228" y="112.092169" style="fill-opacity: 0.1"/>
     <use xlink:href="#m45e3e6cbd5" x="62.503007" y="121.68945" style="fill-opacity: 0.1"/>
     <use xlink:href="#m45e3e6cbd5" x="73.674141" y="116.804733" style="fill-opacity: 0.1"/>
     <use xlink:href="#m45e3e6cbd5" x="68.939985" y="119.107221" style="fill-opacity: 0.1"/>
     <use xlink:href="#m45e3e6cbd5" x="69.152274" y="121.49578" style="fill-opacity: 0.1"/>
     <use xlink:href="#m45e3e6cbd5" x="60.925727" y="122.227411" style="fill-opacity: 0.1"/>
     <use xlink:href="#m45e3e6cbd5" x="70.41659" y="110.41372" style="fill-opacity: 0.1"/>
     <use xlink:href="#m45e3e6cbd5" x="67.74629" y="122.076785" style="fill-opacity: 0.1"/>
     <use xlink:href="#m45e3e6cbd5" x="58.98578" y="122.291966" style="fill-opacity: 0.1"/>
     <use xlink:href="#m45e3e6cbd5" x="57.227633" y="122.162856" style="fill-opacity: 0.1"/>
     <use xlink:href="#m45e3e6cbd5" x="71.292835" y="121.624895" style="fill-opacity: 0.1"/>
     <use xlink:href="#m45e3e6cbd5" x="74.893457" y="118.354072" style="fill-opacity: 0.1"/>
     <use xlink:href="#m45e3e6cbd5" x="63.810611" y="110.456758" style="fill-opacity: 0.1"/>
     <use xlink:href="#m45e3e6cbd5" x="66.74918" y="121.732483" style="fill-opacity: 0.1"/>
     <use xlink:href="#m45e3e6cbd5" x="72.649494" y="110.241572" style="fill-opacity: 0.1"/>
     <use xlink:href="#m45e3e6cbd5" x="63.790363" y="109.96183" style="fill-opacity: 0.1"/>
     <use xlink:href="#m45e3e6cbd5" x="74.732153" y="122.119818" style="fill-opacity: 0.1"/>
     <use xlink:href="#m45e3e6cbd5" x="66.412222" y="114.932618" style="fill-opacity: 0.1"/>
     <use xlink:href="#m45e3e6cbd5" x="71.83203" y="121.517301" style="fill-opacity: 0.1"/>
     <use xlink:href="#m45e3e6cbd5" x="73.780303" y="118.805962" style="fill-opacity: 0.1"/>
     <use xlink:href="#m45e3e6cbd5" x="71.716047" y="107.702381" style="fill-opacity: 0.1"/>
     <use xlink:href="#m45e3e6cbd5" x="57.202762" y="121.517301" style="fill-opacity: 0.1"/>
     <use xlink:href="#m45e3e6cbd5" x="67.587852" y="120.183149" style="fill-opacity: 0.1"/>
     <use xlink:href="#m45e3e6cbd5" x="62.489933" y="121.151483" style="fill-opacity: 0.1"/>
     <use xlink:href="#m45e3e6cbd5" x="55.063703" y="109.811198" style="fill-opacity: 0.1"/>
     <use xlink:href="#m45e3e6cbd5" x="63.056166" y="121.68945" style="fill-opacity: 0.1"/>
     <use xlink:href="#m45e3e6cbd5" x="59.398628" y="119.279369" style="fill-opacity: 0.1"/>
     <use xlink:href="#m45e3e6cbd5" x="72.457395" y="121.94767" style="fill-opacity: 0.1"/>
     <use xlink:href="#m45e3e6cbd5" x="54.413184" y="112.242796" style="fill-opacity: 0.1"/>
     <use xlink:href="#m45e3e6cbd5" x="74.889389" y="120.312258" style="fill-opacity: 0.1"/>
     <use xlink:href="#m45e3e6cbd5" x="61.537316" y="118.784441" style="fill-opacity: 0.1"/>
     <use xlink:href="#m45e3e6cbd5" x="61.566914" y="109.789682" style="fill-opacity: 0.1"/>
     <use xlink:href="#m45e3e6cbd5" x="54.037669" y="122.076785" style="fill-opacity: 0.1"/>
     <use xlink:href="#m45e3e6cbd5" x="57.773859" y="112.436466" style="fill-opacity: 0.1"/>
    </g>
   </g>
   <g id="PathCollection_2">
    <g clip-path="url(#peff3b38ef8)">
     <use xlink:href="#m45e3e6cbd5" x="117.852983" y="122.162856" style="fill-opacity: 0.1"/>
     <use xlink:href="#m45e3e6cbd5" x="129.533166" y="106.906194" style="fill-opacity: 0.1"/>
     <use xlink:href="#m45e3e6cbd5" x="111.180538" y="106.906194" style="fill-opacity: 0.1"/>
     <use xlink:href="#m45e3e6cbd5" x="129.887314" y="106.906194" style="fill-opacity: 0.1"/>
     <use xlink:href="#m45e3e6cbd5" x="128.210313" y="122.162856" style="fill-opacity: 0.1"/>
     <use xlink:href="#m45e3e6cbd5" x="119.023207" y="122.162856" style="fill-opacity: 0.1"/>
     <use xlink:href="#m45e3e6cbd5" x="116.20373" y="106.906194" style="fill-opacity: 0.1"/>
     <use xlink:href="#m45e3e6cbd5" x="114.125386" y="106.906194" style="fill-opacity: 0.1"/>
     <use xlink:href="#m45e3e6cbd5" x="122.56913" y="122.162856" style="fill-opacity: 0.1"/>
     <use xlink:href="#m45e3e6cbd5" x="109.708651" y="122.162856" style="fill-opacity: 0.1"/>
     <use xlink:href="#m45e3e6cbd5" x="109.322243" y="122.162856" style="fill-opacity: 0.1"/>
     <use xlink:href="#m45e3e6cbd5" x="118.46209" y="106.906194" style="fill-opacity: 0.1"/>
     <use xlink:href="#m45e3e6cbd5" x="110.482847" y="122.162856" style="fill-opacity: 0.1"/>
     <use xlink:href="#m45e3e6cbd5" x="114.550024" y="106.906194" style="fill-opacity: 0.1"/>
     <use xlink:href="#m45e3e6cbd5" x="113.869162" y="106.906194" style="fill-opacity: 0.1"/>
     <use xlink:href="#m45e3e6cbd5" x="114.577679" y="122.162856" style="fill-opacity: 0.1"/>
     <use xlink:href="#m45e3e6cbd5" x="111.876005" y="122.162856" style="fill-opacity: 0.1"/>
     <use xlink:href="#m45e3e6cbd5" x="109.243278" y="106.906194" style="fill-opacity: 0.1"/>
     <use xlink:href="#m45e3e6cbd5" x="111.531572" y="106.906194" style="fill-opacity: 0.1"/>
     <use xlink:href="#m45e3e6cbd5" x="122.657955" y="122.162856" style="fill-opacity: 0.1"/>
     <use xlink:href="#m45e3e6cbd5" x="130.527798" y="122.162856" style="fill-opacity: 0.1"/>
     <use xlink:href="#m45e3e6cbd5" x="130.883685" y="122.162856" style="fill-opacity: 0.1"/>
     <use xlink:href="#m45e3e6cbd5" x="118.025401" y="122.162856" style="fill-opacity: 0.1"/>
     <use xlink:href="#m45e3e6cbd5" x="112.581622" y="106.906194" style="fill-opacity: 0.1"/>
     <use xlink:href="#m45e3e6cbd5" x="123.106586" y="106.906194" style="fill-opacity: 0.1"/>
     <use xlink:href="#m45e3e6cbd5" x="119.822697" y="106.906194" style="fill-opacity: 0.1"/>
     <use xlink:href="#m45e3e6cbd5" x="130.862998" y="122.162856" style="fill-opacity: 0.1"/>
     <use xlink:href="#m45e3e6cbd5" x="110.421577" y="122.162856" style="fill-opacity: 0.1"/>
     <use xlink:href="#m45e3e6cbd5" x="126.302354" y="122.162856" style="fill-opacity: 0.1"/>
     <use xlink:href="#m45e3e6cbd5" x="115.356473" y="106.906194" style="fill-opacity: 0.1"/>
     <use xlink:href="#m45e3e6cbd5" x="114.317267" y="122.162856" style="fill-opacity: 0.1"/>
     <use xlink:href="#m45e3e6cbd5" x="123.631782" y="122.162856" style="fill-opacity: 0.1"/>
     <use xlink:href="#m45e3e6cbd5" x="114.420006" y="106.906194" style="fill-opacity: 0.1"/>
     <use xlink:href="#m45e3e6cbd5" x="123.705985" y="106.906194" style="fill-opacity: 0.1"/>
     <use xlink:href="#m45e3e6cbd5" x="120.420013" y="106.906194" style="fill-opacity: 0.1"/>
     <use xlink:href="#m45e3e6cbd5" x="118.357976" y="106.906194" style="fill-opacity: 0.1"/>
     <use xlink:href="#m45e3e6cbd5" x="121.246851" y="122.162856" style="fill-opacity: 0.1"/>
     <use xlink:href="#m45e3e6cbd5" x="115.326677" y="122.162856" style="fill-opacity: 0.1"/>
     <use xlink:href="#m45e3e6cbd5" x="124.606623" y="122.162856" style="fill-opacity: 0.1"/>
     <use xlink:href="#m45e3e6cbd5" x="118.15376" y="106.906194" style="fill-opacity: 0.1"/>
     <use xlink:href="#m45e3e6cbd5" x="116.952382" y="106.906194" style="fill-opacity: 0.1"/>
     <use xlink:href="#m45e3e6cbd5" x="127.307109" y="106.906194" style="fill-opacity: 0.1"/>
     <use xlink:href="#m45e3e6cbd5" x="129.437507" y="122.162856" style="fill-opacity: 0.1"/>
     <use xlink:href="#m45e3e6cbd5" x="109.994726" y="106.906194" style="fill-opacity: 0.1"/>
     <use xlink:href="#m45e3e6cbd5" x="114.122795" y="106.906194" style="fill-opacity: 0.1"/>
     <use xlink:href="#m45e3e6cbd5" x="116.68636" y="106.906194" style="fill-opacity: 0.1"/>
     <use xlink:href="#m45e3e6cbd5" x="127.004273" y="106.906194" style="fill-opacity: 0.1"/>
     <use xlink:href="#m45e3e6cbd5" x="130.776323" y="122.162856" style="fill-opacity: 0.1"/>
     <use xlink:href="#m45e3e6cbd5" x="130.410903" y="122.162856" style="fill-opacity: 0.1"/>
     <use xlink:href="#m45e3e6cbd5" x="128.994692" y="122.162856" style="fill-opacity: 0.1"/>
     <use xlink:href="#m45e3e6cbd5" x="115.536924" y="106.906194" style="fill-opacity: 0.1"/>
     <use xlink:href="#m45e3e6cbd5" x="130.920543" y="106.906194" style="fill-opacity: 0.1"/>
     <use xlink:href="#m45e3e6cbd5" x="114.494261" y="106.906194" style="fill-opacity: 0.1"/>
     <use xlink:href="#m45e3e6cbd5" x="111.319701" y="122.162856" style="fill-opacity: 0.1"/>
     <use xlink:href="#m45e3e6cbd5" x="130.012317" y="106.906194" style="fill-opacity: 0.1"/>
     <use xlink:href="#m45e3e6cbd5" x="114.140342" y="106.906194" style="fill-opacity: 0.1"/>
     <use xlink:href="#m45e3e6cbd5" x="124.234861" y="122.162856" style="fill-opacity: 0.1"/>
     <use xlink:href="#m45e3e6cbd5" x="110.267889" y="106.906194" style="fill-opacity: 0.1"/>
     <use xlink:href="#m45e3e6cbd5" x="125.140481" y="122.162856" style="fill-opacity: 0.1"/>
     <use xlink:href="#m45e3e6cbd5" x="128.480881" y="106.906194" style="fill-opacity: 0.1"/>
     <use xlink:href="#m45e3e6cbd5" x="115.003398" y="122.162856" style="fill-opacity: 0.1"/>
     <use xlink:href="#m45e3e6cbd5" x="117.361857" y="106.906194" style="fill-opacity: 0.1"/>
     <use xlink:href="#m45e3e6cbd5" x="117.256549" y="106.906194" style="fill-opacity: 0.1"/>
     <use xlink:href="#m45e3e6cbd5" x="125.540396" y="122.162856" style="fill-opacity: 0.1"/>
     <use xlink:href="#m45e3e6cbd5" x="114.237383" y="122.162856" style="fill-opacity: 0.1"/>
     <use xlink:href="#m45e3e6cbd5" x="112.778463" y="106.906194" style="fill-opacity: 0.1"/>
     <use xlink:href="#m45e3e6cbd5" x="118.915465" y="122.162856" style="fill-opacity: 0.1"/>
     <use xlink:href="#m45e3e6cbd5" x="115.711943" y="106.906194" style="fill-opacity: 0.1"/>
     <use xlink:href="#m45e3e6cbd5" x="127.540084" y="122.162856" style="fill-opacity: 0.1"/>
     <use xlink:href="#m45e3e6cbd5" x="114.235936" y="122.162856" style="fill-opacity: 0.1"/>
     <use xlink:href="#m45e3e6cbd5" x="120.09" y="106.906194" style="fill-opacity: 0.1"/>
     <use xlink:href="#m45e3e6cbd5" x="129.827192" y="106.906194" style="fill-opacity: 0.1"/>
     <use xlink:href="#m45e3e6cbd5" x="123.001204" y="106.906194" style="fill-opacity: 0.1"/>
     <use xlink:href="#m45e3e6cbd5" x="128.161668" y="122.162856" style="fill-opacity: 0.1"/>
     <use xlink:href="#m45e3e6cbd5" x="129.774681" y="106.906194" style="fill-opacity: 0.1"/>
     <use xlink:href="#m45e3e6cbd5" x="125.584119" y="106.906194" style="fill-opacity: 0.1"/>
     <use xlink:href="#m45e3e6cbd5" x="124.45179" y="106.906194" style="fill-opacity: 0.1"/>
     <use xlink:href="#m45e3e6cbd5" x="130.388647" y="106.906194" style="fill-opacity: 0.1"/>
     <use xlink:href="#m45e3e6cbd5" x="130.9734" y="106.906194" style="fill-opacity: 0.1"/>
     <use xlink:href="#m45e3e6cbd5" x="118.97143" y="106.906194" style="fill-opacity: 0.1"/>
     <use xlink:href="#m45e3e6cbd5" x="110.544689" y="106.906194" style="fill-opacity: 0.1"/>
     <use xlink:href="#m45e3e6cbd5" x="115.453703" y="106.906194" style="fill-opacity: 0.1"/>
     <use xlink:href="#m45e3e6cbd5" x="112.347154" y="106.906194" style="fill-opacity: 0.1"/>
     <use xlink:href="#m45e3e6cbd5" x="118.211925" y="106.906194" style="fill-opacity: 0.1"/>
     <use xlink:href="#m45e3e6cbd5" x="111.881183" y="106.906194" style="fill-opacity: 0.1"/>
     <use xlink:href="#m45e3e6cbd5" x="122.340254" y="122.162856" style="fill-opacity: 0.1"/>
     <use xlink:href="#m45e3e6cbd5" x="117.444833" y="106.906194" style="fill-opacity: 0.1"/>
     <use xlink:href="#m45e3e6cbd5" x="128.783168" y="122.162856" style="fill-opacity: 0.1"/>
     <use xlink:href="#m45e3e6cbd5" x="130.384867" y="106.906194" style="fill-opacity: 0.1"/>
     <use xlink:href="#m45e3e6cbd5" x="121.074249" y="122.162856" style="fill-opacity: 0.1"/>
     <use xlink:href="#m45e3e6cbd5" x="115.056192" y="106.906194" style="fill-opacity: 0.1"/>
     <use xlink:href="#m45e3e6cbd5" x="122.077302" y="122.162856" style="fill-opacity: 0.1"/>
     <use xlink:href="#m45e3e6cbd5" x="128.81359" y="122.162856" style="fill-opacity: 0.1"/>
     <use xlink:href="#m45e3e6cbd5" x="117.974066" y="106.906194" style="fill-opacity: 0.1"/>
     <use xlink:href="#m45e3e6cbd5" x="121.189128" y="106.906194" style="fill-opacity: 0.1"/>
     <use xlink:href="#m45e3e6cbd5" x="114.986053" y="122.162856" style="fill-opacity: 0.1"/>
     <use xlink:href="#m45e3e6cbd5" x="119.05156" y="122.162856" style="fill-opacity: 0.1"/>
     <use xlink:href="#m45e3e6cbd5" x="117.863026" y="106.906194" style="fill-opacity: 0.1"/>
     <use xlink:href="#m45e3e6cbd5" x="114.471995" y="122.162856" style="fill-opacity: 0.1"/>
     <use xlink:href="#m45e3e6cbd5" x="120.166911" y="106.906194" style="fill-opacity: 0.1"/>
    </g>
   </g>
   <g id="PathCollection_3">
    <g clip-path="url(#peff3b38ef8)">
     <use xlink:href="#m45e3e6cbd5" x="171.143282" y="106.906194" style="fill-opacity: 0.1"/>
     <use xlink:href="#m45e3e6cbd5" x="172.529203" y="122.162856" style="fill-opacity: 0.1"/>
     <use xlink:href="#m45e3e6cbd5" x="175.890052" y="106.906194" style="fill-opacity: 0.1"/>
     <use xlink:href="#m45e3e6cbd5" x="180.880918" y="106.906194" style="fill-opacity: 0.1"/>
     <use xlink:href="#m45e3e6cbd5" x="171.654848" y="106.906194" style="fill-opacity: 0.1"/>
     <use xlink:href="#m45e3e6cbd5" x="184.720186" y="106.906194" style="fill-opacity: 0.1"/>
     <use xlink:href="#m45e3e6cbd5" x="183.352267" y="106.906194" style="fill-opacity: 0.1"/>
     <use xlink:href="#m45e3e6cbd5" x="165.354629" y="106.906194" style="fill-opacity: 0.1"/>
     <use xlink:href="#m45e3e6cbd5" x="169.888218" y="106.906194" style="fill-opacity: 0.1"/>
     <use xlink:href="#m45e3e6cbd5" x="174.146206" y="106.906194" style="fill-opacity: 0.1"/>
     <use xlink:href="#m45e3e6cbd5" x="166.591981" y="122.162856" style="fill-opacity: 0.1"/>
     <use xlink:href="#m45e3e6cbd5" x="171.985955" y="106.906194" style="fill-opacity: 0.1"/>
     <use xlink:href="#m45e3e6cbd5" x="180.648711" y="106.906194" style="fill-opacity: 0.1"/>
     <use xlink:href="#m45e3e6cbd5" x="179.330721" y="106.906194" style="fill-opacity: 0.1"/>
     <use xlink:href="#m45e3e6cbd5" x="178.044871" y="106.906194" style="fill-opacity: 0.1"/>
     <use xlink:href="#m45e3e6cbd5" x="179.994635" y="122.162856" style="fill-opacity: 0.1"/>
     <use xlink:href="#m45e3e6cbd5" x="168.810547" y="122.162856" style="fill-opacity: 0.1"/>
     <use xlink:href="#m45e3e6cbd5" x="171.836027" y="122.162856" style="fill-opacity: 0.1"/>
     <use xlink:href="#m45e3e6cbd5" x="179.236223" y="122.162856" style="fill-opacity: 0.1"/>
     <use xlink:href="#m45e3e6cbd5" x="183.726457" y="122.162856" style="fill-opacity: 0.1"/>
     <use xlink:href="#m45e3e6cbd5" x="176.303868" y="122.162856" style="fill-opacity: 0.1"/>
     <use xlink:href="#m45e3e6cbd5" x="170.530968" y="106.906194" style="fill-opacity: 0.1"/>
     <use xlink:href="#m45e3e6cbd5" x="164.9464" y="106.906194" style="fill-opacity: 0.1"/>
     <use xlink:href="#m45e3e6cbd5" x="179.990398" y="106.906194" style="fill-opacity: 0.1"/>
     <use xlink:href="#m45e3e6cbd5" x="164.451987" y="122.162856" style="fill-opacity: 0.1"/>
     <use xlink:href="#m45e3e6cbd5" x="172.521333" y="106.906194" style="fill-opacity: 0.1"/>
     <use xlink:href="#m45e3e6cbd5" x="176.01319" y="106.906194" style="fill-opacity: 0.1"/>
     <use xlink:href="#m45e3e6cbd5" x="184.674899" y="106.906194" style="fill-opacity: 0.1"/>
     <use xlink:href="#m45e3e6cbd5" x="166.257228" y="122.162856" style="fill-opacity: 0.1"/>
     <use xlink:href="#m45e3e6cbd5" x="173.257123" y="106.906194" style="fill-opacity: 0.1"/>
     <use xlink:href="#m45e3e6cbd5" x="164.815402" y="122.162856" style="fill-opacity: 0.1"/>
     <use xlink:href="#m45e3e6cbd5" x="171.85622" y="122.162856" style="fill-opacity: 0.1"/>
     <use xlink:href="#m45e3e6cbd5" x="178.041478" y="122.162856" style="fill-opacity: 0.1"/>
     <use xlink:href="#m45e3e6cbd5" x="170.450634" y="106.906194" style="fill-opacity: 0.1"/>
     <use xlink:href="#m45e3e6cbd5" x="168.917305" y="122.162856" style="fill-opacity: 0.1"/>
     <use xlink:href="#m45e3e6cbd5" x="166.83697" y="122.162856" style="fill-opacity: 0.1"/>
     <use xlink:href="#m45e3e6cbd5" x="177.044059" y="122.162856" style="fill-opacity: 0.1"/>
     <use xlink:href="#m45e3e6cbd5" x="179.657116" y="122.162856" style="fill-opacity: 0.1"/>
     <use xlink:href="#m45e3e6cbd5" x="179.14143" y="122.162856" style="fill-opacity: 0.1"/>
     <use xlink:href="#m45e3e6cbd5" x="185.266606" y="122.162856" style="fill-opacity: 0.1"/>
     <use xlink:href="#m45e3e6cbd5" x="164.337385" y="106.906194" style="fill-opacity: 0.1"/>
     <use xlink:href="#m45e3e6cbd5" x="178.593723" y="106.906194" style="fill-opacity: 0.1"/>
     <use xlink:href="#m45e3e6cbd5" x="177.558399" y="122.162856" style="fill-opacity: 0.1"/>
     <use xlink:href="#m45e3e6cbd5" x="177.30064" y="106.906194" style="fill-opacity: 0.1"/>
     <use xlink:href="#m45e3e6cbd5" x="185.574282" y="106.906194" style="fill-opacity: 0.1"/>
     <use xlink:href="#m45e3e6cbd5" x="164.650794" y="106.906194" style="fill-opacity: 0.1"/>
     <use xlink:href="#m45e3e6cbd5" x="179.683935" y="106.906194" style="fill-opacity: 0.1"/>
     <use xlink:href="#m45e3e6cbd5" x="182.276342" y="122.162856" style="fill-opacity: 0.1"/>
     <use xlink:href="#m45e3e6cbd5" x="175.554638" y="122.162856" style="fill-opacity: 0.1"/>
     <use xlink:href="#m45e3e6cbd5" x="171.664966" y="122.162856" style="fill-opacity: 0.1"/>
     <use xlink:href="#m45e3e6cbd5" x="181.771149" y="106.906194" style="fill-opacity: 0.1"/>
     <use xlink:href="#m45e3e6cbd5" x="166.428624" y="106.906194" style="fill-opacity: 0.1"/>
     <use xlink:href="#m45e3e6cbd5" x="174.055516" y="122.162856" style="fill-opacity: 0.1"/>
     <use xlink:href="#m45e3e6cbd5" x="175.779051" y="122.162856" style="fill-opacity: 0.1"/>
     <use xlink:href="#m45e3e6cbd5" x="179.628059" y="106.906194" style="fill-opacity: 0.1"/>
     <use xlink:href="#m45e3e6cbd5" x="166.288002" y="106.906194" style="fill-opacity: 0.1"/>
     <use xlink:href="#m45e3e6cbd5" x="169.31568" y="106.906194" style="fill-opacity: 0.1"/>
     <use xlink:href="#m45e3e6cbd5" x="173.353551" y="106.906194" style="fill-opacity: 0.1"/>
     <use xlink:href="#m45e3e6cbd5" x="178.065006" y="122.162856" style="fill-opacity: 0.1"/>
     <use xlink:href="#m45e3e6cbd5" x="183.897359" y="106.906194" style="fill-opacity: 0.1"/>
     <use xlink:href="#m45e3e6cbd5" x="177.966161" y="106.906194" style="fill-opacity: 0.1"/>
     <use xlink:href="#m45e3e6cbd5" x="167.229786" y="106.906194" style="fill-opacity: 0.1"/>
     <use xlink:href="#m45e3e6cbd5" x="185.968239" y="122.162856" style="fill-opacity: 0.1"/>
     <use xlink:href="#m45e3e6cbd5" x="183.561683" y="106.906194" style="fill-opacity: 0.1"/>
     <use xlink:href="#m45e3e6cbd5" x="175.397884" y="106.906194" style="fill-opacity: 0.1"/>
     <use xlink:href="#m45e3e6cbd5" x="184.680131" y="106.906194" style="fill-opacity: 0.1"/>
     <use xlink:href="#m45e3e6cbd5" x="176.253052" y="106.906194" style="fill-opacity: 0.1"/>
     <use xlink:href="#m45e3e6cbd5" x="184.701324" y="106.906194" style="fill-opacity: 0.1"/>
     <use xlink:href="#m45e3e6cbd5" x="182.635103" y="122.162856" style="fill-opacity: 0.1"/>
     <use xlink:href="#m45e3e6cbd5" x="185.6963" y="106.906194" style="fill-opacity: 0.1"/>
     <use xlink:href="#m45e3e6cbd5" x="184.623389" y="106.906194" style="fill-opacity: 0.1"/>
     <use xlink:href="#m45e3e6cbd5" x="165.074665" y="122.162856" style="fill-opacity: 0.1"/>
     <use xlink:href="#m45e3e6cbd5" x="168.143585" y="122.162856" style="fill-opacity: 0.1"/>
     <use xlink:href="#m45e3e6cbd5" x="172.885335" y="122.162856" style="fill-opacity: 0.1"/>
     <use xlink:href="#m45e3e6cbd5" x="185.339197" y="106.906194" style="fill-opacity: 0.1"/>
     <use xlink:href="#m45e3e6cbd5" x="170.914295" y="122.162856" style="fill-opacity: 0.1"/>
     <use xlink:href="#m45e3e6cbd5" x="167.827169" y="106.906194" style="fill-opacity: 0.1"/>
     <use xlink:href="#m45e3e6cbd5" x="183.882845" y="106.906194" style="fill-opacity: 0.1"/>
     <use xlink:href="#m45e3e6cbd5" x="174.151933" y="106.906194" style="fill-opacity: 0.1"/>
     <use xlink:href="#m45e3e6cbd5" x="184.359999" y="106.906194" style="fill-opacity: 0.1"/>
     <use xlink:href="#m45e3e6cbd5" x="167.821923" y="106.906194" style="fill-opacity: 0.1"/>
     <use xlink:href="#m45e3e6cbd5" x="178.901655" y="106.906194" style="fill-opacity: 0.1"/>
     <use xlink:href="#m45e3e6cbd5" x="174.016321" y="106.906194" style="fill-opacity: 0.1"/>
     <use xlink:href="#m45e3e6cbd5" x="165.969493" y="106.906194" style="fill-opacity: 0.1"/>
     <use xlink:href="#m45e3e6cbd5" x="179.683509" y="106.906194" style="fill-opacity: 0.1"/>
     <use xlink:href="#m45e3e6cbd5" x="169.750105" y="106.906194" style="fill-opacity: 0.1"/>
     <use xlink:href="#m45e3e6cbd5" x="165.153893" y="122.162856" style="fill-opacity: 0.1"/>
     <use xlink:href="#m45e3e6cbd5" x="165.60357" y="122.162856" style="fill-opacity: 0.1"/>
     <use xlink:href="#m45e3e6cbd5" x="165.62866" y="106.906194" style="fill-opacity: 0.1"/>
     <use xlink:href="#m45e3e6cbd5" x="184.356844" y="122.162856" style="fill-opacity: 0.1"/>
     <use xlink:href="#m45e3e6cbd5" x="180.643986" y="106.906194" style="fill-opacity: 0.1"/>
     <use xlink:href="#m45e3e6cbd5" x="184.142928" y="122.162856" style="fill-opacity: 0.1"/>
     <use xlink:href="#m45e3e6cbd5" x="179.155259" y="122.162856" style="fill-opacity: 0.1"/>
     <use xlink:href="#m45e3e6cbd5" x="175.977858" y="106.906194" style="fill-opacity: 0.1"/>
     <use xlink:href="#m45e3e6cbd5" x="171.01201" y="106.906194" style="fill-opacity: 0.1"/>
     <use xlink:href="#m45e3e6cbd5" x="186.352736" y="106.906194" style="fill-opacity: 0.1"/>
     <use xlink:href="#m45e3e6cbd5" x="172.289292" y="106.906194" style="fill-opacity: 0.1"/>
     <use xlink:href="#m45e3e6cbd5" x="174.688448" y="106.906194" style="fill-opacity: 0.1"/>
     <use xlink:href="#m45e3e6cbd5" x="172.644456" y="106.906194" style="fill-opacity: 0.1"/>
     <use xlink:href="#m45e3e6cbd5" x="185.944942" y="106.906194" style="fill-opacity: 0.1"/>
    </g>
   </g>
   <g id="text_4">
    <!-- *** -->
    <g transform="translate(108.037145 95.636759) scale(0.16 -0.16)">
     <defs>
      <path id="DejaVuSans-2a" d="M 3009 3897 
L 1888 3291 
L 3009 2681 
L 2828 2375 
L 1778 3009 
L 1778 1831 
L 1422 1831 
L 1422 3009 
L 372 2375 
L 191 2681 
L 1313 3291 
L 191 3897 
L 372 4206 
L 1422 3572 
L 1422 4750 
L 1778 4750 
L 1778 3572 
L 2828 4206 
L 3009 3897 
z
" transform="scale(0.015625)"/>
     </defs>
     <use xlink:href="#DejaVuSans-2a"/>
     <use xlink:href="#DejaVuSans-2a" transform="translate(50 0)"/>
     <use xlink:href="#DejaVuSans-2a" transform="translate(100 0)"/>
    </g>
   </g>
   <g id="text_5">
    <!-- *** -->
    <g transform="translate(80.386867 73.36935) scale(0.16 -0.16)">
     <use xlink:href="#DejaVuSans-2a"/>
     <use xlink:href="#DejaVuSans-2a" transform="translate(50 0)"/>
     <use xlink:href="#DejaVuSans-2a" transform="translate(100 0)"/>
    </g>
   </g>
   <g id="text_6">
    <!-- ns -->
    <g transform="translate(138.449923 68.230721) scale(0.16 -0.16)">
     <use xlink:href="#DejaVuSans-6e"/>
     <use xlink:href="#DejaVuSans-73" transform="translate(63.378906 0)"/>
    </g>
   </g>
   <g id="text_7">
    <!-- Compositional -->
    <g transform="translate(48.679332 29.437125) scale(0.2 -0.2)">
     <defs>
      <path id="DejaVuSans-43" d="M 4122 4306 
L 4122 3641 
Q 3803 3938 3442 4084 
Q 3081 4231 2675 4231 
Q 1875 4231 1450 3742 
Q 1025 3253 1025 2328 
Q 1025 1406 1450 917 
Q 1875 428 2675 428 
Q 3081 428 3442 575 
Q 3803 722 4122 1019 
L 4122 359 
Q 3791 134 3420 21 
Q 3050 -91 2638 -91 
Q 1578 -91 968 557 
Q 359 1206 359 2328 
Q 359 3453 968 4101 
Q 1578 4750 2638 4750 
Q 3056 4750 3426 4639 
Q 3797 4528 4122 4306 
z
" transform="scale(0.015625)"/>
      <path id="DejaVuSans-70" d="M 1159 525 
L 1159 -1331 
L 581 -1331 
L 581 3500 
L 1159 3500 
L 1159 2969 
Q 1341 3281 1617 3432 
Q 1894 3584 2278 3584 
Q 2916 3584 3314 3078 
Q 3713 2572 3713 1747 
Q 3713 922 3314 415 
Q 2916 -91 2278 -91 
Q 1894 -91 1617 61 
Q 1341 213 1159 525 
z
M 3116 1747 
Q 3116 2381 2855 2742 
Q 2594 3103 2138 3103 
Q 1681 3103 1420 2742 
Q 1159 2381 1159 1747 
Q 1159 1113 1420 752 
Q 1681 391 2138 391 
Q 2594 391 2855 752 
Q 3116 1113 3116 1747 
z
" transform="scale(0.015625)"/>
     </defs>
     <use xlink:href="#DejaVuSans-43"/>
     <use xlink:href="#DejaVuSans-6f" transform="translate(69.824219 0)"/>
     <use xlink:href="#DejaVuSans-6d" transform="translate(131.005859 0)"/>
     <use xlink:href="#DejaVuSans-70" transform="translate(228.417969 0)"/>
     <use xlink:href="#DejaVuSans-6f" transform="translate(291.894531 0)"/>
     <use xlink:href="#DejaVuSans-73" transform="translate(353.076172 0)"/>
     <use xlink:href="#DejaVuSans-69" transform="translate(405.175781 0)"/>
     <use xlink:href="#DejaVuSans-74" transform="translate(432.958984 0)"/>
     <use xlink:href="#DejaVuSans-69" transform="translate(472.167969 0)"/>
     <use xlink:href="#DejaVuSans-6f" transform="translate(499.951172 0)"/>
     <use xlink:href="#DejaVuSans-6e" transform="translate(561.132812 0)"/>
     <use xlink:href="#DejaVuSans-61" transform="translate(624.511719 0)"/>
     <use xlink:href="#DejaVuSans-6c" transform="translate(685.791016 0)"/>
    </g>
    <!-- Out-Of-Distribution -->
    <g transform="translate(25.237145 51.83275) scale(0.2 -0.2)">
     <defs>
      <path id="DejaVuSans-4f" d="M 2522 4238 
Q 1834 4238 1429 3725 
Q 1025 3213 1025 2328 
Q 1025 1447 1429 934 
Q 1834 422 2522 422 
Q 3209 422 3611 934 
Q 4013 1447 4013 2328 
Q 4013 3213 3611 3725 
Q 3209 4238 2522 4238 
z
M 2522 4750 
Q 3503 4750 4090 4092 
Q 4678 3434 4678 2328 
Q 4678 1225 4090 567 
Q 3503 -91 2522 -91 
Q 1538 -91 948 565 
Q 359 1222 359 2328 
Q 359 3434 948 4092 
Q 1538 4750 2522 4750 
z
" transform="scale(0.015625)"/>
      <path id="DejaVuSans-75" d="M 544 1381 
L 544 3500 
L 1119 3500 
L 1119 1403 
Q 1119 906 1312 657 
Q 1506 409 1894 409 
Q 2359 409 2629 706 
Q 2900 1003 2900 1516 
L 2900 3500 
L 3475 3500 
L 3475 0 
L 2900 0 
L 2900 538 
Q 2691 219 2414 64 
Q 2138 -91 1772 -91 
Q 1169 -91 856 284 
Q 544 659 544 1381 
z
M 1991 3584 
L 1991 3584 
z
" transform="scale(0.015625)"/>
      <path id="DejaVuSans-66" d="M 2375 4863 
L 2375 4384 
L 1825 4384 
Q 1516 4384 1395 4259 
Q 1275 4134 1275 3809 
L 1275 3500 
L 2222 3500 
L 2222 3053 
L 1275 3053 
L 1275 0 
L 697 0 
L 697 3053 
L 147 3053 
L 147 3500 
L 697 3500 
L 697 3744 
Q 697 4328 969 4595 
Q 1241 4863 1831 4863 
L 2375 4863 
z
" transform="scale(0.015625)"/>
      <path id="DejaVuSans-44" d="M 1259 4147 
L 1259 519 
L 2022 519 
Q 2988 519 3436 956 
Q 3884 1394 3884 2338 
Q 3884 3275 3436 3711 
Q 2988 4147 2022 4147 
L 1259 4147 
z
M 628 4666 
L 1925 4666 
Q 3281 4666 3915 4102 
Q 4550 3538 4550 2338 
Q 4550 1131 3912 565 
Q 3275 0 1925 0 
L 628 0 
L 628 4666 
z
" transform="scale(0.015625)"/>
     </defs>
     <use xlink:href="#DejaVuSans-4f"/>
     <use xlink:href="#DejaVuSans-75" transform="translate(78.710938 0)"/>
     <use xlink:href="#DejaVuSans-74" transform="translate(142.089844 0)"/>
     <use xlink:href="#DejaVuSans-2d" transform="translate(181.298828 0)"/>
     <use xlink:href="#DejaVuSans-4f" transform="translate(220.132812 0)"/>
     <use xlink:href="#DejaVuSans-66" transform="translate(298.84375 0)"/>
     <use xlink:href="#DejaVuSans-2d" transform="translate(328.548828 0)"/>
     <use xlink:href="#DejaVuSans-44" transform="translate(364.632812 0)"/>
     <use xlink:href="#DejaVuSans-69" transform="translate(441.634766 0)"/>
     <use xlink:href="#DejaVuSans-73" transform="translate(469.417969 0)"/>
     <use xlink:href="#DejaVuSans-74" transform="translate(521.517578 0)"/>
     <use xlink:href="#DejaVuSans-72" transform="translate(560.726562 0)"/>
     <use xlink:href="#DejaVuSans-69" transform="translate(601.839844 0)"/>
     <use xlink:href="#DejaVuSans-62" transform="translate(629.623047 0)"/>
     <use xlink:href="#DejaVuSans-75" transform="translate(693.099609 0)"/>
     <use xlink:href="#DejaVuSans-74" transform="translate(756.478516 0)"/>
     <use xlink:href="#DejaVuSans-69" transform="translate(795.6875 0)"/>
     <use xlink:href="#DejaVuSans-6f" transform="translate(823.470703 0)"/>
     <use xlink:href="#DejaVuSans-6e" transform="translate(884.652344 0)"/>
    </g>
    <!--  -->
    <g transform="translate(120.037145 74.228375) scale(0.2 -0.2)"/>
    <!--  -->
    <g transform="translate(120.037145 96.624) scale(0.2 -0.2)"/>
   </g>
   <g id="LineCollection_1">
    <path d="M 64.73659 118.475663 
L 64.73659 117.549912 
" clip-path="url(#peff3b38ef8)" style="fill: none; stroke: #000000; stroke-width: 2"/>
    <path d="M 120.037145 114.225684 
L 120.037145 112.707432 
" clip-path="url(#peff3b38ef8)" style="fill: none; stroke: #000000; stroke-width: 2"/>
    <path d="M 175.3377 113.291464 
L 175.3377 111.810845 
" clip-path="url(#peff3b38ef8)" style="fill: none; stroke: #000000; stroke-width: 2"/>
   </g>
   <g id="line2d_7">
    <defs>
     <path id="mbd11385c27" d="M 5 0 
L -5 -0 
" style="stroke: #000000"/>
    </defs>
    <g clip-path="url(#peff3b38ef8)">
     <use xlink:href="#mbd11385c27" x="64.73659" y="118.475663" style="stroke: #000000"/>
     <use xlink:href="#mbd11385c27" x="120.037145" y="114.225684" style="stroke: #000000"/>
     <use xlink:href="#mbd11385c27" x="175.3377" y="113.291464" style="stroke: #000000"/>
    </g>
   </g>
   <g id="line2d_8">
    <g clip-path="url(#peff3b38ef8)">
     <use xlink:href="#mbd11385c27" x="64.73659" y="117.549912" style="stroke: #000000"/>
     <use xlink:href="#mbd11385c27" x="120.037145" y="112.707432" style="stroke: #000000"/>
     <use xlink:href="#mbd11385c27" x="175.3377" y="111.810845" style="stroke: #000000"/>
    </g>
   </g>
   <g id="line2d_9">
    <defs>
     <path id="m4128cf97ac" d="M 0 3 
C 0.795609 3 1.55874 2.683901 2.12132 2.12132 
C 2.683901 1.55874 3 0.795609 3 0 
C 3 -0.795609 2.683901 -1.55874 2.12132 -2.12132 
C 1.55874 -2.683901 0.795609 -3 0 -3 
C -0.795609 -3 -1.55874 -2.683901 -2.12132 -2.12132 
C -2.683901 -1.55874 -3 -0.795609 -3 0 
C -3 0.795609 -2.683901 1.55874 -2.12132 2.12132 
C -1.55874 2.683901 -0.795609 3 0 3 
z
" style="stroke: #000000"/>
    </defs>
    <g clip-path="url(#peff3b38ef8)">
     <use xlink:href="#m4128cf97ac" x="64.73659" y="118.012788" style="stroke: #000000"/>
     <use xlink:href="#m4128cf97ac" x="120.037145" y="113.466558" style="stroke: #000000"/>
     <use xlink:href="#m4128cf97ac" x="175.3377" y="112.551155" style="stroke: #000000"/>
    </g>
   </g>
  </g>
 </g>
 <defs>
  <clipPath id="peff3b38ef8">
   <rect x="34.87429" y="102.624" width="170.32571" height="89.926081"/>
  </clipPath>
 </defs>
</svg>
