<?xml version="1.0" encoding="utf-8" standalone="no"?>
<!DOCTYPE svg PUBLIC "-//W3C//DTD SVG 1.1//EN"
  "http://www.w3.org/Graphics/SVG/1.1/DTD/svg11.dtd">
<svg xmlns:xlink="http://www.w3.org/1999/xlink" width="216pt" height="288pt" viewBox="0 0 216 288" xmlns="http://www.w3.org/2000/svg" version="1.1">
 <metadata>
  <rdf:RDF xmlns:dc="http://purl.org/dc/elements/1.1/" xmlns:cc="http://creativecommons.org/ns#" xmlns:rdf="http://www.w3.org/1999/02/22-rdf-syntax-ns#">
   <cc:Work>
    <dc:type rdf:resource="http://purl.org/dc/dcmitype/StillImage"/>
    <dc:date>2025-10-17T19:21:58.046413</dc:date>
    <dc:format>image/svg+xml</dc:format>
    <dc:creator>
     <cc:Agent>
      <dc:title>Matplotlib v3.10.1, https://matplotlib.org/</dc:title>
     </cc:Agent>
    </dc:creator>
   </cc:Work>
  </rdf:RDF>
 </metadata>
 <defs>
  <style type="text/css">*{stroke-linejoin: round; stroke-linecap: butt}</style>
 </defs>
 <g id="figure_1">
  <g id="patch_1">
   <path d="M 0 288 
L 216 288 
L 216 0 
L 0 0 
L 0 288 
z
" style="fill: none"/>
  </g>
  <g id="axes_1">
   <g id="patch_2">
    <path d="M 34.87429 192.550081 
L 205.2 192.550081 
L 205.2 102.624 
L 34.87429 102.624 
L 34.87429 192.550081 
z
" style="fill: none"/>
   </g>
   <g id="FillBetweenPolyCollection_1">
    <defs>
     <path id="m179a66586c" d="M 65.463984 -163.491618 
L 64.009195 -163.491618 
L 63.954895 -163.658115 
L 63.897338 -163.824612 
L 63.834895 -163.991109 
L 63.765626 -164.157607 
L 63.687358 -164.324104 
L 63.597774 -164.490601 
L 63.49453 -164.657098 
L 63.375388 -164.823595 
L 63.238362 -164.990092 
L 63.081867 -165.15659 
L 62.904871 -165.323087 
L 62.70704 -165.489584 
L 62.488862 -165.656081 
L 62.251735 -165.822578 
L 61.998029 -165.989076 
L 61.73108 -166.155573 
L 61.455132 -166.32207 
L 61.175214 -166.488567 
L 60.896942 -166.655064 
L 60.626274 -166.821562 
L 60.369202 -166.988059 
L 60.131427 -167.154556 
L 59.918017 -167.321053 
L 59.733078 -167.48755 
L 59.579475 -167.654047 
L 59.458608 -167.820545 
L 59.370268 -167.987042 
L 59.312595 -168.153539 
L 59.282127 -168.320036 
L 59.273941 -168.486533 
L 59.281888 -168.653031 
L 59.298885 -168.819528 
L 59.31726 -168.986025 
L 59.329112 -169.152522 
L 59.326676 -169.319019 
L 59.302651 -169.485517 
L 59.250484 -169.652014 
L 59.164589 -169.818511 
L 59.040485 -169.985008 
L 58.874863 -170.151505 
L 58.665562 -170.318002 
L 58.411483 -170.4845 
L 58.112443 -170.650997 
L 57.768992 -170.817494 
L 57.382204 -170.983991 
L 56.953485 -171.150488 
L 56.484393 -171.316986 
L 55.976503 -171.483483 
L 55.431336 -171.64998 
L 54.850345 -171.816477 
L 54.23497 -171.982974 
L 53.586761 -172.149472 
L 52.90755 -172.315969 
L 52.199656 -172.482466 
L 51.466119 -172.648963 
L 50.710911 -172.81546 
L 49.939128 -172.981957 
L 49.157126 -173.148455 
L 48.37258 -173.314952 
L 47.594467 -173.481449 
L 46.832948 -173.647946 
L 46.099166 -173.814443 
L 45.404958 -173.980941 
L 44.762503 -174.147438 
L 44.183918 -174.313935 
L 43.680838 -174.480432 
L 43.26399 -174.646929 
L 42.942789 -174.813427 
L 42.724988 -174.979924 
L 42.616367 -175.146421 
L 42.620516 -175.312918 
L 42.738672 -175.479415 
L 42.969651 -175.645912 
L 43.309866 -175.81241 
L 43.75341 -175.978907 
L 44.292244 -176.145404 
L 44.916439 -176.311901 
L 45.614513 -176.478398 
L 46.373813 -176.644896 
L 47.180959 -176.811393 
L 48.022322 -176.97789 
L 48.884508 -177.144387 
L 49.754838 -177.310884 
L 50.621784 -177.477382 
L 51.475332 -177.643879 
L 52.307262 -177.810376 
L 53.111313 -177.976873 
L 53.883222 -178.14337 
L 54.620641 -178.309867 
L 55.322942 -178.476365 
L 55.990923 -178.642862 
L 56.626446 -178.809359 
L 57.232039 -178.975856 
L 57.810495 -179.142353 
L 58.364513 -179.308851 
L 58.896382 -179.475348 
L 59.407768 -179.641845 
L 59.899583 -179.808342 
L 60.371953 -179.974839 
L 69.101226 -179.974839 
L 69.101226 -179.974839 
L 69.573596 -179.808342 
L 70.065411 -179.641845 
L 70.576797 -179.475348 
L 71.108667 -179.308851 
L 71.662684 -179.142353 
L 72.241141 -178.975856 
L 72.846733 -178.809359 
L 73.482256 -178.642862 
L 74.150237 -178.476365 
L 74.852538 -178.309867 
L 75.589957 -178.14337 
L 76.361866 -177.976873 
L 77.165917 -177.810376 
L 77.997848 -177.643879 
L 78.851395 -177.477382 
L 79.718341 -177.310884 
L 80.588671 -177.144387 
L 81.450858 -176.97789 
L 82.29222 -176.811393 
L 83.099366 -176.644896 
L 83.858666 -176.478398 
L 84.55674 -176.311901 
L 85.180936 -176.145404 
L 85.719769 -175.978907 
L 86.163313 -175.81241 
L 86.503528 -175.645912 
L 86.734508 -175.479415 
L 86.852663 -175.312918 
L 86.856812 -175.146421 
L 86.748192 -174.979924 
L 86.53039 -174.813427 
L 86.20919 -174.646929 
L 85.792341 -174.480432 
L 85.289261 -174.313935 
L 84.710677 -174.147438 
L 84.068221 -173.980941 
L 83.374013 -173.814443 
L 82.640231 -173.647946 
L 81.878712 -173.481449 
L 81.100599 -173.314952 
L 80.316053 -173.148455 
L 79.534051 -172.981957 
L 78.762268 -172.81546 
L 78.00706 -172.648963 
L 77.273523 -172.482466 
L 76.56563 -172.315969 
L 75.886418 -172.149472 
L 75.238209 -171.982974 
L 74.622834 -171.816477 
L 74.041843 -171.64998 
L 73.496676 -171.483483 
L 72.988786 -171.316986 
L 72.519694 -171.150488 
L 72.090975 -170.983991 
L 71.704188 -170.817494 
L 71.360736 -170.650997 
L 71.061696 -170.4845 
L 70.807617 -170.318002 
L 70.598316 -170.151505 
L 70.432694 -169.985008 
L 70.30859 -169.818511 
L 70.222695 -169.652014 
L 70.170528 -169.485517 
L 70.146503 -169.319019 
L 70.144067 -169.152522 
L 70.15592 -168.986025 
L 70.174294 -168.819528 
L 70.191291 -168.653031 
L 70.199238 -168.486533 
L 70.191052 -168.320036 
L 70.160584 -168.153539 
L 70.102911 -167.987042 
L 70.014571 -167.820545 
L 69.893704 -167.654047 
L 69.740101 -167.48755 
L 69.555163 -167.321053 
L 69.341752 -167.154556 
L 69.103978 -166.988059 
L 68.846906 -166.821562 
L 68.576237 -166.655064 
L 68.297965 -166.488567 
L 68.018047 -166.32207 
L 67.7421 -166.155573 
L 67.475151 -165.989076 
L 67.221444 -165.822578 
L 66.984318 -165.656081 
L 66.766139 -165.489584 
L 66.568308 -165.323087 
L 66.391313 -165.15659 
L 66.234817 -164.990092 
L 66.097791 -164.823595 
L 65.978649 -164.657098 
L 65.875405 -164.490601 
L 65.785821 -164.324104 
L 65.707553 -164.157607 
L 65.638284 -163.991109 
L 65.575841 -163.824612 
L 65.518285 -163.658115 
L 65.463984 -163.491618 
z
" style="stroke: #323232; stroke-opacity: 0.4; stroke-width: 1.25"/>
    </defs>
    <g clip-path="url(#pfbe1124280)">
     <use xlink:href="#m179a66586c" x="0" y="288" style="fill: #dc9238; fill-opacity: 0.4; stroke: #323232; stroke-opacity: 0.4; stroke-width: 1.25"/>
    </g>
   </g>
   <g id="matplotlib.axis_1">
    <g id="xtick_1">
     <g id="line2d_1">
      <defs>
       <path id="m422df93474" d="M 0 0 
L 0 3.5 
" style="stroke: #000000; stroke-width: 0.8"/>
      </defs>
      <g>
       <use xlink:href="#m422df93474" x="64.73659" y="192.550081" style="stroke: #000000; stroke-width: 0.8"/>
      </g>
     </g>
     <g id="text_1">
      <!-- MTL-sensory -->
      <g transform="translate(18.273489 267.913467) rotate(-30) scale(0.18 -0.18)">
       <defs>
        <path id="DejaVuSans-4d" d="M 628 4666 
L 1569 4666 
L 2759 1491 
L 3956 4666 
L 4897 4666 
L 4897 0 
L 4281 0 
L 4281 4097 
L 3078 897 
L 2444 897 
L 1241 4097 
L 1241 0 
L 628 0 
L 628 4666 
z
" transform="scale(0.015625)"/>
        <path id="DejaVuSans-54" d="M -19 4666 
L 3928 4666 
L 3928 4134 
L 2272 4134 
L 2272 0 
L 1638 0 
L 1638 4134 
L -19 4134 
L -19 4666 
z
" transform="scale(0.015625)"/>
        <path id="DejaVuSans-4c" d="M 628 4666 
L 1259 4666 
L 1259 531 
L 3531 531 
L 3531 0 
L 628 0 
L 628 4666 
z
" transform="scale(0.015625)"/>
        <path id="DejaVuSans-2d" d="M 313 2009 
L 1997 2009 
L 1997 1497 
L 313 1497 
L 313 2009 
z
" transform="scale(0.015625)"/>
        <path id="DejaVuSans-73" d="M 2834 3397 
L 2834 2853 
Q 2591 2978 2328 3040 
Q 2066 3103 1784 3103 
Q 1356 3103 1142 2972 
Q 928 2841 928 2578 
Q 928 2378 1081 2264 
Q 1234 2150 1697 2047 
L 1894 2003 
Q 2506 1872 2764 1633 
Q 3022 1394 3022 966 
Q 3022 478 2636 193 
Q 2250 -91 1575 -91 
Q 1294 -91 989 -36 
Q 684 19 347 128 
L 347 722 
Q 666 556 975 473 
Q 1284 391 1588 391 
Q 1994 391 2212 530 
Q 2431 669 2431 922 
Q 2431 1156 2273 1281 
Q 2116 1406 1581 1522 
L 1381 1569 
Q 847 1681 609 1914 
Q 372 2147 372 2553 
Q 372 3047 722 3315 
Q 1072 3584 1716 3584 
Q 2034 3584 2315 3537 
Q 2597 3491 2834 3397 
z
" transform="scale(0.015625)"/>
        <path id="DejaVuSans-65" d="M 3597 1894 
L 3597 1613 
L 953 1613 
Q 991 1019 1311 708 
Q 1631 397 2203 397 
Q 2534 397 2845 478 
Q 3156 559 3463 722 
L 3463 178 
Q 3153 47 2828 -22 
Q 2503 -91 2169 -91 
Q 1331 -91 842 396 
Q 353 884 353 1716 
Q 353 2575 817 3079 
Q 1281 3584 2069 3584 
Q 2775 3584 3186 3129 
Q 3597 2675 3597 1894 
z
M 3022 2063 
Q 3016 2534 2758 2815 
Q 2500 3097 2075 3097 
Q 1594 3097 1305 2825 
Q 1016 2553 972 2059 
L 3022 2063 
z
" transform="scale(0.015625)"/>
        <path id="DejaVuSans-6e" d="M 3513 2113 
L 3513 0 
L 2938 0 
L 2938 2094 
Q 2938 2591 2744 2837 
Q 2550 3084 2163 3084 
Q 1697 3084 1428 2787 
Q 1159 2491 1159 1978 
L 1159 0 
L 581 0 
L 581 3500 
L 1159 3500 
L 1159 2956 
Q 1366 3272 1645 3428 
Q 1925 3584 2291 3584 
Q 2894 3584 3203 3211 
Q 3513 2838 3513 2113 
z
" transform="scale(0.015625)"/>
        <path id="DejaVuSans-6f" d="M 1959 3097 
Q 1497 3097 1228 2736 
Q 959 2375 959 1747 
Q 959 1119 1226 758 
Q 1494 397 1959 397 
Q 2419 397 2687 759 
Q 2956 1122 2956 1747 
Q 2956 2369 2687 2733 
Q 2419 3097 1959 3097 
z
M 1959 3584 
Q 2709 3584 3137 3096 
Q 3566 2609 3566 1747 
Q 3566 888 3137 398 
Q 2709 -91 1959 -91 
Q 1206 -91 779 398 
Q 353 888 353 1747 
Q 353 2609 779 3096 
Q 1206 3584 1959 3584 
z
" transform="scale(0.015625)"/>
        <path id="DejaVuSans-72" d="M 2631 2963 
Q 2534 3019 2420 3045 
Q 2306 3072 2169 3072 
Q 1681 3072 1420 2755 
Q 1159 2438 1159 1844 
L 1159 0 
L 581 0 
L 581 3500 
L 1159 3500 
L 1159 2956 
Q 1341 3275 1631 3429 
Q 1922 3584 2338 3584 
Q 2397 3584 2469 3576 
Q 2541 3569 2628 3553 
L 2631 2963 
z
" transform="scale(0.015625)"/>
        <path id="DejaVuSans-79" d="M 2059 -325 
Q 1816 -950 1584 -1140 
Q 1353 -1331 966 -1331 
L 506 -1331 
L 506 -850 
L 844 -850 
Q 1081 -850 1212 -737 
Q 1344 -625 1503 -206 
L 1606 56 
L 191 3500 
L 800 3500 
L 1894 763 
L 2988 3500 
L 3597 3500 
L 2059 -325 
z
" transform="scale(0.015625)"/>
       </defs>
       <use xlink:href="#DejaVuSans-4d"/>
       <use xlink:href="#DejaVuSans-54" transform="translate(86.279297 0)"/>
       <use xlink:href="#DejaVuSans-4c" transform="translate(147.363281 0)"/>
       <use xlink:href="#DejaVuSans-2d" transform="translate(201.326172 0)"/>
       <use xlink:href="#DejaVuSans-73" transform="translate(237.410156 0)"/>
       <use xlink:href="#DejaVuSans-65" transform="translate(289.509766 0)"/>
       <use xlink:href="#DejaVuSans-6e" transform="translate(351.033203 0)"/>
       <use xlink:href="#DejaVuSans-73" transform="translate(414.412109 0)"/>
       <use xlink:href="#DejaVuSans-6f" transform="translate(466.511719 0)"/>
       <use xlink:href="#DejaVuSans-72" transform="translate(527.693359 0)"/>
       <use xlink:href="#DejaVuSans-79" transform="translate(568.806641 0)"/>
      </g>
     </g>
    </g>
    <g id="xtick_2">
     <g id="line2d_2">
      <g>
       <use xlink:href="#m422df93474" x="120.037145" y="192.550081" style="stroke: #000000; stroke-width: 0.8"/>
      </g>
     </g>
     <g id="text_2">
      <!-- MTL-semantic -->
      <g transform="translate(68.345822 273.950498) rotate(-30) scale(0.18 -0.18)">
       <defs>
        <path id="DejaVuSans-6d" d="M 3328 2828 
Q 3544 3216 3844 3400 
Q 4144 3584 4550 3584 
Q 5097 3584 5394 3201 
Q 5691 2819 5691 2113 
L 5691 0 
L 5113 0 
L 5113 2094 
Q 5113 2597 4934 2840 
Q 4756 3084 4391 3084 
Q 3944 3084 3684 2787 
Q 3425 2491 3425 1978 
L 3425 0 
L 2847 0 
L 2847 2094 
Q 2847 2600 2669 2842 
Q 2491 3084 2119 3084 
Q 1678 3084 1418 2786 
Q 1159 2488 1159 1978 
L 1159 0 
L 581 0 
L 581 3500 
L 1159 3500 
L 1159 2956 
Q 1356 3278 1631 3431 
Q 1906 3584 2284 3584 
Q 2666 3584 2933 3390 
Q 3200 3197 3328 2828 
z
" transform="scale(0.015625)"/>
        <path id="DejaVuSans-61" d="M 2194 1759 
Q 1497 1759 1228 1600 
Q 959 1441 959 1056 
Q 959 750 1161 570 
Q 1363 391 1709 391 
Q 2188 391 2477 730 
Q 2766 1069 2766 1631 
L 2766 1759 
L 2194 1759 
z
M 3341 1997 
L 3341 0 
L 2766 0 
L 2766 531 
Q 2569 213 2275 61 
Q 1981 -91 1556 -91 
Q 1019 -91 701 211 
Q 384 513 384 1019 
Q 384 1609 779 1909 
Q 1175 2209 1959 2209 
L 2766 2209 
L 2766 2266 
Q 2766 2663 2505 2880 
Q 2244 3097 1772 3097 
Q 1472 3097 1187 3025 
Q 903 2953 641 2809 
L 641 3341 
Q 956 3463 1253 3523 
Q 1550 3584 1831 3584 
Q 2591 3584 2966 3190 
Q 3341 2797 3341 1997 
z
" transform="scale(0.015625)"/>
        <path id="DejaVuSans-74" d="M 1172 4494 
L 1172 3500 
L 2356 3500 
L 2356 3053 
L 1172 3053 
L 1172 1153 
Q 1172 725 1289 603 
Q 1406 481 1766 481 
L 2356 481 
L 2356 0 
L 1766 0 
Q 1100 0 847 248 
Q 594 497 594 1153 
L 594 3053 
L 172 3053 
L 172 3500 
L 594 3500 
L 594 4494 
L 1172 4494 
z
" transform="scale(0.015625)"/>
        <path id="DejaVuSans-69" d="M 603 3500 
L 1178 3500 
L 1178 0 
L 603 0 
L 603 3500 
z
M 603 4863 
L 1178 4863 
L 1178 4134 
L 603 4134 
L 603 4863 
z
" transform="scale(0.015625)"/>
        <path id="DejaVuSans-63" d="M 3122 3366 
L 3122 2828 
Q 2878 2963 2633 3030 
Q 2388 3097 2138 3097 
Q 1578 3097 1268 2742 
Q 959 2388 959 1747 
Q 959 1106 1268 751 
Q 1578 397 2138 397 
Q 2388 397 2633 464 
Q 2878 531 3122 666 
L 3122 134 
Q 2881 22 2623 -34 
Q 2366 -91 2075 -91 
Q 1284 -91 818 406 
Q 353 903 353 1747 
Q 353 2603 823 3093 
Q 1294 3584 2113 3584 
Q 2378 3584 2631 3529 
Q 2884 3475 3122 3366 
z
" transform="scale(0.015625)"/>
       </defs>
       <use xlink:href="#DejaVuSans-4d"/>
       <use xlink:href="#DejaVuSans-54" transform="translate(86.279297 0)"/>
       <use xlink:href="#DejaVuSans-4c" transform="translate(147.363281 0)"/>
       <use xlink:href="#DejaVuSans-2d" transform="translate(201.326172 0)"/>
       <use xlink:href="#DejaVuSans-73" transform="translate(237.410156 0)"/>
       <use xlink:href="#DejaVuSans-65" transform="translate(289.509766 0)"/>
       <use xlink:href="#DejaVuSans-6d" transform="translate(351.033203 0)"/>
       <use xlink:href="#DejaVuSans-61" transform="translate(448.445312 0)"/>
       <use xlink:href="#DejaVuSans-6e" transform="translate(509.724609 0)"/>
       <use xlink:href="#DejaVuSans-74" transform="translate(573.103516 0)"/>
       <use xlink:href="#DejaVuSans-69" transform="translate(612.3125 0)"/>
       <use xlink:href="#DejaVuSans-63" transform="translate(640.095703 0)"/>
      </g>
     </g>
    </g>
    <g id="xtick_3">
     <g id="line2d_3">
      <g>
       <use xlink:href="#m422df93474" x="175.3377" y="192.550081" style="stroke: #000000; stroke-width: 0.8"/>
      </g>
     </g>
     <g id="text_3">
      <!-- labels -->
      <g transform="translate(154.909759 237.850654) rotate(-30) scale(0.18 -0.18)">
       <defs>
        <path id="DejaVuSans-6c" d="M 603 4863 
L 1178 4863 
L 1178 0 
L 603 0 
L 603 4863 
z
" transform="scale(0.015625)"/>
        <path id="DejaVuSans-62" d="M 3116 1747 
Q 3116 2381 2855 2742 
Q 2594 3103 2138 3103 
Q 1681 3103 1420 2742 
Q 1159 2381 1159 1747 
Q 1159 1113 1420 752 
Q 1681 391 2138 391 
Q 2594 391 2855 752 
Q 3116 1113 3116 1747 
z
M 1159 2969 
Q 1341 3281 1617 3432 
Q 1894 3584 2278 3584 
Q 2916 3584 3314 3078 
Q 3713 2572 3713 1747 
Q 3713 922 3314 415 
Q 2916 -91 2278 -91 
Q 1894 -91 1617 61 
Q 1341 213 1159 525 
L 1159 0 
L 581 0 
L 581 4863 
L 1159 4863 
L 1159 2969 
z
" transform="scale(0.015625)"/>
       </defs>
       <use xlink:href="#DejaVuSans-6c"/>
       <use xlink:href="#DejaVuSans-61" transform="translate(27.783203 0)"/>
       <use xlink:href="#DejaVuSans-62" transform="translate(89.0625 0)"/>
       <use xlink:href="#DejaVuSans-65" transform="translate(152.539062 0)"/>
       <use xlink:href="#DejaVuSans-6c" transform="translate(214.0625 0)"/>
       <use xlink:href="#DejaVuSans-73" transform="translate(241.845703 0)"/>
      </g>
     </g>
    </g>
   </g>
   <g id="matplotlib.axis_2"/>
   <g id="line2d_4">
    <path d="M 97.916923 106.906194 
L 142.157367 106.906194 
" clip-path="url(#pfbe1124280)" style="fill: none; stroke: #323232; stroke-width: 1.25; stroke-linecap: square"/>
   </g>
   <g id="line2d_5">
    <path d="M 153.217478 106.906194 
L 197.457922 106.906194 
" clip-path="url(#pfbe1124280)" style="fill: none; stroke: #323232; stroke-width: 1.25; stroke-linecap: square"/>
   </g>
   <g id="line2d_6">
    <path d="M 64.73659 100.05468 
L 64.73659 89.777413 
L 175.3377 89.777413 
L 175.3377 100.05468 
" style="fill: none; stroke: #000000; stroke-width: 2; stroke-linecap: square"/>
   </g>
   <g id="line2d_7">
    <path d="M 64.73659 77.78727 
L 64.73659 67.510003 
L 117.272117 67.510003 
L 117.272117 77.78727 
" style="fill: none; stroke: #000000; stroke-width: 2; stroke-linecap: square"/>
   </g>
   <g id="line2d_8">
    <path d="M 122.802173 77.78727 
L 122.802173 67.510003 
L 175.3377 67.510003 
L 175.3377 77.78727 
" style="fill: none; stroke: #000000; stroke-width: 2; stroke-linecap: square"/>
   </g>
   <g id="patch_3">
    <path d="M 34.87429 192.550081 
L 34.87429 102.624 
" style="fill: none; stroke: #000000; stroke-width: 0.8; stroke-linejoin: miter; stroke-linecap: square"/>
   </g>
   <g id="patch_4">
    <path d="M 34.87429 192.550081 
L 205.2 192.550081 
" style="fill: none; stroke: #000000; stroke-width: 0.8; stroke-linejoin: miter; stroke-linecap: square"/>
   </g>
   <g id="PathCollection_1">
    <defs>
     <path id="m1d8355a591" d="M 0 1.5 
C 0.397805 1.5 0.77937 1.341951 1.06066 1.06066 
C 1.341951 0.77937 1.5 0.397805 1.5 0 
C 1.5 -0.397805 1.341951 -0.77937 1.06066 -1.06066 
C 0.77937 -1.341951 0.397805 -1.5 0 -1.5 
C -0.397805 -1.5 -0.77937 -1.341951 -1.06066 -1.06066 
C -1.341951 -0.77937 -1.5 -0.397805 -1.5 0 
C -1.5 0.397805 -1.341951 0.77937 -1.06066 1.06066 
C -0.77937 1.341951 -0.397805 1.5 0 1.5 
z
"/>
    </defs>
    <g clip-path="url(#pfbe1124280)">
     <use xlink:href="#m1d8355a591" x="65.816355" y="111.661796" style="fill-opacity: 0.1"/>
     <use xlink:href="#m1d8355a591" x="69.496626" y="115.362992" style="fill-opacity: 0.1"/>
     <use xlink:href="#m1d8355a591" x="67.009738" y="111.016241" style="fill-opacity: 0.1"/>
     <use xlink:href="#m1d8355a591" x="65.729416" y="118.848996" style="fill-opacity: 0.1"/>
     <use xlink:href="#m1d8355a591" x="63.047817" y="114.652877" style="fill-opacity: 0.1"/>
     <use xlink:href="#m1d8355a591" x="67.9638" y="113.082021" style="fill-opacity: 0.1"/>
     <use xlink:href="#m1d8355a591" x="63.356005" y="112.436466" style="fill-opacity: 0.1"/>
     <use xlink:href="#m1d8355a591" x="73.402695" y="114.609839" style="fill-opacity: 0.1"/>
     <use xlink:href="#m1d8355a591" x="74.992913" y="112.371911" style="fill-opacity: 0.1"/>
     <use xlink:href="#m1d8355a591" x="62.15829" y="110.392203" style="fill-opacity: 0.1"/>
     <use xlink:href="#m1d8355a591" x="71.189612" y="108.068199" style="fill-opacity: 0.1"/>
     <use xlink:href="#m1d8355a591" x="65.375752" y="111.05928" style="fill-opacity: 0.1"/>
     <use xlink:href="#m1d8355a591" x="66.24175" y="115.578178" style="fill-opacity: 0.1"/>
     <use xlink:href="#m1d8355a591" x="74.150882" y="108.778309" style="fill-opacity: 0.1"/>
     <use xlink:href="#m1d8355a591" x="55.247812" y="116.869288" style="fill-opacity: 0.1"/>
     <use xlink:href="#m1d8355a591" x="55.603798" y="121.194522" style="fill-opacity: 0.1"/>
     <use xlink:href="#m1d8355a591" x="54.123714" y="109.036534" style="fill-opacity: 0.1"/>
     <use xlink:href="#m1d8355a591" x="72.094214" y="113.555432" style="fill-opacity: 0.1"/>
     <use xlink:href="#m1d8355a591" x="70.889479" y="112.307356" style="fill-opacity: 0.1"/>
     <use xlink:href="#m1d8355a591" x="72.92134" y="109.983347" style="fill-opacity: 0.1"/>
     <use xlink:href="#m1d8355a591" x="75.323734" y="117.816106" style="fill-opacity: 0.1"/>
     <use xlink:href="#m1d8355a591" x="71.354043" y="113.318729" style="fill-opacity: 0.1"/>
     <use xlink:href="#m1d8355a591" x="63.884505" y="110.822571" style="fill-opacity: 0.1"/>
     <use xlink:href="#m1d8355a591" x="70.941957" y="111.532686" style="fill-opacity: 0.1"/>
     <use xlink:href="#m1d8355a591" x="56.292735" y="109.036534" style="fill-opacity: 0.1"/>
     <use xlink:href="#m1d8355a591" x="67.831674" y="113.103542" style="fill-opacity: 0.1"/>
     <use xlink:href="#m1d8355a591" x="56.847485" y="112.888356" style="fill-opacity: 0.1"/>
     <use xlink:href="#m1d8355a591" x="74.572765" y="114.394657" style="fill-opacity: 0.1"/>
     <use xlink:href="#m1d8355a591" x="65.219879" y="115.061728" style="fill-opacity: 0.1"/>
     <use xlink:href="#m1d8355a591" x="62.848893" y="111.661796" style="fill-opacity: 0.1"/>
     <use xlink:href="#m1d8355a591" x="59.528507" y="108.025161" style="fill-opacity: 0.1"/>
     <use xlink:href="#m1d8355a591" x="70.8027" y="112.049131" style="fill-opacity: 0.1"/>
     <use xlink:href="#m1d8355a591" x="63.766625" y="109.574495" style="fill-opacity: 0.1"/>
     <use xlink:href="#m1d8355a591" x="66.250364" y="116.740178" style="fill-opacity: 0.1"/>
     <use xlink:href="#m1d8355a591" x="54.092113" y="120.011" style="fill-opacity: 0.1"/>
     <use xlink:href="#m1d8355a591" x="67.338713" y="111.726351" style="fill-opacity: 0.1"/>
     <use xlink:href="#m1d8355a591" x="67.216172" y="112.780763" style="fill-opacity: 0.1"/>
     <use xlink:href="#m1d8355a591" x="67.323196" y="110.779538" style="fill-opacity: 0.1"/>
     <use xlink:href="#m1d8355a591" x="74.552396" y="116.030068" style="fill-opacity: 0.1"/>
     <use xlink:href="#m1d8355a591" x="68.758495" y="122.571708" style="fill-opacity: 0.1"/>
     <use xlink:href="#m1d8355a591" x="61.628873" y="120.226187" style="fill-opacity: 0.1"/>
     <use xlink:href="#m1d8355a591" x="63.343722" y="116.137656" style="fill-opacity: 0.1"/>
     <use xlink:href="#m1d8355a591" x="69.108236" y="113.361762" style="fill-opacity: 0.1"/>
     <use xlink:href="#m1d8355a591" x="55.008679" y="110.801055" style="fill-opacity: 0.1"/>
     <use xlink:href="#m1d8355a591" x="68.425506" y="115.104767" style="fill-opacity: 0.1"/>
     <use xlink:href="#m1d8355a591" x="68.511137" y="112.565576" style="fill-opacity: 0.1"/>
     <use xlink:href="#m1d8355a591" x="58.330188" y="108.477051" style="fill-opacity: 0.1"/>
     <use xlink:href="#m1d8355a591" x="56.528357" y="113.663026" style="fill-opacity: 0.1"/>
     <use xlink:href="#m1d8355a591" x="60.653824" y="111.876983" style="fill-opacity: 0.1"/>
     <use xlink:href="#m1d8355a591" x="61.721842" y="112.178241" style="fill-opacity: 0.1"/>
     <use xlink:href="#m1d8355a591" x="66.289358" y="112.931394" style="fill-opacity: 0.1"/>
     <use xlink:href="#m1d8355a591" x="63.378441" y="111.984576" style="fill-opacity: 0.1"/>
     <use xlink:href="#m1d8355a591" x="75.539527" y="111.876983" style="fill-opacity: 0.1"/>
     <use xlink:href="#m1d8355a591" x="55.933732" y="120.678077" style="fill-opacity: 0.1"/>
     <use xlink:href="#m1d8355a591" x="58.296879" y="112.608614" style="fill-opacity: 0.1"/>
     <use xlink:href="#m1d8355a591" x="57.244681" y="119.300885" style="fill-opacity: 0.1"/>
     <use xlink:href="#m1d8355a591" x="68.12338" y="116.675623" style="fill-opacity: 0.1"/>
     <use xlink:href="#m1d8355a591" x="59.279345" y="112.952911" style="fill-opacity: 0.1"/>
     <use xlink:href="#m1d8355a591" x="63.991376" y="111.44661" style="fill-opacity: 0.1"/>
     <use xlink:href="#m1d8355a591" x="59.083227" y="111.726351" style="fill-opacity: 0.1"/>
     <use xlink:href="#m1d8355a591" x="57.192921" y="117.235106" style="fill-opacity: 0.1"/>
     <use xlink:href="#m1d8355a591" x="56.118001" y="119.171776" style="fill-opacity: 0.1"/>
     <use xlink:href="#m1d8355a591" x="68.194635" y="111.726351" style="fill-opacity: 0.1"/>
     <use xlink:href="#m1d8355a591" x="56.733116" y="113.383284" style="fill-opacity: 0.1"/>
     <use xlink:href="#m1d8355a591" x="58.024924" y="115.578178" style="fill-opacity: 0.1"/>
     <use xlink:href="#m1d8355a591" x="61.832761" y="114.007322" style="fill-opacity: 0.1"/>
     <use xlink:href="#m1d8355a591" x="71.837031" y="114.566805" style="fill-opacity: 0.1"/>
     <use xlink:href="#m1d8355a591" x="55.82438" y="113.426317" style="fill-opacity: 0.1"/>
     <use xlink:href="#m1d8355a591" x="72.212006" y="111.037758" style="fill-opacity: 0.1"/>
     <use xlink:href="#m1d8355a591" x="55.802197" y="112.178241" style="fill-opacity: 0.1"/>
     <use xlink:href="#m1d8355a591" x="75.275979" y="109.38083" style="fill-opacity: 0.1"/>
     <use xlink:href="#m1d8355a591" x="64.043147" y="120.118594" style="fill-opacity: 0.1"/>
     <use xlink:href="#m1d8355a591" x="75.282651" y="113.576949" style="fill-opacity: 0.1"/>
     <use xlink:href="#m1d8355a591" x="67.055796" y="113.146576" style="fill-opacity: 0.1"/>
     <use xlink:href="#m1d8355a591" x="70.029153" y="110.478275" style="fill-opacity: 0.1"/>
     <use xlink:href="#m1d8355a591" x="54.543321" y="113.598466" style="fill-opacity: 0.1"/>
     <use xlink:href="#m1d8355a591" x="59.932231" y="118.526221" style="fill-opacity: 0.1"/>
     <use xlink:href="#m1d8355a591" x="56.335253" y="112.264318" style="fill-opacity: 0.1"/>
     <use xlink:href="#m1d8355a591" x="60.227165" y="112.436466" style="fill-opacity: 0.1"/>
     <use xlink:href="#m1d8355a591" x="56.302762" y="114.373135" style="fill-opacity: 0.1"/>
     <use xlink:href="#m1d8355a591" x="60.710337" y="113.942767" style="fill-opacity: 0.1"/>
     <use xlink:href="#m1d8355a591" x="62.840068" y="110.60739" style="fill-opacity: 0.1"/>
     <use xlink:href="#m1d8355a591" x="55.095435" y="113.598466" style="fill-opacity: 0.1"/>
     <use xlink:href="#m1d8355a591" x="68.994116" y="112.070648" style="fill-opacity: 0.1"/>
     <use xlink:href="#m1d8355a591" x="66.209829" y="114.265542" style="fill-opacity: 0.1"/>
     <use xlink:href="#m1d8355a591" x="59.546953" y="116.933848" style="fill-opacity: 0.1"/>
     <use xlink:href="#m1d8355a591" x="65.250842" y="120.032517" style="fill-opacity: 0.1"/>
     <use xlink:href="#m1d8355a591" x="55.754464" y="109.423869" style="fill-opacity: 0.1"/>
     <use xlink:href="#m1d8355a591" x="66.416543" y="120.33378" style="fill-opacity: 0.1"/>
     <use xlink:href="#m1d8355a591" x="74.232717" y="113.103542" style="fill-opacity: 0.1"/>
     <use xlink:href="#m1d8355a591" x="60.723295" y="111.166868" style="fill-opacity: 0.1"/>
     <use xlink:href="#m1d8355a591" x="68.439744" y="114.480729" style="fill-opacity: 0.1"/>
     <use xlink:href="#m1d8355a591" x="56.591877" y="115.771843" style="fill-opacity: 0.1"/>
     <use xlink:href="#m1d8355a591" x="69.521795" y="114.997173" style="fill-opacity: 0.1"/>
     <use xlink:href="#m1d8355a591" x="60.078206" y="115.707288" style="fill-opacity: 0.1"/>
     <use xlink:href="#m1d8355a591" x="57.728712" y="113.490877" style="fill-opacity: 0.1"/>
     <use xlink:href="#m1d8355a591" x="66.650275" y="113.512394" style="fill-opacity: 0.1"/>
     <use xlink:href="#m1d8355a591" x="54.121262" y="113.964284" style="fill-opacity: 0.1"/>
     <use xlink:href="#m1d8355a591" x="72.012816" y="124.508382" style="fill-opacity: 0.1"/>
     <use xlink:href="#m1d8355a591" x="53.780344" y="121.065412" style="fill-opacity: 0.1"/>
    </g>
   </g>
   <g id="PathCollection_2">
    <g clip-path="url(#pfbe1124280)">
     <use xlink:href="#m1d8355a591" x="123.970486" y="106.906194" style="fill-opacity: 0.1"/>
     <use xlink:href="#m1d8355a591" x="114.94967" y="106.906194" style="fill-opacity: 0.1"/>
     <use xlink:href="#m1d8355a591" x="125.239689" y="106.906194" style="fill-opacity: 0.1"/>
     <use xlink:href="#m1d8355a591" x="130.260858" y="106.906194" style="fill-opacity: 0.1"/>
     <use xlink:href="#m1d8355a591" x="114.479509" y="106.906194" style="fill-opacity: 0.1"/>
     <use xlink:href="#m1d8355a591" x="121.721762" y="106.906194" style="fill-opacity: 0.1"/>
     <use xlink:href="#m1d8355a591" x="122.073133" y="106.906194" style="fill-opacity: 0.1"/>
     <use xlink:href="#m1d8355a591" x="121.635373" y="106.906194" style="fill-opacity: 0.1"/>
     <use xlink:href="#m1d8355a591" x="113.911649" y="106.906194" style="fill-opacity: 0.1"/>
     <use xlink:href="#m1d8355a591" x="130.052054" y="106.906194" style="fill-opacity: 0.1"/>
     <use xlink:href="#m1d8355a591" x="118.867547" y="106.906194" style="fill-opacity: 0.1"/>
     <use xlink:href="#m1d8355a591" x="127.699782" y="106.906194" style="fill-opacity: 0.1"/>
     <use xlink:href="#m1d8355a591" x="124.449671" y="106.906194" style="fill-opacity: 0.1"/>
     <use xlink:href="#m1d8355a591" x="115.556405" y="106.906194" style="fill-opacity: 0.1"/>
     <use xlink:href="#m1d8355a591" x="126.978422" y="106.906194" style="fill-opacity: 0.1"/>
     <use xlink:href="#m1d8355a591" x="117.747829" y="106.906194" style="fill-opacity: 0.1"/>
     <use xlink:href="#m1d8355a591" x="128.467232" y="106.906194" style="fill-opacity: 0.1"/>
     <use xlink:href="#m1d8355a591" x="121.834919" y="106.906194" style="fill-opacity: 0.1"/>
     <use xlink:href="#m1d8355a591" x="128.481216" y="106.906194" style="fill-opacity: 0.1"/>
     <use xlink:href="#m1d8355a591" x="124.295986" y="106.906194" style="fill-opacity: 0.1"/>
     <use xlink:href="#m1d8355a591" x="125.01982" y="106.906194" style="fill-opacity: 0.1"/>
     <use xlink:href="#m1d8355a591" x="120.06644" y="106.906194" style="fill-opacity: 0.1"/>
     <use xlink:href="#m1d8355a591" x="130.125816" y="106.906194" style="fill-opacity: 0.1"/>
     <use xlink:href="#m1d8355a591" x="123.22224" y="106.906194" style="fill-opacity: 0.1"/>
     <use xlink:href="#m1d8355a591" x="118.352802" y="106.906194" style="fill-opacity: 0.1"/>
     <use xlink:href="#m1d8355a591" x="122.390586" y="106.906194" style="fill-opacity: 0.1"/>
     <use xlink:href="#m1d8355a591" x="109.401592" y="106.906194" style="fill-opacity: 0.1"/>
     <use xlink:href="#m1d8355a591" x="115.647936" y="106.906194" style="fill-opacity: 0.1"/>
     <use xlink:href="#m1d8355a591" x="123.580219" y="106.906194" style="fill-opacity: 0.1"/>
     <use xlink:href="#m1d8355a591" x="115.393615" y="106.906194" style="fill-opacity: 0.1"/>
     <use xlink:href="#m1d8355a591" x="122.647672" y="106.906194" style="fill-opacity: 0.1"/>
     <use xlink:href="#m1d8355a591" x="118.461493" y="106.906194" style="fill-opacity: 0.1"/>
     <use xlink:href="#m1d8355a591" x="111.97375" y="106.906194" style="fill-opacity: 0.1"/>
     <use xlink:href="#m1d8355a591" x="115.575105" y="106.906194" style="fill-opacity: 0.1"/>
     <use xlink:href="#m1d8355a591" x="121.584784" y="106.906194" style="fill-opacity: 0.1"/>
     <use xlink:href="#m1d8355a591" x="122.047271" y="106.906194" style="fill-opacity: 0.1"/>
     <use xlink:href="#m1d8355a591" x="121.681236" y="106.906194" style="fill-opacity: 0.1"/>
     <use xlink:href="#m1d8355a591" x="123.425981" y="106.906194" style="fill-opacity: 0.1"/>
     <use xlink:href="#m1d8355a591" x="123.401703" y="106.906194" style="fill-opacity: 0.1"/>
     <use xlink:href="#m1d8355a591" x="118.520105" y="106.906194" style="fill-opacity: 0.1"/>
     <use xlink:href="#m1d8355a591" x="128.808844" y="106.906194" style="fill-opacity: 0.1"/>
     <use xlink:href="#m1d8355a591" x="117.107584" y="106.906194" style="fill-opacity: 0.1"/>
     <use xlink:href="#m1d8355a591" x="118.618463" y="106.906194" style="fill-opacity: 0.1"/>
     <use xlink:href="#m1d8355a591" x="128.706577" y="106.906194" style="fill-opacity: 0.1"/>
     <use xlink:href="#m1d8355a591" x="126.810224" y="106.906194" style="fill-opacity: 0.1"/>
     <use xlink:href="#m1d8355a591" x="124.547206" y="106.906194" style="fill-opacity: 0.1"/>
     <use xlink:href="#m1d8355a591" x="111.194075" y="106.906194" style="fill-opacity: 0.1"/>
     <use xlink:href="#m1d8355a591" x="129.316193" y="106.906194" style="fill-opacity: 0.1"/>
     <use xlink:href="#m1d8355a591" x="124.77621" y="106.906194" style="fill-opacity: 0.1"/>
     <use xlink:href="#m1d8355a591" x="131.071751" y="106.906194" style="fill-opacity: 0.1"/>
     <use xlink:href="#m1d8355a591" x="112.282864" y="106.906194" style="fill-opacity: 0.1"/>
     <use xlink:href="#m1d8355a591" x="128.180175" y="106.906194" style="fill-opacity: 0.1"/>
     <use xlink:href="#m1d8355a591" x="112.571414" y="106.906194" style="fill-opacity: 0.1"/>
     <use xlink:href="#m1d8355a591" x="122.593348" y="106.906194" style="fill-opacity: 0.1"/>
     <use xlink:href="#m1d8355a591" x="111.715959" y="106.906194" style="fill-opacity: 0.1"/>
     <use xlink:href="#m1d8355a591" x="127.735164" y="106.906194" style="fill-opacity: 0.1"/>
     <use xlink:href="#m1d8355a591" x="126.835108" y="106.906194" style="fill-opacity: 0.1"/>
     <use xlink:href="#m1d8355a591" x="121.565669" y="106.906194" style="fill-opacity: 0.1"/>
     <use xlink:href="#m1d8355a591" x="117.984019" y="106.906194" style="fill-opacity: 0.1"/>
     <use xlink:href="#m1d8355a591" x="110.507023" y="106.906194" style="fill-opacity: 0.1"/>
     <use xlink:href="#m1d8355a591" x="124.404313" y="106.906194" style="fill-opacity: 0.1"/>
     <use xlink:href="#m1d8355a591" x="119.009499" y="106.906194" style="fill-opacity: 0.1"/>
     <use xlink:href="#m1d8355a591" x="124.949064" y="106.906194" style="fill-opacity: 0.1"/>
     <use xlink:href="#m1d8355a591" x="128.141603" y="106.906194" style="fill-opacity: 0.1"/>
     <use xlink:href="#m1d8355a591" x="130.555786" y="106.906194" style="fill-opacity: 0.1"/>
     <use xlink:href="#m1d8355a591" x="127.907594" y="106.906194" style="fill-opacity: 0.1"/>
     <use xlink:href="#m1d8355a591" x="109.236152" y="106.906194" style="fill-opacity: 0.1"/>
     <use xlink:href="#m1d8355a591" x="116.939829" y="106.906194" style="fill-opacity: 0.1"/>
     <use xlink:href="#m1d8355a591" x="125.124587" y="106.906194" style="fill-opacity: 0.1"/>
     <use xlink:href="#m1d8355a591" x="112.77352" y="106.906194" style="fill-opacity: 0.1"/>
     <use xlink:href="#m1d8355a591" x="120.502479" y="106.906194" style="fill-opacity: 0.1"/>
     <use xlink:href="#m1d8355a591" x="110.179002" y="106.906194" style="fill-opacity: 0.1"/>
     <use xlink:href="#m1d8355a591" x="113.401001" y="106.906194" style="fill-opacity: 0.1"/>
     <use xlink:href="#m1d8355a591" x="109.38674" y="106.906194" style="fill-opacity: 0.1"/>
     <use xlink:href="#m1d8355a591" x="126.533803" y="106.906194" style="fill-opacity: 0.1"/>
     <use xlink:href="#m1d8355a591" x="113.930298" y="106.906194" style="fill-opacity: 0.1"/>
     <use xlink:href="#m1d8355a591" x="116.61629" y="106.906194" style="fill-opacity: 0.1"/>
     <use xlink:href="#m1d8355a591" x="129.506398" y="106.906194" style="fill-opacity: 0.1"/>
     <use xlink:href="#m1d8355a591" x="124.558837" y="106.906194" style="fill-opacity: 0.1"/>
     <use xlink:href="#m1d8355a591" x="109.681318" y="106.906194" style="fill-opacity: 0.1"/>
     <use xlink:href="#m1d8355a591" x="112.620105" y="106.906194" style="fill-opacity: 0.1"/>
     <use xlink:href="#m1d8355a591" x="122.724274" y="106.906194" style="fill-opacity: 0.1"/>
     <use xlink:href="#m1d8355a591" x="121.745458" y="106.906194" style="fill-opacity: 0.1"/>
     <use xlink:href="#m1d8355a591" x="114.239276" y="106.906194" style="fill-opacity: 0.1"/>
     <use xlink:href="#m1d8355a591" x="129.642055" y="106.906194" style="fill-opacity: 0.1"/>
     <use xlink:href="#m1d8355a591" x="122.558097" y="106.906194" style="fill-opacity: 0.1"/>
     <use xlink:href="#m1d8355a591" x="120.82535" y="106.906194" style="fill-opacity: 0.1"/>
     <use xlink:href="#m1d8355a591" x="122.025974" y="106.906194" style="fill-opacity: 0.1"/>
     <use xlink:href="#m1d8355a591" x="125.127495" y="106.906194" style="fill-opacity: 0.1"/>
     <use xlink:href="#m1d8355a591" x="115.877326" y="106.906194" style="fill-opacity: 0.1"/>
     <use xlink:href="#m1d8355a591" x="117.785772" y="106.906194" style="fill-opacity: 0.1"/>
     <use xlink:href="#m1d8355a591" x="113.618824" y="106.906194" style="fill-opacity: 0.1"/>
     <use xlink:href="#m1d8355a591" x="113.095664" y="106.906194" style="fill-opacity: 0.1"/>
     <use xlink:href="#m1d8355a591" x="129.866761" y="106.906194" style="fill-opacity: 0.1"/>
     <use xlink:href="#m1d8355a591" x="125.336062" y="106.906194" style="fill-opacity: 0.1"/>
     <use xlink:href="#m1d8355a591" x="119.826092" y="106.906194" style="fill-opacity: 0.1"/>
     <use xlink:href="#m1d8355a591" x="114.007496" y="106.906194" style="fill-opacity: 0.1"/>
     <use xlink:href="#m1d8355a591" x="114.603456" y="106.906194" style="fill-opacity: 0.1"/>
     <use xlink:href="#m1d8355a591" x="110.260652" y="106.906194" style="fill-opacity: 0.1"/>
     <use xlink:href="#m1d8355a591" x="118.586426" y="106.906194" style="fill-opacity: 0.1"/>
    </g>
   </g>
   <g id="PathCollection_3">
    <g clip-path="url(#pfbe1124280)">
     <use xlink:href="#m1d8355a591" x="171.174583" y="106.906194" style="fill-opacity: 0.1"/>
     <use xlink:href="#m1d8355a591" x="179.680862" y="106.906194" style="fill-opacity: 0.1"/>
     <use xlink:href="#m1d8355a591" x="172.633544" y="106.906194" style="fill-opacity: 0.1"/>
     <use xlink:href="#m1d8355a591" x="168.250462" y="106.906194" style="fill-opacity: 0.1"/>
     <use xlink:href="#m1d8355a591" x="164.823488" y="106.906194" style="fill-opacity: 0.1"/>
     <use xlink:href="#m1d8355a591" x="165.765166" y="106.906194" style="fill-opacity: 0.1"/>
     <use xlink:href="#m1d8355a591" x="179.305908" y="106.906194" style="fill-opacity: 0.1"/>
     <use xlink:href="#m1d8355a591" x="174.313464" y="106.906194" style="fill-opacity: 0.1"/>
     <use xlink:href="#m1d8355a591" x="176.14684" y="106.906194" style="fill-opacity: 0.1"/>
     <use xlink:href="#m1d8355a591" x="184.112157" y="106.906194" style="fill-opacity: 0.1"/>
     <use xlink:href="#m1d8355a591" x="186.184107" y="106.906194" style="fill-opacity: 0.1"/>
     <use xlink:href="#m1d8355a591" x="169.075399" y="106.906194" style="fill-opacity: 0.1"/>
     <use xlink:href="#m1d8355a591" x="178.945026" y="106.906194" style="fill-opacity: 0.1"/>
     <use xlink:href="#m1d8355a591" x="170.102339" y="106.906194" style="fill-opacity: 0.1"/>
     <use xlink:href="#m1d8355a591" x="164.734394" y="106.906194" style="fill-opacity: 0.1"/>
     <use xlink:href="#m1d8355a591" x="181.053093" y="106.906194" style="fill-opacity: 0.1"/>
     <use xlink:href="#m1d8355a591" x="171.35644" y="106.906194" style="fill-opacity: 0.1"/>
     <use xlink:href="#m1d8355a591" x="172.759896" y="106.906194" style="fill-opacity: 0.1"/>
     <use xlink:href="#m1d8355a591" x="177.291294" y="106.906194" style="fill-opacity: 0.1"/>
     <use xlink:href="#m1d8355a591" x="182.660566" y="106.906194" style="fill-opacity: 0.1"/>
     <use xlink:href="#m1d8355a591" x="178.190807" y="106.906194" style="fill-opacity: 0.1"/>
     <use xlink:href="#m1d8355a591" x="183.580815" y="106.906194" style="fill-opacity: 0.1"/>
     <use xlink:href="#m1d8355a591" x="170.3284" y="106.906194" style="fill-opacity: 0.1"/>
     <use xlink:href="#m1d8355a591" x="181.930562" y="106.906194" style="fill-opacity: 0.1"/>
     <use xlink:href="#m1d8355a591" x="168.383897" y="106.906194" style="fill-opacity: 0.1"/>
     <use xlink:href="#m1d8355a591" x="185.353552" y="106.906194" style="fill-opacity: 0.1"/>
     <use xlink:href="#m1d8355a591" x="179.484982" y="106.906194" style="fill-opacity: 0.1"/>
     <use xlink:href="#m1d8355a591" x="169.044667" y="106.906194" style="fill-opacity: 0.1"/>
     <use xlink:href="#m1d8355a591" x="185.233637" y="106.906194" style="fill-opacity: 0.1"/>
     <use xlink:href="#m1d8355a591" x="180.444282" y="106.906194" style="fill-opacity: 0.1"/>
     <use xlink:href="#m1d8355a591" x="169.894835" y="106.906194" style="fill-opacity: 0.1"/>
     <use xlink:href="#m1d8355a591" x="168.996097" y="106.906194" style="fill-opacity: 0.1"/>
     <use xlink:href="#m1d8355a591" x="175.740304" y="106.906194" style="fill-opacity: 0.1"/>
     <use xlink:href="#m1d8355a591" x="164.845254" y="106.906194" style="fill-opacity: 0.1"/>
     <use xlink:href="#m1d8355a591" x="168.866873" y="106.906194" style="fill-opacity: 0.1"/>
     <use xlink:href="#m1d8355a591" x="173.671726" y="106.906194" style="fill-opacity: 0.1"/>
     <use xlink:href="#m1d8355a591" x="172.554312" y="106.906194" style="fill-opacity: 0.1"/>
     <use xlink:href="#m1d8355a591" x="174.53198" y="106.906194" style="fill-opacity: 0.1"/>
     <use xlink:href="#m1d8355a591" x="170.418798" y="106.906194" style="fill-opacity: 0.1"/>
     <use xlink:href="#m1d8355a591" x="177.257389" y="106.906194" style="fill-opacity: 0.1"/>
     <use xlink:href="#m1d8355a591" x="183.386267" y="106.906194" style="fill-opacity: 0.1"/>
     <use xlink:href="#m1d8355a591" x="166.87742" y="106.906194" style="fill-opacity: 0.1"/>
     <use xlink:href="#m1d8355a591" x="175.72213" y="106.906194" style="fill-opacity: 0.1"/>
     <use xlink:href="#m1d8355a591" x="167.198965" y="106.906194" style="fill-opacity: 0.1"/>
     <use xlink:href="#m1d8355a591" x="180.134684" y="106.906194" style="fill-opacity: 0.1"/>
     <use xlink:href="#m1d8355a591" x="173.038518" y="106.906194" style="fill-opacity: 0.1"/>
     <use xlink:href="#m1d8355a591" x="176.784834" y="106.906194" style="fill-opacity: 0.1"/>
     <use xlink:href="#m1d8355a591" x="168.33178" y="106.906194" style="fill-opacity: 0.1"/>
     <use xlink:href="#m1d8355a591" x="167.481654" y="106.906194" style="fill-opacity: 0.1"/>
     <use xlink:href="#m1d8355a591" x="175.073502" y="106.906194" style="fill-opacity: 0.1"/>
     <use xlink:href="#m1d8355a591" x="172.143822" y="106.906194" style="fill-opacity: 0.1"/>
     <use xlink:href="#m1d8355a591" x="185.080153" y="106.906194" style="fill-opacity: 0.1"/>
     <use xlink:href="#m1d8355a591" x="181.206754" y="106.906194" style="fill-opacity: 0.1"/>
     <use xlink:href="#m1d8355a591" x="180.838195" y="106.906194" style="fill-opacity: 0.1"/>
     <use xlink:href="#m1d8355a591" x="184.26807" y="106.906194" style="fill-opacity: 0.1"/>
     <use xlink:href="#m1d8355a591" x="166.122912" y="106.906194" style="fill-opacity: 0.1"/>
     <use xlink:href="#m1d8355a591" x="176.492209" y="106.906194" style="fill-opacity: 0.1"/>
     <use xlink:href="#m1d8355a591" x="177.20633" y="106.906194" style="fill-opacity: 0.1"/>
     <use xlink:href="#m1d8355a591" x="185.555835" y="106.906194" style="fill-opacity: 0.1"/>
     <use xlink:href="#m1d8355a591" x="170.739957" y="106.906194" style="fill-opacity: 0.1"/>
     <use xlink:href="#m1d8355a591" x="169.604775" y="106.906194" style="fill-opacity: 0.1"/>
     <use xlink:href="#m1d8355a591" x="166.496113" y="106.906194" style="fill-opacity: 0.1"/>
     <use xlink:href="#m1d8355a591" x="164.641016" y="106.906194" style="fill-opacity: 0.1"/>
     <use xlink:href="#m1d8355a591" x="184.838984" y="106.906194" style="fill-opacity: 0.1"/>
     <use xlink:href="#m1d8355a591" x="179.096292" y="106.906194" style="fill-opacity: 0.1"/>
     <use xlink:href="#m1d8355a591" x="181.645346" y="106.906194" style="fill-opacity: 0.1"/>
     <use xlink:href="#m1d8355a591" x="170.509522" y="106.906194" style="fill-opacity: 0.1"/>
     <use xlink:href="#m1d8355a591" x="177.249112" y="106.906194" style="fill-opacity: 0.1"/>
     <use xlink:href="#m1d8355a591" x="165.692294" y="106.906194" style="fill-opacity: 0.1"/>
     <use xlink:href="#m1d8355a591" x="175.019779" y="106.906194" style="fill-opacity: 0.1"/>
     <use xlink:href="#m1d8355a591" x="185.899999" y="106.906194" style="fill-opacity: 0.1"/>
     <use xlink:href="#m1d8355a591" x="183.66608" y="106.906194" style="fill-opacity: 0.1"/>
     <use xlink:href="#m1d8355a591" x="171.75774" y="106.906194" style="fill-opacity: 0.1"/>
     <use xlink:href="#m1d8355a591" x="185.547734" y="106.906194" style="fill-opacity: 0.1"/>
     <use xlink:href="#m1d8355a591" x="169.402881" y="106.906194" style="fill-opacity: 0.1"/>
     <use xlink:href="#m1d8355a591" x="185.276732" y="106.906194" style="fill-opacity: 0.1"/>
     <use xlink:href="#m1d8355a591" x="185.101073" y="106.906194" style="fill-opacity: 0.1"/>
     <use xlink:href="#m1d8355a591" x="181.956128" y="106.906194" style="fill-opacity: 0.1"/>
     <use xlink:href="#m1d8355a591" x="178.223237" y="106.906194" style="fill-opacity: 0.1"/>
     <use xlink:href="#m1d8355a591" x="183.617033" y="106.906194" style="fill-opacity: 0.1"/>
     <use xlink:href="#m1d8355a591" x="170.759263" y="106.906194" style="fill-opacity: 0.1"/>
     <use xlink:href="#m1d8355a591" x="183.056409" y="106.906194" style="fill-opacity: 0.1"/>
     <use xlink:href="#m1d8355a591" x="177.945159" y="106.906194" style="fill-opacity: 0.1"/>
     <use xlink:href="#m1d8355a591" x="164.570391" y="106.906194" style="fill-opacity: 0.1"/>
     <use xlink:href="#m1d8355a591" x="171.958472" y="106.906194" style="fill-opacity: 0.1"/>
     <use xlink:href="#m1d8355a591" x="167.554498" y="106.906194" style="fill-opacity: 0.1"/>
     <use xlink:href="#m1d8355a591" x="185.995873" y="106.906194" style="fill-opacity: 0.1"/>
     <use xlink:href="#m1d8355a591" x="174.859247" y="106.906194" style="fill-opacity: 0.1"/>
     <use xlink:href="#m1d8355a591" x="175.279997" y="106.906194" style="fill-opacity: 0.1"/>
     <use xlink:href="#m1d8355a591" x="178.422863" y="106.906194" style="fill-opacity: 0.1"/>
     <use xlink:href="#m1d8355a591" x="172.430762" y="106.906194" style="fill-opacity: 0.1"/>
     <use xlink:href="#m1d8355a591" x="167.305854" y="106.906194" style="fill-opacity: 0.1"/>
     <use xlink:href="#m1d8355a591" x="182.463016" y="106.906194" style="fill-opacity: 0.1"/>
     <use xlink:href="#m1d8355a591" x="168.477067" y="106.906194" style="fill-opacity: 0.1"/>
     <use xlink:href="#m1d8355a591" x="175.588079" y="106.906194" style="fill-opacity: 0.1"/>
     <use xlink:href="#m1d8355a591" x="169.239532" y="106.906194" style="fill-opacity: 0.1"/>
     <use xlink:href="#m1d8355a591" x="166.441931" y="106.906194" style="fill-opacity: 0.1"/>
     <use xlink:href="#m1d8355a591" x="183.349457" y="106.906194" style="fill-opacity: 0.1"/>
     <use xlink:href="#m1d8355a591" x="185.798784" y="106.906194" style="fill-opacity: 0.1"/>
     <use xlink:href="#m1d8355a591" x="185.531465" y="106.906194" style="fill-opacity: 0.1"/>
    </g>
   </g>
   <g id="text_4">
    <!-- *** -->
    <g transform="translate(108.037145 90.732103) scale(0.16 -0.16)">
     <defs>
      <path id="DejaVuSans-2a" d="M 3009 3897 
L 1888 3291 
L 3009 2681 
L 2828 2375 
L 1778 3009 
L 1778 1831 
L 1422 1831 
L 1422 3009 
L 372 2375 
L 191 2681 
L 1313 3291 
L 191 3897 
L 372 4206 
L 1422 3572 
L 1422 4750 
L 1778 4750 
L 1778 3572 
L 2828 4206 
L 3009 3897 
z
" transform="scale(0.015625)"/>
     </defs>
     <use xlink:href="#DejaVuSans-2a"/>
     <use xlink:href="#DejaVuSans-2a" transform="translate(50 0)"/>
     <use xlink:href="#DejaVuSans-2a" transform="translate(100 0)"/>
    </g>
   </g>
   <g id="text_5">
    <!-- *** -->
    <g transform="translate(80.386867 68.464693) scale(0.16 -0.16)">
     <use xlink:href="#DejaVuSans-2a"/>
     <use xlink:href="#DejaVuSans-2a" transform="translate(50 0)"/>
     <use xlink:href="#DejaVuSans-2a" transform="translate(100 0)"/>
    </g>
   </g>
   <g id="text_6">
    <!-- ns -->
    <g transform="translate(138.449923 63.326065) scale(0.16 -0.16)">
     <use xlink:href="#DejaVuSans-6e"/>
     <use xlink:href="#DejaVuSans-73" transform="translate(63.378906 0)"/>
    </g>
   </g>
   <g id="text_7">
    <!-- Compositional -->
    <g transform="translate(48.679332 29.437125) scale(0.2 -0.2)">
     <defs>
      <path id="DejaVuSans-43" d="M 4122 4306 
L 4122 3641 
Q 3803 3938 3442 4084 
Q 3081 4231 2675 4231 
Q 1875 4231 1450 3742 
Q 1025 3253 1025 2328 
Q 1025 1406 1450 917 
Q 1875 428 2675 428 
Q 3081 428 3442 575 
Q 3803 722 4122 1019 
L 4122 359 
Q 3791 134 3420 21 
Q 3050 -91 2638 -91 
Q 1578 -91 968 557 
Q 359 1206 359 2328 
Q 359 3453 968 4101 
Q 1578 4750 2638 4750 
Q 3056 4750 3426 4639 
Q 3797 4528 4122 4306 
z
" transform="scale(0.015625)"/>
      <path id="DejaVuSans-70" d="M 1159 525 
L 1159 -1331 
L 581 -1331 
L 581 3500 
L 1159 3500 
L 1159 2969 
Q 1341 3281 1617 3432 
Q 1894 3584 2278 3584 
Q 2916 3584 3314 3078 
Q 3713 2572 3713 1747 
Q 3713 922 3314 415 
Q 2916 -91 2278 -91 
Q 1894 -91 1617 61 
Q 1341 213 1159 525 
z
M 3116 1747 
Q 3116 2381 2855 2742 
Q 2594 3103 2138 3103 
Q 1681 3103 1420 2742 
Q 1159 2381 1159 1747 
Q 1159 1113 1420 752 
Q 1681 391 2138 391 
Q 2594 391 2855 752 
Q 3116 1113 3116 1747 
z
" transform="scale(0.015625)"/>
     </defs>
     <use xlink:href="#DejaVuSans-43"/>
     <use xlink:href="#DejaVuSans-6f" transform="translate(69.824219 0)"/>
     <use xlink:href="#DejaVuSans-6d" transform="translate(131.005859 0)"/>
     <use xlink:href="#DejaVuSans-70" transform="translate(228.417969 0)"/>
     <use xlink:href="#DejaVuSans-6f" transform="translate(291.894531 0)"/>
     <use xlink:href="#DejaVuSans-73" transform="translate(353.076172 0)"/>
     <use xlink:href="#DejaVuSans-69" transform="translate(405.175781 0)"/>
     <use xlink:href="#DejaVuSans-74" transform="translate(432.958984 0)"/>
     <use xlink:href="#DejaVuSans-69" transform="translate(472.167969 0)"/>
     <use xlink:href="#DejaVuSans-6f" transform="translate(499.951172 0)"/>
     <use xlink:href="#DejaVuSans-6e" transform="translate(561.132812 0)"/>
     <use xlink:href="#DejaVuSans-61" transform="translate(624.511719 0)"/>
     <use xlink:href="#DejaVuSans-6c" transform="translate(685.791016 0)"/>
    </g>
    <!-- Out-Of-Distribution -->
    <g transform="translate(25.237145 51.83275) scale(0.2 -0.2)">
     <defs>
      <path id="DejaVuSans-4f" d="M 2522 4238 
Q 1834 4238 1429 3725 
Q 1025 3213 1025 2328 
Q 1025 1447 1429 934 
Q 1834 422 2522 422 
Q 3209 422 3611 934 
Q 4013 1447 4013 2328 
Q 4013 3213 3611 3725 
Q 3209 4238 2522 4238 
z
M 2522 4750 
Q 3503 4750 4090 4092 
Q 4678 3434 4678 2328 
Q 4678 1225 4090 567 
Q 3503 -91 2522 -91 
Q 1538 -91 948 565 
Q 359 1222 359 2328 
Q 359 3434 948 4092 
Q 1538 4750 2522 4750 
z
" transform="scale(0.015625)"/>
      <path id="DejaVuSans-75" d="M 544 1381 
L 544 3500 
L 1119 3500 
L 1119 1403 
Q 1119 906 1312 657 
Q 1506 409 1894 409 
Q 2359 409 2629 706 
Q 2900 1003 2900 1516 
L 2900 3500 
L 3475 3500 
L 3475 0 
L 2900 0 
L 2900 538 
Q 2691 219 2414 64 
Q 2138 -91 1772 -91 
Q 1169 -91 856 284 
Q 544 659 544 1381 
z
M 1991 3584 
L 1991 3584 
z
" transform="scale(0.015625)"/>
      <path id="DejaVuSans-66" d="M 2375 4863 
L 2375 4384 
L 1825 4384 
Q 1516 4384 1395 4259 
Q 1275 4134 1275 3809 
L 1275 3500 
L 2222 3500 
L 2222 3053 
L 1275 3053 
L 1275 0 
L 697 0 
L 697 3053 
L 147 3053 
L 147 3500 
L 697 3500 
L 697 3744 
Q 697 4328 969 4595 
Q 1241 4863 1831 4863 
L 2375 4863 
z
" transform="scale(0.015625)"/>
      <path id="DejaVuSans-44" d="M 1259 4147 
L 1259 519 
L 2022 519 
Q 2988 519 3436 956 
Q 3884 1394 3884 2338 
Q 3884 3275 3436 3711 
Q 2988 4147 2022 4147 
L 1259 4147 
z
M 628 4666 
L 1925 4666 
Q 3281 4666 3915 4102 
Q 4550 3538 4550 2338 
Q 4550 1131 3912 565 
Q 3275 0 1925 0 
L 628 0 
L 628 4666 
z
" transform="scale(0.015625)"/>
     </defs>
     <use xlink:href="#DejaVuSans-4f"/>
     <use xlink:href="#DejaVuSans-75" transform="translate(78.710938 0)"/>
     <use xlink:href="#DejaVuSans-74" transform="translate(142.089844 0)"/>
     <use xlink:href="#DejaVuSans-2d" transform="translate(181.298828 0)"/>
     <use xlink:href="#DejaVuSans-4f" transform="translate(220.132812 0)"/>
     <use xlink:href="#DejaVuSans-66" transform="translate(298.84375 0)"/>
     <use xlink:href="#DejaVuSans-2d" transform="translate(328.548828 0)"/>
     <use xlink:href="#DejaVuSans-44" transform="translate(364.632812 0)"/>
     <use xlink:href="#DejaVuSans-69" transform="translate(441.634766 0)"/>
     <use xlink:href="#DejaVuSans-73" transform="translate(469.417969 0)"/>
     <use xlink:href="#DejaVuSans-74" transform="translate(521.517578 0)"/>
     <use xlink:href="#DejaVuSans-72" transform="translate(560.726562 0)"/>
     <use xlink:href="#DejaVuSans-69" transform="translate(601.839844 0)"/>
     <use xlink:href="#DejaVuSans-62" transform="translate(629.623047 0)"/>
     <use xlink:href="#DejaVuSans-75" transform="translate(693.099609 0)"/>
     <use xlink:href="#DejaVuSans-74" transform="translate(756.478516 0)"/>
     <use xlink:href="#DejaVuSans-69" transform="translate(795.6875 0)"/>
     <use xlink:href="#DejaVuSans-6f" transform="translate(823.470703 0)"/>
     <use xlink:href="#DejaVuSans-6e" transform="translate(884.652344 0)"/>
    </g>
    <!--  -->
    <g transform="translate(120.037145 74.228375) scale(0.2 -0.2)"/>
    <!--  -->
    <g transform="translate(120.037145 96.624) scale(0.2 -0.2)"/>
   </g>
   <g id="LineCollection_1">
    <path d="M 64.73659 114.246777 
L 64.73659 113.564299 
" clip-path="url(#pfbe1124280)" style="fill: none; stroke: #000000; stroke-width: 2"/>
    <path d="M 120.037145 106.906194 
L 120.037145 106.906194 
" clip-path="url(#pfbe1124280)" style="fill: none; stroke: #000000; stroke-width: 2"/>
    <path d="M 175.3377 106.906194 
L 175.3377 106.906194 
" clip-path="url(#pfbe1124280)" style="fill: none; stroke: #000000; stroke-width: 2"/>
   </g>
   <g id="line2d_9">
    <defs>
     <path id="m002297f6c3" d="M 5 0 
L -5 -0 
" style="stroke: #000000"/>
    </defs>
    <g clip-path="url(#pfbe1124280)">
     <use xlink:href="#m002297f6c3" x="64.73659" y="114.246777" style="stroke: #000000"/>
     <use xlink:href="#m002297f6c3" x="120.037145" y="106.906194" style="stroke: #000000"/>
     <use xlink:href="#m002297f6c3" x="175.3377" y="106.906194" style="stroke: #000000"/>
    </g>
   </g>
   <g id="line2d_10">
    <g clip-path="url(#pfbe1124280)">
     <use xlink:href="#m002297f6c3" x="64.73659" y="113.564299" style="stroke: #000000"/>
     <use xlink:href="#m002297f6c3" x="120.037145" y="106.906194" style="stroke: #000000"/>
     <use xlink:href="#m002297f6c3" x="175.3377" y="106.906194" style="stroke: #000000"/>
    </g>
   </g>
   <g id="line2d_11">
    <defs>
     <path id="md398c8fb04" d="M 0 3 
C 0.795609 3 1.55874 2.683901 2.12132 2.12132 
C 2.683901 1.55874 3 0.795609 3 0 
C 3 -0.795609 2.683901 -1.55874 2.12132 -2.12132 
C 1.55874 -2.683901 0.795609 -3 0 -3 
C -0.795609 -3 -1.55874 -2.683901 -2.12132 -2.12132 
C -2.683901 -1.55874 -3 -0.795609 -3 0 
C -3 0.795609 -2.683901 1.55874 -2.12132 2.12132 
C -1.55874 2.683901 -0.795609 3 0 3 
z
" style="stroke: #000000"/>
    </defs>
    <g clip-path="url(#pfbe1124280)">
     <use xlink:href="#md398c8fb04" x="64.73659" y="113.905538" style="stroke: #000000"/>
     <use xlink:href="#md398c8fb04" x="120.037145" y="106.906194" style="stroke: #000000"/>
     <use xlink:href="#md398c8fb04" x="175.3377" y="106.906194" style="stroke: #000000"/>
    </g>
   </g>
  </g>
 </g>
 <defs>
  <clipPath id="pfbe1124280">
   <rect x="34.87429" y="102.624" width="170.32571" height="89.926081"/>
  </clipPath>
 </defs>
</svg>
