<?xml version="1.0" encoding="utf-8" standalone="no"?>
<!DOCTYPE svg PUBLIC "-//W3C//DTD SVG 1.1//EN"
  "http://www.w3.org/Graphics/SVG/1.1/DTD/svg11.dtd">
<svg xmlns:xlink="http://www.w3.org/1999/xlink" width="216pt" height="288pt" viewBox="0 0 216 288" xmlns="http://www.w3.org/2000/svg" version="1.1">
 <metadata>
  <rdf:RDF xmlns:dc="http://purl.org/dc/elements/1.1/" xmlns:cc="http://creativecommons.org/ns#" xmlns:rdf="http://www.w3.org/1999/02/22-rdf-syntax-ns#">
   <cc:Work>
    <dc:type rdf:resource="http://purl.org/dc/dcmitype/StillImage"/>
    <dc:date>2025-10-17T19:22:21.351388</dc:date>
    <dc:format>image/svg+xml</dc:format>
    <dc:creator>
     <cc:Agent>
      <dc:title>Matplotlib v3.10.1, https://matplotlib.org/</dc:title>
     </cc:Agent>
    </dc:creator>
   </cc:Work>
  </rdf:RDF>
 </metadata>
 <defs>
  <style type="text/css">*{stroke-linejoin: round; stroke-linecap: butt}</style>
 </defs>
 <g id="figure_1">
  <g id="patch_1">
   <path d="M 0 288 
L 216 288 
L 216 0 
L 0 0 
L 0 288 
z
" style="fill: none"/>
  </g>
  <g id="axes_1">
   <g id="patch_2">
    <path d="M 34.87429 192.550081 
L 205.2 192.550081 
L 205.2 102.624 
L 34.87429 102.624 
L 34.87429 192.550081 
z
" style="fill: none"/>
   </g>
   <g id="FillBetweenPolyCollection_1">
    <defs>
     <path id="m087007edfc" d="M 70.466451 -127.856876 
L 59.006728 -127.856876 
L 58.415451 -128.267033 
L 57.792732 -128.67719 
L 57.140956 -129.087347 
L 56.463085 -129.497504 
L 55.762654 -129.907661 
L 55.043742 -130.317818 
L 54.310934 -130.727974 
L 53.569262 -131.138131 
L 52.824146 -131.548288 
L 52.08131 -131.958445 
L 51.346699 -132.368602 
L 50.626392 -132.778759 
L 49.926506 -133.188916 
L 49.253109 -133.599073 
L 48.612131 -134.009229 
L 48.009281 -134.419386 
L 47.449977 -134.829543 
L 46.939277 -135.2397 
L 46.481827 -135.649857 
L 46.08181 -136.060014 
L 45.742906 -136.470171 
L 45.46826 -136.880327 
L 45.260453 -137.290484 
L 45.121473 -137.700641 
L 45.052695 -138.110798 
L 45.054852 -138.520955 
L 45.128019 -138.931112 
L 45.271584 -139.341269 
L 45.484232 -139.751426 
L 45.763923 -140.161582 
L 46.107881 -140.571739 
L 46.512586 -140.981896 
L 46.973778 -141.392053 
L 47.48647 -141.80221 
L 48.044974 -142.212367 
L 48.642948 -142.622524 
L 49.273447 -143.03268 
L 49.928998 -143.442837 
L 50.601684 -143.852994 
L 51.28324 -144.263151 
L 51.965164 -144.673308 
L 52.638822 -145.083465 
L 53.295569 -145.493622 
L 53.926865 -145.903779 
L 54.524388 -146.313935 
L 55.080136 -146.724092 
L 55.586538 -147.134249 
L 56.036535 -147.544406 
L 56.423669 -147.954563 
L 56.742155 -148.36472 
L 56.986947 -148.774877 
L 57.153791 -149.185033 
L 57.239284 -149.59519 
L 57.240915 -150.005347 
L 57.157113 -150.415504 
L 56.987282 -150.825661 
L 56.731844 -151.235818 
L 56.392269 -151.645975 
L 55.971107 -152.056132 
L 55.472011 -152.466288 
L 54.899748 -152.876445 
L 54.260205 -153.286602 
L 53.560372 -153.696759 
L 52.808311 -154.106916 
L 52.013101 -154.517073 
L 51.18476 -154.92723 
L 50.33414 -155.337386 
L 49.472794 -155.747543 
L 48.612816 -156.1577 
L 47.766663 -156.567857 
L 46.946938 -156.978014 
L 46.166178 -157.388171 
L 45.436609 -157.798328 
L 44.769904 -158.208485 
L 44.176949 -158.618641 
L 43.667603 -159.028798 
L 43.250486 -159.438955 
L 42.932791 -159.849112 
L 42.72012 -160.259269 
L 42.616367 -160.669426 
L 42.623635 -161.079583 
L 42.742203 -161.489739 
L 42.970536 -161.899896 
L 43.305345 -162.310053 
L 43.741689 -162.72021 
L 44.273115 -163.130367 
L 44.89184 -163.540524 
L 45.588952 -163.950681 
L 46.354641 -164.360838 
L 47.178437 -164.770994 
L 48.049461 -165.181151 
L 48.956665 -165.591308 
L 49.889068 -166.001465 
L 50.835974 -166.411622 
L 51.787167 -166.821779 
L 52.733084 -167.231936 
L 53.66495 -167.642092 
L 54.574893 -168.052249 
L 55.456019 -168.462406 
L 74.01716 -168.462406 
L 74.01716 -168.462406 
L 74.898286 -168.052249 
L 75.808229 -167.642092 
L 76.740095 -167.231936 
L 77.686012 -166.821779 
L 78.637205 -166.411622 
L 79.584111 -166.001465 
L 80.516514 -165.591308 
L 81.423718 -165.181151 
L 82.294742 -164.770994 
L 83.118539 -164.360838 
L 83.884227 -163.950681 
L 84.581339 -163.540524 
L 85.200064 -163.130367 
L 85.73149 -162.72021 
L 86.167834 -162.310053 
L 86.502643 -161.899896 
L 86.730976 -161.489739 
L 86.849544 -161.079583 
L 86.856812 -160.669426 
L 86.753059 -160.259269 
L 86.540388 -159.849112 
L 86.222693 -159.438955 
L 85.805576 -159.028798 
L 85.29623 -158.618641 
L 84.703275 -158.208485 
L 84.036571 -157.798328 
L 83.307001 -157.388171 
L 82.526241 -156.978014 
L 81.706517 -156.567857 
L 80.860363 -156.1577 
L 80.000386 -155.747543 
L 79.139039 -155.337386 
L 78.288419 -154.92723 
L 77.460078 -154.517073 
L 76.664868 -154.106916 
L 75.912807 -153.696759 
L 75.212974 -153.286602 
L 74.573431 -152.876445 
L 74.001168 -152.466288 
L 73.502072 -152.056132 
L 73.08091 -151.645975 
L 72.741335 -151.235818 
L 72.485897 -150.825661 
L 72.316066 -150.415504 
L 72.232264 -150.005347 
L 72.233895 -149.59519 
L 72.319388 -149.185033 
L 72.486233 -148.774877 
L 72.731024 -148.36472 
L 73.04951 -147.954563 
L 73.436645 -147.544406 
L 73.886641 -147.134249 
L 74.393043 -146.724092 
L 74.948792 -146.313935 
L 75.546314 -145.903779 
L 76.17761 -145.493622 
L 76.834358 -145.083465 
L 77.508015 -144.673308 
L 78.189939 -144.263151 
L 78.871496 -143.852994 
L 79.544181 -143.442837 
L 80.199732 -143.03268 
L 80.830231 -142.622524 
L 81.428205 -142.212367 
L 81.98671 -141.80221 
L 82.499401 -141.392053 
L 82.960593 -140.981896 
L 83.365298 -140.571739 
L 83.709256 -140.161582 
L 83.988947 -139.751426 
L 84.201595 -139.341269 
L 84.345161 -138.931112 
L 84.418327 -138.520955 
L 84.420484 -138.110798 
L 84.351706 -137.700641 
L 84.212726 -137.290484 
L 84.004919 -136.880327 
L 83.730274 -136.470171 
L 83.39137 -136.060014 
L 82.991352 -135.649857 
L 82.533902 -135.2397 
L 82.023203 -134.829543 
L 81.463898 -134.419386 
L 80.861048 -134.009229 
L 80.22007 -133.599073 
L 79.546673 -133.188916 
L 78.846788 -132.778759 
L 78.12648 -132.368602 
L 77.391869 -131.958445 
L 76.649033 -131.548288 
L 75.903917 -131.138131 
L 75.162245 -130.727974 
L 74.429437 -130.317818 
L 73.710525 -129.907661 
L 73.010094 -129.497504 
L 72.332223 -129.087347 
L 71.680447 -128.67719 
L 71.057729 -128.267033 
L 70.466451 -127.856876 
z
" style="stroke: #323232; stroke-opacity: 0.4; stroke-width: 1.25"/>
    </defs>
    <g clip-path="url(#p902fa97bd7)">
     <use xlink:href="#m087007edfc" x="0" y="288" style="fill: #dc9238; fill-opacity: 0.4; stroke: #323232; stroke-opacity: 0.4; stroke-width: 1.25"/>
    </g>
   </g>
   <g id="FillBetweenPolyCollection_2">
    <defs>
     <path id="mbd0a4a3048" d="M 137.10331 -116.903929 
L 102.97098 -116.903929 
L 102.440085 -117.172368 
L 101.945817 -117.440806 
L 101.491915 -117.709245 
L 101.081856 -117.977684 
L 100.71881 -118.246122 
L 100.405602 -118.514561 
L 100.144675 -118.782999 
L 99.938064 -119.051438 
L 99.787368 -119.319877 
L 99.693731 -119.588315 
L 99.65783 -119.856754 
L 99.679866 -120.125193 
L 99.759563 -120.393631 
L 99.896174 -120.66207 
L 100.08849 -120.930509 
L 100.334857 -121.198947 
L 100.633198 -121.467386 
L 100.981038 -121.735824 
L 101.375536 -122.004263 
L 101.813522 -122.272702 
L 102.291531 -122.54114 
L 102.805848 -122.809579 
L 103.35255 -123.078018 
L 103.927549 -123.346456 
L 104.526639 -123.614895 
L 105.145539 -123.883334 
L 105.779937 -124.151772 
L 106.425536 -124.420211 
L 107.078088 -124.688649 
L 107.733438 -124.957088 
L 108.387552 -125.225527 
L 109.036554 -125.493965 
L 109.676744 -125.762404 
L 110.30463 -126.030843 
L 110.916936 -126.299281 
L 111.510618 -126.56772 
L 112.082873 -126.836159 
L 112.631141 -127.104597 
L 113.153104 -127.373036 
L 113.646676 -127.641474 
L 114.110003 -127.909913 
L 114.541442 -128.178352 
L 114.939548 -128.44679 
L 115.303061 -128.715229 
L 115.630879 -128.983668 
L 115.922046 -129.252106 
L 116.175728 -129.520545 
L 116.391193 -129.788984 
L 116.567794 -130.057422 
L 116.704956 -130.325861 
L 116.802156 -130.594299 
L 116.858916 -130.862738 
L 116.874796 -131.131177 
L 116.849389 -131.399615 
L 116.782323 -131.668054 
L 116.673266 -131.936493 
L 116.521937 -132.204931 
L 116.328119 -132.47337 
L 116.091676 -132.741809 
L 115.81258 -133.010247 
L 115.490933 -133.278686 
L 115.126996 -133.547124 
L 114.721224 -133.815563 
L 114.274294 -134.084002 
L 113.787141 -134.35244 
L 113.260988 -134.620879 
L 112.697382 -134.889318 
L 112.098215 -135.157756 
L 111.465757 -135.426195 
L 110.80267 -135.694634 
L 110.112025 -135.963072 
L 109.39731 -136.231511 
L 108.662425 -136.499949 
L 107.911681 -136.768388 
L 107.149777 -137.036827 
L 106.381774 -137.305265 
L 105.613061 -137.573704 
L 104.849308 -137.842143 
L 104.096416 -138.110581 
L 103.360446 -138.37902 
L 102.647561 -138.647459 
L 101.963942 -138.915897 
L 101.31571 -139.184336 
L 100.708842 -139.452774 
L 100.149087 -139.721213 
L 99.64188 -139.989652 
L 99.192254 -140.25809 
L 98.804769 -140.526529 
L 98.483431 -140.794968 
L 98.231629 -141.063406 
L 98.052075 -141.331845 
L 97.946761 -141.600284 
L 97.916923 -141.868722 
L 97.963014 -142.137161 
L 98.0847 -142.405599 
L 98.280865 -142.674038 
L 98.549621 -142.942477 
L 98.888349 -143.210915 
L 99.293736 -143.479354 
L 140.780554 -143.479354 
L 140.780554 -143.479354 
L 141.18594 -143.210915 
L 141.524669 -142.942477 
L 141.793425 -142.674038 
L 141.989589 -142.405599 
L 142.111276 -142.137161 
L 142.157367 -141.868722 
L 142.127528 -141.600284 
L 142.022215 -141.331845 
L 141.842661 -141.063406 
L 141.590858 -140.794968 
L 141.26952 -140.526529 
L 140.882035 -140.25809 
L 140.43241 -139.989652 
L 139.925202 -139.721213 
L 139.365448 -139.452774 
L 138.75858 -139.184336 
L 138.110348 -138.915897 
L 137.426728 -138.647459 
L 136.713844 -138.37902 
L 135.977874 -138.110581 
L 135.224981 -137.842143 
L 134.461229 -137.573704 
L 133.692516 -137.305265 
L 132.924513 -137.036827 
L 132.162609 -136.768388 
L 131.411865 -136.499949 
L 130.67698 -136.231511 
L 129.962265 -135.963072 
L 129.27162 -135.694634 
L 128.608533 -135.426195 
L 127.976075 -135.157756 
L 127.376908 -134.889318 
L 126.813301 -134.620879 
L 126.287149 -134.35244 
L 125.799995 -134.084002 
L 125.353065 -133.815563 
L 124.947294 -133.547124 
L 124.583357 -133.278686 
L 124.26171 -133.010247 
L 123.982614 -132.741809 
L 123.746171 -132.47337 
L 123.552353 -132.204931 
L 123.401024 -131.936493 
L 123.291967 -131.668054 
L 123.224901 -131.399615 
L 123.199494 -131.131177 
L 123.215373 -130.862738 
L 123.272134 -130.594299 
L 123.369333 -130.325861 
L 123.506495 -130.057422 
L 123.683097 -129.788984 
L 123.898562 -129.520545 
L 124.152244 -129.252106 
L 124.443411 -128.983668 
L 124.771229 -128.715229 
L 125.134742 -128.44679 
L 125.532848 -128.178352 
L 125.964287 -127.909913 
L 126.427613 -127.641474 
L 126.921186 -127.373036 
L 127.443148 -127.104597 
L 127.991417 -126.836159 
L 128.563672 -126.56772 
L 129.157354 -126.299281 
L 129.76966 -126.030843 
L 130.397545 -125.762404 
L 131.037736 -125.493965 
L 131.686737 -125.225527 
L 132.340852 -124.957088 
L 132.996201 -124.688649 
L 133.648754 -124.420211 
L 134.294352 -124.151772 
L 134.928751 -123.883334 
L 135.547651 -123.614895 
L 136.14674 -123.346456 
L 136.72174 -123.078018 
L 137.268442 -122.809579 
L 137.782759 -122.54114 
L 138.260768 -122.272702 
L 138.698753 -122.004263 
L 139.093252 -121.735824 
L 139.441091 -121.467386 
L 139.739432 -121.198947 
L 139.9858 -120.930509 
L 140.178116 -120.66207 
L 140.314727 -120.393631 
L 140.394424 -120.125193 
L 140.41646 -119.856754 
L 140.380558 -119.588315 
L 140.286921 -119.319877 
L 140.136225 -119.051438 
L 139.929615 -118.782999 
L 139.668688 -118.514561 
L 139.35548 -118.246122 
L 138.992434 -117.977684 
L 138.582375 -117.709245 
L 138.128473 -117.440806 
L 137.634204 -117.172368 
L 137.10331 -116.903929 
z
" style="stroke: #323232; stroke-opacity: 0.4; stroke-width: 1.25"/>
    </defs>
    <g clip-path="url(#p902fa97bd7)">
     <use xlink:href="#mbd0a4a3048" x="0" y="288" style="fill: #159152; fill-opacity: 0.4; stroke: #323232; stroke-opacity: 0.4; stroke-width: 1.25"/>
    </g>
   </g>
   <g id="FillBetweenPolyCollection_3">
    <defs>
     <path id="m5dd3049fd9" d="M 178.010745 -141.047756 
L 172.664655 -141.047756 
L 172.324027 -141.392488 
L 171.949162 -141.73722 
L 171.538776 -142.081952 
L 171.091969 -142.426683 
L 170.608294 -142.771415 
L 170.08783 -143.116147 
L 169.53124 -143.460879 
L 168.93982 -143.80561 
L 168.315539 -144.150342 
L 167.661064 -144.495074 
L 166.979767 -144.839806 
L 166.275711 -145.184537 
L 165.553629 -145.529269 
L 164.81887 -145.874001 
L 164.077336 -146.218733 
L 163.335397 -146.563464 
L 162.599798 -146.908196 
L 161.877546 -147.252928 
L 161.175789 -147.59766 
L 160.501693 -147.942391 
L 159.862312 -148.287123 
L 159.264461 -148.631855 
L 158.714593 -148.976587 
L 158.218683 -149.321318 
L 157.782124 -149.66605 
L 157.409635 -150.010782 
L 157.105186 -150.355514 
L 156.871936 -150.700245 
L 156.712192 -151.044977 
L 156.627382 -151.389709 
L 156.618048 -151.734441 
L 156.683855 -152.079172 
L 156.82361 -152.423904 
L 157.035305 -152.768636 
L 157.316159 -153.113368 
L 157.662681 -153.458099 
L 158.070736 -153.802831 
L 158.535619 -154.147563 
L 159.05213 -154.492294 
L 159.614661 -154.837026 
L 160.217273 -155.181758 
L 160.85378 -155.52649 
L 161.517829 -155.871221 
L 162.202982 -156.215953 
L 162.902783 -156.560685 
L 163.610829 -156.905417 
L 164.320833 -157.250148 
L 165.026678 -157.59488 
L 165.72246 -157.939612 
L 166.40253 -158.284344 
L 167.061518 -158.629075 
L 167.694356 -158.973807 
L 168.296281 -159.318539 
L 168.86284 -159.663271 
L 169.389881 -160.008002 
L 169.873537 -160.352734 
L 170.310205 -160.697466 
L 170.696525 -161.042198 
L 171.029353 -161.386929 
L 171.305739 -161.731661 
L 171.52291 -162.076393 
L 171.678253 -162.421125 
L 171.769315 -162.765856 
L 171.793814 -163.110588 
L 171.74966 -163.45532 
L 171.634992 -163.800052 
L 171.448234 -164.144783 
L 171.188161 -164.489515 
L 170.853987 -164.834247 
L 170.445457 -165.178979 
L 169.962955 -165.52371 
L 169.407611 -165.868442 
L 168.781416 -166.213174 
L 168.087324 -166.557906 
L 167.329346 -166.902637 
L 166.512629 -167.247369 
L 165.643509 -167.592101 
L 164.729532 -167.936833 
L 163.779443 -168.281564 
L 162.803142 -168.626296 
L 161.811585 -168.971028 
L 160.816661 -169.315759 
L 159.831012 -169.660491 
L 158.867824 -170.005223 
L 157.940581 -170.349955 
L 157.062794 -170.694686 
L 156.247703 -171.039418 
L 155.50798 -171.38415 
L 154.855426 -171.728882 
L 154.300675 -172.073613 
L 153.852928 -172.418345 
L 153.519712 -172.763077 
L 153.306683 -173.107809 
L 153.217478 -173.45254 
L 153.253621 -173.797272 
L 153.414484 -174.142004 
L 153.697316 -174.486736 
L 154.097322 -174.831467 
L 154.607805 -175.176199 
L 196.067596 -175.176199 
L 196.067596 -175.176199 
L 196.578078 -174.831467 
L 196.978084 -174.486736 
L 197.260916 -174.142004 
L 197.421779 -173.797272 
L 197.457922 -173.45254 
L 197.368718 -173.107809 
L 197.155689 -172.763077 
L 196.822472 -172.418345 
L 196.374725 -172.073613 
L 195.819974 -171.728882 
L 195.16742 -171.38415 
L 194.427698 -171.039418 
L 193.612607 -170.694686 
L 192.734819 -170.349955 
L 191.807577 -170.005223 
L 190.844389 -169.660491 
L 189.858739 -169.315759 
L 188.863815 -168.971028 
L 187.872259 -168.626296 
L 186.895957 -168.281564 
L 185.945869 -167.936833 
L 185.031891 -167.592101 
L 184.162771 -167.247369 
L 183.346055 -166.902637 
L 182.588077 -166.557906 
L 181.893984 -166.213174 
L 181.267789 -165.868442 
L 180.712445 -165.52371 
L 180.229943 -165.178979 
L 179.821413 -164.834247 
L 179.487239 -164.489515 
L 179.227166 -164.144783 
L 179.040408 -163.800052 
L 178.92574 -163.45532 
L 178.881586 -163.110588 
L 178.906085 -162.765856 
L 178.997148 -162.421125 
L 179.15249 -162.076393 
L 179.369661 -161.731661 
L 179.646048 -161.386929 
L 179.978876 -161.042198 
L 180.365195 -160.697466 
L 180.801863 -160.352734 
L 181.285519 -160.008002 
L 181.81256 -159.663271 
L 182.379119 -159.318539 
L 182.981044 -158.973807 
L 183.613882 -158.629075 
L 184.272871 -158.284344 
L 184.95294 -157.939612 
L 185.648722 -157.59488 
L 186.354567 -157.250148 
L 187.064571 -156.905417 
L 187.772617 -156.560685 
L 188.472418 -156.215953 
L 189.157571 -155.871221 
L 189.821621 -155.52649 
L 190.458127 -155.181758 
L 191.060739 -154.837026 
L 191.62327 -154.492294 
L 192.139782 -154.147563 
L 192.604664 -153.802831 
L 193.012719 -153.458099 
L 193.359241 -153.113368 
L 193.640095 -152.768636 
L 193.85179 -152.423904 
L 193.991546 -152.079172 
L 194.057352 -151.734441 
L 194.048019 -151.389709 
L 193.963209 -151.044977 
L 193.803464 -150.700245 
L 193.570214 -150.355514 
L 193.265765 -150.010782 
L 192.893277 -149.66605 
L 192.456718 -149.321318 
L 191.960808 -148.976587 
L 191.41094 -148.631855 
L 190.813089 -148.287123 
L 190.173708 -147.942391 
L 189.499612 -147.59766 
L 188.797854 -147.252928 
L 188.075602 -146.908196 
L 187.340003 -146.563464 
L 186.598065 -146.218733 
L 185.85653 -145.874001 
L 185.121771 -145.529269 
L 184.399689 -145.184537 
L 183.695634 -144.839806 
L 183.014336 -144.495074 
L 182.359861 -144.150342 
L 181.735581 -143.80561 
L 181.14416 -143.460879 
L 180.58757 -143.116147 
L 180.067107 -142.771415 
L 179.583432 -142.426683 
L 179.136624 -142.081952 
L 178.726238 -141.73722 
L 178.351374 -141.392488 
L 178.010745 -141.047756 
z
" style="stroke: #323232; stroke-opacity: 0.4; stroke-width: 1.25"/>
    </defs>
    <g clip-path="url(#p902fa97bd7)">
     <use xlink:href="#m5dd3049fd9" x="0" y="288" style="fill: #c0c0c0; fill-opacity: 0.4; stroke: #323232; stroke-opacity: 0.4; stroke-width: 1.25"/>
    </g>
   </g>
   <g id="matplotlib.axis_1">
    <g id="xtick_1">
     <g id="line2d_1">
      <defs>
       <path id="m77921358fc" d="M 0 0 
L 0 3.5 
" style="stroke: #000000; stroke-width: 0.8"/>
      </defs>
      <g>
       <use xlink:href="#m77921358fc" x="64.73659" y="192.550081" style="stroke: #000000; stroke-width: 0.8"/>
      </g>
     </g>
     <g id="text_1">
      <!-- MTL-sensory -->
      <g transform="translate(18.273489 267.913467) rotate(-30) scale(0.18 -0.18)">
       <defs>
        <path id="DejaVuSans-4d" d="M 628 4666 
L 1569 4666 
L 2759 1491 
L 3956 4666 
L 4897 4666 
L 4897 0 
L 4281 0 
L 4281 4097 
L 3078 897 
L 2444 897 
L 1241 4097 
L 1241 0 
L 628 0 
L 628 4666 
z
" transform="scale(0.015625)"/>
        <path id="DejaVuSans-54" d="M -19 4666 
L 3928 4666 
L 3928 4134 
L 2272 4134 
L 2272 0 
L 1638 0 
L 1638 4134 
L -19 4134 
L -19 4666 
z
" transform="scale(0.015625)"/>
        <path id="DejaVuSans-4c" d="M 628 4666 
L 1259 4666 
L 1259 531 
L 3531 531 
L 3531 0 
L 628 0 
L 628 4666 
z
" transform="scale(0.015625)"/>
        <path id="DejaVuSans-2d" d="M 313 2009 
L 1997 2009 
L 1997 1497 
L 313 1497 
L 313 2009 
z
" transform="scale(0.015625)"/>
        <path id="DejaVuSans-73" d="M 2834 3397 
L 2834 2853 
Q 2591 2978 2328 3040 
Q 2066 3103 1784 3103 
Q 1356 3103 1142 2972 
Q 928 2841 928 2578 
Q 928 2378 1081 2264 
Q 1234 2150 1697 2047 
L 1894 2003 
Q 2506 1872 2764 1633 
Q 3022 1394 3022 966 
Q 3022 478 2636 193 
Q 2250 -91 1575 -91 
Q 1294 -91 989 -36 
Q 684 19 347 128 
L 347 722 
Q 666 556 975 473 
Q 1284 391 1588 391 
Q 1994 391 2212 530 
Q 2431 669 2431 922 
Q 2431 1156 2273 1281 
Q 2116 1406 1581 1522 
L 1381 1569 
Q 847 1681 609 1914 
Q 372 2147 372 2553 
Q 372 3047 722 3315 
Q 1072 3584 1716 3584 
Q 2034 3584 2315 3537 
Q 2597 3491 2834 3397 
z
" transform="scale(0.015625)"/>
        <path id="DejaVuSans-65" d="M 3597 1894 
L 3597 1613 
L 953 1613 
Q 991 1019 1311 708 
Q 1631 397 2203 397 
Q 2534 397 2845 478 
Q 3156 559 3463 722 
L 3463 178 
Q 3153 47 2828 -22 
Q 2503 -91 2169 -91 
Q 1331 -91 842 396 
Q 353 884 353 1716 
Q 353 2575 817 3079 
Q 1281 3584 2069 3584 
Q 2775 3584 3186 3129 
Q 3597 2675 3597 1894 
z
M 3022 2063 
Q 3016 2534 2758 2815 
Q 2500 3097 2075 3097 
Q 1594 3097 1305 2825 
Q 1016 2553 972 2059 
L 3022 2063 
z
" transform="scale(0.015625)"/>
        <path id="DejaVuSans-6e" d="M 3513 2113 
L 3513 0 
L 2938 0 
L 2938 2094 
Q 2938 2591 2744 2837 
Q 2550 3084 2163 3084 
Q 1697 3084 1428 2787 
Q 1159 2491 1159 1978 
L 1159 0 
L 581 0 
L 581 3500 
L 1159 3500 
L 1159 2956 
Q 1366 3272 1645 3428 
Q 1925 3584 2291 3584 
Q 2894 3584 3203 3211 
Q 3513 2838 3513 2113 
z
" transform="scale(0.015625)"/>
        <path id="DejaVuSans-6f" d="M 1959 3097 
Q 1497 3097 1228 2736 
Q 959 2375 959 1747 
Q 959 1119 1226 758 
Q 1494 397 1959 397 
Q 2419 397 2687 759 
Q 2956 1122 2956 1747 
Q 2956 2369 2687 2733 
Q 2419 3097 1959 3097 
z
M 1959 3584 
Q 2709 3584 3137 3096 
Q 3566 2609 3566 1747 
Q 3566 888 3137 398 
Q 2709 -91 1959 -91 
Q 1206 -91 779 398 
Q 353 888 353 1747 
Q 353 2609 779 3096 
Q 1206 3584 1959 3584 
z
" transform="scale(0.015625)"/>
        <path id="DejaVuSans-72" d="M 2631 2963 
Q 2534 3019 2420 3045 
Q 2306 3072 2169 3072 
Q 1681 3072 1420 2755 
Q 1159 2438 1159 1844 
L 1159 0 
L 581 0 
L 581 3500 
L 1159 3500 
L 1159 2956 
Q 1341 3275 1631 3429 
Q 1922 3584 2338 3584 
Q 2397 3584 2469 3576 
Q 2541 3569 2628 3553 
L 2631 2963 
z
" transform="scale(0.015625)"/>
        <path id="DejaVuSans-79" d="M 2059 -325 
Q 1816 -950 1584 -1140 
Q 1353 -1331 966 -1331 
L 506 -1331 
L 506 -850 
L 844 -850 
Q 1081 -850 1212 -737 
Q 1344 -625 1503 -206 
L 1606 56 
L 191 3500 
L 800 3500 
L 1894 763 
L 2988 3500 
L 3597 3500 
L 2059 -325 
z
" transform="scale(0.015625)"/>
       </defs>
       <use xlink:href="#DejaVuSans-4d"/>
       <use xlink:href="#DejaVuSans-54" transform="translate(86.279297 0)"/>
       <use xlink:href="#DejaVuSans-4c" transform="translate(147.363281 0)"/>
       <use xlink:href="#DejaVuSans-2d" transform="translate(201.326172 0)"/>
       <use xlink:href="#DejaVuSans-73" transform="translate(237.410156 0)"/>
       <use xlink:href="#DejaVuSans-65" transform="translate(289.509766 0)"/>
       <use xlink:href="#DejaVuSans-6e" transform="translate(351.033203 0)"/>
       <use xlink:href="#DejaVuSans-73" transform="translate(414.412109 0)"/>
       <use xlink:href="#DejaVuSans-6f" transform="translate(466.511719 0)"/>
       <use xlink:href="#DejaVuSans-72" transform="translate(527.693359 0)"/>
       <use xlink:href="#DejaVuSans-79" transform="translate(568.806641 0)"/>
      </g>
     </g>
    </g>
    <g id="xtick_2">
     <g id="line2d_2">
      <g>
       <use xlink:href="#m77921358fc" x="120.037145" y="192.550081" style="stroke: #000000; stroke-width: 0.8"/>
      </g>
     </g>
     <g id="text_2">
      <!-- MTL-semantic -->
      <g transform="translate(68.345822 273.950498) rotate(-30) scale(0.18 -0.18)">
       <defs>
        <path id="DejaVuSans-6d" d="M 3328 2828 
Q 3544 3216 3844 3400 
Q 4144 3584 4550 3584 
Q 5097 3584 5394 3201 
Q 5691 2819 5691 2113 
L 5691 0 
L 5113 0 
L 5113 2094 
Q 5113 2597 4934 2840 
Q 4756 3084 4391 3084 
Q 3944 3084 3684 2787 
Q 3425 2491 3425 1978 
L 3425 0 
L 2847 0 
L 2847 2094 
Q 2847 2600 2669 2842 
Q 2491 3084 2119 3084 
Q 1678 3084 1418 2786 
Q 1159 2488 1159 1978 
L 1159 0 
L 581 0 
L 581 3500 
L 1159 3500 
L 1159 2956 
Q 1356 3278 1631 3431 
Q 1906 3584 2284 3584 
Q 2666 3584 2933 3390 
Q 3200 3197 3328 2828 
z
" transform="scale(0.015625)"/>
        <path id="DejaVuSans-61" d="M 2194 1759 
Q 1497 1759 1228 1600 
Q 959 1441 959 1056 
Q 959 750 1161 570 
Q 1363 391 1709 391 
Q 2188 391 2477 730 
Q 2766 1069 2766 1631 
L 2766 1759 
L 2194 1759 
z
M 3341 1997 
L 3341 0 
L 2766 0 
L 2766 531 
Q 2569 213 2275 61 
Q 1981 -91 1556 -91 
Q 1019 -91 701 211 
Q 384 513 384 1019 
Q 384 1609 779 1909 
Q 1175 2209 1959 2209 
L 2766 2209 
L 2766 2266 
Q 2766 2663 2505 2880 
Q 2244 3097 1772 3097 
Q 1472 3097 1187 3025 
Q 903 2953 641 2809 
L 641 3341 
Q 956 3463 1253 3523 
Q 1550 3584 1831 3584 
Q 2591 3584 2966 3190 
Q 3341 2797 3341 1997 
z
" transform="scale(0.015625)"/>
        <path id="DejaVuSans-74" d="M 1172 4494 
L 1172 3500 
L 2356 3500 
L 2356 3053 
L 1172 3053 
L 1172 1153 
Q 1172 725 1289 603 
Q 1406 481 1766 481 
L 2356 481 
L 2356 0 
L 1766 0 
Q 1100 0 847 248 
Q 594 497 594 1153 
L 594 3053 
L 172 3053 
L 172 3500 
L 594 3500 
L 594 4494 
L 1172 4494 
z
" transform="scale(0.015625)"/>
        <path id="DejaVuSans-69" d="M 603 3500 
L 1178 3500 
L 1178 0 
L 603 0 
L 603 3500 
z
M 603 4863 
L 1178 4863 
L 1178 4134 
L 603 4134 
L 603 4863 
z
" transform="scale(0.015625)"/>
        <path id="DejaVuSans-63" d="M 3122 3366 
L 3122 2828 
Q 2878 2963 2633 3030 
Q 2388 3097 2138 3097 
Q 1578 3097 1268 2742 
Q 959 2388 959 1747 
Q 959 1106 1268 751 
Q 1578 397 2138 397 
Q 2388 397 2633 464 
Q 2878 531 3122 666 
L 3122 134 
Q 2881 22 2623 -34 
Q 2366 -91 2075 -91 
Q 1284 -91 818 406 
Q 353 903 353 1747 
Q 353 2603 823 3093 
Q 1294 3584 2113 3584 
Q 2378 3584 2631 3529 
Q 2884 3475 3122 3366 
z
" transform="scale(0.015625)"/>
       </defs>
       <use xlink:href="#DejaVuSans-4d"/>
       <use xlink:href="#DejaVuSans-54" transform="translate(86.279297 0)"/>
       <use xlink:href="#DejaVuSans-4c" transform="translate(147.363281 0)"/>
       <use xlink:href="#DejaVuSans-2d" transform="translate(201.326172 0)"/>
       <use xlink:href="#DejaVuSans-73" transform="translate(237.410156 0)"/>
       <use xlink:href="#DejaVuSans-65" transform="translate(289.509766 0)"/>
       <use xlink:href="#DejaVuSans-6d" transform="translate(351.033203 0)"/>
       <use xlink:href="#DejaVuSans-61" transform="translate(448.445312 0)"/>
       <use xlink:href="#DejaVuSans-6e" transform="translate(509.724609 0)"/>
       <use xlink:href="#DejaVuSans-74" transform="translate(573.103516 0)"/>
       <use xlink:href="#DejaVuSans-69" transform="translate(612.3125 0)"/>
       <use xlink:href="#DejaVuSans-63" transform="translate(640.095703 0)"/>
      </g>
     </g>
    </g>
    <g id="xtick_3">
     <g id="line2d_3">
      <g>
       <use xlink:href="#m77921358fc" x="175.3377" y="192.550081" style="stroke: #000000; stroke-width: 0.8"/>
      </g>
     </g>
     <g id="text_3">
      <!-- labels -->
      <g transform="translate(154.909759 237.850654) rotate(-30) scale(0.18 -0.18)">
       <defs>
        <path id="DejaVuSans-6c" d="M 603 4863 
L 1178 4863 
L 1178 0 
L 603 0 
L 603 4863 
z
" transform="scale(0.015625)"/>
        <path id="DejaVuSans-62" d="M 3116 1747 
Q 3116 2381 2855 2742 
Q 2594 3103 2138 3103 
Q 1681 3103 1420 2742 
Q 1159 2381 1159 1747 
Q 1159 1113 1420 752 
Q 1681 391 2138 391 
Q 2594 391 2855 752 
Q 3116 1113 3116 1747 
z
M 1159 2969 
Q 1341 3281 1617 3432 
Q 1894 3584 2278 3584 
Q 2916 3584 3314 3078 
Q 3713 2572 3713 1747 
Q 3713 922 3314 415 
Q 2916 -91 2278 -91 
Q 1894 -91 1617 61 
Q 1341 213 1159 525 
L 1159 0 
L 581 0 
L 581 4863 
L 1159 4863 
L 1159 2969 
z
" transform="scale(0.015625)"/>
       </defs>
       <use xlink:href="#DejaVuSans-6c"/>
       <use xlink:href="#DejaVuSans-61" transform="translate(27.783203 0)"/>
       <use xlink:href="#DejaVuSans-62" transform="translate(89.0625 0)"/>
       <use xlink:href="#DejaVuSans-65" transform="translate(152.539062 0)"/>
       <use xlink:href="#DejaVuSans-6c" transform="translate(214.0625 0)"/>
       <use xlink:href="#DejaVuSans-73" transform="translate(241.845703 0)"/>
      </g>
     </g>
    </g>
   </g>
   <g id="matplotlib.axis_2"/>
   <g id="line2d_4">
    <path d="M 64.73659 117.449282 
L 64.73659 107.172015 
L 175.3377 107.172015 
L 175.3377 117.449282 
" style="fill: none; stroke: #000000; stroke-width: 2; stroke-linecap: square"/>
   </g>
   <g id="line2d_5">
    <path d="M 64.73659 95.181867 
L 64.73659 84.9046 
L 117.272117 84.9046 
L 117.272117 95.181867 
" style="fill: none; stroke: #000000; stroke-width: 2; stroke-linecap: square"/>
   </g>
   <g id="line2d_6">
    <path d="M 122.802173 95.181867 
L 122.802173 84.9046 
L 175.3377 84.9046 
L 175.3377 95.181867 
" style="fill: none; stroke: #000000; stroke-width: 2; stroke-linecap: square"/>
   </g>
   <g id="patch_3">
    <path d="M 34.87429 192.550081 
L 34.87429 102.624 
" style="fill: none; stroke: #000000; stroke-width: 0.8; stroke-linejoin: miter; stroke-linecap: square"/>
   </g>
   <g id="patch_4">
    <path d="M 34.87429 192.550081 
L 205.2 192.550081 
" style="fill: none; stroke: #000000; stroke-width: 0.8; stroke-linejoin: miter; stroke-linecap: square"/>
   </g>
   <g id="PathCollection_1">
    <defs>
     <path id="mb2c075c8b7" d="M 0 1.5 
C 0.397805 1.5 0.77937 1.341951 1.06066 1.06066 
C 1.341951 0.77937 1.5 0.397805 1.5 0 
C 1.5 -0.397805 1.341951 -0.77937 1.06066 -1.06066 
C 0.77937 -1.341951 0.397805 -1.5 0 -1.5 
C -0.397805 -1.5 -0.77937 -1.341951 -1.06066 -1.06066 
C -1.341951 -0.77937 -1.5 -0.397805 -1.5 0 
C -1.5 0.397805 -1.341951 0.77937 -1.06066 1.06066 
C -0.77937 1.341951 -0.397805 1.5 0 1.5 
z
"/>
    </defs>
    <g clip-path="url(#p902fa97bd7)">
     <use xlink:href="#mb2c075c8b7" x="65.816355" y="146.650985" style="fill-opacity: 0.1"/>
     <use xlink:href="#mb2c075c8b7" x="69.496626" y="126.208348" style="fill-opacity: 0.1"/>
     <use xlink:href="#mb2c075c8b7" x="67.009738" y="143.702938" style="fill-opacity: 0.1"/>
     <use xlink:href="#mb2c075c8b7" x="65.729416" y="120.226187" style="fill-opacity: 0.1"/>
     <use xlink:href="#mb2c075c8b7" x="63.047817" y="151.492659" style="fill-opacity: 0.1"/>
     <use xlink:href="#mb2c075c8b7" x="67.9638" y="123.367894" style="fill-opacity: 0.1"/>
     <use xlink:href="#mb2c075c8b7" x="63.356005" y="150.30914" style="fill-opacity: 0.1"/>
     <use xlink:href="#mb2c075c8b7" x="73.402695" y="128.726018" style="fill-opacity: 0.1"/>
     <use xlink:href="#mb2c075c8b7" x="74.992913" y="143.337125" style="fill-opacity: 0.1"/>
     <use xlink:href="#mb2c075c8b7" x="62.15829" y="123.389416" style="fill-opacity: 0.1"/>
     <use xlink:href="#mb2c075c8b7" x="71.189612" y="153.622998" style="fill-opacity: 0.1"/>
     <use xlink:href="#mb2c075c8b7" x="65.375752" y="129.328539" style="fill-opacity: 0.1"/>
     <use xlink:href="#mb2c075c8b7" x="66.24175" y="147.576282" style="fill-opacity: 0.1"/>
     <use xlink:href="#mb2c075c8b7" x="74.150882" y="128.101979" style="fill-opacity: 0.1"/>
     <use xlink:href="#mb2c075c8b7" x="55.247812" y="147.899062" style="fill-opacity: 0.1"/>
     <use xlink:href="#mb2c075c8b7" x="55.603798" y="125.39064" style="fill-opacity: 0.1"/>
     <use xlink:href="#mb2c075c8b7" x="54.123714" y="147.985133" style="fill-opacity: 0.1"/>
     <use xlink:href="#mb2c075c8b7" x="72.094214" y="121.431225" style="fill-opacity: 0.1"/>
     <use xlink:href="#mb2c075c8b7" x="70.889479" y="154.914113" style="fill-opacity: 0.1"/>
     <use xlink:href="#mb2c075c8b7" x="72.92134" y="128.317166" style="fill-opacity: 0.1"/>
     <use xlink:href="#mb2c075c8b7" x="75.323734" y="145.940871" style="fill-opacity: 0.1"/>
     <use xlink:href="#mb2c075c8b7" x="71.354043" y="124.400789" style="fill-opacity: 0.1"/>
     <use xlink:href="#mb2c075c8b7" x="63.884505" y="154.03185" style="fill-opacity: 0.1"/>
     <use xlink:href="#mb2c075c8b7" x="70.941957" y="127.929831" style="fill-opacity: 0.1"/>
     <use xlink:href="#mb2c075c8b7" x="56.292735" y="150.825585" style="fill-opacity: 0.1"/>
     <use xlink:href="#mb2c075c8b7" x="67.831674" y="126.29442" style="fill-opacity: 0.1"/>
     <use xlink:href="#mb2c075c8b7" x="56.847485" y="143.294086" style="fill-opacity: 0.1"/>
     <use xlink:href="#mb2c075c8b7" x="74.572765" y="129.199429" style="fill-opacity: 0.1"/>
     <use xlink:href="#mb2c075c8b7" x="65.219879" y="154.698926" style="fill-opacity: 0.1"/>
     <use xlink:href="#mb2c075c8b7" x="62.848893" y="129.565242" style="fill-opacity: 0.1"/>
     <use xlink:href="#mb2c075c8b7" x="59.528507" y="144.951014" style="fill-opacity: 0.1"/>
     <use xlink:href="#mb2c075c8b7" x="70.8027" y="127.155161" style="fill-opacity: 0.1"/>
     <use xlink:href="#mb2c075c8b7" x="63.766625" y="150.976214" style="fill-opacity: 0.1"/>
     <use xlink:href="#mb2c075c8b7" x="66.250364" y="130.662692" style="fill-opacity: 0.1"/>
     <use xlink:href="#mb2c075c8b7" x="54.092113" y="152.525551" style="fill-opacity: 0.1"/>
     <use xlink:href="#mb2c075c8b7" x="67.338713" y="126.29442" style="fill-opacity: 0.1"/>
     <use xlink:href="#mb2c075c8b7" x="67.216172" y="156.355856" style="fill-opacity: 0.1"/>
     <use xlink:href="#mb2c075c8b7" x="67.323196" y="126.853903" style="fill-opacity: 0.1"/>
     <use xlink:href="#mb2c075c8b7" x="74.552396" y="150.588879" style="fill-opacity: 0.1"/>
     <use xlink:href="#mb2c075c8b7" x="68.758495" y="123.948899" style="fill-opacity: 0.1"/>
     <use xlink:href="#mb2c075c8b7" x="61.628873" y="151.79392" style="fill-opacity: 0.1"/>
     <use xlink:href="#mb2c075c8b7" x="63.343722" y="130.017132" style="fill-opacity: 0.1"/>
     <use xlink:href="#mb2c075c8b7" x="69.108236" y="146.84465" style="fill-opacity: 0.1"/>
     <use xlink:href="#mb2c075c8b7" x="55.008679" y="124.594454" style="fill-opacity: 0.1"/>
     <use xlink:href="#mb2c075c8b7" x="68.425506" y="151.923032" style="fill-opacity: 0.1"/>
     <use xlink:href="#mb2c075c8b7" x="68.511137" y="126.595683" style="fill-opacity: 0.1"/>
     <use xlink:href="#mb2c075c8b7" x="58.330188" y="146.564909" style="fill-opacity: 0.1"/>
     <use xlink:href="#mb2c075c8b7" x="56.528357" y="126.42353" style="fill-opacity: 0.1"/>
     <use xlink:href="#mb2c075c8b7" x="60.653824" y="152.288848" style="fill-opacity: 0.1"/>
     <use xlink:href="#mb2c075c8b7" x="61.721842" y="126.810865" style="fill-opacity: 0.1"/>
     <use xlink:href="#mb2c075c8b7" x="66.289358" y="145.747206" style="fill-opacity: 0.1"/>
     <use xlink:href="#mb2c075c8b7" x="63.378441" y="128.381721" style="fill-opacity: 0.1"/>
     <use xlink:href="#mb2c075c8b7" x="75.539527" y="158.679861" style="fill-opacity: 0.1"/>
     <use xlink:href="#mb2c075c8b7" x="55.933732" y="128.188056" style="fill-opacity: 0.1"/>
     <use xlink:href="#mb2c075c8b7" x="58.296879" y="156.355856" style="fill-opacity: 0.1"/>
     <use xlink:href="#mb2c075c8b7" x="57.244681" y="123.432454" style="fill-opacity: 0.1"/>
     <use xlink:href="#mb2c075c8b7" x="68.12338" y="147.275023" style="fill-opacity: 0.1"/>
     <use xlink:href="#mb2c075c8b7" x="59.279345" y="128.058941" style="fill-opacity: 0.1"/>
     <use xlink:href="#mb2c075c8b7" x="63.991376" y="151.578735" style="fill-opacity: 0.1"/>
     <use xlink:href="#mb2c075c8b7" x="59.083227" y="132.793026" style="fill-opacity: 0.1"/>
     <use xlink:href="#mb2c075c8b7" x="57.192921" y="153.515405" style="fill-opacity: 0.1"/>
     <use xlink:href="#mb2c075c8b7" x="56.118001" y="119.537594" style="fill-opacity: 0.1"/>
     <use xlink:href="#mb2c075c8b7" x="68.194635" y="146.414277" style="fill-opacity: 0.1"/>
     <use xlink:href="#mb2c075c8b7" x="56.733116" y="130.985467" style="fill-opacity: 0.1"/>
     <use xlink:href="#mb2c075c8b7" x="58.024924" y="146.758574" style="fill-opacity: 0.1"/>
     <use xlink:href="#mb2c075c8b7" x="61.832761" y="127.413386" style="fill-opacity: 0.1"/>
     <use xlink:href="#mb2c075c8b7" x="71.837031" y="154.397665" style="fill-opacity: 0.1"/>
     <use xlink:href="#mb2c075c8b7" x="55.82438" y="126.445052" style="fill-opacity: 0.1"/>
     <use xlink:href="#mb2c075c8b7" x="72.212006" y="144.499124" style="fill-opacity: 0.1"/>
     <use xlink:href="#mb2c075c8b7" x="55.802197" y="127.585535" style="fill-opacity: 0.1"/>
     <use xlink:href="#mb2c075c8b7" x="75.275979" y="149.900286" style="fill-opacity: 0.1"/>
     <use xlink:href="#mb2c075c8b7" x="64.043147" y="125.756459" style="fill-opacity: 0.1"/>
     <use xlink:href="#mb2c075c8b7" x="75.282651" y="148.307913" style="fill-opacity: 0.1"/>
     <use xlink:href="#mb2c075c8b7" x="67.055796" y="128.682979" style="fill-opacity: 0.1"/>
     <use xlink:href="#mb2c075c8b7" x="70.029153" y="147.038315" style="fill-opacity: 0.1"/>
     <use xlink:href="#mb2c075c8b7" x="54.543321" y="130.576615" style="fill-opacity: 0.1"/>
     <use xlink:href="#mb2c075c8b7" x="59.932231" y="152.697699" style="fill-opacity: 0.1"/>
     <use xlink:href="#mb2c075c8b7" x="56.335253" y="125.799492" style="fill-opacity: 0.1"/>
     <use xlink:href="#mb2c075c8b7" x="60.227165" y="145.704167" style="fill-opacity: 0.1"/>
     <use xlink:href="#mb2c075c8b7" x="56.302762" y="132.470251" style="fill-opacity: 0.1"/>
     <use xlink:href="#mb2c075c8b7" x="60.710337" y="148.78132" style="fill-opacity: 0.1"/>
     <use xlink:href="#mb2c075c8b7" x="62.840068" y="137.419518" style="fill-opacity: 0.1"/>
     <use xlink:href="#mb2c075c8b7" x="55.095435" y="154.720445" style="fill-opacity: 0.1"/>
     <use xlink:href="#mb2c075c8b7" x="68.994116" y="132.749988" style="fill-opacity: 0.1"/>
     <use xlink:href="#mb2c075c8b7" x="66.209829" y="149.125616" style="fill-opacity: 0.1"/>
     <use xlink:href="#mb2c075c8b7" x="59.546953" y="123.346378" style="fill-opacity: 0.1"/>
     <use xlink:href="#mb2c075c8b7" x="65.250842" y="152.891367" style="fill-opacity: 0.1"/>
     <use xlink:href="#mb2c075c8b7" x="55.754464" y="127.090606" style="fill-opacity: 0.1"/>
     <use xlink:href="#mb2c075c8b7" x="66.416543" y="146.39276" style="fill-opacity: 0.1"/>
     <use xlink:href="#mb2c075c8b7" x="74.232717" y="127.972869" style="fill-opacity: 0.1"/>
     <use xlink:href="#mb2c075c8b7" x="60.723295" y="146.801612" style="fill-opacity: 0.1"/>
     <use xlink:href="#mb2c075c8b7" x="68.439744" y="132.147472" style="fill-opacity: 0.1"/>
     <use xlink:href="#mb2c075c8b7" x="56.591877" y="140.367561" style="fill-opacity: 0.1"/>
     <use xlink:href="#mb2c075c8b7" x="69.521795" y="130.447505" style="fill-opacity: 0.1"/>
     <use xlink:href="#mb2c075c8b7" x="60.078206" y="160.143124" style="fill-opacity: 0.1"/>
     <use xlink:href="#mb2c075c8b7" x="57.728712" y="124.078009" style="fill-opacity: 0.1"/>
     <use xlink:href="#mb2c075c8b7" x="66.650275" y="152.955922" style="fill-opacity: 0.1"/>
     <use xlink:href="#mb2c075c8b7" x="54.121262" y="124.93875" style="fill-opacity: 0.1"/>
     <use xlink:href="#mb2c075c8b7" x="72.012816" y="153.945776" style="fill-opacity: 0.1"/>
     <use xlink:href="#mb2c075c8b7" x="53.780344" y="123.045119" style="fill-opacity: 0.1"/>
    </g>
   </g>
   <g id="PathCollection_2">
    <g clip-path="url(#p902fa97bd7)">
     <use xlink:href="#mb2c075c8b7" x="123.970486" y="165.694912" style="fill-opacity: 0.1"/>
     <use xlink:href="#mb2c075c8b7" x="114.94967" y="145.187722" style="fill-opacity: 0.1"/>
     <use xlink:href="#mb2c075c8b7" x="125.239689" y="166.060728" style="fill-opacity: 0.1"/>
     <use xlink:href="#mb2c075c8b7" x="130.260858" y="145.768722" style="fill-opacity: 0.1"/>
     <use xlink:href="#mb2c075c8b7" x="114.479509" y="165.694912" style="fill-opacity: 0.1"/>
     <use xlink:href="#mb2c075c8b7" x="121.721762" y="147.42565" style="fill-opacity: 0.1"/>
     <use xlink:href="#mb2c075c8b7" x="122.073133" y="170.192291" style="fill-opacity: 0.1"/>
     <use xlink:href="#mb2c075c8b7" x="121.635373" y="146.005425" style="fill-opacity: 0.1"/>
     <use xlink:href="#mb2c075c8b7" x="113.911649" y="167.954361" style="fill-opacity: 0.1"/>
     <use xlink:href="#mb2c075c8b7" x="130.052054" y="145.123162" style="fill-opacity: 0.1"/>
     <use xlink:href="#mb2c075c8b7" x="118.867547" y="162.72535" style="fill-opacity: 0.1"/>
     <use xlink:href="#mb2c075c8b7" x="127.699782" y="147.662353" style="fill-opacity: 0.1"/>
     <use xlink:href="#mb2c075c8b7" x="124.449671" y="169.826478" style="fill-opacity: 0.1"/>
     <use xlink:href="#mb2c075c8b7" x="115.556405" y="145.768722" style="fill-opacity: 0.1"/>
     <use xlink:href="#mb2c075c8b7" x="126.978422" y="170.515071" style="fill-opacity: 0.1"/>
     <use xlink:href="#mb2c075c8b7" x="117.747829" y="144.520646" style="fill-opacity: 0.1"/>
     <use xlink:href="#mb2c075c8b7" x="128.467232" y="166.060728" style="fill-opacity: 0.1"/>
     <use xlink:href="#mb2c075c8b7" x="121.834919" y="144.886459" style="fill-opacity: 0.1"/>
     <use xlink:href="#mb2c075c8b7" x="128.481216" y="170.192291" style="fill-opacity: 0.1"/>
     <use xlink:href="#mb2c075c8b7" x="124.295986" y="145.424426" style="fill-opacity: 0.1"/>
     <use xlink:href="#mb2c075c8b7" x="125.01982" y="166.060728" style="fill-opacity: 0.1"/>
     <use xlink:href="#mb2c075c8b7" x="120.06644" y="145.532019" style="fill-opacity: 0.1"/>
     <use xlink:href="#mb2c075c8b7" x="130.125816" y="168.535364" style="fill-opacity: 0.1"/>
     <use xlink:href="#mb2c075c8b7" x="123.22224" y="146.005425" style="fill-opacity: 0.1"/>
     <use xlink:href="#mb2c075c8b7" x="118.352802" y="165.73795" style="fill-opacity: 0.1"/>
     <use xlink:href="#mb2c075c8b7" x="122.390586" y="146.005425" style="fill-opacity: 0.1"/>
     <use xlink:href="#mb2c075c8b7" x="109.401592" y="170.192291" style="fill-opacity: 0.1"/>
     <use xlink:href="#mb2c075c8b7" x="115.647936" y="145.876316" style="fill-opacity: 0.1"/>
     <use xlink:href="#mb2c075c8b7" x="123.580219" y="166.060728" style="fill-opacity: 0.1"/>
     <use xlink:href="#mb2c075c8b7" x="115.393615" y="147.016799" style="fill-opacity: 0.1"/>
     <use xlink:href="#mb2c075c8b7" x="122.647672" y="165.931618" style="fill-opacity: 0.1"/>
     <use xlink:href="#mb2c075c8b7" x="118.461493" y="146.242129" style="fill-opacity: 0.1"/>
     <use xlink:href="#mb2c075c8b7" x="111.97375" y="165.006319" style="fill-opacity: 0.1"/>
     <use xlink:href="#mb2c075c8b7" x="115.575105" y="145.768722" style="fill-opacity: 0.1"/>
     <use xlink:href="#mb2c075c8b7" x="121.584784" y="169.955588" style="fill-opacity: 0.1"/>
     <use xlink:href="#mb2c075c8b7" x="122.047271" y="147.29654" style="fill-opacity: 0.1"/>
     <use xlink:href="#mb2c075c8b7" x="121.681236" y="170.192291" style="fill-opacity: 0.1"/>
     <use xlink:href="#mb2c075c8b7" x="123.425981" y="146.005425" style="fill-opacity: 0.1"/>
     <use xlink:href="#mb2c075c8b7" x="123.401703" y="169.826478" style="fill-opacity: 0.1"/>
     <use xlink:href="#mb2c075c8b7" x="118.520105" y="145.897832" style="fill-opacity: 0.1"/>
     <use xlink:href="#mb2c075c8b7" x="128.808844" y="168.535364" style="fill-opacity: 0.1"/>
     <use xlink:href="#mb2c075c8b7" x="117.107584" y="146.005425" style="fill-opacity: 0.1"/>
     <use xlink:href="#mb2c075c8b7" x="118.618463" y="166.060728" style="fill-opacity: 0.1"/>
     <use xlink:href="#mb2c075c8b7" x="128.706577" y="145.123162" style="fill-opacity: 0.1"/>
     <use xlink:href="#mb2c075c8b7" x="126.810224" y="170.192291" style="fill-opacity: 0.1"/>
     <use xlink:href="#mb2c075c8b7" x="124.547206" y="145.316832" style="fill-opacity: 0.1"/>
     <use xlink:href="#mb2c075c8b7" x="111.194075" y="168.298658" style="fill-opacity: 0.1"/>
     <use xlink:href="#mb2c075c8b7" x="129.316193" y="145.639612" style="fill-opacity: 0.1"/>
     <use xlink:href="#mb2c075c8b7" x="124.77621" y="170.192291" style="fill-opacity: 0.1"/>
     <use xlink:href="#mb2c075c8b7" x="131.071751" y="147.253502" style="fill-opacity: 0.1"/>
     <use xlink:href="#mb2c075c8b7" x="112.282864" y="165.694912" style="fill-opacity: 0.1"/>
     <use xlink:href="#mb2c075c8b7" x="128.180175" y="146.887689" style="fill-opacity: 0.1"/>
     <use xlink:href="#mb2c075c8b7" x="112.571414" y="170.902406" style="fill-opacity: 0.1"/>
     <use xlink:href="#mb2c075c8b7" x="122.593348" y="145.768722" style="fill-opacity: 0.1"/>
     <use xlink:href="#mb2c075c8b7" x="111.715959" y="171.096071" style="fill-opacity: 0.1"/>
     <use xlink:href="#mb2c075c8b7" x="127.735164" y="146.650985" style="fill-opacity: 0.1"/>
     <use xlink:href="#mb2c075c8b7" x="126.835108" y="167.954361" style="fill-opacity: 0.1"/>
     <use xlink:href="#mb2c075c8b7" x="121.565669" y="147.726913" style="fill-opacity: 0.1"/>
     <use xlink:href="#mb2c075c8b7" x="117.984019" y="166.060728" style="fill-opacity: 0.1"/>
     <use xlink:href="#mb2c075c8b7" x="110.507023" y="145.768722" style="fill-opacity: 0.1"/>
     <use xlink:href="#mb2c075c8b7" x="124.404313" y="170.902406" style="fill-opacity: 0.1"/>
     <use xlink:href="#mb2c075c8b7" x="119.009499" y="145.230756" style="fill-opacity: 0.1"/>
     <use xlink:href="#mb2c075c8b7" x="124.949064" y="166.060728" style="fill-opacity: 0.1"/>
     <use xlink:href="#mb2c075c8b7" x="128.141603" y="148.544616" style="fill-opacity: 0.1"/>
     <use xlink:href="#mb2c075c8b7" x="130.555786" y="166.060728" style="fill-opacity: 0.1"/>
     <use xlink:href="#mb2c075c8b7" x="127.907594" y="144.907981" style="fill-opacity: 0.1"/>
     <use xlink:href="#mb2c075c8b7" x="109.236152" y="166.297433" style="fill-opacity: 0.1"/>
     <use xlink:href="#mb2c075c8b7" x="116.939829" y="145.768722" style="fill-opacity: 0.1"/>
     <use xlink:href="#mb2c075c8b7" x="125.124587" y="164.640503" style="fill-opacity: 0.1"/>
     <use xlink:href="#mb2c075c8b7" x="112.77352" y="145.230756" style="fill-opacity: 0.1"/>
     <use xlink:href="#mb2c075c8b7" x="120.502479" y="170.149255" style="fill-opacity: 0.1"/>
     <use xlink:href="#mb2c075c8b7" x="110.179002" y="145.187722" style="fill-opacity: 0.1"/>
     <use xlink:href="#mb2c075c8b7" x="113.401001" y="167.760694" style="fill-opacity: 0.1"/>
     <use xlink:href="#mb2c075c8b7" x="109.38674" y="146.005425" style="fill-opacity: 0.1"/>
     <use xlink:href="#mb2c075c8b7" x="126.533803" y="165.694912" style="fill-opacity: 0.1"/>
     <use xlink:href="#mb2c075c8b7" x="113.930298" y="147.42565" style="fill-opacity: 0.1"/>
     <use xlink:href="#mb2c075c8b7" x="116.61629" y="170.902406" style="fill-opacity: 0.1"/>
     <use xlink:href="#mb2c075c8b7" x="129.506398" y="145.854794" style="fill-opacity: 0.1"/>
     <use xlink:href="#mb2c075c8b7" x="124.558837" y="166.060728" style="fill-opacity: 0.1"/>
     <use xlink:href="#mb2c075c8b7" x="109.681318" y="146.005425" style="fill-opacity: 0.1"/>
     <use xlink:href="#mb2c075c8b7" x="112.620105" y="170.192291" style="fill-opacity: 0.1"/>
     <use xlink:href="#mb2c075c8b7" x="122.724274" y="145.811761" style="fill-opacity: 0.1"/>
     <use xlink:href="#mb2c075c8b7" x="121.745458" y="168.535364" style="fill-opacity: 0.1"/>
     <use xlink:href="#mb2c075c8b7" x="114.239276" y="149.900286" style="fill-opacity: 0.1"/>
     <use xlink:href="#mb2c075c8b7" x="129.642055" y="168.298658" style="fill-opacity: 0.1"/>
     <use xlink:href="#mb2c075c8b7" x="122.558097" y="145.467464" style="fill-opacity: 0.1"/>
     <use xlink:href="#mb2c075c8b7" x="120.82535" y="170.321404" style="fill-opacity: 0.1"/>
     <use xlink:href="#mb2c075c8b7" x="122.025974" y="145.230756" style="fill-opacity: 0.1"/>
     <use xlink:href="#mb2c075c8b7" x="125.127495" y="170.192291" style="fill-opacity: 0.1"/>
     <use xlink:href="#mb2c075c8b7" x="115.877326" y="146.005425" style="fill-opacity: 0.1"/>
     <use xlink:href="#mb2c075c8b7" x="117.785772" y="166.060728" style="fill-opacity: 0.1"/>
     <use xlink:href="#mb2c075c8b7" x="113.618824" y="148.264875" style="fill-opacity: 0.1"/>
     <use xlink:href="#mb2c075c8b7" x="113.095664" y="166.060728" style="fill-opacity: 0.1"/>
     <use xlink:href="#mb2c075c8b7" x="129.866761" y="147.662353" style="fill-opacity: 0.1"/>
     <use xlink:href="#mb2c075c8b7" x="125.336062" y="170.773294" style="fill-opacity: 0.1"/>
     <use xlink:href="#mb2c075c8b7" x="119.826092" y="146.005425" style="fill-opacity: 0.1"/>
     <use xlink:href="#mb2c075c8b7" x="114.007496" y="170.192291" style="fill-opacity: 0.1"/>
     <use xlink:href="#mb2c075c8b7" x="114.603456" y="150.717992" style="fill-opacity: 0.1"/>
     <use xlink:href="#mb2c075c8b7" x="110.260652" y="170.192291" style="fill-opacity: 0.1"/>
     <use xlink:href="#mb2c075c8b7" x="118.586426" y="144.671273" style="fill-opacity: 0.1"/>
    </g>
   </g>
   <g id="PathCollection_3">
    <g clip-path="url(#p902fa97bd7)">
     <use xlink:href="#mb2c075c8b7" x="171.174583" y="135.052476" style="fill-opacity: 0.1"/>
     <use xlink:href="#mb2c075c8b7" x="179.680862" y="114.868064" style="fill-opacity: 0.1"/>
     <use xlink:href="#mb2c075c8b7" x="172.633544" y="132.706955" style="fill-opacity: 0.1"/>
     <use xlink:href="#mb2c075c8b7" x="168.250462" y="114.868064" style="fill-opacity: 0.1"/>
     <use xlink:href="#mb2c075c8b7" x="164.823488" y="139.141006" style="fill-opacity: 0.1"/>
     <use xlink:href="#mb2c075c8b7" x="165.765166" y="114.868064" style="fill-opacity: 0.1"/>
     <use xlink:href="#mb2c075c8b7" x="179.305908" y="139.141006" style="fill-opacity: 0.1"/>
     <use xlink:href="#mb2c075c8b7" x="174.313464" y="114.868064" style="fill-opacity: 0.1"/>
     <use xlink:href="#mb2c075c8b7" x="176.14684" y="136.773963" style="fill-opacity: 0.1"/>
     <use xlink:href="#mb2c075c8b7" x="184.112157" y="114.868064" style="fill-opacity: 0.1"/>
     <use xlink:href="#mb2c075c8b7" x="186.184107" y="139.141006" style="fill-opacity: 0.1"/>
     <use xlink:href="#mb2c075c8b7" x="169.075399" y="114.868064" style="fill-opacity: 0.1"/>
     <use xlink:href="#mb2c075c8b7" x="178.945026" y="132.706955" style="fill-opacity: 0.1"/>
     <use xlink:href="#mb2c075c8b7" x="170.102339" y="114.868064" style="fill-opacity: 0.1"/>
     <use xlink:href="#mb2c075c8b7" x="164.734394" y="132.706955" style="fill-opacity: 0.1"/>
     <use xlink:href="#mb2c075c8b7" x="181.053093" y="114.868064" style="fill-opacity: 0.1"/>
     <use xlink:href="#mb2c075c8b7" x="171.35644" y="135.052476" style="fill-opacity: 0.1"/>
     <use xlink:href="#mb2c075c8b7" x="172.759896" y="112.823801" style="fill-opacity: 0.1"/>
     <use xlink:href="#mb2c075c8b7" x="177.291294" y="135.052476" style="fill-opacity: 0.1"/>
     <use xlink:href="#mb2c075c8b7" x="182.660566" y="114.868064" style="fill-opacity: 0.1"/>
     <use xlink:href="#mb2c075c8b7" x="178.190807" y="132.706955" style="fill-opacity: 0.1"/>
     <use xlink:href="#mb2c075c8b7" x="183.580815" y="112.823801" style="fill-opacity: 0.1"/>
     <use xlink:href="#mb2c075c8b7" x="170.3284" y="139.141006" style="fill-opacity: 0.1"/>
     <use xlink:href="#mb2c075c8b7" x="181.930562" y="114.868064" style="fill-opacity: 0.1"/>
     <use xlink:href="#mb2c075c8b7" x="168.383897" y="133.115806" style="fill-opacity: 0.1"/>
     <use xlink:href="#mb2c075c8b7" x="185.353552" y="114.868064" style="fill-opacity: 0.1"/>
     <use xlink:href="#mb2c075c8b7" x="179.484982" y="139.141006" style="fill-opacity: 0.1"/>
     <use xlink:href="#mb2c075c8b7" x="169.044667" y="114.868064" style="fill-opacity: 0.1"/>
     <use xlink:href="#mb2c075c8b7" x="185.233637" y="139.141006" style="fill-opacity: 0.1"/>
     <use xlink:href="#mb2c075c8b7" x="180.444282" y="112.823801" style="fill-opacity: 0.1"/>
     <use xlink:href="#mb2c075c8b7" x="169.894835" y="136.773963" style="fill-opacity: 0.1"/>
     <use xlink:href="#mb2c075c8b7" x="168.996097" y="114.868064" style="fill-opacity: 0.1"/>
     <use xlink:href="#mb2c075c8b7" x="175.740304" y="135.052476" style="fill-opacity: 0.1"/>
     <use xlink:href="#mb2c075c8b7" x="164.845254" y="112.823801" style="fill-opacity: 0.1"/>
     <use xlink:href="#mb2c075c8b7" x="168.866873" y="132.706955" style="fill-opacity: 0.1"/>
     <use xlink:href="#mb2c075c8b7" x="173.671726" y="114.868064" style="fill-opacity: 0.1"/>
     <use xlink:href="#mb2c075c8b7" x="172.554312" y="139.141006" style="fill-opacity: 0.1"/>
     <use xlink:href="#mb2c075c8b7" x="174.53198" y="114.868064" style="fill-opacity: 0.1"/>
     <use xlink:href="#mb2c075c8b7" x="170.418798" y="132.706955" style="fill-opacity: 0.1"/>
     <use xlink:href="#mb2c075c8b7" x="177.257389" y="112.823801" style="fill-opacity: 0.1"/>
     <use xlink:href="#mb2c075c8b7" x="183.386267" y="132.706955" style="fill-opacity: 0.1"/>
     <use xlink:href="#mb2c075c8b7" x="166.87742" y="114.868064" style="fill-opacity: 0.1"/>
     <use xlink:href="#mb2c075c8b7" x="175.72213" y="135.052476" style="fill-opacity: 0.1"/>
     <use xlink:href="#mb2c075c8b7" x="167.198965" y="114.868064" style="fill-opacity: 0.1"/>
     <use xlink:href="#mb2c075c8b7" x="180.134684" y="137.419518" style="fill-opacity: 0.1"/>
     <use xlink:href="#mb2c075c8b7" x="173.038518" y="114.868064" style="fill-opacity: 0.1"/>
     <use xlink:href="#mb2c075c8b7" x="176.784834" y="135.052476" style="fill-opacity: 0.1"/>
     <use xlink:href="#mb2c075c8b7" x="168.33178" y="114.868064" style="fill-opacity: 0.1"/>
     <use xlink:href="#mb2c075c8b7" x="167.481654" y="139.141006" style="fill-opacity: 0.1"/>
     <use xlink:href="#mb2c075c8b7" x="175.073502" y="114.868064" style="fill-opacity: 0.1"/>
     <use xlink:href="#mb2c075c8b7" x="172.143822" y="136.773963" style="fill-opacity: 0.1"/>
     <use xlink:href="#mb2c075c8b7" x="185.080153" y="114.868064" style="fill-opacity: 0.1"/>
     <use xlink:href="#mb2c075c8b7" x="181.206754" y="139.141006" style="fill-opacity: 0.1"/>
     <use xlink:href="#mb2c075c8b7" x="180.838195" y="114.868064" style="fill-opacity: 0.1"/>
     <use xlink:href="#mb2c075c8b7" x="184.26807" y="139.141006" style="fill-opacity: 0.1"/>
     <use xlink:href="#mb2c075c8b7" x="166.122912" y="112.823801" style="fill-opacity: 0.1"/>
     <use xlink:href="#mb2c075c8b7" x="176.492209" y="132.706955" style="fill-opacity: 0.1"/>
     <use xlink:href="#mb2c075c8b7" x="177.20633" y="114.868064" style="fill-opacity: 0.1"/>
     <use xlink:href="#mb2c075c8b7" x="185.555835" y="139.141006" style="fill-opacity: 0.1"/>
     <use xlink:href="#mb2c075c8b7" x="170.739957" y="112.823801" style="fill-opacity: 0.1"/>
     <use xlink:href="#mb2c075c8b7" x="169.604775" y="135.073997" style="fill-opacity: 0.1"/>
     <use xlink:href="#mb2c075c8b7" x="166.496113" y="114.868064" style="fill-opacity: 0.1"/>
     <use xlink:href="#mb2c075c8b7" x="164.641016" y="139.141006" style="fill-opacity: 0.1"/>
     <use xlink:href="#mb2c075c8b7" x="184.838984" y="114.868064" style="fill-opacity: 0.1"/>
     <use xlink:href="#mb2c075c8b7" x="179.096292" y="136.773963" style="fill-opacity: 0.1"/>
     <use xlink:href="#mb2c075c8b7" x="181.645346" y="112.823801" style="fill-opacity: 0.1"/>
     <use xlink:href="#mb2c075c8b7" x="170.509522" y="139.141006" style="fill-opacity: 0.1"/>
     <use xlink:href="#mb2c075c8b7" x="177.249112" y="114.868064" style="fill-opacity: 0.1"/>
     <use xlink:href="#mb2c075c8b7" x="165.692294" y="137.419518" style="fill-opacity: 0.1"/>
     <use xlink:href="#mb2c075c8b7" x="175.019779" y="112.823801" style="fill-opacity: 0.1"/>
     <use xlink:href="#mb2c075c8b7" x="185.899999" y="135.052476" style="fill-opacity: 0.1"/>
     <use xlink:href="#mb2c075c8b7" x="183.66608" y="112.823801" style="fill-opacity: 0.1"/>
     <use xlink:href="#mb2c075c8b7" x="171.75774" y="137.419518" style="fill-opacity: 0.1"/>
     <use xlink:href="#mb2c075c8b7" x="185.547734" y="114.868064" style="fill-opacity: 0.1"/>
     <use xlink:href="#mb2c075c8b7" x="169.402881" y="136.773963" style="fill-opacity: 0.1"/>
     <use xlink:href="#mb2c075c8b7" x="185.276732" y="114.868064" style="fill-opacity: 0.1"/>
     <use xlink:href="#mb2c075c8b7" x="185.101073" y="139.141006" style="fill-opacity: 0.1"/>
     <use xlink:href="#mb2c075c8b7" x="181.956128" y="114.868064" style="fill-opacity: 0.1"/>
     <use xlink:href="#mb2c075c8b7" x="178.223237" y="136.773963" style="fill-opacity: 0.1"/>
     <use xlink:href="#mb2c075c8b7" x="183.617033" y="114.868064" style="fill-opacity: 0.1"/>
     <use xlink:href="#mb2c075c8b7" x="170.759263" y="135.052476" style="fill-opacity: 0.1"/>
     <use xlink:href="#mb2c075c8b7" x="183.056409" y="116.69714" style="fill-opacity: 0.1"/>
     <use xlink:href="#mb2c075c8b7" x="177.945159" y="133.115806" style="fill-opacity: 0.1"/>
     <use xlink:href="#mb2c075c8b7" x="164.570391" y="114.868064" style="fill-opacity: 0.1"/>
     <use xlink:href="#mb2c075c8b7" x="171.958472" y="130.77028" style="fill-opacity: 0.1"/>
     <use xlink:href="#mb2c075c8b7" x="167.554498" y="112.823801" style="fill-opacity: 0.1"/>
     <use xlink:href="#mb2c075c8b7" x="185.995873" y="146.952244" style="fill-opacity: 0.1"/>
     <use xlink:href="#mb2c075c8b7" x="174.859247" y="114.868064" style="fill-opacity: 0.1"/>
     <use xlink:href="#mb2c075c8b7" x="175.279997" y="137.11826" style="fill-opacity: 0.1"/>
     <use xlink:href="#mb2c075c8b7" x="178.422863" y="114.868064" style="fill-opacity: 0.1"/>
     <use xlink:href="#mb2c075c8b7" x="172.430762" y="132.706955" style="fill-opacity: 0.1"/>
     <use xlink:href="#mb2c075c8b7" x="167.305854" y="114.868064" style="fill-opacity: 0.1"/>
     <use xlink:href="#mb2c075c8b7" x="182.463016" y="130.684209" style="fill-opacity: 0.1"/>
     <use xlink:href="#mb2c075c8b7" x="168.477067" y="114.868064" style="fill-opacity: 0.1"/>
     <use xlink:href="#mb2c075c8b7" x="175.588079" y="139.141006" style="fill-opacity: 0.1"/>
     <use xlink:href="#mb2c075c8b7" x="169.239532" y="114.868064" style="fill-opacity: 0.1"/>
     <use xlink:href="#mb2c075c8b7" x="166.441931" y="139.141006" style="fill-opacity: 0.1"/>
     <use xlink:href="#mb2c075c8b7" x="183.349457" y="114.868064" style="fill-opacity: 0.1"/>
     <use xlink:href="#mb2c075c8b7" x="185.798784" y="139.141006" style="fill-opacity: 0.1"/>
     <use xlink:href="#mb2c075c8b7" x="185.531465" y="114.868064" style="fill-opacity: 0.1"/>
    </g>
   </g>
   <g id="text_4">
    <!-- *** -->
    <g transform="translate(108.037145 108.126711) scale(0.16 -0.16)">
     <defs>
      <path id="DejaVuSans-2a" d="M 3009 3897 
L 1888 3291 
L 3009 2681 
L 2828 2375 
L 1778 3009 
L 1778 1831 
L 1422 1831 
L 1422 3009 
L 372 2375 
L 191 2681 
L 1313 3291 
L 191 3897 
L 372 4206 
L 1422 3572 
L 1422 4750 
L 1778 4750 
L 1778 3572 
L 2828 4206 
L 3009 3897 
z
" transform="scale(0.015625)"/>
     </defs>
     <use xlink:href="#DejaVuSans-2a"/>
     <use xlink:href="#DejaVuSans-2a" transform="translate(50 0)"/>
     <use xlink:href="#DejaVuSans-2a" transform="translate(100 0)"/>
    </g>
   </g>
   <g id="text_5">
    <!-- *** -->
    <g transform="translate(80.386867 85.859291) scale(0.16 -0.16)">
     <use xlink:href="#DejaVuSans-2a"/>
     <use xlink:href="#DejaVuSans-2a" transform="translate(50 0)"/>
     <use xlink:href="#DejaVuSans-2a" transform="translate(100 0)"/>
    </g>
   </g>
   <g id="text_6">
    <!-- *** -->
    <g transform="translate(135.687423 80.720662) scale(0.16 -0.16)">
     <use xlink:href="#DejaVuSans-2a"/>
     <use xlink:href="#DejaVuSans-2a" transform="translate(50 0)"/>
     <use xlink:href="#DejaVuSans-2a" transform="translate(100 0)"/>
    </g>
   </g>
   <g id="text_7">
    <!-- Semantic -->
    <g transform="translate(73.132457 29.437125) scale(0.2 -0.2)">
     <defs>
      <path id="DejaVuSans-53" d="M 3425 4513 
L 3425 3897 
Q 3066 4069 2747 4153 
Q 2428 4238 2131 4238 
Q 1616 4238 1336 4038 
Q 1056 3838 1056 3469 
Q 1056 3159 1242 3001 
Q 1428 2844 1947 2747 
L 2328 2669 
Q 3034 2534 3370 2195 
Q 3706 1856 3706 1288 
Q 3706 609 3251 259 
Q 2797 -91 1919 -91 
Q 1588 -91 1214 -16 
Q 841 59 441 206 
L 441 856 
Q 825 641 1194 531 
Q 1563 422 1919 422 
Q 2459 422 2753 634 
Q 3047 847 3047 1241 
Q 3047 1584 2836 1778 
Q 2625 1972 2144 2069 
L 1759 2144 
Q 1053 2284 737 2584 
Q 422 2884 422 3419 
Q 422 4038 858 4394 
Q 1294 4750 2059 4750 
Q 2388 4750 2728 4690 
Q 3069 4631 3425 4513 
z
" transform="scale(0.015625)"/>
     </defs>
     <use xlink:href="#DejaVuSans-53"/>
     <use xlink:href="#DejaVuSans-65" transform="translate(63.476562 0)"/>
     <use xlink:href="#DejaVuSans-6d" transform="translate(125 0)"/>
     <use xlink:href="#DejaVuSans-61" transform="translate(222.412109 0)"/>
     <use xlink:href="#DejaVuSans-6e" transform="translate(283.691406 0)"/>
     <use xlink:href="#DejaVuSans-74" transform="translate(347.070312 0)"/>
     <use xlink:href="#DejaVuSans-69" transform="translate(386.279297 0)"/>
     <use xlink:href="#DejaVuSans-63" transform="translate(414.0625 0)"/>
    </g>
    <!-- Out-Of-Distribution -->
    <g transform="translate(25.237145 51.83275) scale(0.2 -0.2)">
     <defs>
      <path id="DejaVuSans-4f" d="M 2522 4238 
Q 1834 4238 1429 3725 
Q 1025 3213 1025 2328 
Q 1025 1447 1429 934 
Q 1834 422 2522 422 
Q 3209 422 3611 934 
Q 4013 1447 4013 2328 
Q 4013 3213 3611 3725 
Q 3209 4238 2522 4238 
z
M 2522 4750 
Q 3503 4750 4090 4092 
Q 4678 3434 4678 2328 
Q 4678 1225 4090 567 
Q 3503 -91 2522 -91 
Q 1538 -91 948 565 
Q 359 1222 359 2328 
Q 359 3434 948 4092 
Q 1538 4750 2522 4750 
z
" transform="scale(0.015625)"/>
      <path id="DejaVuSans-75" d="M 544 1381 
L 544 3500 
L 1119 3500 
L 1119 1403 
Q 1119 906 1312 657 
Q 1506 409 1894 409 
Q 2359 409 2629 706 
Q 2900 1003 2900 1516 
L 2900 3500 
L 3475 3500 
L 3475 0 
L 2900 0 
L 2900 538 
Q 2691 219 2414 64 
Q 2138 -91 1772 -91 
Q 1169 -91 856 284 
Q 544 659 544 1381 
z
M 1991 3584 
L 1991 3584 
z
" transform="scale(0.015625)"/>
      <path id="DejaVuSans-66" d="M 2375 4863 
L 2375 4384 
L 1825 4384 
Q 1516 4384 1395 4259 
Q 1275 4134 1275 3809 
L 1275 3500 
L 2222 3500 
L 2222 3053 
L 1275 3053 
L 1275 0 
L 697 0 
L 697 3053 
L 147 3053 
L 147 3500 
L 697 3500 
L 697 3744 
Q 697 4328 969 4595 
Q 1241 4863 1831 4863 
L 2375 4863 
z
" transform="scale(0.015625)"/>
      <path id="DejaVuSans-44" d="M 1259 4147 
L 1259 519 
L 2022 519 
Q 2988 519 3436 956 
Q 3884 1394 3884 2338 
Q 3884 3275 3436 3711 
Q 2988 4147 2022 4147 
L 1259 4147 
z
M 628 4666 
L 1925 4666 
Q 3281 4666 3915 4102 
Q 4550 3538 4550 2338 
Q 4550 1131 3912 565 
Q 3275 0 1925 0 
L 628 0 
L 628 4666 
z
" transform="scale(0.015625)"/>
     </defs>
     <use xlink:href="#DejaVuSans-4f"/>
     <use xlink:href="#DejaVuSans-75" transform="translate(78.710938 0)"/>
     <use xlink:href="#DejaVuSans-74" transform="translate(142.089844 0)"/>
     <use xlink:href="#DejaVuSans-2d" transform="translate(181.298828 0)"/>
     <use xlink:href="#DejaVuSans-4f" transform="translate(220.132812 0)"/>
     <use xlink:href="#DejaVuSans-66" transform="translate(298.84375 0)"/>
     <use xlink:href="#DejaVuSans-2d" transform="translate(328.548828 0)"/>
     <use xlink:href="#DejaVuSans-44" transform="translate(364.632812 0)"/>
     <use xlink:href="#DejaVuSans-69" transform="translate(441.634766 0)"/>
     <use xlink:href="#DejaVuSans-73" transform="translate(469.417969 0)"/>
     <use xlink:href="#DejaVuSans-74" transform="translate(521.517578 0)"/>
     <use xlink:href="#DejaVuSans-72" transform="translate(560.726562 0)"/>
     <use xlink:href="#DejaVuSans-69" transform="translate(601.839844 0)"/>
     <use xlink:href="#DejaVuSans-62" transform="translate(629.623047 0)"/>
     <use xlink:href="#DejaVuSans-75" transform="translate(693.099609 0)"/>
     <use xlink:href="#DejaVuSans-74" transform="translate(756.478516 0)"/>
     <use xlink:href="#DejaVuSans-69" transform="translate(795.6875 0)"/>
     <use xlink:href="#DejaVuSans-6f" transform="translate(823.470703 0)"/>
     <use xlink:href="#DejaVuSans-6e" transform="translate(884.652344 0)"/>
    </g>
    <!--  -->
    <g transform="translate(120.037145 74.228375) scale(0.2 -0.2)"/>
    <!--  -->
    <g transform="translate(120.037145 96.624) scale(0.2 -0.2)"/>
   </g>
   <g id="LineCollection_1">
    <path d="M 64.73659 139.771098 
L 64.73659 137.362248 
" clip-path="url(#p902fa97bd7)" style="fill: none; stroke: #000000; stroke-width: 2"/>
    <path d="M 120.037145 158.253518 
L 120.037145 156.030772 
" clip-path="url(#p902fa97bd7)" style="fill: none; stroke: #000000; stroke-width: 2"/>
    <path d="M 175.3377 126.552354 
L 175.3377 124.300792 
" clip-path="url(#p902fa97bd7)" style="fill: none; stroke: #000000; stroke-width: 2"/>
   </g>
   <g id="line2d_7">
    <defs>
     <path id="m83c4deb599" d="M 5 0 
L -5 -0 
" style="stroke: #000000"/>
    </defs>
    <g clip-path="url(#p902fa97bd7)">
     <use xlink:href="#m83c4deb599" x="64.73659" y="139.771098" style="stroke: #000000"/>
     <use xlink:href="#m83c4deb599" x="120.037145" y="158.253518" style="stroke: #000000"/>
     <use xlink:href="#m83c4deb599" x="175.3377" y="126.552354" style="stroke: #000000"/>
    </g>
   </g>
   <g id="line2d_8">
    <g clip-path="url(#p902fa97bd7)">
     <use xlink:href="#m83c4deb599" x="64.73659" y="137.362248" style="stroke: #000000"/>
     <use xlink:href="#m83c4deb599" x="120.037145" y="156.030772" style="stroke: #000000"/>
     <use xlink:href="#m83c4deb599" x="175.3377" y="124.300792" style="stroke: #000000"/>
    </g>
   </g>
   <g id="line2d_9">
    <defs>
     <path id="m757f7de310" d="M 0 3 
C 0.795609 3 1.55874 2.683901 2.12132 2.12132 
C 2.683901 1.55874 3 0.795609 3 0 
C 3 -0.795609 2.683901 -1.55874 2.12132 -2.12132 
C 1.55874 -2.683901 0.795609 -3 0 -3 
C -0.795609 -3 -1.55874 -2.683901 -2.12132 -2.12132 
C -2.683901 -1.55874 -3 -0.795609 -3 0 
C -3 0.795609 -2.683901 1.55874 -2.12132 2.12132 
C -1.55874 2.683901 -0.795609 3 0 3 
z
" style="stroke: #000000"/>
    </defs>
    <g clip-path="url(#p902fa97bd7)">
     <use xlink:href="#m757f7de310" x="64.73659" y="138.566673" style="stroke: #000000"/>
     <use xlink:href="#m757f7de310" x="120.037145" y="157.142145" style="stroke: #000000"/>
     <use xlink:href="#m757f7de310" x="175.3377" y="125.426573" style="stroke: #000000"/>
    </g>
   </g>
  </g>
 </g>
 <defs>
  <clipPath id="p902fa97bd7">
   <rect x="34.87429" y="102.624" width="170.32571" height="89.926081"/>
  </clipPath>
 </defs>
</svg>
