<?xml version="1.0" encoding="utf-8" standalone="no"?>
<!DOCTYPE svg PUBLIC "-//W3C//DTD SVG 1.1//EN"
  "http://www.w3.org/Graphics/SVG/1.1/DTD/svg11.dtd">
<svg xmlns:xlink="http://www.w3.org/1999/xlink" width="216pt" height="288pt" viewBox="0 0 216 288" xmlns="http://www.w3.org/2000/svg" version="1.1">
 <metadata>
  <rdf:RDF xmlns:dc="http://purl.org/dc/elements/1.1/" xmlns:cc="http://creativecommons.org/ns#" xmlns:rdf="http://www.w3.org/1999/02/22-rdf-syntax-ns#">
   <cc:Work>
    <dc:type rdf:resource="http://purl.org/dc/dcmitype/StillImage"/>
    <dc:date>2025-08-25T17:11:52.832120</dc:date>
    <dc:format>image/svg+xml</dc:format>
    <dc:creator>
     <cc:Agent>
      <dc:title>Matplotlib v3.10.1, https://matplotlib.org/</dc:title>
     </cc:Agent>
    </dc:creator>
   </cc:Work>
  </rdf:RDF>
 </metadata>
 <defs>
  <style type="text/css">*{stroke-linejoin: round; stroke-linecap: butt}</style>
 </defs>
 <g id="figure_1">
  <g id="patch_1">
   <path d="M 0 288 
L 216 288 
L 216 0 
L 0 0 
L 0 288 
z
" style="fill: none"/>
  </g>
  <g id="axes_1">
   <g id="patch_2">
    <path d="M 34.87429 192.550081 
L 205.2 192.550081 
L 205.2 102.624 
L 34.87429 102.624 
L 34.87429 192.550081 
z
" style="fill: none"/>
   </g>
   <g id="FillBetweenPolyCollection_1">
    <defs>
     <path id="mf3bb5428f6" d="M 65.297291 -129.75051 
L 64.175889 -129.75051 
L 64.15282 -130.096981 
L 64.139077 -130.443451 
L 64.134349 -130.789922 
L 64.137436 -131.136392 
L 64.146284 -131.482863 
L 64.158102 -131.829334 
L 64.169572 -132.175804 
L 64.177115 -132.522275 
L 64.177202 -132.868745 
L 64.166668 -133.215216 
L 64.142994 -133.561687 
L 64.104528 -133.908157 
L 64.050602 -134.254628 
L 63.981539 -134.601099 
L 63.898531 -134.947569 
L 63.8034 -135.29404 
L 63.698284 -135.64051 
L 63.585267 -135.986981 
L 63.466033 -136.333452 
L 63.341579 -136.679922 
L 63.212051 -137.026393 
L 63.076718 -137.372864 
L 62.934109 -137.719334 
L 62.782263 -138.065805 
L 62.619071 -138.412275 
L 62.442618 -138.758746 
L 62.25147 -139.105217 
L 62.044851 -139.451687 
L 61.822646 -139.798158 
L 61.585263 -140.144628 
L 61.333353 -140.491099 
L 61.067475 -140.83757 
L 60.787771 -141.18404 
L 60.493726 -141.530511 
L 60.184104 -141.876982 
L 59.85706 -142.223452 
L 59.510447 -142.569923 
L 59.142254 -142.916393 
L 58.751107 -143.262864 
L 58.336717 -143.609335 
L 57.900207 -143.955805 
L 57.444214 -144.302276 
L 56.972758 -144.648746 
L 56.490885 -144.995217 
L 56.004147 -145.341688 
L 55.518026 -145.688158 
L 55.037405 -146.034629 
L 54.566193 -146.3811 
L 54.107165 -146.72757 
L 53.662043 -147.074041 
L 53.23176 -147.420511 
L 52.816845 -147.766982 
L 52.417801 -148.113453 
L 52.035384 -148.459923 
L 51.670702 -148.806394 
L 51.325097 -149.152864 
L 50.99984 -149.499335 
L 50.695694 -149.845806 
L 50.412445 -150.192276 
L 50.14849 -150.538747 
L 49.900563 -150.885218 
L 49.663652 -151.231688 
L 49.43112 -151.578159 
L 49.195016 -151.924629 
L 48.946552 -152.2711 
L 48.676704 -152.617571 
L 48.376918 -152.964041 
L 48.039873 -153.310512 
L 47.660291 -153.656982 
L 47.235734 -154.003453 
L 46.76734 -154.349924 
L 46.260393 -154.696394 
L 45.72464 -155.042865 
L 45.174241 -155.389336 
L 44.627274 -155.735806 
L 44.104791 -156.082277 
L 43.629448 -156.428747 
L 43.223865 -156.775218 
L 42.908899 -157.121689 
L 42.702069 -157.468159 
L 42.616367 -157.81463 
L 42.659618 -158.1611 
L 42.83448 -158.507571 
L 43.139043 -158.854042 
L 43.567886 -159.200512 
L 44.113355 -159.546983 
L 44.76681 -159.893454 
L 45.519587 -160.239924 
L 46.363515 -160.586395 
L 47.290916 -160.932865 
L 48.294145 -161.279336 
L 49.364828 -161.625807 
L 50.493004 -161.972277 
L 51.666417 -162.318748 
L 52.870144 -162.665218 
L 54.086679 -163.011689 
L 55.296515 -163.35816 
L 56.479135 -163.70463 
L 57.614285 -164.051101 
L 71.858894 -164.051101 
L 71.858894 -164.051101 
L 72.994044 -163.70463 
L 74.176665 -163.35816 
L 75.3865 -163.011689 
L 76.603035 -162.665218 
L 77.806762 -162.318748 
L 78.980175 -161.972277 
L 80.108351 -161.625807 
L 81.179034 -161.279336 
L 82.182263 -160.932865 
L 83.109664 -160.586395 
L 83.953592 -160.239924 
L 84.706369 -159.893454 
L 85.359824 -159.546983 
L 85.905293 -159.200512 
L 86.334136 -158.854042 
L 86.638699 -158.507571 
L 86.813561 -158.1611 
L 86.856812 -157.81463 
L 86.77111 -157.468159 
L 86.56428 -157.121689 
L 86.249314 -156.775218 
L 85.843732 -156.428747 
L 85.368389 -156.082277 
L 84.845905 -155.735806 
L 84.298939 -155.389336 
L 83.748539 -155.042865 
L 83.212786 -154.696394 
L 82.705839 -154.349924 
L 82.237445 -154.003453 
L 81.812888 -153.656982 
L 81.433306 -153.310512 
L 81.096261 -152.964041 
L 80.796475 -152.617571 
L 80.526628 -152.2711 
L 80.278163 -151.924629 
L 80.042059 -151.578159 
L 79.809527 -151.231688 
L 79.572616 -150.885218 
L 79.324689 -150.538747 
L 79.060734 -150.192276 
L 78.777486 -149.845806 
L 78.47334 -149.499335 
L 78.148082 -149.152864 
L 77.802477 -148.806394 
L 77.437795 -148.459923 
L 77.055378 -148.113453 
L 76.656334 -147.766982 
L 76.241419 -147.420511 
L 75.811136 -147.074041 
L 75.366014 -146.72757 
L 74.906986 -146.3811 
L 74.435774 -146.034629 
L 73.955153 -145.688158 
L 73.469032 -145.341688 
L 72.982294 -144.995217 
L 72.500421 -144.648746 
L 72.028965 -144.302276 
L 71.572972 -143.955805 
L 71.136462 -143.609335 
L 70.722073 -143.262864 
L 70.330925 -142.916393 
L 69.962732 -142.569923 
L 69.616119 -142.223452 
L 69.289076 -141.876982 
L 68.979453 -141.530511 
L 68.685409 -141.18404 
L 68.405704 -140.83757 
L 68.139827 -140.491099 
L 67.887917 -140.144628 
L 67.650533 -139.798158 
L 67.428328 -139.451687 
L 67.221709 -139.105217 
L 67.030562 -138.758746 
L 66.854108 -138.412275 
L 66.690916 -138.065805 
L 66.53907 -137.719334 
L 66.396461 -137.372864 
L 66.261129 -137.026393 
L 66.1316 -136.679922 
L 66.007146 -136.333452 
L 65.887912 -135.986981 
L 65.774895 -135.64051 
L 65.669779 -135.29404 
L 65.574648 -134.947569 
L 65.49164 -134.601099 
L 65.422577 -134.254628 
L 65.368652 -133.908157 
L 65.330185 -133.561687 
L 65.306511 -133.215216 
L 65.295977 -132.868745 
L 65.296064 -132.522275 
L 65.303607 -132.175804 
L 65.315077 -131.829334 
L 65.326895 -131.482863 
L 65.335743 -131.136392 
L 65.33883 -130.789922 
L 65.334102 -130.443451 
L 65.320359 -130.096981 
L 65.297291 -129.75051 
z
" style="stroke: #323232; stroke-opacity: 0.4; stroke-width: 1.25"/>
    </defs>
    <g clip-path="url(#p7dda7e25e4)">
     <use xlink:href="#mf3bb5428f6" x="0" y="288" style="fill: #dc9238; fill-opacity: 0.4; stroke: #323232; stroke-opacity: 0.4; stroke-width: 1.25"/>
    </g>
   </g>
   <g id="FillBetweenPolyCollection_2">
    <defs>
     <path id="m7d5fd30bc2" d="M 121.125354 -113.525513 
L 118.948935 -113.525513 
L 118.853361 -113.702226 
L 118.76832 -113.878939 
L 118.694016 -114.055653 
L 118.628877 -114.232366 
L 118.569554 -114.409079 
L 118.511145 -114.585792 
L 118.447653 -114.762505 
L 118.372584 -114.939218 
L 118.279596 -115.115931 
L 118.163087 -115.292644 
L 118.018611 -115.469357 
L 117.843045 -115.64607 
L 117.634491 -115.822783 
L 117.391942 -115.999496 
L 117.114809 -116.176209 
L 116.802437 -116.352922 
L 116.45374 -116.529635 
L 116.067072 -116.706348 
L 115.640402 -116.883061 
L 115.171773 -117.059774 
L 114.659991 -117.236487 
L 114.105396 -117.4132 
L 113.510583 -117.589914 
L 112.880891 -117.766627 
L 112.224559 -117.94334 
L 111.552467 -118.120053 
L 110.87746 -118.296766 
L 110.213319 -118.473479 
L 109.573474 -118.650192 
L 108.969613 -118.826905 
L 108.410348 -119.003618 
L 107.900078 -119.180331 
L 107.438205 -119.357044 
L 107.01881 -119.533757 
L 106.630877 -119.71047 
L 106.259078 -119.887183 
L 105.885135 -120.063896 
L 105.489638 -120.240609 
L 105.054209 -120.417322 
L 104.563786 -120.594035 
L 104.008777 -120.770748 
L 103.386832 -120.947461 
L 102.703971 -121.124175 
L 101.974885 -121.300888 
L 101.222305 -121.477601 
L 100.475475 -121.654314 
L 99.76783 -121.831027 
L 99.134165 -122.00774 
L 98.607565 -122.184453 
L 98.216466 -122.361166 
L 97.982148 -122.537879 
L 97.916923 -122.714592 
L 98.023182 -122.891305 
L 98.293361 -123.068018 
L 98.710783 -123.244731 
L 99.251256 -123.421444 
L 99.885239 -123.598157 
L 100.580368 -123.77487 
L 101.304109 -123.951583 
L 102.026309 -124.128296 
L 102.721456 -124.305009 
L 103.370449 -124.481723 
L 103.961752 -124.658436 
L 104.491834 -124.835149 
L 104.964846 -125.011862 
L 105.391588 -125.188575 
L 105.78785 -125.365288 
L 106.172328 -125.542001 
L 106.564318 -125.718714 
L 106.981464 -125.895427 
L 107.437812 -126.07214 
L 107.942373 -126.248853 
L 108.498358 -126.425566 
L 109.103119 -126.602279 
L 109.748772 -126.778992 
L 110.423364 -126.955705 
L 111.112398 -127.132418 
L 111.800493 -127.309131 
L 112.472962 -127.485844 
L 113.117125 -127.662557 
L 113.723225 -127.83927 
L 114.284897 -128.015984 
L 114.799181 -128.192697 
L 115.266165 -128.36941 
L 115.68834 -128.546123 
L 116.069819 -128.722836 
L 116.415524 -128.899549 
L 116.730472 -129.076262 
L 117.019231 -129.252975 
L 117.285589 -129.429688 
L 117.532448 -129.606401 
L 117.761892 -129.783114 
L 117.975386 -129.959827 
L 118.17402 -130.13654 
L 118.358738 -130.313253 
L 118.530491 -130.489966 
L 118.690301 -130.666679 
L 118.839224 -130.843392 
L 118.978259 -131.020105 
L 121.09603 -131.020105 
L 121.09603 -131.020105 
L 121.235066 -130.843392 
L 121.383989 -130.666679 
L 121.543798 -130.489966 
L 121.715552 -130.313253 
L 121.90027 -130.13654 
L 122.098904 -129.959827 
L 122.312398 -129.783114 
L 122.541842 -129.606401 
L 122.7887 -129.429688 
L 123.055059 -129.252975 
L 123.343817 -129.076262 
L 123.658766 -128.899549 
L 124.004471 -128.722836 
L 124.38595 -128.546123 
L 124.808125 -128.36941 
L 125.275109 -128.192697 
L 125.789393 -128.015984 
L 126.351065 -127.83927 
L 126.957165 -127.662557 
L 127.601328 -127.485844 
L 128.273797 -127.309131 
L 128.961891 -127.132418 
L 129.650926 -126.955705 
L 130.325518 -126.778992 
L 130.971171 -126.602279 
L 131.575932 -126.425566 
L 132.131916 -126.248853 
L 132.636478 -126.07214 
L 133.092825 -125.895427 
L 133.509972 -125.718714 
L 133.901962 -125.542001 
L 134.28644 -125.365288 
L 134.682702 -125.188575 
L 135.109443 -125.011862 
L 135.582456 -124.835149 
L 136.112538 -124.658436 
L 136.703841 -124.481723 
L 137.352834 -124.305009 
L 138.04798 -124.128296 
L 138.770181 -123.951583 
L 139.493922 -123.77487 
L 140.189051 -123.598157 
L 140.823034 -123.421444 
L 141.363506 -123.244731 
L 141.780929 -123.068018 
L 142.051108 -122.891305 
L 142.157367 -122.714592 
L 142.092142 -122.537879 
L 141.857823 -122.361166 
L 141.466725 -122.184453 
L 140.940125 -122.00774 
L 140.30646 -121.831027 
L 139.598815 -121.654314 
L 138.851984 -121.477601 
L 138.099405 -121.300888 
L 137.370318 -121.124175 
L 136.687458 -120.947461 
L 136.065513 -120.770748 
L 135.510504 -120.594035 
L 135.02008 -120.417322 
L 134.584652 -120.240609 
L 134.189155 -120.063896 
L 133.815212 -119.887183 
L 133.443413 -119.71047 
L 133.055479 -119.533757 
L 132.636085 -119.357044 
L 132.174212 -119.180331 
L 131.663941 -119.003618 
L 131.104677 -118.826905 
L 130.500816 -118.650192 
L 129.860971 -118.473479 
L 129.19683 -118.296766 
L 128.521823 -118.120053 
L 127.84973 -117.94334 
L 127.193398 -117.766627 
L 126.563706 -117.589914 
L 125.968893 -117.4132 
L 125.414299 -117.236487 
L 124.902516 -117.059774 
L 124.433888 -116.883061 
L 124.007218 -116.706348 
L 123.62055 -116.529635 
L 123.271853 -116.352922 
L 122.959481 -116.176209 
L 122.682348 -115.999496 
L 122.439799 -115.822783 
L 122.231245 -115.64607 
L 122.055679 -115.469357 
L 121.911203 -115.292644 
L 121.794693 -115.115931 
L 121.701705 -114.939218 
L 121.626636 -114.762505 
L 121.563145 -114.585792 
L 121.504736 -114.409079 
L 121.445412 -114.232366 
L 121.380274 -114.055653 
L 121.30597 -113.878939 
L 121.220929 -113.702226 
L 121.125354 -113.525513 
z
" style="stroke: #323232; stroke-opacity: 0.4; stroke-width: 1.25"/>
    </defs>
    <g clip-path="url(#p7dda7e25e4)">
     <use xlink:href="#m7d5fd30bc2" x="0" y="288" style="fill: #159152; fill-opacity: 0.4; stroke: #323232; stroke-opacity: 0.4; stroke-width: 1.25"/>
    </g>
   </g>
   <g id="FillBetweenPolyCollection_3">
    <defs>
     <path id="m40e420ee0d" d="M 175.595532 -140.079422 
L 175.079868 -140.079422 
L 175.084141 -140.42524 
L 175.09745 -140.771059 
L 175.11742 -141.116877 
L 175.14059 -141.462696 
L 175.162834 -141.808514 
L 175.179835 -142.154333 
L 175.187538 -142.500152 
L 175.182546 -142.84597 
L 175.162462 -143.191789 
L 175.126193 -143.537607 
L 175.0742 -143.883426 
L 175.008668 -144.229244 
L 174.933514 -144.575063 
L 174.854134 -144.920881 
L 174.776861 -145.2667 
L 174.708129 -145.612518 
L 174.653464 -145.958337 
L 174.61647 -146.304156 
L 174.598019 -146.649974 
L 174.595837 -146.995793 
L 174.604603 -147.341611 
L 174.616591 -147.68743 
L 174.62277 -148.033248 
L 174.614169 -148.379067 
L 174.583254 -148.724885 
L 174.525007 -149.070704 
L 174.437413 -149.416522 
L 174.321211 -149.762341 
L 174.178902 -150.10816 
L 174.013301 -150.453978 
L 173.826084 -150.799797 
L 173.616893 -151.145615 
L 173.383434 -151.491434 
L 173.12266 -151.837252 
L 172.832756 -152.183071 
L 172.515199 -152.528889 
L 172.176061 -152.874708 
L 171.825894 -153.220526 
L 171.477986 -153.566345 
L 171.145423 -153.912164 
L 170.837858 -154.257982 
L 170.559046 -154.603801 
L 170.305928 -154.949619 
L 170.069428 -155.295438 
L 169.836444 -155.641256 
L 169.59205 -155.987075 
L 169.32089 -156.332893 
L 169.007262 -156.678712 
L 168.634126 -157.02453 
L 168.182015 -157.370349 
L 167.629168 -157.716168 
L 166.953877 -158.061986 
L 166.139186 -158.407805 
L 165.178854 -158.753623 
L 164.082617 -159.099442 
L 162.878445 -159.44526 
L 161.610233 -159.791079 
L 160.330859 -160.136897 
L 159.092338 -160.482716 
L 157.936211 -160.828534 
L 156.887603 -161.174353 
L 155.955345 -161.520172 
L 155.138394 -161.86599 
L 154.436377 -162.211809 
L 153.860251 -162.557627 
L 153.43874 -162.903446 
L 153.217478 -163.249264 
L 153.250302 -163.595083 
L 153.584973 -163.940901 
L 154.247672 -164.28672 
L 155.231224 -164.632538 
L 156.490921 -164.978357 
L 157.949529 -165.324176 
L 159.510248 -165.669994 
L 161.074139 -166.015813 
L 162.557328 -166.361631 
L 163.903611 -166.70745 
L 165.089589 -167.053268 
L 166.121744 -167.399087 
L 167.027153 -167.744905 
L 167.841084 -168.090724 
L 168.595267 -168.436542 
L 169.30989 -168.782361 
L 169.990865 -169.12818 
L 170.63213 -169.473998 
L 171.221253 -169.819817 
L 171.74595 -170.165635 
L 172.199284 -170.511454 
L 172.582168 -170.857272 
L 172.902939 -171.203091 
L 173.174723 -171.548909 
L 173.411871 -171.894728 
L 173.62675 -172.240546 
L 173.827764 -172.586365 
L 174.01889 -172.932184 
L 174.200476 -173.278002 
L 174.370711 -173.623821 
L 174.527154 -173.969639 
L 174.667858 -174.315458 
L 176.007543 -174.315458 
L 176.007543 -174.315458 
L 176.148247 -173.969639 
L 176.30469 -173.623821 
L 176.474925 -173.278002 
L 176.65651 -172.932184 
L 176.847637 -172.586365 
L 177.048651 -172.240546 
L 177.263529 -171.894728 
L 177.500678 -171.548909 
L 177.772462 -171.203091 
L 178.093233 -170.857272 
L 178.476117 -170.511454 
L 178.92945 -170.165635 
L 179.454147 -169.819817 
L 180.04327 -169.473998 
L 180.684535 -169.12818 
L 181.365511 -168.782361 
L 182.080133 -168.436542 
L 182.834317 -168.090724 
L 183.648247 -167.744905 
L 184.553656 -167.399087 
L 185.585812 -167.053268 
L 186.771789 -166.70745 
L 188.118072 -166.361631 
L 189.601261 -166.015813 
L 191.165152 -165.669994 
L 192.725871 -165.324176 
L 194.184479 -164.978357 
L 195.444177 -164.632538 
L 196.427728 -164.28672 
L 197.090428 -163.940901 
L 197.425099 -163.595083 
L 197.457922 -163.249264 
L 197.23666 -162.903446 
L 196.81515 -162.557627 
L 196.239023 -162.211809 
L 195.537006 -161.86599 
L 194.720056 -161.520172 
L 193.787798 -161.174353 
L 192.73919 -160.828534 
L 191.583062 -160.482716 
L 190.344541 -160.136897 
L 189.065167 -159.791079 
L 187.796956 -159.44526 
L 186.592783 -159.099442 
L 185.496546 -158.753623 
L 184.536215 -158.407805 
L 183.721523 -158.061986 
L 183.046233 -157.716168 
L 182.493385 -157.370349 
L 182.041274 -157.02453 
L 181.668138 -156.678712 
L 181.354511 -156.332893 
L 181.083351 -155.987075 
L 180.838956 -155.641256 
L 180.605973 -155.295438 
L 180.369472 -154.949619 
L 180.116354 -154.603801 
L 179.837542 -154.257982 
L 179.529978 -153.912164 
L 179.197415 -153.566345 
L 178.849507 -153.220526 
L 178.49934 -152.874708 
L 178.160202 -152.528889 
L 177.842644 -152.183071 
L 177.55274 -151.837252 
L 177.291967 -151.491434 
L 177.058507 -151.145615 
L 176.849317 -150.799797 
L 176.662099 -150.453978 
L 176.496498 -150.10816 
L 176.35419 -149.762341 
L 176.237987 -149.416522 
L 176.150394 -149.070704 
L 176.092146 -148.724885 
L 176.061231 -148.379067 
L 176.05263 -148.033248 
L 176.058809 -147.68743 
L 176.070798 -147.341611 
L 176.079564 -146.995793 
L 176.077382 -146.649974 
L 176.058931 -146.304156 
L 176.021937 -145.958337 
L 175.967272 -145.612518 
L 175.898539 -145.2667 
L 175.821266 -144.920881 
L 175.741886 -144.575063 
L 175.666732 -144.229244 
L 175.601201 -143.883426 
L 175.549207 -143.537607 
L 175.512938 -143.191789 
L 175.492855 -142.84597 
L 175.487862 -142.500152 
L 175.495565 -142.154333 
L 175.512566 -141.808514 
L 175.53481 -141.462696 
L 175.55798 -141.116877 
L 175.57795 -140.771059 
L 175.59126 -140.42524 
L 175.595532 -140.079422 
z
" style="stroke: #323232; stroke-opacity: 0.4; stroke-width: 1.25"/>
    </defs>
    <g clip-path="url(#p7dda7e25e4)">
     <use xlink:href="#m40e420ee0d" x="0" y="288" style="fill: #c0c0c0; fill-opacity: 0.4; stroke: #323232; stroke-opacity: 0.4; stroke-width: 1.25"/>
    </g>
   </g>
   <g id="matplotlib.axis_1">
    <g id="xtick_1">
     <g id="line2d_1">
      <defs>
       <path id="me5ebed1a03" d="M 0 0 
L 0 3.5 
" style="stroke: #000000; stroke-width: 0.8"/>
      </defs>
      <g>
       <use xlink:href="#me5ebed1a03" x="64.73659" y="192.550081" style="stroke: #000000; stroke-width: 0.8"/>
      </g>
     </g>
     <g id="text_1">
      <!-- MTL-sensory -->
      <g transform="translate(18.273489 267.913467) rotate(-30) scale(0.18 -0.18)">
       <defs>
        <path id="DejaVuSans-4d" d="M 628 4666 
L 1569 4666 
L 2759 1491 
L 3956 4666 
L 4897 4666 
L 4897 0 
L 4281 0 
L 4281 4097 
L 3078 897 
L 2444 897 
L 1241 4097 
L 1241 0 
L 628 0 
L 628 4666 
z
" transform="scale(0.015625)"/>
        <path id="DejaVuSans-54" d="M -19 4666 
L 3928 4666 
L 3928 4134 
L 2272 4134 
L 2272 0 
L 1638 0 
L 1638 4134 
L -19 4134 
L -19 4666 
z
" transform="scale(0.015625)"/>
        <path id="DejaVuSans-4c" d="M 628 4666 
L 1259 4666 
L 1259 531 
L 3531 531 
L 3531 0 
L 628 0 
L 628 4666 
z
" transform="scale(0.015625)"/>
        <path id="DejaVuSans-2d" d="M 313 2009 
L 1997 2009 
L 1997 1497 
L 313 1497 
L 313 2009 
z
" transform="scale(0.015625)"/>
        <path id="DejaVuSans-73" d="M 2834 3397 
L 2834 2853 
Q 2591 2978 2328 3040 
Q 2066 3103 1784 3103 
Q 1356 3103 1142 2972 
Q 928 2841 928 2578 
Q 928 2378 1081 2264 
Q 1234 2150 1697 2047 
L 1894 2003 
Q 2506 1872 2764 1633 
Q 3022 1394 3022 966 
Q 3022 478 2636 193 
Q 2250 -91 1575 -91 
Q 1294 -91 989 -36 
Q 684 19 347 128 
L 347 722 
Q 666 556 975 473 
Q 1284 391 1588 391 
Q 1994 391 2212 530 
Q 2431 669 2431 922 
Q 2431 1156 2273 1281 
Q 2116 1406 1581 1522 
L 1381 1569 
Q 847 1681 609 1914 
Q 372 2147 372 2553 
Q 372 3047 722 3315 
Q 1072 3584 1716 3584 
Q 2034 3584 2315 3537 
Q 2597 3491 2834 3397 
z
" transform="scale(0.015625)"/>
        <path id="DejaVuSans-65" d="M 3597 1894 
L 3597 1613 
L 953 1613 
Q 991 1019 1311 708 
Q 1631 397 2203 397 
Q 2534 397 2845 478 
Q 3156 559 3463 722 
L 3463 178 
Q 3153 47 2828 -22 
Q 2503 -91 2169 -91 
Q 1331 -91 842 396 
Q 353 884 353 1716 
Q 353 2575 817 3079 
Q 1281 3584 2069 3584 
Q 2775 3584 3186 3129 
Q 3597 2675 3597 1894 
z
M 3022 2063 
Q 3016 2534 2758 2815 
Q 2500 3097 2075 3097 
Q 1594 3097 1305 2825 
Q 1016 2553 972 2059 
L 3022 2063 
z
" transform="scale(0.015625)"/>
        <path id="DejaVuSans-6e" d="M 3513 2113 
L 3513 0 
L 2938 0 
L 2938 2094 
Q 2938 2591 2744 2837 
Q 2550 3084 2163 3084 
Q 1697 3084 1428 2787 
Q 1159 2491 1159 1978 
L 1159 0 
L 581 0 
L 581 3500 
L 1159 3500 
L 1159 2956 
Q 1366 3272 1645 3428 
Q 1925 3584 2291 3584 
Q 2894 3584 3203 3211 
Q 3513 2838 3513 2113 
z
" transform="scale(0.015625)"/>
        <path id="DejaVuSans-6f" d="M 1959 3097 
Q 1497 3097 1228 2736 
Q 959 2375 959 1747 
Q 959 1119 1226 758 
Q 1494 397 1959 397 
Q 2419 397 2687 759 
Q 2956 1122 2956 1747 
Q 2956 2369 2687 2733 
Q 2419 3097 1959 3097 
z
M 1959 3584 
Q 2709 3584 3137 3096 
Q 3566 2609 3566 1747 
Q 3566 888 3137 398 
Q 2709 -91 1959 -91 
Q 1206 -91 779 398 
Q 353 888 353 1747 
Q 353 2609 779 3096 
Q 1206 3584 1959 3584 
z
" transform="scale(0.015625)"/>
        <path id="DejaVuSans-72" d="M 2631 2963 
Q 2534 3019 2420 3045 
Q 2306 3072 2169 3072 
Q 1681 3072 1420 2755 
Q 1159 2438 1159 1844 
L 1159 0 
L 581 0 
L 581 3500 
L 1159 3500 
L 1159 2956 
Q 1341 3275 1631 3429 
Q 1922 3584 2338 3584 
Q 2397 3584 2469 3576 
Q 2541 3569 2628 3553 
L 2631 2963 
z
" transform="scale(0.015625)"/>
        <path id="DejaVuSans-79" d="M 2059 -325 
Q 1816 -950 1584 -1140 
Q 1353 -1331 966 -1331 
L 506 -1331 
L 506 -850 
L 844 -850 
Q 1081 -850 1212 -737 
Q 1344 -625 1503 -206 
L 1606 56 
L 191 3500 
L 800 3500 
L 1894 763 
L 2988 3500 
L 3597 3500 
L 2059 -325 
z
" transform="scale(0.015625)"/>
       </defs>
       <use xlink:href="#DejaVuSans-4d"/>
       <use xlink:href="#DejaVuSans-54" transform="translate(86.279297 0)"/>
       <use xlink:href="#DejaVuSans-4c" transform="translate(147.363281 0)"/>
       <use xlink:href="#DejaVuSans-2d" transform="translate(201.326172 0)"/>
       <use xlink:href="#DejaVuSans-73" transform="translate(237.410156 0)"/>
       <use xlink:href="#DejaVuSans-65" transform="translate(289.509766 0)"/>
       <use xlink:href="#DejaVuSans-6e" transform="translate(351.033203 0)"/>
       <use xlink:href="#DejaVuSans-73" transform="translate(414.412109 0)"/>
       <use xlink:href="#DejaVuSans-6f" transform="translate(466.511719 0)"/>
       <use xlink:href="#DejaVuSans-72" transform="translate(527.693359 0)"/>
       <use xlink:href="#DejaVuSans-79" transform="translate(568.806641 0)"/>
      </g>
     </g>
    </g>
    <g id="xtick_2">
     <g id="line2d_2">
      <g>
       <use xlink:href="#me5ebed1a03" x="120.037145" y="192.550081" style="stroke: #000000; stroke-width: 0.8"/>
      </g>
     </g>
     <g id="text_2">
      <!-- MTL-semantic -->
      <g transform="translate(68.345822 273.950498) rotate(-30) scale(0.18 -0.18)">
       <defs>
        <path id="DejaVuSans-6d" d="M 3328 2828 
Q 3544 3216 3844 3400 
Q 4144 3584 4550 3584 
Q 5097 3584 5394 3201 
Q 5691 2819 5691 2113 
L 5691 0 
L 5113 0 
L 5113 2094 
Q 5113 2597 4934 2840 
Q 4756 3084 4391 3084 
Q 3944 3084 3684 2787 
Q 3425 2491 3425 1978 
L 3425 0 
L 2847 0 
L 2847 2094 
Q 2847 2600 2669 2842 
Q 2491 3084 2119 3084 
Q 1678 3084 1418 2786 
Q 1159 2488 1159 1978 
L 1159 0 
L 581 0 
L 581 3500 
L 1159 3500 
L 1159 2956 
Q 1356 3278 1631 3431 
Q 1906 3584 2284 3584 
Q 2666 3584 2933 3390 
Q 3200 3197 3328 2828 
z
" transform="scale(0.015625)"/>
        <path id="DejaVuSans-61" d="M 2194 1759 
Q 1497 1759 1228 1600 
Q 959 1441 959 1056 
Q 959 750 1161 570 
Q 1363 391 1709 391 
Q 2188 391 2477 730 
Q 2766 1069 2766 1631 
L 2766 1759 
L 2194 1759 
z
M 3341 1997 
L 3341 0 
L 2766 0 
L 2766 531 
Q 2569 213 2275 61 
Q 1981 -91 1556 -91 
Q 1019 -91 701 211 
Q 384 513 384 1019 
Q 384 1609 779 1909 
Q 1175 2209 1959 2209 
L 2766 2209 
L 2766 2266 
Q 2766 2663 2505 2880 
Q 2244 3097 1772 3097 
Q 1472 3097 1187 3025 
Q 903 2953 641 2809 
L 641 3341 
Q 956 3463 1253 3523 
Q 1550 3584 1831 3584 
Q 2591 3584 2966 3190 
Q 3341 2797 3341 1997 
z
" transform="scale(0.015625)"/>
        <path id="DejaVuSans-74" d="M 1172 4494 
L 1172 3500 
L 2356 3500 
L 2356 3053 
L 1172 3053 
L 1172 1153 
Q 1172 725 1289 603 
Q 1406 481 1766 481 
L 2356 481 
L 2356 0 
L 1766 0 
Q 1100 0 847 248 
Q 594 497 594 1153 
L 594 3053 
L 172 3053 
L 172 3500 
L 594 3500 
L 594 4494 
L 1172 4494 
z
" transform="scale(0.015625)"/>
        <path id="DejaVuSans-69" d="M 603 3500 
L 1178 3500 
L 1178 0 
L 603 0 
L 603 3500 
z
M 603 4863 
L 1178 4863 
L 1178 4134 
L 603 4134 
L 603 4863 
z
" transform="scale(0.015625)"/>
        <path id="DejaVuSans-63" d="M 3122 3366 
L 3122 2828 
Q 2878 2963 2633 3030 
Q 2388 3097 2138 3097 
Q 1578 3097 1268 2742 
Q 959 2388 959 1747 
Q 959 1106 1268 751 
Q 1578 397 2138 397 
Q 2388 397 2633 464 
Q 2878 531 3122 666 
L 3122 134 
Q 2881 22 2623 -34 
Q 2366 -91 2075 -91 
Q 1284 -91 818 406 
Q 353 903 353 1747 
Q 353 2603 823 3093 
Q 1294 3584 2113 3584 
Q 2378 3584 2631 3529 
Q 2884 3475 3122 3366 
z
" transform="scale(0.015625)"/>
       </defs>
       <use xlink:href="#DejaVuSans-4d"/>
       <use xlink:href="#DejaVuSans-54" transform="translate(86.279297 0)"/>
       <use xlink:href="#DejaVuSans-4c" transform="translate(147.363281 0)"/>
       <use xlink:href="#DejaVuSans-2d" transform="translate(201.326172 0)"/>
       <use xlink:href="#DejaVuSans-73" transform="translate(237.410156 0)"/>
       <use xlink:href="#DejaVuSans-65" transform="translate(289.509766 0)"/>
       <use xlink:href="#DejaVuSans-6d" transform="translate(351.033203 0)"/>
       <use xlink:href="#DejaVuSans-61" transform="translate(448.445312 0)"/>
       <use xlink:href="#DejaVuSans-6e" transform="translate(509.724609 0)"/>
       <use xlink:href="#DejaVuSans-74" transform="translate(573.103516 0)"/>
       <use xlink:href="#DejaVuSans-69" transform="translate(612.3125 0)"/>
       <use xlink:href="#DejaVuSans-63" transform="translate(640.095703 0)"/>
      </g>
     </g>
    </g>
    <g id="xtick_3">
     <g id="line2d_3">
      <g>
       <use xlink:href="#me5ebed1a03" x="175.3377" y="192.550081" style="stroke: #000000; stroke-width: 0.8"/>
      </g>
     </g>
     <g id="text_3">
      <!-- labels -->
      <g transform="translate(154.909759 237.850654) rotate(-30) scale(0.18 -0.18)">
       <defs>
        <path id="DejaVuSans-6c" d="M 603 4863 
L 1178 4863 
L 1178 0 
L 603 0 
L 603 4863 
z
" transform="scale(0.015625)"/>
        <path id="DejaVuSans-62" d="M 3116 1747 
Q 3116 2381 2855 2742 
Q 2594 3103 2138 3103 
Q 1681 3103 1420 2742 
Q 1159 2381 1159 1747 
Q 1159 1113 1420 752 
Q 1681 391 2138 391 
Q 2594 391 2855 752 
Q 3116 1113 3116 1747 
z
M 1159 2969 
Q 1341 3281 1617 3432 
Q 1894 3584 2278 3584 
Q 2916 3584 3314 3078 
Q 3713 2572 3713 1747 
Q 3713 922 3314 415 
Q 2916 -91 2278 -91 
Q 1894 -91 1617 61 
Q 1341 213 1159 525 
L 1159 0 
L 581 0 
L 581 4863 
L 1159 4863 
L 1159 2969 
z
" transform="scale(0.015625)"/>
       </defs>
       <use xlink:href="#DejaVuSans-6c"/>
       <use xlink:href="#DejaVuSans-61" transform="translate(27.783203 0)"/>
       <use xlink:href="#DejaVuSans-62" transform="translate(89.0625 0)"/>
       <use xlink:href="#DejaVuSans-65" transform="translate(152.539062 0)"/>
       <use xlink:href="#DejaVuSans-6c" transform="translate(214.0625 0)"/>
       <use xlink:href="#DejaVuSans-73" transform="translate(241.845703 0)"/>
      </g>
     </g>
    </g>
   </g>
   <g id="matplotlib.axis_2"/>
   <g id="line2d_4">
    <path d="M 64.73659 118.773011 
L 64.73659 108.495744 
L 175.3377 108.495744 
L 175.3377 118.773011 
" style="fill: none; stroke: #000000; stroke-width: 2; stroke-linecap: square"/>
   </g>
   <g id="line2d_5">
    <path d="M 64.73659 96.505596 
L 64.73659 86.228329 
L 117.272117 86.228329 
L 117.272117 96.505596 
" style="fill: none; stroke: #000000; stroke-width: 2; stroke-linecap: square"/>
   </g>
   <g id="line2d_6">
    <path d="M 122.802173 96.505596 
L 122.802173 86.228329 
L 175.3377 86.228329 
L 175.3377 96.505596 
" style="fill: none; stroke: #000000; stroke-width: 2; stroke-linecap: square"/>
   </g>
   <g id="patch_3">
    <path d="M 34.87429 192.550081 
L 34.87429 102.624 
" style="fill: none; stroke: #000000; stroke-width: 0.8; stroke-linejoin: miter; stroke-linecap: square"/>
   </g>
   <g id="patch_4">
    <path d="M 34.87429 192.550081 
L 205.2 192.550081 
" style="fill: none; stroke: #000000; stroke-width: 0.8; stroke-linejoin: miter; stroke-linecap: square"/>
   </g>
   <g id="PathCollection_1">
    <defs>
     <path id="ma22a090271" d="M 0 1.5 
C 0.397805 1.5 0.77937 1.341951 1.06066 1.06066 
C 1.341951 0.77937 1.5 0.397805 1.5 0 
C 1.5 -0.397805 1.341951 -0.77937 1.06066 -1.06066 
C 0.77937 -1.341951 0.397805 -1.5 0 -1.5 
C -0.397805 -1.5 -0.77937 -1.341951 -1.06066 -1.06066 
C -1.341951 -0.77937 -1.5 -0.397805 -1.5 0 
C -1.5 0.397805 -1.341951 0.77937 -1.06066 1.06066 
C -0.77937 1.341951 -0.397805 1.5 0 1.5 
z
"/>
    </defs>
    <g clip-path="url(#p7dda7e25e4)">
     <use xlink:href="#ma22a090271" x="57.539961" y="129.909539" style="fill-opacity: 0.1"/>
     <use xlink:href="#ma22a090271" x="60.931646" y="130.425984" style="fill-opacity: 0.1"/>
     <use xlink:href="#ma22a090271" x="68.725942" y="130.856357" style="fill-opacity: 0.1"/>
     <use xlink:href="#ma22a090271" x="55.074645" y="129.715874" style="fill-opacity: 0.1"/>
     <use xlink:href="#ma22a090271" x="67.10897" y="128.209573" style="fill-opacity: 0.1"/>
     <use xlink:href="#ma22a090271" x="64.242125" y="131.200653" style="fill-opacity: 0.1"/>
     <use xlink:href="#ma22a090271" x="59.958621" y="145.639612" style="fill-opacity: 0.1"/>
     <use xlink:href="#ma22a090271" x="58.950233" y="135.418294" style="fill-opacity: 0.1"/>
     <use xlink:href="#ma22a090271" x="65.057615" y="131.265208" style="fill-opacity: 0.1"/>
     <use xlink:href="#ma22a090271" x="61.815118" y="136.98915" style="fill-opacity: 0.1"/>
     <use xlink:href="#ma22a090271" x="63.7748" y="140.238451" style="fill-opacity: 0.1"/>
     <use xlink:href="#ma22a090271" x="61.141553" y="130.210802" style="fill-opacity: 0.1"/>
     <use xlink:href="#ma22a090271" x="75.144015" y="141.099192" style="fill-opacity: 0.1"/>
     <use xlink:href="#ma22a090271" x="56.628188" y="139.549858" style="fill-opacity: 0.1"/>
     <use xlink:href="#ma22a090271" x="55.817803" y="135.160069" style="fill-opacity: 0.1"/>
     <use xlink:href="#ma22a090271" x="61.27238" y="128.424759" style="fill-opacity: 0.1"/>
     <use xlink:href="#ma22a090271" x="66.750125" y="129.931061" style="fill-opacity: 0.1"/>
     <use xlink:href="#ma22a090271" x="68.257609" y="131.006989" style="fill-opacity: 0.1"/>
     <use xlink:href="#ma22a090271" x="62.463886" y="136.709408" style="fill-opacity: 0.1"/>
     <use xlink:href="#ma22a090271" x="75.78073" y="127.370348" style="fill-opacity: 0.1"/>
     <use xlink:href="#ma22a090271" x="61.46043" y="138.753671" style="fill-opacity: 0.1"/>
     <use xlink:href="#ma22a090271" x="69.634154" y="125.541272" style="fill-opacity: 0.1"/>
     <use xlink:href="#ma22a090271" x="67.779949" y="144.628239" style="fill-opacity: 0.1"/>
     <use xlink:href="#ma22a090271" x="71.661411" y="134.708179" style="fill-opacity: 0.1"/>
     <use xlink:href="#ma22a090271" x="75.270807" y="129.801946" style="fill-opacity: 0.1"/>
     <use xlink:href="#ma22a090271" x="73.358912" y="136.946112" style="fill-opacity: 0.1"/>
     <use xlink:href="#ma22a090271" x="70.588759" y="158.24949" style="fill-opacity: 0.1"/>
     <use xlink:href="#ma22a090271" x="69.12189" y="126.767832" style="fill-opacity: 0.1"/>
     <use xlink:href="#ma22a090271" x="61.097773" y="142.089048" style="fill-opacity: 0.1"/>
     <use xlink:href="#ma22a090271" x="56.943316" y="130.748764" style="fill-opacity: 0.1"/>
     <use xlink:href="#ma22a090271" x="55.062001" y="146.650985" style="fill-opacity: 0.1"/>
     <use xlink:href="#ma22a090271" x="59.027398" y="151.363549" style="fill-opacity: 0.1"/>
     <use xlink:href="#ma22a090271" x="63.238641" y="125.541272" style="fill-opacity: 0.1"/>
     <use xlink:href="#ma22a090271" x="65.223152" y="136.967628" style="fill-opacity: 0.1"/>
     <use xlink:href="#ma22a090271" x="70.777258" y="131.114582" style="fill-opacity: 0.1"/>
     <use xlink:href="#ma22a090271" x="74.884041" y="126.74631" style="fill-opacity: 0.1"/>
     <use xlink:href="#ma22a090271" x="56.271634" y="144.090273" style="fill-opacity: 0.1"/>
     <use xlink:href="#ma22a090271" x="56.043434" y="133.546179" style="fill-opacity: 0.1"/>
     <use xlink:href="#ma22a090271" x="66.720657" y="137.505595" style="fill-opacity: 0.1"/>
     <use xlink:href="#ma22a090271" x="70.164849" y="128.080463" style="fill-opacity: 0.1"/>
     <use xlink:href="#ma22a090271" x="72.437753" y="129.005759" style="fill-opacity: 0.1"/>
     <use xlink:href="#ma22a090271" x="74.377292" y="126.961496" style="fill-opacity: 0.1"/>
     <use xlink:href="#ma22a090271" x="75.430085" y="156.764708" style="fill-opacity: 0.1"/>
     <use xlink:href="#ma22a090271" x="62.520181" y="138.000518" style="fill-opacity: 0.1"/>
     <use xlink:href="#ma22a090271" x="62.089577" y="138.689116" style="fill-opacity: 0.1"/>
     <use xlink:href="#ma22a090271" x="56.946039" y="138.538485" style="fill-opacity: 0.1"/>
     <use xlink:href="#ma22a090271" x="68.82738" y="143.702938" style="fill-opacity: 0.1"/>
     <use xlink:href="#ma22a090271" x="68.204199" y="129.242462" style="fill-opacity: 0.1"/>
     <use xlink:href="#ma22a090271" x="72.745495" y="141.099192" style="fill-opacity: 0.1"/>
     <use xlink:href="#ma22a090271" x="55.827847" y="129.371577" style="fill-opacity: 0.1"/>
     <use xlink:href="#ma22a090271" x="64.687414" y="140.905527" style="fill-opacity: 0.1"/>
     <use xlink:href="#ma22a090271" x="66.53014" y="132.749988" style="fill-opacity: 0.1"/>
     <use xlink:href="#ma22a090271" x="59.019774" y="150.717992" style="fill-opacity: 0.1"/>
     <use xlink:href="#ma22a090271" x="57.415358" y="129.307022" style="fill-opacity: 0.1"/>
     <use xlink:href="#ma22a090271" x="72.690598" y="141.852345" style="fill-opacity: 0.1"/>
     <use xlink:href="#ma22a090271" x="54.971284" y="126.6172" style="fill-opacity: 0.1"/>
     <use xlink:href="#ma22a090271" x="64.086717" y="127.112128" style="fill-opacity: 0.1"/>
     <use xlink:href="#ma22a090271" x="56.238752" y="131.071544" style="fill-opacity: 0.1"/>
     <use xlink:href="#ma22a090271" x="63.78672" y="133.115806" style="fill-opacity: 0.1"/>
     <use xlink:href="#ma22a090271" x="75.353463" y="129.350056" style="fill-opacity: 0.1"/>
     <use xlink:href="#ma22a090271" x="63.048957" y="133.825921" style="fill-opacity: 0.1"/>
     <use xlink:href="#ma22a090271" x="72.636272" y="132.728471" style="fill-opacity: 0.1"/>
     <use xlink:href="#ma22a090271" x="56.271525" y="134.880327" style="fill-opacity: 0.1"/>
     <use xlink:href="#ma22a090271" x="59.676635" y="129.780429" style="fill-opacity: 0.1"/>
     <use xlink:href="#ma22a090271" x="62.608464" y="133.761361" style="fill-opacity: 0.1"/>
     <use xlink:href="#ma22a090271" x="62.520412" y="133.244916" style="fill-opacity: 0.1"/>
     <use xlink:href="#ma22a090271" x="68.52763" y="137.742298" style="fill-opacity: 0.1"/>
     <use xlink:href="#ma22a090271" x="61.30172" y="128.726018" style="fill-opacity: 0.1"/>
     <use xlink:href="#ma22a090271" x="69.46516" y="131.932285" style="fill-opacity: 0.1"/>
     <use xlink:href="#ma22a090271" x="67.815435" y="128.058941" style="fill-opacity: 0.1"/>
     <use xlink:href="#ma22a090271" x="62.506012" y="141.551082" style="fill-opacity: 0.1"/>
     <use xlink:href="#ma22a090271" x="63.227108" y="146.801612" style="fill-opacity: 0.1"/>
     <use xlink:href="#ma22a090271" x="67.269968" y="138.02204" style="fill-opacity: 0.1"/>
     <use xlink:href="#ma22a090271" x="55.225827" y="129.823467" style="fill-opacity: 0.1"/>
     <use xlink:href="#ma22a090271" x="71.868298" y="133.976548" style="fill-opacity: 0.1"/>
     <use xlink:href="#ma22a090271" x="68.1303" y="125.046344" style="fill-opacity: 0.1"/>
     <use xlink:href="#ma22a090271" x="69.743335" y="137.225853" style="fill-opacity: 0.1"/>
     <use xlink:href="#ma22a090271" x="65.553335" y="134.342366" style="fill-opacity: 0.1"/>
     <use xlink:href="#ma22a090271" x="56.120257" y="133.309471" style="fill-opacity: 0.1"/>
     <use xlink:href="#ma22a090271" x="62.635956" y="129.8665" style="fill-opacity: 0.1"/>
     <use xlink:href="#ma22a090271" x="62.643432" y="125.71342" style="fill-opacity: 0.1"/>
     <use xlink:href="#ma22a090271" x="60.778021" y="141.680197" style="fill-opacity: 0.1"/>
     <use xlink:href="#ma22a090271" x="54.338986" y="145.187722" style="fill-opacity: 0.1"/>
     <use xlink:href="#ma22a090271" x="69.984706" y="134.471476" style="fill-opacity: 0.1"/>
     <use xlink:href="#ma22a090271" x="56.104935" y="131.803175" style="fill-opacity: 0.1"/>
     <use xlink:href="#ma22a090271" x="67.088149" y="134.708179" style="fill-opacity: 0.1"/>
     <use xlink:href="#ma22a090271" x="69.231806" y="138.043556" style="fill-opacity: 0.1"/>
     <use xlink:href="#ma22a090271" x="67.718093" y="125.691904" style="fill-opacity: 0.1"/>
     <use xlink:href="#ma22a090271" x="74.892918" y="127.219721" style="fill-opacity: 0.1"/>
     <use xlink:href="#ma22a090271" x="55.961457" y="129.801946" style="fill-opacity: 0.1"/>
     <use xlink:href="#ma22a090271" x="72.858409" y="140.238451" style="fill-opacity: 0.1"/>
     <use xlink:href="#ma22a090271" x="54.322173" y="131.953802" style="fill-opacity: 0.1"/>
     <use xlink:href="#ma22a090271" x="65.508958" y="147.576282" style="fill-opacity: 0.1"/>
     <use xlink:href="#ma22a090271" x="62.618437" y="124.831157" style="fill-opacity: 0.1"/>
     <use xlink:href="#ma22a090271" x="65.271542" y="146.909205" style="fill-opacity: 0.1"/>
     <use xlink:href="#ma22a090271" x="61.752569" y="126.767832" style="fill-opacity: 0.1"/>
     <use xlink:href="#ma22a090271" x="57.891861" y="139.571374" style="fill-opacity: 0.1"/>
     <use xlink:href="#ma22a090271" x="54.099481" y="125.928607" style="fill-opacity: 0.1"/>
     <use xlink:href="#ma22a090271" x="65.138068" y="130.662692" style="fill-opacity: 0.1"/>
     <use xlink:href="#ma22a090271" x="72.31889" y="135.827145" style="fill-opacity: 0.1"/>
     <use xlink:href="#ma22a090271" x="61.932098" y="125.412162" style="fill-opacity: 0.1"/>
     <use xlink:href="#ma22a090271" x="58.606276" y="127.348831" style="fill-opacity: 0.1"/>
     <use xlink:href="#ma22a090271" x="55.457864" y="132.147472" style="fill-opacity: 0.1"/>
     <use xlink:href="#ma22a090271" x="55.563575" y="135.934739" style="fill-opacity: 0.1"/>
     <use xlink:href="#ma22a090271" x="58.573817" y="137.139777" style="fill-opacity: 0.1"/>
     <use xlink:href="#ma22a090271" x="55.888812" y="131.437357" style="fill-opacity: 0.1"/>
     <use xlink:href="#ma22a090271" x="59.539216" y="130.576615" style="fill-opacity: 0.1"/>
     <use xlink:href="#ma22a090271" x="55.139719" y="125.648865" style="fill-opacity: 0.1"/>
     <use xlink:href="#ma22a090271" x="55.127673" y="143.72446" style="fill-opacity: 0.1"/>
     <use xlink:href="#ma22a090271" x="72.617498" y="132.44873" style="fill-opacity: 0.1"/>
     <use xlink:href="#ma22a090271" x="57.262615" y="142.002972" style="fill-opacity: 0.1"/>
     <use xlink:href="#ma22a090271" x="66.056778" y="139.227078" style="fill-opacity: 0.1"/>
     <use xlink:href="#ma22a090271" x="70.785487" y="138.775188" style="fill-opacity: 0.1"/>
     <use xlink:href="#ma22a090271" x="63.772359" y="129.844984" style="fill-opacity: 0.1"/>
     <use xlink:href="#ma22a090271" x="57.069032" y="127.06909" style="fill-opacity: 0.1"/>
     <use xlink:href="#ma22a090271" x="58.09159" y="127.52098" style="fill-opacity: 0.1"/>
     <use xlink:href="#ma22a090271" x="63.254185" y="141.701714" style="fill-opacity: 0.1"/>
     <use xlink:href="#ma22a090271" x="65.361134" y="130.791802" style="fill-opacity: 0.1"/>
     <use xlink:href="#ma22a090271" x="61.406175" y="138.258743" style="fill-opacity: 0.1"/>
     <use xlink:href="#ma22a090271" x="70.962981" y="134.751217" style="fill-opacity: 0.1"/>
     <use xlink:href="#ma22a090271" x="70.289244" y="125.455195" style="fill-opacity: 0.1"/>
     <use xlink:href="#ma22a090271" x="74.18661" y="141.744752" style="fill-opacity: 0.1"/>
     <use xlink:href="#ma22a090271" x="54.316915" y="137.398002" style="fill-opacity: 0.1"/>
     <use xlink:href="#ma22a090271" x="73.489369" y="127.607051" style="fill-opacity: 0.1"/>
     <use xlink:href="#ma22a090271" x="62.360187" y="128.101979" style="fill-opacity: 0.1"/>
     <use xlink:href="#ma22a090271" x="73.106273" y="129.909539" style="fill-opacity: 0.1"/>
     <use xlink:href="#ma22a090271" x="68.956791" y="131.975323" style="fill-opacity: 0.1"/>
     <use xlink:href="#ma22a090271" x="75.516852" y="130.77028" style="fill-opacity: 0.1"/>
     <use xlink:href="#ma22a090271" x="70.471975" y="130.06017" style="fill-opacity: 0.1"/>
     <use xlink:href="#ma22a090271" x="61.740287" y="131.243692" style="fill-opacity: 0.1"/>
     <use xlink:href="#ma22a090271" x="64.760107" y="141.938417" style="fill-opacity: 0.1"/>
     <use xlink:href="#ma22a090271" x="62.00229" y="136.02081" style="fill-opacity: 0.1"/>
     <use xlink:href="#ma22a090271" x="61.748409" y="136.903073" style="fill-opacity: 0.1"/>
     <use xlink:href="#ma22a090271" x="59.447744" y="124.874195" style="fill-opacity: 0.1"/>
     <use xlink:href="#ma22a090271" x="64.647452" y="148.802841" style="fill-opacity: 0.1"/>
     <use xlink:href="#ma22a090271" x="68.756718" y="141.744752" style="fill-opacity: 0.1"/>
     <use xlink:href="#ma22a090271" x="59.811307" y="124.874195" style="fill-opacity: 0.1"/>
     <use xlink:href="#ma22a090271" x="65.275876" y="137.849891" style="fill-opacity: 0.1"/>
     <use xlink:href="#ma22a090271" x="56.272957" y="136.386629" style="fill-opacity: 0.1"/>
     <use xlink:href="#ma22a090271" x="57.212292" y="138.710633" style="fill-opacity: 0.1"/>
     <use xlink:href="#ma22a090271" x="54.711846" y="139.765044" style="fill-opacity: 0.1"/>
     <use xlink:href="#ma22a090271" x="75.149274" y="130.619654" style="fill-opacity: 0.1"/>
     <use xlink:href="#ma22a090271" x="53.76187" y="128.274128" style="fill-opacity: 0.1"/>
     <use xlink:href="#ma22a090271" x="57.626707" y="126.42353" style="fill-opacity: 0.1"/>
     <use xlink:href="#ma22a090271" x="67.233227" y="139.141006" style="fill-opacity: 0.1"/>
     <use xlink:href="#ma22a090271" x="55.476392" y="126.42353" style="fill-opacity: 0.1"/>
     <use xlink:href="#ma22a090271" x="73.184225" y="130.748764" style="fill-opacity: 0.1"/>
     <use xlink:href="#ma22a090271" x="69.594636" y="130.167764" style="fill-opacity: 0.1"/>
     <use xlink:href="#ma22a090271" x="75.053239" y="135.805629" style="fill-opacity: 0.1"/>
     <use xlink:href="#ma22a090271" x="64.90549" y="129.414611" style="fill-opacity: 0.1"/>
     <use xlink:href="#ma22a090271" x="60.321475" y="137.849891" style="fill-opacity: 0.1"/>
     <use xlink:href="#ma22a090271" x="65.831553" y="126.660238" style="fill-opacity: 0.1"/>
     <use xlink:href="#ma22a090271" x="74.266395" y="132.341136" style="fill-opacity: 0.1"/>
     <use xlink:href="#ma22a090271" x="65.195837" y="140.023264" style="fill-opacity: 0.1"/>
     <use xlink:href="#ma22a090271" x="59.587157" y="142.024493" style="fill-opacity: 0.1"/>
     <use xlink:href="#ma22a090271" x="73.084735" y="127.929831" style="fill-opacity: 0.1"/>
     <use xlink:href="#ma22a090271" x="61.903404" y="138.409375" style="fill-opacity: 0.1"/>
     <use xlink:href="#ma22a090271" x="53.707079" y="130.339912" style="fill-opacity: 0.1"/>
     <use xlink:href="#ma22a090271" x="59.155326" y="143.875086" style="fill-opacity: 0.1"/>
     <use xlink:href="#ma22a090271" x="60.715874" y="135.353739" style="fill-opacity: 0.1"/>
     <use xlink:href="#ma22a090271" x="72.672827" y="133.847438" style="fill-opacity: 0.1"/>
     <use xlink:href="#ma22a090271" x="63.81867" y="135.43981" style="fill-opacity: 0.1"/>
     <use xlink:href="#ma22a090271" x="63.510848" y="132.362658" style="fill-opacity: 0.1"/>
     <use xlink:href="#ma22a090271" x="61.111135" y="151.083807" style="fill-opacity: 0.1"/>
     <use xlink:href="#ma22a090271" x="73.157274" y="135.073997" style="fill-opacity: 0.1"/>
     <use xlink:href="#ma22a090271" x="74.580681" y="133.352509" style="fill-opacity: 0.1"/>
     <use xlink:href="#ma22a090271" x="75.617313" y="145.919354" style="fill-opacity: 0.1"/>
     <use xlink:href="#ma22a090271" x="62.010079" y="130.06017" style="fill-opacity: 0.1"/>
     <use xlink:href="#ma22a090271" x="75.047875" y="127.477941" style="fill-opacity: 0.1"/>
     <use xlink:href="#ma22a090271" x="71.193031" y="133.395548" style="fill-opacity: 0.1"/>
     <use xlink:href="#ma22a090271" x="68.622873" y="131.86773" style="fill-opacity: 0.1"/>
     <use xlink:href="#ma22a090271" x="59.093488" y="123.948899" style="fill-opacity: 0.1"/>
     <use xlink:href="#ma22a090271" x="58.464561" y="133.352509" style="fill-opacity: 0.1"/>
     <use xlink:href="#ma22a090271" x="57.349493" y="135.525887" style="fill-opacity: 0.1"/>
     <use xlink:href="#ma22a090271" x="74.08806" y="131.501912" style="fill-opacity: 0.1"/>
     <use xlink:href="#ma22a090271" x="60.18152" y="135.827145" style="fill-opacity: 0.1"/>
     <use xlink:href="#ma22a090271" x="63.699024" y="138.753671" style="fill-opacity: 0.1"/>
     <use xlink:href="#ma22a090271" x="64.602936" y="134.492992" style="fill-opacity: 0.1"/>
     <use xlink:href="#ma22a090271" x="70.889807" y="133.309471" style="fill-opacity: 0.1"/>
     <use xlink:href="#ma22a090271" x="72.351143" y="126.552645" style="fill-opacity: 0.1"/>
     <use xlink:href="#ma22a090271" x="56.752798" y="133.223399" style="fill-opacity: 0.1"/>
     <use xlink:href="#ma22a090271" x="63.119698" y="125.691904" style="fill-opacity: 0.1"/>
     <use xlink:href="#ma22a090271" x="72.320616" y="142.842196" style="fill-opacity: 0.1"/>
     <use xlink:href="#ma22a090271" x="71.771557" y="130.64117" style="fill-opacity: 0.1"/>
     <use xlink:href="#ma22a090271" x="55.941894" y="141.508044" style="fill-opacity: 0.1"/>
     <use xlink:href="#ma22a090271" x="57.135713" y="129.629797" style="fill-opacity: 0.1"/>
     <use xlink:href="#ma22a090271" x="60.405421" y="130.856357" style="fill-opacity: 0.1"/>
     <use xlink:href="#ma22a090271" x="55.343438" y="126.186827" style="fill-opacity: 0.1"/>
     <use xlink:href="#ma22a090271" x="63.070118" y="141.335895" style="fill-opacity: 0.1"/>
     <use xlink:href="#ma22a090271" x="56.057006" y="127.65009" style="fill-opacity: 0.1"/>
     <use xlink:href="#ma22a090271" x="66.245578" y="146.607947" style="fill-opacity: 0.1"/>
     <use xlink:href="#ma22a090271" x="59.130373" y="129.952577" style="fill-opacity: 0.1"/>
     <use xlink:href="#ma22a090271" x="66.86971" y="137.957485" style="fill-opacity: 0.1"/>
     <use xlink:href="#ma22a090271" x="56.276172" y="130.081687" style="fill-opacity: 0.1"/>
     <use xlink:href="#ma22a090271" x="75.263246" y="143.143455" style="fill-opacity: 0.1"/>
     <use xlink:href="#ma22a090271" x="74.30494" y="128.188056" style="fill-opacity: 0.1"/>
     <use xlink:href="#ma22a090271" x="62.343114" y="135.56892" style="fill-opacity: 0.1"/>
     <use xlink:href="#ma22a090271" x="59.033523" y="129.199429" style="fill-opacity: 0.1"/>
     <use xlink:href="#ma22a090271" x="59.215343" y="128.855133" style="fill-opacity: 0.1"/>
     <use xlink:href="#ma22a090271" x="64.369251" y="125.907085" style="fill-opacity: 0.1"/>
    </g>
   </g>
   <g id="PathCollection_2">
    <g clip-path="url(#p7dda7e25e4)">
     <use xlink:href="#ma22a090271" x="109.861683" y="171.698593" style="fill-opacity: 0.1"/>
     <use xlink:href="#ma22a090271" x="123.127453" y="165.544283" style="fill-opacity: 0.1"/>
     <use xlink:href="#ma22a090271" x="118.008785" y="165.673395" style="fill-opacity: 0.1"/>
     <use xlink:href="#ma22a090271" x="117.325351" y="162.27346" style="fill-opacity: 0.1"/>
     <use xlink:href="#ma22a090271" x="126.880367" y="168.836622" style="fill-opacity: 0.1"/>
     <use xlink:href="#ma22a090271" x="124.661056" y="166.405024" style="fill-opacity: 0.1"/>
     <use xlink:href="#ma22a090271" x="130.08711" y="161.692461" style="fill-opacity: 0.1"/>
     <use xlink:href="#ma22a090271" x="116.761942" y="165.910098" style="fill-opacity: 0.1"/>
     <use xlink:href="#ma22a090271" x="128.830879" y="168.729031" style="fill-opacity: 0.1"/>
     <use xlink:href="#ma22a090271" x="126.008879" y="165.329096" style="fill-opacity: 0.1"/>
     <use xlink:href="#ma22a090271" x="116.883346" y="164.231649" style="fill-opacity: 0.1"/>
     <use xlink:href="#ma22a090271" x="122.728411" y="169.353069" style="fill-opacity: 0.1"/>
     <use xlink:href="#ma22a090271" x="115.360265" y="168.535364" style="fill-opacity: 0.1"/>
     <use xlink:href="#ma22a090271" x="128.318954" y="171.677073" style="fill-opacity: 0.1"/>
     <use xlink:href="#ma22a090271" x="111.463951" y="164.683539" style="fill-opacity: 0.1"/>
     <use xlink:href="#ma22a090271" x="113.676129" y="161.886126" style="fill-opacity: 0.1"/>
     <use xlink:href="#ma22a090271" x="113.025771" y="164.339242" style="fill-opacity: 0.1"/>
     <use xlink:href="#ma22a090271" x="117.892059" y="164.726577" style="fill-opacity: 0.1"/>
     <use xlink:href="#ma22a090271" x="125.461752" y="166.469582" style="fill-opacity: 0.1"/>
     <use xlink:href="#ma22a090271" x="120.632344" y="162.338015" style="fill-opacity: 0.1"/>
     <use xlink:href="#ma22a090271" x="119.764542" y="165.73795" style="fill-opacity: 0.1"/>
     <use xlink:href="#ma22a090271" x="108.989111" y="165.30758" style="fill-opacity: 0.1"/>
     <use xlink:href="#ma22a090271" x="118.387014" y="168.234103" style="fill-opacity: 0.1"/>
     <use xlink:href="#ma22a090271" x="110.382857" y="169.632811" style="fill-opacity: 0.1"/>
     <use xlink:href="#ma22a090271" x="113.583642" y="169.417624" style="fill-opacity: 0.1"/>
     <use xlink:href="#ma22a090271" x="129.601795" y="165.780986" style="fill-opacity: 0.1"/>
     <use xlink:href="#ma22a090271" x="113.74169" y="171.268221" style="fill-opacity: 0.1"/>
     <use xlink:href="#ma22a090271" x="127.963653" y="167.825251" style="fill-opacity: 0.1"/>
     <use xlink:href="#ma22a090271" x="126.737214" y="163.672168" style="fill-opacity: 0.1"/>
     <use xlink:href="#ma22a090271" x="112.497384" y="162.832944" style="fill-opacity: 0.1"/>
     <use xlink:href="#ma22a090271" x="122.375517" y="166.491098" style="fill-opacity: 0.1"/>
     <use xlink:href="#ma22a090271" x="111.5355" y="168.083474" style="fill-opacity: 0.1"/>
     <use xlink:href="#ma22a090271" x="125.078082" y="162.553202" style="fill-opacity: 0.1"/>
     <use xlink:href="#ma22a090271" x="123.077841" y="165.049355" style="fill-opacity: 0.1"/>
     <use xlink:href="#ma22a090271" x="126.937295" y="164.511391" style="fill-opacity: 0.1"/>
     <use xlink:href="#ma22a090271" x="119.581127" y="161.670941" style="fill-opacity: 0.1"/>
     <use xlink:href="#ma22a090271" x="129.214009" y="165.630357" style="fill-opacity: 0.1"/>
     <use xlink:href="#ma22a090271" x="110.068643" y="167.653103" style="fill-opacity: 0.1"/>
     <use xlink:href="#ma22a090271" x="115.455794" y="165.28606" style="fill-opacity: 0.1"/>
     <use xlink:href="#ma22a090271" x="124.794156" y="161.606387" style="fill-opacity: 0.1"/>
     <use xlink:href="#ma22a090271" x="118.225702" y="162.832944" style="fill-opacity: 0.1"/>
     <use xlink:href="#ma22a090271" x="112.802756" y="165.113912" style="fill-opacity: 0.1"/>
     <use xlink:href="#ma22a090271" x="111.348559" y="167.846768" style="fill-opacity: 0.1"/>
     <use xlink:href="#ma22a090271" x="127.056757" y="163.930391" style="fill-opacity: 0.1"/>
     <use xlink:href="#ma22a090271" x="119.443062" y="165.587319" style="fill-opacity: 0.1"/>
     <use xlink:href="#ma22a090271" x="128.493345" y="166.168321" style="fill-opacity: 0.1"/>
     <use xlink:href="#ma22a090271" x="125.197552" y="167.007546" style="fill-opacity: 0.1"/>
     <use xlink:href="#ma22a090271" x="118.040268" y="162.962056" style="fill-opacity: 0.1"/>
     <use xlink:href="#ma22a090271" x="117.23918" y="164.145575" style="fill-opacity: 0.1"/>
     <use xlink:href="#ma22a090271" x="120.383069" y="161.692461" style="fill-opacity: 0.1"/>
     <use xlink:href="#ma22a090271" x="128.643237" y="166.512617" style="fill-opacity: 0.1"/>
     <use xlink:href="#ma22a090271" x="125.2858" y="163.715204" style="fill-opacity: 0.1"/>
     <use xlink:href="#ma22a090271" x="109.091019" y="165.30758" style="fill-opacity: 0.1"/>
     <use xlink:href="#ma22a090271" x="124.33196" y="167.265768" style="fill-opacity: 0.1"/>
     <use xlink:href="#ma22a090271" x="129.316742" y="171.440369" style="fill-opacity: 0.1"/>
     <use xlink:href="#ma22a090271" x="124.692473" y="161.219052" style="fill-opacity: 0.1"/>
     <use xlink:href="#ma22a090271" x="112.892441" y="168.104993" style="fill-opacity: 0.1"/>
     <use xlink:href="#ma22a090271" x="119.672562" y="162.72535" style="fill-opacity: 0.1"/>
     <use xlink:href="#ma22a090271" x="112.080855" y="169.159402" style="fill-opacity: 0.1"/>
     <use xlink:href="#ma22a090271" x="116.918089" y="158.486193" style="fill-opacity: 0.1"/>
     <use xlink:href="#ma22a090271" x="129.706271" y="166.039208" style="fill-opacity: 0.1"/>
     <use xlink:href="#ma22a090271" x="129.400752" y="162.058276" style="fill-opacity: 0.1"/>
     <use xlink:href="#ma22a090271" x="115.233448" y="167.911325" style="fill-opacity: 0.1"/>
     <use xlink:href="#ma22a090271" x="116.489748" y="169.804959" style="fill-opacity: 0.1"/>
     <use xlink:href="#ma22a090271" x="122.253876" y="168.642957" style="fill-opacity: 0.1"/>
     <use xlink:href="#ma22a090271" x="130.283172" y="164.53291" style="fill-opacity: 0.1"/>
     <use xlink:href="#ma22a090271" x="112.246432" y="169.891033" style="fill-opacity: 0.1"/>
     <use xlink:href="#ma22a090271" x="114.660087" y="161.993719" style="fill-opacity: 0.1"/>
     <use xlink:href="#ma22a090271" x="128.300305" y="170.170775" style="fill-opacity: 0.1"/>
     <use xlink:href="#ma22a090271" x="119.857799" y="164.769616" style="fill-opacity: 0.1"/>
     <use xlink:href="#ma22a090271" x="128.862253" y="173.52767" style="fill-opacity: 0.1"/>
     <use xlink:href="#ma22a090271" x="113.080731" y="165.651876" style="fill-opacity: 0.1"/>
     <use xlink:href="#ma22a090271" x="120.759781" y="167.760694" style="fill-opacity: 0.1"/>
     <use xlink:href="#ma22a090271" x="116.194191" y="163.607611" style="fill-opacity: 0.1"/>
     <use xlink:href="#ma22a090271" x="115.979026" y="168.729031" style="fill-opacity: 0.1"/>
     <use xlink:href="#ma22a090271" x="118.862052" y="164.877206" style="fill-opacity: 0.1"/>
     <use xlink:href="#ma22a090271" x="118.556803" y="165.910098" style="fill-opacity: 0.1"/>
     <use xlink:href="#ma22a090271" x="116.881626" y="161.154497" style="fill-opacity: 0.1"/>
     <use xlink:href="#ma22a090271" x="129.21639" y="161.886126" style="fill-opacity: 0.1"/>
     <use xlink:href="#ma22a090271" x="125.163378" y="167.158175" style="fill-opacity: 0.1"/>
     <use xlink:href="#ma22a090271" x="125.070535" y="165.845544" style="fill-opacity: 0.1"/>
     <use xlink:href="#ma22a090271" x="115.389984" y="164.683539" style="fill-opacity: 0.1"/>
     <use xlink:href="#ma22a090271" x="121.756095" y="168.944215" style="fill-opacity: 0.1"/>
     <use xlink:href="#ma22a090271" x="126.212656" y="156.979895" style="fill-opacity: 0.1"/>
     <use xlink:href="#ma22a090271" x="126.575669" y="164.382281" style="fill-opacity: 0.1"/>
     <use xlink:href="#ma22a090271" x="116.598124" y="164.96328" style="fill-opacity: 0.1"/>
     <use xlink:href="#ma22a090271" x="126.02891" y="169.310031" style="fill-opacity: 0.1"/>
     <use xlink:href="#ma22a090271" x="125.25517" y="162.144351" style="fill-opacity: 0.1"/>
     <use xlink:href="#ma22a090271" x="112.107189" y="164.96328" style="fill-opacity: 0.1"/>
     <use xlink:href="#ma22a090271" x="128.13194" y="166.577172" style="fill-opacity: 0.1"/>
     <use xlink:href="#ma22a090271" x="118.739163" y="171.397332" style="fill-opacity: 0.1"/>
     <use xlink:href="#ma22a090271" x="119.736541" y="166.555656" style="fill-opacity: 0.1"/>
     <use xlink:href="#ma22a090271" x="118.89506" y="174.474487" style="fill-opacity: 0.1"/>
     <use xlink:href="#ma22a090271" x="121.537913" y="164.468355" style="fill-opacity: 0.1"/>
     <use xlink:href="#ma22a090271" x="122.717436" y="170.364442" style="fill-opacity: 0.1"/>
     <use xlink:href="#ma22a090271" x="119.996876" y="166.706285" style="fill-opacity: 0.1"/>
     <use xlink:href="#ma22a090271" x="128.150589" y="165.436689" style="fill-opacity: 0.1"/>
     <use xlink:href="#ma22a090271" x="122.862666" y="162.058276" style="fill-opacity: 0.1"/>
     <use xlink:href="#ma22a090271" x="117.856709" y="162.402573" style="fill-opacity: 0.1"/>
     <use xlink:href="#ma22a090271" x="118.194348" y="165.780986" style="fill-opacity: 0.1"/>
     <use xlink:href="#ma22a090271" x="126.912964" y="161.541829" style="fill-opacity: 0.1"/>
     <use xlink:href="#ma22a090271" x="116.679117" y="163.973427" style="fill-opacity: 0.1"/>
     <use xlink:href="#ma22a090271" x="113.654461" y="164.769616" style="fill-opacity: 0.1"/>
     <use xlink:href="#ma22a090271" x="110.290603" y="157.281153" style="fill-opacity: 0.1"/>
     <use xlink:href="#ma22a090271" x="128.354942" y="165.30758" style="fill-opacity: 0.1"/>
     <use xlink:href="#ma22a090271" x="129.295485" y="165.199986" style="fill-opacity: 0.1"/>
     <use xlink:href="#ma22a090271" x="111.634119" y="162.359535" style="fill-opacity: 0.1"/>
     <use xlink:href="#ma22a090271" x="116.375667" y="162.703831" style="fill-opacity: 0.1"/>
     <use xlink:href="#ma22a090271" x="112.856303" y="164.016465" style="fill-opacity: 0.1"/>
     <use xlink:href="#ma22a090271" x="111.540734" y="162.122831" style="fill-opacity: 0.1"/>
     <use xlink:href="#ma22a090271" x="128.882286" y="165.199986" style="fill-opacity: 0.1"/>
     <use xlink:href="#ma22a090271" x="110.235171" y="161.154497" style="fill-opacity: 0.1"/>
     <use xlink:href="#ma22a090271" x="130.665594" y="164.618984" style="fill-opacity: 0.1"/>
     <use xlink:href="#ma22a090271" x="111.110548" y="169.439143" style="fill-opacity: 0.1"/>
     <use xlink:href="#ma22a090271" x="128.077196" y="164.662022" style="fill-opacity: 0.1"/>
     <use xlink:href="#ma22a090271" x="121.508275" y="163.069647" style="fill-opacity: 0.1"/>
     <use xlink:href="#ma22a090271" x="117.11545" y="165.996173" style="fill-opacity: 0.1"/>
     <use xlink:href="#ma22a090271" x="116.549723" y="160.014011" style="fill-opacity: 0.1"/>
     <use xlink:href="#ma22a090271" x="125.730097" y="161.025384" style="fill-opacity: 0.1"/>
     <use xlink:href="#ma22a090271" x="115.935465" y="163.284833" style="fill-opacity: 0.1"/>
     <use xlink:href="#ma22a090271" x="123.517074" y="159.73427" style="fill-opacity: 0.1"/>
     <use xlink:href="#ma22a090271" x="120.420402" y="166.555656" style="fill-opacity: 0.1"/>
     <use xlink:href="#ma22a090271" x="119.704582" y="160.379827" style="fill-opacity: 0.1"/>
     <use xlink:href="#ma22a090271" x="128.910941" y="160.057049" style="fill-opacity: 0.1"/>
     <use xlink:href="#ma22a090271" x="121.245906" y="164.920245" style="fill-opacity: 0.1"/>
     <use xlink:href="#ma22a090271" x="127.267396" y="165.694912" style="fill-opacity: 0.1"/>
     <use xlink:href="#ma22a090271" x="125.026882" y="167.588545" style="fill-opacity: 0.1"/>
     <use xlink:href="#ma22a090271" x="109.829929" y="165.501244" style="fill-opacity: 0.1"/>
     <use xlink:href="#ma22a090271" x="126.0784" y="162.445609" style="fill-opacity: 0.1"/>
     <use xlink:href="#ma22a090271" x="113.774252" y="161.584867" style="fill-opacity: 0.1"/>
     <use xlink:href="#ma22a090271" x="128.954905" y="165.199986" style="fill-opacity: 0.1"/>
     <use xlink:href="#ma22a090271" x="109.926526" y="163.736723" style="fill-opacity: 0.1"/>
     <use xlink:href="#ma22a090271" x="116.344661" y="169.137882" style="fill-opacity: 0.1"/>
     <use xlink:href="#ma22a090271" x="111.183149" y="160.315272" style="fill-opacity: 0.1"/>
     <use xlink:href="#ma22a090271" x="119.497171" y="164.683539" style="fill-opacity: 0.1"/>
     <use xlink:href="#ma22a090271" x="127.116112" y="164.640503" style="fill-opacity: 0.1"/>
     <use xlink:href="#ma22a090271" x="115.573004" y="167.889806" style="fill-opacity: 0.1"/>
     <use xlink:href="#ma22a090271" x="112.315747" y="165.565802" style="fill-opacity: 0.1"/>
     <use xlink:href="#ma22a090271" x="116.282614" y="170.020143" style="fill-opacity: 0.1"/>
     <use xlink:href="#ma22a090271" x="126.980243" y="161.025384" style="fill-opacity: 0.1"/>
     <use xlink:href="#ma22a090271" x="112.082358" y="166.813878" style="fill-opacity: 0.1"/>
     <use xlink:href="#ma22a090271" x="114.006342" y="164.53291" style="fill-opacity: 0.1"/>
     <use xlink:href="#ma22a090271" x="110.500055" y="164.4038" style="fill-opacity: 0.1"/>
     <use xlink:href="#ma22a090271" x="124.587497" y="163.736723" style="fill-opacity: 0.1"/>
     <use xlink:href="#ma22a090271" x="117.719681" y="168.836622" style="fill-opacity: 0.1"/>
     <use xlink:href="#ma22a090271" x="115.852883" y="161.563348" style="fill-opacity: 0.1"/>
     <use xlink:href="#ma22a090271" x="124.873209" y="163.779759" style="fill-opacity: 0.1"/>
     <use xlink:href="#ma22a090271" x="116.408932" y="167.739177" style="fill-opacity: 0.1"/>
     <use xlink:href="#ma22a090271" x="125.075496" y="165.479728" style="fill-opacity: 0.1"/>
     <use xlink:href="#ma22a090271" x="127.009426" y="165.996173" style="fill-opacity: 0.1"/>
     <use xlink:href="#ma22a090271" x="113.791784" y="162.251941" style="fill-opacity: 0.1"/>
     <use xlink:href="#ma22a090271" x="130.51812" y="159.002638" style="fill-opacity: 0.1"/>
     <use xlink:href="#ma22a090271" x="112.568428" y="168.685993" style="fill-opacity: 0.1"/>
     <use xlink:href="#ma22a090271" x="115.410499" y="165.974653" style="fill-opacity: 0.1"/>
     <use xlink:href="#ma22a090271" x="112.954146" y="167.072101" style="fill-opacity: 0.1"/>
     <use xlink:href="#ma22a090271" x="116.619696" y="168.384732" style="fill-opacity: 0.1"/>
     <use xlink:href="#ma22a090271" x="119.596087" y="166.275914" style="fill-opacity: 0.1"/>
     <use xlink:href="#ma22a090271" x="120.52768" y="158.658342" style="fill-opacity: 0.1"/>
     <use xlink:href="#ma22a090271" x="127.858989" y="168.384732" style="fill-opacity: 0.1"/>
     <use xlink:href="#ma22a090271" x="128.651819" y="166.706285" style="fill-opacity: 0.1"/>
     <use xlink:href="#ma22a090271" x="113.84578" y="167.97588" style="fill-opacity: 0.1"/>
     <use xlink:href="#ma22a090271" x="122.755588" y="167.502471" style="fill-opacity: 0.1"/>
     <use xlink:href="#ma22a090271" x="111.443351" y="173.785892" style="fill-opacity: 0.1"/>
     <use xlink:href="#ma22a090271" x="119.129549" y="169.202437" style="fill-opacity: 0.1"/>
     <use xlink:href="#ma22a090271" x="116.107123" y="167.696139" style="fill-opacity: 0.1"/>
     <use xlink:href="#ma22a090271" x="115.978101" y="166.555656" style="fill-opacity: 0.1"/>
     <use xlink:href="#ma22a090271" x="119.651904" y="168.298658" style="fill-opacity: 0.1"/>
     <use xlink:href="#ma22a090271" x="125.120983" y="162.746869" style="fill-opacity: 0.1"/>
     <use xlink:href="#ma22a090271" x="110.50737" y="165.759469" style="fill-opacity: 0.1"/>
     <use xlink:href="#ma22a090271" x="128.424543" y="165.522764" style="fill-opacity: 0.1"/>
     <use xlink:href="#ma22a090271" x="125.231278" y="164.83417" style="fill-opacity: 0.1"/>
     <use xlink:href="#ma22a090271" x="112.88124" y="159.024157" style="fill-opacity: 0.1"/>
     <use xlink:href="#ma22a090271" x="129.751482" y="160.896272" style="fill-opacity: 0.1"/>
     <use xlink:href="#ma22a090271" x="120.176773" y="168.449289" style="fill-opacity: 0.1"/>
     <use xlink:href="#ma22a090271" x="131.093022" y="163.586094" style="fill-opacity: 0.1"/>
     <use xlink:href="#ma22a090271" x="113.340457" y="164.037984" style="fill-opacity: 0.1"/>
     <use xlink:href="#ma22a090271" x="120.809322" y="170.299885" style="fill-opacity: 0.1"/>
     <use xlink:href="#ma22a090271" x="115.397385" y="169.611291" style="fill-opacity: 0.1"/>
     <use xlink:href="#ma22a090271" x="115.70542" y="165.630357" style="fill-opacity: 0.1"/>
     <use xlink:href="#ma22a090271" x="122.051531" y="163.198759" style="fill-opacity: 0.1"/>
     <use xlink:href="#ma22a090271" x="129.365664" y="164.167094" style="fill-opacity: 0.1"/>
     <use xlink:href="#ma22a090271" x="126.789649" y="161.348162" style="fill-opacity: 0.1"/>
     <use xlink:href="#ma22a090271" x="124.990778" y="165.264541" style="fill-opacity: 0.1"/>
     <use xlink:href="#ma22a090271" x="121.346082" y="166.383508" style="fill-opacity: 0.1"/>
     <use xlink:href="#ma22a090271" x="129.378482" y="173.785892" style="fill-opacity: 0.1"/>
     <use xlink:href="#ma22a090271" x="119.868177" y="165.974653" style="fill-opacity: 0.1"/>
     <use xlink:href="#ma22a090271" x="128.306396" y="165.910098" style="fill-opacity: 0.1"/>
     <use xlink:href="#ma22a090271" x="127.424893" y="163.349388" style="fill-opacity: 0.1"/>
     <use xlink:href="#ma22a090271" x="113.707119" y="167.846768" style="fill-opacity: 0.1"/>
     <use xlink:href="#ma22a090271" x="126.036712" y="163.95191" style="fill-opacity: 0.1"/>
     <use xlink:href="#ma22a090271" x="109.246263" y="171.160629" style="fill-opacity: 0.1"/>
     <use xlink:href="#ma22a090271" x="116.118095" y="159.002638" style="fill-opacity: 0.1"/>
     <use xlink:href="#ma22a090271" x="114.055117" y="161.305126" style="fill-opacity: 0.1"/>
     <use xlink:href="#ma22a090271" x="120.188955" y="162.208905" style="fill-opacity: 0.1"/>
     <use xlink:href="#ma22a090271" x="125.276389" y="168.87966" style="fill-opacity: 0.1"/>
     <use xlink:href="#ma22a090271" x="111.137657" y="167.007546" style="fill-opacity: 0.1"/>
     <use xlink:href="#ma22a090271" x="120.367227" y="165.673395" style="fill-opacity: 0.1"/>
     <use xlink:href="#ma22a090271" x="129.734916" y="169.245476" style="fill-opacity: 0.1"/>
     <use xlink:href="#ma22a090271" x="114.034746" y="160.121604" style="fill-opacity: 0.1"/>
     <use xlink:href="#ma22a090271" x="123.955546" y="163.198759" style="fill-opacity: 0.1"/>
    </g>
   </g>
   <g id="PathCollection_3">
    <g clip-path="url(#p7dda7e25e4)">
     <use xlink:href="#ma22a090271" x="177.392232" y="116.159178" style="fill-opacity: 0.1"/>
     <use xlink:href="#ma22a090271" x="164.5002" y="113.684542" style="fill-opacity: 0.1"/>
     <use xlink:href="#ma22a090271" x="174.80297" y="119.795814" style="fill-opacity: 0.1"/>
     <use xlink:href="#ma22a090271" x="179.955748" y="124.314712" style="fill-opacity: 0.1"/>
     <use xlink:href="#ma22a090271" x="165.250335" y="129.371577" style="fill-opacity: 0.1"/>
     <use xlink:href="#ma22a090271" x="183.7328" y="127.434903" style="fill-opacity: 0.1"/>
     <use xlink:href="#ma22a090271" x="175.781906" y="126.87542" style="fill-opacity: 0.1"/>
     <use xlink:href="#ma22a090271" x="164.955818" y="127.434903" style="fill-opacity: 0.1"/>
     <use xlink:href="#ma22a090271" x="169.241668" y="126.0362" style="fill-opacity: 0.1"/>
     <use xlink:href="#ma22a090271" x="185.373107" y="120.656555" style="fill-opacity: 0.1"/>
     <use xlink:href="#ma22a090271" x="177.158631" y="123.131191" style="fill-opacity: 0.1"/>
     <use xlink:href="#ma22a090271" x="166.654906" y="117.342699" style="fill-opacity: 0.1"/>
     <use xlink:href="#ma22a090271" x="170.638137" y="123.131191" style="fill-opacity: 0.1"/>
     <use xlink:href="#ma22a090271" x="174.379975" y="124.314712" style="fill-opacity: 0.1"/>
     <use xlink:href="#ma22a090271" x="164.741009" y="133.976548" style="fill-opacity: 0.1"/>
     <use xlink:href="#ma22a090271" x="173.382616" y="124.314712" style="fill-opacity: 0.1"/>
     <use xlink:href="#ma22a090271" x="175.104523" y="116.159178" style="fill-opacity: 0.1"/>
     <use xlink:href="#ma22a090271" x="169.667798" y="127.434903" style="fill-opacity: 0.1"/>
     <use xlink:href="#ma22a090271" x="177.298415" y="119.817335" style="fill-opacity: 0.1"/>
     <use xlink:href="#ma22a090271" x="180.939428" y="127.434903" style="fill-opacity: 0.1"/>
     <use xlink:href="#ma22a090271" x="169.494295" y="136.881557" style="fill-opacity: 0.1"/>
     <use xlink:href="#ma22a090271" x="178.003185" y="124.314712" style="fill-opacity: 0.1"/>
     <use xlink:href="#ma22a090271" x="178.426175" y="126.87542" style="fill-opacity: 0.1"/>
     <use xlink:href="#ma22a090271" x="185.259511" y="124.314712" style="fill-opacity: 0.1"/>
     <use xlink:href="#ma22a090271" x="181.493231" y="119.602149" style="fill-opacity: 0.1"/>
     <use xlink:href="#ma22a090271" x="183.043175" y="124.314712" style="fill-opacity: 0.1"/>
     <use xlink:href="#ma22a090271" x="175.125786" y="125.175454" style="fill-opacity: 0.1"/>
     <use xlink:href="#ma22a090271" x="168.377541" y="134.708179" style="fill-opacity: 0.1"/>
     <use xlink:href="#ma22a090271" x="186.305245" y="123.131191" style="fill-opacity: 0.1"/>
     <use xlink:href="#ma22a090271" x="167.138967" y="126.358975" style="fill-opacity: 0.1"/>
     <use xlink:href="#ma22a090271" x="174.70633" y="130.31839" style="fill-opacity: 0.1"/>
     <use xlink:href="#ma22a090271" x="165.783824" y="124.314712" style="fill-opacity: 0.1"/>
     <use xlink:href="#ma22a090271" x="185.15578" y="130.533577" style="fill-opacity: 0.1"/>
     <use xlink:href="#ma22a090271" x="185.621943" y="127.219721" style="fill-opacity: 0.1"/>
     <use xlink:href="#ma22a090271" x="180.190635" y="132.90062" style="fill-opacity: 0.1"/>
     <use xlink:href="#ma22a090271" x="172.019509" y="133.632251" style="fill-opacity: 0.1"/>
     <use xlink:href="#ma22a090271" x="169.904584" y="126.0362" style="fill-opacity: 0.1"/>
     <use xlink:href="#ma22a090271" x="170.146158" y="120.656555" style="fill-opacity: 0.1"/>
     <use xlink:href="#ma22a090271" x="167.093361" y="141.895378" style="fill-opacity: 0.1"/>
     <use xlink:href="#ma22a090271" x="175.9086" y="120.656555" style="fill-opacity: 0.1"/>
     <use xlink:href="#ma22a090271" x="167.414619" y="126.466568" style="fill-opacity: 0.1"/>
     <use xlink:href="#ma22a090271" x="171.283742" y="117.342699" style="fill-opacity: 0.1"/>
     <use xlink:href="#ma22a090271" x="178.140476" y="136.881557" style="fill-opacity: 0.1"/>
     <use xlink:href="#ma22a090271" x="180.371015" y="124.314712" style="fill-opacity: 0.1"/>
     <use xlink:href="#ma22a090271" x="164.814507" y="129.479171" style="fill-opacity: 0.1"/>
     <use xlink:href="#ma22a090271" x="173.79185" y="127.52098" style="fill-opacity: 0.1"/>
     <use xlink:href="#ma22a090271" x="178.70273" y="119.817335" style="fill-opacity: 0.1"/>
     <use xlink:href="#ma22a090271" x="183.15158" y="127.434903" style="fill-opacity: 0.1"/>
     <use xlink:href="#ma22a090271" x="174.791879" y="126.0362" style="fill-opacity: 0.1"/>
     <use xlink:href="#ma22a090271" x="185.716638" y="124.314712" style="fill-opacity: 0.1"/>
     <use xlink:href="#ma22a090271" x="170.15344" y="123.131191" style="fill-opacity: 0.1"/>
     <use xlink:href="#ma22a090271" x="164.576405" y="124.314712" style="fill-opacity: 0.1"/>
     <use xlink:href="#ma22a090271" x="174.97831" y="119.473034" style="fill-opacity: 0.1"/>
     <use xlink:href="#ma22a090271" x="169.942883" y="124.314712" style="fill-opacity: 0.1"/>
     <use xlink:href="#ma22a090271" x="182.498407" y="122.722339" style="fill-opacity: 0.1"/>
     <use xlink:href="#ma22a090271" x="169.426572" y="127.434903" style="fill-opacity: 0.1"/>
     <use xlink:href="#ma22a090271" x="171.148776" y="128.101979" style="fill-opacity: 0.1"/>
     <use xlink:href="#ma22a090271" x="181.779716" y="122.14134" style="fill-opacity: 0.1"/>
     <use xlink:href="#ma22a090271" x="180.096717" y="126.0362" style="fill-opacity: 0.1"/>
     <use xlink:href="#ma22a090271" x="176.621806" y="124.121047" style="fill-opacity: 0.1"/>
     <use xlink:href="#ma22a090271" x="179.871197" y="119.817335" style="fill-opacity: 0.1"/>
     <use xlink:href="#ma22a090271" x="173.53793" y="124.314712" style="fill-opacity: 0.1"/>
     <use xlink:href="#ma22a090271" x="164.395049" y="122.722339" style="fill-opacity: 0.1"/>
     <use xlink:href="#ma22a090271" x="164.528767" y="130.64117" style="fill-opacity: 0.1"/>
     <use xlink:href="#ma22a090271" x="175.585929" y="123.131191" style="fill-opacity: 0.1"/>
     <use xlink:href="#ma22a090271" x="166.120004" y="120.656555" style="fill-opacity: 0.1"/>
     <use xlink:href="#ma22a090271" x="165.40739" y="120.419852" style="fill-opacity: 0.1"/>
     <use xlink:href="#ma22a090271" x="185.635032" y="124.314712" style="fill-opacity: 0.1"/>
     <use xlink:href="#ma22a090271" x="183.278918" y="119.817335" style="fill-opacity: 0.1"/>
     <use xlink:href="#ma22a090271" x="167.640465" y="127.434903" style="fill-opacity: 0.1"/>
     <use xlink:href="#ma22a090271" x="164.292282" y="119.903407" style="fill-opacity: 0.1"/>
     <use xlink:href="#ma22a090271" x="185.10749" y="120.656555" style="fill-opacity: 0.1"/>
     <use xlink:href="#ma22a090271" x="170.434207" y="133.847438" style="fill-opacity: 0.1"/>
     <use xlink:href="#ma22a090271" x="168.389685" y="132.663916" style="fill-opacity: 0.1"/>
     <use xlink:href="#ma22a090271" x="179.573902" y="126.251382" style="fill-opacity: 0.1"/>
     <use xlink:href="#ma22a090271" x="166.686564" y="124.314712" style="fill-opacity: 0.1"/>
     <use xlink:href="#ma22a090271" x="170.131697" y="129.909539" style="fill-opacity: 0.1"/>
     <use xlink:href="#ma22a090271" x="185.8469" y="124.314712" style="fill-opacity: 0.1"/>
     <use xlink:href="#ma22a090271" x="178.422648" y="116.159178" style="fill-opacity: 0.1"/>
     <use xlink:href="#ma22a090271" x="175.795097" y="124.121047" style="fill-opacity: 0.1"/>
     <use xlink:href="#ma22a090271" x="173.079637" y="123.131191" style="fill-opacity: 0.1"/>
     <use xlink:href="#ma22a090271" x="181.409722" y="127.434903" style="fill-opacity: 0.1"/>
     <use xlink:href="#ma22a090271" x="167.3956" y="133.976548" style="fill-opacity: 0.1"/>
     <use xlink:href="#ma22a090271" x="185.675316" y="127.434903" style="fill-opacity: 0.1"/>
     <use xlink:href="#ma22a090271" x="183.325821" y="147.920578" style="fill-opacity: 0.1"/>
     <use xlink:href="#ma22a090271" x="177.940299" y="133.546179" style="fill-opacity: 0.1"/>
     <use xlink:href="#ma22a090271" x="165.226684" y="133.567696" style="fill-opacity: 0.1"/>
     <use xlink:href="#ma22a090271" x="179.780672" y="120.656555" style="fill-opacity: 0.1"/>
     <use xlink:href="#ma22a090271" x="184.479642" y="119.817335" style="fill-opacity: 0.1"/>
     <use xlink:href="#ma22a090271" x="175.88135" y="131.501912" style="fill-opacity: 0.1"/>
     <use xlink:href="#ma22a090271" x="172.113121" y="122.722339" style="fill-opacity: 0.1"/>
     <use xlink:href="#ma22a090271" x="166.938151" y="127.434903" style="fill-opacity: 0.1"/>
     <use xlink:href="#ma22a090271" x="180.976169" y="123.131191" style="fill-opacity: 0.1"/>
     <use xlink:href="#ma22a090271" x="183.854469" y="133.546179" style="fill-opacity: 0.1"/>
     <use xlink:href="#ma22a090271" x="166.49518" y="122.507153" style="fill-opacity: 0.1"/>
     <use xlink:href="#ma22a090271" x="181.066496" y="131.501912" style="fill-opacity: 0.1"/>
     <use xlink:href="#ma22a090271" x="164.654971" y="125.175454" style="fill-opacity: 0.1"/>
     <use xlink:href="#ma22a090271" x="185.669059" y="127.434903" style="fill-opacity: 0.1"/>
     <use xlink:href="#ma22a090271" x="177.882809" y="123.131191" style="fill-opacity: 0.1"/>
     <use xlink:href="#ma22a090271" x="176.497664" y="124.314712" style="fill-opacity: 0.1"/>
     <use xlink:href="#ma22a090271" x="170.824065" y="126.87542" style="fill-opacity: 0.1"/>
     <use xlink:href="#ma22a090271" x="184.833727" y="124.314712" style="fill-opacity: 0.1"/>
     <use xlink:href="#ma22a090271" x="170.159481" y="140.410599" style="fill-opacity: 0.1"/>
     <use xlink:href="#ma22a090271" x="182.596376" y="124.314712" style="fill-opacity: 0.1"/>
     <use xlink:href="#ma22a090271" x="186.068412" y="123.131191" style="fill-opacity: 0.1"/>
     <use xlink:href="#ma22a090271" x="181.606497" y="124.314712" style="fill-opacity: 0.1"/>
     <use xlink:href="#ma22a090271" x="175.757761" y="123.131191" style="fill-opacity: 0.1"/>
     <use xlink:href="#ma22a090271" x="165.739166" y="124.314712" style="fill-opacity: 0.1"/>
     <use xlink:href="#ma22a090271" x="174.727487" y="122.937526" style="fill-opacity: 0.1"/>
     <use xlink:href="#ma22a090271" x="173.971908" y="124.314712" style="fill-opacity: 0.1"/>
     <use xlink:href="#ma22a090271" x="168.763483" y="128.510831" style="fill-opacity: 0.1"/>
     <use xlink:href="#ma22a090271" x="173.647442" y="124.314712" style="fill-opacity: 0.1"/>
     <use xlink:href="#ma22a090271" x="172.191273" y="119.817335" style="fill-opacity: 0.1"/>
     <use xlink:href="#ma22a090271" x="167.898321" y="124.723564" style="fill-opacity: 0.1"/>
     <use xlink:href="#ma22a090271" x="174.040883" y="116.159178" style="fill-opacity: 0.1"/>
     <use xlink:href="#ma22a090271" x="170.090782" y="127.52098" style="fill-opacity: 0.1"/>
     <use xlink:href="#ma22a090271" x="175.825726" y="123.131191" style="fill-opacity: 0.1"/>
     <use xlink:href="#ma22a090271" x="165.055337" y="127.434903" style="fill-opacity: 0.1"/>
     <use xlink:href="#ma22a090271" x="184.323629" y="129.479171" style="fill-opacity: 0.1"/>
     <use xlink:href="#ma22a090271" x="182.335749" y="122.894488" style="fill-opacity: 0.1"/>
     <use xlink:href="#ma22a090271" x="176.500811" y="119.817335" style="fill-opacity: 0.1"/>
     <use xlink:href="#ma22a090271" x="183.119784" y="124.314712" style="fill-opacity: 0.1"/>
     <use xlink:href="#ma22a090271" x="185.565982" y="123.131191" style="fill-opacity: 0.1"/>
     <use xlink:href="#ma22a090271" x="166.722367" y="126.767832" style="fill-opacity: 0.1"/>
     <use xlink:href="#ma22a090271" x="178.231729" y="119.817335" style="fill-opacity: 0.1"/>
     <use xlink:href="#ma22a090271" x="186.353438" y="122.700823" style="fill-opacity: 0.1"/>
     <use xlink:href="#ma22a090271" x="186.129917" y="127.004535" style="fill-opacity: 0.1"/>
     <use xlink:href="#ma22a090271" x="177.623228" y="130.64117" style="fill-opacity: 0.1"/>
     <use xlink:href="#ma22a090271" x="167.109439" y="122.722339" style="fill-opacity: 0.1"/>
     <use xlink:href="#ma22a090271" x="177.177944" y="124.314712" style="fill-opacity: 0.1"/>
     <use xlink:href="#ma22a090271" x="164.323259" y="122.722339" style="fill-opacity: 0.1"/>
     <use xlink:href="#ma22a090271" x="168.677552" y="133.546179" style="fill-opacity: 0.1"/>
     <use xlink:href="#ma22a090271" x="185.427246" y="126.789348" style="fill-opacity: 0.1"/>
     <use xlink:href="#ma22a090271" x="171.587008" y="124.314712" style="fill-opacity: 0.1"/>
     <use xlink:href="#ma22a090271" x="178.39892" y="136.752442" style="fill-opacity: 0.1"/>
     <use xlink:href="#ma22a090271" x="170.490263" y="127.434903" style="fill-opacity: 0.1"/>
     <use xlink:href="#ma22a090271" x="185.24362" y="126.0362" style="fill-opacity: 0.1"/>
     <use xlink:href="#ma22a090271" x="180.39347" y="131.372802" style="fill-opacity: 0.1"/>
     <use xlink:href="#ma22a090271" x="171.569546" y="130.31839" style="fill-opacity: 0.1"/>
     <use xlink:href="#ma22a090271" x="181.791528" y="126.16531" style="fill-opacity: 0.1"/>
     <use xlink:href="#ma22a090271" x="166.670235" y="126.574162" style="fill-opacity: 0.1"/>
     <use xlink:href="#ma22a090271" x="172.955771" y="124.314712" style="fill-opacity: 0.1"/>
     <use xlink:href="#ma22a090271" x="169.170983" y="126.574162" style="fill-opacity: 0.1"/>
     <use xlink:href="#ma22a090271" x="179.40177" y="124.314712" style="fill-opacity: 0.1"/>
     <use xlink:href="#ma22a090271" x="166.543724" y="132.362658" style="fill-opacity: 0.1"/>
     <use xlink:href="#ma22a090271" x="173.059889" y="127.757683" style="fill-opacity: 0.1"/>
     <use xlink:href="#ma22a090271" x="170.397143" y="123.131191" style="fill-opacity: 0.1"/>
     <use xlink:href="#ma22a090271" x="175.478007" y="130.425984" style="fill-opacity: 0.1"/>
     <use xlink:href="#ma22a090271" x="172.017404" y="126.574162" style="fill-opacity: 0.1"/>
     <use xlink:href="#ma22a090271" x="179.903548" y="124.314712" style="fill-opacity: 0.1"/>
     <use xlink:href="#ma22a090271" x="164.821238" y="119.602149" style="fill-opacity: 0.1"/>
     <use xlink:href="#ma22a090271" x="178.301521" y="124.314712" style="fill-opacity: 0.1"/>
     <use xlink:href="#ma22a090271" x="169.377877" y="123.131191" style="fill-opacity: 0.1"/>
     <use xlink:href="#ma22a090271" x="170.221492" y="124.121047" style="fill-opacity: 0.1"/>
     <use xlink:href="#ma22a090271" x="181.979421" y="136.881557" style="fill-opacity: 0.1"/>
     <use xlink:href="#ma22a090271" x="185.414974" y="122.700823" style="fill-opacity: 0.1"/>
     <use xlink:href="#ma22a090271" x="171.27975" y="126.0362" style="fill-opacity: 0.1"/>
     <use xlink:href="#ma22a090271" x="182.566705" y="124.314712" style="fill-opacity: 0.1"/>
     <use xlink:href="#ma22a090271" x="166.57789" y="126.0362" style="fill-opacity: 0.1"/>
     <use xlink:href="#ma22a090271" x="178.301404" y="122.700823" style="fill-opacity: 0.1"/>
     <use xlink:href="#ma22a090271" x="180.89059" y="123.346378" style="fill-opacity: 0.1"/>
     <use xlink:href="#ma22a090271" x="167.727856" y="127.434903" style="fill-opacity: 0.1"/>
     <use xlink:href="#ma22a090271" x="173.700857" y="130.31839" style="fill-opacity: 0.1"/>
     <use xlink:href="#ma22a090271" x="184.02447" y="130.877874" style="fill-opacity: 0.1"/>
     <use xlink:href="#ma22a090271" x="166.568768" y="126.251382" style="fill-opacity: 0.1"/>
     <use xlink:href="#ma22a090271" x="164.677885" y="126.358975" style="fill-opacity: 0.1"/>
     <use xlink:href="#ma22a090271" x="177.341469" y="123.131191" style="fill-opacity: 0.1"/>
     <use xlink:href="#ma22a090271" x="173.911644" y="124.121047" style="fill-opacity: 0.1"/>
     <use xlink:href="#ma22a090271" x="181.944773" y="126.87542" style="fill-opacity: 0.1"/>
     <use xlink:href="#ma22a090271" x="184.704631" y="128.381721" style="fill-opacity: 0.1"/>
     <use xlink:href="#ma22a090271" x="170.894934" y="119.817335" style="fill-opacity: 0.1"/>
     <use xlink:href="#ma22a090271" x="172.869174" y="127.434903" style="fill-opacity: 0.1"/>
     <use xlink:href="#ma22a090271" x="175.034036" y="133.976548" style="fill-opacity: 0.1"/>
     <use xlink:href="#ma22a090271" x="177.28763" y="124.314712" style="fill-opacity: 0.1"/>
     <use xlink:href="#ma22a090271" x="186.040654" y="129.371577" style="fill-opacity: 0.1"/>
     <use xlink:href="#ma22a090271" x="179.702689" y="124.314712" style="fill-opacity: 0.1"/>
     <use xlink:href="#ma22a090271" x="172.894489" y="127.004535" style="fill-opacity: 0.1"/>
     <use xlink:href="#ma22a090271" x="170.112189" y="124.314712" style="fill-opacity: 0.1"/>
     <use xlink:href="#ma22a090271" x="185.17292" y="123.131191" style="fill-opacity: 0.1"/>
     <use xlink:href="#ma22a090271" x="167.275951" y="124.314712" style="fill-opacity: 0.1"/>
     <use xlink:href="#ma22a090271" x="180.21003" y="123.131191" style="fill-opacity: 0.1"/>
     <use xlink:href="#ma22a090271" x="184.747533" y="127.434903" style="fill-opacity: 0.1"/>
     <use xlink:href="#ma22a090271" x="178.980139" y="141.895378" style="fill-opacity: 0.1"/>
     <use xlink:href="#ma22a090271" x="173.635647" y="124.314712" style="fill-opacity: 0.1"/>
     <use xlink:href="#ma22a090271" x="168.679313" y="133.976548" style="fill-opacity: 0.1"/>
     <use xlink:href="#ma22a090271" x="172.406225" y="130.425984" style="fill-opacity: 0.1"/>
     <use xlink:href="#ma22a090271" x="179.913751" y="123.131191" style="fill-opacity: 0.1"/>
     <use xlink:href="#ma22a090271" x="178.64543" y="127.434903" style="fill-opacity: 0.1"/>
     <use xlink:href="#ma22a090271" x="184.804628" y="127.004535" style="fill-opacity: 0.1"/>
     <use xlink:href="#ma22a090271" x="183.452745" y="124.314712" style="fill-opacity: 0.1"/>
     <use xlink:href="#ma22a090271" x="182.331025" y="126.251382" style="fill-opacity: 0.1"/>
     <use xlink:href="#ma22a090271" x="184.439085" y="127.84376" style="fill-opacity: 0.1"/>
     <use xlink:href="#ma22a090271" x="170.390228" y="126.251382" style="fill-opacity: 0.1"/>
     <use xlink:href="#ma22a090271" x="172.451532" y="127.434903" style="fill-opacity: 0.1"/>
     <use xlink:href="#ma22a090271" x="172.680927" y="131.523433" style="fill-opacity: 0.1"/>
     <use xlink:href="#ma22a090271" x="176.674881" y="130.425984" style="fill-opacity: 0.1"/>
     <use xlink:href="#ma22a090271" x="179.058725" y="126.574162" style="fill-opacity: 0.1"/>
     <use xlink:href="#ma22a090271" x="170.619826" y="124.314712" style="fill-opacity: 0.1"/>
     <use xlink:href="#ma22a090271" x="164.708103" y="126.87542" style="fill-opacity: 0.1"/>
     <use xlink:href="#ma22a090271" x="173.108477" y="124.314712" style="fill-opacity: 0.1"/>
    </g>
   </g>
   <g id="text_4">
    <!-- *** -->
    <g transform="translate(108.037145 109.45044) scale(0.16 -0.16)">
     <defs>
      <path id="DejaVuSans-2a" d="M 3009 3897 
L 1888 3291 
L 3009 2681 
L 2828 2375 
L 1778 3009 
L 1778 1831 
L 1422 1831 
L 1422 3009 
L 372 2375 
L 191 2681 
L 1313 3291 
L 191 3897 
L 372 4206 
L 1422 3572 
L 1422 4750 
L 1778 4750 
L 1778 3572 
L 2828 4206 
L 3009 3897 
z
" transform="scale(0.015625)"/>
     </defs>
     <use xlink:href="#DejaVuSans-2a"/>
     <use xlink:href="#DejaVuSans-2a" transform="translate(50 0)"/>
     <use xlink:href="#DejaVuSans-2a" transform="translate(100 0)"/>
    </g>
   </g>
   <g id="text_5">
    <!-- *** -->
    <g transform="translate(80.386867 87.18302) scale(0.16 -0.16)">
     <use xlink:href="#DejaVuSans-2a"/>
     <use xlink:href="#DejaVuSans-2a" transform="translate(50 0)"/>
     <use xlink:href="#DejaVuSans-2a" transform="translate(100 0)"/>
    </g>
   </g>
   <g id="text_6">
    <!-- *** -->
    <g transform="translate(135.687423 82.044391) scale(0.16 -0.16)">
     <use xlink:href="#DejaVuSans-2a"/>
     <use xlink:href="#DejaVuSans-2a" transform="translate(50 0)"/>
     <use xlink:href="#DejaVuSans-2a" transform="translate(100 0)"/>
    </g>
   </g>
   <g id="text_7">
    <!-- Semantic -->
    <g transform="translate(73.132457 29.437125) scale(0.2 -0.2)">
     <defs>
      <path id="DejaVuSans-53" d="M 3425 4513 
L 3425 3897 
Q 3066 4069 2747 4153 
Q 2428 4238 2131 4238 
Q 1616 4238 1336 4038 
Q 1056 3838 1056 3469 
Q 1056 3159 1242 3001 
Q 1428 2844 1947 2747 
L 2328 2669 
Q 3034 2534 3370 2195 
Q 3706 1856 3706 1288 
Q 3706 609 3251 259 
Q 2797 -91 1919 -91 
Q 1588 -91 1214 -16 
Q 841 59 441 206 
L 441 856 
Q 825 641 1194 531 
Q 1563 422 1919 422 
Q 2459 422 2753 634 
Q 3047 847 3047 1241 
Q 3047 1584 2836 1778 
Q 2625 1972 2144 2069 
L 1759 2144 
Q 1053 2284 737 2584 
Q 422 2884 422 3419 
Q 422 4038 858 4394 
Q 1294 4750 2059 4750 
Q 2388 4750 2728 4690 
Q 3069 4631 3425 4513 
z
" transform="scale(0.015625)"/>
     </defs>
     <use xlink:href="#DejaVuSans-53"/>
     <use xlink:href="#DejaVuSans-65" transform="translate(63.476562 0)"/>
     <use xlink:href="#DejaVuSans-6d" transform="translate(125 0)"/>
     <use xlink:href="#DejaVuSans-61" transform="translate(222.412109 0)"/>
     <use xlink:href="#DejaVuSans-6e" transform="translate(283.691406 0)"/>
     <use xlink:href="#DejaVuSans-74" transform="translate(347.070312 0)"/>
     <use xlink:href="#DejaVuSans-69" transform="translate(386.279297 0)"/>
     <use xlink:href="#DejaVuSans-63" transform="translate(414.0625 0)"/>
    </g>
    <!-- Out-Of-Distribution -->
    <g transform="translate(25.237145 51.83275) scale(0.2 -0.2)">
     <defs>
      <path id="DejaVuSans-4f" d="M 2522 4238 
Q 1834 4238 1429 3725 
Q 1025 3213 1025 2328 
Q 1025 1447 1429 934 
Q 1834 422 2522 422 
Q 3209 422 3611 934 
Q 4013 1447 4013 2328 
Q 4013 3213 3611 3725 
Q 3209 4238 2522 4238 
z
M 2522 4750 
Q 3503 4750 4090 4092 
Q 4678 3434 4678 2328 
Q 4678 1225 4090 567 
Q 3503 -91 2522 -91 
Q 1538 -91 948 565 
Q 359 1222 359 2328 
Q 359 3434 948 4092 
Q 1538 4750 2522 4750 
z
" transform="scale(0.015625)"/>
      <path id="DejaVuSans-75" d="M 544 1381 
L 544 3500 
L 1119 3500 
L 1119 1403 
Q 1119 906 1312 657 
Q 1506 409 1894 409 
Q 2359 409 2629 706 
Q 2900 1003 2900 1516 
L 2900 3500 
L 3475 3500 
L 3475 0 
L 2900 0 
L 2900 538 
Q 2691 219 2414 64 
Q 2138 -91 1772 -91 
Q 1169 -91 856 284 
Q 544 659 544 1381 
z
M 1991 3584 
L 1991 3584 
z
" transform="scale(0.015625)"/>
      <path id="DejaVuSans-66" d="M 2375 4863 
L 2375 4384 
L 1825 4384 
Q 1516 4384 1395 4259 
Q 1275 4134 1275 3809 
L 1275 3500 
L 2222 3500 
L 2222 3053 
L 1275 3053 
L 1275 0 
L 697 0 
L 697 3053 
L 147 3053 
L 147 3500 
L 697 3500 
L 697 3744 
Q 697 4328 969 4595 
Q 1241 4863 1831 4863 
L 2375 4863 
z
" transform="scale(0.015625)"/>
      <path id="DejaVuSans-44" d="M 1259 4147 
L 1259 519 
L 2022 519 
Q 2988 519 3436 956 
Q 3884 1394 3884 2338 
Q 3884 3275 3436 3711 
Q 2988 4147 2022 4147 
L 1259 4147 
z
M 628 4666 
L 1925 4666 
Q 3281 4666 3915 4102 
Q 4550 3538 4550 2338 
Q 4550 1131 3912 565 
Q 3275 0 1925 0 
L 628 0 
L 628 4666 
z
" transform="scale(0.015625)"/>
     </defs>
     <use xlink:href="#DejaVuSans-4f"/>
     <use xlink:href="#DejaVuSans-75" transform="translate(78.710938 0)"/>
     <use xlink:href="#DejaVuSans-74" transform="translate(142.089844 0)"/>
     <use xlink:href="#DejaVuSans-2d" transform="translate(181.298828 0)"/>
     <use xlink:href="#DejaVuSans-4f" transform="translate(220.132812 0)"/>
     <use xlink:href="#DejaVuSans-66" transform="translate(298.84375 0)"/>
     <use xlink:href="#DejaVuSans-2d" transform="translate(328.548828 0)"/>
     <use xlink:href="#DejaVuSans-44" transform="translate(364.632812 0)"/>
     <use xlink:href="#DejaVuSans-69" transform="translate(441.634766 0)"/>
     <use xlink:href="#DejaVuSans-73" transform="translate(469.417969 0)"/>
     <use xlink:href="#DejaVuSans-74" transform="translate(521.517578 0)"/>
     <use xlink:href="#DejaVuSans-72" transform="translate(560.726562 0)"/>
     <use xlink:href="#DejaVuSans-69" transform="translate(601.839844 0)"/>
     <use xlink:href="#DejaVuSans-62" transform="translate(629.623047 0)"/>
     <use xlink:href="#DejaVuSans-75" transform="translate(693.099609 0)"/>
     <use xlink:href="#DejaVuSans-74" transform="translate(756.478516 0)"/>
     <use xlink:href="#DejaVuSans-69" transform="translate(795.6875 0)"/>
     <use xlink:href="#DejaVuSans-6f" transform="translate(823.470703 0)"/>
     <use xlink:href="#DejaVuSans-6e" transform="translate(884.652344 0)"/>
    </g>
    <!--  -->
    <g transform="translate(120.037145 74.228375) scale(0.2 -0.2)"/>
    <!--  -->
    <g transform="translate(120.037145 96.624) scale(0.2 -0.2)"/>
   </g>
   <g id="LineCollection_1">
    <path d="M 64.73659 134.699971 
L 64.73659 133.764837 
" clip-path="url(#p7dda7e25e4)" style="fill: none; stroke: #000000; stroke-width: 2"/>
    <path d="M 120.037145 165.596367 
L 120.037145 165.137785 
" clip-path="url(#p7dda7e25e4)" style="fill: none; stroke: #000000; stroke-width: 2"/>
    <path d="M 175.3377 126.317902 
L 175.3377 125.624521 
" clip-path="url(#p7dda7e25e4)" style="fill: none; stroke: #000000; stroke-width: 2"/>
   </g>
   <g id="line2d_7">
    <defs>
     <path id="mef25d60dee" d="M 5 0 
L -5 -0 
" style="stroke: #000000"/>
    </defs>
    <g clip-path="url(#p7dda7e25e4)">
     <use xlink:href="#mef25d60dee" x="64.73659" y="134.699971" style="stroke: #000000"/>
     <use xlink:href="#mef25d60dee" x="120.037145" y="165.596367" style="stroke: #000000"/>
     <use xlink:href="#mef25d60dee" x="175.3377" y="126.317902" style="stroke: #000000"/>
    </g>
   </g>
   <g id="line2d_8">
    <g clip-path="url(#p7dda7e25e4)">
     <use xlink:href="#mef25d60dee" x="64.73659" y="133.764837" style="stroke: #000000"/>
     <use xlink:href="#mef25d60dee" x="120.037145" y="165.137785" style="stroke: #000000"/>
     <use xlink:href="#mef25d60dee" x="175.3377" y="125.624521" style="stroke: #000000"/>
    </g>
   </g>
   <g id="line2d_9">
    <defs>
     <path id="m52732a5ac6" d="M 0 3 
C 0.795609 3 1.55874 2.683901 2.12132 2.12132 
C 2.683901 1.55874 3 0.795609 3 0 
C 3 -0.795609 2.683901 -1.55874 2.12132 -2.12132 
C 1.55874 -2.683901 0.795609 -3 0 -3 
C -0.795609 -3 -1.55874 -2.683901 -2.12132 -2.12132 
C -2.683901 -1.55874 -3 -0.795609 -3 0 
C -3 0.795609 -2.683901 1.55874 -2.12132 2.12132 
C -1.55874 2.683901 -0.795609 3 0 3 
z
" style="stroke: #000000"/>
    </defs>
    <g clip-path="url(#p7dda7e25e4)">
     <use xlink:href="#m52732a5ac6" x="64.73659" y="134.232404" style="stroke: #000000"/>
     <use xlink:href="#m52732a5ac6" x="120.037145" y="165.367076" style="stroke: #000000"/>
     <use xlink:href="#m52732a5ac6" x="175.3377" y="125.971211" style="stroke: #000000"/>
    </g>
   </g>
  </g>
 </g>
 <defs>
  <clipPath id="p7dda7e25e4">
   <rect x="34.87429" y="102.624" width="170.32571" height="89.926081"/>
  </clipPath>
 </defs>
</svg>
