<?xml version="1.0" encoding="utf-8" standalone="no"?>
<!DOCTYPE svg PUBLIC "-//W3C//DTD SVG 1.1//EN"
  "http://www.w3.org/Graphics/SVG/1.1/DTD/svg11.dtd">
<svg xmlns:xlink="http://www.w3.org/1999/xlink" width="216pt" height="288pt" viewBox="0 0 216 288" xmlns="http://www.w3.org/2000/svg" version="1.1">
 <metadata>
  <rdf:RDF xmlns:dc="http://purl.org/dc/elements/1.1/" xmlns:cc="http://creativecommons.org/ns#" xmlns:rdf="http://www.w3.org/1999/02/22-rdf-syntax-ns#">
   <cc:Work>
    <dc:type rdf:resource="http://purl.org/dc/dcmitype/StillImage"/>
    <dc:date>2025-09-24T18:35:14.237083</dc:date>
    <dc:format>image/svg+xml</dc:format>
    <dc:creator>
     <cc:Agent>
      <dc:title>Matplotlib v3.10.1, https://matplotlib.org/</dc:title>
     </cc:Agent>
    </dc:creator>
   </cc:Work>
  </rdf:RDF>
 </metadata>
 <defs>
  <style type="text/css">*{stroke-linejoin: round; stroke-linecap: butt}</style>
 </defs>
 <g id="figure_1">
  <g id="patch_1">
   <path d="M 0 288 
L 216 288 
L 216 0 
L 0 0 
L 0 288 
z
" style="fill: none"/>
  </g>
  <g id="axes_1">
   <g id="patch_2">
    <path d="M 34.87429 192.550081 
L 205.2 192.550081 
L 205.2 102.624 
L 34.87429 102.624 
L 34.87429 192.550081 
z
" style="fill: none"/>
   </g>
   <g id="FillBetweenPolyCollection_1">
    <defs>
     <path id="m6baa9da4b2" d="M 65.354534 -137.131379 
L 64.118645 -137.131379 
L 64.02956 -137.522191 
L 63.925304 -137.913003 
L 63.802101 -138.303815 
L 63.656418 -138.694627 
L 63.485453 -139.085439 
L 63.287556 -139.476251 
L 63.062527 -139.867063 
L 62.811709 -140.257875 
L 62.537851 -140.648687 
L 62.24474 -141.039499 
L 61.936663 -141.43031 
L 61.617766 -141.821122 
L 61.291403 -142.211934 
L 60.959586 -142.602746 
L 60.622596 -142.993558 
L 60.278828 -143.38437 
L 59.924861 -143.775182 
L 59.555761 -144.165994 
L 59.165548 -144.556806 
L 58.747782 -144.947618 
L 58.296178 -145.33843 
L 57.805223 -145.729242 
L 57.270706 -146.120053 
L 56.690156 -146.510865 
L 56.063161 -146.901677 
L 55.39155 -147.292489 
L 54.679443 -147.683301 
L 53.933169 -148.074113 
L 53.161039 -148.464925 
L 52.372999 -148.855737 
L 51.580143 -149.246549 
L 50.794137 -149.637361 
L 50.02656 -150.028173 
L 49.288235 -150.418984 
L 48.588606 -150.809796 
L 47.935234 -151.200608 
L 47.33348 -151.59142 
L 46.786422 -151.982232 
L 46.295006 -152.373044 
L 45.858401 -152.763856 
L 45.474473 -153.154668 
L 45.140287 -153.54548 
L 44.852522 -153.936292 
L 44.60771 -154.327104 
L 44.402281 -154.717916 
L 44.232404 -155.108727 
L 44.093725 -155.499539 
L 43.981081 -155.890351 
L 43.888332 -156.281163 
L 43.808395 -156.671975 
L 43.733556 -157.062787 
L 43.656051 -157.453599 
L 43.568894 -157.844411 
L 43.466833 -158.235223 
L 43.347338 -158.626035 
L 43.211462 -159.016847 
L 43.06444 -159.407659 
L 42.915933 -159.79847 
L 42.779799 -160.189282 
L 42.673388 -160.580094 
L 42.616367 -160.970906 
L 42.629184 -161.361718 
L 42.7313 -161.75253 
L 42.939403 -162.143342 
L 43.265823 -162.534154 
L 43.717333 -162.924966 
L 44.294514 -163.315778 
L 44.991755 -163.70659 
L 45.797882 -164.097402 
L 46.697309 -164.488213 
L 47.671556 -164.879025 
L 48.700901 -165.269837 
L 49.765951 -165.660649 
L 50.848933 -166.051461 
L 51.934554 -166.442273 
L 53.010378 -166.833085 
L 54.066715 -167.223897 
L 55.096124 -167.614709 
L 56.092665 -168.005521 
L 57.051087 -168.396333 
L 57.966119 -168.787145 
L 58.832007 -169.177956 
L 59.642383 -169.568768 
L 60.39048 -169.95958 
L 61.069653 -170.350392 
L 61.674077 -170.741204 
L 62.199513 -171.132016 
L 62.64398 -171.522828 
L 63.008239 -171.91364 
L 63.295991 -172.304452 
L 63.513774 -172.695264 
L 63.670565 -173.086076 
L 63.777139 -173.476888 
L 63.845266 -173.867699 
L 63.886835 -174.258511 
L 63.913005 -174.649323 
L 63.933459 -175.040135 
L 63.955854 -175.430947 
L 63.985499 -175.821759 
L 65.487681 -175.821759 
L 65.487681 -175.821759 
L 65.517326 -175.430947 
L 65.539721 -175.040135 
L 65.560174 -174.649323 
L 65.586344 -174.258511 
L 65.627913 -173.867699 
L 65.69604 -173.476888 
L 65.802614 -173.086076 
L 65.959405 -172.695264 
L 66.177188 -172.304452 
L 66.46494 -171.91364 
L 66.829199 -171.522828 
L 67.273667 -171.132016 
L 67.799102 -170.741204 
L 68.403527 -170.350392 
L 69.082699 -169.95958 
L 69.830797 -169.568768 
L 70.641172 -169.177956 
L 71.50706 -168.787145 
L 72.422092 -168.396333 
L 73.380515 -168.005521 
L 74.377055 -167.614709 
L 75.406464 -167.223897 
L 76.462801 -166.833085 
L 77.538625 -166.442273 
L 78.624247 -166.051461 
L 79.707228 -165.660649 
L 80.772279 -165.269837 
L 81.801624 -164.879025 
L 82.775871 -164.488213 
L 83.675298 -164.097402 
L 84.481424 -163.70659 
L 85.178666 -163.315778 
L 85.755847 -162.924966 
L 86.207356 -162.534154 
L 86.533776 -162.143342 
L 86.74188 -161.75253 
L 86.843995 -161.361718 
L 86.856812 -160.970906 
L 86.799791 -160.580094 
L 86.69338 -160.189282 
L 86.557246 -159.79847 
L 86.408739 -159.407659 
L 86.261718 -159.016847 
L 86.125841 -158.626035 
L 86.006346 -158.235223 
L 85.904286 -157.844411 
L 85.817128 -157.453599 
L 85.739624 -157.062787 
L 85.664784 -156.671975 
L 85.584848 -156.281163 
L 85.492098 -155.890351 
L 85.379454 -155.499539 
L 85.240775 -155.108727 
L 85.070898 -154.717916 
L 84.865469 -154.327104 
L 84.620658 -153.936292 
L 84.332892 -153.54548 
L 83.998706 -153.154668 
L 83.614778 -152.763856 
L 83.178173 -152.373044 
L 82.686757 -151.982232 
L 82.1397 -151.59142 
L 81.537946 -151.200608 
L 80.884573 -150.809796 
L 80.184944 -150.418984 
L 79.44662 -150.028173 
L 78.679043 -149.637361 
L 77.893036 -149.246549 
L 77.10018 -148.855737 
L 76.31214 -148.464925 
L 75.54001 -148.074113 
L 74.793736 -147.683301 
L 74.08163 -147.292489 
L 73.410019 -146.901677 
L 72.783024 -146.510865 
L 72.202474 -146.120053 
L 71.667956 -145.729242 
L 71.177001 -145.33843 
L 70.725397 -144.947618 
L 70.307631 -144.556806 
L 69.917419 -144.165994 
L 69.548319 -143.775182 
L 69.194351 -143.38437 
L 68.850583 -142.993558 
L 68.513593 -142.602746 
L 68.181776 -142.211934 
L 67.855413 -141.821122 
L 67.536516 -141.43031 
L 67.22844 -141.039499 
L 66.935328 -140.648687 
L 66.66147 -140.257875 
L 66.410653 -139.867063 
L 66.185624 -139.476251 
L 65.987726 -139.085439 
L 65.816761 -138.694627 
L 65.671078 -138.303815 
L 65.547875 -137.913003 
L 65.443619 -137.522191 
L 65.354534 -137.131379 
z
" style="stroke: #323232; stroke-opacity: 0.4; stroke-width: 1.25"/>
    </defs>
    <g clip-path="url(#p48bdc55b8e)">
     <use xlink:href="#m6baa9da4b2" x="0" y="288" style="fill: #dc9238; fill-opacity: 0.4; stroke: #323232; stroke-opacity: 0.4; stroke-width: 1.25"/>
    </g>
   </g>
   <g id="FillBetweenPolyCollection_2">
    <defs>
     <path id="m37f68dfae0" d="M 124.862975 -114.386256 
L 115.211315 -114.386256 
L 114.743642 -114.609049 
L 114.270178 -114.831842 
L 113.794043 -115.054636 
L 113.317614 -115.277429 
L 112.842316 -115.500222 
L 112.368471 -115.723015 
L 111.895221 -115.945808 
L 111.420536 -116.168602 
L 110.941309 -116.391395 
L 110.45356 -116.614188 
L 109.95271 -116.836981 
L 109.433944 -117.059775 
L 108.892619 -117.282568 
L 108.324702 -117.505361 
L 107.727209 -117.728154 
L 107.098608 -117.950947 
L 106.439171 -118.173741 
L 105.75123 -118.396534 
L 105.03933 -118.619327 
L 104.310263 -118.84212 
L 103.572975 -119.064913 
L 102.838339 -119.287707 
L 102.118824 -119.5105 
L 101.42805 -119.733293 
L 100.780275 -119.956086 
L 100.189825 -120.178879 
L 99.670504 -120.401673 
L 99.235005 -120.624466 
L 98.894374 -120.847259 
L 98.657521 -121.070052 
L 98.530835 -121.292845 
L 98.517895 -121.515639 
L 98.619309 -121.738432 
L 98.83267 -121.961225 
L 99.152642 -122.184018 
L 99.571158 -122.406812 
L 100.077717 -122.629605 
L 100.659772 -122.852398 
L 101.303162 -123.075191 
L 101.992598 -123.297984 
L 102.712146 -123.520778 
L 103.445701 -123.743571 
L 104.177433 -123.966364 
L 104.892175 -124.189157 
L 105.575757 -124.41195 
L 106.215269 -124.634744 
L 106.799254 -124.857537 
L 107.317833 -125.08033 
L 107.762766 -125.303123 
L 108.127462 -125.525916 
L 108.406947 -125.74871 
L 108.597794 -125.971503 
L 108.698041 -126.194296 
L 108.70709 -126.417089 
L 108.625613 -126.639883 
L 108.45546 -126.862676 
L 108.199583 -127.085469 
L 107.861979 -127.308262 
L 107.447643 -127.531055 
L 106.96255 -127.753849 
L 106.413646 -127.976642 
L 105.808851 -128.199435 
L 105.157065 -128.422228 
L 104.468174 -128.645021 
L 103.753035 -128.867815 
L 103.023449 -129.090608 
L 102.292084 -129.313401 
L 101.572375 -129.536194 
L 100.878356 -129.758987 
L 100.224452 -129.981781 
L 99.625202 -130.204574 
L 99.094941 -130.427367 
L 98.647426 -130.65016 
L 98.295435 -130.872953 
L 98.050346 -131.095747 
L 97.921722 -131.31854 
L 97.916923 -131.541333 
L 98.040769 -131.764126 
L 98.295283 -131.98692 
L 98.679524 -132.209713 
L 99.189542 -132.432506 
L 99.818453 -132.655299 
L 100.556633 -132.878092 
L 101.392044 -133.100886 
L 102.310648 -133.323679 
L 103.296914 -133.546472 
L 104.33437 -133.769265 
L 105.406183 -133.992058 
L 106.495718 -134.214852 
L 107.58707 -134.437645 
L 108.665511 -134.660438 
L 109.717862 -134.883231 
L 110.73276 -135.106024 
L 111.700818 -135.328818 
L 112.614686 -135.551611 
L 113.469016 -135.774404 
L 114.260355 -135.997197 
L 114.98697 -136.219991 
L 115.64864 -136.442784 
L 124.42565 -136.442784 
L 124.42565 -136.442784 
L 125.087319 -136.219991 
L 125.813935 -135.997197 
L 126.605274 -135.774404 
L 127.459604 -135.551611 
L 128.373472 -135.328818 
L 129.34153 -135.106024 
L 130.356428 -134.883231 
L 131.408779 -134.660438 
L 132.48722 -134.437645 
L 133.578572 -134.214852 
L 134.668107 -133.992058 
L 135.739919 -133.769265 
L 136.777376 -133.546472 
L 137.763641 -133.323679 
L 138.682245 -133.100886 
L 139.517656 -132.878092 
L 140.255837 -132.655299 
L 140.884748 -132.432506 
L 141.394766 -132.209713 
L 141.779007 -131.98692 
L 142.033521 -131.764126 
L 142.157367 -131.541333 
L 142.152568 -131.31854 
L 142.023944 -131.095747 
L 141.778855 -130.872953 
L 141.426864 -130.65016 
L 140.979349 -130.427367 
L 140.449088 -130.204574 
L 139.849838 -129.981781 
L 139.195934 -129.758987 
L 138.501915 -129.536194 
L 137.782206 -129.313401 
L 137.050841 -129.090608 
L 136.321254 -128.867815 
L 135.606116 -128.645021 
L 134.917225 -128.422228 
L 134.265439 -128.199435 
L 133.660644 -127.976642 
L 133.11174 -127.753849 
L 132.626647 -127.531055 
L 132.212311 -127.308262 
L 131.874707 -127.085469 
L 131.61883 -126.862676 
L 131.448677 -126.639883 
L 131.3672 -126.417089 
L 131.376249 -126.194296 
L 131.476496 -125.971503 
L 131.667343 -125.74871 
L 131.946828 -125.525916 
L 132.311524 -125.303123 
L 132.756457 -125.08033 
L 133.275035 -124.857537 
L 133.859021 -124.634744 
L 134.498533 -124.41195 
L 135.182115 -124.189157 
L 135.896857 -123.966364 
L 136.628589 -123.743571 
L 137.362144 -123.520778 
L 138.081692 -123.297984 
L 138.771128 -123.075191 
L 139.414518 -122.852398 
L 139.996572 -122.629605 
L 140.503132 -122.406812 
L 140.921648 -122.184018 
L 141.24162 -121.961225 
L 141.454981 -121.738432 
L 141.556394 -121.515639 
L 141.543455 -121.292845 
L 141.416769 -121.070052 
L 141.179916 -120.847259 
L 140.839285 -120.624466 
L 140.403786 -120.401673 
L 139.884464 -120.178879 
L 139.294015 -119.956086 
L 138.64624 -119.733293 
L 137.955466 -119.5105 
L 137.235951 -119.287707 
L 136.501315 -119.064913 
L 135.764027 -118.84212 
L 135.03496 -118.619327 
L 134.32306 -118.396534 
L 133.635118 -118.173741 
L 132.975682 -117.950947 
L 132.347081 -117.728154 
L 131.749587 -117.505361 
L 131.181671 -117.282568 
L 130.640346 -117.059775 
L 130.12158 -116.836981 
L 129.62073 -116.614188 
L 129.13298 -116.391395 
L 128.653754 -116.168602 
L 128.179068 -115.945808 
L 127.705819 -115.723015 
L 127.231974 -115.500222 
L 126.756676 -115.277429 
L 126.280247 -115.054636 
L 125.804112 -114.831842 
L 125.330647 -114.609049 
L 124.862975 -114.386256 
z
" style="stroke: #323232; stroke-opacity: 0.4; stroke-width: 1.25"/>
    </defs>
    <g clip-path="url(#p48bdc55b8e)">
     <use xlink:href="#m37f68dfae0" x="0" y="288" style="fill: #159152; fill-opacity: 0.4; stroke: #323232; stroke-opacity: 0.4; stroke-width: 1.25"/>
    </g>
   </g>
   <g id="FillBetweenPolyCollection_3">
    <defs>
     <path id="m626dfd12e5" d="M 175.796859 -144.835024 
L 174.878541 -144.835024 
L 174.842357 -145.186059 
L 174.810856 -145.537094 
L 174.784314 -145.888129 
L 174.762566 -146.239164 
L 174.745009 -146.590199 
L 174.730625 -146.941235 
L 174.718018 -147.29227 
L 174.705425 -147.643305 
L 174.69072 -147.99434 
L 174.671387 -148.345375 
L 174.644474 -148.69641 
L 174.606544 -149.047446 
L 174.553649 -149.398481 
L 174.481353 -149.749516 
L 174.384824 -150.100551 
L 174.25903 -150.451586 
L 174.099035 -150.802621 
L 173.900393 -151.153656 
L 173.659618 -151.504692 
L 173.374694 -151.855727 
L 173.04555 -152.206762 
L 172.674469 -152.557797 
L 172.26633 -152.908832 
L 171.82865 -153.259867 
L 171.371383 -153.610903 
L 170.906455 -153.961938 
L 170.447066 -154.312973 
L 170.006837 -154.664008 
L 169.598863 -155.015043 
L 169.234827 -155.366078 
L 168.924245 -155.717114 
L 168.673947 -156.068149 
L 168.487827 -156.419184 
L 168.366838 -156.770219 
L 168.309172 -157.121254 
L 168.310526 -157.472289 
L 168.364365 -157.823325 
L 168.462095 -158.17436 
L 168.59313 -158.525395 
L 168.744871 -158.87643 
L 168.902668 -159.227465 
L 169.049862 -159.5785 
L 169.168 -159.929535 
L 169.237294 -160.280571 
L 169.237347 -160.631606 
L 169.14813 -160.982641 
L 168.951137 -161.333676 
L 168.6306 -161.684711 
L 168.174663 -162.035746 
L 167.576378 -162.386782 
L 166.834459 -162.737817 
L 165.953728 -163.088852 
L 164.945269 -163.439887 
L 163.826304 -163.790922 
L 162.619856 -164.141957 
L 161.354209 -164.492993 
L 160.062189 -164.844028 
L 158.780236 -165.195063 
L 157.547198 -165.546098 
L 156.402818 -165.897133 
L 155.385893 -166.248168 
L 154.532183 -166.599204 
L 153.872216 -166.950239 
L 153.429225 -167.301274 
L 153.217478 -167.652309 
L 153.241241 -168.003344 
L 153.494557 -168.354379 
L 153.961867 -168.705414 
L 154.619422 -169.05645 
L 155.43726 -169.407485 
L 156.381537 -169.75852 
L 157.416908 -170.109555 
L 158.508766 -170.46059 
L 159.625145 -170.811625 
L 160.738206 -171.162661 
L 161.82527 -171.513696 
L 162.869374 -171.864731 
L 163.859392 -172.215766 
L 164.789713 -172.566801 
L 165.659548 -172.917836 
L 166.471895 -173.268872 
L 167.232272 -173.619907 
L 167.947339 -173.970942 
L 168.62355 -174.321977 
L 169.266019 -174.673012 
L 169.877709 -175.024047 
L 170.459087 -175.375083 
L 171.008248 -175.726118 
L 171.521482 -176.077153 
L 171.994177 -176.428188 
L 172.421876 -176.779223 
L 172.801305 -177.130258 
L 173.13118 -177.481293 
L 173.412658 -177.832329 
L 173.649362 -178.183364 
L 173.846993 -178.534399 
L 174.012623 -178.885434 
L 174.153815 -179.236469 
L 174.277736 -179.587504 
L 176.397664 -179.587504 
L 176.397664 -179.587504 
L 176.521585 -179.236469 
L 176.662778 -178.885434 
L 176.828408 -178.534399 
L 177.026038 -178.183364 
L 177.262742 -177.832329 
L 177.544221 -177.481293 
L 177.874095 -177.130258 
L 178.253524 -176.779223 
L 178.681223 -176.428188 
L 179.153918 -176.077153 
L 179.667152 -175.726118 
L 180.216313 -175.375083 
L 180.797692 -175.024047 
L 181.409382 -174.673012 
L 182.05185 -174.321977 
L 182.728062 -173.970942 
L 183.443128 -173.619907 
L 184.203506 -173.268872 
L 185.015852 -172.917836 
L 185.885687 -172.566801 
L 186.816009 -172.215766 
L 187.806026 -171.864731 
L 188.850131 -171.513696 
L 189.937194 -171.162661 
L 191.050255 -170.811625 
L 192.166634 -170.46059 
L 193.258492 -170.109555 
L 194.293864 -169.75852 
L 195.23814 -169.407485 
L 196.055979 -169.05645 
L 196.713533 -168.705414 
L 197.180844 -168.354379 
L 197.434159 -168.003344 
L 197.457922 -167.652309 
L 197.246175 -167.301274 
L 196.803185 -166.950239 
L 196.143218 -166.599204 
L 195.289507 -166.248168 
L 194.272582 -165.897133 
L 193.128202 -165.546098 
L 191.895164 -165.195063 
L 190.613212 -164.844028 
L 189.321192 -164.492993 
L 188.055544 -164.141957 
L 186.849096 -163.790922 
L 185.730132 -163.439887 
L 184.721672 -163.088852 
L 183.840942 -162.737817 
L 183.099022 -162.386782 
L 182.500738 -162.035746 
L 182.0448 -161.684711 
L 181.724263 -161.333676 
L 181.52727 -160.982641 
L 181.438054 -160.631606 
L 181.438106 -160.280571 
L 181.5074 -159.929535 
L 181.625538 -159.5785 
L 181.772732 -159.227465 
L 181.930529 -158.87643 
L 182.08227 -158.525395 
L 182.213305 -158.17436 
L 182.311036 -157.823325 
L 182.364875 -157.472289 
L 182.366229 -157.121254 
L 182.308562 -156.770219 
L 182.187573 -156.419184 
L 182.001454 -156.068149 
L 181.751156 -155.717114 
L 181.440573 -155.366078 
L 181.076537 -155.015043 
L 180.668564 -154.664008 
L 180.228334 -154.312973 
L 179.768946 -153.961938 
L 179.304017 -153.610903 
L 178.84675 -153.259867 
L 178.409071 -152.908832 
L 178.000931 -152.557797 
L 177.62985 -152.206762 
L 177.300707 -151.855727 
L 177.015782 -151.504692 
L 176.775008 -151.153656 
L 176.576365 -150.802621 
L 176.41637 -150.451586 
L 176.290577 -150.100551 
L 176.194048 -149.749516 
L 176.121751 -149.398481 
L 176.068857 -149.047446 
L 176.030926 -148.69641 
L 176.004013 -148.345375 
L 175.98468 -147.99434 
L 175.969976 -147.643305 
L 175.957382 -147.29227 
L 175.944775 -146.941235 
L 175.930392 -146.590199 
L 175.912834 -146.239164 
L 175.891086 -145.888129 
L 175.864544 -145.537094 
L 175.833043 -145.186059 
L 175.796859 -144.835024 
z
" style="stroke: #323232; stroke-opacity: 0.4; stroke-width: 1.25"/>
    </defs>
    <g clip-path="url(#p48bdc55b8e)">
     <use xlink:href="#m626dfd12e5" x="0" y="288" style="fill: #c0c0c0; fill-opacity: 0.4; stroke: #323232; stroke-opacity: 0.4; stroke-width: 1.25"/>
    </g>
   </g>
   <g id="matplotlib.axis_1">
    <g id="xtick_1">
     <g id="line2d_1">
      <defs>
       <path id="me110584f0c" d="M 0 0 
L 0 3.5 
" style="stroke: #000000; stroke-width: 0.8"/>
      </defs>
      <g>
       <use xlink:href="#me110584f0c" x="64.73659" y="192.550081" style="stroke: #000000; stroke-width: 0.8"/>
      </g>
     </g>
     <g id="text_1">
      <!-- MTL-sensory -->
      <g transform="translate(18.273489 267.913467) rotate(-30) scale(0.18 -0.18)">
       <defs>
        <path id="DejaVuSans-4d" d="M 628 4666 
L 1569 4666 
L 2759 1491 
L 3956 4666 
L 4897 4666 
L 4897 0 
L 4281 0 
L 4281 4097 
L 3078 897 
L 2444 897 
L 1241 4097 
L 1241 0 
L 628 0 
L 628 4666 
z
" transform="scale(0.015625)"/>
        <path id="DejaVuSans-54" d="M -19 4666 
L 3928 4666 
L 3928 4134 
L 2272 4134 
L 2272 0 
L 1638 0 
L 1638 4134 
L -19 4134 
L -19 4666 
z
" transform="scale(0.015625)"/>
        <path id="DejaVuSans-4c" d="M 628 4666 
L 1259 4666 
L 1259 531 
L 3531 531 
L 3531 0 
L 628 0 
L 628 4666 
z
" transform="scale(0.015625)"/>
        <path id="DejaVuSans-2d" d="M 313 2009 
L 1997 2009 
L 1997 1497 
L 313 1497 
L 313 2009 
z
" transform="scale(0.015625)"/>
        <path id="DejaVuSans-73" d="M 2834 3397 
L 2834 2853 
Q 2591 2978 2328 3040 
Q 2066 3103 1784 3103 
Q 1356 3103 1142 2972 
Q 928 2841 928 2578 
Q 928 2378 1081 2264 
Q 1234 2150 1697 2047 
L 1894 2003 
Q 2506 1872 2764 1633 
Q 3022 1394 3022 966 
Q 3022 478 2636 193 
Q 2250 -91 1575 -91 
Q 1294 -91 989 -36 
Q 684 19 347 128 
L 347 722 
Q 666 556 975 473 
Q 1284 391 1588 391 
Q 1994 391 2212 530 
Q 2431 669 2431 922 
Q 2431 1156 2273 1281 
Q 2116 1406 1581 1522 
L 1381 1569 
Q 847 1681 609 1914 
Q 372 2147 372 2553 
Q 372 3047 722 3315 
Q 1072 3584 1716 3584 
Q 2034 3584 2315 3537 
Q 2597 3491 2834 3397 
z
" transform="scale(0.015625)"/>
        <path id="DejaVuSans-65" d="M 3597 1894 
L 3597 1613 
L 953 1613 
Q 991 1019 1311 708 
Q 1631 397 2203 397 
Q 2534 397 2845 478 
Q 3156 559 3463 722 
L 3463 178 
Q 3153 47 2828 -22 
Q 2503 -91 2169 -91 
Q 1331 -91 842 396 
Q 353 884 353 1716 
Q 353 2575 817 3079 
Q 1281 3584 2069 3584 
Q 2775 3584 3186 3129 
Q 3597 2675 3597 1894 
z
M 3022 2063 
Q 3016 2534 2758 2815 
Q 2500 3097 2075 3097 
Q 1594 3097 1305 2825 
Q 1016 2553 972 2059 
L 3022 2063 
z
" transform="scale(0.015625)"/>
        <path id="DejaVuSans-6e" d="M 3513 2113 
L 3513 0 
L 2938 0 
L 2938 2094 
Q 2938 2591 2744 2837 
Q 2550 3084 2163 3084 
Q 1697 3084 1428 2787 
Q 1159 2491 1159 1978 
L 1159 0 
L 581 0 
L 581 3500 
L 1159 3500 
L 1159 2956 
Q 1366 3272 1645 3428 
Q 1925 3584 2291 3584 
Q 2894 3584 3203 3211 
Q 3513 2838 3513 2113 
z
" transform="scale(0.015625)"/>
        <path id="DejaVuSans-6f" d="M 1959 3097 
Q 1497 3097 1228 2736 
Q 959 2375 959 1747 
Q 959 1119 1226 758 
Q 1494 397 1959 397 
Q 2419 397 2687 759 
Q 2956 1122 2956 1747 
Q 2956 2369 2687 2733 
Q 2419 3097 1959 3097 
z
M 1959 3584 
Q 2709 3584 3137 3096 
Q 3566 2609 3566 1747 
Q 3566 888 3137 398 
Q 2709 -91 1959 -91 
Q 1206 -91 779 398 
Q 353 888 353 1747 
Q 353 2609 779 3096 
Q 1206 3584 1959 3584 
z
" transform="scale(0.015625)"/>
        <path id="DejaVuSans-72" d="M 2631 2963 
Q 2534 3019 2420 3045 
Q 2306 3072 2169 3072 
Q 1681 3072 1420 2755 
Q 1159 2438 1159 1844 
L 1159 0 
L 581 0 
L 581 3500 
L 1159 3500 
L 1159 2956 
Q 1341 3275 1631 3429 
Q 1922 3584 2338 3584 
Q 2397 3584 2469 3576 
Q 2541 3569 2628 3553 
L 2631 2963 
z
" transform="scale(0.015625)"/>
        <path id="DejaVuSans-79" d="M 2059 -325 
Q 1816 -950 1584 -1140 
Q 1353 -1331 966 -1331 
L 506 -1331 
L 506 -850 
L 844 -850 
Q 1081 -850 1212 -737 
Q 1344 -625 1503 -206 
L 1606 56 
L 191 3500 
L 800 3500 
L 1894 763 
L 2988 3500 
L 3597 3500 
L 2059 -325 
z
" transform="scale(0.015625)"/>
       </defs>
       <use xlink:href="#DejaVuSans-4d"/>
       <use xlink:href="#DejaVuSans-54" transform="translate(86.279297 0)"/>
       <use xlink:href="#DejaVuSans-4c" transform="translate(147.363281 0)"/>
       <use xlink:href="#DejaVuSans-2d" transform="translate(201.326172 0)"/>
       <use xlink:href="#DejaVuSans-73" transform="translate(237.410156 0)"/>
       <use xlink:href="#DejaVuSans-65" transform="translate(289.509766 0)"/>
       <use xlink:href="#DejaVuSans-6e" transform="translate(351.033203 0)"/>
       <use xlink:href="#DejaVuSans-73" transform="translate(414.412109 0)"/>
       <use xlink:href="#DejaVuSans-6f" transform="translate(466.511719 0)"/>
       <use xlink:href="#DejaVuSans-72" transform="translate(527.693359 0)"/>
       <use xlink:href="#DejaVuSans-79" transform="translate(568.806641 0)"/>
      </g>
     </g>
    </g>
    <g id="xtick_2">
     <g id="line2d_2">
      <g>
       <use xlink:href="#me110584f0c" x="120.037145" y="192.550081" style="stroke: #000000; stroke-width: 0.8"/>
      </g>
     </g>
     <g id="text_2">
      <!-- MTL-semantic -->
      <g transform="translate(68.345822 273.950498) rotate(-30) scale(0.18 -0.18)">
       <defs>
        <path id="DejaVuSans-6d" d="M 3328 2828 
Q 3544 3216 3844 3400 
Q 4144 3584 4550 3584 
Q 5097 3584 5394 3201 
Q 5691 2819 5691 2113 
L 5691 0 
L 5113 0 
L 5113 2094 
Q 5113 2597 4934 2840 
Q 4756 3084 4391 3084 
Q 3944 3084 3684 2787 
Q 3425 2491 3425 1978 
L 3425 0 
L 2847 0 
L 2847 2094 
Q 2847 2600 2669 2842 
Q 2491 3084 2119 3084 
Q 1678 3084 1418 2786 
Q 1159 2488 1159 1978 
L 1159 0 
L 581 0 
L 581 3500 
L 1159 3500 
L 1159 2956 
Q 1356 3278 1631 3431 
Q 1906 3584 2284 3584 
Q 2666 3584 2933 3390 
Q 3200 3197 3328 2828 
z
" transform="scale(0.015625)"/>
        <path id="DejaVuSans-61" d="M 2194 1759 
Q 1497 1759 1228 1600 
Q 959 1441 959 1056 
Q 959 750 1161 570 
Q 1363 391 1709 391 
Q 2188 391 2477 730 
Q 2766 1069 2766 1631 
L 2766 1759 
L 2194 1759 
z
M 3341 1997 
L 3341 0 
L 2766 0 
L 2766 531 
Q 2569 213 2275 61 
Q 1981 -91 1556 -91 
Q 1019 -91 701 211 
Q 384 513 384 1019 
Q 384 1609 779 1909 
Q 1175 2209 1959 2209 
L 2766 2209 
L 2766 2266 
Q 2766 2663 2505 2880 
Q 2244 3097 1772 3097 
Q 1472 3097 1187 3025 
Q 903 2953 641 2809 
L 641 3341 
Q 956 3463 1253 3523 
Q 1550 3584 1831 3584 
Q 2591 3584 2966 3190 
Q 3341 2797 3341 1997 
z
" transform="scale(0.015625)"/>
        <path id="DejaVuSans-74" d="M 1172 4494 
L 1172 3500 
L 2356 3500 
L 2356 3053 
L 1172 3053 
L 1172 1153 
Q 1172 725 1289 603 
Q 1406 481 1766 481 
L 2356 481 
L 2356 0 
L 1766 0 
Q 1100 0 847 248 
Q 594 497 594 1153 
L 594 3053 
L 172 3053 
L 172 3500 
L 594 3500 
L 594 4494 
L 1172 4494 
z
" transform="scale(0.015625)"/>
        <path id="DejaVuSans-69" d="M 603 3500 
L 1178 3500 
L 1178 0 
L 603 0 
L 603 3500 
z
M 603 4863 
L 1178 4863 
L 1178 4134 
L 603 4134 
L 603 4863 
z
" transform="scale(0.015625)"/>
        <path id="DejaVuSans-63" d="M 3122 3366 
L 3122 2828 
Q 2878 2963 2633 3030 
Q 2388 3097 2138 3097 
Q 1578 3097 1268 2742 
Q 959 2388 959 1747 
Q 959 1106 1268 751 
Q 1578 397 2138 397 
Q 2388 397 2633 464 
Q 2878 531 3122 666 
L 3122 134 
Q 2881 22 2623 -34 
Q 2366 -91 2075 -91 
Q 1284 -91 818 406 
Q 353 903 353 1747 
Q 353 2603 823 3093 
Q 1294 3584 2113 3584 
Q 2378 3584 2631 3529 
Q 2884 3475 3122 3366 
z
" transform="scale(0.015625)"/>
       </defs>
       <use xlink:href="#DejaVuSans-4d"/>
       <use xlink:href="#DejaVuSans-54" transform="translate(86.279297 0)"/>
       <use xlink:href="#DejaVuSans-4c" transform="translate(147.363281 0)"/>
       <use xlink:href="#DejaVuSans-2d" transform="translate(201.326172 0)"/>
       <use xlink:href="#DejaVuSans-73" transform="translate(237.410156 0)"/>
       <use xlink:href="#DejaVuSans-65" transform="translate(289.509766 0)"/>
       <use xlink:href="#DejaVuSans-6d" transform="translate(351.033203 0)"/>
       <use xlink:href="#DejaVuSans-61" transform="translate(448.445312 0)"/>
       <use xlink:href="#DejaVuSans-6e" transform="translate(509.724609 0)"/>
       <use xlink:href="#DejaVuSans-74" transform="translate(573.103516 0)"/>
       <use xlink:href="#DejaVuSans-69" transform="translate(612.3125 0)"/>
       <use xlink:href="#DejaVuSans-63" transform="translate(640.095703 0)"/>
      </g>
     </g>
    </g>
    <g id="xtick_3">
     <g id="line2d_3">
      <g>
       <use xlink:href="#me110584f0c" x="175.3377" y="192.550081" style="stroke: #000000; stroke-width: 0.8"/>
      </g>
     </g>
     <g id="text_3">
      <!-- labels -->
      <g transform="translate(154.909759 237.850654) rotate(-30) scale(0.18 -0.18)">
       <defs>
        <path id="DejaVuSans-6c" d="M 603 4863 
L 1178 4863 
L 1178 0 
L 603 0 
L 603 4863 
z
" transform="scale(0.015625)"/>
        <path id="DejaVuSans-62" d="M 3116 1747 
Q 3116 2381 2855 2742 
Q 2594 3103 2138 3103 
Q 1681 3103 1420 2742 
Q 1159 2381 1159 1747 
Q 1159 1113 1420 752 
Q 1681 391 2138 391 
Q 2594 391 2855 752 
Q 3116 1113 3116 1747 
z
M 1159 2969 
Q 1341 3281 1617 3432 
Q 1894 3584 2278 3584 
Q 2916 3584 3314 3078 
Q 3713 2572 3713 1747 
Q 3713 922 3314 415 
Q 2916 -91 2278 -91 
Q 1894 -91 1617 61 
Q 1341 213 1159 525 
L 1159 0 
L 581 0 
L 581 4863 
L 1159 4863 
L 1159 2969 
z
" transform="scale(0.015625)"/>
       </defs>
       <use xlink:href="#DejaVuSans-6c"/>
       <use xlink:href="#DejaVuSans-61" transform="translate(27.783203 0)"/>
       <use xlink:href="#DejaVuSans-62" transform="translate(89.0625 0)"/>
       <use xlink:href="#DejaVuSans-65" transform="translate(152.539062 0)"/>
       <use xlink:href="#DejaVuSans-6c" transform="translate(214.0625 0)"/>
       <use xlink:href="#DejaVuSans-73" transform="translate(241.845703 0)"/>
      </g>
     </g>
    </g>
   </g>
   <g id="matplotlib.axis_2"/>
   <g id="line2d_4">
    <path d="M 64.73659 114.813264 
L 64.73659 104.535997 
L 175.3377 104.535997 
L 175.3377 114.813264 
" style="fill: none; stroke: #000000; stroke-width: 2; stroke-linecap: square"/>
   </g>
   <g id="line2d_5">
    <path d="M 64.73659 92.545854 
L 64.73659 82.268587 
L 117.272117 82.268587 
L 117.272117 92.545854 
" style="fill: none; stroke: #000000; stroke-width: 2; stroke-linecap: square"/>
   </g>
   <g id="line2d_6">
    <path d="M 122.802173 92.545854 
L 122.802173 82.268587 
L 175.3377 82.268587 
L 175.3377 92.545854 
" style="fill: none; stroke: #000000; stroke-width: 2; stroke-linecap: square"/>
   </g>
   <g id="patch_3">
    <path d="M 34.87429 192.550081 
L 34.87429 102.624 
" style="fill: none; stroke: #000000; stroke-width: 0.8; stroke-linejoin: miter; stroke-linecap: square"/>
   </g>
   <g id="patch_4">
    <path d="M 34.87429 192.550081 
L 205.2 192.550081 
" style="fill: none; stroke: #000000; stroke-width: 0.8; stroke-linejoin: miter; stroke-linecap: square"/>
   </g>
   <g id="PathCollection_1">
    <defs>
     <path id="m569a27c755" d="M 0 1.5 
C 0.397805 1.5 0.77937 1.341951 1.06066 1.06066 
C 1.341951 0.77937 1.5 0.397805 1.5 0 
C 1.5 -0.397805 1.341951 -0.77937 1.06066 -1.06066 
C 0.77937 -1.341951 0.397805 -1.5 0 -1.5 
C -0.397805 -1.5 -0.77937 -1.341951 -1.06066 -1.06066 
C -1.341951 -0.77937 -1.5 -0.397805 -1.5 0 
C -1.5 0.397805 -1.341951 0.77937 -1.06066 1.06066 
C -0.77937 1.341951 -0.397805 1.5 0 1.5 
z
"/>
    </defs>
    <g clip-path="url(#p48bdc55b8e)">
     <use xlink:href="#m569a27c755" x="57.539961" y="131.114582" style="fill-opacity: 0.1"/>
     <use xlink:href="#m569a27c755" x="60.931646" y="135.43981" style="fill-opacity: 0.1"/>
     <use xlink:href="#m569a27c755" x="68.725942" y="136.580293" style="fill-opacity: 0.1"/>
     <use xlink:href="#m569a27c755" x="55.074645" y="127.219721" style="fill-opacity: 0.1"/>
     <use xlink:href="#m569a27c755" x="67.10897" y="128.984242" style="fill-opacity: 0.1"/>
     <use xlink:href="#m569a27c755" x="64.242125" y="132.405691" style="fill-opacity: 0.1"/>
     <use xlink:href="#m569a27c755" x="59.958621" y="130.31839" style="fill-opacity: 0.1"/>
     <use xlink:href="#m569a27c755" x="58.950233" y="131.200653" style="fill-opacity: 0.1"/>
     <use xlink:href="#m569a27c755" x="65.057615" y="120.678077" style="fill-opacity: 0.1"/>
     <use xlink:href="#m569a27c755" x="61.815118" y="127.693128" style="fill-opacity: 0.1"/>
     <use xlink:href="#m569a27c755" x="63.7748" y="127.757683" style="fill-opacity: 0.1"/>
     <use xlink:href="#m569a27c755" x="61.141553" y="142.863713" style="fill-opacity: 0.1"/>
     <use xlink:href="#m569a27c755" x="75.144015" y="112.845317" style="fill-opacity: 0.1"/>
     <use xlink:href="#m569a27c755" x="56.628188" y="135.913217" style="fill-opacity: 0.1"/>
     <use xlink:href="#m569a27c755" x="55.817803" y="126.186827" style="fill-opacity: 0.1"/>
     <use xlink:href="#m569a27c755" x="61.27238" y="127.219721" style="fill-opacity: 0.1"/>
     <use xlink:href="#m569a27c755" x="66.750125" y="131.114582" style="fill-opacity: 0.1"/>
     <use xlink:href="#m569a27c755" x="68.257609" y="126.48809" style="fill-opacity: 0.1"/>
     <use xlink:href="#m569a27c755" x="62.463886" y="123.604603" style="fill-opacity: 0.1"/>
     <use xlink:href="#m569a27c755" x="75.78073" y="139.442264" style="fill-opacity: 0.1"/>
     <use xlink:href="#m569a27c755" x="61.46043" y="129.715874" style="fill-opacity: 0.1"/>
     <use xlink:href="#m569a27c755" x="69.634154" y="131.329763" style="fill-opacity: 0.1"/>
     <use xlink:href="#m569a27c755" x="67.779949" y="123.174229" style="fill-opacity: 0.1"/>
     <use xlink:href="#m569a27c755" x="71.661411" y="128.467798" style="fill-opacity: 0.1"/>
     <use xlink:href="#m569a27c755" x="75.270807" y="128.231089" style="fill-opacity: 0.1"/>
     <use xlink:href="#m569a27c755" x="73.358912" y="128.446276" style="fill-opacity: 0.1"/>
     <use xlink:href="#m569a27c755" x="70.588759" y="130.361429" style="fill-opacity: 0.1"/>
     <use xlink:href="#m569a27c755" x="69.12189" y="135.827145" style="fill-opacity: 0.1"/>
     <use xlink:href="#m569a27c755" x="61.097773" y="133.09429" style="fill-opacity: 0.1"/>
     <use xlink:href="#m569a27c755" x="56.943316" y="144.047234" style="fill-opacity: 0.1"/>
     <use xlink:href="#m569a27c755" x="55.062001" y="121.603373" style="fill-opacity: 0.1"/>
     <use xlink:href="#m569a27c755" x="59.027398" y="141.895378" style="fill-opacity: 0.1"/>
     <use xlink:href="#m569a27c755" x="63.238641" y="133.244916" style="fill-opacity: 0.1"/>
     <use xlink:href="#m569a27c755" x="65.223152" y="126.337458" style="fill-opacity: 0.1"/>
     <use xlink:href="#m569a27c755" x="70.777258" y="119.946445" style="fill-opacity: 0.1"/>
     <use xlink:href="#m569a27c755" x="74.884041" y="132.814548" style="fill-opacity: 0.1"/>
     <use xlink:href="#m569a27c755" x="56.271634" y="125.433679" style="fill-opacity: 0.1"/>
     <use xlink:href="#m569a27c755" x="56.043434" y="132.857581" style="fill-opacity: 0.1"/>
     <use xlink:href="#m569a27c755" x="66.720657" y="124.572937" style="fill-opacity: 0.1"/>
     <use xlink:href="#m569a27c755" x="70.164849" y="135.353739" style="fill-opacity: 0.1"/>
     <use xlink:href="#m569a27c755" x="72.437753" y="129.909539" style="fill-opacity: 0.1"/>
     <use xlink:href="#m569a27c755" x="74.377292" y="126.531123" style="fill-opacity: 0.1"/>
     <use xlink:href="#m569a27c755" x="75.430085" y="125.799492" style="fill-opacity: 0.1"/>
     <use xlink:href="#m569a27c755" x="62.520181" y="124.917234" style="fill-opacity: 0.1"/>
     <use xlink:href="#m569a27c755" x="62.089577" y="124.250157" style="fill-opacity: 0.1"/>
     <use xlink:href="#m569a27c755" x="56.946039" y="126.079233" style="fill-opacity: 0.1"/>
     <use xlink:href="#m569a27c755" x="68.82738" y="124.529899" style="fill-opacity: 0.1"/>
     <use xlink:href="#m569a27c755" x="68.204199" y="139.549858" style="fill-opacity: 0.1"/>
     <use xlink:href="#m569a27c755" x="72.745495" y="120.46289" style="fill-opacity: 0.1"/>
     <use xlink:href="#m569a27c755" x="55.827847" y="123.346378" style="fill-opacity: 0.1"/>
     <use xlink:href="#m569a27c755" x="64.687414" y="131.394318" style="fill-opacity: 0.1"/>
     <use xlink:href="#m569a27c755" x="66.53014" y="126.29442" style="fill-opacity: 0.1"/>
     <use xlink:href="#m569a27c755" x="59.019774" y="127.413386" style="fill-opacity: 0.1"/>
     <use xlink:href="#m569a27c755" x="57.415358" y="125.51975" style="fill-opacity: 0.1"/>
     <use xlink:href="#m569a27c755" x="72.690598" y="112.178241" style="fill-opacity: 0.1"/>
     <use xlink:href="#m569a27c755" x="54.971284" y="135.310701" style="fill-opacity: 0.1"/>
     <use xlink:href="#m569a27c755" x="64.086717" y="134.041103" style="fill-opacity: 0.1"/>
     <use xlink:href="#m569a27c755" x="56.238752" y="125.498234" style="fill-opacity: 0.1"/>
     <use xlink:href="#m569a27c755" x="63.78672" y="135.805629" style="fill-opacity: 0.1"/>
     <use xlink:href="#m569a27c755" x="75.353463" y="138.237226" style="fill-opacity: 0.1"/>
     <use xlink:href="#m569a27c755" x="63.048957" y="141.077675" style="fill-opacity: 0.1"/>
     <use xlink:href="#m569a27c755" x="72.636272" y="134.880327" style="fill-opacity: 0.1"/>
     <use xlink:href="#m569a27c755" x="56.271525" y="122.184373" style="fill-opacity: 0.1"/>
     <use xlink:href="#m569a27c755" x="59.676635" y="128.532353" style="fill-opacity: 0.1"/>
     <use xlink:href="#m569a27c755" x="62.608464" y="138.237226" style="fill-opacity: 0.1"/>
     <use xlink:href="#m569a27c755" x="62.520412" y="136.300552" style="fill-opacity: 0.1"/>
     <use xlink:href="#m569a27c755" x="68.52763" y="124.745085" style="fill-opacity: 0.1"/>
     <use xlink:href="#m569a27c755" x="61.30172" y="131.803175" style="fill-opacity: 0.1"/>
     <use xlink:href="#m569a27c755" x="69.46516" y="122.829933" style="fill-opacity: 0.1"/>
     <use xlink:href="#m569a27c755" x="67.815435" y="129.801946" style="fill-opacity: 0.1"/>
     <use xlink:href="#m569a27c755" x="62.506012" y="121.646411" style="fill-opacity: 0.1"/>
     <use xlink:href="#m569a27c755" x="63.227108" y="132.728471" style="fill-opacity: 0.1"/>
     <use xlink:href="#m569a27c755" x="67.269968" y="127.865276" style="fill-opacity: 0.1"/>
     <use xlink:href="#m569a27c755" x="55.225827" y="131.932285" style="fill-opacity: 0.1"/>
     <use xlink:href="#m569a27c755" x="71.868298" y="127.84376" style="fill-opacity: 0.1"/>
     <use xlink:href="#m569a27c755" x="68.1303" y="135.784107" style="fill-opacity: 0.1"/>
     <use xlink:href="#m569a27c755" x="69.743335" y="135.590442" style="fill-opacity: 0.1"/>
     <use xlink:href="#m569a27c755" x="65.553335" y="150.868621" style="fill-opacity: 0.1"/>
     <use xlink:href="#m569a27c755" x="56.120257" y="122.657784" style="fill-opacity: 0.1"/>
     <use xlink:href="#m569a27c755" x="62.635956" y="139.119484" style="fill-opacity: 0.1"/>
     <use xlink:href="#m569a27c755" x="62.643432" y="131.243692" style="fill-opacity: 0.1"/>
     <use xlink:href="#m569a27c755" x="60.778021" y="124.831157" style="fill-opacity: 0.1"/>
     <use xlink:href="#m569a27c755" x="54.338986" y="133.782883" style="fill-opacity: 0.1"/>
     <use xlink:href="#m569a27c755" x="69.984706" y="138.538485" style="fill-opacity: 0.1"/>
     <use xlink:href="#m569a27c755" x="56.104935" y="135.504365" style="fill-opacity: 0.1"/>
     <use xlink:href="#m569a27c755" x="67.088149" y="127.413386" style="fill-opacity: 0.1"/>
     <use xlink:href="#m569a27c755" x="69.231806" y="125.58431" style="fill-opacity: 0.1"/>
     <use xlink:href="#m569a27c755" x="67.718093" y="126.272903" style="fill-opacity: 0.1"/>
     <use xlink:href="#m569a27c755" x="74.892918" y="125.864052" style="fill-opacity: 0.1"/>
     <use xlink:href="#m569a27c755" x="55.961457" y="138.904298" style="fill-opacity: 0.1"/>
     <use xlink:href="#m569a27c755" x="72.858409" y="119.55911" style="fill-opacity: 0.1"/>
     <use xlink:href="#m569a27c755" x="54.322173" y="133.911993" style="fill-opacity: 0.1"/>
     <use xlink:href="#m569a27c755" x="65.508958" y="125.670382" style="fill-opacity: 0.1"/>
     <use xlink:href="#m569a27c755" x="62.618437" y="126.143793" style="fill-opacity: 0.1"/>
     <use xlink:href="#m569a27c755" x="65.271542" y="124.874195" style="fill-opacity: 0.1"/>
     <use xlink:href="#m569a27c755" x="61.752569" y="140.884005" style="fill-opacity: 0.1"/>
     <use xlink:href="#m569a27c755" x="57.891861" y="118.612292" style="fill-opacity: 0.1"/>
     <use xlink:href="#m569a27c755" x="54.099481" y="131.652543" style="fill-opacity: 0.1"/>
     <use xlink:href="#m569a27c755" x="65.138068" y="130.555099" style="fill-opacity: 0.1"/>
     <use xlink:href="#m569a27c755" x="72.31889" y="139.808077" style="fill-opacity: 0.1"/>
     <use xlink:href="#m569a27c755" x="61.932098" y="130.985467" style="fill-opacity: 0.1"/>
     <use xlink:href="#m569a27c755" x="58.606276" y="143.27257" style="fill-opacity: 0.1"/>
     <use xlink:href="#m569a27c755" x="55.457864" y="128.962721" style="fill-opacity: 0.1"/>
     <use xlink:href="#m569a27c755" x="55.563575" y="134.191734" style="fill-opacity: 0.1"/>
     <use xlink:href="#m569a27c755" x="58.573817" y="122.227411" style="fill-opacity: 0.1"/>
     <use xlink:href="#m569a27c755" x="55.888812" y="127.413386" style="fill-opacity: 0.1"/>
     <use xlink:href="#m569a27c755" x="59.539216" y="123.755229" style="fill-opacity: 0.1"/>
     <use xlink:href="#m569a27c755" x="55.139719" y="126.660238" style="fill-opacity: 0.1"/>
     <use xlink:href="#m569a27c755" x="55.127673" y="131.54495" style="fill-opacity: 0.1"/>
     <use xlink:href="#m569a27c755" x="72.617498" y="132.556323" style="fill-opacity: 0.1"/>
     <use xlink:href="#m569a27c755" x="57.262615" y="136.53726" style="fill-opacity: 0.1"/>
     <use xlink:href="#m569a27c755" x="66.056778" y="125.864052" style="fill-opacity: 0.1"/>
     <use xlink:href="#m569a27c755" x="70.785487" y="119.23633" style="fill-opacity: 0.1"/>
     <use xlink:href="#m569a27c755" x="63.772359" y="134.191734" style="fill-opacity: 0.1"/>
     <use xlink:href="#m569a27c755" x="57.069032" y="123.217268" style="fill-opacity: 0.1"/>
     <use xlink:href="#m569a27c755" x="58.09159" y="133.890476" style="fill-opacity: 0.1"/>
     <use xlink:href="#m569a27c755" x="63.254185" y="126.896941" style="fill-opacity: 0.1"/>
     <use xlink:href="#m569a27c755" x="65.361134" y="122.119818" style="fill-opacity: 0.1"/>
     <use xlink:href="#m569a27c755" x="61.406175" y="128.898166" style="fill-opacity: 0.1"/>
     <use xlink:href="#m569a27c755" x="70.962981" y="138.301781" style="fill-opacity: 0.1"/>
     <use xlink:href="#m569a27c755" x="70.289244" y="137.290408" style="fill-opacity: 0.1"/>
     <use xlink:href="#m569a27c755" x="74.18661" y="133.115806" style="fill-opacity: 0.1"/>
     <use xlink:href="#m569a27c755" x="54.316915" y="130.210802" style="fill-opacity: 0.1"/>
     <use xlink:href="#m569a27c755" x="73.489369" y="128.704501" style="fill-opacity: 0.1"/>
     <use xlink:href="#m569a27c755" x="62.360187" y="125.412162" style="fill-opacity: 0.1"/>
     <use xlink:href="#m569a27c755" x="73.106273" y="128.962721" style="fill-opacity: 0.1"/>
     <use xlink:href="#m569a27c755" x="68.956791" y="123.948899" style="fill-opacity: 0.1"/>
     <use xlink:href="#m569a27c755" x="75.516852" y="139.162523" style="fill-opacity: 0.1"/>
     <use xlink:href="#m569a27c755" x="70.471975" y="137.613188" style="fill-opacity: 0.1"/>
     <use xlink:href="#m569a27c755" x="61.740287" y="145.661129" style="fill-opacity: 0.1"/>
     <use xlink:href="#m569a27c755" x="64.760107" y="119.989484" style="fill-opacity: 0.1"/>
     <use xlink:href="#m569a27c755" x="62.00229" y="140.518192" style="fill-opacity: 0.1"/>
     <use xlink:href="#m569a27c755" x="61.748409" y="124.680531" style="fill-opacity: 0.1"/>
     <use xlink:href="#m569a27c755" x="59.447744" y="136.494222" style="fill-opacity: 0.1"/>
     <use xlink:href="#m569a27c755" x="64.647452" y="124.013454" style="fill-opacity: 0.1"/>
     <use xlink:href="#m569a27c755" x="68.756718" y="131.351285" style="fill-opacity: 0.1"/>
     <use xlink:href="#m569a27c755" x="59.811307" y="124.594454" style="fill-opacity: 0.1"/>
     <use xlink:href="#m569a27c755" x="65.275876" y="132.77151" style="fill-opacity: 0.1"/>
     <use xlink:href="#m569a27c755" x="56.272957" y="118.719886" style="fill-opacity: 0.1"/>
     <use xlink:href="#m569a27c755" x="57.212292" y="130.533577" style="fill-opacity: 0.1"/>
     <use xlink:href="#m569a27c755" x="54.711846" y="123.195746" style="fill-opacity: 0.1"/>
     <use xlink:href="#m569a27c755" x="75.149274" y="145.101646" style="fill-opacity: 0.1"/>
     <use xlink:href="#m569a27c755" x="53.76187" y="122.335005" style="fill-opacity: 0.1"/>
     <use xlink:href="#m569a27c755" x="57.626707" y="142.777642" style="fill-opacity: 0.1"/>
     <use xlink:href="#m569a27c755" x="67.233227" y="125.455195" style="fill-opacity: 0.1"/>
     <use xlink:href="#m569a27c755" x="55.476392" y="132.298098" style="fill-opacity: 0.1"/>
     <use xlink:href="#m569a27c755" x="73.184225" y="129.350056" style="fill-opacity: 0.1"/>
     <use xlink:href="#m569a27c755" x="69.594636" y="124.185602" style="fill-opacity: 0.1"/>
     <use xlink:href="#m569a27c755" x="75.053239" y="141.658675" style="fill-opacity: 0.1"/>
     <use xlink:href="#m569a27c755" x="64.90549" y="137.57015" style="fill-opacity: 0.1"/>
     <use xlink:href="#m569a27c755" x="60.321475" y="134.213251" style="fill-opacity: 0.1"/>
     <use xlink:href="#m569a27c755" x="65.831553" y="129.995616" style="fill-opacity: 0.1"/>
     <use xlink:href="#m569a27c755" x="74.266395" y="129.672836" style="fill-opacity: 0.1"/>
     <use xlink:href="#m569a27c755" x="65.195837" y="131.394318" style="fill-opacity: 0.1"/>
     <use xlink:href="#m569a27c755" x="59.587157" y="120.33378" style="fill-opacity: 0.1"/>
     <use xlink:href="#m569a27c755" x="73.084735" y="140.991599" style="fill-opacity: 0.1"/>
     <use xlink:href="#m569a27c755" x="61.903404" y="123.497009" style="fill-opacity: 0.1"/>
     <use xlink:href="#m569a27c755" x="53.707079" y="135.418294" style="fill-opacity: 0.1"/>
     <use xlink:href="#m569a27c755" x="59.155326" y="128.317166" style="fill-opacity: 0.1"/>
     <use xlink:href="#m569a27c755" x="60.715874" y="126.315942" style="fill-opacity: 0.1"/>
     <use xlink:href="#m569a27c755" x="72.672827" y="119.214814" style="fill-opacity: 0.1"/>
     <use xlink:href="#m569a27c755" x="63.81867" y="139.420748" style="fill-opacity: 0.1"/>
     <use xlink:href="#m569a27c755" x="63.510848" y="137.333447" style="fill-opacity: 0.1"/>
     <use xlink:href="#m569a27c755" x="61.111135" y="141.744752" style="fill-opacity: 0.1"/>
     <use xlink:href="#m569a27c755" x="73.157274" y="126.961496" style="fill-opacity: 0.1"/>
     <use xlink:href="#m569a27c755" x="74.580681" y="133.029729" style="fill-opacity: 0.1"/>
     <use xlink:href="#m569a27c755" x="75.617313" y="146.97376" style="fill-opacity: 0.1"/>
     <use xlink:href="#m569a27c755" x="62.010079" y="137.505595" style="fill-opacity: 0.1"/>
     <use xlink:href="#m569a27c755" x="75.047875" y="123.023598" style="fill-opacity: 0.1"/>
     <use xlink:href="#m569a27c755" x="71.193031" y="136.106887" style="fill-opacity: 0.1"/>
     <use xlink:href="#m569a27c755" x="68.622873" y="146.457315" style="fill-opacity: 0.1"/>
     <use xlink:href="#m569a27c755" x="59.093488" y="139.463781" style="fill-opacity: 0.1"/>
     <use xlink:href="#m569a27c755" x="58.464561" y="125.691904" style="fill-opacity: 0.1"/>
     <use xlink:href="#m569a27c755" x="57.349493" y="134.815772" style="fill-opacity: 0.1"/>
     <use xlink:href="#m569a27c755" x="74.08806" y="138.215705" style="fill-opacity: 0.1"/>
     <use xlink:href="#m569a27c755" x="60.18152" y="144.714311" style="fill-opacity: 0.1"/>
     <use xlink:href="#m569a27c755" x="63.699024" y="144.692794" style="fill-opacity: 0.1"/>
     <use xlink:href="#m569a27c755" x="64.602936" y="136.171442" style="fill-opacity: 0.1"/>
     <use xlink:href="#m569a27c755" x="70.889807" y="121.840076" style="fill-opacity: 0.1"/>
     <use xlink:href="#m569a27c755" x="72.351143" y="124.551415" style="fill-opacity: 0.1"/>
     <use xlink:href="#m569a27c755" x="56.752798" y="120.936297" style="fill-opacity: 0.1"/>
     <use xlink:href="#m569a27c755" x="63.119698" y="128.769056" style="fill-opacity: 0.1"/>
     <use xlink:href="#m569a27c755" x="72.320616" y="133.653768" style="fill-opacity: 0.1"/>
     <use xlink:href="#m569a27c755" x="71.771557" y="137.89293" style="fill-opacity: 0.1"/>
     <use xlink:href="#m569a27c755" x="55.941894" y="121.667928" style="fill-opacity: 0.1"/>
     <use xlink:href="#m569a27c755" x="57.135713" y="133.546179" style="fill-opacity: 0.1"/>
     <use xlink:href="#m569a27c755" x="60.405421" y="134.148696" style="fill-opacity: 0.1"/>
     <use xlink:href="#m569a27c755" x="55.343438" y="133.180361" style="fill-opacity: 0.1"/>
     <use xlink:href="#m569a27c755" x="63.070118" y="129.307022" style="fill-opacity: 0.1"/>
     <use xlink:href="#m569a27c755" x="56.057006" y="134.449959" style="fill-opacity: 0.1"/>
     <use xlink:href="#m569a27c755" x="66.245578" y="136.946112" style="fill-opacity: 0.1"/>
     <use xlink:href="#m569a27c755" x="59.130373" y="133.008213" style="fill-opacity: 0.1"/>
     <use xlink:href="#m569a27c755" x="66.86971" y="128.338683" style="fill-opacity: 0.1"/>
     <use xlink:href="#m569a27c755" x="56.276172" y="136.623332" style="fill-opacity: 0.1"/>
     <use xlink:href="#m569a27c755" x="75.263246" y="129.328539" style="fill-opacity: 0.1"/>
     <use xlink:href="#m569a27c755" x="74.30494" y="136.881557" style="fill-opacity: 0.1"/>
     <use xlink:href="#m569a27c755" x="62.343114" y="131.394318" style="fill-opacity: 0.1"/>
     <use xlink:href="#m569a27c755" x="59.033523" y="131.953802" style="fill-opacity: 0.1"/>
     <use xlink:href="#m569a27c755" x="59.215343" y="124.013454" style="fill-opacity: 0.1"/>
     <use xlink:href="#m569a27c755" x="64.369251" y="136.106887" style="fill-opacity: 0.1"/>
    </g>
   </g>
   <g id="PathCollection_2">
    <g clip-path="url(#p48bdc55b8e)">
     <use xlink:href="#m569a27c755" x="109.861683" y="156.635598" style="fill-opacity: 0.1"/>
     <use xlink:href="#m569a27c755" x="123.127453" y="169.869514" style="fill-opacity: 0.1"/>
     <use xlink:href="#m569a27c755" x="118.008785" y="158.895047" style="fill-opacity: 0.1"/>
     <use xlink:href="#m569a27c755" x="117.325351" y="165.30758" style="fill-opacity: 0.1"/>
     <use xlink:href="#m569a27c755" x="126.880367" y="156.269782" style="fill-opacity: 0.1"/>
     <use xlink:href="#m569a27c755" x="124.661056" y="168.556883" style="fill-opacity: 0.1"/>
     <use xlink:href="#m569a27c755" x="130.08711" y="156.398892" style="fill-opacity: 0.1"/>
     <use xlink:href="#m569a27c755" x="116.761942" y="166.297433" style="fill-opacity: 0.1"/>
     <use xlink:href="#m569a27c755" x="128.830879" y="161.412719" style="fill-opacity: 0.1"/>
     <use xlink:href="#m569a27c755" x="126.008879" y="164.296206" style="fill-opacity: 0.1"/>
     <use xlink:href="#m569a27c755" x="116.883346" y="154.569814" style="fill-opacity: 0.1"/>
     <use xlink:href="#m569a27c755" x="122.728411" y="169.116363" style="fill-opacity: 0.1"/>
     <use xlink:href="#m569a27c755" x="115.360265" y="160.508939" style="fill-opacity: 0.1"/>
     <use xlink:href="#m569a27c755" x="128.318954" y="164.812651" style="fill-opacity: 0.1"/>
     <use xlink:href="#m569a27c755" x="111.463951" y="157.001411" style="fill-opacity: 0.1"/>
     <use xlink:href="#m569a27c755" x="113.676129" y="171.806185" style="fill-opacity: 0.1"/>
     <use xlink:href="#m569a27c755" x="113.025771" y="157.302672" style="fill-opacity: 0.1"/>
     <use xlink:href="#m569a27c755" x="117.892059" y="166.103766" style="fill-opacity: 0.1"/>
     <use xlink:href="#m569a27c755" x="125.461752" y="160.186159" style="fill-opacity: 0.1"/>
     <use xlink:href="#m569a27c755" x="120.632344" y="166.448062" style="fill-opacity: 0.1"/>
     <use xlink:href="#m569a27c755" x="119.764542" y="156.506486" style="fill-opacity: 0.1"/>
     <use xlink:href="#m569a27c755" x="108.989111" y="166.878433" style="fill-opacity: 0.1"/>
     <use xlink:href="#m569a27c755" x="118.387014" y="154.914113" style="fill-opacity: 0.1"/>
     <use xlink:href="#m569a27c755" x="110.382857" y="171.28974" style="fill-opacity: 0.1"/>
     <use xlink:href="#m569a27c755" x="113.583642" y="160.358308" style="fill-opacity: 0.1"/>
     <use xlink:href="#m569a27c755" x="129.601795" y="166.082247" style="fill-opacity: 0.1"/>
     <use xlink:href="#m569a27c755" x="113.74169" y="152.654663" style="fill-opacity: 0.1"/>
     <use xlink:href="#m569a27c755" x="127.963653" y="166.964507" style="fill-opacity: 0.1"/>
     <use xlink:href="#m569a27c755" x="126.737214" y="158.184933" style="fill-opacity: 0.1"/>
     <use xlink:href="#m569a27c755" x="112.497384" y="168.018919" style="fill-opacity: 0.1"/>
     <use xlink:href="#m569a27c755" x="122.375517" y="159.110231" style="fill-opacity: 0.1"/>
     <use xlink:href="#m569a27c755" x="111.5355" y="163.241795" style="fill-opacity: 0.1"/>
     <use xlink:href="#m569a27c755" x="125.078082" y="157.539378" style="fill-opacity: 0.1"/>
     <use xlink:href="#m569a27c755" x="123.077841" y="165.759469" style="fill-opacity: 0.1"/>
     <use xlink:href="#m569a27c755" x="126.937295" y="156.248263" style="fill-opacity: 0.1"/>
     <use xlink:href="#m569a27c755" x="119.581127" y="168.987253" style="fill-opacity: 0.1"/>
     <use xlink:href="#m569a27c755" x="129.214009" y="155.516632" style="fill-opacity: 0.1"/>
     <use xlink:href="#m569a27c755" x="110.068643" y="166.899952" style="fill-opacity: 0.1"/>
     <use xlink:href="#m569a27c755" x="115.455794" y="155.645742" style="fill-opacity: 0.1"/>
     <use xlink:href="#m569a27c755" x="124.794156" y="166.103766" style="fill-opacity: 0.1"/>
     <use xlink:href="#m569a27c755" x="118.225702" y="156.743189" style="fill-opacity: 0.1"/>
     <use xlink:href="#m569a27c755" x="112.802756" y="165.996173" style="fill-opacity: 0.1"/>
     <use xlink:href="#m569a27c755" x="111.348559" y="156.484966" style="fill-opacity: 0.1"/>
     <use xlink:href="#m569a27c755" x="127.056757" y="166.64173" style="fill-opacity: 0.1"/>
     <use xlink:href="#m569a27c755" x="119.443062" y="155.430558" style="fill-opacity: 0.1"/>
     <use xlink:href="#m569a27c755" x="128.493345" y="162.402573" style="fill-opacity: 0.1"/>
     <use xlink:href="#m569a27c755" x="125.197552" y="160.250717" style="fill-opacity: 0.1"/>
     <use xlink:href="#m569a27c755" x="118.040268" y="167.803732" style="fill-opacity: 0.1"/>
     <use xlink:href="#m569a27c755" x="117.23918" y="164.167094" style="fill-opacity: 0.1"/>
     <use xlink:href="#m569a27c755" x="120.383069" y="167.416397" style="fill-opacity: 0.1"/>
     <use xlink:href="#m569a27c755" x="128.643237" y="160.681088" style="fill-opacity: 0.1"/>
     <use xlink:href="#m569a27c755" x="125.2858" y="163.887352" style="fill-opacity: 0.1"/>
     <use xlink:href="#m569a27c755" x="109.091019" y="159.260861" style="fill-opacity: 0.1"/>
     <use xlink:href="#m569a27c755" x="124.33196" y="164.575948" style="fill-opacity: 0.1"/>
     <use xlink:href="#m569a27c755" x="129.316742" y="161.907645" style="fill-opacity: 0.1"/>
     <use xlink:href="#m569a27c755" x="124.692473" y="165.630357" style="fill-opacity: 0.1"/>
     <use xlink:href="#m569a27c755" x="112.892441" y="161.907645" style="fill-opacity: 0.1"/>
     <use xlink:href="#m569a27c755" x="119.672562" y="167.459436" style="fill-opacity: 0.1"/>
     <use xlink:href="#m569a27c755" x="112.080855" y="159.067196" style="fill-opacity: 0.1"/>
     <use xlink:href="#m569a27c755" x="116.918089" y="165.910098" style="fill-opacity: 0.1"/>
     <use xlink:href="#m569a27c755" x="129.706271" y="163.069647" style="fill-opacity: 0.1"/>
     <use xlink:href="#m569a27c755" x="129.400752" y="164.360761" style="fill-opacity: 0.1"/>
     <use xlink:href="#m569a27c755" x="115.233448" y="160.014011" style="fill-opacity: 0.1"/>
     <use xlink:href="#m569a27c755" x="116.489748" y="168.772067" style="fill-opacity: 0.1"/>
     <use xlink:href="#m569a27c755" x="122.253876" y="157.969748" style="fill-opacity: 0.1"/>
     <use xlink:href="#m569a27c755" x="130.283172" y="172.451742" style="fill-opacity: 0.1"/>
     <use xlink:href="#m569a27c755" x="112.246432" y="152.869848" style="fill-opacity: 0.1"/>
     <use xlink:href="#m569a27c755" x="114.660087" y="166.125283" style="fill-opacity: 0.1"/>
     <use xlink:href="#m569a27c755" x="128.300305" y="153.257182" style="fill-opacity: 0.1"/>
     <use xlink:href="#m569a27c755" x="119.857799" y="168.061954" style="fill-opacity: 0.1"/>
     <use xlink:href="#m569a27c755" x="128.862253" y="155.882447" style="fill-opacity: 0.1"/>
     <use xlink:href="#m569a27c755" x="113.080731" y="172.989706" style="fill-opacity: 0.1"/>
     <use xlink:href="#m569a27c755" x="120.759781" y="159.002638" style="fill-opacity: 0.1"/>
     <use xlink:href="#m569a27c755" x="116.194191" y="164.124058" style="fill-opacity: 0.1"/>
     <use xlink:href="#m569a27c755" x="115.979026" y="159.58364" style="fill-opacity: 0.1"/>
     <use xlink:href="#m569a27c755" x="118.862052" y="165.41517" style="fill-opacity: 0.1"/>
     <use xlink:href="#m569a27c755" x="118.556803" y="157.195079" style="fill-opacity: 0.1"/>
     <use xlink:href="#m569a27c755" x="116.881626" y="169.977107" style="fill-opacity: 0.1"/>
     <use xlink:href="#m569a27c755" x="129.21639" y="158.141897" style="fill-opacity: 0.1"/>
     <use xlink:href="#m569a27c755" x="125.163378" y="166.684766" style="fill-opacity: 0.1"/>
     <use xlink:href="#m569a27c755" x="125.070535" y="157.388746" style="fill-opacity: 0.1"/>
     <use xlink:href="#m569a27c755" x="115.389984" y="164.941764" style="fill-opacity: 0.1"/>
     <use xlink:href="#m569a27c755" x="121.756095" y="157.754562" style="fill-opacity: 0.1"/>
     <use xlink:href="#m569a27c755" x="126.212656" y="172.128963" style="fill-opacity: 0.1"/>
     <use xlink:href="#m569a27c755" x="126.575669" y="158.572267" style="fill-opacity: 0.1"/>
     <use xlink:href="#m569a27c755" x="116.598124" y="165.501244" style="fill-opacity: 0.1"/>
     <use xlink:href="#m569a27c755" x="126.02891" y="156.506486" style="fill-opacity: 0.1"/>
     <use xlink:href="#m569a27c755" x="125.25517" y="169.008773" style="fill-opacity: 0.1"/>
     <use xlink:href="#m569a27c755" x="112.107189" y="153.730591" style="fill-opacity: 0.1"/>
     <use xlink:href="#m569a27c755" x="128.13194" y="172.02137" style="fill-opacity: 0.1"/>
     <use xlink:href="#m569a27c755" x="118.739163" y="155.23689" style="fill-opacity: 0.1"/>
     <use xlink:href="#m569a27c755" x="119.736541" y="171.139109" style="fill-opacity: 0.1"/>
     <use xlink:href="#m569a27c755" x="118.89506" y="155.021704" style="fill-opacity: 0.1"/>
     <use xlink:href="#m569a27c755" x="121.537913" y="171.612518" style="fill-opacity: 0.1"/>
     <use xlink:href="#m569a27c755" x="122.717436" y="157.453301" style="fill-opacity: 0.1"/>
     <use xlink:href="#m569a27c755" x="119.996876" y="166.835397" style="fill-opacity: 0.1"/>
     <use xlink:href="#m569a27c755" x="128.150589" y="154.785" style="fill-opacity: 0.1"/>
     <use xlink:href="#m569a27c755" x="122.862666" y="167.803732" style="fill-opacity: 0.1"/>
     <use xlink:href="#m569a27c755" x="117.856709" y="155.903967" style="fill-opacity: 0.1"/>
     <use xlink:href="#m569a27c755" x="118.194348" y="171.053035" style="fill-opacity: 0.1"/>
     <use xlink:href="#m569a27c755" x="126.912964" y="155.215371" style="fill-opacity: 0.1"/>
     <use xlink:href="#m569a27c755" x="116.679117" y="165.651876" style="fill-opacity: 0.1"/>
     <use xlink:href="#m569a27c755" x="113.654461" y="152.67618" style="fill-opacity: 0.1"/>
     <use xlink:href="#m569a27c755" x="110.290603" y="166.835397" style="fill-opacity: 0.1"/>
     <use xlink:href="#m569a27c755" x="128.354942" y="155.409038" style="fill-opacity: 0.1"/>
     <use xlink:href="#m569a27c755" x="129.295485" y="167.868287" style="fill-opacity: 0.1"/>
     <use xlink:href="#m569a27c755" x="111.634119" y="155.516632" style="fill-opacity: 0.1"/>
     <use xlink:href="#m569a27c755" x="116.375667" y="167.050581" style="fill-opacity: 0.1"/>
     <use xlink:href="#m569a27c755" x="112.856303" y="154.871074" style="fill-opacity: 0.1"/>
     <use xlink:href="#m569a27c755" x="111.540734" y="168.341696" style="fill-opacity: 0.1"/>
     <use xlink:href="#m569a27c755" x="128.882286" y="157.776081" style="fill-opacity: 0.1"/>
     <use xlink:href="#m569a27c755" x="110.235171" y="162.144351" style="fill-opacity: 0.1"/>
     <use xlink:href="#m569a27c755" x="130.665594" y="156.398892" style="fill-opacity: 0.1"/>
     <use xlink:href="#m569a27c755" x="111.110548" y="166.297433" style="fill-opacity: 0.1"/>
     <use xlink:href="#m569a27c755" x="128.077196" y="155.624225" style="fill-opacity: 0.1"/>
     <use xlink:href="#m569a27c755" x="121.508275" y="168.87966" style="fill-opacity: 0.1"/>
     <use xlink:href="#m569a27c755" x="117.11545" y="159.497566" style="fill-opacity: 0.1"/>
     <use xlink:href="#m569a27c755" x="116.549723" y="168.922698" style="fill-opacity: 0.1"/>
     <use xlink:href="#m569a27c755" x="125.730097" y="157.281153" style="fill-opacity: 0.1"/>
     <use xlink:href="#m569a27c755" x="115.935465" y="173.032743" style="fill-opacity: 0.1"/>
     <use xlink:href="#m569a27c755" x="123.517074" y="156.463447" style="fill-opacity: 0.1"/>
     <use xlink:href="#m569a27c755" x="120.420402" y="166.749323" style="fill-opacity: 0.1"/>
     <use xlink:href="#m569a27c755" x="119.704582" y="156.484966" style="fill-opacity: 0.1"/>
     <use xlink:href="#m569a27c755" x="128.910941" y="167.610065" style="fill-opacity: 0.1"/>
     <use xlink:href="#m569a27c755" x="121.245906" y="154.634371" style="fill-opacity: 0.1"/>
     <use xlink:href="#m569a27c755" x="127.267396" y="167.739177" style="fill-opacity: 0.1"/>
     <use xlink:href="#m569a27c755" x="125.026882" y="155.086261" style="fill-opacity: 0.1"/>
     <use xlink:href="#m569a27c755" x="109.829929" y="166.942988" style="fill-opacity: 0.1"/>
     <use xlink:href="#m569a27c755" x="126.0784" y="157.517859" style="fill-opacity: 0.1"/>
     <use xlink:href="#m569a27c755" x="113.774252" y="173.613744" style="fill-opacity: 0.1"/>
     <use xlink:href="#m569a27c755" x="128.954905" y="155.23689" style="fill-opacity: 0.1"/>
     <use xlink:href="#m569a27c755" x="109.926526" y="166.361988" style="fill-opacity: 0.1"/>
     <use xlink:href="#m569a27c755" x="116.344661" y="154.35463" style="fill-opacity: 0.1"/>
     <use xlink:href="#m569a27c755" x="111.183149" y="166.448062" style="fill-opacity: 0.1"/>
     <use xlink:href="#m569a27c755" x="119.497171" y="155.903967" style="fill-opacity: 0.1"/>
     <use xlink:href="#m569a27c755" x="127.116112" y="167.029062" style="fill-opacity: 0.1"/>
     <use xlink:href="#m569a27c755" x="115.573004" y="156.915337" style="fill-opacity: 0.1"/>
     <use xlink:href="#m569a27c755" x="112.315747" y="170.859368" style="fill-opacity: 0.1"/>
     <use xlink:href="#m569a27c755" x="116.282614" y="155.000187" style="fill-opacity: 0.1"/>
     <use xlink:href="#m569a27c755" x="126.980243" y="164.9848" style="fill-opacity: 0.1"/>
     <use xlink:href="#m569a27c755" x="112.082358" y="156.011557" style="fill-opacity: 0.1"/>
     <use xlink:href="#m569a27c755" x="114.006342" y="167.416397" style="fill-opacity: 0.1"/>
     <use xlink:href="#m569a27c755" x="110.500055" y="158.055823" style="fill-opacity: 0.1"/>
     <use xlink:href="#m569a27c755" x="124.587497" y="165.436689" style="fill-opacity: 0.1"/>
     <use xlink:href="#m569a27c755" x="117.719681" y="157.388746" style="fill-opacity: 0.1"/>
     <use xlink:href="#m569a27c755" x="115.852883" y="163.005092" style="fill-opacity: 0.1"/>
     <use xlink:href="#m569a27c755" x="124.873209" y="158.3786" style="fill-opacity: 0.1"/>
     <use xlink:href="#m569a27c755" x="116.408932" y="172.839075" style="fill-opacity: 0.1"/>
     <use xlink:href="#m569a27c755" x="125.075496" y="158.787454" style="fill-opacity: 0.1"/>
     <use xlink:href="#m569a27c755" x="127.009426" y="165.458209" style="fill-opacity: 0.1"/>
     <use xlink:href="#m569a27c755" x="113.791784" y="155.667261" style="fill-opacity: 0.1"/>
     <use xlink:href="#m569a27c755" x="130.51812" y="171.139109" style="fill-opacity: 0.1"/>
     <use xlink:href="#m569a27c755" x="112.568428" y="159.325418" style="fill-opacity: 0.1"/>
     <use xlink:href="#m569a27c755" x="115.410499" y="171.698593" style="fill-opacity: 0.1"/>
     <use xlink:href="#m569a27c755" x="112.954146" y="163.263314" style="fill-opacity: 0.1"/>
     <use xlink:href="#m569a27c755" x="116.619696" y="167.201213" style="fill-opacity: 0.1"/>
     <use xlink:href="#m569a27c755" x="119.596087" y="154.741964" style="fill-opacity: 0.1"/>
     <use xlink:href="#m569a27c755" x="120.52768" y="171.806185" style="fill-opacity: 0.1"/>
     <use xlink:href="#m569a27c755" x="127.858989" y="156.936856" style="fill-opacity: 0.1"/>
     <use xlink:href="#m569a27c755" x="128.651819" y="166.684766" style="fill-opacity: 0.1"/>
     <use xlink:href="#m569a27c755" x="113.84578" y="153.085034" style="fill-opacity: 0.1"/>
     <use xlink:href="#m569a27c755" x="122.755588" y="173.032743" style="fill-opacity: 0.1"/>
     <use xlink:href="#m569a27c755" x="111.443351" y="160.853236" style="fill-opacity: 0.1"/>
     <use xlink:href="#m569a27c755" x="119.129549" y="167.351842" style="fill-opacity: 0.1"/>
     <use xlink:href="#m569a27c755" x="116.107123" y="156.14067" style="fill-opacity: 0.1"/>
     <use xlink:href="#m569a27c755" x="115.978101" y="165.479728" style="fill-opacity: 0.1"/>
     <use xlink:href="#m569a27c755" x="119.651904" y="154.892594" style="fill-opacity: 0.1"/>
     <use xlink:href="#m569a27c755" x="125.120983" y="164.898725" style="fill-opacity: 0.1"/>
     <use xlink:href="#m569a27c755" x="110.50737" y="154.053369" style="fill-opacity: 0.1"/>
     <use xlink:href="#m569a27c755" x="128.424543" y="163.844317" style="fill-opacity: 0.1"/>
     <use xlink:href="#m569a27c755" x="125.231278" y="157.087488" style="fill-opacity: 0.1"/>
     <use xlink:href="#m569a27c755" x="112.88124" y="166.426543" style="fill-opacity: 0.1"/>
     <use xlink:href="#m569a27c755" x="129.751482" y="162.338015" style="fill-opacity: 0.1"/>
     <use xlink:href="#m569a27c755" x="120.176773" y="168.470809" style="fill-opacity: 0.1"/>
     <use xlink:href="#m569a27c755" x="131.093022" y="155.68878" style="fill-opacity: 0.1"/>
     <use xlink:href="#m569a27c755" x="113.340457" y="166.082247" style="fill-opacity: 0.1"/>
     <use xlink:href="#m569a27c755" x="120.809322" y="155.215371" style="fill-opacity: 0.1"/>
     <use xlink:href="#m569a27c755" x="115.397385" y="165.393654" style="fill-opacity: 0.1"/>
     <use xlink:href="#m569a27c755" x="115.70542" y="158.959602" style="fill-opacity: 0.1"/>
     <use xlink:href="#m569a27c755" x="122.051531" y="171.246703" style="fill-opacity: 0.1"/>
     <use xlink:href="#m569a27c755" x="129.365664" y="157.7976" style="fill-opacity: 0.1"/>
     <use xlink:href="#m569a27c755" x="126.789649" y="170.622665" style="fill-opacity: 0.1"/>
     <use xlink:href="#m569a27c755" x="124.990778" y="157.560894" style="fill-opacity: 0.1"/>
     <use xlink:href="#m569a27c755" x="121.346082" y="168.341696" style="fill-opacity: 0.1"/>
     <use xlink:href="#m569a27c755" x="129.378482" y="160.788681" style="fill-opacity: 0.1"/>
     <use xlink:href="#m569a27c755" x="119.868177" y="167.868287" style="fill-opacity: 0.1"/>
     <use xlink:href="#m569a27c755" x="128.306396" y="158.163416" style="fill-opacity: 0.1"/>
     <use xlink:href="#m569a27c755" x="127.424893" y="164.360761" style="fill-opacity: 0.1"/>
     <use xlink:href="#m569a27c755" x="113.707119" y="157.496339" style="fill-opacity: 0.1"/>
     <use xlink:href="#m569a27c755" x="126.036712" y="168.772067" style="fill-opacity: 0.1"/>
     <use xlink:href="#m569a27c755" x="109.246263" y="154.828039" style="fill-opacity: 0.1"/>
     <use xlink:href="#m569a27c755" x="116.118095" y="166.297433" style="fill-opacity: 0.1"/>
     <use xlink:href="#m569a27c755" x="114.055117" y="156.011557" style="fill-opacity: 0.1"/>
     <use xlink:href="#m569a27c755" x="120.188955" y="164.769616" style="fill-opacity: 0.1"/>
     <use xlink:href="#m569a27c755" x="125.276389" y="155.344483" style="fill-opacity: 0.1"/>
     <use xlink:href="#m569a27c755" x="111.137657" y="163.521537" style="fill-opacity: 0.1"/>
     <use xlink:href="#m569a27c755" x="120.367227" y="155.602706" style="fill-opacity: 0.1"/>
     <use xlink:href="#m569a27c755" x="129.734916" y="168.406251" style="fill-opacity: 0.1"/>
     <use xlink:href="#m569a27c755" x="114.034746" y="151.557216" style="fill-opacity: 0.1"/>
     <use xlink:href="#m569a27c755" x="123.955546" y="169.180921" style="fill-opacity: 0.1"/>
    </g>
   </g>
   <g id="PathCollection_3">
    <g clip-path="url(#p48bdc55b8e)">
     <use xlink:href="#m569a27c755" x="177.392232" y="120.011" style="fill-opacity: 0.1"/>
     <use xlink:href="#m569a27c755" x="164.5002" y="132.90062" style="fill-opacity: 0.1"/>
     <use xlink:href="#m569a27c755" x="174.80297" y="121.926153" style="fill-opacity: 0.1"/>
     <use xlink:href="#m569a27c755" x="179.955748" y="120.33378" style="fill-opacity: 0.1"/>
     <use xlink:href="#m569a27c755" x="165.250335" y="112.931394" style="fill-opacity: 0.1"/>
     <use xlink:href="#m569a27c755" x="183.7328" y="116.589546" style="fill-opacity: 0.1"/>
     <use xlink:href="#m569a27c755" x="175.781906" y="127.413386" style="fill-opacity: 0.1"/>
     <use xlink:href="#m569a27c755" x="164.955818" y="120.548962" style="fill-opacity: 0.1"/>
     <use xlink:href="#m569a27c755" x="169.241668" y="118.289512" style="fill-opacity: 0.1"/>
     <use xlink:href="#m569a27c755" x="185.373107" y="120.33378" style="fill-opacity: 0.1"/>
     <use xlink:href="#m569a27c755" x="177.158631" y="119.257852" style="fill-opacity: 0.1"/>
     <use xlink:href="#m569a27c755" x="166.654906" y="120.33378" style="fill-opacity: 0.1"/>
     <use xlink:href="#m569a27c755" x="170.638137" y="108.627677" style="fill-opacity: 0.1"/>
     <use xlink:href="#m569a27c755" x="174.379975" y="122.916004" style="fill-opacity: 0.1"/>
     <use xlink:href="#m569a27c755" x="164.741009" y="112.716208" style="fill-opacity: 0.1"/>
     <use xlink:href="#m569a27c755" x="173.382616" y="117.342699" style="fill-opacity: 0.1"/>
     <use xlink:href="#m569a27c755" x="175.104523" y="136.860035" style="fill-opacity: 0.1"/>
     <use xlink:href="#m569a27c755" x="169.667798" y="108.412496" style="fill-opacity: 0.1"/>
     <use xlink:href="#m569a27c755" x="177.298415" y="132.90062" style="fill-opacity: 0.1"/>
     <use xlink:href="#m569a27c755" x="180.939428" y="123.669157" style="fill-opacity: 0.1"/>
     <use xlink:href="#m569a27c755" x="169.494295" y="113.146576" style="fill-opacity: 0.1"/>
     <use xlink:href="#m569a27c755" x="178.003185" y="118.848996" style="fill-opacity: 0.1"/>
     <use xlink:href="#m569a27c755" x="178.426175" y="117.751551" style="fill-opacity: 0.1"/>
     <use xlink:href="#m569a27c755" x="185.259511" y="118.848996" style="fill-opacity: 0.1"/>
     <use xlink:href="#m569a27c755" x="181.493231" y="129.780429" style="fill-opacity: 0.1"/>
     <use xlink:href="#m569a27c755" x="183.043175" y="121.086928" style="fill-opacity: 0.1"/>
     <use xlink:href="#m569a27c755" x="175.125786" y="132.90062" style="fill-opacity: 0.1"/>
     <use xlink:href="#m569a27c755" x="168.377541" y="121.086928" style="fill-opacity: 0.1"/>
     <use xlink:href="#m569a27c755" x="186.305245" y="119.88189" style="fill-opacity: 0.1"/>
     <use xlink:href="#m569a27c755" x="167.138967" y="132.147472" style="fill-opacity: 0.1"/>
     <use xlink:href="#m569a27c755" x="174.70633" y="122.679301" style="fill-opacity: 0.1"/>
     <use xlink:href="#m569a27c755" x="165.783824" y="121.431225" style="fill-opacity: 0.1"/>
     <use xlink:href="#m569a27c755" x="185.15578" y="116.675623" style="fill-opacity: 0.1"/>
     <use xlink:href="#m569a27c755" x="185.621943" y="116.89081" style="fill-opacity: 0.1"/>
     <use xlink:href="#m569a27c755" x="180.190635" y="131.28673" style="fill-opacity: 0.1"/>
     <use xlink:href="#m569a27c755" x="172.019509" y="134.406921" style="fill-opacity: 0.1"/>
     <use xlink:href="#m569a27c755" x="169.904584" y="120.011" style="fill-opacity: 0.1"/>
     <use xlink:href="#m569a27c755" x="170.146158" y="119.171776" style="fill-opacity: 0.1"/>
     <use xlink:href="#m569a27c755" x="167.093361" y="115.298437" style="fill-opacity: 0.1"/>
     <use xlink:href="#m569a27c755" x="175.9086" y="119.171776" style="fill-opacity: 0.1"/>
     <use xlink:href="#m569a27c755" x="167.414619" y="118.504699" style="fill-opacity: 0.1"/>
     <use xlink:href="#m569a27c755" x="171.283742" y="114.63136" style="fill-opacity: 0.1"/>
     <use xlink:href="#m569a27c755" x="178.140476" y="117.966738" style="fill-opacity: 0.1"/>
     <use xlink:href="#m569a27c755" x="180.371015" y="120.764148" style="fill-opacity: 0.1"/>
     <use xlink:href="#m569a27c755" x="164.814507" y="120.419852" style="fill-opacity: 0.1"/>
     <use xlink:href="#m569a27c755" x="173.79185" y="118.848996" style="fill-opacity: 0.1"/>
     <use xlink:href="#m569a27c755" x="178.70273" y="123.669157" style="fill-opacity: 0.1"/>
     <use xlink:href="#m569a27c755" x="183.15158" y="134.406921" style="fill-opacity: 0.1"/>
     <use xlink:href="#m569a27c755" x="174.791879" y="119.473034" style="fill-opacity: 0.1"/>
     <use xlink:href="#m569a27c755" x="185.716638" y="120.548962" style="fill-opacity: 0.1"/>
     <use xlink:href="#m569a27c755" x="170.15344" y="132.039878" style="fill-opacity: 0.1"/>
     <use xlink:href="#m569a27c755" x="164.576405" y="120.33378" style="fill-opacity: 0.1"/>
     <use xlink:href="#m569a27c755" x="174.97831" y="121.517301" style="fill-opacity: 0.1"/>
     <use xlink:href="#m569a27c755" x="169.942883" y="121.431225" style="fill-opacity: 0.1"/>
     <use xlink:href="#m569a27c755" x="182.498407" y="127.628573" style="fill-opacity: 0.1"/>
     <use xlink:href="#m569a27c755" x="169.426572" y="121.086928" style="fill-opacity: 0.1"/>
     <use xlink:href="#m569a27c755" x="171.148776" y="120.635038" style="fill-opacity: 0.1"/>
     <use xlink:href="#m569a27c755" x="181.779716" y="118.848996" style="fill-opacity: 0.1"/>
     <use xlink:href="#m569a27c755" x="180.096717" y="120.548962" style="fill-opacity: 0.1"/>
     <use xlink:href="#m569a27c755" x="176.621806" y="124.508382" style="fill-opacity: 0.1"/>
     <use xlink:href="#m569a27c755" x="179.871197" y="117.751551" style="fill-opacity: 0.1"/>
     <use xlink:href="#m569a27c755" x="173.53793" y="121.840076" style="fill-opacity: 0.1"/>
     <use xlink:href="#m569a27c755" x="164.395049" y="118.095848" style="fill-opacity: 0.1"/>
     <use xlink:href="#m569a27c755" x="164.528767" y="131.824692" style="fill-opacity: 0.1"/>
     <use xlink:href="#m569a27c755" x="175.585929" y="115.169322" style="fill-opacity: 0.1"/>
     <use xlink:href="#m569a27c755" x="166.120004" y="122.916004" style="fill-opacity: 0.1"/>
     <use xlink:href="#m569a27c755" x="165.40739" y="115.513618" style="fill-opacity: 0.1"/>
     <use xlink:href="#m569a27c755" x="185.635032" y="117.342699" style="fill-opacity: 0.1"/>
     <use xlink:href="#m569a27c755" x="183.278918" y="118.719886" style="fill-opacity: 0.1"/>
     <use xlink:href="#m569a27c755" x="167.640465" y="131.824692" style="fill-opacity: 0.1"/>
     <use xlink:href="#m569a27c755" x="164.292282" y="120.548962" style="fill-opacity: 0.1"/>
     <use xlink:href="#m569a27c755" x="185.10749" y="120.33378" style="fill-opacity: 0.1"/>
     <use xlink:href="#m569a27c755" x="170.434207" y="120.548962" style="fill-opacity: 0.1"/>
     <use xlink:href="#m569a27c755" x="168.389685" y="129.565242" style="fill-opacity: 0.1"/>
     <use xlink:href="#m569a27c755" x="179.573902" y="120.419852" style="fill-opacity: 0.1"/>
     <use xlink:href="#m569a27c755" x="166.686564" y="126.87542" style="fill-opacity: 0.1"/>
     <use xlink:href="#m569a27c755" x="170.131697" y="117.751551" style="fill-opacity: 0.1"/>
     <use xlink:href="#m569a27c755" x="185.8469" y="132.147472" style="fill-opacity: 0.1"/>
     <use xlink:href="#m569a27c755" x="178.422648" y="120.871742" style="fill-opacity: 0.1"/>
     <use xlink:href="#m569a27c755" x="175.795097" y="120.871742" style="fill-opacity: 0.1"/>
     <use xlink:href="#m569a27c755" x="173.079637" y="126.767832" style="fill-opacity: 0.1"/>
     <use xlink:href="#m569a27c755" x="181.409722" y="118.848996" style="fill-opacity: 0.1"/>
     <use xlink:href="#m569a27c755" x="167.3956" y="125.175454" style="fill-opacity: 0.1"/>
     <use xlink:href="#m569a27c755" x="185.675316" y="122.916004" style="fill-opacity: 0.1"/>
     <use xlink:href="#m569a27c755" x="183.325821" y="122.055263" style="fill-opacity: 0.1"/>
     <use xlink:href="#m569a27c755" x="177.940299" y="117.342699" style="fill-opacity: 0.1"/>
     <use xlink:href="#m569a27c755" x="165.226684" y="115.728805" style="fill-opacity: 0.1"/>
     <use xlink:href="#m569a27c755" x="179.780672" y="119.171776" style="fill-opacity: 0.1"/>
     <use xlink:href="#m569a27c755" x="184.479642" y="118.095848" style="fill-opacity: 0.1"/>
     <use xlink:href="#m569a27c755" x="175.88135" y="120.764148" style="fill-opacity: 0.1"/>
     <use xlink:href="#m569a27c755" x="172.113121" y="112.070648" style="fill-opacity: 0.1"/>
     <use xlink:href="#m569a27c755" x="166.938151" y="131.501912" style="fill-opacity: 0.1"/>
     <use xlink:href="#m569a27c755" x="180.976169" y="123.002081" style="fill-opacity: 0.1"/>
     <use xlink:href="#m569a27c755" x="183.854469" y="120.33378" style="fill-opacity: 0.1"/>
     <use xlink:href="#m569a27c755" x="166.49518" y="129.780429" style="fill-opacity: 0.1"/>
     <use xlink:href="#m569a27c755" x="181.066496" y="122.916004" style="fill-opacity: 0.1"/>
     <use xlink:href="#m569a27c755" x="164.654971" y="115.384508" style="fill-opacity: 0.1"/>
     <use xlink:href="#m569a27c755" x="185.669059" y="120.011" style="fill-opacity: 0.1"/>
     <use xlink:href="#m569a27c755" x="177.882809" y="118.935072" style="fill-opacity: 0.1"/>
     <use xlink:href="#m569a27c755" x="176.497664" y="118.095848" style="fill-opacity: 0.1"/>
     <use xlink:href="#m569a27c755" x="170.824065" y="125.046344" style="fill-opacity: 0.1"/>
     <use xlink:href="#m569a27c755" x="184.833727" y="132.147472" style="fill-opacity: 0.1"/>
     <use xlink:href="#m569a27c755" x="170.159481" y="123.002081" style="fill-opacity: 0.1"/>
     <use xlink:href="#m569a27c755" x="182.596376" y="118.095848" style="fill-opacity: 0.1"/>
     <use xlink:href="#m569a27c755" x="186.068412" y="114.30858" style="fill-opacity: 0.1"/>
     <use xlink:href="#m569a27c755" x="181.606497" y="120.33378" style="fill-opacity: 0.1"/>
     <use xlink:href="#m569a27c755" x="175.757761" y="122.808411" style="fill-opacity: 0.1"/>
     <use xlink:href="#m569a27c755" x="165.739166" y="127.52098" style="fill-opacity: 0.1"/>
     <use xlink:href="#m569a27c755" x="174.727487" y="132.233543" style="fill-opacity: 0.1"/>
     <use xlink:href="#m569a27c755" x="173.971908" y="120.011" style="fill-opacity: 0.1"/>
     <use xlink:href="#m569a27c755" x="168.763483" y="124.508382" style="fill-opacity: 0.1"/>
     <use xlink:href="#m569a27c755" x="173.647442" y="119.924924" style="fill-opacity: 0.1"/>
     <use xlink:href="#m569a27c755" x="172.191273" y="123.669157" style="fill-opacity: 0.1"/>
     <use xlink:href="#m569a27c755" x="167.898321" y="116.912326" style="fill-opacity: 0.1"/>
     <use xlink:href="#m569a27c755" x="174.040883" y="120.011" style="fill-opacity: 0.1"/>
     <use xlink:href="#m569a27c755" x="170.090782" y="124.852679" style="fill-opacity: 0.1"/>
     <use xlink:href="#m569a27c755" x="175.825726" y="113.254169" style="fill-opacity: 0.1"/>
     <use xlink:href="#m569a27c755" x="165.055337" y="129.565242" style="fill-opacity: 0.1"/>
     <use xlink:href="#m569a27c755" x="184.323629" y="122.464114" style="fill-opacity: 0.1"/>
     <use xlink:href="#m569a27c755" x="182.335749" y="121.409708" style="fill-opacity: 0.1"/>
     <use xlink:href="#m569a27c755" x="176.500811" y="125.06786" style="fill-opacity: 0.1"/>
     <use xlink:href="#m569a27c755" x="183.119784" y="132.147472" style="fill-opacity: 0.1"/>
     <use xlink:href="#m569a27c755" x="185.565982" y="129.780429" style="fill-opacity: 0.1"/>
     <use xlink:href="#m569a27c755" x="166.722367" y="118.397106" style="fill-opacity: 0.1"/>
     <use xlink:href="#m569a27c755" x="178.231729" y="122.27045" style="fill-opacity: 0.1"/>
     <use xlink:href="#m569a27c755" x="186.353438" y="129.565242" style="fill-opacity: 0.1"/>
     <use xlink:href="#m569a27c755" x="186.129917" y="119.343924" style="fill-opacity: 0.1"/>
     <use xlink:href="#m569a27c755" x="177.623228" y="128.403243" style="fill-opacity: 0.1"/>
     <use xlink:href="#m569a27c755" x="167.109439" y="117.751551" style="fill-opacity: 0.1"/>
     <use xlink:href="#m569a27c755" x="177.177944" y="138.990374" style="fill-opacity: 0.1"/>
     <use xlink:href="#m569a27c755" x="164.323259" y="117.773068" style="fill-opacity: 0.1"/>
     <use xlink:href="#m569a27c755" x="168.677552" y="129.758912" style="fill-opacity: 0.1"/>
     <use xlink:href="#m569a27c755" x="185.427246" y="121.517301" style="fill-opacity: 0.1"/>
     <use xlink:href="#m569a27c755" x="171.587008" y="118.827479" style="fill-opacity: 0.1"/>
     <use xlink:href="#m569a27c755" x="178.39892" y="117.557886" style="fill-opacity: 0.1"/>
     <use xlink:href="#m569a27c755" x="170.490263" y="129.565242" style="fill-opacity: 0.1"/>
     <use xlink:href="#m569a27c755" x="185.24362" y="114.43769" style="fill-opacity: 0.1"/>
     <use xlink:href="#m569a27c755" x="180.39347" y="143.164976" style="fill-opacity: 0.1"/>
     <use xlink:href="#m569a27c755" x="171.569546" y="121.302115" style="fill-opacity: 0.1"/>
     <use xlink:href="#m569a27c755" x="181.791528" y="122.916004" style="fill-opacity: 0.1"/>
     <use xlink:href="#m569a27c755" x="166.670235" y="121.732483" style="fill-opacity: 0.1"/>
     <use xlink:href="#m569a27c755" x="172.955771" y="130.18928" style="fill-opacity: 0.1"/>
     <use xlink:href="#m569a27c755" x="169.170983" y="120.419852" style="fill-opacity: 0.1"/>
     <use xlink:href="#m569a27c755" x="179.40177" y="141.249824" style="fill-opacity: 0.1"/>
     <use xlink:href="#m569a27c755" x="166.543724" y="112.802279" style="fill-opacity: 0.1"/>
     <use xlink:href="#m569a27c755" x="173.059889" y="120.355297" style="fill-opacity: 0.1"/>
     <use xlink:href="#m569a27c755" x="170.397143" y="117.622441" style="fill-opacity: 0.1"/>
     <use xlink:href="#m569a27c755" x="175.478007" y="112.716208" style="fill-opacity: 0.1"/>
     <use xlink:href="#m569a27c755" x="172.017404" y="120.419852" style="fill-opacity: 0.1"/>
     <use xlink:href="#m569a27c755" x="179.903548" y="127.52098" style="fill-opacity: 0.1"/>
     <use xlink:href="#m569a27c755" x="164.821238" y="124.508382" style="fill-opacity: 0.1"/>
     <use xlink:href="#m569a27c755" x="178.301521" y="123.002081" style="fill-opacity: 0.1"/>
     <use xlink:href="#m569a27c755" x="169.377877" y="121.926153" style="fill-opacity: 0.1"/>
     <use xlink:href="#m569a27c755" x="170.221492" y="122.937526" style="fill-opacity: 0.1"/>
     <use xlink:href="#m569a27c755" x="181.979421" y="121.302115" style="fill-opacity: 0.1"/>
     <use xlink:href="#m569a27c755" x="185.414974" y="120.764148" style="fill-opacity: 0.1"/>
     <use xlink:href="#m569a27c755" x="171.27975" y="116.675623" style="fill-opacity: 0.1"/>
     <use xlink:href="#m569a27c755" x="182.566705" y="131.824692" style="fill-opacity: 0.1"/>
     <use xlink:href="#m569a27c755" x="166.57789" y="115.298437" style="fill-opacity: 0.1"/>
     <use xlink:href="#m569a27c755" x="178.301404" y="129.565242" style="fill-opacity: 0.1"/>
     <use xlink:href="#m569a27c755" x="180.89059" y="113.146576" style="fill-opacity: 0.1"/>
     <use xlink:href="#m569a27c755" x="167.727856" y="117.127513" style="fill-opacity: 0.1"/>
     <use xlink:href="#m569a27c755" x="173.700857" y="120.548962" style="fill-opacity: 0.1"/>
     <use xlink:href="#m569a27c755" x="184.02447" y="123.346378" style="fill-opacity: 0.1"/>
     <use xlink:href="#m569a27c755" x="166.568768" y="120.011" style="fill-opacity: 0.1"/>
     <use xlink:href="#m569a27c755" x="164.677885" y="128.295649" style="fill-opacity: 0.1"/>
     <use xlink:href="#m569a27c755" x="177.341469" y="123.002081" style="fill-opacity: 0.1"/>
     <use xlink:href="#m569a27c755" x="173.911644" y="117.342699" style="fill-opacity: 0.1"/>
     <use xlink:href="#m569a27c755" x="181.944773" y="114.43769" style="fill-opacity: 0.1"/>
     <use xlink:href="#m569a27c755" x="184.704631" y="120.33378" style="fill-opacity: 0.1"/>
     <use xlink:href="#m569a27c755" x="170.894934" y="112.931394" style="fill-opacity: 0.1"/>
     <use xlink:href="#m569a27c755" x="172.869174" y="114.43769" style="fill-opacity: 0.1"/>
     <use xlink:href="#m569a27c755" x="175.034036" y="117.428771" style="fill-opacity: 0.1"/>
     <use xlink:href="#m569a27c755" x="177.28763" y="129.565242" style="fill-opacity: 0.1"/>
     <use xlink:href="#m569a27c755" x="186.040654" y="127.628573" style="fill-opacity: 0.1"/>
     <use xlink:href="#m569a27c755" x="179.702689" y="121.431225" style="fill-opacity: 0.1"/>
     <use xlink:href="#m569a27c755" x="172.894489" y="133.739844" style="fill-opacity: 0.1"/>
     <use xlink:href="#m569a27c755" x="170.112189" y="132.147472" style="fill-opacity: 0.1"/>
     <use xlink:href="#m569a27c755" x="185.17292" y="122.808411" style="fill-opacity: 0.1"/>
     <use xlink:href="#m569a27c755" x="167.275951" y="116.89081" style="fill-opacity: 0.1"/>
     <use xlink:href="#m569a27c755" x="180.21003" y="108.627677" style="fill-opacity: 0.1"/>
     <use xlink:href="#m569a27c755" x="184.747533" y="129.565242" style="fill-opacity: 0.1"/>
     <use xlink:href="#m569a27c755" x="178.980139" y="120.226187" style="fill-opacity: 0.1"/>
     <use xlink:href="#m569a27c755" x="173.635647" y="122.916004" style="fill-opacity: 0.1"/>
     <use xlink:href="#m569a27c755" x="168.679313" y="119.473034" style="fill-opacity: 0.1"/>
     <use xlink:href="#m569a27c755" x="172.406225" y="115.406025" style="fill-opacity: 0.1"/>
     <use xlink:href="#m569a27c755" x="179.913751" y="123.002081" style="fill-opacity: 0.1"/>
     <use xlink:href="#m569a27c755" x="178.64543" y="119.064182" style="fill-opacity: 0.1"/>
     <use xlink:href="#m569a27c755" x="184.804628" y="124.61597" style="fill-opacity: 0.1"/>
     <use xlink:href="#m569a27c755" x="183.452745" y="134.406921" style="fill-opacity: 0.1"/>
     <use xlink:href="#m569a27c755" x="182.331025" y="115.513618" style="fill-opacity: 0.1"/>
     <use xlink:href="#m569a27c755" x="184.439085" y="120.33378" style="fill-opacity: 0.1"/>
     <use xlink:href="#m569a27c755" x="170.390228" y="121.732483" style="fill-opacity: 0.1"/>
     <use xlink:href="#m569a27c755" x="172.451532" y="131.824692" style="fill-opacity: 0.1"/>
     <use xlink:href="#m569a27c755" x="172.680927" y="123.669157" style="fill-opacity: 0.1"/>
     <use xlink:href="#m569a27c755" x="176.674881" y="114.523767" style="fill-opacity: 0.1"/>
     <use xlink:href="#m569a27c755" x="179.058725" y="120.548962" style="fill-opacity: 0.1"/>
     <use xlink:href="#m569a27c755" x="170.619826" y="119.171776" style="fill-opacity: 0.1"/>
     <use xlink:href="#m569a27c755" x="164.708103" y="116.804733" style="fill-opacity: 0.1"/>
     <use xlink:href="#m569a27c755" x="173.108477" y="134.406921" style="fill-opacity: 0.1"/>
    </g>
   </g>
   <g id="text_4">
    <!-- *** -->
    <g transform="translate(108.037145 105.490692) scale(0.16 -0.16)">
     <defs>
      <path id="DejaVuSans-2a" d="M 3009 3897 
L 1888 3291 
L 3009 2681 
L 2828 2375 
L 1778 3009 
L 1778 1831 
L 1422 1831 
L 1422 3009 
L 372 2375 
L 191 2681 
L 1313 3291 
L 191 3897 
L 372 4206 
L 1422 3572 
L 1422 4750 
L 1778 4750 
L 1778 3572 
L 2828 4206 
L 3009 3897 
z
" transform="scale(0.015625)"/>
     </defs>
     <use xlink:href="#DejaVuSans-2a"/>
     <use xlink:href="#DejaVuSans-2a" transform="translate(50 0)"/>
     <use xlink:href="#DejaVuSans-2a" transform="translate(100 0)"/>
    </g>
   </g>
   <g id="text_5">
    <!-- *** -->
    <g transform="translate(80.386867 83.223278) scale(0.16 -0.16)">
     <use xlink:href="#DejaVuSans-2a"/>
     <use xlink:href="#DejaVuSans-2a" transform="translate(50 0)"/>
     <use xlink:href="#DejaVuSans-2a" transform="translate(100 0)"/>
    </g>
   </g>
   <g id="text_6">
    <!-- *** -->
    <g transform="translate(135.687423 78.084649) scale(0.16 -0.16)">
     <use xlink:href="#DejaVuSans-2a"/>
     <use xlink:href="#DejaVuSans-2a" transform="translate(50 0)"/>
     <use xlink:href="#DejaVuSans-2a" transform="translate(100 0)"/>
    </g>
   </g>
   <g id="text_7">
    <!-- Semantic -->
    <g transform="translate(73.132457 29.437125) scale(0.2 -0.2)">
     <defs>
      <path id="DejaVuSans-53" d="M 3425 4513 
L 3425 3897 
Q 3066 4069 2747 4153 
Q 2428 4238 2131 4238 
Q 1616 4238 1336 4038 
Q 1056 3838 1056 3469 
Q 1056 3159 1242 3001 
Q 1428 2844 1947 2747 
L 2328 2669 
Q 3034 2534 3370 2195 
Q 3706 1856 3706 1288 
Q 3706 609 3251 259 
Q 2797 -91 1919 -91 
Q 1588 -91 1214 -16 
Q 841 59 441 206 
L 441 856 
Q 825 641 1194 531 
Q 1563 422 1919 422 
Q 2459 422 2753 634 
Q 3047 847 3047 1241 
Q 3047 1584 2836 1778 
Q 2625 1972 2144 2069 
L 1759 2144 
Q 1053 2284 737 2584 
Q 422 2884 422 3419 
Q 422 4038 858 4394 
Q 1294 4750 2059 4750 
Q 2388 4750 2728 4690 
Q 3069 4631 3425 4513 
z
" transform="scale(0.015625)"/>
     </defs>
     <use xlink:href="#DejaVuSans-53"/>
     <use xlink:href="#DejaVuSans-65" transform="translate(63.476562 0)"/>
     <use xlink:href="#DejaVuSans-6d" transform="translate(125 0)"/>
     <use xlink:href="#DejaVuSans-61" transform="translate(222.412109 0)"/>
     <use xlink:href="#DejaVuSans-6e" transform="translate(283.691406 0)"/>
     <use xlink:href="#DejaVuSans-74" transform="translate(347.070312 0)"/>
     <use xlink:href="#DejaVuSans-69" transform="translate(386.279297 0)"/>
     <use xlink:href="#DejaVuSans-63" transform="translate(414.0625 0)"/>
    </g>
    <!-- Out-Of-Distribution -->
    <g transform="translate(25.237145 51.83275) scale(0.2 -0.2)">
     <defs>
      <path id="DejaVuSans-4f" d="M 2522 4238 
Q 1834 4238 1429 3725 
Q 1025 3213 1025 2328 
Q 1025 1447 1429 934 
Q 1834 422 2522 422 
Q 3209 422 3611 934 
Q 4013 1447 4013 2328 
Q 4013 3213 3611 3725 
Q 3209 4238 2522 4238 
z
M 2522 4750 
Q 3503 4750 4090 4092 
Q 4678 3434 4678 2328 
Q 4678 1225 4090 567 
Q 3503 -91 2522 -91 
Q 1538 -91 948 565 
Q 359 1222 359 2328 
Q 359 3434 948 4092 
Q 1538 4750 2522 4750 
z
" transform="scale(0.015625)"/>
      <path id="DejaVuSans-75" d="M 544 1381 
L 544 3500 
L 1119 3500 
L 1119 1403 
Q 1119 906 1312 657 
Q 1506 409 1894 409 
Q 2359 409 2629 706 
Q 2900 1003 2900 1516 
L 2900 3500 
L 3475 3500 
L 3475 0 
L 2900 0 
L 2900 538 
Q 2691 219 2414 64 
Q 2138 -91 1772 -91 
Q 1169 -91 856 284 
Q 544 659 544 1381 
z
M 1991 3584 
L 1991 3584 
z
" transform="scale(0.015625)"/>
      <path id="DejaVuSans-66" d="M 2375 4863 
L 2375 4384 
L 1825 4384 
Q 1516 4384 1395 4259 
Q 1275 4134 1275 3809 
L 1275 3500 
L 2222 3500 
L 2222 3053 
L 1275 3053 
L 1275 0 
L 697 0 
L 697 3053 
L 147 3053 
L 147 3500 
L 697 3500 
L 697 3744 
Q 697 4328 969 4595 
Q 1241 4863 1831 4863 
L 2375 4863 
z
" transform="scale(0.015625)"/>
      <path id="DejaVuSans-44" d="M 1259 4147 
L 1259 519 
L 2022 519 
Q 2988 519 3436 956 
Q 3884 1394 3884 2338 
Q 3884 3275 3436 3711 
Q 2988 4147 2022 4147 
L 1259 4147 
z
M 628 4666 
L 1925 4666 
Q 3281 4666 3915 4102 
Q 4550 3538 4550 2338 
Q 4550 1131 3912 565 
Q 3275 0 1925 0 
L 628 0 
L 628 4666 
z
" transform="scale(0.015625)"/>
     </defs>
     <use xlink:href="#DejaVuSans-4f"/>
     <use xlink:href="#DejaVuSans-75" transform="translate(78.710938 0)"/>
     <use xlink:href="#DejaVuSans-74" transform="translate(142.089844 0)"/>
     <use xlink:href="#DejaVuSans-2d" transform="translate(181.298828 0)"/>
     <use xlink:href="#DejaVuSans-4f" transform="translate(220.132812 0)"/>
     <use xlink:href="#DejaVuSans-66" transform="translate(298.84375 0)"/>
     <use xlink:href="#DejaVuSans-2d" transform="translate(328.548828 0)"/>
     <use xlink:href="#DejaVuSans-44" transform="translate(364.632812 0)"/>
     <use xlink:href="#DejaVuSans-69" transform="translate(441.634766 0)"/>
     <use xlink:href="#DejaVuSans-73" transform="translate(469.417969 0)"/>
     <use xlink:href="#DejaVuSans-74" transform="translate(521.517578 0)"/>
     <use xlink:href="#DejaVuSans-72" transform="translate(560.726562 0)"/>
     <use xlink:href="#DejaVuSans-69" transform="translate(601.839844 0)"/>
     <use xlink:href="#DejaVuSans-62" transform="translate(629.623047 0)"/>
     <use xlink:href="#DejaVuSans-75" transform="translate(693.099609 0)"/>
     <use xlink:href="#DejaVuSans-74" transform="translate(756.478516 0)"/>
     <use xlink:href="#DejaVuSans-69" transform="translate(795.6875 0)"/>
     <use xlink:href="#DejaVuSans-6f" transform="translate(823.470703 0)"/>
     <use xlink:href="#DejaVuSans-6e" transform="translate(884.652344 0)"/>
    </g>
    <!--  -->
    <g transform="translate(120.037145 74.228375) scale(0.2 -0.2)"/>
    <!--  -->
    <g transform="translate(120.037145 96.624) scale(0.2 -0.2)"/>
   </g>
   <g id="LineCollection_1">
    <path d="M 64.73659 131.255668 
L 64.73659 130.279941 
" clip-path="url(#p48bdc55b8e)" style="fill: none; stroke: #000000; stroke-width: 2"/>
    <path d="M 120.037145 162.726376 
L 120.037145 161.903395 
" clip-path="url(#p48bdc55b8e)" style="fill: none; stroke: #000000; stroke-width: 2"/>
    <path d="M 175.3377 122.538711 
L 175.3377 121.664773 
" clip-path="url(#p48bdc55b8e)" style="fill: none; stroke: #000000; stroke-width: 2"/>
   </g>
   <g id="line2d_7">
    <defs>
     <path id="m84c16ed6a2" d="M 5 0 
L -5 -0 
" style="stroke: #000000"/>
    </defs>
    <g clip-path="url(#p48bdc55b8e)">
     <use xlink:href="#m84c16ed6a2" x="64.73659" y="131.255668" style="stroke: #000000"/>
     <use xlink:href="#m84c16ed6a2" x="120.037145" y="162.726376" style="stroke: #000000"/>
     <use xlink:href="#m84c16ed6a2" x="175.3377" y="122.538711" style="stroke: #000000"/>
    </g>
   </g>
   <g id="line2d_8">
    <g clip-path="url(#p48bdc55b8e)">
     <use xlink:href="#m84c16ed6a2" x="64.73659" y="130.279941" style="stroke: #000000"/>
     <use xlink:href="#m84c16ed6a2" x="120.037145" y="161.903395" style="stroke: #000000"/>
     <use xlink:href="#m84c16ed6a2" x="175.3377" y="121.664773" style="stroke: #000000"/>
    </g>
   </g>
   <g id="line2d_9">
    <defs>
     <path id="mf6db02a62c" d="M 0 3 
C 0.795609 3 1.55874 2.683901 2.12132 2.12132 
C 2.683901 1.55874 3 0.795609 3 0 
C 3 -0.795609 2.683901 -1.55874 2.12132 -2.12132 
C 1.55874 -2.683901 0.795609 -3 0 -3 
C -0.795609 -3 -1.55874 -2.683901 -2.12132 -2.12132 
C -2.683901 -1.55874 -3 -0.795609 -3 0 
C -3 0.795609 -2.683901 1.55874 -2.12132 2.12132 
C -1.55874 2.683901 -0.795609 3 0 3 
z
" style="stroke: #000000"/>
    </defs>
    <g clip-path="url(#p48bdc55b8e)">
     <use xlink:href="#mf6db02a62c" x="64.73659" y="130.767804" style="stroke: #000000"/>
     <use xlink:href="#mf6db02a62c" x="120.037145" y="162.314886" style="stroke: #000000"/>
     <use xlink:href="#mf6db02a62c" x="175.3377" y="122.101742" style="stroke: #000000"/>
    </g>
   </g>
  </g>
 </g>
 <defs>
  <clipPath id="p48bdc55b8e">
   <rect x="34.87429" y="102.624" width="170.32571" height="89.926081"/>
  </clipPath>
 </defs>
</svg>
