<?xml version="1.0" encoding="utf-8" standalone="no"?>
<!DOCTYPE svg PUBLIC "-//W3C//DTD SVG 1.1//EN"
  "http://www.w3.org/Graphics/SVG/1.1/DTD/svg11.dtd">
<svg xmlns:xlink="http://www.w3.org/1999/xlink" width="216pt" height="216pt" viewBox="0 0 216 216" xmlns="http://www.w3.org/2000/svg" version="1.1">
 <metadata>
  <rdf:RDF xmlns:dc="http://purl.org/dc/elements/1.1/" xmlns:cc="http://creativecommons.org/ns#" xmlns:rdf="http://www.w3.org/1999/02/22-rdf-syntax-ns#">
   <cc:Work>
    <dc:type rdf:resource="http://purl.org/dc/dcmitype/StillImage"/>
    <dc:date>2025-10-02T17:23:16.698683</dc:date>
    <dc:format>image/svg+xml</dc:format>
    <dc:creator>
     <cc:Agent>
      <dc:title>Matplotlib v3.10.1, https://matplotlib.org/</dc:title>
     </cc:Agent>
    </dc:creator>
   </cc:Work>
  </rdf:RDF>
 </metadata>
 <defs>
  <style type="text/css">*{stroke-linejoin: round; stroke-linecap: butt}</style>
 </defs>
 <g id="figure_1">
  <g id="patch_1">
   <path d="M 0 216 
L 216 216 
L 216 0 
L 0 0 
L 0 216 
z
" style="fill: none"/>
  </g>
  <g id="axes_1">
   <g id="patch_2">
    <path d="M 27 192.24 
L 194.4 192.24 
L 194.4 25.92 
L 27 25.92 
L 27 192.24 
z
" style="fill: none"/>
   </g>
   <g id="patch_3">
    <path d="M 41.938665 192.24 
L 43.654935 192.24 
L 43.654935 185.5872 
L 41.938665 185.5872 
z
" clip-path="url(#p6d6d57b716)" style="fill: #00a651; opacity: 0.5"/>
   </g>
   <g id="patch_4">
    <path d="M 43.654935 192.24 
L 45.371209 192.24 
L 45.371209 188.9136 
L 43.654935 188.9136 
z
" clip-path="url(#p6d6d57b716)" style="fill: #00a651; opacity: 0.5"/>
   </g>
   <g id="patch_5">
    <path d="M 45.371209 192.24 
L 47.087479 192.24 
L 47.087479 182.2608 
L 45.371209 182.2608 
z
" clip-path="url(#p6d6d57b716)" style="fill: #00a651; opacity: 0.5"/>
   </g>
   <g id="patch_6">
    <path d="M 47.087479 192.24 
L 48.803753 192.24 
L 48.803753 165.6288 
L 47.087479 165.6288 
z
" clip-path="url(#p6d6d57b716)" style="fill: #00a651; opacity: 0.5"/>
   </g>
   <g id="patch_7">
    <path d="M 48.803753 192.24 
L 50.520024 192.24 
L 50.520024 158.976 
L 48.803753 158.976 
z
" clip-path="url(#p6d6d57b716)" style="fill: #00a651; opacity: 0.5"/>
   </g>
   <g id="patch_8">
    <path d="M 50.520024 192.24 
L 52.236297 192.24 
L 52.236297 109.08 
L 50.520024 109.08 
z
" clip-path="url(#p6d6d57b716)" style="fill: #00a651; opacity: 0.5"/>
   </g>
   <g id="patch_9">
    <path d="M 52.236297 192.24 
L 53.952568 192.24 
L 53.952568 82.4688 
L 52.236297 82.4688 
z
" clip-path="url(#p6d6d57b716)" style="fill: #00a651; opacity: 0.5"/>
   </g>
   <g id="patch_10">
    <path d="M 53.952568 192.24 
L 55.66884 192.24 
L 55.66884 69.1632 
L 53.952568 69.1632 
z
" clip-path="url(#p6d6d57b716)" style="fill: #00a651; opacity: 0.5"/>
   </g>
   <g id="patch_11">
    <path d="M 55.66884 192.24 
L 57.385112 192.24 
L 57.385112 45.8784 
L 55.66884 45.8784 
z
" clip-path="url(#p6d6d57b716)" style="fill: #00a651; opacity: 0.5"/>
   </g>
   <g id="patch_12">
    <path d="M 57.385112 192.24 
L 59.101384 192.24 
L 59.101384 65.8368 
L 57.385112 65.8368 
z
" clip-path="url(#p6d6d57b716)" style="fill: #00a651; opacity: 0.5"/>
   </g>
   <g id="patch_13">
    <path d="M 59.101384 192.24 
L 60.817656 192.24 
L 60.817656 55.8576 
L 59.101384 55.8576 
z
" clip-path="url(#p6d6d57b716)" style="fill: #00a651; opacity: 0.5"/>
   </g>
   <g id="patch_14">
    <path d="M 60.817656 192.24 
L 62.533927 192.24 
L 62.533927 45.8784 
L 60.817656 45.8784 
z
" clip-path="url(#p6d6d57b716)" style="fill: #00a651; opacity: 0.5"/>
   </g>
   <g id="patch_15">
    <path d="M 62.533927 192.24 
L 64.250199 192.24 
L 64.250199 39.2256 
L 62.533927 39.2256 
z
" clip-path="url(#p6d6d57b716)" style="fill: #00a651; opacity: 0.5"/>
   </g>
   <g id="patch_16">
    <path d="M 64.250199 192.24 
L 65.966471 192.24 
L 65.966471 39.2256 
L 64.250199 39.2256 
z
" clip-path="url(#p6d6d57b716)" style="fill: #00a651; opacity: 0.5"/>
   </g>
   <g id="patch_17">
    <path d="M 65.966471 192.24 
L 67.682743 192.24 
L 67.682743 95.7744 
L 65.966471 95.7744 
z
" clip-path="url(#p6d6d57b716)" style="fill: #00a651; opacity: 0.5"/>
   </g>
   <g id="patch_18">
    <path d="M 67.682743 192.24 
L 69.399015 192.24 
L 69.399015 82.4688 
L 67.682743 82.4688 
z
" clip-path="url(#p6d6d57b716)" style="fill: #00a651; opacity: 0.5"/>
   </g>
   <g id="patch_19">
    <path d="M 69.399015 192.24 
L 71.115286 192.24 
L 71.115286 119.0592 
L 69.399015 119.0592 
z
" clip-path="url(#p6d6d57b716)" style="fill: #00a651; opacity: 0.5"/>
   </g>
   <g id="patch_20">
    <path d="M 71.115286 192.24 
L 72.831559 192.24 
L 72.831559 55.8576 
L 71.115286 55.8576 
z
" clip-path="url(#p6d6d57b716)" style="fill: #00a651; opacity: 0.5"/>
   </g>
   <g id="patch_21">
    <path d="M 72.831559 192.24 
L 74.54783 192.24 
L 74.54783 95.7744 
L 72.831559 95.7744 
z
" clip-path="url(#p6d6d57b716)" style="fill: #00a651; opacity: 0.5"/>
   </g>
   <g id="patch_22">
    <path d="M 74.54783 192.24 
L 76.264103 192.24 
L 76.264103 102.4272 
L 74.54783 102.4272 
z
" clip-path="url(#p6d6d57b716)" style="fill: #00a651; opacity: 0.5"/>
   </g>
   <g id="patch_23">
    <path d="M 76.264103 192.24 
L 77.980374 192.24 
L 77.980374 105.7536 
L 76.264103 105.7536 
z
" clip-path="url(#p6d6d57b716)" style="fill: #00a651; opacity: 0.5"/>
   </g>
   <g id="patch_24">
    <path d="M 77.980374 192.24 
L 79.696648 192.24 
L 79.696648 119.0592 
L 77.980374 119.0592 
z
" clip-path="url(#p6d6d57b716)" style="fill: #00a651; opacity: 0.5"/>
   </g>
   <g id="patch_25">
    <path d="M 79.696648 192.24 
L 81.412918 192.24 
L 81.412918 109.08 
L 79.696648 109.08 
z
" clip-path="url(#p6d6d57b716)" style="fill: #00a651; opacity: 0.5"/>
   </g>
   <g id="patch_26">
    <path d="M 81.412918 192.24 
L 83.129189 192.24 
L 83.129189 129.0384 
L 81.412918 129.0384 
z
" clip-path="url(#p6d6d57b716)" style="fill: #00a651; opacity: 0.5"/>
   </g>
   <g id="patch_27">
    <path d="M 83.129189 192.24 
L 84.845462 192.24 
L 84.845462 139.0176 
L 83.129189 139.0176 
z
" clip-path="url(#p6d6d57b716)" style="fill: #00a651; opacity: 0.5"/>
   </g>
   <g id="patch_28">
    <path d="M 84.845462 192.24 
L 86.561733 192.24 
L 86.561733 129.0384 
L 84.845462 129.0384 
z
" clip-path="url(#p6d6d57b716)" style="fill: #00a651; opacity: 0.5"/>
   </g>
   <g id="patch_29">
    <path d="M 86.561733 192.24 
L 88.278006 192.24 
L 88.278006 162.3024 
L 86.561733 162.3024 
z
" clip-path="url(#p6d6d57b716)" style="fill: #00a651; opacity: 0.5"/>
   </g>
   <g id="patch_30">
    <path d="M 88.278006 192.24 
L 89.994277 192.24 
L 89.994277 139.0176 
L 88.278006 139.0176 
z
" clip-path="url(#p6d6d57b716)" style="fill: #00a651; opacity: 0.5"/>
   </g>
   <g id="patch_31">
    <path d="M 89.994277 192.24 
L 91.710551 192.24 
L 91.710551 145.6704 
L 89.994277 145.6704 
z
" clip-path="url(#p6d6d57b716)" style="fill: #00a651; opacity: 0.5"/>
   </g>
   <g id="patch_32">
    <path d="M 91.710551 192.24 
L 93.426821 192.24 
L 93.426821 165.6288 
L 91.710551 165.6288 
z
" clip-path="url(#p6d6d57b716)" style="fill: #00a651; opacity: 0.5"/>
   </g>
   <g id="patch_33">
    <path d="M 93.426821 192.24 
L 95.143095 192.24 
L 95.143095 135.6912 
L 93.426821 135.6912 
z
" clip-path="url(#p6d6d57b716)" style="fill: #00a651; opacity: 0.5"/>
   </g>
   <g id="patch_34">
    <path d="M 95.143095 192.24 
L 96.859365 192.24 
L 96.859365 162.3024 
L 95.143095 162.3024 
z
" clip-path="url(#p6d6d57b716)" style="fill: #00a651; opacity: 0.5"/>
   </g>
   <g id="patch_35">
    <path d="M 96.859365 192.24 
L 98.575639 192.24 
L 98.575639 142.344 
L 96.859365 142.344 
z
" clip-path="url(#p6d6d57b716)" style="fill: #00a651; opacity: 0.5"/>
   </g>
   <g id="patch_36">
    <path d="M 98.575639 192.24 
L 100.291906 192.24 
L 100.291906 155.6496 
L 98.575639 155.6496 
z
" clip-path="url(#p6d6d57b716)" style="fill: #00a651; opacity: 0.5"/>
   </g>
   <g id="patch_37">
    <path d="M 100.291906 192.24 
L 102.00818 192.24 
L 102.00818 152.3232 
L 100.291906 152.3232 
z
" clip-path="url(#p6d6d57b716)" style="fill: #00a651; opacity: 0.5"/>
   </g>
   <g id="patch_38">
    <path d="M 102.00818 192.24 
L 103.724454 192.24 
L 103.724454 168.9552 
L 102.00818 168.9552 
z
" clip-path="url(#p6d6d57b716)" style="fill: #00a651; opacity: 0.5"/>
   </g>
   <g id="patch_39">
    <path d="M 103.724454 192.24 
L 105.440727 192.24 
L 105.440727 158.976 
L 103.724454 158.976 
z
" clip-path="url(#p6d6d57b716)" style="fill: #00a651; opacity: 0.5"/>
   </g>
   <g id="patch_40">
    <path d="M 105.440727 192.24 
L 107.156995 192.24 
L 107.156995 168.9552 
L 105.440727 168.9552 
z
" clip-path="url(#p6d6d57b716)" style="fill: #00a651; opacity: 0.5"/>
   </g>
   <g id="patch_41">
    <path d="M 107.156995 192.24 
L 108.873268 192.24 
L 108.873268 158.976 
L 107.156995 158.976 
z
" clip-path="url(#p6d6d57b716)" style="fill: #00a651; opacity: 0.5"/>
   </g>
   <g id="patch_42">
    <path d="M 108.873268 192.24 
L 110.589542 192.24 
L 110.589542 155.6496 
L 108.873268 155.6496 
z
" clip-path="url(#p6d6d57b716)" style="fill: #00a651; opacity: 0.5"/>
   </g>
   <g id="patch_43">
    <path d="M 110.589542 192.24 
L 112.305809 192.24 
L 112.305809 158.976 
L 110.589542 158.976 
z
" clip-path="url(#p6d6d57b716)" style="fill: #00a651; opacity: 0.5"/>
   </g>
   <g id="patch_44">
    <path d="M 112.305809 192.24 
L 114.022083 192.24 
L 114.022083 178.9344 
L 112.305809 178.9344 
z
" clip-path="url(#p6d6d57b716)" style="fill: #00a651; opacity: 0.5"/>
   </g>
   <g id="patch_45">
    <path d="M 114.022083 192.24 
L 115.738357 192.24 
L 115.738357 162.3024 
L 114.022083 162.3024 
z
" clip-path="url(#p6d6d57b716)" style="fill: #00a651; opacity: 0.5"/>
   </g>
   <g id="patch_46">
    <path d="M 115.738357 192.24 
L 117.45463 192.24 
L 117.45463 158.976 
L 115.738357 158.976 
z
" clip-path="url(#p6d6d57b716)" style="fill: #00a651; opacity: 0.5"/>
   </g>
   <g id="patch_47">
    <path d="M 117.45463 192.24 
L 119.170898 192.24 
L 119.170898 165.6288 
L 117.45463 165.6288 
z
" clip-path="url(#p6d6d57b716)" style="fill: #00a651; opacity: 0.5"/>
   </g>
   <g id="patch_48">
    <path d="M 119.170898 192.24 
L 120.887171 192.24 
L 120.887171 158.976 
L 119.170898 158.976 
z
" clip-path="url(#p6d6d57b716)" style="fill: #00a651; opacity: 0.5"/>
   </g>
   <g id="patch_49">
    <path d="M 120.887171 192.24 
L 122.603445 192.24 
L 122.603445 168.9552 
L 120.887171 168.9552 
z
" clip-path="url(#p6d6d57b716)" style="fill: #00a651; opacity: 0.5"/>
   </g>
   <g id="patch_50">
    <path d="M 122.603445 192.24 
L 124.319712 192.24 
L 124.319712 158.976 
L 122.603445 158.976 
z
" clip-path="url(#p6d6d57b716)" style="fill: #00a651; opacity: 0.5"/>
   </g>
   <g id="patch_51">
    <path d="M 124.319712 192.24 
L 126.035986 192.24 
L 126.035986 155.6496 
L 124.319712 155.6496 
z
" clip-path="url(#p6d6d57b716)" style="fill: #00a651; opacity: 0.5"/>
   </g>
   <g id="patch_52">
    <path d="M 126.035986 192.24 
L 127.75226 192.24 
L 127.75226 165.6288 
L 126.035986 165.6288 
z
" clip-path="url(#p6d6d57b716)" style="fill: #00a651; opacity: 0.5"/>
   </g>
   <g id="patch_53">
    <path d="M 127.75226 192.24 
L 129.468534 192.24 
L 129.468534 185.5872 
L 127.75226 185.5872 
z
" clip-path="url(#p6d6d57b716)" style="fill: #00a651; opacity: 0.5"/>
   </g>
   <g id="patch_54">
    <path d="M 129.468534 192.24 
L 131.184801 192.24 
L 131.184801 178.9344 
L 129.468534 178.9344 
z
" clip-path="url(#p6d6d57b716)" style="fill: #00a651; opacity: 0.5"/>
   </g>
   <g id="patch_55">
    <path d="M 131.184801 192.24 
L 132.901074 192.24 
L 132.901074 185.5872 
L 131.184801 185.5872 
z
" clip-path="url(#p6d6d57b716)" style="fill: #00a651; opacity: 0.5"/>
   </g>
   <g id="patch_56">
    <path d="M 132.901074 192.24 
L 134.617348 192.24 
L 134.617348 175.608 
L 132.901074 175.608 
z
" clip-path="url(#p6d6d57b716)" style="fill: #00a651; opacity: 0.5"/>
   </g>
   <g id="patch_57">
    <path d="M 134.617348 192.24 
L 136.333625 192.24 
L 136.333625 182.2608 
L 134.617348 182.2608 
z
" clip-path="url(#p6d6d57b716)" style="fill: #00a651; opacity: 0.5"/>
   </g>
   <g id="patch_58">
    <path d="M 136.333625 192.24 
L 138.049886 192.24 
L 138.049886 165.6288 
L 136.333625 165.6288 
z
" clip-path="url(#p6d6d57b716)" style="fill: #00a651; opacity: 0.5"/>
   </g>
   <g id="patch_59">
    <path d="M 138.049886 192.24 
L 139.76616 192.24 
L 139.76616 175.608 
L 138.049886 175.608 
z
" clip-path="url(#p6d6d57b716)" style="fill: #00a651; opacity: 0.5"/>
   </g>
   <g id="patch_60">
    <path d="M 139.76616 192.24 
L 141.482433 192.24 
L 141.482433 175.608 
L 139.76616 175.608 
z
" clip-path="url(#p6d6d57b716)" style="fill: #00a651; opacity: 0.5"/>
   </g>
   <g id="patch_61">
    <path d="M 141.482433 192.24 
L 143.198707 192.24 
L 143.198707 185.5872 
L 141.482433 185.5872 
z
" clip-path="url(#p6d6d57b716)" style="fill: #00a651; opacity: 0.5"/>
   </g>
   <g id="patch_62">
    <path d="M 143.198707 192.24 
L 144.914981 192.24 
L 144.914981 185.5872 
L 143.198707 185.5872 
z
" clip-path="url(#p6d6d57b716)" style="fill: #00a651; opacity: 0.5"/>
   </g>
   <g id="patch_63">
    <path d="M 144.914981 192.24 
L 146.631254 192.24 
L 146.631254 182.2608 
L 144.914981 182.2608 
z
" clip-path="url(#p6d6d57b716)" style="fill: #00a651; opacity: 0.5"/>
   </g>
   <g id="patch_64">
    <path d="M 146.631254 192.24 
L 148.347528 192.24 
L 148.347528 185.5872 
L 146.631254 185.5872 
z
" clip-path="url(#p6d6d57b716)" style="fill: #00a651; opacity: 0.5"/>
   </g>
   <g id="patch_65">
    <path d="M 148.347528 192.24 
L 150.063789 192.24 
L 150.063789 175.608 
L 148.347528 175.608 
z
" clip-path="url(#p6d6d57b716)" style="fill: #00a651; opacity: 0.5"/>
   </g>
   <g id="patch_66">
    <path d="M 150.063789 192.24 
L 151.780063 192.24 
L 151.780063 192.24 
L 150.063789 192.24 
z
" clip-path="url(#p6d6d57b716)" style="fill: #00a651; opacity: 0.5"/>
   </g>
   <g id="patch_67">
    <path d="M 151.780063 192.24 
L 153.496336 192.24 
L 153.496336 178.9344 
L 151.780063 178.9344 
z
" clip-path="url(#p6d6d57b716)" style="fill: #00a651; opacity: 0.5"/>
   </g>
   <g id="patch_68">
    <path d="M 153.496336 192.24 
L 155.21261 192.24 
L 155.21261 192.24 
L 153.496336 192.24 
z
" clip-path="url(#p6d6d57b716)" style="fill: #00a651; opacity: 0.5"/>
   </g>
   <g id="patch_69">
    <path d="M 155.21261 192.24 
L 156.928884 192.24 
L 156.928884 185.5872 
L 155.21261 185.5872 
z
" clip-path="url(#p6d6d57b716)" style="fill: #00a651; opacity: 0.5"/>
   </g>
   <g id="patch_70">
    <path d="M 156.928884 192.24 
L 158.645145 192.24 
L 158.645145 188.9136 
L 156.928884 188.9136 
z
" clip-path="url(#p6d6d57b716)" style="fill: #00a651; opacity: 0.5"/>
   </g>
   <g id="patch_71">
    <path d="M 158.645145 192.24 
L 160.361418 192.24 
L 160.361418 182.2608 
L 158.645145 182.2608 
z
" clip-path="url(#p6d6d57b716)" style="fill: #00a651; opacity: 0.5"/>
   </g>
   <g id="patch_72">
    <path d="M 160.361418 192.24 
L 162.077692 192.24 
L 162.077692 182.2608 
L 160.361418 182.2608 
z
" clip-path="url(#p6d6d57b716)" style="fill: #00a651; opacity: 0.5"/>
   </g>
   <g id="patch_73">
    <path d="M 162.077692 192.24 
L 163.793966 192.24 
L 163.793966 192.24 
L 162.077692 192.24 
z
" clip-path="url(#p6d6d57b716)" style="fill: #00a651; opacity: 0.5"/>
   </g>
   <g id="patch_74">
    <path d="M 163.793966 192.24 
L 165.510239 192.24 
L 165.510239 185.5872 
L 163.793966 185.5872 
z
" clip-path="url(#p6d6d57b716)" style="fill: #00a651; opacity: 0.5"/>
   </g>
   <g id="patch_75">
    <path d="M 165.510239 192.24 
L 167.226513 192.24 
L 167.226513 188.9136 
L 165.510239 188.9136 
z
" clip-path="url(#p6d6d57b716)" style="fill: #00a651; opacity: 0.5"/>
   </g>
   <g id="patch_76">
    <path d="M 167.226513 192.24 
L 168.942787 192.24 
L 168.942787 185.5872 
L 167.226513 185.5872 
z
" clip-path="url(#p6d6d57b716)" style="fill: #00a651; opacity: 0.5"/>
   </g>
   <g id="patch_77">
    <path d="M 168.942787 192.24 
L 170.659048 192.24 
L 170.659048 188.9136 
L 168.942787 188.9136 
z
" clip-path="url(#p6d6d57b716)" style="fill: #00a651; opacity: 0.5"/>
   </g>
   <g id="patch_78">
    <path d="M 170.659048 192.24 
L 172.375321 192.24 
L 172.375321 192.24 
L 170.659048 192.24 
z
" clip-path="url(#p6d6d57b716)" style="fill: #00a651; opacity: 0.5"/>
   </g>
   <g id="patch_79">
    <path d="M 172.375321 192.24 
L 174.091595 192.24 
L 174.091595 188.9136 
L 172.375321 188.9136 
z
" clip-path="url(#p6d6d57b716)" style="fill: #00a651; opacity: 0.5"/>
   </g>
   <g id="patch_80">
    <path d="M 174.091595 192.24 
L 175.807869 192.24 
L 175.807869 192.24 
L 174.091595 192.24 
z
" clip-path="url(#p6d6d57b716)" style="fill: #00a651; opacity: 0.5"/>
   </g>
   <g id="patch_81">
    <path d="M 175.807869 192.24 
L 177.524142 192.24 
L 177.524142 192.24 
L 175.807869 192.24 
z
" clip-path="url(#p6d6d57b716)" style="fill: #00a651; opacity: 0.5"/>
   </g>
   <g id="patch_82">
    <path d="M 177.524142 192.24 
L 179.240423 192.24 
L 179.240423 182.2608 
L 177.524142 182.2608 
z
" clip-path="url(#p6d6d57b716)" style="fill: #00a651; opacity: 0.5"/>
   </g>
   <g id="patch_83">
    <path d="M 52.207125 192.24 
L 53.893787 192.24 
L 53.893787 109.08 
L 52.207125 109.08 
z
" clip-path="url(#p6d6d57b716)" style="fill: #f7941d"/>
   </g>
   <g id="patch_84">
    <path d="M 53.893787 192.24 
L 55.580445 192.24 
L 55.580445 -20.6496 
L 53.893787 -20.6496 
z
" clip-path="url(#p6d6d57b716)" style="fill: #f7941d"/>
   </g>
   <g id="patch_85">
    <path d="M 55.580445 192.24 
L 57.267105 192.24 
L 57.267105 -10.6704 
L 55.580445 -10.6704 
z
" clip-path="url(#p6d6d57b716)" style="fill: #f7941d"/>
   </g>
   <g id="patch_86">
    <path d="M 57.267105 192.24 
L 58.953766 192.24 
L 58.953766 158.976 
L 57.267105 158.976 
z
" clip-path="url(#p6d6d57b716)" style="fill: #f7941d"/>
   </g>
   <g id="patch_87">
    <path d="M 58.953766 192.24 
L 60.640426 192.24 
L 60.640426 92.448 
L 58.953766 92.448 
z
" clip-path="url(#p6d6d57b716)" style="fill: #f7941d"/>
   </g>
   <g id="patch_88">
    <path d="M 60.640426 192.24 
L 62.327086 192.24 
L 62.327086 125.712 
L 60.640426 125.712 
z
" clip-path="url(#p6d6d57b716)" style="fill: #f7941d"/>
   </g>
   <g id="patch_89">
    <path d="M 62.327086 192.24 
L 64.013746 192.24 
L 64.013746 175.608 
L 62.327086 175.608 
z
" clip-path="url(#p6d6d57b716)" style="fill: #f7941d"/>
   </g>
   <g id="patch_90">
    <path d="M 64.013746 192.24 
L 65.700407 192.24 
L 65.700407 142.344 
L 64.013746 142.344 
z
" clip-path="url(#p6d6d57b716)" style="fill: #f7941d"/>
   </g>
   <g id="patch_91">
    <path d="M 65.700407 192.24 
L 67.387067 192.24 
L 67.387067 158.976 
L 65.700407 158.976 
z
" clip-path="url(#p6d6d57b716)" style="fill: #f7941d"/>
   </g>
   <g id="patch_92">
    <path d="M 67.387067 192.24 
L 69.073727 192.24 
L 69.073727 59.184 
L 67.387067 59.184 
z
" clip-path="url(#p6d6d57b716)" style="fill: #f7941d"/>
   </g>
   <g id="patch_93">
    <path d="M 69.073727 192.24 
L 70.760387 192.24 
L 70.760387 92.448 
L 69.073727 92.448 
z
" clip-path="url(#p6d6d57b716)" style="fill: #f7941d"/>
   </g>
   <g id="patch_94">
    <path d="M 70.760387 192.24 
L 72.447048 192.24 
L 72.447048 92.448 
L 70.760387 92.448 
z
" clip-path="url(#p6d6d57b716)" style="fill: #f7941d"/>
   </g>
   <g id="patch_95">
    <path d="M 72.447048 192.24 
L 74.133708 192.24 
L 74.133708 158.976 
L 72.447048 158.976 
z
" clip-path="url(#p6d6d57b716)" style="fill: #f7941d"/>
   </g>
   <g id="patch_96">
    <path d="M 74.133708 192.24 
L 75.820368 192.24 
L 75.820368 142.344 
L 74.133708 142.344 
z
" clip-path="url(#p6d6d57b716)" style="fill: #f7941d"/>
   </g>
   <g id="patch_97">
    <path d="M 75.820368 192.24 
L 77.507028 192.24 
L 77.507028 125.712 
L 75.820368 125.712 
z
" clip-path="url(#p6d6d57b716)" style="fill: #f7941d"/>
   </g>
   <g id="patch_98">
    <path d="M 77.507028 192.24 
L 79.193688 192.24 
L 79.193688 175.608 
L 77.507028 175.608 
z
" clip-path="url(#p6d6d57b716)" style="fill: #f7941d"/>
   </g>
   <g id="patch_99">
    <path d="M 79.193688 192.24 
L 80.88035 192.24 
L 80.88035 -233.5392 
L 79.193688 -233.5392 
z
" clip-path="url(#p6d6d57b716)" style="fill: #f7941d"/>
   </g>
   <g id="patch_100">
    <path d="M 80.88035 192.24 
L 82.567009 192.24 
L 82.567009 155.6496 
L 80.88035 155.6496 
z
" clip-path="url(#p6d6d57b716)" style="fill: #f7941d"/>
   </g>
   <g id="patch_101">
    <path d="M 82.567009 192.24 
L 84.253667 192.24 
L 84.253667 112.4064 
L 82.567009 112.4064 
z
" clip-path="url(#p6d6d57b716)" style="fill: #f7941d"/>
   </g>
   <g id="patch_102">
    <path d="M 84.253667 192.24 
L 85.940329 192.24 
L 85.940329 145.6704 
L 84.253667 145.6704 
z
" clip-path="url(#p6d6d57b716)" style="fill: #f7941d"/>
   </g>
   <g id="patch_103">
    <path d="M 85.940329 192.24 
L 87.626991 192.24 
L 87.626991 182.2608 
L 85.940329 182.2608 
z
" clip-path="url(#p6d6d57b716)" style="fill: #f7941d"/>
   </g>
   <g id="patch_104">
    <path d="M 87.626991 192.24 
L 89.31365 192.24 
L 89.31365 192.24 
L 87.626991 192.24 
z
" clip-path="url(#p6d6d57b716)" style="fill: #f7941d"/>
   </g>
   <g id="patch_105">
    <path d="M 89.31365 192.24 
L 91.000308 192.24 
L 91.000308 192.24 
L 89.31365 192.24 
z
" clip-path="url(#p6d6d57b716)" style="fill: #f7941d"/>
   </g>
   <g id="patch_106">
    <path d="M 91.000308 192.24 
L 92.68697 192.24 
L 92.68697 192.24 
L 91.000308 192.24 
z
" clip-path="url(#p6d6d57b716)" style="fill: #f7941d"/>
   </g>
   <g id="patch_107">
    <path d="M 92.68697 192.24 
L 94.373632 192.24 
L 94.373632 192.24 
L 92.68697 192.24 
z
" clip-path="url(#p6d6d57b716)" style="fill: #f7941d"/>
   </g>
   <g id="patch_108">
    <path d="M 94.373632 192.24 
L 96.060291 192.24 
L 96.060291 192.24 
L 94.373632 192.24 
z
" clip-path="url(#p6d6d57b716)" style="fill: #f7941d"/>
   </g>
   <g id="patch_109">
    <path d="M 96.060291 192.24 
L 97.746949 192.24 
L 97.746949 192.24 
L 96.060291 192.24 
z
" clip-path="url(#p6d6d57b716)" style="fill: #f7941d"/>
   </g>
   <g id="patch_110">
    <path d="M 97.746949 192.24 
L 99.433611 192.24 
L 99.433611 192.24 
L 97.746949 192.24 
z
" clip-path="url(#p6d6d57b716)" style="fill: #f7941d"/>
   </g>
   <g id="patch_111">
    <path d="M 99.433611 192.24 
L 101.120273 192.24 
L 101.120273 192.24 
L 99.433611 192.24 
z
" clip-path="url(#p6d6d57b716)" style="fill: #f7941d"/>
   </g>
   <g id="patch_112">
    <path d="M 101.120273 192.24 
L 102.806932 192.24 
L 102.806932 192.24 
L 101.120273 192.24 
z
" clip-path="url(#p6d6d57b716)" style="fill: #f7941d"/>
   </g>
   <g id="patch_113">
    <path d="M 102.806932 192.24 
L 104.49359 192.24 
L 104.49359 192.24 
L 102.806932 192.24 
z
" clip-path="url(#p6d6d57b716)" style="fill: #f7941d"/>
   </g>
   <g id="patch_114">
    <path d="M 104.49359 192.24 
L 106.180252 192.24 
L 106.180252 192.24 
L 104.49359 192.24 
z
" clip-path="url(#p6d6d57b716)" style="fill: #f7941d"/>
   </g>
   <g id="patch_115">
    <path d="M 106.180252 192.24 
L 107.866914 192.24 
L 107.866914 192.24 
L 106.180252 192.24 
z
" clip-path="url(#p6d6d57b716)" style="fill: #f7941d"/>
   </g>
   <g id="patch_116">
    <path d="M 107.866914 192.24 
L 109.553576 192.24 
L 109.553576 192.24 
L 107.866914 192.24 
z
" clip-path="url(#p6d6d57b716)" style="fill: #f7941d"/>
   </g>
   <g id="patch_117">
    <path d="M 109.553576 192.24 
L 111.240231 192.24 
L 111.240231 192.24 
L 109.553576 192.24 
z
" clip-path="url(#p6d6d57b716)" style="fill: #f7941d"/>
   </g>
   <g id="patch_118">
    <path d="M 111.240231 192.24 
L 112.926893 192.24 
L 112.926893 192.24 
L 111.240231 192.24 
z
" clip-path="url(#p6d6d57b716)" style="fill: #f7941d"/>
   </g>
   <g id="patch_119">
    <path d="M 112.926893 192.24 
L 114.613555 192.24 
L 114.613555 192.24 
L 112.926893 192.24 
z
" clip-path="url(#p6d6d57b716)" style="fill: #f7941d"/>
   </g>
   <g id="patch_120">
    <path d="M 114.613555 192.24 
L 116.30021 192.24 
L 116.30021 158.976 
L 114.613555 158.976 
z
" clip-path="url(#p6d6d57b716)" style="fill: #f7941d"/>
   </g>
   <g id="patch_121">
    <path d="M 116.30021 192.24 
L 117.986872 192.24 
L 117.986872 175.608 
L 116.30021 175.608 
z
" clip-path="url(#p6d6d57b716)" style="fill: #f7941d"/>
   </g>
   <g id="patch_122">
    <path d="M 117.986872 192.24 
L 119.673534 192.24 
L 119.673534 192.24 
L 117.986872 192.24 
z
" clip-path="url(#p6d6d57b716)" style="fill: #f7941d"/>
   </g>
   <g id="patch_123">
    <path d="M 119.673534 192.24 
L 121.360196 192.24 
L 121.360196 158.976 
L 119.673534 158.976 
z
" clip-path="url(#p6d6d57b716)" style="fill: #f7941d"/>
   </g>
   <g id="patch_124">
    <path d="M 121.360196 192.24 
L 123.046858 192.24 
L 123.046858 192.24 
L 121.360196 192.24 
z
" clip-path="url(#p6d6d57b716)" style="fill: #f7941d"/>
   </g>
   <g id="patch_125">
    <path d="M 123.046858 192.24 
L 124.733513 192.24 
L 124.733513 192.24 
L 123.046858 192.24 
z
" clip-path="url(#p6d6d57b716)" style="fill: #f7941d"/>
   </g>
   <g id="patch_126">
    <path d="M 124.733513 192.24 
L 126.420175 192.24 
L 126.420175 175.608 
L 124.733513 175.608 
z
" clip-path="url(#p6d6d57b716)" style="fill: #f7941d"/>
   </g>
   <g id="patch_127">
    <path d="M 126.420175 192.24 
L 128.106837 192.24 
L 128.106837 158.976 
L 126.420175 158.976 
z
" clip-path="url(#p6d6d57b716)" style="fill: #f7941d"/>
   </g>
   <g id="patch_128">
    <path d="M 128.106837 192.24 
L 129.793492 192.24 
L 129.793492 192.24 
L 128.106837 192.24 
z
" clip-path="url(#p6d6d57b716)" style="fill: #f7941d"/>
   </g>
   <g id="patch_129">
    <path d="M 129.793492 192.24 
L 131.480154 192.24 
L 131.480154 192.24 
L 129.793492 192.24 
z
" clip-path="url(#p6d6d57b716)" style="fill: #f7941d"/>
   </g>
   <g id="patch_130">
    <path d="M 131.480154 192.24 
L 133.166816 192.24 
L 133.166816 192.24 
L 131.480154 192.24 
z
" clip-path="url(#p6d6d57b716)" style="fill: #f7941d"/>
   </g>
   <g id="patch_131">
    <path d="M 133.166816 192.24 
L 134.853477 192.24 
L 134.853477 192.24 
L 133.166816 192.24 
z
" clip-path="url(#p6d6d57b716)" style="fill: #f7941d"/>
   </g>
   <g id="patch_132">
    <path d="M 134.853477 192.24 
L 136.540139 192.24 
L 136.540139 175.608 
L 134.853477 175.608 
z
" clip-path="url(#p6d6d57b716)" style="fill: #f7941d"/>
   </g>
   <g id="patch_133">
    <path d="M 136.540139 192.24 
L 138.226795 192.24 
L 138.226795 175.608 
L 136.540139 175.608 
z
" clip-path="url(#p6d6d57b716)" style="fill: #f7941d"/>
   </g>
   <g id="patch_134">
    <path d="M 138.226795 192.24 
L 139.913457 192.24 
L 139.913457 192.24 
L 138.226795 192.24 
z
" clip-path="url(#p6d6d57b716)" style="fill: #f7941d"/>
   </g>
   <g id="patch_135">
    <path d="M 139.913457 192.24 
L 141.600118 192.24 
L 141.600118 192.24 
L 139.913457 192.24 
z
" clip-path="url(#p6d6d57b716)" style="fill: #f7941d"/>
   </g>
   <g id="patch_136">
    <path d="M 141.600118 192.24 
L 143.286774 192.24 
L 143.286774 192.24 
L 141.600118 192.24 
z
" clip-path="url(#p6d6d57b716)" style="fill: #f7941d"/>
   </g>
   <g id="patch_137">
    <path d="M 143.286774 192.24 
L 144.973436 192.24 
L 144.973436 192.24 
L 143.286774 192.24 
z
" clip-path="url(#p6d6d57b716)" style="fill: #f7941d"/>
   </g>
   <g id="patch_138">
    <path d="M 144.973436 192.24 
L 146.660097 192.24 
L 146.660097 192.24 
L 144.973436 192.24 
z
" clip-path="url(#p6d6d57b716)" style="fill: #f7941d"/>
   </g>
   <g id="patch_139">
    <path d="M 146.660097 192.24 
L 148.346759 192.24 
L 148.346759 192.24 
L 146.660097 192.24 
z
" clip-path="url(#p6d6d57b716)" style="fill: #f7941d"/>
   </g>
   <g id="patch_140">
    <path d="M 148.346759 192.24 
L 150.033421 192.24 
L 150.033421 192.24 
L 148.346759 192.24 
z
" clip-path="url(#p6d6d57b716)" style="fill: #f7941d"/>
   </g>
   <g id="patch_141">
    <path d="M 150.033421 192.24 
L 151.720077 192.24 
L 151.720077 192.24 
L 150.033421 192.24 
z
" clip-path="url(#p6d6d57b716)" style="fill: #f7941d"/>
   </g>
   <g id="patch_142">
    <path d="M 151.720077 192.24 
L 153.406738 192.24 
L 153.406738 192.24 
L 151.720077 192.24 
z
" clip-path="url(#p6d6d57b716)" style="fill: #f7941d"/>
   </g>
   <g id="patch_143">
    <path d="M 153.406738 192.24 
L 155.0934 192.24 
L 155.0934 192.24 
L 153.406738 192.24 
z
" clip-path="url(#p6d6d57b716)" style="fill: #f7941d"/>
   </g>
   <g id="patch_144">
    <path d="M 155.0934 192.24 
L 156.780056 192.24 
L 156.780056 192.24 
L 155.0934 192.24 
z
" clip-path="url(#p6d6d57b716)" style="fill: #f7941d"/>
   </g>
   <g id="patch_145">
    <path d="M 156.780056 192.24 
L 158.466717 192.24 
L 158.466717 192.24 
L 156.780056 192.24 
z
" clip-path="url(#p6d6d57b716)" style="fill: #f7941d"/>
   </g>
   <g id="patch_146">
    <path d="M 158.466717 192.24 
L 160.153379 192.24 
L 160.153379 192.24 
L 158.466717 192.24 
z
" clip-path="url(#p6d6d57b716)" style="fill: #f7941d"/>
   </g>
   <g id="patch_147">
    <path d="M 160.153379 192.24 
L 161.840035 192.24 
L 161.840035 192.24 
L 160.153379 192.24 
z
" clip-path="url(#p6d6d57b716)" style="fill: #f7941d"/>
   </g>
   <g id="patch_148">
    <path d="M 161.840035 192.24 
L 163.526703 192.24 
L 163.526703 192.24 
L 161.840035 192.24 
z
" clip-path="url(#p6d6d57b716)" style="fill: #f7941d"/>
   </g>
   <g id="patch_149">
    <path d="M 163.526703 192.24 
L 165.213358 192.24 
L 165.213358 192.24 
L 163.526703 192.24 
z
" clip-path="url(#p6d6d57b716)" style="fill: #f7941d"/>
   </g>
   <g id="patch_150">
    <path d="M 165.213358 192.24 
L 166.900027 192.24 
L 166.900027 192.24 
L 165.213358 192.24 
z
" clip-path="url(#p6d6d57b716)" style="fill: #f7941d"/>
   </g>
   <g id="patch_151">
    <path d="M 166.900027 192.24 
L 168.586682 192.24 
L 168.586682 192.24 
L 166.900027 192.24 
z
" clip-path="url(#p6d6d57b716)" style="fill: #f7941d"/>
   </g>
   <g id="patch_152">
    <path d="M 168.586682 192.24 
L 170.273337 192.24 
L 170.273337 192.24 
L 168.586682 192.24 
z
" clip-path="url(#p6d6d57b716)" style="fill: #f7941d"/>
   </g>
   <g id="patch_153">
    <path d="M 170.273337 192.24 
L 171.960006 192.24 
L 171.960006 175.608 
L 170.273337 175.608 
z
" clip-path="url(#p6d6d57b716)" style="fill: #f7941d"/>
   </g>
   <g id="patch_154">
    <path d="M 171.960006 192.24 
L 173.646661 192.24 
L 173.646661 175.608 
L 171.960006 175.608 
z
" clip-path="url(#p6d6d57b716)" style="fill: #f7941d"/>
   </g>
   <g id="patch_155">
    <path d="M 173.646661 192.24 
L 175.333316 192.24 
L 175.333316 175.608 
L 173.646661 175.608 
z
" clip-path="url(#p6d6d57b716)" style="fill: #f7941d"/>
   </g>
   <g id="patch_156">
    <path d="M 175.333316 192.24 
L 177.019985 192.24 
L 177.019985 192.24 
L 175.333316 192.24 
z
" clip-path="url(#p6d6d57b716)" style="fill: #f7941d"/>
   </g>
   <g id="patch_157">
    <path d="M 177.019985 192.24 
L 178.70664 192.24 
L 178.70664 175.608 
L 177.019985 175.608 
z
" clip-path="url(#p6d6d57b716)" style="fill: #f7941d"/>
   </g>
   <g id="patch_158">
    <path d="M 178.70664 192.24 
L 180.393296 192.24 
L 180.393296 158.976 
L 178.70664 158.976 
z
" clip-path="url(#p6d6d57b716)" style="fill: #f7941d"/>
   </g>
   <g id="patch_159">
    <path d="M 180.393296 192.24 
L 182.079964 192.24 
L 182.079964 192.24 
L 180.393296 192.24 
z
" clip-path="url(#p6d6d57b716)" style="fill: #f7941d"/>
   </g>
   <g id="patch_160">
    <path d="M 182.079964 192.24 
L 183.766619 192.24 
L 183.766619 175.608 
L 182.079964 175.608 
z
" clip-path="url(#p6d6d57b716)" style="fill: #f7941d"/>
   </g>
   <g id="patch_161">
    <path d="M 183.766619 192.24 
L 185.453287 192.24 
L 185.453287 175.608 
L 183.766619 175.608 
z
" clip-path="url(#p6d6d57b716)" style="fill: #f7941d"/>
   </g>
   <g id="patch_162">
    <path d="M 185.453287 192.24 
L 187.139936 192.24 
L 187.139936 158.976 
L 185.453287 158.976 
z
" clip-path="url(#p6d6d57b716)" style="fill: #f7941d"/>
   </g>
   <g id="matplotlib.axis_1">
    <g id="xtick_1">
     <g id="line2d_1">
      <defs>
       <path id="m7ec09d3685" d="M 0 0 
L 0 3.5 
" style="stroke: #000000; stroke-width: 0.8"/>
      </defs>
      <g>
       <use xlink:href="#m7ec09d3685" x="27" y="192.24" style="stroke: #000000; stroke-width: 0.8"/>
      </g>
     </g>
     <g id="text_1">
      <!-- −0.5 -->
      <g transform="translate(5.145469 212.917188) scale(0.18 -0.18)">
       <defs>
        <path id="DejaVuSans-2212" d="M 678 2272 
L 4684 2272 
L 4684 1741 
L 678 1741 
L 678 2272 
z
" transform="scale(0.015625)"/>
        <path id="DejaVuSans-30" d="M 2034 4250 
Q 1547 4250 1301 3770 
Q 1056 3291 1056 2328 
Q 1056 1369 1301 889 
Q 1547 409 2034 409 
Q 2525 409 2770 889 
Q 3016 1369 3016 2328 
Q 3016 3291 2770 3770 
Q 2525 4250 2034 4250 
z
M 2034 4750 
Q 2819 4750 3233 4129 
Q 3647 3509 3647 2328 
Q 3647 1150 3233 529 
Q 2819 -91 2034 -91 
Q 1250 -91 836 529 
Q 422 1150 422 2328 
Q 422 3509 836 4129 
Q 1250 4750 2034 4750 
z
" transform="scale(0.015625)"/>
        <path id="DejaVuSans-2e" d="M 684 794 
L 1344 794 
L 1344 0 
L 684 0 
L 684 794 
z
" transform="scale(0.015625)"/>
        <path id="DejaVuSans-35" d="M 691 4666 
L 3169 4666 
L 3169 4134 
L 1269 4134 
L 1269 2991 
Q 1406 3038 1543 3061 
Q 1681 3084 1819 3084 
Q 2600 3084 3056 2656 
Q 3513 2228 3513 1497 
Q 3513 744 3044 326 
Q 2575 -91 1722 -91 
Q 1428 -91 1123 -41 
Q 819 9 494 109 
L 494 744 
Q 775 591 1075 516 
Q 1375 441 1709 441 
Q 2250 441 2565 725 
Q 2881 1009 2881 1497 
Q 2881 1984 2565 2268 
Q 2250 2553 1709 2553 
Q 1456 2553 1204 2497 
Q 953 2441 691 2322 
L 691 4666 
z
" transform="scale(0.015625)"/>
       </defs>
       <use xlink:href="#DejaVuSans-2212"/>
       <use xlink:href="#DejaVuSans-30" transform="translate(83.789062 0)"/>
       <use xlink:href="#DejaVuSans-2e" transform="translate(147.412109 0)"/>
       <use xlink:href="#DejaVuSans-35" transform="translate(179.199219 0)"/>
      </g>
     </g>
    </g>
    <g id="xtick_2">
     <g id="line2d_2">
      <g>
       <use xlink:href="#m7ec09d3685" x="81.200821" y="192.24" style="stroke: #000000; stroke-width: 0.8"/>
      </g>
     </g>
     <g id="text_2">
      <!-- 0.0 -->
      <g transform="translate(66.888009 212.917188) scale(0.18 -0.18)">
       <use xlink:href="#DejaVuSans-30"/>
       <use xlink:href="#DejaVuSans-2e" transform="translate(63.623047 0)"/>
       <use xlink:href="#DejaVuSans-30" transform="translate(95.410156 0)"/>
      </g>
     </g>
    </g>
    <g id="xtick_3">
     <g id="line2d_3">
      <g>
       <use xlink:href="#m7ec09d3685" x="135.401643" y="192.24" style="stroke: #000000; stroke-width: 0.8"/>
      </g>
     </g>
     <g id="text_3">
      <!-- 0.5 -->
      <g transform="translate(121.08883 212.917188) scale(0.18 -0.18)">
       <use xlink:href="#DejaVuSans-30"/>
       <use xlink:href="#DejaVuSans-2e" transform="translate(63.623047 0)"/>
       <use xlink:href="#DejaVuSans-35" transform="translate(95.410156 0)"/>
      </g>
     </g>
    </g>
    <g id="xtick_4">
     <g id="line2d_4">
      <g>
       <use xlink:href="#m7ec09d3685" x="189.602464" y="192.24" style="stroke: #000000; stroke-width: 0.8"/>
      </g>
     </g>
     <g id="text_4">
      <!-- 1.0 -->
      <g transform="translate(175.289652 212.917188) scale(0.18 -0.18)">
       <defs>
        <path id="DejaVuSans-31" d="M 794 531 
L 1825 531 
L 1825 4091 
L 703 3866 
L 703 4441 
L 1819 4666 
L 2450 4666 
L 2450 531 
L 3481 531 
L 3481 0 
L 794 0 
L 794 531 
z
" transform="scale(0.015625)"/>
       </defs>
       <use xlink:href="#DejaVuSans-31"/>
       <use xlink:href="#DejaVuSans-2e" transform="translate(63.623047 0)"/>
       <use xlink:href="#DejaVuSans-30" transform="translate(95.410156 0)"/>
      </g>
     </g>
    </g>
    <g id="text_5">
     <!-- Selectivity -->
     <g transform="translate(58.534375 235.8575) scale(0.2 -0.2)">
      <defs>
       <path id="DejaVuSans-53" d="M 3425 4513 
L 3425 3897 
Q 3066 4069 2747 4153 
Q 2428 4238 2131 4238 
Q 1616 4238 1336 4038 
Q 1056 3838 1056 3469 
Q 1056 3159 1242 3001 
Q 1428 2844 1947 2747 
L 2328 2669 
Q 3034 2534 3370 2195 
Q 3706 1856 3706 1288 
Q 3706 609 3251 259 
Q 2797 -91 1919 -91 
Q 1588 -91 1214 -16 
Q 841 59 441 206 
L 441 856 
Q 825 641 1194 531 
Q 1563 422 1919 422 
Q 2459 422 2753 634 
Q 3047 847 3047 1241 
Q 3047 1584 2836 1778 
Q 2625 1972 2144 2069 
L 1759 2144 
Q 1053 2284 737 2584 
Q 422 2884 422 3419 
Q 422 4038 858 4394 
Q 1294 4750 2059 4750 
Q 2388 4750 2728 4690 
Q 3069 4631 3425 4513 
z
" transform="scale(0.015625)"/>
       <path id="DejaVuSans-65" d="M 3597 1894 
L 3597 1613 
L 953 1613 
Q 991 1019 1311 708 
Q 1631 397 2203 397 
Q 2534 397 2845 478 
Q 3156 559 3463 722 
L 3463 178 
Q 3153 47 2828 -22 
Q 2503 -91 2169 -91 
Q 1331 -91 842 396 
Q 353 884 353 1716 
Q 353 2575 817 3079 
Q 1281 3584 2069 3584 
Q 2775 3584 3186 3129 
Q 3597 2675 3597 1894 
z
M 3022 2063 
Q 3016 2534 2758 2815 
Q 2500 3097 2075 3097 
Q 1594 3097 1305 2825 
Q 1016 2553 972 2059 
L 3022 2063 
z
" transform="scale(0.015625)"/>
       <path id="DejaVuSans-6c" d="M 603 4863 
L 1178 4863 
L 1178 0 
L 603 0 
L 603 4863 
z
" transform="scale(0.015625)"/>
       <path id="DejaVuSans-63" d="M 3122 3366 
L 3122 2828 
Q 2878 2963 2633 3030 
Q 2388 3097 2138 3097 
Q 1578 3097 1268 2742 
Q 959 2388 959 1747 
Q 959 1106 1268 751 
Q 1578 397 2138 397 
Q 2388 397 2633 464 
Q 2878 531 3122 666 
L 3122 134 
Q 2881 22 2623 -34 
Q 2366 -91 2075 -91 
Q 1284 -91 818 406 
Q 353 903 353 1747 
Q 353 2603 823 3093 
Q 1294 3584 2113 3584 
Q 2378 3584 2631 3529 
Q 2884 3475 3122 3366 
z
" transform="scale(0.015625)"/>
       <path id="DejaVuSans-74" d="M 1172 4494 
L 1172 3500 
L 2356 3500 
L 2356 3053 
L 1172 3053 
L 1172 1153 
Q 1172 725 1289 603 
Q 1406 481 1766 481 
L 2356 481 
L 2356 0 
L 1766 0 
Q 1100 0 847 248 
Q 594 497 594 1153 
L 594 3053 
L 172 3053 
L 172 3500 
L 594 3500 
L 594 4494 
L 1172 4494 
z
" transform="scale(0.015625)"/>
       <path id="DejaVuSans-69" d="M 603 3500 
L 1178 3500 
L 1178 0 
L 603 0 
L 603 3500 
z
M 603 4863 
L 1178 4863 
L 1178 4134 
L 603 4134 
L 603 4863 
z
" transform="scale(0.015625)"/>
       <path id="DejaVuSans-76" d="M 191 3500 
L 800 3500 
L 1894 563 
L 2988 3500 
L 3597 3500 
L 2284 0 
L 1503 0 
L 191 3500 
z
" transform="scale(0.015625)"/>
       <path id="DejaVuSans-79" d="M 2059 -325 
Q 1816 -950 1584 -1140 
Q 1353 -1331 966 -1331 
L 506 -1331 
L 506 -850 
L 844 -850 
Q 1081 -850 1212 -737 
Q 1344 -625 1503 -206 
L 1606 56 
L 191 3500 
L 800 3500 
L 1894 763 
L 2988 3500 
L 3597 3500 
L 2059 -325 
z
" transform="scale(0.015625)"/>
      </defs>
      <use xlink:href="#DejaVuSans-53"/>
      <use xlink:href="#DejaVuSans-65" transform="translate(63.476562 0)"/>
      <use xlink:href="#DejaVuSans-6c" transform="translate(125 0)"/>
      <use xlink:href="#DejaVuSans-65" transform="translate(152.783203 0)"/>
      <use xlink:href="#DejaVuSans-63" transform="translate(214.306641 0)"/>
      <use xlink:href="#DejaVuSans-74" transform="translate(269.287109 0)"/>
      <use xlink:href="#DejaVuSans-69" transform="translate(308.496094 0)"/>
      <use xlink:href="#DejaVuSans-76" transform="translate(336.279297 0)"/>
      <use xlink:href="#DejaVuSans-69" transform="translate(395.458984 0)"/>
      <use xlink:href="#DejaVuSans-74" transform="translate(423.242188 0)"/>
      <use xlink:href="#DejaVuSans-79" transform="translate(462.451172 0)"/>
     </g>
    </g>
   </g>
   <g id="matplotlib.axis_2">
    <g id="text_6">
     <!-- Neuron Count -->
     <g transform="translate(18.840625 178.269062) rotate(-90) scale(0.2 -0.2)">
      <defs>
       <path id="DejaVuSans-4e" d="M 628 4666 
L 1478 4666 
L 3547 763 
L 3547 4666 
L 4159 4666 
L 4159 0 
L 3309 0 
L 1241 3903 
L 1241 0 
L 628 0 
L 628 4666 
z
" transform="scale(0.015625)"/>
       <path id="DejaVuSans-75" d="M 544 1381 
L 544 3500 
L 1119 3500 
L 1119 1403 
Q 1119 906 1312 657 
Q 1506 409 1894 409 
Q 2359 409 2629 706 
Q 2900 1003 2900 1516 
L 2900 3500 
L 3475 3500 
L 3475 0 
L 2900 0 
L 2900 538 
Q 2691 219 2414 64 
Q 2138 -91 1772 -91 
Q 1169 -91 856 284 
Q 544 659 544 1381 
z
M 1991 3584 
L 1991 3584 
z
" transform="scale(0.015625)"/>
       <path id="DejaVuSans-72" d="M 2631 2963 
Q 2534 3019 2420 3045 
Q 2306 3072 2169 3072 
Q 1681 3072 1420 2755 
Q 1159 2438 1159 1844 
L 1159 0 
L 581 0 
L 581 3500 
L 1159 3500 
L 1159 2956 
Q 1341 3275 1631 3429 
Q 1922 3584 2338 3584 
Q 2397 3584 2469 3576 
Q 2541 3569 2628 3553 
L 2631 2963 
z
" transform="scale(0.015625)"/>
       <path id="DejaVuSans-6f" d="M 1959 3097 
Q 1497 3097 1228 2736 
Q 959 2375 959 1747 
Q 959 1119 1226 758 
Q 1494 397 1959 397 
Q 2419 397 2687 759 
Q 2956 1122 2956 1747 
Q 2956 2369 2687 2733 
Q 2419 3097 1959 3097 
z
M 1959 3584 
Q 2709 3584 3137 3096 
Q 3566 2609 3566 1747 
Q 3566 888 3137 398 
Q 2709 -91 1959 -91 
Q 1206 -91 779 398 
Q 353 888 353 1747 
Q 353 2609 779 3096 
Q 1206 3584 1959 3584 
z
" transform="scale(0.015625)"/>
       <path id="DejaVuSans-6e" d="M 3513 2113 
L 3513 0 
L 2938 0 
L 2938 2094 
Q 2938 2591 2744 2837 
Q 2550 3084 2163 3084 
Q 1697 3084 1428 2787 
Q 1159 2491 1159 1978 
L 1159 0 
L 581 0 
L 581 3500 
L 1159 3500 
L 1159 2956 
Q 1366 3272 1645 3428 
Q 1925 3584 2291 3584 
Q 2894 3584 3203 3211 
Q 3513 2838 3513 2113 
z
" transform="scale(0.015625)"/>
       <path id="DejaVuSans-20" transform="scale(0.015625)"/>
       <path id="DejaVuSans-43" d="M 4122 4306 
L 4122 3641 
Q 3803 3938 3442 4084 
Q 3081 4231 2675 4231 
Q 1875 4231 1450 3742 
Q 1025 3253 1025 2328 
Q 1025 1406 1450 917 
Q 1875 428 2675 428 
Q 3081 428 3442 575 
Q 3803 722 4122 1019 
L 4122 359 
Q 3791 134 3420 21 
Q 3050 -91 2638 -91 
Q 1578 -91 968 557 
Q 359 1206 359 2328 
Q 359 3453 968 4101 
Q 1578 4750 2638 4750 
Q 3056 4750 3426 4639 
Q 3797 4528 4122 4306 
z
" transform="scale(0.015625)"/>
      </defs>
      <use xlink:href="#DejaVuSans-4e"/>
      <use xlink:href="#DejaVuSans-65" transform="translate(74.804688 0)"/>
      <use xlink:href="#DejaVuSans-75" transform="translate(136.328125 0)"/>
      <use xlink:href="#DejaVuSans-72" transform="translate(199.707031 0)"/>
      <use xlink:href="#DejaVuSans-6f" transform="translate(238.570312 0)"/>
      <use xlink:href="#DejaVuSans-6e" transform="translate(299.751953 0)"/>
      <use xlink:href="#DejaVuSans-20" transform="translate(363.130859 0)"/>
      <use xlink:href="#DejaVuSans-43" transform="translate(394.917969 0)"/>
      <use xlink:href="#DejaVuSans-6f" transform="translate(464.742188 0)"/>
      <use xlink:href="#DejaVuSans-75" transform="translate(525.923828 0)"/>
      <use xlink:href="#DejaVuSans-6e" transform="translate(589.302734 0)"/>
      <use xlink:href="#DejaVuSans-74" transform="translate(652.681641 0)"/>
     </g>
    </g>
   </g>
   <g id="patch_163">
    <path d="M 27 192.24 
L 27 25.92 
" style="fill: none; stroke: #000000; stroke-width: 0.8; stroke-linejoin: miter; stroke-linecap: square"/>
   </g>
   <g id="patch_164">
    <path d="M 27 192.24 
L 194.4 192.24 
" style="fill: none; stroke: #000000; stroke-width: 0.8; stroke-linejoin: miter; stroke-linecap: square"/>
   </g>
   <g id="legend_1">
    <g id="patch_165">
     <path d="M 2.68875 55.797187 
L 38.68875 55.797187 
L 38.68875 43.197187 
L 2.68875 43.197187 
z
" style="fill: #00a651; opacity: 0.5"/>
    </g>
    <g id="text_7">
     <!-- MTL-sensory -->
     <g transform="translate(53.08875 55.797187) scale(0.18 -0.18)">
      <defs>
       <path id="DejaVuSans-4d" d="M 628 4666 
L 1569 4666 
L 2759 1491 
L 3956 4666 
L 4897 4666 
L 4897 0 
L 4281 0 
L 4281 4097 
L 3078 897 
L 2444 897 
L 1241 4097 
L 1241 0 
L 628 0 
L 628 4666 
z
" transform="scale(0.015625)"/>
       <path id="DejaVuSans-54" d="M -19 4666 
L 3928 4666 
L 3928 4134 
L 2272 4134 
L 2272 0 
L 1638 0 
L 1638 4134 
L -19 4134 
L -19 4666 
z
" transform="scale(0.015625)"/>
       <path id="DejaVuSans-4c" d="M 628 4666 
L 1259 4666 
L 1259 531 
L 3531 531 
L 3531 0 
L 628 0 
L 628 4666 
z
" transform="scale(0.015625)"/>
       <path id="DejaVuSans-2d" d="M 313 2009 
L 1997 2009 
L 1997 1497 
L 313 1497 
L 313 2009 
z
" transform="scale(0.015625)"/>
       <path id="DejaVuSans-73" d="M 2834 3397 
L 2834 2853 
Q 2591 2978 2328 3040 
Q 2066 3103 1784 3103 
Q 1356 3103 1142 2972 
Q 928 2841 928 2578 
Q 928 2378 1081 2264 
Q 1234 2150 1697 2047 
L 1894 2003 
Q 2506 1872 2764 1633 
Q 3022 1394 3022 966 
Q 3022 478 2636 193 
Q 2250 -91 1575 -91 
Q 1294 -91 989 -36 
Q 684 19 347 128 
L 347 722 
Q 666 556 975 473 
Q 1284 391 1588 391 
Q 1994 391 2212 530 
Q 2431 669 2431 922 
Q 2431 1156 2273 1281 
Q 2116 1406 1581 1522 
L 1381 1569 
Q 847 1681 609 1914 
Q 372 2147 372 2553 
Q 372 3047 722 3315 
Q 1072 3584 1716 3584 
Q 2034 3584 2315 3537 
Q 2597 3491 2834 3397 
z
" transform="scale(0.015625)"/>
      </defs>
      <use xlink:href="#DejaVuSans-4d"/>
      <use xlink:href="#DejaVuSans-54" transform="translate(86.279297 0)"/>
      <use xlink:href="#DejaVuSans-4c" transform="translate(147.363281 0)"/>
      <use xlink:href="#DejaVuSans-2d" transform="translate(201.326172 0)"/>
      <use xlink:href="#DejaVuSans-73" transform="translate(237.410156 0)"/>
      <use xlink:href="#DejaVuSans-65" transform="translate(289.509766 0)"/>
      <use xlink:href="#DejaVuSans-6e" transform="translate(351.033203 0)"/>
      <use xlink:href="#DejaVuSans-73" transform="translate(414.412109 0)"/>
      <use xlink:href="#DejaVuSans-6f" transform="translate(466.511719 0)"/>
      <use xlink:href="#DejaVuSans-72" transform="translate(527.693359 0)"/>
      <use xlink:href="#DejaVuSans-79" transform="translate(568.806641 0)"/>
     </g>
    </g>
    <g id="patch_166">
     <path d="M 2.68875 82.217812 
L 38.68875 82.217812 
L 38.68875 69.617812 
L 2.68875 69.617812 
z
" style="fill: #f7941d"/>
    </g>
    <g id="text_8">
     <!-- MTL-semantic -->
     <g transform="translate(53.08875 82.217812) scale(0.18 -0.18)">
      <defs>
       <path id="DejaVuSans-6d" d="M 3328 2828 
Q 3544 3216 3844 3400 
Q 4144 3584 4550 3584 
Q 5097 3584 5394 3201 
Q 5691 2819 5691 2113 
L 5691 0 
L 5113 0 
L 5113 2094 
Q 5113 2597 4934 2840 
Q 4756 3084 4391 3084 
Q 3944 3084 3684 2787 
Q 3425 2491 3425 1978 
L 3425 0 
L 2847 0 
L 2847 2094 
Q 2847 2600 2669 2842 
Q 2491 3084 2119 3084 
Q 1678 3084 1418 2786 
Q 1159 2488 1159 1978 
L 1159 0 
L 581 0 
L 581 3500 
L 1159 3500 
L 1159 2956 
Q 1356 3278 1631 3431 
Q 1906 3584 2284 3584 
Q 2666 3584 2933 3390 
Q 3200 3197 3328 2828 
z
" transform="scale(0.015625)"/>
       <path id="DejaVuSans-61" d="M 2194 1759 
Q 1497 1759 1228 1600 
Q 959 1441 959 1056 
Q 959 750 1161 570 
Q 1363 391 1709 391 
Q 2188 391 2477 730 
Q 2766 1069 2766 1631 
L 2766 1759 
L 2194 1759 
z
M 3341 1997 
L 3341 0 
L 2766 0 
L 2766 531 
Q 2569 213 2275 61 
Q 1981 -91 1556 -91 
Q 1019 -91 701 211 
Q 384 513 384 1019 
Q 384 1609 779 1909 
Q 1175 2209 1959 2209 
L 2766 2209 
L 2766 2266 
Q 2766 2663 2505 2880 
Q 2244 3097 1772 3097 
Q 1472 3097 1187 3025 
Q 903 2953 641 2809 
L 641 3341 
Q 956 3463 1253 3523 
Q 1550 3584 1831 3584 
Q 2591 3584 2966 3190 
Q 3341 2797 3341 1997 
z
" transform="scale(0.015625)"/>
      </defs>
      <use xlink:href="#DejaVuSans-4d"/>
      <use xlink:href="#DejaVuSans-54" transform="translate(86.279297 0)"/>
      <use xlink:href="#DejaVuSans-4c" transform="translate(147.363281 0)"/>
      <use xlink:href="#DejaVuSans-2d" transform="translate(201.326172 0)"/>
      <use xlink:href="#DejaVuSans-73" transform="translate(237.410156 0)"/>
      <use xlink:href="#DejaVuSans-65" transform="translate(289.509766 0)"/>
      <use xlink:href="#DejaVuSans-6d" transform="translate(351.033203 0)"/>
      <use xlink:href="#DejaVuSans-61" transform="translate(448.445312 0)"/>
      <use xlink:href="#DejaVuSans-6e" transform="translate(509.724609 0)"/>
      <use xlink:href="#DejaVuSans-74" transform="translate(573.103516 0)"/>
      <use xlink:href="#DejaVuSans-69" transform="translate(612.3125 0)"/>
      <use xlink:href="#DejaVuSans-63" transform="translate(640.095703 0)"/>
     </g>
    </g>
   </g>
  </g>
 </g>
 <defs>
  <clipPath id="p6d6d57b716">
   <rect x="27" y="25.92" width="167.4" height="166.32"/>
  </clipPath>
 </defs>
</svg>
