<?xml version="1.0" encoding="utf-8" standalone="no"?>
<!DOCTYPE svg PUBLIC "-//W3C//DTD SVG 1.1//EN"
  "http://www.w3.org/Graphics/SVG/1.1/DTD/svg11.dtd">
<svg xmlns:xlink="http://www.w3.org/1999/xlink" width="216pt" height="216pt" viewBox="0 0 216 216" xmlns="http://www.w3.org/2000/svg" version="1.1">
 <metadata>
  <rdf:RDF xmlns:dc="http://purl.org/dc/elements/1.1/" xmlns:cc="http://creativecommons.org/ns#" xmlns:rdf="http://www.w3.org/1999/02/22-rdf-syntax-ns#">
   <cc:Work>
    <dc:type rdf:resource="http://purl.org/dc/dcmitype/StillImage"/>
    <dc:date>2025-10-02T14:33:44.619968</dc:date>
    <dc:format>image/svg+xml</dc:format>
    <dc:creator>
     <cc:Agent>
      <dc:title>Matplotlib v3.10.1, https://matplotlib.org/</dc:title>
     </cc:Agent>
    </dc:creator>
   </cc:Work>
  </rdf:RDF>
 </metadata>
 <defs>
  <style type="text/css">*{stroke-linejoin: round; stroke-linecap: butt}</style>
 </defs>
 <g id="figure_1">
  <g id="patch_1">
   <path d="M 0 216 
L 216 216 
L 216 0 
L 0 0 
L 0 216 
z
" style="fill: none"/>
  </g>
  <g id="axes_1">
   <g id="patch_2">
    <path d="M 27 192.24 
L 194.4 192.24 
L 194.4 25.92 
L 27 25.92 
L 27 192.24 
z
" style="fill: none"/>
   </g>
   <g id="patch_3">
    <path d="M 46.876923 192.24 
L 48.554956 192.24 
L 48.554956 172.2816 
L 46.876923 172.2816 
z
" clip-path="url(#p42a3ed783c)" style="fill: #00a651; opacity: 0.5"/>
   </g>
   <g id="patch_4">
    <path d="M 48.554956 192.24 
L 50.232992 192.24 
L 50.232992 145.6704 
L 48.554956 145.6704 
z
" clip-path="url(#p42a3ed783c)" style="fill: #00a651; opacity: 0.5"/>
   </g>
   <g id="patch_5">
    <path d="M 50.232992 192.24 
L 51.911025 192.24 
L 51.911025 139.0176 
L 50.232992 139.0176 
z
" clip-path="url(#p42a3ed783c)" style="fill: #00a651; opacity: 0.5"/>
   </g>
   <g id="patch_6">
    <path d="M 51.911025 192.24 
L 53.589058 192.24 
L 53.589058 135.6912 
L 51.911025 135.6912 
z
" clip-path="url(#p42a3ed783c)" style="fill: #00a651; opacity: 0.5"/>
   </g>
   <g id="patch_7">
    <path d="M 53.589058 192.24 
L 55.267092 192.24 
L 55.267092 79.1424 
L 53.589058 79.1424 
z
" clip-path="url(#p42a3ed783c)" style="fill: #00a651; opacity: 0.5"/>
   </g>
   <g id="patch_8">
    <path d="M 55.267092 192.24 
L 56.945127 192.24 
L 56.945127 72.4896 
L 55.267092 72.4896 
z
" clip-path="url(#p42a3ed783c)" style="fill: #00a651; opacity: 0.5"/>
   </g>
   <g id="patch_9">
    <path d="M 56.945127 192.24 
L 58.623159 192.24 
L 58.623159 52.5312 
L 56.945127 52.5312 
z
" clip-path="url(#p42a3ed783c)" style="fill: #00a651; opacity: 0.5"/>
   </g>
   <g id="patch_10">
    <path d="M 58.623159 192.24 
L 60.301194 192.24 
L 60.301194 5.9616 
L 58.623159 5.9616 
z
" clip-path="url(#p42a3ed783c)" style="fill: #00a651; opacity: 0.5"/>
   </g>
   <g id="patch_11">
    <path d="M 60.301194 192.24 
L 61.979228 192.24 
L 61.979228 39.2256 
L 60.301194 39.2256 
z
" clip-path="url(#p42a3ed783c)" style="fill: #00a651; opacity: 0.5"/>
   </g>
   <g id="patch_12">
    <path d="M 61.979228 192.24 
L 63.657261 192.24 
L 63.657261 59.184 
L 61.979228 59.184 
z
" clip-path="url(#p42a3ed783c)" style="fill: #00a651; opacity: 0.5"/>
   </g>
   <g id="patch_13">
    <path d="M 63.657261 192.24 
L 65.335295 192.24 
L 65.335295 79.1424 
L 63.657261 79.1424 
z
" clip-path="url(#p42a3ed783c)" style="fill: #00a651; opacity: 0.5"/>
   </g>
   <g id="patch_14">
    <path d="M 65.335295 192.24 
L 67.01333 192.24 
L 67.01333 109.08 
L 65.335295 109.08 
z
" clip-path="url(#p42a3ed783c)" style="fill: #00a651; opacity: 0.5"/>
   </g>
   <g id="patch_15">
    <path d="M 67.01333 192.24 
L 68.691363 192.24 
L 68.691363 112.4064 
L 67.01333 112.4064 
z
" clip-path="url(#p42a3ed783c)" style="fill: #00a651; opacity: 0.5"/>
   </g>
   <g id="patch_16">
    <path d="M 68.691363 192.24 
L 70.369397 192.24 
L 70.369397 125.712 
L 68.691363 125.712 
z
" clip-path="url(#p42a3ed783c)" style="fill: #00a651; opacity: 0.5"/>
   </g>
   <g id="patch_17">
    <path d="M 70.369397 192.24 
L 72.04743 192.24 
L 72.04743 72.4896 
L 70.369397 72.4896 
z
" clip-path="url(#p42a3ed783c)" style="fill: #00a651; opacity: 0.5"/>
   </g>
   <g id="patch_18">
    <path d="M 72.04743 192.24 
L 73.725464 192.24 
L 73.725464 75.816 
L 72.04743 75.816 
z
" clip-path="url(#p42a3ed783c)" style="fill: #00a651; opacity: 0.5"/>
   </g>
   <g id="patch_19">
    <path d="M 73.725464 192.24 
L 75.403497 192.24 
L 75.403497 102.4272 
L 73.725464 102.4272 
z
" clip-path="url(#p42a3ed783c)" style="fill: #00a651; opacity: 0.5"/>
   </g>
   <g id="patch_20">
    <path d="M 75.403497 192.24 
L 77.081533 192.24 
L 77.081533 105.7536 
L 75.403497 105.7536 
z
" clip-path="url(#p42a3ed783c)" style="fill: #00a651; opacity: 0.5"/>
   </g>
   <g id="patch_21">
    <path d="M 77.081533 192.24 
L 78.759566 192.24 
L 78.759566 125.712 
L 77.081533 125.712 
z
" clip-path="url(#p42a3ed783c)" style="fill: #00a651; opacity: 0.5"/>
   </g>
   <g id="patch_22">
    <path d="M 78.759566 192.24 
L 80.437599 192.24 
L 80.437599 129.0384 
L 78.759566 129.0384 
z
" clip-path="url(#p42a3ed783c)" style="fill: #00a651; opacity: 0.5"/>
   </g>
   <g id="patch_23">
    <path d="M 80.437599 192.24 
L 82.115635 192.24 
L 82.115635 139.0176 
L 80.437599 139.0176 
z
" clip-path="url(#p42a3ed783c)" style="fill: #00a651; opacity: 0.5"/>
   </g>
   <g id="patch_24">
    <path d="M 82.115635 192.24 
L 83.793668 192.24 
L 83.793668 125.712 
L 82.115635 125.712 
z
" clip-path="url(#p42a3ed783c)" style="fill: #00a651; opacity: 0.5"/>
   </g>
   <g id="patch_25">
    <path d="M 83.793668 192.24 
L 85.4717 192.24 
L 85.4717 129.0384 
L 83.793668 129.0384 
z
" clip-path="url(#p42a3ed783c)" style="fill: #00a651; opacity: 0.5"/>
   </g>
   <g id="patch_26">
    <path d="M 85.4717 192.24 
L 87.149736 192.24 
L 87.149736 155.6496 
L 85.4717 155.6496 
z
" clip-path="url(#p42a3ed783c)" style="fill: #00a651; opacity: 0.5"/>
   </g>
   <g id="patch_27">
    <path d="M 87.149736 192.24 
L 88.827769 192.24 
L 88.827769 125.712 
L 87.149736 125.712 
z
" clip-path="url(#p42a3ed783c)" style="fill: #00a651; opacity: 0.5"/>
   </g>
   <g id="patch_28">
    <path d="M 88.827769 192.24 
L 90.505802 192.24 
L 90.505802 139.0176 
L 88.827769 139.0176 
z
" clip-path="url(#p42a3ed783c)" style="fill: #00a651; opacity: 0.5"/>
   </g>
   <g id="patch_29">
    <path d="M 90.505802 192.24 
L 92.183835 192.24 
L 92.183835 125.712 
L 90.505802 125.712 
z
" clip-path="url(#p42a3ed783c)" style="fill: #00a651; opacity: 0.5"/>
   </g>
   <g id="patch_30">
    <path d="M 92.183835 192.24 
L 93.861871 192.24 
L 93.861871 135.6912 
L 92.183835 135.6912 
z
" clip-path="url(#p42a3ed783c)" style="fill: #00a651; opacity: 0.5"/>
   </g>
   <g id="patch_31">
    <path d="M 93.861871 192.24 
L 95.539904 192.24 
L 95.539904 122.3856 
L 93.861871 122.3856 
z
" clip-path="url(#p42a3ed783c)" style="fill: #00a651; opacity: 0.5"/>
   </g>
   <g id="patch_32">
    <path d="M 95.539904 192.24 
L 97.217936 192.24 
L 97.217936 168.9552 
L 95.539904 168.9552 
z
" clip-path="url(#p42a3ed783c)" style="fill: #00a651; opacity: 0.5"/>
   </g>
   <g id="patch_33">
    <path d="M 97.217936 192.24 
L 98.895972 192.24 
L 98.895972 145.6704 
L 97.217936 145.6704 
z
" clip-path="url(#p42a3ed783c)" style="fill: #00a651; opacity: 0.5"/>
   </g>
   <g id="patch_34">
    <path d="M 98.895972 192.24 
L 100.574005 192.24 
L 100.574005 158.976 
L 98.895972 158.976 
z
" clip-path="url(#p42a3ed783c)" style="fill: #00a651; opacity: 0.5"/>
   </g>
   <g id="patch_35">
    <path d="M 100.574005 192.24 
L 102.252038 192.24 
L 102.252038 135.6912 
L 100.574005 135.6912 
z
" clip-path="url(#p42a3ed783c)" style="fill: #00a651; opacity: 0.5"/>
   </g>
   <g id="patch_36">
    <path d="M 102.252038 192.24 
L 103.930071 192.24 
L 103.930071 155.6496 
L 102.252038 155.6496 
z
" clip-path="url(#p42a3ed783c)" style="fill: #00a651; opacity: 0.5"/>
   </g>
   <g id="patch_37">
    <path d="M 103.930071 192.24 
L 105.608107 192.24 
L 105.608107 142.344 
L 103.930071 142.344 
z
" clip-path="url(#p42a3ed783c)" style="fill: #00a651; opacity: 0.5"/>
   </g>
   <g id="patch_38">
    <path d="M 105.608107 192.24 
L 107.286143 192.24 
L 107.286143 142.344 
L 105.608107 142.344 
z
" clip-path="url(#p42a3ed783c)" style="fill: #00a651; opacity: 0.5"/>
   </g>
   <g id="patch_39">
    <path d="M 107.286143 192.24 
L 108.964172 192.24 
L 108.964172 162.3024 
L 107.286143 162.3024 
z
" clip-path="url(#p42a3ed783c)" style="fill: #00a651; opacity: 0.5"/>
   </g>
   <g id="patch_40">
    <path d="M 108.964172 192.24 
L 110.642208 192.24 
L 110.642208 172.2816 
L 108.964172 172.2816 
z
" clip-path="url(#p42a3ed783c)" style="fill: #00a651; opacity: 0.5"/>
   </g>
   <g id="patch_41">
    <path d="M 110.642208 192.24 
L 112.320245 192.24 
L 112.320245 148.9968 
L 110.642208 148.9968 
z
" clip-path="url(#p42a3ed783c)" style="fill: #00a651; opacity: 0.5"/>
   </g>
   <g id="patch_42">
    <path d="M 112.320245 192.24 
L 113.998274 192.24 
L 113.998274 155.6496 
L 112.320245 155.6496 
z
" clip-path="url(#p42a3ed783c)" style="fill: #00a651; opacity: 0.5"/>
   </g>
   <g id="patch_43">
    <path d="M 113.998274 192.24 
L 115.67631 192.24 
L 115.67631 158.976 
L 113.998274 158.976 
z
" clip-path="url(#p42a3ed783c)" style="fill: #00a651; opacity: 0.5"/>
   </g>
   <g id="patch_44">
    <path d="M 115.67631 192.24 
L 117.354346 192.24 
L 117.354346 175.608 
L 115.67631 175.608 
z
" clip-path="url(#p42a3ed783c)" style="fill: #00a651; opacity: 0.5"/>
   </g>
   <g id="patch_45">
    <path d="M 117.354346 192.24 
L 119.032376 192.24 
L 119.032376 182.2608 
L 117.354346 182.2608 
z
" clip-path="url(#p42a3ed783c)" style="fill: #00a651; opacity: 0.5"/>
   </g>
   <g id="patch_46">
    <path d="M 119.032376 192.24 
L 120.710412 192.24 
L 120.710412 148.9968 
L 119.032376 148.9968 
z
" clip-path="url(#p42a3ed783c)" style="fill: #00a651; opacity: 0.5"/>
   </g>
   <g id="patch_47">
    <path d="M 120.710412 192.24 
L 122.388448 192.24 
L 122.388448 162.3024 
L 120.710412 162.3024 
z
" clip-path="url(#p42a3ed783c)" style="fill: #00a651; opacity: 0.5"/>
   </g>
   <g id="patch_48">
    <path d="M 122.388448 192.24 
L 124.066477 192.24 
L 124.066477 172.2816 
L 122.388448 172.2816 
z
" clip-path="url(#p42a3ed783c)" style="fill: #00a651; opacity: 0.5"/>
   </g>
   <g id="patch_49">
    <path d="M 124.066477 192.24 
L 125.744513 192.24 
L 125.744513 178.9344 
L 124.066477 178.9344 
z
" clip-path="url(#p42a3ed783c)" style="fill: #00a651; opacity: 0.5"/>
   </g>
   <g id="patch_50">
    <path d="M 125.744513 192.24 
L 127.422549 192.24 
L 127.422549 175.608 
L 125.744513 175.608 
z
" clip-path="url(#p42a3ed783c)" style="fill: #00a651; opacity: 0.5"/>
   </g>
   <g id="patch_51">
    <path d="M 127.422549 192.24 
L 129.100579 192.24 
L 129.100579 158.976 
L 127.422549 158.976 
z
" clip-path="url(#p42a3ed783c)" style="fill: #00a651; opacity: 0.5"/>
   </g>
   <g id="patch_52">
    <path d="M 129.100579 192.24 
L 130.778615 192.24 
L 130.778615 165.6288 
L 129.100579 165.6288 
z
" clip-path="url(#p42a3ed783c)" style="fill: #00a651; opacity: 0.5"/>
   </g>
   <g id="patch_53">
    <path d="M 130.778615 192.24 
L 132.456644 192.24 
L 132.456644 168.9552 
L 130.778615 168.9552 
z
" clip-path="url(#p42a3ed783c)" style="fill: #00a651; opacity: 0.5"/>
   </g>
   <g id="patch_54">
    <path d="M 132.456644 192.24 
L 134.134681 192.24 
L 134.134681 182.2608 
L 132.456644 182.2608 
z
" clip-path="url(#p42a3ed783c)" style="fill: #00a651; opacity: 0.5"/>
   </g>
   <g id="patch_55">
    <path d="M 134.134681 192.24 
L 135.812717 192.24 
L 135.812717 178.9344 
L 134.134681 178.9344 
z
" clip-path="url(#p42a3ed783c)" style="fill: #00a651; opacity: 0.5"/>
   </g>
   <g id="patch_56">
    <path d="M 135.812717 192.24 
L 137.490746 192.24 
L 137.490746 172.2816 
L 135.812717 172.2816 
z
" clip-path="url(#p42a3ed783c)" style="fill: #00a651; opacity: 0.5"/>
   </g>
   <g id="patch_57">
    <path d="M 137.490746 192.24 
L 139.168782 192.24 
L 139.168782 188.9136 
L 137.490746 188.9136 
z
" clip-path="url(#p42a3ed783c)" style="fill: #00a651; opacity: 0.5"/>
   </g>
   <g id="patch_58">
    <path d="M 139.168782 192.24 
L 140.846818 192.24 
L 140.846818 172.2816 
L 139.168782 172.2816 
z
" clip-path="url(#p42a3ed783c)" style="fill: #00a651; opacity: 0.5"/>
   </g>
   <g id="patch_59">
    <path d="M 140.846818 192.24 
L 142.524848 192.24 
L 142.524848 185.5872 
L 140.846818 185.5872 
z
" clip-path="url(#p42a3ed783c)" style="fill: #00a651; opacity: 0.5"/>
   </g>
   <g id="patch_60">
    <path d="M 142.524848 192.24 
L 144.202884 192.24 
L 144.202884 182.2608 
L 142.524848 182.2608 
z
" clip-path="url(#p42a3ed783c)" style="fill: #00a651; opacity: 0.5"/>
   </g>
   <g id="patch_61">
    <path d="M 144.202884 192.24 
L 145.88092 192.24 
L 145.88092 175.608 
L 144.202884 175.608 
z
" clip-path="url(#p42a3ed783c)" style="fill: #00a651; opacity: 0.5"/>
   </g>
   <g id="patch_62">
    <path d="M 145.88092 192.24 
L 147.558949 192.24 
L 147.558949 175.608 
L 145.88092 175.608 
z
" clip-path="url(#p42a3ed783c)" style="fill: #00a651; opacity: 0.5"/>
   </g>
   <g id="patch_63">
    <path d="M 147.558949 192.24 
L 149.236985 192.24 
L 149.236985 185.5872 
L 147.558949 185.5872 
z
" clip-path="url(#p42a3ed783c)" style="fill: #00a651; opacity: 0.5"/>
   </g>
   <g id="patch_64">
    <path d="M 149.236985 192.24 
L 150.915022 192.24 
L 150.915022 182.2608 
L 149.236985 182.2608 
z
" clip-path="url(#p42a3ed783c)" style="fill: #00a651; opacity: 0.5"/>
   </g>
   <g id="patch_65">
    <path d="M 150.915022 192.24 
L 152.593051 192.24 
L 152.593051 188.9136 
L 150.915022 188.9136 
z
" clip-path="url(#p42a3ed783c)" style="fill: #00a651; opacity: 0.5"/>
   </g>
   <g id="patch_66">
    <path d="M 152.593051 192.24 
L 154.271087 192.24 
L 154.271087 182.2608 
L 152.593051 182.2608 
z
" clip-path="url(#p42a3ed783c)" style="fill: #00a651; opacity: 0.5"/>
   </g>
   <g id="patch_67">
    <path d="M 154.271087 192.24 
L 155.949123 192.24 
L 155.949123 185.5872 
L 154.271087 185.5872 
z
" clip-path="url(#p42a3ed783c)" style="fill: #00a651; opacity: 0.5"/>
   </g>
   <g id="patch_68">
    <path d="M 155.949123 192.24 
L 157.627153 192.24 
L 157.627153 188.9136 
L 155.949123 188.9136 
z
" clip-path="url(#p42a3ed783c)" style="fill: #00a651; opacity: 0.5"/>
   </g>
   <g id="patch_69">
    <path d="M 157.627153 192.24 
L 159.305189 192.24 
L 159.305189 188.9136 
L 157.627153 188.9136 
z
" clip-path="url(#p42a3ed783c)" style="fill: #00a651; opacity: 0.5"/>
   </g>
   <g id="patch_70">
    <path d="M 159.305189 192.24 
L 160.983218 192.24 
L 160.983218 188.9136 
L 159.305189 188.9136 
z
" clip-path="url(#p42a3ed783c)" style="fill: #00a651; opacity: 0.5"/>
   </g>
   <g id="patch_71">
    <path d="M 160.983218 192.24 
L 162.661261 192.24 
L 162.661261 192.24 
L 160.983218 192.24 
z
" clip-path="url(#p42a3ed783c)" style="fill: #00a651; opacity: 0.5"/>
   </g>
   <g id="patch_72">
    <path d="M 162.661261 192.24 
L 164.33929 192.24 
L 164.33929 188.9136 
L 162.661261 188.9136 
z
" clip-path="url(#p42a3ed783c)" style="fill: #00a651; opacity: 0.5"/>
   </g>
   <g id="patch_73">
    <path d="M 164.33929 192.24 
L 166.01732 192.24 
L 166.01732 192.24 
L 164.33929 192.24 
z
" clip-path="url(#p42a3ed783c)" style="fill: #00a651; opacity: 0.5"/>
   </g>
   <g id="patch_74">
    <path d="M 166.01732 192.24 
L 167.695362 192.24 
L 167.695362 185.5872 
L 166.01732 185.5872 
z
" clip-path="url(#p42a3ed783c)" style="fill: #00a651; opacity: 0.5"/>
   </g>
   <g id="patch_75">
    <path d="M 167.695362 192.24 
L 169.373392 192.24 
L 169.373392 188.9136 
L 167.695362 188.9136 
z
" clip-path="url(#p42a3ed783c)" style="fill: #00a651; opacity: 0.5"/>
   </g>
   <g id="patch_76">
    <path d="M 169.373392 192.24 
L 171.051421 192.24 
L 171.051421 182.2608 
L 169.373392 182.2608 
z
" clip-path="url(#p42a3ed783c)" style="fill: #00a651; opacity: 0.5"/>
   </g>
   <g id="patch_77">
    <path d="M 171.051421 192.24 
L 172.729464 192.24 
L 172.729464 188.9136 
L 171.051421 188.9136 
z
" clip-path="url(#p42a3ed783c)" style="fill: #00a651; opacity: 0.5"/>
   </g>
   <g id="patch_78">
    <path d="M 172.729464 192.24 
L 174.407494 192.24 
L 174.407494 192.24 
L 172.729464 192.24 
z
" clip-path="url(#p42a3ed783c)" style="fill: #00a651; opacity: 0.5"/>
   </g>
   <g id="patch_79">
    <path d="M 174.407494 192.24 
L 176.085523 192.24 
L 176.085523 192.24 
L 174.407494 192.24 
z
" clip-path="url(#p42a3ed783c)" style="fill: #00a651; opacity: 0.5"/>
   </g>
   <g id="patch_80">
    <path d="M 176.085523 192.24 
L 177.763566 192.24 
L 177.763566 192.24 
L 176.085523 192.24 
z
" clip-path="url(#p42a3ed783c)" style="fill: #00a651; opacity: 0.5"/>
   </g>
   <g id="patch_81">
    <path d="M 177.763566 192.24 
L 179.441595 192.24 
L 179.441595 188.9136 
L 177.763566 188.9136 
z
" clip-path="url(#p42a3ed783c)" style="fill: #00a651; opacity: 0.5"/>
   </g>
   <g id="patch_82">
    <path d="M 179.441595 192.24 
L 181.119631 192.24 
L 181.119631 188.9136 
L 179.441595 188.9136 
z
" clip-path="url(#p42a3ed783c)" style="fill: #00a651; opacity: 0.5"/>
   </g>
   <g id="patch_83">
    <path d="M 51.758953 192.24 
L 53.453599 192.24 
L 53.453599 125.712 
L 51.758953 125.712 
z
" clip-path="url(#p42a3ed783c)" style="fill: #f7941d"/>
   </g>
   <g id="patch_84">
    <path d="M 53.453599 192.24 
L 55.148243 192.24 
L 55.148243 158.976 
L 53.453599 158.976 
z
" clip-path="url(#p42a3ed783c)" style="fill: #f7941d"/>
   </g>
   <g id="patch_85">
    <path d="M 55.148243 192.24 
L 56.842889 192.24 
L 56.842889 42.552 
L 55.148243 42.552 
z
" clip-path="url(#p42a3ed783c)" style="fill: #f7941d"/>
   </g>
   <g id="patch_86">
    <path d="M 56.842889 192.24 
L 58.537535 192.24 
L 58.537535 92.448 
L 56.842889 92.448 
z
" clip-path="url(#p42a3ed783c)" style="fill: #f7941d"/>
   </g>
   <g id="patch_87">
    <path d="M 58.537535 192.24 
L 60.232179 192.24 
L 60.232179 59.184 
L 58.537535 59.184 
z
" clip-path="url(#p42a3ed783c)" style="fill: #f7941d"/>
   </g>
   <g id="patch_88">
    <path d="M 60.232179 192.24 
L 61.926825 192.24 
L 61.926825 125.712 
L 60.232179 125.712 
z
" clip-path="url(#p42a3ed783c)" style="fill: #f7941d"/>
   </g>
   <g id="patch_89">
    <path d="M 61.926825 192.24 
L 63.621471 192.24 
L 63.621471 59.184 
L 61.926825 59.184 
z
" clip-path="url(#p42a3ed783c)" style="fill: #f7941d"/>
   </g>
   <g id="patch_90">
    <path d="M 63.621471 192.24 
L 65.316116 192.24 
L 65.316116 158.976 
L 63.621471 158.976 
z
" clip-path="url(#p42a3ed783c)" style="fill: #f7941d"/>
   </g>
   <g id="patch_91">
    <path d="M 65.316116 192.24 
L 67.010761 192.24 
L 67.010761 158.976 
L 65.316116 158.976 
z
" clip-path="url(#p42a3ed783c)" style="fill: #f7941d"/>
   </g>
   <g id="patch_92">
    <path d="M 67.010761 192.24 
L 68.705406 192.24 
L 68.705406 129.0384 
L 67.010761 129.0384 
z
" clip-path="url(#p42a3ed783c)" style="fill: #f7941d"/>
   </g>
   <g id="patch_93">
    <path d="M 68.705406 192.24 
L 70.400052 192.24 
L 70.400052 89.1216 
L 68.705406 89.1216 
z
" clip-path="url(#p42a3ed783c)" style="fill: #f7941d"/>
   </g>
   <g id="patch_94">
    <path d="M 70.400052 192.24 
L 72.094696 192.24 
L 72.094696 175.608 
L 70.400052 175.608 
z
" clip-path="url(#p42a3ed783c)" style="fill: #f7941d"/>
   </g>
   <g id="patch_95">
    <path d="M 72.094696 192.24 
L 73.789342 192.24 
L 73.789342 92.448 
L 72.094696 92.448 
z
" clip-path="url(#p42a3ed783c)" style="fill: #f7941d"/>
   </g>
   <g id="patch_96">
    <path d="M 73.789342 192.24 
L 75.483988 192.24 
L 75.483988 102.4272 
L 73.789342 102.4272 
z
" clip-path="url(#p42a3ed783c)" style="fill: #f7941d"/>
   </g>
   <g id="patch_97">
    <path d="M 75.483988 192.24 
L 77.178632 192.24 
L 77.178632 105.7536 
L 75.483988 105.7536 
z
" clip-path="url(#p42a3ed783c)" style="fill: #f7941d"/>
   </g>
   <g id="patch_98">
    <path d="M 77.178632 192.24 
L 78.873278 192.24 
L 78.873278 175.608 
L 77.178632 175.608 
z
" clip-path="url(#p42a3ed783c)" style="fill: #f7941d"/>
   </g>
   <g id="patch_99">
    <path d="M 78.873278 192.24 
L 80.567922 192.24 
L 80.567922 168.9552 
L 78.873278 168.9552 
z
" clip-path="url(#p42a3ed783c)" style="fill: #f7941d"/>
   </g>
   <g id="patch_100">
    <path d="M 80.567922 192.24 
L 82.262568 192.24 
L 82.262568 185.5872 
L 80.567922 185.5872 
z
" clip-path="url(#p42a3ed783c)" style="fill: #f7941d"/>
   </g>
   <g id="patch_101">
    <path d="M 82.262568 192.24 
L 83.957214 192.24 
L 83.957214 162.3024 
L 82.262568 162.3024 
z
" clip-path="url(#p42a3ed783c)" style="fill: #f7941d"/>
   </g>
   <g id="patch_102">
    <path d="M 83.957214 192.24 
L 85.65186 192.24 
L 85.65186 185.5872 
L 83.957214 185.5872 
z
" clip-path="url(#p42a3ed783c)" style="fill: #f7941d"/>
   </g>
   <g id="patch_103">
    <path d="M 85.65186 192.24 
L 87.346506 192.24 
L 87.346506 192.24 
L 85.65186 192.24 
z
" clip-path="url(#p42a3ed783c)" style="fill: #f7941d"/>
   </g>
   <g id="patch_104">
    <path d="M 87.346506 192.24 
L 89.041151 192.24 
L 89.041151 148.9968 
L 87.346506 148.9968 
z
" clip-path="url(#p42a3ed783c)" style="fill: #f7941d"/>
   </g>
   <g id="patch_105">
    <path d="M 89.041151 192.24 
L 90.735794 192.24 
L 90.735794 168.9552 
L 89.041151 168.9552 
z
" clip-path="url(#p42a3ed783c)" style="fill: #f7941d"/>
   </g>
   <g id="patch_106">
    <path d="M 90.735794 192.24 
L 92.43044 192.24 
L 92.43044 185.5872 
L 90.735794 185.5872 
z
" clip-path="url(#p42a3ed783c)" style="fill: #f7941d"/>
   </g>
   <g id="patch_107">
    <path d="M 92.43044 192.24 
L 94.125086 192.24 
L 94.125086 172.2816 
L 92.43044 172.2816 
z
" clip-path="url(#p42a3ed783c)" style="fill: #f7941d"/>
   </g>
   <g id="patch_108">
    <path d="M 94.125086 192.24 
L 95.819731 192.24 
L 95.819731 172.2816 
L 94.125086 172.2816 
z
" clip-path="url(#p42a3ed783c)" style="fill: #f7941d"/>
   </g>
   <g id="patch_109">
    <path d="M 95.819731 192.24 
L 97.514377 192.24 
L 97.514377 168.9552 
L 95.819731 168.9552 
z
" clip-path="url(#p42a3ed783c)" style="fill: #f7941d"/>
   </g>
   <g id="patch_110">
    <path d="M 97.514377 192.24 
L 99.209023 192.24 
L 99.209023 162.3024 
L 97.514377 162.3024 
z
" clip-path="url(#p42a3ed783c)" style="fill: #f7941d"/>
   </g>
   <g id="patch_111">
    <path d="M 99.209023 192.24 
L 100.903666 192.24 
L 100.903666 188.9136 
L 99.209023 188.9136 
z
" clip-path="url(#p42a3ed783c)" style="fill: #f7941d"/>
   </g>
   <g id="patch_112">
    <path d="M 100.903666 192.24 
L 102.598311 192.24 
L 102.598311 192.24 
L 100.903666 192.24 
z
" clip-path="url(#p42a3ed783c)" style="fill: #f7941d"/>
   </g>
   <g id="patch_113">
    <path d="M 102.598311 192.24 
L 104.292957 192.24 
L 104.292957 188.9136 
L 102.598311 188.9136 
z
" clip-path="url(#p42a3ed783c)" style="fill: #f7941d"/>
   </g>
   <g id="patch_114">
    <path d="M 104.292957 192.24 
L 105.987603 192.24 
L 105.987603 175.608 
L 104.292957 175.608 
z
" clip-path="url(#p42a3ed783c)" style="fill: #f7941d"/>
   </g>
   <g id="patch_115">
    <path d="M 105.987603 192.24 
L 107.682246 192.24 
L 107.682246 175.608 
L 105.987603 175.608 
z
" clip-path="url(#p42a3ed783c)" style="fill: #f7941d"/>
   </g>
   <g id="patch_116">
    <path d="M 107.682246 192.24 
L 109.376892 192.24 
L 109.376892 192.24 
L 107.682246 192.24 
z
" clip-path="url(#p42a3ed783c)" style="fill: #f7941d"/>
   </g>
   <g id="patch_117">
    <path d="M 109.376892 192.24 
L 111.071537 192.24 
L 111.071537 175.608 
L 109.376892 175.608 
z
" clip-path="url(#p42a3ed783c)" style="fill: #f7941d"/>
   </g>
   <g id="patch_118">
    <path d="M 111.071537 192.24 
L 112.766183 192.24 
L 112.766183 192.24 
L 111.071537 192.24 
z
" clip-path="url(#p42a3ed783c)" style="fill: #f7941d"/>
   </g>
   <g id="patch_119">
    <path d="M 112.766183 192.24 
L 114.460829 192.24 
L 114.460829 192.24 
L 112.766183 192.24 
z
" clip-path="url(#p42a3ed783c)" style="fill: #f7941d"/>
   </g>
   <g id="patch_120">
    <path d="M 114.460829 192.24 
L 116.155475 192.24 
L 116.155475 192.24 
L 114.460829 192.24 
z
" clip-path="url(#p42a3ed783c)" style="fill: #f7941d"/>
   </g>
   <g id="patch_121">
    <path d="M 116.155475 192.24 
L 117.850121 192.24 
L 117.850121 158.976 
L 116.155475 158.976 
z
" clip-path="url(#p42a3ed783c)" style="fill: #f7941d"/>
   </g>
   <g id="patch_122">
    <path d="M 117.850121 192.24 
L 119.544767 192.24 
L 119.544767 175.608 
L 117.850121 175.608 
z
" clip-path="url(#p42a3ed783c)" style="fill: #f7941d"/>
   </g>
   <g id="patch_123">
    <path d="M 119.544767 192.24 
L 121.239412 192.24 
L 121.239412 192.24 
L 119.544767 192.24 
z
" clip-path="url(#p42a3ed783c)" style="fill: #f7941d"/>
   </g>
   <g id="patch_124">
    <path d="M 121.239412 192.24 
L 122.934058 192.24 
L 122.934058 158.976 
L 121.239412 158.976 
z
" clip-path="url(#p42a3ed783c)" style="fill: #f7941d"/>
   </g>
   <g id="patch_125">
    <path d="M 122.934058 192.24 
L 124.628704 192.24 
L 124.628704 175.608 
L 122.934058 175.608 
z
" clip-path="url(#p42a3ed783c)" style="fill: #f7941d"/>
   </g>
   <g id="patch_126">
    <path d="M 124.628704 192.24 
L 126.32335 192.24 
L 126.32335 192.24 
L 124.628704 192.24 
z
" clip-path="url(#p42a3ed783c)" style="fill: #f7941d"/>
   </g>
   <g id="patch_127">
    <path d="M 126.32335 192.24 
L 128.017989 192.24 
L 128.017989 192.24 
L 126.32335 192.24 
z
" clip-path="url(#p42a3ed783c)" style="fill: #f7941d"/>
   </g>
   <g id="patch_128">
    <path d="M 128.017989 192.24 
L 129.712635 192.24 
L 129.712635 172.2816 
L 128.017989 172.2816 
z
" clip-path="url(#p42a3ed783c)" style="fill: #f7941d"/>
   </g>
   <g id="patch_129">
    <path d="M 129.712635 192.24 
L 131.407281 192.24 
L 131.407281 162.3024 
L 129.712635 162.3024 
z
" clip-path="url(#p42a3ed783c)" style="fill: #f7941d"/>
   </g>
   <g id="patch_130">
    <path d="M 131.407281 192.24 
L 133.101927 192.24 
L 133.101927 192.24 
L 131.407281 192.24 
z
" clip-path="url(#p42a3ed783c)" style="fill: #f7941d"/>
   </g>
   <g id="patch_131">
    <path d="M 133.101927 192.24 
L 134.796572 192.24 
L 134.796572 188.9136 
L 133.101927 188.9136 
z
" clip-path="url(#p42a3ed783c)" style="fill: #f7941d"/>
   </g>
   <g id="patch_132">
    <path d="M 134.796572 192.24 
L 136.491218 192.24 
L 136.491218 162.3024 
L 134.796572 162.3024 
z
" clip-path="url(#p42a3ed783c)" style="fill: #f7941d"/>
   </g>
   <g id="patch_133">
    <path d="M 136.491218 192.24 
L 138.185864 192.24 
L 138.185864 192.24 
L 136.491218 192.24 
z
" clip-path="url(#p42a3ed783c)" style="fill: #f7941d"/>
   </g>
   <g id="patch_134">
    <path d="M 138.185864 192.24 
L 139.880513 192.24 
L 139.880513 192.24 
L 138.185864 192.24 
z
" clip-path="url(#p42a3ed783c)" style="fill: #f7941d"/>
   </g>
   <g id="patch_135">
    <path d="M 139.880513 192.24 
L 141.575159 192.24 
L 141.575159 175.608 
L 139.880513 175.608 
z
" clip-path="url(#p42a3ed783c)" style="fill: #f7941d"/>
   </g>
   <g id="patch_136">
    <path d="M 141.575159 192.24 
L 143.269805 192.24 
L 143.269805 192.24 
L 141.575159 192.24 
z
" clip-path="url(#p42a3ed783c)" style="fill: #f7941d"/>
   </g>
   <g id="patch_137">
    <path d="M 143.269805 192.24 
L 144.964451 192.24 
L 144.964451 192.24 
L 143.269805 192.24 
z
" clip-path="url(#p42a3ed783c)" style="fill: #f7941d"/>
   </g>
   <g id="patch_138">
    <path d="M 144.964451 192.24 
L 146.659097 192.24 
L 146.659097 192.24 
L 144.964451 192.24 
z
" clip-path="url(#p42a3ed783c)" style="fill: #f7941d"/>
   </g>
   <g id="patch_139">
    <path d="M 146.659097 192.24 
L 148.353742 192.24 
L 148.353742 192.24 
L 146.659097 192.24 
z
" clip-path="url(#p42a3ed783c)" style="fill: #f7941d"/>
   </g>
   <g id="patch_140">
    <path d="M 148.353742 192.24 
L 150.048375 192.24 
L 150.048375 192.24 
L 148.353742 192.24 
z
" clip-path="url(#p42a3ed783c)" style="fill: #f7941d"/>
   </g>
   <g id="patch_141">
    <path d="M 150.048375 192.24 
L 151.743021 192.24 
L 151.743021 192.24 
L 150.048375 192.24 
z
" clip-path="url(#p42a3ed783c)" style="fill: #f7941d"/>
   </g>
   <g id="patch_142">
    <path d="M 151.743021 192.24 
L 153.437667 192.24 
L 153.437667 192.24 
L 151.743021 192.24 
z
" clip-path="url(#p42a3ed783c)" style="fill: #f7941d"/>
   </g>
   <g id="patch_143">
    <path d="M 153.437667 192.24 
L 155.132312 192.24 
L 155.132312 192.24 
L 153.437667 192.24 
z
" clip-path="url(#p42a3ed783c)" style="fill: #f7941d"/>
   </g>
   <g id="patch_144">
    <path d="M 155.132312 192.24 
L 156.826958 192.24 
L 156.826958 175.608 
L 155.132312 175.608 
z
" clip-path="url(#p42a3ed783c)" style="fill: #f7941d"/>
   </g>
   <g id="patch_145">
    <path d="M 156.826958 192.24 
L 158.521604 192.24 
L 158.521604 192.24 
L 156.826958 192.24 
z
" clip-path="url(#p42a3ed783c)" style="fill: #f7941d"/>
   </g>
   <g id="patch_146">
    <path d="M 158.521604 192.24 
L 160.21625 192.24 
L 160.21625 192.24 
L 158.521604 192.24 
z
" clip-path="url(#p42a3ed783c)" style="fill: #f7941d"/>
   </g>
   <g id="patch_147">
    <path d="M 160.21625 192.24 
L 161.910896 192.24 
L 161.910896 192.24 
L 160.21625 192.24 
z
" clip-path="url(#p42a3ed783c)" style="fill: #f7941d"/>
   </g>
   <g id="patch_148">
    <path d="M 161.910896 192.24 
L 163.605542 192.24 
L 163.605542 192.24 
L 161.910896 192.24 
z
" clip-path="url(#p42a3ed783c)" style="fill: #f7941d"/>
   </g>
   <g id="patch_149">
    <path d="M 163.605542 192.24 
L 165.300187 192.24 
L 165.300187 175.608 
L 163.605542 175.608 
z
" clip-path="url(#p42a3ed783c)" style="fill: #f7941d"/>
   </g>
   <g id="patch_150">
    <path d="M 165.300187 192.24 
L 166.994833 192.24 
L 166.994833 192.24 
L 165.300187 192.24 
z
" clip-path="url(#p42a3ed783c)" style="fill: #f7941d"/>
   </g>
   <g id="patch_151">
    <path d="M 166.994833 192.24 
L 168.689479 192.24 
L 168.689479 192.24 
L 166.994833 192.24 
z
" clip-path="url(#p42a3ed783c)" style="fill: #f7941d"/>
   </g>
   <g id="patch_152">
    <path d="M 168.689479 192.24 
L 170.384125 192.24 
L 170.384125 192.24 
L 168.689479 192.24 
z
" clip-path="url(#p42a3ed783c)" style="fill: #f7941d"/>
   </g>
   <g id="patch_153">
    <path d="M 170.384125 192.24 
L 172.078771 192.24 
L 172.078771 192.24 
L 170.384125 192.24 
z
" clip-path="url(#p42a3ed783c)" style="fill: #f7941d"/>
   </g>
   <g id="patch_154">
    <path d="M 172.078771 192.24 
L 173.773417 192.24 
L 173.773417 192.24 
L 172.078771 192.24 
z
" clip-path="url(#p42a3ed783c)" style="fill: #f7941d"/>
   </g>
   <g id="patch_155">
    <path d="M 173.773417 192.24 
L 175.468062 192.24 
L 175.468062 192.24 
L 173.773417 192.24 
z
" clip-path="url(#p42a3ed783c)" style="fill: #f7941d"/>
   </g>
   <g id="patch_156">
    <path d="M 175.468062 192.24 
L 177.162708 192.24 
L 177.162708 175.608 
L 175.468062 175.608 
z
" clip-path="url(#p42a3ed783c)" style="fill: #f7941d"/>
   </g>
   <g id="patch_157">
    <path d="M 177.162708 192.24 
L 178.857354 192.24 
L 178.857354 192.24 
L 177.162708 192.24 
z
" clip-path="url(#p42a3ed783c)" style="fill: #f7941d"/>
   </g>
   <g id="patch_158">
    <path d="M 178.857354 192.24 
L 180.552 192.24 
L 180.552 192.24 
L 178.857354 192.24 
z
" clip-path="url(#p42a3ed783c)" style="fill: #f7941d"/>
   </g>
   <g id="patch_159">
    <path d="M 180.552 192.24 
L 182.246646 192.24 
L 182.246646 192.24 
L 180.552 192.24 
z
" clip-path="url(#p42a3ed783c)" style="fill: #f7941d"/>
   </g>
   <g id="patch_160">
    <path d="M 182.246646 192.24 
L 183.941292 192.24 
L 183.941292 175.608 
L 182.246646 175.608 
z
" clip-path="url(#p42a3ed783c)" style="fill: #f7941d"/>
   </g>
   <g id="patch_161">
    <path d="M 183.941292 192.24 
L 185.635937 192.24 
L 185.635937 175.608 
L 183.941292 175.608 
z
" clip-path="url(#p42a3ed783c)" style="fill: #f7941d"/>
   </g>
   <g id="patch_162">
    <path d="M 185.635937 192.24 
L 187.330583 192.24 
L 187.330583 158.976 
L 185.635937 158.976 
z
" clip-path="url(#p42a3ed783c)" style="fill: #f7941d"/>
   </g>
   <g id="matplotlib.axis_1">
    <g id="xtick_1">
     <g id="line2d_1">
      <defs>
       <path id="m593e3d51b8" d="M 0 0 
L 0 3.5 
" style="stroke: #000000; stroke-width: 0.8"/>
      </defs>
      <g>
       <use xlink:href="#m593e3d51b8" x="27" y="192.24" style="stroke: #000000; stroke-width: 0.8"/>
      </g>
     </g>
     <g id="text_1">
      <!-- −0.5 -->
      <g transform="translate(5.145469 212.917188) scale(0.18 -0.18)">
       <defs>
        <path id="DejaVuSans-2212" d="M 678 2272 
L 4684 2272 
L 4684 1741 
L 678 1741 
L 678 2272 
z
" transform="scale(0.015625)"/>
        <path id="DejaVuSans-30" d="M 2034 4250 
Q 1547 4250 1301 3770 
Q 1056 3291 1056 2328 
Q 1056 1369 1301 889 
Q 1547 409 2034 409 
Q 2525 409 2770 889 
Q 3016 1369 3016 2328 
Q 3016 3291 2770 3770 
Q 2525 4250 2034 4250 
z
M 2034 4750 
Q 2819 4750 3233 4129 
Q 3647 3509 3647 2328 
Q 3647 1150 3233 529 
Q 2819 -91 2034 -91 
Q 1250 -91 836 529 
Q 422 1150 422 2328 
Q 422 3509 836 4129 
Q 1250 4750 2034 4750 
z
" transform="scale(0.015625)"/>
        <path id="DejaVuSans-2e" d="M 684 794 
L 1344 794 
L 1344 0 
L 684 0 
L 684 794 
z
" transform="scale(0.015625)"/>
        <path id="DejaVuSans-35" d="M 691 4666 
L 3169 4666 
L 3169 4134 
L 1269 4134 
L 1269 2991 
Q 1406 3038 1543 3061 
Q 1681 3084 1819 3084 
Q 2600 3084 3056 2656 
Q 3513 2228 3513 1497 
Q 3513 744 3044 326 
Q 2575 -91 1722 -91 
Q 1428 -91 1123 -41 
Q 819 9 494 109 
L 494 744 
Q 775 591 1075 516 
Q 1375 441 1709 441 
Q 2250 441 2565 725 
Q 2881 1009 2881 1497 
Q 2881 1984 2565 2268 
Q 2250 2553 1709 2553 
Q 1456 2553 1204 2497 
Q 953 2441 691 2322 
L 691 4666 
z
" transform="scale(0.015625)"/>
       </defs>
       <use xlink:href="#DejaVuSans-2212"/>
       <use xlink:href="#DejaVuSans-30" transform="translate(83.789062 0)"/>
       <use xlink:href="#DejaVuSans-2e" transform="translate(147.412109 0)"/>
       <use xlink:href="#DejaVuSans-35" transform="translate(179.199219 0)"/>
      </g>
     </g>
    </g>
    <g id="xtick_2">
     <g id="line2d_2">
      <g>
       <use xlink:href="#m593e3d51b8" x="82.8" y="192.24" style="stroke: #000000; stroke-width: 0.8"/>
      </g>
     </g>
     <g id="text_2">
      <!-- 0.0 -->
      <g transform="translate(68.487188 212.917188) scale(0.18 -0.18)">
       <use xlink:href="#DejaVuSans-30"/>
       <use xlink:href="#DejaVuSans-2e" transform="translate(63.623047 0)"/>
       <use xlink:href="#DejaVuSans-30" transform="translate(95.410156 0)"/>
      </g>
     </g>
    </g>
    <g id="xtick_3">
     <g id="line2d_3">
      <g>
       <use xlink:href="#m593e3d51b8" x="138.6" y="192.24" style="stroke: #000000; stroke-width: 0.8"/>
      </g>
     </g>
     <g id="text_3">
      <!-- 0.5 -->
      <g transform="translate(124.287187 212.917188) scale(0.18 -0.18)">
       <use xlink:href="#DejaVuSans-30"/>
       <use xlink:href="#DejaVuSans-2e" transform="translate(63.623047 0)"/>
       <use xlink:href="#DejaVuSans-35" transform="translate(95.410156 0)"/>
      </g>
     </g>
    </g>
    <g id="xtick_4">
     <g id="line2d_4">
      <g>
       <use xlink:href="#m593e3d51b8" x="194.4" y="192.24" style="stroke: #000000; stroke-width: 0.8"/>
      </g>
     </g>
     <g id="text_4">
      <!-- 1.0 -->
      <g transform="translate(180.087187 212.917188) scale(0.18 -0.18)">
       <defs>
        <path id="DejaVuSans-31" d="M 794 531 
L 1825 531 
L 1825 4091 
L 703 3866 
L 703 4441 
L 1819 4666 
L 2450 4666 
L 2450 531 
L 3481 531 
L 3481 0 
L 794 0 
L 794 531 
z
" transform="scale(0.015625)"/>
       </defs>
       <use xlink:href="#DejaVuSans-31"/>
       <use xlink:href="#DejaVuSans-2e" transform="translate(63.623047 0)"/>
       <use xlink:href="#DejaVuSans-30" transform="translate(95.410156 0)"/>
      </g>
     </g>
    </g>
    <g id="text_5">
     <!-- Selectivity -->
     <g transform="translate(58.534375 235.8575) scale(0.2 -0.2)">
      <defs>
       <path id="DejaVuSans-53" d="M 3425 4513 
L 3425 3897 
Q 3066 4069 2747 4153 
Q 2428 4238 2131 4238 
Q 1616 4238 1336 4038 
Q 1056 3838 1056 3469 
Q 1056 3159 1242 3001 
Q 1428 2844 1947 2747 
L 2328 2669 
Q 3034 2534 3370 2195 
Q 3706 1856 3706 1288 
Q 3706 609 3251 259 
Q 2797 -91 1919 -91 
Q 1588 -91 1214 -16 
Q 841 59 441 206 
L 441 856 
Q 825 641 1194 531 
Q 1563 422 1919 422 
Q 2459 422 2753 634 
Q 3047 847 3047 1241 
Q 3047 1584 2836 1778 
Q 2625 1972 2144 2069 
L 1759 2144 
Q 1053 2284 737 2584 
Q 422 2884 422 3419 
Q 422 4038 858 4394 
Q 1294 4750 2059 4750 
Q 2388 4750 2728 4690 
Q 3069 4631 3425 4513 
z
" transform="scale(0.015625)"/>
       <path id="DejaVuSans-65" d="M 3597 1894 
L 3597 1613 
L 953 1613 
Q 991 1019 1311 708 
Q 1631 397 2203 397 
Q 2534 397 2845 478 
Q 3156 559 3463 722 
L 3463 178 
Q 3153 47 2828 -22 
Q 2503 -91 2169 -91 
Q 1331 -91 842 396 
Q 353 884 353 1716 
Q 353 2575 817 3079 
Q 1281 3584 2069 3584 
Q 2775 3584 3186 3129 
Q 3597 2675 3597 1894 
z
M 3022 2063 
Q 3016 2534 2758 2815 
Q 2500 3097 2075 3097 
Q 1594 3097 1305 2825 
Q 1016 2553 972 2059 
L 3022 2063 
z
" transform="scale(0.015625)"/>
       <path id="DejaVuSans-6c" d="M 603 4863 
L 1178 4863 
L 1178 0 
L 603 0 
L 603 4863 
z
" transform="scale(0.015625)"/>
       <path id="DejaVuSans-63" d="M 3122 3366 
L 3122 2828 
Q 2878 2963 2633 3030 
Q 2388 3097 2138 3097 
Q 1578 3097 1268 2742 
Q 959 2388 959 1747 
Q 959 1106 1268 751 
Q 1578 397 2138 397 
Q 2388 397 2633 464 
Q 2878 531 3122 666 
L 3122 134 
Q 2881 22 2623 -34 
Q 2366 -91 2075 -91 
Q 1284 -91 818 406 
Q 353 903 353 1747 
Q 353 2603 823 3093 
Q 1294 3584 2113 3584 
Q 2378 3584 2631 3529 
Q 2884 3475 3122 3366 
z
" transform="scale(0.015625)"/>
       <path id="DejaVuSans-74" d="M 1172 4494 
L 1172 3500 
L 2356 3500 
L 2356 3053 
L 1172 3053 
L 1172 1153 
Q 1172 725 1289 603 
Q 1406 481 1766 481 
L 2356 481 
L 2356 0 
L 1766 0 
Q 1100 0 847 248 
Q 594 497 594 1153 
L 594 3053 
L 172 3053 
L 172 3500 
L 594 3500 
L 594 4494 
L 1172 4494 
z
" transform="scale(0.015625)"/>
       <path id="DejaVuSans-69" d="M 603 3500 
L 1178 3500 
L 1178 0 
L 603 0 
L 603 3500 
z
M 603 4863 
L 1178 4863 
L 1178 4134 
L 603 4134 
L 603 4863 
z
" transform="scale(0.015625)"/>
       <path id="DejaVuSans-76" d="M 191 3500 
L 800 3500 
L 1894 563 
L 2988 3500 
L 3597 3500 
L 2284 0 
L 1503 0 
L 191 3500 
z
" transform="scale(0.015625)"/>
       <path id="DejaVuSans-79" d="M 2059 -325 
Q 1816 -950 1584 -1140 
Q 1353 -1331 966 -1331 
L 506 -1331 
L 506 -850 
L 844 -850 
Q 1081 -850 1212 -737 
Q 1344 -625 1503 -206 
L 1606 56 
L 191 3500 
L 800 3500 
L 1894 763 
L 2988 3500 
L 3597 3500 
L 2059 -325 
z
" transform="scale(0.015625)"/>
      </defs>
      <use xlink:href="#DejaVuSans-53"/>
      <use xlink:href="#DejaVuSans-65" transform="translate(63.476562 0)"/>
      <use xlink:href="#DejaVuSans-6c" transform="translate(125 0)"/>
      <use xlink:href="#DejaVuSans-65" transform="translate(152.783203 0)"/>
      <use xlink:href="#DejaVuSans-63" transform="translate(214.306641 0)"/>
      <use xlink:href="#DejaVuSans-74" transform="translate(269.287109 0)"/>
      <use xlink:href="#DejaVuSans-69" transform="translate(308.496094 0)"/>
      <use xlink:href="#DejaVuSans-76" transform="translate(336.279297 0)"/>
      <use xlink:href="#DejaVuSans-69" transform="translate(395.458984 0)"/>
      <use xlink:href="#DejaVuSans-74" transform="translate(423.242188 0)"/>
      <use xlink:href="#DejaVuSans-79" transform="translate(462.451172 0)"/>
     </g>
    </g>
   </g>
   <g id="matplotlib.axis_2">
    <g id="text_6">
     <!-- Neuron Count -->
     <g transform="translate(18.840625 178.269062) rotate(-90) scale(0.2 -0.2)">
      <defs>
       <path id="DejaVuSans-4e" d="M 628 4666 
L 1478 4666 
L 3547 763 
L 3547 4666 
L 4159 4666 
L 4159 0 
L 3309 0 
L 1241 3903 
L 1241 0 
L 628 0 
L 628 4666 
z
" transform="scale(0.015625)"/>
       <path id="DejaVuSans-75" d="M 544 1381 
L 544 3500 
L 1119 3500 
L 1119 1403 
Q 1119 906 1312 657 
Q 1506 409 1894 409 
Q 2359 409 2629 706 
Q 2900 1003 2900 1516 
L 2900 3500 
L 3475 3500 
L 3475 0 
L 2900 0 
L 2900 538 
Q 2691 219 2414 64 
Q 2138 -91 1772 -91 
Q 1169 -91 856 284 
Q 544 659 544 1381 
z
M 1991 3584 
L 1991 3584 
z
" transform="scale(0.015625)"/>
       <path id="DejaVuSans-72" d="M 2631 2963 
Q 2534 3019 2420 3045 
Q 2306 3072 2169 3072 
Q 1681 3072 1420 2755 
Q 1159 2438 1159 1844 
L 1159 0 
L 581 0 
L 581 3500 
L 1159 3500 
L 1159 2956 
Q 1341 3275 1631 3429 
Q 1922 3584 2338 3584 
Q 2397 3584 2469 3576 
Q 2541 3569 2628 3553 
L 2631 2963 
z
" transform="scale(0.015625)"/>
       <path id="DejaVuSans-6f" d="M 1959 3097 
Q 1497 3097 1228 2736 
Q 959 2375 959 1747 
Q 959 1119 1226 758 
Q 1494 397 1959 397 
Q 2419 397 2687 759 
Q 2956 1122 2956 1747 
Q 2956 2369 2687 2733 
Q 2419 3097 1959 3097 
z
M 1959 3584 
Q 2709 3584 3137 3096 
Q 3566 2609 3566 1747 
Q 3566 888 3137 398 
Q 2709 -91 1959 -91 
Q 1206 -91 779 398 
Q 353 888 353 1747 
Q 353 2609 779 3096 
Q 1206 3584 1959 3584 
z
" transform="scale(0.015625)"/>
       <path id="DejaVuSans-6e" d="M 3513 2113 
L 3513 0 
L 2938 0 
L 2938 2094 
Q 2938 2591 2744 2837 
Q 2550 3084 2163 3084 
Q 1697 3084 1428 2787 
Q 1159 2491 1159 1978 
L 1159 0 
L 581 0 
L 581 3500 
L 1159 3500 
L 1159 2956 
Q 1366 3272 1645 3428 
Q 1925 3584 2291 3584 
Q 2894 3584 3203 3211 
Q 3513 2838 3513 2113 
z
" transform="scale(0.015625)"/>
       <path id="DejaVuSans-20" transform="scale(0.015625)"/>
       <path id="DejaVuSans-43" d="M 4122 4306 
L 4122 3641 
Q 3803 3938 3442 4084 
Q 3081 4231 2675 4231 
Q 1875 4231 1450 3742 
Q 1025 3253 1025 2328 
Q 1025 1406 1450 917 
Q 1875 428 2675 428 
Q 3081 428 3442 575 
Q 3803 722 4122 1019 
L 4122 359 
Q 3791 134 3420 21 
Q 3050 -91 2638 -91 
Q 1578 -91 968 557 
Q 359 1206 359 2328 
Q 359 3453 968 4101 
Q 1578 4750 2638 4750 
Q 3056 4750 3426 4639 
Q 3797 4528 4122 4306 
z
" transform="scale(0.015625)"/>
      </defs>
      <use xlink:href="#DejaVuSans-4e"/>
      <use xlink:href="#DejaVuSans-65" transform="translate(74.804688 0)"/>
      <use xlink:href="#DejaVuSans-75" transform="translate(136.328125 0)"/>
      <use xlink:href="#DejaVuSans-72" transform="translate(199.707031 0)"/>
      <use xlink:href="#DejaVuSans-6f" transform="translate(238.570312 0)"/>
      <use xlink:href="#DejaVuSans-6e" transform="translate(299.751953 0)"/>
      <use xlink:href="#DejaVuSans-20" transform="translate(363.130859 0)"/>
      <use xlink:href="#DejaVuSans-43" transform="translate(394.917969 0)"/>
      <use xlink:href="#DejaVuSans-6f" transform="translate(464.742188 0)"/>
      <use xlink:href="#DejaVuSans-75" transform="translate(525.923828 0)"/>
      <use xlink:href="#DejaVuSans-6e" transform="translate(589.302734 0)"/>
      <use xlink:href="#DejaVuSans-74" transform="translate(652.681641 0)"/>
     </g>
    </g>
   </g>
   <g id="patch_163">
    <path d="M 27 192.24 
L 27 25.92 
" style="fill: none; stroke: #000000; stroke-width: 0.8; stroke-linejoin: miter; stroke-linecap: square"/>
   </g>
   <g id="patch_164">
    <path d="M 27 192.24 
L 194.4 192.24 
" style="fill: none; stroke: #000000; stroke-width: 0.8; stroke-linejoin: miter; stroke-linecap: square"/>
   </g>
   <g id="legend_1">
    <g id="patch_165">
     <path d="M 2.68875 55.797187 
L 38.68875 55.797187 
L 38.68875 43.197187 
L 2.68875 43.197187 
z
" style="fill: #00a651; opacity: 0.5"/>
    </g>
    <g id="text_7">
     <!-- MTL-sensory -->
     <g transform="translate(53.08875 55.797187) scale(0.18 -0.18)">
      <defs>
       <path id="DejaVuSans-4d" d="M 628 4666 
L 1569 4666 
L 2759 1491 
L 3956 4666 
L 4897 4666 
L 4897 0 
L 4281 0 
L 4281 4097 
L 3078 897 
L 2444 897 
L 1241 4097 
L 1241 0 
L 628 0 
L 628 4666 
z
" transform="scale(0.015625)"/>
       <path id="DejaVuSans-54" d="M -19 4666 
L 3928 4666 
L 3928 4134 
L 2272 4134 
L 2272 0 
L 1638 0 
L 1638 4134 
L -19 4134 
L -19 4666 
z
" transform="scale(0.015625)"/>
       <path id="DejaVuSans-4c" d="M 628 4666 
L 1259 4666 
L 1259 531 
L 3531 531 
L 3531 0 
L 628 0 
L 628 4666 
z
" transform="scale(0.015625)"/>
       <path id="DejaVuSans-2d" d="M 313 2009 
L 1997 2009 
L 1997 1497 
L 313 1497 
L 313 2009 
z
" transform="scale(0.015625)"/>
       <path id="DejaVuSans-73" d="M 2834 3397 
L 2834 2853 
Q 2591 2978 2328 3040 
Q 2066 3103 1784 3103 
Q 1356 3103 1142 2972 
Q 928 2841 928 2578 
Q 928 2378 1081 2264 
Q 1234 2150 1697 2047 
L 1894 2003 
Q 2506 1872 2764 1633 
Q 3022 1394 3022 966 
Q 3022 478 2636 193 
Q 2250 -91 1575 -91 
Q 1294 -91 989 -36 
Q 684 19 347 128 
L 347 722 
Q 666 556 975 473 
Q 1284 391 1588 391 
Q 1994 391 2212 530 
Q 2431 669 2431 922 
Q 2431 1156 2273 1281 
Q 2116 1406 1581 1522 
L 1381 1569 
Q 847 1681 609 1914 
Q 372 2147 372 2553 
Q 372 3047 722 3315 
Q 1072 3584 1716 3584 
Q 2034 3584 2315 3537 
Q 2597 3491 2834 3397 
z
" transform="scale(0.015625)"/>
      </defs>
      <use xlink:href="#DejaVuSans-4d"/>
      <use xlink:href="#DejaVuSans-54" transform="translate(86.279297 0)"/>
      <use xlink:href="#DejaVuSans-4c" transform="translate(147.363281 0)"/>
      <use xlink:href="#DejaVuSans-2d" transform="translate(201.326172 0)"/>
      <use xlink:href="#DejaVuSans-73" transform="translate(237.410156 0)"/>
      <use xlink:href="#DejaVuSans-65" transform="translate(289.509766 0)"/>
      <use xlink:href="#DejaVuSans-6e" transform="translate(351.033203 0)"/>
      <use xlink:href="#DejaVuSans-73" transform="translate(414.412109 0)"/>
      <use xlink:href="#DejaVuSans-6f" transform="translate(466.511719 0)"/>
      <use xlink:href="#DejaVuSans-72" transform="translate(527.693359 0)"/>
      <use xlink:href="#DejaVuSans-79" transform="translate(568.806641 0)"/>
     </g>
    </g>
    <g id="patch_166">
     <path d="M 2.68875 82.217812 
L 38.68875 82.217812 
L 38.68875 69.617812 
L 2.68875 69.617812 
z
" style="fill: #f7941d"/>
    </g>
    <g id="text_8">
     <!-- MTL-semantic -->
     <g transform="translate(53.08875 82.217812) scale(0.18 -0.18)">
      <defs>
       <path id="DejaVuSans-6d" d="M 3328 2828 
Q 3544 3216 3844 3400 
Q 4144 3584 4550 3584 
Q 5097 3584 5394 3201 
Q 5691 2819 5691 2113 
L 5691 0 
L 5113 0 
L 5113 2094 
Q 5113 2597 4934 2840 
Q 4756 3084 4391 3084 
Q 3944 3084 3684 2787 
Q 3425 2491 3425 1978 
L 3425 0 
L 2847 0 
L 2847 2094 
Q 2847 2600 2669 2842 
Q 2491 3084 2119 3084 
Q 1678 3084 1418 2786 
Q 1159 2488 1159 1978 
L 1159 0 
L 581 0 
L 581 3500 
L 1159 3500 
L 1159 2956 
Q 1356 3278 1631 3431 
Q 1906 3584 2284 3584 
Q 2666 3584 2933 3390 
Q 3200 3197 3328 2828 
z
" transform="scale(0.015625)"/>
       <path id="DejaVuSans-61" d="M 2194 1759 
Q 1497 1759 1228 1600 
Q 959 1441 959 1056 
Q 959 750 1161 570 
Q 1363 391 1709 391 
Q 2188 391 2477 730 
Q 2766 1069 2766 1631 
L 2766 1759 
L 2194 1759 
z
M 3341 1997 
L 3341 0 
L 2766 0 
L 2766 531 
Q 2569 213 2275 61 
Q 1981 -91 1556 -91 
Q 1019 -91 701 211 
Q 384 513 384 1019 
Q 384 1609 779 1909 
Q 1175 2209 1959 2209 
L 2766 2209 
L 2766 2266 
Q 2766 2663 2505 2880 
Q 2244 3097 1772 3097 
Q 1472 3097 1187 3025 
Q 903 2953 641 2809 
L 641 3341 
Q 956 3463 1253 3523 
Q 1550 3584 1831 3584 
Q 2591 3584 2966 3190 
Q 3341 2797 3341 1997 
z
" transform="scale(0.015625)"/>
      </defs>
      <use xlink:href="#DejaVuSans-4d"/>
      <use xlink:href="#DejaVuSans-54" transform="translate(86.279297 0)"/>
      <use xlink:href="#DejaVuSans-4c" transform="translate(147.363281 0)"/>
      <use xlink:href="#DejaVuSans-2d" transform="translate(201.326172 0)"/>
      <use xlink:href="#DejaVuSans-73" transform="translate(237.410156 0)"/>
      <use xlink:href="#DejaVuSans-65" transform="translate(289.509766 0)"/>
      <use xlink:href="#DejaVuSans-6d" transform="translate(351.033203 0)"/>
      <use xlink:href="#DejaVuSans-61" transform="translate(448.445312 0)"/>
      <use xlink:href="#DejaVuSans-6e" transform="translate(509.724609 0)"/>
      <use xlink:href="#DejaVuSans-74" transform="translate(573.103516 0)"/>
      <use xlink:href="#DejaVuSans-69" transform="translate(612.3125 0)"/>
      <use xlink:href="#DejaVuSans-63" transform="translate(640.095703 0)"/>
     </g>
    </g>
   </g>
  </g>
 </g>
 <defs>
  <clipPath id="p42a3ed783c">
   <rect x="27" y="25.92" width="167.4" height="166.32"/>
  </clipPath>
 </defs>
</svg>
