<?xml version="1.0" encoding="utf-8" standalone="no"?>
<!DOCTYPE svg PUBLIC "-//W3C//DTD SVG 1.1//EN"
  "http://www.w3.org/Graphics/SVG/1.1/DTD/svg11.dtd">
<svg xmlns:xlink="http://www.w3.org/1999/xlink" width="216pt" height="216pt" viewBox="0 0 216 216" xmlns="http://www.w3.org/2000/svg" version="1.1">
 <metadata>
  <rdf:RDF xmlns:dc="http://purl.org/dc/elements/1.1/" xmlns:cc="http://creativecommons.org/ns#" xmlns:rdf="http://www.w3.org/1999/02/22-rdf-syntax-ns#">
   <cc:Work>
    <dc:type rdf:resource="http://purl.org/dc/dcmitype/StillImage"/>
    <dc:date>2025-08-28T08:23:47.705822</dc:date>
    <dc:format>image/svg+xml</dc:format>
    <dc:creator>
     <cc:Agent>
      <dc:title>Matplotlib v3.10.1, https://matplotlib.org/</dc:title>
     </cc:Agent>
    </dc:creator>
   </cc:Work>
  </rdf:RDF>
 </metadata>
 <defs>
  <style type="text/css">*{stroke-linejoin: round; stroke-linecap: butt}</style>
 </defs>
 <g id="figure_1">
  <g id="patch_1">
   <path d="M 0 216 
L 216 216 
L 216 0 
L 0 0 
L 0 216 
z
" style="fill: none"/>
  </g>
  <g id="axes_1">
   <g id="patch_2">
    <path d="M 27 192.24 
L 194.4 192.24 
L 194.4 25.92 
L 27 25.92 
L 27 192.24 
z
" style="fill: none"/>
   </g>
   <g id="patch_3">
    <path d="M 45.247819 192.24 
L 46.919564 192.24 
L 46.919564 182.2608 
L 45.247819 182.2608 
z
" clip-path="url(#p1428a87812)" style="fill: #00a651; opacity: 0.5"/>
   </g>
   <g id="patch_4">
    <path d="M 46.919564 192.24 
L 48.591313 192.24 
L 48.591313 168.9552 
L 46.919564 168.9552 
z
" clip-path="url(#p1428a87812)" style="fill: #00a651; opacity: 0.5"/>
   </g>
   <g id="patch_5">
    <path d="M 48.591313 192.24 
L 50.263059 192.24 
L 50.263059 162.3024 
L 48.591313 162.3024 
z
" clip-path="url(#p1428a87812)" style="fill: #00a651; opacity: 0.5"/>
   </g>
   <g id="patch_6">
    <path d="M 50.263059 192.24 
L 51.934808 192.24 
L 51.934808 132.3648 
L 50.263059 132.3648 
z
" clip-path="url(#p1428a87812)" style="fill: #00a651; opacity: 0.5"/>
   </g>
   <g id="patch_7">
    <path d="M 51.934808 192.24 
L 53.606554 192.24 
L 53.606554 55.8576 
L 51.934808 55.8576 
z
" clip-path="url(#p1428a87812)" style="fill: #00a651; opacity: 0.5"/>
   </g>
   <g id="patch_8">
    <path d="M 53.606554 192.24 
L 55.278302 192.24 
L 55.278302 82.4688 
L 53.606554 82.4688 
z
" clip-path="url(#p1428a87812)" style="fill: #00a651; opacity: 0.5"/>
   </g>
   <g id="patch_9">
    <path d="M 55.278302 192.24 
L 56.950049 192.24 
L 56.950049 82.4688 
L 55.278302 82.4688 
z
" clip-path="url(#p1428a87812)" style="fill: #00a651; opacity: 0.5"/>
   </g>
   <g id="patch_10">
    <path d="M 56.950049 192.24 
L 58.621797 192.24 
L 58.621797 42.552 
L 56.950049 42.552 
z
" clip-path="url(#p1428a87812)" style="fill: #00a651; opacity: 0.5"/>
   </g>
   <g id="patch_11">
    <path d="M 58.621797 192.24 
L 60.293544 192.24 
L 60.293544 32.5728 
L 58.621797 32.5728 
z
" clip-path="url(#p1428a87812)" style="fill: #00a651; opacity: 0.5"/>
   </g>
   <g id="patch_12">
    <path d="M 60.293544 192.24 
L 61.965292 192.24 
L 61.965292 52.5312 
L 60.293544 52.5312 
z
" clip-path="url(#p1428a87812)" style="fill: #00a651; opacity: 0.5"/>
   </g>
   <g id="patch_13">
    <path d="M 61.965292 192.24 
L 63.637039 192.24 
L 63.637039 59.184 
L 61.965292 59.184 
z
" clip-path="url(#p1428a87812)" style="fill: #00a651; opacity: 0.5"/>
   </g>
   <g id="patch_14">
    <path d="M 63.637039 192.24 
L 65.308785 192.24 
L 65.308785 79.1424 
L 63.637039 79.1424 
z
" clip-path="url(#p1428a87812)" style="fill: #00a651; opacity: 0.5"/>
   </g>
   <g id="patch_15">
    <path d="M 65.308785 192.24 
L 66.980533 192.24 
L 66.980533 82.4688 
L 65.308785 82.4688 
z
" clip-path="url(#p1428a87812)" style="fill: #00a651; opacity: 0.5"/>
   </g>
   <g id="patch_16">
    <path d="M 66.980533 192.24 
L 68.65228 192.24 
L 68.65228 69.1632 
L 66.980533 69.1632 
z
" clip-path="url(#p1428a87812)" style="fill: #00a651; opacity: 0.5"/>
   </g>
   <g id="patch_17">
    <path d="M 68.65228 192.24 
L 70.324027 192.24 
L 70.324027 92.448 
L 68.65228 92.448 
z
" clip-path="url(#p1428a87812)" style="fill: #00a651; opacity: 0.5"/>
   </g>
   <g id="patch_18">
    <path d="M 70.324027 192.24 
L 71.995775 192.24 
L 71.995775 119.0592 
L 70.324027 119.0592 
z
" clip-path="url(#p1428a87812)" style="fill: #00a651; opacity: 0.5"/>
   </g>
   <g id="patch_19">
    <path d="M 71.995775 192.24 
L 73.667521 192.24 
L 73.667521 119.0592 
L 71.995775 119.0592 
z
" clip-path="url(#p1428a87812)" style="fill: #00a651; opacity: 0.5"/>
   </g>
   <g id="patch_20">
    <path d="M 73.667521 192.24 
L 75.33927 192.24 
L 75.33927 102.4272 
L 73.667521 102.4272 
z
" clip-path="url(#p1428a87812)" style="fill: #00a651; opacity: 0.5"/>
   </g>
   <g id="patch_21">
    <path d="M 75.33927 192.24 
L 77.011016 192.24 
L 77.011016 109.08 
L 75.33927 109.08 
z
" clip-path="url(#p1428a87812)" style="fill: #00a651; opacity: 0.5"/>
   </g>
   <g id="patch_22">
    <path d="M 77.011016 192.24 
L 78.682765 192.24 
L 78.682765 92.448 
L 77.011016 92.448 
z
" clip-path="url(#p1428a87812)" style="fill: #00a651; opacity: 0.5"/>
   </g>
   <g id="patch_23">
    <path d="M 78.682765 192.24 
L 80.354511 192.24 
L 80.354511 145.6704 
L 78.682765 145.6704 
z
" clip-path="url(#p1428a87812)" style="fill: #00a651; opacity: 0.5"/>
   </g>
   <g id="patch_24">
    <path d="M 80.354511 192.24 
L 82.02626 192.24 
L 82.02626 129.0384 
L 80.354511 129.0384 
z
" clip-path="url(#p1428a87812)" style="fill: #00a651; opacity: 0.5"/>
   </g>
   <g id="patch_25">
    <path d="M 82.02626 192.24 
L 83.698006 192.24 
L 83.698006 135.6912 
L 82.02626 135.6912 
z
" clip-path="url(#p1428a87812)" style="fill: #00a651; opacity: 0.5"/>
   </g>
   <g id="patch_26">
    <path d="M 83.698006 192.24 
L 85.369752 192.24 
L 85.369752 125.712 
L 83.698006 125.712 
z
" clip-path="url(#p1428a87812)" style="fill: #00a651; opacity: 0.5"/>
   </g>
   <g id="patch_27">
    <path d="M 85.369752 192.24 
L 87.041501 192.24 
L 87.041501 142.344 
L 85.369752 142.344 
z
" clip-path="url(#p1428a87812)" style="fill: #00a651; opacity: 0.5"/>
   </g>
   <g id="patch_28">
    <path d="M 87.041501 192.24 
L 88.713246 192.24 
L 88.713246 139.0176 
L 87.041501 139.0176 
z
" clip-path="url(#p1428a87812)" style="fill: #00a651; opacity: 0.5"/>
   </g>
   <g id="patch_29">
    <path d="M 88.713246 192.24 
L 90.384996 192.24 
L 90.384996 155.6496 
L 88.713246 155.6496 
z
" clip-path="url(#p1428a87812)" style="fill: #00a651; opacity: 0.5"/>
   </g>
   <g id="patch_30">
    <path d="M 90.384996 192.24 
L 92.056741 192.24 
L 92.056741 145.6704 
L 90.384996 145.6704 
z
" clip-path="url(#p1428a87812)" style="fill: #00a651; opacity: 0.5"/>
   </g>
   <g id="patch_31">
    <path d="M 92.056741 192.24 
L 93.728491 192.24 
L 93.728491 152.3232 
L 92.056741 152.3232 
z
" clip-path="url(#p1428a87812)" style="fill: #00a651; opacity: 0.5"/>
   </g>
   <g id="patch_32">
    <path d="M 93.728491 192.24 
L 95.400236 192.24 
L 95.400236 148.9968 
L 93.728491 148.9968 
z
" clip-path="url(#p1428a87812)" style="fill: #00a651; opacity: 0.5"/>
   </g>
   <g id="patch_33">
    <path d="M 95.400236 192.24 
L 97.071986 192.24 
L 97.071986 165.6288 
L 95.400236 165.6288 
z
" clip-path="url(#p1428a87812)" style="fill: #00a651; opacity: 0.5"/>
   </g>
   <g id="patch_34">
    <path d="M 97.071986 192.24 
L 98.743731 192.24 
L 98.743731 158.976 
L 97.071986 158.976 
z
" clip-path="url(#p1428a87812)" style="fill: #00a651; opacity: 0.5"/>
   </g>
   <g id="patch_35">
    <path d="M 98.743731 192.24 
L 100.415477 192.24 
L 100.415477 162.3024 
L 98.743731 162.3024 
z
" clip-path="url(#p1428a87812)" style="fill: #00a651; opacity: 0.5"/>
   </g>
   <g id="patch_36">
    <path d="M 100.415477 192.24 
L 102.087223 192.24 
L 102.087223 148.9968 
L 100.415477 148.9968 
z
" clip-path="url(#p1428a87812)" style="fill: #00a651; opacity: 0.5"/>
   </g>
   <g id="patch_37">
    <path d="M 102.087223 192.24 
L 103.758972 192.24 
L 103.758972 155.6496 
L 102.087223 155.6496 
z
" clip-path="url(#p1428a87812)" style="fill: #00a651; opacity: 0.5"/>
   </g>
   <g id="patch_38">
    <path d="M 103.758972 192.24 
L 105.430721 192.24 
L 105.430721 148.9968 
L 103.758972 148.9968 
z
" clip-path="url(#p1428a87812)" style="fill: #00a651; opacity: 0.5"/>
   </g>
   <g id="patch_39">
    <path d="M 105.430721 192.24 
L 107.10247 192.24 
L 107.10247 129.0384 
L 105.430721 129.0384 
z
" clip-path="url(#p1428a87812)" style="fill: #00a651; opacity: 0.5"/>
   </g>
   <g id="patch_40">
    <path d="M 107.10247 192.24 
L 108.774213 192.24 
L 108.774213 178.9344 
L 107.10247 178.9344 
z
" clip-path="url(#p1428a87812)" style="fill: #00a651; opacity: 0.5"/>
   </g>
   <g id="patch_41">
    <path d="M 108.774213 192.24 
L 110.445962 192.24 
L 110.445962 182.2608 
L 108.774213 182.2608 
z
" clip-path="url(#p1428a87812)" style="fill: #00a651; opacity: 0.5"/>
   </g>
   <g id="patch_42">
    <path d="M 110.445962 192.24 
L 112.117711 192.24 
L 112.117711 162.3024 
L 110.445962 162.3024 
z
" clip-path="url(#p1428a87812)" style="fill: #00a651; opacity: 0.5"/>
   </g>
   <g id="patch_43">
    <path d="M 112.117711 192.24 
L 113.789454 192.24 
L 113.789454 172.2816 
L 112.117711 172.2816 
z
" clip-path="url(#p1428a87812)" style="fill: #00a651; opacity: 0.5"/>
   </g>
   <g id="patch_44">
    <path d="M 113.789454 192.24 
L 115.461203 192.24 
L 115.461203 158.976 
L 113.789454 158.976 
z
" clip-path="url(#p1428a87812)" style="fill: #00a651; opacity: 0.5"/>
   </g>
   <g id="patch_45">
    <path d="M 115.461203 192.24 
L 117.132952 192.24 
L 117.132952 152.3232 
L 115.461203 152.3232 
z
" clip-path="url(#p1428a87812)" style="fill: #00a651; opacity: 0.5"/>
   </g>
   <g id="patch_46">
    <path d="M 117.132952 192.24 
L 118.804701 192.24 
L 118.804701 165.6288 
L 117.132952 165.6288 
z
" clip-path="url(#p1428a87812)" style="fill: #00a651; opacity: 0.5"/>
   </g>
   <g id="patch_47">
    <path d="M 118.804701 192.24 
L 120.476444 192.24 
L 120.476444 158.976 
L 118.804701 158.976 
z
" clip-path="url(#p1428a87812)" style="fill: #00a651; opacity: 0.5"/>
   </g>
   <g id="patch_48">
    <path d="M 120.476444 192.24 
L 122.148193 192.24 
L 122.148193 168.9552 
L 120.476444 168.9552 
z
" clip-path="url(#p1428a87812)" style="fill: #00a651; opacity: 0.5"/>
   </g>
   <g id="patch_49">
    <path d="M 122.148193 192.24 
L 123.819942 192.24 
L 123.819942 165.6288 
L 122.148193 165.6288 
z
" clip-path="url(#p1428a87812)" style="fill: #00a651; opacity: 0.5"/>
   </g>
   <g id="patch_50">
    <path d="M 123.819942 192.24 
L 125.491685 192.24 
L 125.491685 175.608 
L 123.819942 175.608 
z
" clip-path="url(#p1428a87812)" style="fill: #00a651; opacity: 0.5"/>
   </g>
   <g id="patch_51">
    <path d="M 125.491685 192.24 
L 127.163434 192.24 
L 127.163434 165.6288 
L 125.491685 165.6288 
z
" clip-path="url(#p1428a87812)" style="fill: #00a651; opacity: 0.5"/>
   </g>
   <g id="patch_52">
    <path d="M 127.163434 192.24 
L 128.835183 192.24 
L 128.835183 165.6288 
L 127.163434 165.6288 
z
" clip-path="url(#p1428a87812)" style="fill: #00a651; opacity: 0.5"/>
   </g>
   <g id="patch_53">
    <path d="M 128.835183 192.24 
L 130.506932 192.24 
L 130.506932 162.3024 
L 128.835183 162.3024 
z
" clip-path="url(#p1428a87812)" style="fill: #00a651; opacity: 0.5"/>
   </g>
   <g id="patch_54">
    <path d="M 130.506932 192.24 
L 132.178674 192.24 
L 132.178674 162.3024 
L 130.506932 162.3024 
z
" clip-path="url(#p1428a87812)" style="fill: #00a651; opacity: 0.5"/>
   </g>
   <g id="patch_55">
    <path d="M 132.178674 192.24 
L 133.850424 192.24 
L 133.850424 168.9552 
L 132.178674 168.9552 
z
" clip-path="url(#p1428a87812)" style="fill: #00a651; opacity: 0.5"/>
   </g>
   <g id="patch_56">
    <path d="M 133.850424 192.24 
L 135.522173 192.24 
L 135.522173 172.2816 
L 133.850424 172.2816 
z
" clip-path="url(#p1428a87812)" style="fill: #00a651; opacity: 0.5"/>
   </g>
   <g id="patch_57">
    <path d="M 135.522173 192.24 
L 137.193922 192.24 
L 137.193922 188.9136 
L 135.522173 188.9136 
z
" clip-path="url(#p1428a87812)" style="fill: #00a651; opacity: 0.5"/>
   </g>
   <g id="patch_58">
    <path d="M 137.193922 192.24 
L 138.865664 192.24 
L 138.865664 175.608 
L 137.193922 175.608 
z
" clip-path="url(#p1428a87812)" style="fill: #00a651; opacity: 0.5"/>
   </g>
   <g id="patch_59">
    <path d="M 138.865664 192.24 
L 140.537414 192.24 
L 140.537414 178.9344 
L 138.865664 178.9344 
z
" clip-path="url(#p1428a87812)" style="fill: #00a651; opacity: 0.5"/>
   </g>
   <g id="patch_60">
    <path d="M 140.537414 192.24 
L 142.209163 192.24 
L 142.209163 175.608 
L 140.537414 175.608 
z
" clip-path="url(#p1428a87812)" style="fill: #00a651; opacity: 0.5"/>
   </g>
   <g id="patch_61">
    <path d="M 142.209163 192.24 
L 143.880905 192.24 
L 143.880905 175.608 
L 142.209163 175.608 
z
" clip-path="url(#p1428a87812)" style="fill: #00a651; opacity: 0.5"/>
   </g>
   <g id="patch_62">
    <path d="M 143.880905 192.24 
L 145.552654 192.24 
L 145.552654 182.2608 
L 143.880905 182.2608 
z
" clip-path="url(#p1428a87812)" style="fill: #00a651; opacity: 0.5"/>
   </g>
   <g id="patch_63">
    <path d="M 145.552654 192.24 
L 147.224403 192.24 
L 147.224403 178.9344 
L 145.552654 178.9344 
z
" clip-path="url(#p1428a87812)" style="fill: #00a651; opacity: 0.5"/>
   </g>
   <g id="patch_64">
    <path d="M 147.224403 192.24 
L 148.896153 192.24 
L 148.896153 182.2608 
L 147.224403 182.2608 
z
" clip-path="url(#p1428a87812)" style="fill: #00a651; opacity: 0.5"/>
   </g>
   <g id="patch_65">
    <path d="M 148.896153 192.24 
L 150.567895 192.24 
L 150.567895 178.9344 
L 148.896153 178.9344 
z
" clip-path="url(#p1428a87812)" style="fill: #00a651; opacity: 0.5"/>
   </g>
   <g id="patch_66">
    <path d="M 150.567895 192.24 
L 152.239644 192.24 
L 152.239644 175.608 
L 150.567895 175.608 
z
" clip-path="url(#p1428a87812)" style="fill: #00a651; opacity: 0.5"/>
   </g>
   <g id="patch_67">
    <path d="M 152.239644 192.24 
L 153.911393 192.24 
L 153.911393 185.5872 
L 152.239644 185.5872 
z
" clip-path="url(#p1428a87812)" style="fill: #00a651; opacity: 0.5"/>
   </g>
   <g id="patch_68">
    <path d="M 153.911393 192.24 
L 155.583136 192.24 
L 155.583136 185.5872 
L 153.911393 185.5872 
z
" clip-path="url(#p1428a87812)" style="fill: #00a651; opacity: 0.5"/>
   </g>
   <g id="patch_69">
    <path d="M 155.583136 192.24 
L 157.254885 192.24 
L 157.254885 188.9136 
L 155.583136 188.9136 
z
" clip-path="url(#p1428a87812)" style="fill: #00a651; opacity: 0.5"/>
   </g>
   <g id="patch_70">
    <path d="M 157.254885 192.24 
L 158.926628 192.24 
L 158.926628 192.24 
L 157.254885 192.24 
z
" clip-path="url(#p1428a87812)" style="fill: #00a651; opacity: 0.5"/>
   </g>
   <g id="patch_71">
    <path d="M 158.926628 192.24 
L 160.598383 192.24 
L 160.598383 185.5872 
L 158.926628 185.5872 
z
" clip-path="url(#p1428a87812)" style="fill: #00a651; opacity: 0.5"/>
   </g>
   <g id="patch_72">
    <path d="M 160.598383 192.24 
L 162.270126 192.24 
L 162.270126 192.24 
L 160.598383 192.24 
z
" clip-path="url(#p1428a87812)" style="fill: #00a651; opacity: 0.5"/>
   </g>
   <g id="patch_73">
    <path d="M 162.270126 192.24 
L 163.941882 192.24 
L 163.941882 182.2608 
L 162.270126 182.2608 
z
" clip-path="url(#p1428a87812)" style="fill: #00a651; opacity: 0.5"/>
   </g>
   <g id="patch_74">
    <path d="M 163.941882 192.24 
L 165.613624 192.24 
L 165.613624 192.24 
L 163.941882 192.24 
z
" clip-path="url(#p1428a87812)" style="fill: #00a651; opacity: 0.5"/>
   </g>
   <g id="patch_75">
    <path d="M 165.613624 192.24 
L 167.285367 192.24 
L 167.285367 192.24 
L 165.613624 192.24 
z
" clip-path="url(#p1428a87812)" style="fill: #00a651; opacity: 0.5"/>
   </g>
   <g id="patch_76">
    <path d="M 167.285367 192.24 
L 168.957122 192.24 
L 168.957122 188.9136 
L 167.285367 188.9136 
z
" clip-path="url(#p1428a87812)" style="fill: #00a651; opacity: 0.5"/>
   </g>
   <g id="patch_77">
    <path d="M 168.957122 192.24 
L 170.628865 192.24 
L 170.628865 188.9136 
L 168.957122 188.9136 
z
" clip-path="url(#p1428a87812)" style="fill: #00a651; opacity: 0.5"/>
   </g>
   <g id="patch_78">
    <path d="M 170.628865 192.24 
L 172.300607 192.24 
L 172.300607 185.5872 
L 170.628865 185.5872 
z
" clip-path="url(#p1428a87812)" style="fill: #00a651; opacity: 0.5"/>
   </g>
   <g id="patch_79">
    <path d="M 172.300607 192.24 
L 173.972363 192.24 
L 173.972363 185.5872 
L 172.300607 185.5872 
z
" clip-path="url(#p1428a87812)" style="fill: #00a651; opacity: 0.5"/>
   </g>
   <g id="patch_80">
    <path d="M 173.972363 192.24 
L 175.644106 192.24 
L 175.644106 188.9136 
L 173.972363 188.9136 
z
" clip-path="url(#p1428a87812)" style="fill: #00a651; opacity: 0.5"/>
   </g>
   <g id="patch_81">
    <path d="M 175.644106 192.24 
L 177.315848 192.24 
L 177.315848 192.24 
L 175.644106 192.24 
z
" clip-path="url(#p1428a87812)" style="fill: #00a651; opacity: 0.5"/>
   </g>
   <g id="patch_82">
    <path d="M 177.315848 192.24 
L 178.987604 192.24 
L 178.987604 185.5872 
L 177.315848 185.5872 
z
" clip-path="url(#p1428a87812)" style="fill: #00a651; opacity: 0.5"/>
   </g>
   <g id="patch_83">
    <path d="M 52.552054 192.24 
L 54.236371 192.24 
L 54.236371 109.08 
L 52.552054 109.08 
z
" clip-path="url(#p1428a87812)" style="fill: #f7941d"/>
   </g>
   <g id="patch_84">
    <path d="M 54.236371 192.24 
L 55.92069 192.24 
L 55.92069 125.712 
L 54.236371 125.712 
z
" clip-path="url(#p1428a87812)" style="fill: #f7941d"/>
   </g>
   <g id="patch_85">
    <path d="M 55.92069 192.24 
L 57.605009 192.24 
L 57.605009 55.8576 
L 55.92069 55.8576 
z
" clip-path="url(#p1428a87812)" style="fill: #f7941d"/>
   </g>
   <g id="patch_86">
    <path d="M 57.605009 192.24 
L 59.289326 192.24 
L 59.289326 89.1216 
L 57.605009 89.1216 
z
" clip-path="url(#p1428a87812)" style="fill: #f7941d"/>
   </g>
   <g id="patch_87">
    <path d="M 59.289326 192.24 
L 60.973645 192.24 
L 60.973645 115.7328 
L 59.289326 115.7328 
z
" clip-path="url(#p1428a87812)" style="fill: #f7941d"/>
   </g>
   <g id="patch_88">
    <path d="M 60.973645 192.24 
L 62.657964 192.24 
L 62.657964 92.448 
L 60.973645 92.448 
z
" clip-path="url(#p1428a87812)" style="fill: #f7941d"/>
   </g>
   <g id="patch_89">
    <path d="M 62.657964 192.24 
L 64.342281 192.24 
L 64.342281 132.3648 
L 62.657964 132.3648 
z
" clip-path="url(#p1428a87812)" style="fill: #f7941d"/>
   </g>
   <g id="patch_90">
    <path d="M 64.342281 192.24 
L 66.0266 192.24 
L 66.0266 69.1632 
L 64.342281 69.1632 
z
" clip-path="url(#p1428a87812)" style="fill: #f7941d"/>
   </g>
   <g id="patch_91">
    <path d="M 66.0266 192.24 
L 67.710919 192.24 
L 67.710919 59.184 
L 66.0266 59.184 
z
" clip-path="url(#p1428a87812)" style="fill: #f7941d"/>
   </g>
   <g id="patch_92">
    <path d="M 67.710919 192.24 
L 69.395236 192.24 
L 69.395236 92.448 
L 67.710919 92.448 
z
" clip-path="url(#p1428a87812)" style="fill: #f7941d"/>
   </g>
   <g id="patch_93">
    <path d="M 69.395236 192.24 
L 71.079555 192.24 
L 71.079555 92.448 
L 69.395236 92.448 
z
" clip-path="url(#p1428a87812)" style="fill: #f7941d"/>
   </g>
   <g id="patch_94">
    <path d="M 71.079555 192.24 
L 72.763873 192.24 
L 72.763873 92.448 
L 71.079555 92.448 
z
" clip-path="url(#p1428a87812)" style="fill: #f7941d"/>
   </g>
   <g id="patch_95">
    <path d="M 72.763873 192.24 
L 74.448191 192.24 
L 74.448191 192.24 
L 72.763873 192.24 
z
" clip-path="url(#p1428a87812)" style="fill: #f7941d"/>
   </g>
   <g id="patch_96">
    <path d="M 74.448191 192.24 
L 76.13251 192.24 
L 76.13251 192.24 
L 74.448191 192.24 
z
" clip-path="url(#p1428a87812)" style="fill: #f7941d"/>
   </g>
   <g id="patch_97">
    <path d="M 76.13251 192.24 
L 77.816827 192.24 
L 77.816827 158.976 
L 76.13251 158.976 
z
" clip-path="url(#p1428a87812)" style="fill: #f7941d"/>
   </g>
   <g id="patch_98">
    <path d="M 77.816827 192.24 
L 79.501146 192.24 
L 79.501146 192.24 
L 77.816827 192.24 
z
" clip-path="url(#p1428a87812)" style="fill: #f7941d"/>
   </g>
   <g id="patch_99">
    <path d="M 79.501146 192.24 
L 81.185463 192.24 
L 81.185463 -170.3376 
L 79.501146 -170.3376 
z
" clip-path="url(#p1428a87812)" style="fill: #f7941d"/>
   </g>
   <g id="patch_100">
    <path d="M 81.185463 192.24 
L 82.869783 192.24 
L 82.869783 -639.36 
L 81.185463 -639.36 
z
" clip-path="url(#p1428a87812)" style="fill: #f7941d"/>
   </g>
   <g id="patch_101">
    <path d="M 82.869783 192.24 
L 84.5541 192.24 
L 84.5541 148.9968 
L 82.869783 148.9968 
z
" clip-path="url(#p1428a87812)" style="fill: #f7941d"/>
   </g>
   <g id="patch_102">
    <path d="M 84.5541 192.24 
L 86.238418 192.24 
L 86.238418 89.1216 
L 84.5541 89.1216 
z
" clip-path="url(#p1428a87812)" style="fill: #f7941d"/>
   </g>
   <g id="patch_103">
    <path d="M 86.238418 192.24 
L 87.922738 192.24 
L 87.922738 52.5312 
L 86.238418 52.5312 
z
" clip-path="url(#p1428a87812)" style="fill: #f7941d"/>
   </g>
   <g id="patch_104">
    <path d="M 87.922738 192.24 
L 89.607055 192.24 
L 89.607055 125.712 
L 87.922738 125.712 
z
" clip-path="url(#p1428a87812)" style="fill: #f7941d"/>
   </g>
   <g id="patch_105">
    <path d="M 89.607055 192.24 
L 91.291373 192.24 
L 91.291373 178.9344 
L 89.607055 178.9344 
z
" clip-path="url(#p1428a87812)" style="fill: #f7941d"/>
   </g>
   <g id="patch_106">
    <path d="M 91.291373 192.24 
L 92.975693 192.24 
L 92.975693 188.9136 
L 91.291373 188.9136 
z
" clip-path="url(#p1428a87812)" style="fill: #f7941d"/>
   </g>
   <g id="patch_107">
    <path d="M 92.975693 192.24 
L 94.66001 192.24 
L 94.66001 192.24 
L 92.975693 192.24 
z
" clip-path="url(#p1428a87812)" style="fill: #f7941d"/>
   </g>
   <g id="patch_108">
    <path d="M 94.66001 192.24 
L 96.344327 192.24 
L 96.344327 192.24 
L 94.66001 192.24 
z
" clip-path="url(#p1428a87812)" style="fill: #f7941d"/>
   </g>
   <g id="patch_109">
    <path d="M 96.344327 192.24 
L 98.028645 192.24 
L 98.028645 175.608 
L 96.344327 175.608 
z
" clip-path="url(#p1428a87812)" style="fill: #f7941d"/>
   </g>
   <g id="patch_110">
    <path d="M 98.028645 192.24 
L 99.712965 192.24 
L 99.712965 185.5872 
L 98.028645 185.5872 
z
" clip-path="url(#p1428a87812)" style="fill: #f7941d"/>
   </g>
   <g id="patch_111">
    <path d="M 99.712965 192.24 
L 101.397282 192.24 
L 101.397282 168.9552 
L 99.712965 168.9552 
z
" clip-path="url(#p1428a87812)" style="fill: #f7941d"/>
   </g>
   <g id="patch_112">
    <path d="M 101.397282 192.24 
L 103.081599 192.24 
L 103.081599 188.9136 
L 101.397282 188.9136 
z
" clip-path="url(#p1428a87812)" style="fill: #f7941d"/>
   </g>
   <g id="patch_113">
    <path d="M 103.081599 192.24 
L 104.76592 192.24 
L 104.76592 182.2608 
L 103.081599 182.2608 
z
" clip-path="url(#p1428a87812)" style="fill: #f7941d"/>
   </g>
   <g id="patch_114">
    <path d="M 104.76592 192.24 
L 106.450237 192.24 
L 106.450237 185.5872 
L 104.76592 185.5872 
z
" clip-path="url(#p1428a87812)" style="fill: #f7941d"/>
   </g>
   <g id="patch_115">
    <path d="M 106.450237 192.24 
L 108.134554 192.24 
L 108.134554 175.608 
L 106.450237 175.608 
z
" clip-path="url(#p1428a87812)" style="fill: #f7941d"/>
   </g>
   <g id="patch_116">
    <path d="M 108.134554 192.24 
L 109.818872 192.24 
L 109.818872 192.24 
L 108.134554 192.24 
z
" clip-path="url(#p1428a87812)" style="fill: #f7941d"/>
   </g>
   <g id="patch_117">
    <path d="M 109.818872 192.24 
L 111.503189 192.24 
L 111.503189 192.24 
L 109.818872 192.24 
z
" clip-path="url(#p1428a87812)" style="fill: #f7941d"/>
   </g>
   <g id="patch_118">
    <path d="M 111.503189 192.24 
L 113.187513 192.24 
L 113.187513 192.24 
L 111.503189 192.24 
z
" clip-path="url(#p1428a87812)" style="fill: #f7941d"/>
   </g>
   <g id="patch_119">
    <path d="M 113.187513 192.24 
L 114.87183 192.24 
L 114.87183 192.24 
L 113.187513 192.24 
z
" clip-path="url(#p1428a87812)" style="fill: #f7941d"/>
   </g>
   <g id="patch_120">
    <path d="M 114.87183 192.24 
L 116.556147 192.24 
L 116.556147 192.24 
L 114.87183 192.24 
z
" clip-path="url(#p1428a87812)" style="fill: #f7941d"/>
   </g>
   <g id="patch_121">
    <path d="M 116.556147 192.24 
L 118.240464 192.24 
L 118.240464 192.24 
L 116.556147 192.24 
z
" clip-path="url(#p1428a87812)" style="fill: #f7941d"/>
   </g>
   <g id="patch_122">
    <path d="M 118.240464 192.24 
L 119.924781 192.24 
L 119.924781 192.24 
L 118.240464 192.24 
z
" clip-path="url(#p1428a87812)" style="fill: #f7941d"/>
   </g>
   <g id="patch_123">
    <path d="M 119.924781 192.24 
L 121.609098 192.24 
L 121.609098 192.24 
L 119.924781 192.24 
z
" clip-path="url(#p1428a87812)" style="fill: #f7941d"/>
   </g>
   <g id="patch_124">
    <path d="M 121.609098 192.24 
L 123.293422 192.24 
L 123.293422 192.24 
L 121.609098 192.24 
z
" clip-path="url(#p1428a87812)" style="fill: #f7941d"/>
   </g>
   <g id="patch_125">
    <path d="M 123.293422 192.24 
L 124.977739 192.24 
L 124.977739 175.608 
L 123.293422 175.608 
z
" clip-path="url(#p1428a87812)" style="fill: #f7941d"/>
   </g>
   <g id="patch_126">
    <path d="M 124.977739 192.24 
L 126.662057 192.24 
L 126.662057 178.9344 
L 124.977739 178.9344 
z
" clip-path="url(#p1428a87812)" style="fill: #f7941d"/>
   </g>
   <g id="patch_127">
    <path d="M 126.662057 192.24 
L 128.346374 192.24 
L 128.346374 172.2816 
L 126.662057 172.2816 
z
" clip-path="url(#p1428a87812)" style="fill: #f7941d"/>
   </g>
   <g id="patch_128">
    <path d="M 128.346374 192.24 
L 130.030691 192.24 
L 130.030691 192.24 
L 128.346374 192.24 
z
" clip-path="url(#p1428a87812)" style="fill: #f7941d"/>
   </g>
   <g id="patch_129">
    <path d="M 130.030691 192.24 
L 131.715008 192.24 
L 131.715008 192.24 
L 130.030691 192.24 
z
" clip-path="url(#p1428a87812)" style="fill: #f7941d"/>
   </g>
   <g id="patch_130">
    <path d="M 131.715008 192.24 
L 133.399332 192.24 
L 133.399332 192.24 
L 131.715008 192.24 
z
" clip-path="url(#p1428a87812)" style="fill: #f7941d"/>
   </g>
   <g id="patch_131">
    <path d="M 133.399332 192.24 
L 135.083649 192.24 
L 135.083649 188.9136 
L 133.399332 188.9136 
z
" clip-path="url(#p1428a87812)" style="fill: #f7941d"/>
   </g>
   <g id="patch_132">
    <path d="M 135.083649 192.24 
L 136.767966 192.24 
L 136.767966 155.6496 
L 135.083649 155.6496 
z
" clip-path="url(#p1428a87812)" style="fill: #f7941d"/>
   </g>
   <g id="patch_133">
    <path d="M 136.767966 192.24 
L 138.452284 192.24 
L 138.452284 165.6288 
L 136.767966 165.6288 
z
" clip-path="url(#p1428a87812)" style="fill: #f7941d"/>
   </g>
   <g id="patch_134">
    <path d="M 138.452284 192.24 
L 140.136601 192.24 
L 140.136601 192.24 
L 138.452284 192.24 
z
" clip-path="url(#p1428a87812)" style="fill: #f7941d"/>
   </g>
   <g id="patch_135">
    <path d="M 140.136601 192.24 
L 141.820918 192.24 
L 141.820918 192.24 
L 140.136601 192.24 
z
" clip-path="url(#p1428a87812)" style="fill: #f7941d"/>
   </g>
   <g id="patch_136">
    <path d="M 141.820918 192.24 
L 143.505235 192.24 
L 143.505235 192.24 
L 141.820918 192.24 
z
" clip-path="url(#p1428a87812)" style="fill: #f7941d"/>
   </g>
   <g id="patch_137">
    <path d="M 143.505235 192.24 
L 145.189559 192.24 
L 145.189559 192.24 
L 143.505235 192.24 
z
" clip-path="url(#p1428a87812)" style="fill: #f7941d"/>
   </g>
   <g id="patch_138">
    <path d="M 145.189559 192.24 
L 146.873876 192.24 
L 146.873876 192.24 
L 145.189559 192.24 
z
" clip-path="url(#p1428a87812)" style="fill: #f7941d"/>
   </g>
   <g id="patch_139">
    <path d="M 146.873876 192.24 
L 148.558193 192.24 
L 148.558193 192.24 
L 146.873876 192.24 
z
" clip-path="url(#p1428a87812)" style="fill: #f7941d"/>
   </g>
   <g id="patch_140">
    <path d="M 148.558193 192.24 
L 150.242511 192.24 
L 150.242511 185.5872 
L 148.558193 185.5872 
z
" clip-path="url(#p1428a87812)" style="fill: #f7941d"/>
   </g>
   <g id="patch_141">
    <path d="M 150.242511 192.24 
L 151.926828 192.24 
L 151.926828 165.6288 
L 150.242511 165.6288 
z
" clip-path="url(#p1428a87812)" style="fill: #f7941d"/>
   </g>
   <g id="patch_142">
    <path d="M 151.926828 192.24 
L 153.611145 192.24 
L 153.611145 175.608 
L 151.926828 175.608 
z
" clip-path="url(#p1428a87812)" style="fill: #f7941d"/>
   </g>
   <g id="patch_143">
    <path d="M 153.611145 192.24 
L 155.295469 192.24 
L 155.295469 192.24 
L 153.611145 192.24 
z
" clip-path="url(#p1428a87812)" style="fill: #f7941d"/>
   </g>
   <g id="patch_144">
    <path d="M 155.295469 192.24 
L 156.979786 192.24 
L 156.979786 192.24 
L 155.295469 192.24 
z
" clip-path="url(#p1428a87812)" style="fill: #f7941d"/>
   </g>
   <g id="patch_145">
    <path d="M 156.979786 192.24 
L 158.664103 192.24 
L 158.664103 192.24 
L 156.979786 192.24 
z
" clip-path="url(#p1428a87812)" style="fill: #f7941d"/>
   </g>
   <g id="patch_146">
    <path d="M 158.664103 192.24 
L 160.34842 192.24 
L 160.34842 175.608 
L 158.664103 175.608 
z
" clip-path="url(#p1428a87812)" style="fill: #f7941d"/>
   </g>
   <g id="patch_147">
    <path d="M 160.34842 192.24 
L 162.032737 192.24 
L 162.032737 175.608 
L 160.34842 175.608 
z
" clip-path="url(#p1428a87812)" style="fill: #f7941d"/>
   </g>
   <g id="patch_148">
    <path d="M 162.032737 192.24 
L 163.717055 192.24 
L 163.717055 192.24 
L 162.032737 192.24 
z
" clip-path="url(#p1428a87812)" style="fill: #f7941d"/>
   </g>
   <g id="patch_149">
    <path d="M 163.717055 192.24 
L 165.401372 192.24 
L 165.401372 192.24 
L 163.717055 192.24 
z
" clip-path="url(#p1428a87812)" style="fill: #f7941d"/>
   </g>
   <g id="patch_150">
    <path d="M 165.401372 192.24 
L 167.085689 192.24 
L 167.085689 192.24 
L 165.401372 192.24 
z
" clip-path="url(#p1428a87812)" style="fill: #f7941d"/>
   </g>
   <g id="patch_151">
    <path d="M 167.085689 192.24 
L 168.770006 192.24 
L 168.770006 192.24 
L 167.085689 192.24 
z
" clip-path="url(#p1428a87812)" style="fill: #f7941d"/>
   </g>
   <g id="patch_152">
    <path d="M 168.770006 192.24 
L 170.454323 192.24 
L 170.454323 192.24 
L 168.770006 192.24 
z
" clip-path="url(#p1428a87812)" style="fill: #f7941d"/>
   </g>
   <g id="patch_153">
    <path d="M 170.454323 192.24 
L 172.138654 192.24 
L 172.138654 175.608 
L 170.454323 175.608 
z
" clip-path="url(#p1428a87812)" style="fill: #f7941d"/>
   </g>
   <g id="patch_154">
    <path d="M 172.138654 192.24 
L 173.822971 192.24 
L 173.822971 182.2608 
L 172.138654 182.2608 
z
" clip-path="url(#p1428a87812)" style="fill: #f7941d"/>
   </g>
   <g id="patch_155">
    <path d="M 173.822971 192.24 
L 175.507288 192.24 
L 175.507288 185.5872 
L 173.822971 185.5872 
z
" clip-path="url(#p1428a87812)" style="fill: #f7941d"/>
   </g>
   <g id="patch_156">
    <path d="M 175.507288 192.24 
L 177.191605 192.24 
L 177.191605 192.24 
L 175.507288 192.24 
z
" clip-path="url(#p1428a87812)" style="fill: #f7941d"/>
   </g>
   <g id="patch_157">
    <path d="M 177.191605 192.24 
L 178.875923 192.24 
L 178.875923 175.608 
L 177.191605 175.608 
z
" clip-path="url(#p1428a87812)" style="fill: #f7941d"/>
   </g>
   <g id="patch_158">
    <path d="M 178.875923 192.24 
L 180.56024 192.24 
L 180.56024 192.24 
L 178.875923 192.24 
z
" clip-path="url(#p1428a87812)" style="fill: #f7941d"/>
   </g>
   <g id="patch_159">
    <path d="M 180.56024 192.24 
L 182.244557 192.24 
L 182.244557 192.24 
L 180.56024 192.24 
z
" clip-path="url(#p1428a87812)" style="fill: #f7941d"/>
   </g>
   <g id="patch_160">
    <path d="M 182.244557 192.24 
L 183.928874 192.24 
L 183.928874 192.24 
L 182.244557 192.24 
z
" clip-path="url(#p1428a87812)" style="fill: #f7941d"/>
   </g>
   <g id="patch_161">
    <path d="M 183.928874 192.24 
L 185.613191 192.24 
L 185.613191 175.608 
L 183.928874 175.608 
z
" clip-path="url(#p1428a87812)" style="fill: #f7941d"/>
   </g>
   <g id="patch_162">
    <path d="M 185.613191 192.24 
L 187.297515 192.24 
L 187.297515 158.976 
L 185.613191 158.976 
z
" clip-path="url(#p1428a87812)" style="fill: #f7941d"/>
   </g>
   <g id="matplotlib.axis_1">
    <g id="xtick_1">
     <g id="line2d_1">
      <defs>
       <path id="m14aa4b8e7d" d="M 0 0 
L 0 3.5 
" style="stroke: #000000; stroke-width: 0.8"/>
      </defs>
      <g>
       <use xlink:href="#m14aa4b8e7d" x="27" y="192.24" style="stroke: #000000; stroke-width: 0.8"/>
      </g>
     </g>
     <g id="text_1">
      <!-- −0.5 -->
      <g transform="translate(5.145469 212.917188) scale(0.18 -0.18)">
       <defs>
        <path id="DejaVuSans-2212" d="M 678 2272 
L 4684 2272 
L 4684 1741 
L 678 1741 
L 678 2272 
z
" transform="scale(0.015625)"/>
        <path id="DejaVuSans-30" d="M 2034 4250 
Q 1547 4250 1301 3770 
Q 1056 3291 1056 2328 
Q 1056 1369 1301 889 
Q 1547 409 2034 409 
Q 2525 409 2770 889 
Q 3016 1369 3016 2328 
Q 3016 3291 2770 3770 
Q 2525 4250 2034 4250 
z
M 2034 4750 
Q 2819 4750 3233 4129 
Q 3647 3509 3647 2328 
Q 3647 1150 3233 529 
Q 2819 -91 2034 -91 
Q 1250 -91 836 529 
Q 422 1150 422 2328 
Q 422 3509 836 4129 
Q 1250 4750 2034 4750 
z
" transform="scale(0.015625)"/>
        <path id="DejaVuSans-2e" d="M 684 794 
L 1344 794 
L 1344 0 
L 684 0 
L 684 794 
z
" transform="scale(0.015625)"/>
        <path id="DejaVuSans-35" d="M 691 4666 
L 3169 4666 
L 3169 4134 
L 1269 4134 
L 1269 2991 
Q 1406 3038 1543 3061 
Q 1681 3084 1819 3084 
Q 2600 3084 3056 2656 
Q 3513 2228 3513 1497 
Q 3513 744 3044 326 
Q 2575 -91 1722 -91 
Q 1428 -91 1123 -41 
Q 819 9 494 109 
L 494 744 
Q 775 591 1075 516 
Q 1375 441 1709 441 
Q 2250 441 2565 725 
Q 2881 1009 2881 1497 
Q 2881 1984 2565 2268 
Q 2250 2553 1709 2553 
Q 1456 2553 1204 2497 
Q 953 2441 691 2322 
L 691 4666 
z
" transform="scale(0.015625)"/>
       </defs>
       <use xlink:href="#DejaVuSans-2212"/>
       <use xlink:href="#DejaVuSans-30" transform="translate(83.789062 0)"/>
       <use xlink:href="#DejaVuSans-2e" transform="translate(147.412109 0)"/>
       <use xlink:href="#DejaVuSans-35" transform="translate(179.199219 0)"/>
      </g>
     </g>
    </g>
    <g id="xtick_2">
     <g id="line2d_2">
      <g>
       <use xlink:href="#m14aa4b8e7d" x="82.576399" y="192.24" style="stroke: #000000; stroke-width: 0.8"/>
      </g>
     </g>
     <g id="text_2">
      <!-- 0.0 -->
      <g transform="translate(68.263586 212.917188) scale(0.18 -0.18)">
       <use xlink:href="#DejaVuSans-30"/>
       <use xlink:href="#DejaVuSans-2e" transform="translate(63.623047 0)"/>
       <use xlink:href="#DejaVuSans-30" transform="translate(95.410156 0)"/>
      </g>
     </g>
    </g>
    <g id="xtick_3">
     <g id="line2d_3">
      <g>
       <use xlink:href="#m14aa4b8e7d" x="138.152797" y="192.24" style="stroke: #000000; stroke-width: 0.8"/>
      </g>
     </g>
     <g id="text_3">
      <!-- 0.5 -->
      <g transform="translate(123.839985 212.917188) scale(0.18 -0.18)">
       <use xlink:href="#DejaVuSans-30"/>
       <use xlink:href="#DejaVuSans-2e" transform="translate(63.623047 0)"/>
       <use xlink:href="#DejaVuSans-35" transform="translate(95.410156 0)"/>
      </g>
     </g>
    </g>
    <g id="xtick_4">
     <g id="line2d_4">
      <g>
       <use xlink:href="#m14aa4b8e7d" x="193.729196" y="192.24" style="stroke: #000000; stroke-width: 0.8"/>
      </g>
     </g>
     <g id="text_4">
      <!-- 1.0 -->
      <g transform="translate(179.416383 212.917188) scale(0.18 -0.18)">
       <defs>
        <path id="DejaVuSans-31" d="M 794 531 
L 1825 531 
L 1825 4091 
L 703 3866 
L 703 4441 
L 1819 4666 
L 2450 4666 
L 2450 531 
L 3481 531 
L 3481 0 
L 794 0 
L 794 531 
z
" transform="scale(0.015625)"/>
       </defs>
       <use xlink:href="#DejaVuSans-31"/>
       <use xlink:href="#DejaVuSans-2e" transform="translate(63.623047 0)"/>
       <use xlink:href="#DejaVuSans-30" transform="translate(95.410156 0)"/>
      </g>
     </g>
    </g>
    <g id="text_5">
     <!-- Selectivity -->
     <g transform="translate(58.534375 235.8575) scale(0.2 -0.2)">
      <defs>
       <path id="DejaVuSans-53" d="M 3425 4513 
L 3425 3897 
Q 3066 4069 2747 4153 
Q 2428 4238 2131 4238 
Q 1616 4238 1336 4038 
Q 1056 3838 1056 3469 
Q 1056 3159 1242 3001 
Q 1428 2844 1947 2747 
L 2328 2669 
Q 3034 2534 3370 2195 
Q 3706 1856 3706 1288 
Q 3706 609 3251 259 
Q 2797 -91 1919 -91 
Q 1588 -91 1214 -16 
Q 841 59 441 206 
L 441 856 
Q 825 641 1194 531 
Q 1563 422 1919 422 
Q 2459 422 2753 634 
Q 3047 847 3047 1241 
Q 3047 1584 2836 1778 
Q 2625 1972 2144 2069 
L 1759 2144 
Q 1053 2284 737 2584 
Q 422 2884 422 3419 
Q 422 4038 858 4394 
Q 1294 4750 2059 4750 
Q 2388 4750 2728 4690 
Q 3069 4631 3425 4513 
z
" transform="scale(0.015625)"/>
       <path id="DejaVuSans-65" d="M 3597 1894 
L 3597 1613 
L 953 1613 
Q 991 1019 1311 708 
Q 1631 397 2203 397 
Q 2534 397 2845 478 
Q 3156 559 3463 722 
L 3463 178 
Q 3153 47 2828 -22 
Q 2503 -91 2169 -91 
Q 1331 -91 842 396 
Q 353 884 353 1716 
Q 353 2575 817 3079 
Q 1281 3584 2069 3584 
Q 2775 3584 3186 3129 
Q 3597 2675 3597 1894 
z
M 3022 2063 
Q 3016 2534 2758 2815 
Q 2500 3097 2075 3097 
Q 1594 3097 1305 2825 
Q 1016 2553 972 2059 
L 3022 2063 
z
" transform="scale(0.015625)"/>
       <path id="DejaVuSans-6c" d="M 603 4863 
L 1178 4863 
L 1178 0 
L 603 0 
L 603 4863 
z
" transform="scale(0.015625)"/>
       <path id="DejaVuSans-63" d="M 3122 3366 
L 3122 2828 
Q 2878 2963 2633 3030 
Q 2388 3097 2138 3097 
Q 1578 3097 1268 2742 
Q 959 2388 959 1747 
Q 959 1106 1268 751 
Q 1578 397 2138 397 
Q 2388 397 2633 464 
Q 2878 531 3122 666 
L 3122 134 
Q 2881 22 2623 -34 
Q 2366 -91 2075 -91 
Q 1284 -91 818 406 
Q 353 903 353 1747 
Q 353 2603 823 3093 
Q 1294 3584 2113 3584 
Q 2378 3584 2631 3529 
Q 2884 3475 3122 3366 
z
" transform="scale(0.015625)"/>
       <path id="DejaVuSans-74" d="M 1172 4494 
L 1172 3500 
L 2356 3500 
L 2356 3053 
L 1172 3053 
L 1172 1153 
Q 1172 725 1289 603 
Q 1406 481 1766 481 
L 2356 481 
L 2356 0 
L 1766 0 
Q 1100 0 847 248 
Q 594 497 594 1153 
L 594 3053 
L 172 3053 
L 172 3500 
L 594 3500 
L 594 4494 
L 1172 4494 
z
" transform="scale(0.015625)"/>
       <path id="DejaVuSans-69" d="M 603 3500 
L 1178 3500 
L 1178 0 
L 603 0 
L 603 3500 
z
M 603 4863 
L 1178 4863 
L 1178 4134 
L 603 4134 
L 603 4863 
z
" transform="scale(0.015625)"/>
       <path id="DejaVuSans-76" d="M 191 3500 
L 800 3500 
L 1894 563 
L 2988 3500 
L 3597 3500 
L 2284 0 
L 1503 0 
L 191 3500 
z
" transform="scale(0.015625)"/>
       <path id="DejaVuSans-79" d="M 2059 -325 
Q 1816 -950 1584 -1140 
Q 1353 -1331 966 -1331 
L 506 -1331 
L 506 -850 
L 844 -850 
Q 1081 -850 1212 -737 
Q 1344 -625 1503 -206 
L 1606 56 
L 191 3500 
L 800 3500 
L 1894 763 
L 2988 3500 
L 3597 3500 
L 2059 -325 
z
" transform="scale(0.015625)"/>
      </defs>
      <use xlink:href="#DejaVuSans-53"/>
      <use xlink:href="#DejaVuSans-65" transform="translate(63.476562 0)"/>
      <use xlink:href="#DejaVuSans-6c" transform="translate(125 0)"/>
      <use xlink:href="#DejaVuSans-65" transform="translate(152.783203 0)"/>
      <use xlink:href="#DejaVuSans-63" transform="translate(214.306641 0)"/>
      <use xlink:href="#DejaVuSans-74" transform="translate(269.287109 0)"/>
      <use xlink:href="#DejaVuSans-69" transform="translate(308.496094 0)"/>
      <use xlink:href="#DejaVuSans-76" transform="translate(336.279297 0)"/>
      <use xlink:href="#DejaVuSans-69" transform="translate(395.458984 0)"/>
      <use xlink:href="#DejaVuSans-74" transform="translate(423.242188 0)"/>
      <use xlink:href="#DejaVuSans-79" transform="translate(462.451172 0)"/>
     </g>
    </g>
   </g>
   <g id="matplotlib.axis_2">
    <g id="text_6">
     <!-- Neuron Count -->
     <g transform="translate(18.840625 178.269062) rotate(-90) scale(0.2 -0.2)">
      <defs>
       <path id="DejaVuSans-4e" d="M 628 4666 
L 1478 4666 
L 3547 763 
L 3547 4666 
L 4159 4666 
L 4159 0 
L 3309 0 
L 1241 3903 
L 1241 0 
L 628 0 
L 628 4666 
z
" transform="scale(0.015625)"/>
       <path id="DejaVuSans-75" d="M 544 1381 
L 544 3500 
L 1119 3500 
L 1119 1403 
Q 1119 906 1312 657 
Q 1506 409 1894 409 
Q 2359 409 2629 706 
Q 2900 1003 2900 1516 
L 2900 3500 
L 3475 3500 
L 3475 0 
L 2900 0 
L 2900 538 
Q 2691 219 2414 64 
Q 2138 -91 1772 -91 
Q 1169 -91 856 284 
Q 544 659 544 1381 
z
M 1991 3584 
L 1991 3584 
z
" transform="scale(0.015625)"/>
       <path id="DejaVuSans-72" d="M 2631 2963 
Q 2534 3019 2420 3045 
Q 2306 3072 2169 3072 
Q 1681 3072 1420 2755 
Q 1159 2438 1159 1844 
L 1159 0 
L 581 0 
L 581 3500 
L 1159 3500 
L 1159 2956 
Q 1341 3275 1631 3429 
Q 1922 3584 2338 3584 
Q 2397 3584 2469 3576 
Q 2541 3569 2628 3553 
L 2631 2963 
z
" transform="scale(0.015625)"/>
       <path id="DejaVuSans-6f" d="M 1959 3097 
Q 1497 3097 1228 2736 
Q 959 2375 959 1747 
Q 959 1119 1226 758 
Q 1494 397 1959 397 
Q 2419 397 2687 759 
Q 2956 1122 2956 1747 
Q 2956 2369 2687 2733 
Q 2419 3097 1959 3097 
z
M 1959 3584 
Q 2709 3584 3137 3096 
Q 3566 2609 3566 1747 
Q 3566 888 3137 398 
Q 2709 -91 1959 -91 
Q 1206 -91 779 398 
Q 353 888 353 1747 
Q 353 2609 779 3096 
Q 1206 3584 1959 3584 
z
" transform="scale(0.015625)"/>
       <path id="DejaVuSans-6e" d="M 3513 2113 
L 3513 0 
L 2938 0 
L 2938 2094 
Q 2938 2591 2744 2837 
Q 2550 3084 2163 3084 
Q 1697 3084 1428 2787 
Q 1159 2491 1159 1978 
L 1159 0 
L 581 0 
L 581 3500 
L 1159 3500 
L 1159 2956 
Q 1366 3272 1645 3428 
Q 1925 3584 2291 3584 
Q 2894 3584 3203 3211 
Q 3513 2838 3513 2113 
z
" transform="scale(0.015625)"/>
       <path id="DejaVuSans-20" transform="scale(0.015625)"/>
       <path id="DejaVuSans-43" d="M 4122 4306 
L 4122 3641 
Q 3803 3938 3442 4084 
Q 3081 4231 2675 4231 
Q 1875 4231 1450 3742 
Q 1025 3253 1025 2328 
Q 1025 1406 1450 917 
Q 1875 428 2675 428 
Q 3081 428 3442 575 
Q 3803 722 4122 1019 
L 4122 359 
Q 3791 134 3420 21 
Q 3050 -91 2638 -91 
Q 1578 -91 968 557 
Q 359 1206 359 2328 
Q 359 3453 968 4101 
Q 1578 4750 2638 4750 
Q 3056 4750 3426 4639 
Q 3797 4528 4122 4306 
z
" transform="scale(0.015625)"/>
      </defs>
      <use xlink:href="#DejaVuSans-4e"/>
      <use xlink:href="#DejaVuSans-65" transform="translate(74.804688 0)"/>
      <use xlink:href="#DejaVuSans-75" transform="translate(136.328125 0)"/>
      <use xlink:href="#DejaVuSans-72" transform="translate(199.707031 0)"/>
      <use xlink:href="#DejaVuSans-6f" transform="translate(238.570312 0)"/>
      <use xlink:href="#DejaVuSans-6e" transform="translate(299.751953 0)"/>
      <use xlink:href="#DejaVuSans-20" transform="translate(363.130859 0)"/>
      <use xlink:href="#DejaVuSans-43" transform="translate(394.917969 0)"/>
      <use xlink:href="#DejaVuSans-6f" transform="translate(464.742188 0)"/>
      <use xlink:href="#DejaVuSans-75" transform="translate(525.923828 0)"/>
      <use xlink:href="#DejaVuSans-6e" transform="translate(589.302734 0)"/>
      <use xlink:href="#DejaVuSans-74" transform="translate(652.681641 0)"/>
     </g>
    </g>
   </g>
   <g id="patch_163">
    <path d="M 27 192.24 
L 27 25.92 
" style="fill: none; stroke: #000000; stroke-width: 0.8; stroke-linejoin: miter; stroke-linecap: square"/>
   </g>
   <g id="patch_164">
    <path d="M 27 192.24 
L 194.4 192.24 
" style="fill: none; stroke: #000000; stroke-width: 0.8; stroke-linejoin: miter; stroke-linecap: square"/>
   </g>
   <g id="legend_1">
    <g id="patch_165">
     <path d="M 2.68875 55.797187 
L 38.68875 55.797187 
L 38.68875 43.197187 
L 2.68875 43.197187 
z
" style="fill: #00a651; opacity: 0.5"/>
    </g>
    <g id="text_7">
     <!-- MTL-sensory -->
     <g transform="translate(53.08875 55.797187) scale(0.18 -0.18)">
      <defs>
       <path id="DejaVuSans-4d" d="M 628 4666 
L 1569 4666 
L 2759 1491 
L 3956 4666 
L 4897 4666 
L 4897 0 
L 4281 0 
L 4281 4097 
L 3078 897 
L 2444 897 
L 1241 4097 
L 1241 0 
L 628 0 
L 628 4666 
z
" transform="scale(0.015625)"/>
       <path id="DejaVuSans-54" d="M -19 4666 
L 3928 4666 
L 3928 4134 
L 2272 4134 
L 2272 0 
L 1638 0 
L 1638 4134 
L -19 4134 
L -19 4666 
z
" transform="scale(0.015625)"/>
       <path id="DejaVuSans-4c" d="M 628 4666 
L 1259 4666 
L 1259 531 
L 3531 531 
L 3531 0 
L 628 0 
L 628 4666 
z
" transform="scale(0.015625)"/>
       <path id="DejaVuSans-2d" d="M 313 2009 
L 1997 2009 
L 1997 1497 
L 313 1497 
L 313 2009 
z
" transform="scale(0.015625)"/>
       <path id="DejaVuSans-73" d="M 2834 3397 
L 2834 2853 
Q 2591 2978 2328 3040 
Q 2066 3103 1784 3103 
Q 1356 3103 1142 2972 
Q 928 2841 928 2578 
Q 928 2378 1081 2264 
Q 1234 2150 1697 2047 
L 1894 2003 
Q 2506 1872 2764 1633 
Q 3022 1394 3022 966 
Q 3022 478 2636 193 
Q 2250 -91 1575 -91 
Q 1294 -91 989 -36 
Q 684 19 347 128 
L 347 722 
Q 666 556 975 473 
Q 1284 391 1588 391 
Q 1994 391 2212 530 
Q 2431 669 2431 922 
Q 2431 1156 2273 1281 
Q 2116 1406 1581 1522 
L 1381 1569 
Q 847 1681 609 1914 
Q 372 2147 372 2553 
Q 372 3047 722 3315 
Q 1072 3584 1716 3584 
Q 2034 3584 2315 3537 
Q 2597 3491 2834 3397 
z
" transform="scale(0.015625)"/>
      </defs>
      <use xlink:href="#DejaVuSans-4d"/>
      <use xlink:href="#DejaVuSans-54" transform="translate(86.279297 0)"/>
      <use xlink:href="#DejaVuSans-4c" transform="translate(147.363281 0)"/>
      <use xlink:href="#DejaVuSans-2d" transform="translate(201.326172 0)"/>
      <use xlink:href="#DejaVuSans-73" transform="translate(237.410156 0)"/>
      <use xlink:href="#DejaVuSans-65" transform="translate(289.509766 0)"/>
      <use xlink:href="#DejaVuSans-6e" transform="translate(351.033203 0)"/>
      <use xlink:href="#DejaVuSans-73" transform="translate(414.412109 0)"/>
      <use xlink:href="#DejaVuSans-6f" transform="translate(466.511719 0)"/>
      <use xlink:href="#DejaVuSans-72" transform="translate(527.693359 0)"/>
      <use xlink:href="#DejaVuSans-79" transform="translate(568.806641 0)"/>
     </g>
    </g>
    <g id="patch_166">
     <path d="M 2.68875 82.217812 
L 38.68875 82.217812 
L 38.68875 69.617812 
L 2.68875 69.617812 
z
" style="fill: #f7941d"/>
    </g>
    <g id="text_8">
     <!-- MTL-semantic -->
     <g transform="translate(53.08875 82.217812) scale(0.18 -0.18)">
      <defs>
       <path id="DejaVuSans-6d" d="M 3328 2828 
Q 3544 3216 3844 3400 
Q 4144 3584 4550 3584 
Q 5097 3584 5394 3201 
Q 5691 2819 5691 2113 
L 5691 0 
L 5113 0 
L 5113 2094 
Q 5113 2597 4934 2840 
Q 4756 3084 4391 3084 
Q 3944 3084 3684 2787 
Q 3425 2491 3425 1978 
L 3425 0 
L 2847 0 
L 2847 2094 
Q 2847 2600 2669 2842 
Q 2491 3084 2119 3084 
Q 1678 3084 1418 2786 
Q 1159 2488 1159 1978 
L 1159 0 
L 581 0 
L 581 3500 
L 1159 3500 
L 1159 2956 
Q 1356 3278 1631 3431 
Q 1906 3584 2284 3584 
Q 2666 3584 2933 3390 
Q 3200 3197 3328 2828 
z
" transform="scale(0.015625)"/>
       <path id="DejaVuSans-61" d="M 2194 1759 
Q 1497 1759 1228 1600 
Q 959 1441 959 1056 
Q 959 750 1161 570 
Q 1363 391 1709 391 
Q 2188 391 2477 730 
Q 2766 1069 2766 1631 
L 2766 1759 
L 2194 1759 
z
M 3341 1997 
L 3341 0 
L 2766 0 
L 2766 531 
Q 2569 213 2275 61 
Q 1981 -91 1556 -91 
Q 1019 -91 701 211 
Q 384 513 384 1019 
Q 384 1609 779 1909 
Q 1175 2209 1959 2209 
L 2766 2209 
L 2766 2266 
Q 2766 2663 2505 2880 
Q 2244 3097 1772 3097 
Q 1472 3097 1187 3025 
Q 903 2953 641 2809 
L 641 3341 
Q 956 3463 1253 3523 
Q 1550 3584 1831 3584 
Q 2591 3584 2966 3190 
Q 3341 2797 3341 1997 
z
" transform="scale(0.015625)"/>
      </defs>
      <use xlink:href="#DejaVuSans-4d"/>
      <use xlink:href="#DejaVuSans-54" transform="translate(86.279297 0)"/>
      <use xlink:href="#DejaVuSans-4c" transform="translate(147.363281 0)"/>
      <use xlink:href="#DejaVuSans-2d" transform="translate(201.326172 0)"/>
      <use xlink:href="#DejaVuSans-73" transform="translate(237.410156 0)"/>
      <use xlink:href="#DejaVuSans-65" transform="translate(289.509766 0)"/>
      <use xlink:href="#DejaVuSans-6d" transform="translate(351.033203 0)"/>
      <use xlink:href="#DejaVuSans-61" transform="translate(448.445312 0)"/>
      <use xlink:href="#DejaVuSans-6e" transform="translate(509.724609 0)"/>
      <use xlink:href="#DejaVuSans-74" transform="translate(573.103516 0)"/>
      <use xlink:href="#DejaVuSans-69" transform="translate(612.3125 0)"/>
      <use xlink:href="#DejaVuSans-63" transform="translate(640.095703 0)"/>
     </g>
    </g>
   </g>
  </g>
 </g>
 <defs>
  <clipPath id="p1428a87812">
   <rect x="27" y="25.92" width="167.4" height="166.32"/>
  </clipPath>
 </defs>
</svg>
