<?xml version="1.0" encoding="utf-8" standalone="no"?>
<!DOCTYPE svg PUBLIC "-//W3C//DTD SVG 1.1//EN"
  "http://www.w3.org/Graphics/SVG/1.1/DTD/svg11.dtd">
<svg xmlns:xlink="http://www.w3.org/1999/xlink" width="216pt" height="216pt" viewBox="0 0 216 216" xmlns="http://www.w3.org/2000/svg" version="1.1">
 <metadata>
  <rdf:RDF xmlns:dc="http://purl.org/dc/elements/1.1/" xmlns:cc="http://creativecommons.org/ns#" xmlns:rdf="http://www.w3.org/1999/02/22-rdf-syntax-ns#">
   <cc:Work>
    <dc:type rdf:resource="http://purl.org/dc/dcmitype/StillImage"/>
    <dc:date>2025-08-28T08:42:08.340458</dc:date>
    <dc:format>image/svg+xml</dc:format>
    <dc:creator>
     <cc:Agent>
      <dc:title>Matplotlib v3.10.1, https://matplotlib.org/</dc:title>
     </cc:Agent>
    </dc:creator>
   </cc:Work>
  </rdf:RDF>
 </metadata>
 <defs>
  <style type="text/css">*{stroke-linejoin: round; stroke-linecap: butt}</style>
 </defs>
 <g id="figure_1">
  <g id="patch_1">
   <path d="M 0 216 
L 216 216 
L 216 0 
L 0 0 
L 0 216 
z
" style="fill: none"/>
  </g>
  <g id="axes_1">
   <g id="patch_2">
    <path d="M 27 192.24 
L 194.4 192.24 
L 194.4 25.92 
L 27 25.92 
L 27 192.24 
z
" style="fill: none"/>
   </g>
   <g id="patch_3">
    <path d="M 43.814967 192.24 
L 45.525249 192.24 
L 45.525249 178.9344 
L 43.814967 178.9344 
z
" clip-path="url(#pb8476de92f)" style="fill: #00a651; opacity: 0.5"/>
   </g>
   <g id="patch_4">
    <path d="M 45.525249 192.24 
L 47.235527 192.24 
L 47.235527 178.9344 
L 45.525249 178.9344 
z
" clip-path="url(#pb8476de92f)" style="fill: #00a651; opacity: 0.5"/>
   </g>
   <g id="patch_5">
    <path d="M 47.235527 192.24 
L 48.945808 192.24 
L 48.945808 178.9344 
L 47.235527 178.9344 
z
" clip-path="url(#pb8476de92f)" style="fill: #00a651; opacity: 0.5"/>
   </g>
   <g id="patch_6">
    <path d="M 48.945808 192.24 
L 50.656089 192.24 
L 50.656089 142.344 
L 48.945808 142.344 
z
" clip-path="url(#pb8476de92f)" style="fill: #00a651; opacity: 0.5"/>
   </g>
   <g id="patch_7">
    <path d="M 50.656089 192.24 
L 52.366368 192.24 
L 52.366368 122.3856 
L 50.656089 122.3856 
z
" clip-path="url(#pb8476de92f)" style="fill: #00a651; opacity: 0.5"/>
   </g>
   <g id="patch_8">
    <path d="M 52.366368 192.24 
L 54.076649 192.24 
L 54.076649 75.816 
L 52.366368 75.816 
z
" clip-path="url(#pb8476de92f)" style="fill: #00a651; opacity: 0.5"/>
   </g>
   <g id="patch_9">
    <path d="M 54.076649 192.24 
L 55.786929 192.24 
L 55.786929 49.2048 
L 54.076649 49.2048 
z
" clip-path="url(#pb8476de92f)" style="fill: #00a651; opacity: 0.5"/>
   </g>
   <g id="patch_10">
    <path d="M 55.786929 192.24 
L 57.497208 192.24 
L 57.497208 72.4896 
L 55.786929 72.4896 
z
" clip-path="url(#pb8476de92f)" style="fill: #00a651; opacity: 0.5"/>
   </g>
   <g id="patch_11">
    <path d="M 57.497208 192.24 
L 59.20749 192.24 
L 59.20749 72.4896 
L 57.497208 72.4896 
z
" clip-path="url(#pb8476de92f)" style="fill: #00a651; opacity: 0.5"/>
   </g>
   <g id="patch_12">
    <path d="M 59.20749 192.24 
L 60.91777 192.24 
L 60.91777 35.8992 
L 59.20749 35.8992 
z
" clip-path="url(#pb8476de92f)" style="fill: #00a651; opacity: 0.5"/>
   </g>
   <g id="patch_13">
    <path d="M 60.91777 192.24 
L 62.628049 192.24 
L 62.628049 69.1632 
L 60.91777 69.1632 
z
" clip-path="url(#pb8476de92f)" style="fill: #00a651; opacity: 0.5"/>
   </g>
   <g id="patch_14">
    <path d="M 62.628049 192.24 
L 64.338331 192.24 
L 64.338331 25.92 
L 62.628049 25.92 
z
" clip-path="url(#pb8476de92f)" style="fill: #00a651; opacity: 0.5"/>
   </g>
   <g id="patch_15">
    <path d="M 64.338331 192.24 
L 66.04861 192.24 
L 66.04861 75.816 
L 64.338331 75.816 
z
" clip-path="url(#pb8476de92f)" style="fill: #00a651; opacity: 0.5"/>
   </g>
   <g id="patch_16">
    <path d="M 66.04861 192.24 
L 67.75889 192.24 
L 67.75889 105.7536 
L 66.04861 105.7536 
z
" clip-path="url(#pb8476de92f)" style="fill: #00a651; opacity: 0.5"/>
   </g>
   <g id="patch_17">
    <path d="M 67.75889 192.24 
L 69.469172 192.24 
L 69.469172 62.5104 
L 67.75889 62.5104 
z
" clip-path="url(#pb8476de92f)" style="fill: #00a651; opacity: 0.5"/>
   </g>
   <g id="patch_18">
    <path d="M 69.469172 192.24 
L 71.179451 192.24 
L 71.179451 95.7744 
L 69.469172 95.7744 
z
" clip-path="url(#pb8476de92f)" style="fill: #00a651; opacity: 0.5"/>
   </g>
   <g id="patch_19">
    <path d="M 71.179451 192.24 
L 72.889731 192.24 
L 72.889731 99.1008 
L 71.179451 99.1008 
z
" clip-path="url(#pb8476de92f)" style="fill: #00a651; opacity: 0.5"/>
   </g>
   <g id="patch_20">
    <path d="M 72.889731 192.24 
L 74.600012 192.24 
L 74.600012 52.5312 
L 72.889731 52.5312 
z
" clip-path="url(#pb8476de92f)" style="fill: #00a651; opacity: 0.5"/>
   </g>
   <g id="patch_21">
    <path d="M 74.600012 192.24 
L 76.310291 192.24 
L 76.310291 129.0384 
L 74.600012 129.0384 
z
" clip-path="url(#pb8476de92f)" style="fill: #00a651; opacity: 0.5"/>
   </g>
   <g id="patch_22">
    <path d="M 76.310291 192.24 
L 78.020572 192.24 
L 78.020572 125.712 
L 76.310291 125.712 
z
" clip-path="url(#pb8476de92f)" style="fill: #00a651; opacity: 0.5"/>
   </g>
   <g id="patch_23">
    <path d="M 78.020572 192.24 
L 79.730853 192.24 
L 79.730853 129.0384 
L 78.020572 129.0384 
z
" clip-path="url(#pb8476de92f)" style="fill: #00a651; opacity: 0.5"/>
   </g>
   <g id="patch_24">
    <path d="M 79.730853 192.24 
L 81.441131 192.24 
L 81.441131 115.7328 
L 79.730853 115.7328 
z
" clip-path="url(#pb8476de92f)" style="fill: #00a651; opacity: 0.5"/>
   </g>
   <g id="patch_25">
    <path d="M 81.441131 192.24 
L 83.151413 192.24 
L 83.151413 115.7328 
L 81.441131 115.7328 
z
" clip-path="url(#pb8476de92f)" style="fill: #00a651; opacity: 0.5"/>
   </g>
   <g id="patch_26">
    <path d="M 83.151413 192.24 
L 84.861694 192.24 
L 84.861694 102.4272 
L 83.151413 102.4272 
z
" clip-path="url(#pb8476de92f)" style="fill: #00a651; opacity: 0.5"/>
   </g>
   <g id="patch_27">
    <path d="M 84.861694 192.24 
L 86.571972 192.24 
L 86.571972 122.3856 
L 84.861694 122.3856 
z
" clip-path="url(#pb8476de92f)" style="fill: #00a651; opacity: 0.5"/>
   </g>
   <g id="patch_28">
    <path d="M 86.571972 192.24 
L 88.282254 192.24 
L 88.282254 148.9968 
L 86.571972 148.9968 
z
" clip-path="url(#pb8476de92f)" style="fill: #00a651; opacity: 0.5"/>
   </g>
   <g id="patch_29">
    <path d="M 88.282254 192.24 
L 89.992535 192.24 
L 89.992535 145.6704 
L 88.282254 145.6704 
z
" clip-path="url(#pb8476de92f)" style="fill: #00a651; opacity: 0.5"/>
   </g>
   <g id="patch_30">
    <path d="M 89.992535 192.24 
L 91.702813 192.24 
L 91.702813 158.976 
L 89.992535 158.976 
z
" clip-path="url(#pb8476de92f)" style="fill: #00a651; opacity: 0.5"/>
   </g>
   <g id="patch_31">
    <path d="M 91.702813 192.24 
L 93.413095 192.24 
L 93.413095 158.976 
L 91.702813 158.976 
z
" clip-path="url(#pb8476de92f)" style="fill: #00a651; opacity: 0.5"/>
   </g>
   <g id="patch_32">
    <path d="M 93.413095 192.24 
L 95.123376 192.24 
L 95.123376 142.344 
L 93.413095 142.344 
z
" clip-path="url(#pb8476de92f)" style="fill: #00a651; opacity: 0.5"/>
   </g>
   <g id="patch_33">
    <path d="M 95.123376 192.24 
L 96.833654 192.24 
L 96.833654 139.0176 
L 95.123376 139.0176 
z
" clip-path="url(#pb8476de92f)" style="fill: #00a651; opacity: 0.5"/>
   </g>
   <g id="patch_34">
    <path d="M 96.833654 192.24 
L 98.543935 192.24 
L 98.543935 168.9552 
L 96.833654 168.9552 
z
" clip-path="url(#pb8476de92f)" style="fill: #00a651; opacity: 0.5"/>
   </g>
   <g id="patch_35">
    <path d="M 98.543935 192.24 
L 100.254217 192.24 
L 100.254217 148.9968 
L 98.543935 148.9968 
z
" clip-path="url(#pb8476de92f)" style="fill: #00a651; opacity: 0.5"/>
   </g>
   <g id="patch_36">
    <path d="M 100.254217 192.24 
L 101.964495 192.24 
L 101.964495 172.2816 
L 100.254217 172.2816 
z
" clip-path="url(#pb8476de92f)" style="fill: #00a651; opacity: 0.5"/>
   </g>
   <g id="patch_37">
    <path d="M 101.964495 192.24 
L 103.674773 192.24 
L 103.674773 162.3024 
L 101.964495 162.3024 
z
" clip-path="url(#pb8476de92f)" style="fill: #00a651; opacity: 0.5"/>
   </g>
   <g id="patch_38">
    <path d="M 103.674773 192.24 
L 105.385058 192.24 
L 105.385058 152.3232 
L 103.674773 152.3232 
z
" clip-path="url(#pb8476de92f)" style="fill: #00a651; opacity: 0.5"/>
   </g>
   <g id="patch_39">
    <path d="M 105.385058 192.24 
L 107.095336 192.24 
L 107.095336 165.6288 
L 105.385058 165.6288 
z
" clip-path="url(#pb8476de92f)" style="fill: #00a651; opacity: 0.5"/>
   </g>
   <g id="patch_40">
    <path d="M 107.095336 192.24 
L 108.805614 192.24 
L 108.805614 168.9552 
L 107.095336 168.9552 
z
" clip-path="url(#pb8476de92f)" style="fill: #00a651; opacity: 0.5"/>
   </g>
   <g id="patch_41">
    <path d="M 108.805614 192.24 
L 110.515898 192.24 
L 110.515898 155.6496 
L 108.805614 155.6496 
z
" clip-path="url(#pb8476de92f)" style="fill: #00a651; opacity: 0.5"/>
   </g>
   <g id="patch_42">
    <path d="M 110.515898 192.24 
L 112.226177 192.24 
L 112.226177 162.3024 
L 110.515898 162.3024 
z
" clip-path="url(#pb8476de92f)" style="fill: #00a651; opacity: 0.5"/>
   </g>
   <g id="patch_43">
    <path d="M 112.226177 192.24 
L 113.936455 192.24 
L 113.936455 168.9552 
L 112.226177 168.9552 
z
" clip-path="url(#pb8476de92f)" style="fill: #00a651; opacity: 0.5"/>
   </g>
   <g id="patch_44">
    <path d="M 113.936455 192.24 
L 115.646739 192.24 
L 115.646739 152.3232 
L 113.936455 152.3232 
z
" clip-path="url(#pb8476de92f)" style="fill: #00a651; opacity: 0.5"/>
   </g>
   <g id="patch_45">
    <path d="M 115.646739 192.24 
L 117.357017 192.24 
L 117.357017 172.2816 
L 115.646739 172.2816 
z
" clip-path="url(#pb8476de92f)" style="fill: #00a651; opacity: 0.5"/>
   </g>
   <g id="patch_46">
    <path d="M 117.357017 192.24 
L 119.067296 192.24 
L 119.067296 182.2608 
L 117.357017 182.2608 
z
" clip-path="url(#pb8476de92f)" style="fill: #00a651; opacity: 0.5"/>
   </g>
   <g id="patch_47">
    <path d="M 119.067296 192.24 
L 120.77758 192.24 
L 120.77758 152.3232 
L 119.067296 152.3232 
z
" clip-path="url(#pb8476de92f)" style="fill: #00a651; opacity: 0.5"/>
   </g>
   <g id="patch_48">
    <path d="M 120.77758 192.24 
L 122.487858 192.24 
L 122.487858 152.3232 
L 120.77758 152.3232 
z
" clip-path="url(#pb8476de92f)" style="fill: #00a651; opacity: 0.5"/>
   </g>
   <g id="patch_49">
    <path d="M 122.487858 192.24 
L 124.198136 192.24 
L 124.198136 165.6288 
L 122.487858 165.6288 
z
" clip-path="url(#pb8476de92f)" style="fill: #00a651; opacity: 0.5"/>
   </g>
   <g id="patch_50">
    <path d="M 124.198136 192.24 
L 125.908421 192.24 
L 125.908421 175.608 
L 124.198136 175.608 
z
" clip-path="url(#pb8476de92f)" style="fill: #00a651; opacity: 0.5"/>
   </g>
   <g id="patch_51">
    <path d="M 125.908421 192.24 
L 127.618699 192.24 
L 127.618699 172.2816 
L 125.908421 172.2816 
z
" clip-path="url(#pb8476de92f)" style="fill: #00a651; opacity: 0.5"/>
   </g>
   <g id="patch_52">
    <path d="M 127.618699 192.24 
L 129.328977 192.24 
L 129.328977 165.6288 
L 127.618699 165.6288 
z
" clip-path="url(#pb8476de92f)" style="fill: #00a651; opacity: 0.5"/>
   </g>
   <g id="patch_53">
    <path d="M 129.328977 192.24 
L 131.039262 192.24 
L 131.039262 162.3024 
L 129.328977 162.3024 
z
" clip-path="url(#pb8476de92f)" style="fill: #00a651; opacity: 0.5"/>
   </g>
   <g id="patch_54">
    <path d="M 131.039262 192.24 
L 132.74954 192.24 
L 132.74954 162.3024 
L 131.039262 162.3024 
z
" clip-path="url(#pb8476de92f)" style="fill: #00a651; opacity: 0.5"/>
   </g>
   <g id="patch_55">
    <path d="M 132.74954 192.24 
L 134.459818 192.24 
L 134.459818 165.6288 
L 132.74954 165.6288 
z
" clip-path="url(#pb8476de92f)" style="fill: #00a651; opacity: 0.5"/>
   </g>
   <g id="patch_56">
    <path d="M 134.459818 192.24 
L 136.170103 192.24 
L 136.170103 185.5872 
L 134.459818 185.5872 
z
" clip-path="url(#pb8476de92f)" style="fill: #00a651; opacity: 0.5"/>
   </g>
   <g id="patch_57">
    <path d="M 136.170103 192.24 
L 137.880381 192.24 
L 137.880381 178.9344 
L 136.170103 178.9344 
z
" clip-path="url(#pb8476de92f)" style="fill: #00a651; opacity: 0.5"/>
   </g>
   <g id="patch_58">
    <path d="M 137.880381 192.24 
L 139.590659 192.24 
L 139.590659 188.9136 
L 137.880381 188.9136 
z
" clip-path="url(#pb8476de92f)" style="fill: #00a651; opacity: 0.5"/>
   </g>
   <g id="patch_59">
    <path d="M 139.590659 192.24 
L 141.300944 192.24 
L 141.300944 188.9136 
L 139.590659 188.9136 
z
" clip-path="url(#pb8476de92f)" style="fill: #00a651; opacity: 0.5"/>
   </g>
   <g id="patch_60">
    <path d="M 141.300944 192.24 
L 143.011222 192.24 
L 143.011222 178.9344 
L 141.300944 178.9344 
z
" clip-path="url(#pb8476de92f)" style="fill: #00a651; opacity: 0.5"/>
   </g>
   <g id="patch_61">
    <path d="M 143.011222 192.24 
L 144.7215 192.24 
L 144.7215 168.9552 
L 143.011222 168.9552 
z
" clip-path="url(#pb8476de92f)" style="fill: #00a651; opacity: 0.5"/>
   </g>
   <g id="patch_62">
    <path d="M 144.7215 192.24 
L 146.431785 192.24 
L 146.431785 182.2608 
L 144.7215 182.2608 
z
" clip-path="url(#pb8476de92f)" style="fill: #00a651; opacity: 0.5"/>
   </g>
   <g id="patch_63">
    <path d="M 146.431785 192.24 
L 148.142063 192.24 
L 148.142063 182.2608 
L 146.431785 182.2608 
z
" clip-path="url(#pb8476de92f)" style="fill: #00a651; opacity: 0.5"/>
   </g>
   <g id="patch_64">
    <path d="M 148.142063 192.24 
L 149.852341 192.24 
L 149.852341 178.9344 
L 148.142063 178.9344 
z
" clip-path="url(#pb8476de92f)" style="fill: #00a651; opacity: 0.5"/>
   </g>
   <g id="patch_65">
    <path d="M 149.852341 192.24 
L 151.562625 192.24 
L 151.562625 185.5872 
L 149.852341 185.5872 
z
" clip-path="url(#pb8476de92f)" style="fill: #00a651; opacity: 0.5"/>
   </g>
   <g id="patch_66">
    <path d="M 151.562625 192.24 
L 153.272904 192.24 
L 153.272904 182.2608 
L 151.562625 182.2608 
z
" clip-path="url(#pb8476de92f)" style="fill: #00a651; opacity: 0.5"/>
   </g>
   <g id="patch_67">
    <path d="M 153.272904 192.24 
L 154.983182 192.24 
L 154.983182 185.5872 
L 153.272904 185.5872 
z
" clip-path="url(#pb8476de92f)" style="fill: #00a651; opacity: 0.5"/>
   </g>
   <g id="patch_68">
    <path d="M 154.983182 192.24 
L 156.693466 192.24 
L 156.693466 182.2608 
L 154.983182 182.2608 
z
" clip-path="url(#pb8476de92f)" style="fill: #00a651; opacity: 0.5"/>
   </g>
   <g id="patch_69">
    <path d="M 156.693466 192.24 
L 158.403738 192.24 
L 158.403738 188.9136 
L 156.693466 188.9136 
z
" clip-path="url(#pb8476de92f)" style="fill: #00a651; opacity: 0.5"/>
   </g>
   <g id="patch_70">
    <path d="M 158.403738 192.24 
L 160.114022 192.24 
L 160.114022 185.5872 
L 158.403738 185.5872 
z
" clip-path="url(#pb8476de92f)" style="fill: #00a651; opacity: 0.5"/>
   </g>
   <g id="patch_71">
    <path d="M 160.114022 192.24 
L 161.824307 192.24 
L 161.824307 188.9136 
L 160.114022 188.9136 
z
" clip-path="url(#pb8476de92f)" style="fill: #00a651; opacity: 0.5"/>
   </g>
   <g id="patch_72">
    <path d="M 161.824307 192.24 
L 163.534579 192.24 
L 163.534579 185.5872 
L 161.824307 185.5872 
z
" clip-path="url(#pb8476de92f)" style="fill: #00a651; opacity: 0.5"/>
   </g>
   <g id="patch_73">
    <path d="M 163.534579 192.24 
L 165.244863 192.24 
L 165.244863 192.24 
L 163.534579 192.24 
z
" clip-path="url(#pb8476de92f)" style="fill: #00a651; opacity: 0.5"/>
   </g>
   <g id="patch_74">
    <path d="M 165.244863 192.24 
L 166.955148 192.24 
L 166.955148 192.24 
L 165.244863 192.24 
z
" clip-path="url(#pb8476de92f)" style="fill: #00a651; opacity: 0.5"/>
   </g>
   <g id="patch_75">
    <path d="M 166.955148 192.24 
L 168.66542 192.24 
L 168.66542 188.9136 
L 166.955148 188.9136 
z
" clip-path="url(#pb8476de92f)" style="fill: #00a651; opacity: 0.5"/>
   </g>
   <g id="patch_76">
    <path d="M 168.66542 192.24 
L 170.375704 192.24 
L 170.375704 188.9136 
L 168.66542 188.9136 
z
" clip-path="url(#pb8476de92f)" style="fill: #00a651; opacity: 0.5"/>
   </g>
   <g id="patch_77">
    <path d="M 170.375704 192.24 
L 172.085989 192.24 
L 172.085989 188.9136 
L 170.375704 188.9136 
z
" clip-path="url(#pb8476de92f)" style="fill: #00a651; opacity: 0.5"/>
   </g>
   <g id="patch_78">
    <path d="M 172.085989 192.24 
L 173.79626 192.24 
L 173.79626 185.5872 
L 172.085989 185.5872 
z
" clip-path="url(#pb8476de92f)" style="fill: #00a651; opacity: 0.5"/>
   </g>
   <g id="patch_79">
    <path d="M 173.79626 192.24 
L 175.506545 192.24 
L 175.506545 192.24 
L 173.79626 192.24 
z
" clip-path="url(#pb8476de92f)" style="fill: #00a651; opacity: 0.5"/>
   </g>
   <g id="patch_80">
    <path d="M 175.506545 192.24 
L 177.21683 192.24 
L 177.21683 192.24 
L 175.506545 192.24 
z
" clip-path="url(#pb8476de92f)" style="fill: #00a651; opacity: 0.5"/>
   </g>
   <g id="patch_81">
    <path d="M 177.21683 192.24 
L 178.927101 192.24 
L 178.927101 192.24 
L 177.21683 192.24 
z
" clip-path="url(#pb8476de92f)" style="fill: #00a651; opacity: 0.5"/>
   </g>
   <g id="patch_82">
    <path d="M 178.927101 192.24 
L 180.637386 192.24 
L 180.637386 185.5872 
L 178.927101 185.5872 
z
" clip-path="url(#pb8476de92f)" style="fill: #00a651; opacity: 0.5"/>
   </g>
   <g id="patch_83">
    <path d="M 50.695084 192.24 
L 52.40176 192.24 
L 52.40176 175.608 
L 50.695084 175.608 
z
" clip-path="url(#pb8476de92f)" style="fill: #f7941d"/>
   </g>
   <g id="patch_84">
    <path d="M 52.40176 192.24 
L 54.10844 192.24 
L 54.10844 125.712 
L 52.40176 125.712 
z
" clip-path="url(#pb8476de92f)" style="fill: #f7941d"/>
   </g>
   <g id="patch_85">
    <path d="M 54.10844 192.24 
L 55.815117 192.24 
L 55.815117 2.6352 
L 54.10844 2.6352 
z
" clip-path="url(#pb8476de92f)" style="fill: #f7941d"/>
   </g>
   <g id="patch_86">
    <path d="M 55.815117 192.24 
L 57.521793 192.24 
L 57.521793 65.8368 
L 55.815117 65.8368 
z
" clip-path="url(#pb8476de92f)" style="fill: #f7941d"/>
   </g>
   <g id="patch_87">
    <path d="M 57.521793 192.24 
L 59.228471 192.24 
L 59.228471 125.712 
L 57.521793 125.712 
z
" clip-path="url(#pb8476de92f)" style="fill: #f7941d"/>
   </g>
   <g id="patch_88">
    <path d="M 59.228471 192.24 
L 60.93515 192.24 
L 60.93515 42.552 
L 59.228471 42.552 
z
" clip-path="url(#pb8476de92f)" style="fill: #f7941d"/>
   </g>
   <g id="patch_89">
    <path d="M 60.93515 192.24 
L 62.641826 192.24 
L 62.641826 112.4064 
L 60.93515 112.4064 
z
" clip-path="url(#pb8476de92f)" style="fill: #f7941d"/>
   </g>
   <g id="patch_90">
    <path d="M 62.641826 192.24 
L 64.348504 192.24 
L 64.348504 105.7536 
L 62.641826 105.7536 
z
" clip-path="url(#pb8476de92f)" style="fill: #f7941d"/>
   </g>
   <g id="patch_91">
    <path d="M 64.348504 192.24 
L 66.055182 192.24 
L 66.055182 142.344 
L 64.348504 142.344 
z
" clip-path="url(#pb8476de92f)" style="fill: #f7941d"/>
   </g>
   <g id="patch_92">
    <path d="M 66.055182 192.24 
L 67.761859 192.24 
L 67.761859 109.08 
L 66.055182 109.08 
z
" clip-path="url(#pb8476de92f)" style="fill: #f7941d"/>
   </g>
   <g id="patch_93">
    <path d="M 67.761859 192.24 
L 69.468537 192.24 
L 69.468537 102.4272 
L 67.761859 102.4272 
z
" clip-path="url(#pb8476de92f)" style="fill: #f7941d"/>
   </g>
   <g id="patch_94">
    <path d="M 69.468537 192.24 
L 71.175215 192.24 
L 71.175215 99.1008 
L 69.468537 99.1008 
z
" clip-path="url(#pb8476de92f)" style="fill: #f7941d"/>
   </g>
   <g id="patch_95">
    <path d="M 71.175215 192.24 
L 72.881892 192.24 
L 72.881892 139.0176 
L 71.175215 139.0176 
z
" clip-path="url(#pb8476de92f)" style="fill: #f7941d"/>
   </g>
   <g id="patch_96">
    <path d="M 72.881892 192.24 
L 74.58857 192.24 
L 74.58857 112.4064 
L 72.881892 112.4064 
z
" clip-path="url(#pb8476de92f)" style="fill: #f7941d"/>
   </g>
   <g id="patch_97">
    <path d="M 74.58857 192.24 
L 76.295246 192.24 
L 76.295246 142.344 
L 74.58857 142.344 
z
" clip-path="url(#pb8476de92f)" style="fill: #f7941d"/>
   </g>
   <g id="patch_98">
    <path d="M 76.295246 192.24 
L 78.001925 192.24 
L 78.001925 175.608 
L 76.295246 175.608 
z
" clip-path="url(#pb8476de92f)" style="fill: #f7941d"/>
   </g>
   <g id="patch_99">
    <path d="M 78.001925 192.24 
L 79.708601 192.24 
L 79.708601 192.24 
L 78.001925 192.24 
z
" clip-path="url(#pb8476de92f)" style="fill: #f7941d"/>
   </g>
   <g id="patch_100">
    <path d="M 79.708601 192.24 
L 81.415281 192.24 
L 81.415281 192.24 
L 79.708601 192.24 
z
" clip-path="url(#pb8476de92f)" style="fill: #f7941d"/>
   </g>
   <g id="patch_101">
    <path d="M 81.415281 192.24 
L 83.121957 192.24 
L 83.121957 158.976 
L 81.415281 158.976 
z
" clip-path="url(#pb8476de92f)" style="fill: #f7941d"/>
   </g>
   <g id="patch_102">
    <path d="M 83.121957 192.24 
L 84.828634 192.24 
L 84.828634 192.24 
L 83.121957 192.24 
z
" clip-path="url(#pb8476de92f)" style="fill: #f7941d"/>
   </g>
   <g id="patch_103">
    <path d="M 84.828634 192.24 
L 86.535314 192.24 
L 86.535314 192.24 
L 84.828634 192.24 
z
" clip-path="url(#pb8476de92f)" style="fill: #f7941d"/>
   </g>
   <g id="patch_104">
    <path d="M 86.535314 192.24 
L 88.24199 192.24 
L 88.24199 192.24 
L 86.535314 192.24 
z
" clip-path="url(#pb8476de92f)" style="fill: #f7941d"/>
   </g>
   <g id="patch_105">
    <path d="M 88.24199 192.24 
L 89.948667 192.24 
L 89.948667 192.24 
L 88.24199 192.24 
z
" clip-path="url(#pb8476de92f)" style="fill: #f7941d"/>
   </g>
   <g id="patch_106">
    <path d="M 89.948667 192.24 
L 91.655347 192.24 
L 91.655347 192.24 
L 89.948667 192.24 
z
" clip-path="url(#pb8476de92f)" style="fill: #f7941d"/>
   </g>
   <g id="patch_107">
    <path d="M 91.655347 192.24 
L 93.362023 192.24 
L 93.362023 192.24 
L 91.655347 192.24 
z
" clip-path="url(#pb8476de92f)" style="fill: #f7941d"/>
   </g>
   <g id="patch_108">
    <path d="M 93.362023 192.24 
L 95.0687 192.24 
L 95.0687 192.24 
L 93.362023 192.24 
z
" clip-path="url(#pb8476de92f)" style="fill: #f7941d"/>
   </g>
   <g id="patch_109">
    <path d="M 95.0687 192.24 
L 96.775376 192.24 
L 96.775376 192.24 
L 95.0687 192.24 
z
" clip-path="url(#pb8476de92f)" style="fill: #f7941d"/>
   </g>
   <g id="patch_110">
    <path d="M 96.775376 192.24 
L 98.482056 192.24 
L 98.482056 192.24 
L 96.775376 192.24 
z
" clip-path="url(#pb8476de92f)" style="fill: #f7941d"/>
   </g>
   <g id="patch_111">
    <path d="M 98.482056 192.24 
L 100.188732 192.24 
L 100.188732 192.24 
L 98.482056 192.24 
z
" clip-path="url(#pb8476de92f)" style="fill: #f7941d"/>
   </g>
   <g id="patch_112">
    <path d="M 100.188732 192.24 
L 101.895409 192.24 
L 101.895409 192.24 
L 100.188732 192.24 
z
" clip-path="url(#pb8476de92f)" style="fill: #f7941d"/>
   </g>
   <g id="patch_113">
    <path d="M 101.895409 192.24 
L 103.602089 192.24 
L 103.602089 192.24 
L 101.895409 192.24 
z
" clip-path="url(#pb8476de92f)" style="fill: #f7941d"/>
   </g>
   <g id="patch_114">
    <path d="M 103.602089 192.24 
L 105.308765 192.24 
L 105.308765 192.24 
L 103.602089 192.24 
z
" clip-path="url(#pb8476de92f)" style="fill: #f7941d"/>
   </g>
   <g id="patch_115">
    <path d="M 105.308765 192.24 
L 107.015442 192.24 
L 107.015442 192.24 
L 105.308765 192.24 
z
" clip-path="url(#pb8476de92f)" style="fill: #f7941d"/>
   </g>
   <g id="patch_116">
    <path d="M 107.015442 192.24 
L 108.722118 192.24 
L 108.722118 192.24 
L 107.015442 192.24 
z
" clip-path="url(#pb8476de92f)" style="fill: #f7941d"/>
   </g>
   <g id="patch_117">
    <path d="M 108.722118 192.24 
L 110.428795 192.24 
L 110.428795 192.24 
L 108.722118 192.24 
z
" clip-path="url(#pb8476de92f)" style="fill: #f7941d"/>
   </g>
   <g id="patch_118">
    <path d="M 110.428795 192.24 
L 112.135478 192.24 
L 112.135478 192.24 
L 110.428795 192.24 
z
" clip-path="url(#pb8476de92f)" style="fill: #f7941d"/>
   </g>
   <g id="patch_119">
    <path d="M 112.135478 192.24 
L 113.842154 192.24 
L 113.842154 192.24 
L 112.135478 192.24 
z
" clip-path="url(#pb8476de92f)" style="fill: #f7941d"/>
   </g>
   <g id="patch_120">
    <path d="M 113.842154 192.24 
L 115.548831 192.24 
L 115.548831 192.24 
L 113.842154 192.24 
z
" clip-path="url(#pb8476de92f)" style="fill: #f7941d"/>
   </g>
   <g id="patch_121">
    <path d="M 115.548831 192.24 
L 117.255507 192.24 
L 117.255507 192.24 
L 115.548831 192.24 
z
" clip-path="url(#pb8476de92f)" style="fill: #f7941d"/>
   </g>
   <g id="patch_122">
    <path d="M 117.255507 192.24 
L 118.962184 192.24 
L 118.962184 192.24 
L 117.255507 192.24 
z
" clip-path="url(#pb8476de92f)" style="fill: #f7941d"/>
   </g>
   <g id="patch_123">
    <path d="M 118.962184 192.24 
L 120.668861 192.24 
L 120.668861 192.24 
L 118.962184 192.24 
z
" clip-path="url(#pb8476de92f)" style="fill: #f7941d"/>
   </g>
   <g id="patch_124">
    <path d="M 120.668861 192.24 
L 122.375544 192.24 
L 122.375544 175.608 
L 120.668861 175.608 
z
" clip-path="url(#pb8476de92f)" style="fill: #f7941d"/>
   </g>
   <g id="patch_125">
    <path d="M 122.375544 192.24 
L 124.08222 192.24 
L 124.08222 175.608 
L 122.375544 175.608 
z
" clip-path="url(#pb8476de92f)" style="fill: #f7941d"/>
   </g>
   <g id="patch_126">
    <path d="M 124.08222 192.24 
L 125.788897 192.24 
L 125.788897 158.976 
L 124.08222 158.976 
z
" clip-path="url(#pb8476de92f)" style="fill: #f7941d"/>
   </g>
   <g id="patch_127">
    <path d="M 125.788897 192.24 
L 127.495573 192.24 
L 127.495573 182.2608 
L 125.788897 182.2608 
z
" clip-path="url(#pb8476de92f)" style="fill: #f7941d"/>
   </g>
   <g id="patch_128">
    <path d="M 127.495573 192.24 
L 129.20225 192.24 
L 129.20225 168.9552 
L 127.495573 168.9552 
z
" clip-path="url(#pb8476de92f)" style="fill: #f7941d"/>
   </g>
   <g id="patch_129">
    <path d="M 129.20225 192.24 
L 130.908926 192.24 
L 130.908926 175.608 
L 129.20225 175.608 
z
" clip-path="url(#pb8476de92f)" style="fill: #f7941d"/>
   </g>
   <g id="patch_130">
    <path d="M 130.908926 192.24 
L 132.615609 192.24 
L 132.615609 192.24 
L 130.908926 192.24 
z
" clip-path="url(#pb8476de92f)" style="fill: #f7941d"/>
   </g>
   <g id="patch_131">
    <path d="M 132.615609 192.24 
L 134.322286 192.24 
L 134.322286 192.24 
L 132.615609 192.24 
z
" clip-path="url(#pb8476de92f)" style="fill: #f7941d"/>
   </g>
   <g id="patch_132">
    <path d="M 134.322286 192.24 
L 136.028962 192.24 
L 136.028962 192.24 
L 134.322286 192.24 
z
" clip-path="url(#pb8476de92f)" style="fill: #f7941d"/>
   </g>
   <g id="patch_133">
    <path d="M 136.028962 192.24 
L 137.735639 192.24 
L 137.735639 192.24 
L 136.028962 192.24 
z
" clip-path="url(#pb8476de92f)" style="fill: #f7941d"/>
   </g>
   <g id="patch_134">
    <path d="M 137.735639 192.24 
L 139.442315 192.24 
L 139.442315 175.608 
L 137.735639 175.608 
z
" clip-path="url(#pb8476de92f)" style="fill: #f7941d"/>
   </g>
   <g id="patch_135">
    <path d="M 139.442315 192.24 
L 141.148992 192.24 
L 141.148992 192.24 
L 139.442315 192.24 
z
" clip-path="url(#pb8476de92f)" style="fill: #f7941d"/>
   </g>
   <g id="patch_136">
    <path d="M 141.148992 192.24 
L 142.855668 192.24 
L 142.855668 182.2608 
L 141.148992 182.2608 
z
" clip-path="url(#pb8476de92f)" style="fill: #f7941d"/>
   </g>
   <g id="patch_137">
    <path d="M 142.855668 192.24 
L 144.562351 192.24 
L 144.562351 168.9552 
L 142.855668 168.9552 
z
" clip-path="url(#pb8476de92f)" style="fill: #f7941d"/>
   </g>
   <g id="patch_138">
    <path d="M 144.562351 192.24 
L 146.269028 192.24 
L 146.269028 192.24 
L 144.562351 192.24 
z
" clip-path="url(#pb8476de92f)" style="fill: #f7941d"/>
   </g>
   <g id="patch_139">
    <path d="M 146.269028 192.24 
L 147.975705 192.24 
L 147.975705 192.24 
L 146.269028 192.24 
z
" clip-path="url(#pb8476de92f)" style="fill: #f7941d"/>
   </g>
   <g id="patch_140">
    <path d="M 147.975705 192.24 
L 149.682381 192.24 
L 149.682381 192.24 
L 147.975705 192.24 
z
" clip-path="url(#pb8476de92f)" style="fill: #f7941d"/>
   </g>
   <g id="patch_141">
    <path d="M 149.682381 192.24 
L 151.389058 192.24 
L 151.389058 192.24 
L 149.682381 192.24 
z
" clip-path="url(#pb8476de92f)" style="fill: #f7941d"/>
   </g>
   <g id="patch_142">
    <path d="M 151.389058 192.24 
L 153.095734 192.24 
L 153.095734 192.24 
L 151.389058 192.24 
z
" clip-path="url(#pb8476de92f)" style="fill: #f7941d"/>
   </g>
   <g id="patch_143">
    <path d="M 153.095734 192.24 
L 154.802417 192.24 
L 154.802417 192.24 
L 153.095734 192.24 
z
" clip-path="url(#pb8476de92f)" style="fill: #f7941d"/>
   </g>
   <g id="patch_144">
    <path d="M 154.802417 192.24 
L 156.509094 192.24 
L 156.509094 192.24 
L 154.802417 192.24 
z
" clip-path="url(#pb8476de92f)" style="fill: #f7941d"/>
   </g>
   <g id="patch_145">
    <path d="M 156.509094 192.24 
L 158.21577 192.24 
L 158.21577 192.24 
L 156.509094 192.24 
z
" clip-path="url(#pb8476de92f)" style="fill: #f7941d"/>
   </g>
   <g id="patch_146">
    <path d="M 158.21577 192.24 
L 159.922447 192.24 
L 159.922447 192.24 
L 158.21577 192.24 
z
" clip-path="url(#pb8476de92f)" style="fill: #f7941d"/>
   </g>
   <g id="patch_147">
    <path d="M 159.922447 192.24 
L 161.62913 192.24 
L 161.62913 192.24 
L 159.922447 192.24 
z
" clip-path="url(#pb8476de92f)" style="fill: #f7941d"/>
   </g>
   <g id="patch_148">
    <path d="M 161.62913 192.24 
L 163.3358 192.24 
L 163.3358 192.24 
L 161.62913 192.24 
z
" clip-path="url(#pb8476de92f)" style="fill: #f7941d"/>
   </g>
   <g id="patch_149">
    <path d="M 163.3358 192.24 
L 165.042483 192.24 
L 165.042483 175.608 
L 163.3358 175.608 
z
" clip-path="url(#pb8476de92f)" style="fill: #f7941d"/>
   </g>
   <g id="patch_150">
    <path d="M 165.042483 192.24 
L 166.749153 192.24 
L 166.749153 192.24 
L 165.042483 192.24 
z
" clip-path="url(#pb8476de92f)" style="fill: #f7941d"/>
   </g>
   <g id="patch_151">
    <path d="M 166.749153 192.24 
L 168.455836 192.24 
L 168.455836 192.24 
L 166.749153 192.24 
z
" clip-path="url(#pb8476de92f)" style="fill: #f7941d"/>
   </g>
   <g id="patch_152">
    <path d="M 168.455836 192.24 
L 170.162506 192.24 
L 170.162506 192.24 
L 168.455836 192.24 
z
" clip-path="url(#pb8476de92f)" style="fill: #f7941d"/>
   </g>
   <g id="patch_153">
    <path d="M 170.162506 192.24 
L 171.869189 192.24 
L 171.869189 175.608 
L 170.162506 175.608 
z
" clip-path="url(#pb8476de92f)" style="fill: #f7941d"/>
   </g>
   <g id="patch_154">
    <path d="M 171.869189 192.24 
L 173.575872 192.24 
L 173.575872 192.24 
L 171.869189 192.24 
z
" clip-path="url(#pb8476de92f)" style="fill: #f7941d"/>
   </g>
   <g id="patch_155">
    <path d="M 173.575872 192.24 
L 175.282542 192.24 
L 175.282542 192.24 
L 173.575872 192.24 
z
" clip-path="url(#pb8476de92f)" style="fill: #f7941d"/>
   </g>
   <g id="patch_156">
    <path d="M 175.282542 192.24 
L 176.989225 192.24 
L 176.989225 192.24 
L 175.282542 192.24 
z
" clip-path="url(#pb8476de92f)" style="fill: #f7941d"/>
   </g>
   <g id="patch_157">
    <path d="M 176.989225 192.24 
L 178.695895 192.24 
L 178.695895 175.608 
L 176.989225 175.608 
z
" clip-path="url(#pb8476de92f)" style="fill: #f7941d"/>
   </g>
   <g id="patch_158">
    <path d="M 178.695895 192.24 
L 180.402578 192.24 
L 180.402578 175.608 
L 178.695895 175.608 
z
" clip-path="url(#pb8476de92f)" style="fill: #f7941d"/>
   </g>
   <g id="patch_159">
    <path d="M 180.402578 192.24 
L 182.109261 192.24 
L 182.109261 168.9552 
L 180.402578 168.9552 
z
" clip-path="url(#pb8476de92f)" style="fill: #f7941d"/>
   </g>
   <g id="patch_160">
    <path d="M 182.109261 192.24 
L 183.815931 192.24 
L 183.815931 182.2608 
L 182.109261 182.2608 
z
" clip-path="url(#pb8476de92f)" style="fill: #f7941d"/>
   </g>
   <g id="patch_161">
    <path d="M 183.815931 192.24 
L 185.522614 192.24 
L 185.522614 142.344 
L 183.815931 142.344 
z
" clip-path="url(#pb8476de92f)" style="fill: #f7941d"/>
   </g>
   <g id="patch_162">
    <path d="M 185.522614 192.24 
L 187.229284 192.24 
L 187.229284 175.608 
L 185.522614 175.608 
z
" clip-path="url(#pb8476de92f)" style="fill: #f7941d"/>
   </g>
   <g id="matplotlib.axis_1">
    <g id="xtick_1">
     <g id="line2d_1">
      <defs>
       <path id="m5dea00f539" d="M 0 0 
L 0 3.5 
" style="stroke: #000000; stroke-width: 0.8"/>
      </defs>
      <g>
       <use xlink:href="#m5dea00f539" x="27" y="192.24" style="stroke: #000000; stroke-width: 0.8"/>
      </g>
     </g>
     <g id="text_1">
      <!-- −0.5 -->
      <g transform="translate(5.145469 212.917188) scale(0.18 -0.18)">
       <defs>
        <path id="DejaVuSans-2212" d="M 678 2272 
L 4684 2272 
L 4684 1741 
L 678 1741 
L 678 2272 
z
" transform="scale(0.015625)"/>
        <path id="DejaVuSans-30" d="M 2034 4250 
Q 1547 4250 1301 3770 
Q 1056 3291 1056 2328 
Q 1056 1369 1301 889 
Q 1547 409 2034 409 
Q 2525 409 2770 889 
Q 3016 1369 3016 2328 
Q 3016 3291 2770 3770 
Q 2525 4250 2034 4250 
z
M 2034 4750 
Q 2819 4750 3233 4129 
Q 3647 3509 3647 2328 
Q 3647 1150 3233 529 
Q 2819 -91 2034 -91 
Q 1250 -91 836 529 
Q 422 1150 422 2328 
Q 422 3509 836 4129 
Q 1250 4750 2034 4750 
z
" transform="scale(0.015625)"/>
        <path id="DejaVuSans-2e" d="M 684 794 
L 1344 794 
L 1344 0 
L 684 0 
L 684 794 
z
" transform="scale(0.015625)"/>
        <path id="DejaVuSans-35" d="M 691 4666 
L 3169 4666 
L 3169 4134 
L 1269 4134 
L 1269 2991 
Q 1406 3038 1543 3061 
Q 1681 3084 1819 3084 
Q 2600 3084 3056 2656 
Q 3513 2228 3513 1497 
Q 3513 744 3044 326 
Q 2575 -91 1722 -91 
Q 1428 -91 1123 -41 
Q 819 9 494 109 
L 494 744 
Q 775 591 1075 516 
Q 1375 441 1709 441 
Q 2250 441 2565 725 
Q 2881 1009 2881 1497 
Q 2881 1984 2565 2268 
Q 2250 2553 1709 2553 
Q 1456 2553 1204 2497 
Q 953 2441 691 2322 
L 691 4666 
z
" transform="scale(0.015625)"/>
       </defs>
       <use xlink:href="#DejaVuSans-2212"/>
       <use xlink:href="#DejaVuSans-30" transform="translate(83.789062 0)"/>
       <use xlink:href="#DejaVuSans-2e" transform="translate(147.412109 0)"/>
       <use xlink:href="#DejaVuSans-35" transform="translate(179.199219 0)"/>
      </g>
     </g>
    </g>
    <g id="xtick_2">
     <g id="line2d_2">
      <g>
       <use xlink:href="#m5dea00f539" x="81.732449" y="192.24" style="stroke: #000000; stroke-width: 0.8"/>
      </g>
     </g>
     <g id="text_2">
      <!-- 0.0 -->
      <g transform="translate(67.419637 212.917188) scale(0.18 -0.18)">
       <use xlink:href="#DejaVuSans-30"/>
       <use xlink:href="#DejaVuSans-2e" transform="translate(63.623047 0)"/>
       <use xlink:href="#DejaVuSans-30" transform="translate(95.410156 0)"/>
      </g>
     </g>
    </g>
    <g id="xtick_3">
     <g id="line2d_3">
      <g>
       <use xlink:href="#m5dea00f539" x="136.464898" y="192.24" style="stroke: #000000; stroke-width: 0.8"/>
      </g>
     </g>
     <g id="text_3">
      <!-- 0.5 -->
      <g transform="translate(122.152086 212.917188) scale(0.18 -0.18)">
       <use xlink:href="#DejaVuSans-30"/>
       <use xlink:href="#DejaVuSans-2e" transform="translate(63.623047 0)"/>
       <use xlink:href="#DejaVuSans-35" transform="translate(95.410156 0)"/>
      </g>
     </g>
    </g>
    <g id="xtick_4">
     <g id="line2d_4">
      <g>
       <use xlink:href="#m5dea00f539" x="191.197347" y="192.24" style="stroke: #000000; stroke-width: 0.8"/>
      </g>
     </g>
     <g id="text_4">
      <!-- 1.0 -->
      <g transform="translate(176.884535 212.917188) scale(0.18 -0.18)">
       <defs>
        <path id="DejaVuSans-31" d="M 794 531 
L 1825 531 
L 1825 4091 
L 703 3866 
L 703 4441 
L 1819 4666 
L 2450 4666 
L 2450 531 
L 3481 531 
L 3481 0 
L 794 0 
L 794 531 
z
" transform="scale(0.015625)"/>
       </defs>
       <use xlink:href="#DejaVuSans-31"/>
       <use xlink:href="#DejaVuSans-2e" transform="translate(63.623047 0)"/>
       <use xlink:href="#DejaVuSans-30" transform="translate(95.410156 0)"/>
      </g>
     </g>
    </g>
    <g id="text_5">
     <!-- Selectivity -->
     <g transform="translate(58.534375 235.8575) scale(0.2 -0.2)">
      <defs>
       <path id="DejaVuSans-53" d="M 3425 4513 
L 3425 3897 
Q 3066 4069 2747 4153 
Q 2428 4238 2131 4238 
Q 1616 4238 1336 4038 
Q 1056 3838 1056 3469 
Q 1056 3159 1242 3001 
Q 1428 2844 1947 2747 
L 2328 2669 
Q 3034 2534 3370 2195 
Q 3706 1856 3706 1288 
Q 3706 609 3251 259 
Q 2797 -91 1919 -91 
Q 1588 -91 1214 -16 
Q 841 59 441 206 
L 441 856 
Q 825 641 1194 531 
Q 1563 422 1919 422 
Q 2459 422 2753 634 
Q 3047 847 3047 1241 
Q 3047 1584 2836 1778 
Q 2625 1972 2144 2069 
L 1759 2144 
Q 1053 2284 737 2584 
Q 422 2884 422 3419 
Q 422 4038 858 4394 
Q 1294 4750 2059 4750 
Q 2388 4750 2728 4690 
Q 3069 4631 3425 4513 
z
" transform="scale(0.015625)"/>
       <path id="DejaVuSans-65" d="M 3597 1894 
L 3597 1613 
L 953 1613 
Q 991 1019 1311 708 
Q 1631 397 2203 397 
Q 2534 397 2845 478 
Q 3156 559 3463 722 
L 3463 178 
Q 3153 47 2828 -22 
Q 2503 -91 2169 -91 
Q 1331 -91 842 396 
Q 353 884 353 1716 
Q 353 2575 817 3079 
Q 1281 3584 2069 3584 
Q 2775 3584 3186 3129 
Q 3597 2675 3597 1894 
z
M 3022 2063 
Q 3016 2534 2758 2815 
Q 2500 3097 2075 3097 
Q 1594 3097 1305 2825 
Q 1016 2553 972 2059 
L 3022 2063 
z
" transform="scale(0.015625)"/>
       <path id="DejaVuSans-6c" d="M 603 4863 
L 1178 4863 
L 1178 0 
L 603 0 
L 603 4863 
z
" transform="scale(0.015625)"/>
       <path id="DejaVuSans-63" d="M 3122 3366 
L 3122 2828 
Q 2878 2963 2633 3030 
Q 2388 3097 2138 3097 
Q 1578 3097 1268 2742 
Q 959 2388 959 1747 
Q 959 1106 1268 751 
Q 1578 397 2138 397 
Q 2388 397 2633 464 
Q 2878 531 3122 666 
L 3122 134 
Q 2881 22 2623 -34 
Q 2366 -91 2075 -91 
Q 1284 -91 818 406 
Q 353 903 353 1747 
Q 353 2603 823 3093 
Q 1294 3584 2113 3584 
Q 2378 3584 2631 3529 
Q 2884 3475 3122 3366 
z
" transform="scale(0.015625)"/>
       <path id="DejaVuSans-74" d="M 1172 4494 
L 1172 3500 
L 2356 3500 
L 2356 3053 
L 1172 3053 
L 1172 1153 
Q 1172 725 1289 603 
Q 1406 481 1766 481 
L 2356 481 
L 2356 0 
L 1766 0 
Q 1100 0 847 248 
Q 594 497 594 1153 
L 594 3053 
L 172 3053 
L 172 3500 
L 594 3500 
L 594 4494 
L 1172 4494 
z
" transform="scale(0.015625)"/>
       <path id="DejaVuSans-69" d="M 603 3500 
L 1178 3500 
L 1178 0 
L 603 0 
L 603 3500 
z
M 603 4863 
L 1178 4863 
L 1178 4134 
L 603 4134 
L 603 4863 
z
" transform="scale(0.015625)"/>
       <path id="DejaVuSans-76" d="M 191 3500 
L 800 3500 
L 1894 563 
L 2988 3500 
L 3597 3500 
L 2284 0 
L 1503 0 
L 191 3500 
z
" transform="scale(0.015625)"/>
       <path id="DejaVuSans-79" d="M 2059 -325 
Q 1816 -950 1584 -1140 
Q 1353 -1331 966 -1331 
L 506 -1331 
L 506 -850 
L 844 -850 
Q 1081 -850 1212 -737 
Q 1344 -625 1503 -206 
L 1606 56 
L 191 3500 
L 800 3500 
L 1894 763 
L 2988 3500 
L 3597 3500 
L 2059 -325 
z
" transform="scale(0.015625)"/>
      </defs>
      <use xlink:href="#DejaVuSans-53"/>
      <use xlink:href="#DejaVuSans-65" transform="translate(63.476562 0)"/>
      <use xlink:href="#DejaVuSans-6c" transform="translate(125 0)"/>
      <use xlink:href="#DejaVuSans-65" transform="translate(152.783203 0)"/>
      <use xlink:href="#DejaVuSans-63" transform="translate(214.306641 0)"/>
      <use xlink:href="#DejaVuSans-74" transform="translate(269.287109 0)"/>
      <use xlink:href="#DejaVuSans-69" transform="translate(308.496094 0)"/>
      <use xlink:href="#DejaVuSans-76" transform="translate(336.279297 0)"/>
      <use xlink:href="#DejaVuSans-69" transform="translate(395.458984 0)"/>
      <use xlink:href="#DejaVuSans-74" transform="translate(423.242188 0)"/>
      <use xlink:href="#DejaVuSans-79" transform="translate(462.451172 0)"/>
     </g>
    </g>
   </g>
   <g id="matplotlib.axis_2">
    <g id="text_6">
     <!-- Neuron Count -->
     <g transform="translate(18.840625 178.269062) rotate(-90) scale(0.2 -0.2)">
      <defs>
       <path id="DejaVuSans-4e" d="M 628 4666 
L 1478 4666 
L 3547 763 
L 3547 4666 
L 4159 4666 
L 4159 0 
L 3309 0 
L 1241 3903 
L 1241 0 
L 628 0 
L 628 4666 
z
" transform="scale(0.015625)"/>
       <path id="DejaVuSans-75" d="M 544 1381 
L 544 3500 
L 1119 3500 
L 1119 1403 
Q 1119 906 1312 657 
Q 1506 409 1894 409 
Q 2359 409 2629 706 
Q 2900 1003 2900 1516 
L 2900 3500 
L 3475 3500 
L 3475 0 
L 2900 0 
L 2900 538 
Q 2691 219 2414 64 
Q 2138 -91 1772 -91 
Q 1169 -91 856 284 
Q 544 659 544 1381 
z
M 1991 3584 
L 1991 3584 
z
" transform="scale(0.015625)"/>
       <path id="DejaVuSans-72" d="M 2631 2963 
Q 2534 3019 2420 3045 
Q 2306 3072 2169 3072 
Q 1681 3072 1420 2755 
Q 1159 2438 1159 1844 
L 1159 0 
L 581 0 
L 581 3500 
L 1159 3500 
L 1159 2956 
Q 1341 3275 1631 3429 
Q 1922 3584 2338 3584 
Q 2397 3584 2469 3576 
Q 2541 3569 2628 3553 
L 2631 2963 
z
" transform="scale(0.015625)"/>
       <path id="DejaVuSans-6f" d="M 1959 3097 
Q 1497 3097 1228 2736 
Q 959 2375 959 1747 
Q 959 1119 1226 758 
Q 1494 397 1959 397 
Q 2419 397 2687 759 
Q 2956 1122 2956 1747 
Q 2956 2369 2687 2733 
Q 2419 3097 1959 3097 
z
M 1959 3584 
Q 2709 3584 3137 3096 
Q 3566 2609 3566 1747 
Q 3566 888 3137 398 
Q 2709 -91 1959 -91 
Q 1206 -91 779 398 
Q 353 888 353 1747 
Q 353 2609 779 3096 
Q 1206 3584 1959 3584 
z
" transform="scale(0.015625)"/>
       <path id="DejaVuSans-6e" d="M 3513 2113 
L 3513 0 
L 2938 0 
L 2938 2094 
Q 2938 2591 2744 2837 
Q 2550 3084 2163 3084 
Q 1697 3084 1428 2787 
Q 1159 2491 1159 1978 
L 1159 0 
L 581 0 
L 581 3500 
L 1159 3500 
L 1159 2956 
Q 1366 3272 1645 3428 
Q 1925 3584 2291 3584 
Q 2894 3584 3203 3211 
Q 3513 2838 3513 2113 
z
" transform="scale(0.015625)"/>
       <path id="DejaVuSans-20" transform="scale(0.015625)"/>
       <path id="DejaVuSans-43" d="M 4122 4306 
L 4122 3641 
Q 3803 3938 3442 4084 
Q 3081 4231 2675 4231 
Q 1875 4231 1450 3742 
Q 1025 3253 1025 2328 
Q 1025 1406 1450 917 
Q 1875 428 2675 428 
Q 3081 428 3442 575 
Q 3803 722 4122 1019 
L 4122 359 
Q 3791 134 3420 21 
Q 3050 -91 2638 -91 
Q 1578 -91 968 557 
Q 359 1206 359 2328 
Q 359 3453 968 4101 
Q 1578 4750 2638 4750 
Q 3056 4750 3426 4639 
Q 3797 4528 4122 4306 
z
" transform="scale(0.015625)"/>
      </defs>
      <use xlink:href="#DejaVuSans-4e"/>
      <use xlink:href="#DejaVuSans-65" transform="translate(74.804688 0)"/>
      <use xlink:href="#DejaVuSans-75" transform="translate(136.328125 0)"/>
      <use xlink:href="#DejaVuSans-72" transform="translate(199.707031 0)"/>
      <use xlink:href="#DejaVuSans-6f" transform="translate(238.570312 0)"/>
      <use xlink:href="#DejaVuSans-6e" transform="translate(299.751953 0)"/>
      <use xlink:href="#DejaVuSans-20" transform="translate(363.130859 0)"/>
      <use xlink:href="#DejaVuSans-43" transform="translate(394.917969 0)"/>
      <use xlink:href="#DejaVuSans-6f" transform="translate(464.742188 0)"/>
      <use xlink:href="#DejaVuSans-75" transform="translate(525.923828 0)"/>
      <use xlink:href="#DejaVuSans-6e" transform="translate(589.302734 0)"/>
      <use xlink:href="#DejaVuSans-74" transform="translate(652.681641 0)"/>
     </g>
    </g>
   </g>
   <g id="patch_163">
    <path d="M 27 192.24 
L 27 25.92 
" style="fill: none; stroke: #000000; stroke-width: 0.8; stroke-linejoin: miter; stroke-linecap: square"/>
   </g>
   <g id="patch_164">
    <path d="M 27 192.24 
L 194.4 192.24 
" style="fill: none; stroke: #000000; stroke-width: 0.8; stroke-linejoin: miter; stroke-linecap: square"/>
   </g>
   <g id="legend_1">
    <g id="patch_165">
     <path d="M 2.68875 55.797187 
L 38.68875 55.797187 
L 38.68875 43.197187 
L 2.68875 43.197187 
z
" style="fill: #00a651; opacity: 0.5"/>
    </g>
    <g id="text_7">
     <!-- MTL-sensory -->
     <g transform="translate(53.08875 55.797187) scale(0.18 -0.18)">
      <defs>
       <path id="DejaVuSans-4d" d="M 628 4666 
L 1569 4666 
L 2759 1491 
L 3956 4666 
L 4897 4666 
L 4897 0 
L 4281 0 
L 4281 4097 
L 3078 897 
L 2444 897 
L 1241 4097 
L 1241 0 
L 628 0 
L 628 4666 
z
" transform="scale(0.015625)"/>
       <path id="DejaVuSans-54" d="M -19 4666 
L 3928 4666 
L 3928 4134 
L 2272 4134 
L 2272 0 
L 1638 0 
L 1638 4134 
L -19 4134 
L -19 4666 
z
" transform="scale(0.015625)"/>
       <path id="DejaVuSans-4c" d="M 628 4666 
L 1259 4666 
L 1259 531 
L 3531 531 
L 3531 0 
L 628 0 
L 628 4666 
z
" transform="scale(0.015625)"/>
       <path id="DejaVuSans-2d" d="M 313 2009 
L 1997 2009 
L 1997 1497 
L 313 1497 
L 313 2009 
z
" transform="scale(0.015625)"/>
       <path id="DejaVuSans-73" d="M 2834 3397 
L 2834 2853 
Q 2591 2978 2328 3040 
Q 2066 3103 1784 3103 
Q 1356 3103 1142 2972 
Q 928 2841 928 2578 
Q 928 2378 1081 2264 
Q 1234 2150 1697 2047 
L 1894 2003 
Q 2506 1872 2764 1633 
Q 3022 1394 3022 966 
Q 3022 478 2636 193 
Q 2250 -91 1575 -91 
Q 1294 -91 989 -36 
Q 684 19 347 128 
L 347 722 
Q 666 556 975 473 
Q 1284 391 1588 391 
Q 1994 391 2212 530 
Q 2431 669 2431 922 
Q 2431 1156 2273 1281 
Q 2116 1406 1581 1522 
L 1381 1569 
Q 847 1681 609 1914 
Q 372 2147 372 2553 
Q 372 3047 722 3315 
Q 1072 3584 1716 3584 
Q 2034 3584 2315 3537 
Q 2597 3491 2834 3397 
z
" transform="scale(0.015625)"/>
      </defs>
      <use xlink:href="#DejaVuSans-4d"/>
      <use xlink:href="#DejaVuSans-54" transform="translate(86.279297 0)"/>
      <use xlink:href="#DejaVuSans-4c" transform="translate(147.363281 0)"/>
      <use xlink:href="#DejaVuSans-2d" transform="translate(201.326172 0)"/>
      <use xlink:href="#DejaVuSans-73" transform="translate(237.410156 0)"/>
      <use xlink:href="#DejaVuSans-65" transform="translate(289.509766 0)"/>
      <use xlink:href="#DejaVuSans-6e" transform="translate(351.033203 0)"/>
      <use xlink:href="#DejaVuSans-73" transform="translate(414.412109 0)"/>
      <use xlink:href="#DejaVuSans-6f" transform="translate(466.511719 0)"/>
      <use xlink:href="#DejaVuSans-72" transform="translate(527.693359 0)"/>
      <use xlink:href="#DejaVuSans-79" transform="translate(568.806641 0)"/>
     </g>
    </g>
    <g id="patch_166">
     <path d="M 2.68875 82.217812 
L 38.68875 82.217812 
L 38.68875 69.617812 
L 2.68875 69.617812 
z
" style="fill: #f7941d"/>
    </g>
    <g id="text_8">
     <!-- MTL-semantic -->
     <g transform="translate(53.08875 82.217812) scale(0.18 -0.18)">
      <defs>
       <path id="DejaVuSans-6d" d="M 3328 2828 
Q 3544 3216 3844 3400 
Q 4144 3584 4550 3584 
Q 5097 3584 5394 3201 
Q 5691 2819 5691 2113 
L 5691 0 
L 5113 0 
L 5113 2094 
Q 5113 2597 4934 2840 
Q 4756 3084 4391 3084 
Q 3944 3084 3684 2787 
Q 3425 2491 3425 1978 
L 3425 0 
L 2847 0 
L 2847 2094 
Q 2847 2600 2669 2842 
Q 2491 3084 2119 3084 
Q 1678 3084 1418 2786 
Q 1159 2488 1159 1978 
L 1159 0 
L 581 0 
L 581 3500 
L 1159 3500 
L 1159 2956 
Q 1356 3278 1631 3431 
Q 1906 3584 2284 3584 
Q 2666 3584 2933 3390 
Q 3200 3197 3328 2828 
z
" transform="scale(0.015625)"/>
       <path id="DejaVuSans-61" d="M 2194 1759 
Q 1497 1759 1228 1600 
Q 959 1441 959 1056 
Q 959 750 1161 570 
Q 1363 391 1709 391 
Q 2188 391 2477 730 
Q 2766 1069 2766 1631 
L 2766 1759 
L 2194 1759 
z
M 3341 1997 
L 3341 0 
L 2766 0 
L 2766 531 
Q 2569 213 2275 61 
Q 1981 -91 1556 -91 
Q 1019 -91 701 211 
Q 384 513 384 1019 
Q 384 1609 779 1909 
Q 1175 2209 1959 2209 
L 2766 2209 
L 2766 2266 
Q 2766 2663 2505 2880 
Q 2244 3097 1772 3097 
Q 1472 3097 1187 3025 
Q 903 2953 641 2809 
L 641 3341 
Q 956 3463 1253 3523 
Q 1550 3584 1831 3584 
Q 2591 3584 2966 3190 
Q 3341 2797 3341 1997 
z
" transform="scale(0.015625)"/>
      </defs>
      <use xlink:href="#DejaVuSans-4d"/>
      <use xlink:href="#DejaVuSans-54" transform="translate(86.279297 0)"/>
      <use xlink:href="#DejaVuSans-4c" transform="translate(147.363281 0)"/>
      <use xlink:href="#DejaVuSans-2d" transform="translate(201.326172 0)"/>
      <use xlink:href="#DejaVuSans-73" transform="translate(237.410156 0)"/>
      <use xlink:href="#DejaVuSans-65" transform="translate(289.509766 0)"/>
      <use xlink:href="#DejaVuSans-6d" transform="translate(351.033203 0)"/>
      <use xlink:href="#DejaVuSans-61" transform="translate(448.445312 0)"/>
      <use xlink:href="#DejaVuSans-6e" transform="translate(509.724609 0)"/>
      <use xlink:href="#DejaVuSans-74" transform="translate(573.103516 0)"/>
      <use xlink:href="#DejaVuSans-69" transform="translate(612.3125 0)"/>
      <use xlink:href="#DejaVuSans-63" transform="translate(640.095703 0)"/>
     </g>
    </g>
   </g>
  </g>
 </g>
 <defs>
  <clipPath id="pb8476de92f">
   <rect x="27" y="25.92" width="167.4" height="166.32"/>
  </clipPath>
 </defs>
</svg>
