<?xml version="1.0" encoding="utf-8" standalone="no"?>
<!DOCTYPE svg PUBLIC "-//W3C//DTD SVG 1.1//EN"
  "http://www.w3.org/Graphics/SVG/1.1/DTD/svg11.dtd">
<svg xmlns:xlink="http://www.w3.org/1999/xlink" width="252pt" height="252pt" viewBox="0 0 252 252" xmlns="http://www.w3.org/2000/svg" version="1.1">
 <metadata>
  <rdf:RDF xmlns:dc="http://purl.org/dc/elements/1.1/" xmlns:cc="http://creativecommons.org/ns#" xmlns:rdf="http://www.w3.org/1999/02/22-rdf-syntax-ns#">
   <cc:Work>
    <dc:type rdf:resource="http://purl.org/dc/dcmitype/StillImage"/>
    <dc:date>2025-09-24T17:38:16.685633</dc:date>
    <dc:format>image/svg+xml</dc:format>
    <dc:creator>
     <cc:Agent>
      <dc:title>Matplotlib v3.10.1, https://matplotlib.org/</dc:title>
     </cc:Agent>
    </dc:creator>
   </cc:Work>
  </rdf:RDF>
 </metadata>
 <defs>
  <style type="text/css">*{stroke-linejoin: round; stroke-linecap: butt}</style>
 </defs>
 <g id="figure_1">
  <g id="patch_1">
   <path d="M 0 252 
L 252 252 
L 252 0 
L 0 0 
L 0 252 
z
" style="fill: none"/>
  </g>
  <g id="axes_1">
   <g id="patch_2">
    <path d="M 70.58 168.115081 
L 241.2 168.115081 
L 241.2 19.424784 
L 70.58 19.424784 
L 70.58 168.115081 
z
" style="fill: none"/>
   </g>
   <g id="FillBetweenPolyCollection_1">
    <defs>
     <path id="md9bb628dc0" d="M 118.735163 -139.640308 
L 106.87312 -139.640308 
L 106.451036 -140.290226 
L 106.041434 -140.940144 
L 105.648994 -141.590063 
L 105.27796 -142.239981 
L 104.931971 -142.889899 
L 104.61393 -143.539818 
L 104.325879 -144.189736 
L 104.068922 -144.839654 
L 103.843181 -145.489572 
L 103.647791 -146.139491 
L 103.48094 -146.789409 
L 103.339949 -147.439327 
L 103.221391 -148.089246 
L 103.121234 -148.739164 
L 103.035016 -149.389082 
L 102.958023 -150.039001 
L 102.885482 -150.688919 
L 102.812732 -151.338837 
L 102.73539 -151.988756 
L 102.64948 -152.638674 
L 102.551536 -153.288592 
L 102.438661 -153.938511 
L 102.30855 -154.588429 
L 102.159469 -155.238347 
L 101.990201 -155.888266 
L 101.799962 -156.538184 
L 101.588291 -157.188102 
L 101.354932 -157.838021 
L 101.099716 -158.487939 
L 100.822441 -159.137857 
L 100.522785 -159.787775 
L 100.200232 -160.437694 
L 99.854044 -161.087612 
L 99.483254 -161.73753 
L 99.086709 -162.387449 
L 98.663144 -163.037367 
L 98.211278 -163.687285 
L 97.72994 -164.337204 
L 97.218204 -164.987122 
L 96.675524 -165.63704 
L 96.101857 -166.286959 
L 95.497772 -166.936877 
L 94.864521 -167.586795 
L 94.204085 -168.236714 
L 93.519169 -168.886632 
L 92.813163 -169.53655 
L 92.090065 -170.186469 
L 91.354365 -170.836387 
L 90.610908 -171.486305 
L 89.86473 -172.136224 
L 89.120897 -172.786142 
L 88.384328 -173.43606 
L 87.659646 -174.085978 
L 86.95103 -174.735897 
L 86.262103 -175.385815 
L 85.595844 -176.035733 
L 84.954542 -176.685652 
L 84.339779 -177.33557 
L 83.752461 -177.985488 
L 83.192884 -178.635407 
L 82.660844 -179.285325 
L 82.155777 -179.935243 
L 81.676937 -180.585162 
L 81.223601 -181.23508 
L 80.795286 -181.884998 
L 80.391978 -182.534917 
L 80.014347 -183.184835 
L 79.663952 -183.834753 
L 79.343392 -184.484672 
L 79.056421 -185.13459 
L 78.807981 -185.784508 
L 78.604165 -186.434426 
L 78.452094 -187.084345 
L 78.359703 -187.734263 
L 78.335455 -188.384181 
L 78.387975 -189.0341 
L 78.525646 -189.684018 
L 78.756168 -190.333936 
L 79.086124 -190.983855 
L 79.520572 -191.633773 
L 80.062696 -192.283691 
L 80.713538 -192.93361 
L 81.47183 -193.583528 
L 82.333941 -194.233446 
L 83.293939 -194.883365 
L 84.343767 -195.533283 
L 85.473516 -196.183201 
L 86.671778 -196.83312 
L 87.926057 -197.483038 
L 89.223198 -198.132956 
L 90.549828 -198.782875 
L 91.892762 -199.432793 
L 93.23936 -200.082711 
L 94.577829 -200.732629 
L 95.897442 -201.382548 
L 97.188686 -202.032466 
L 98.443338 -202.682384 
L 99.654472 -203.332303 
L 100.816419 -203.982221 
L 124.791863 -203.982221 
L 124.791863 -203.982221 
L 125.95381 -203.332303 
L 127.164945 -202.682384 
L 128.419597 -202.032466 
L 129.710841 -201.382548 
L 131.030454 -200.732629 
L 132.368923 -200.082711 
L 133.715521 -199.432793 
L 135.058455 -198.782875 
L 136.385085 -198.132956 
L 137.682226 -197.483038 
L 138.936504 -196.83312 
L 140.134767 -196.183201 
L 141.264515 -195.533283 
L 142.314343 -194.883365 
L 143.274342 -194.233446 
L 144.136453 -193.583528 
L 144.894745 -192.93361 
L 145.545587 -192.283691 
L 146.087711 -191.633773 
L 146.522159 -190.983855 
L 146.852115 -190.333936 
L 147.082637 -189.684018 
L 147.220308 -189.0341 
L 147.272828 -188.384181 
L 147.24858 -187.734263 
L 147.156189 -187.084345 
L 147.004118 -186.434426 
L 146.800302 -185.784508 
L 146.551862 -185.13459 
L 146.26489 -184.484672 
L 145.944331 -183.834753 
L 145.593935 -183.184835 
L 145.216305 -182.534917 
L 144.812997 -181.884998 
L 144.384682 -181.23508 
L 143.931346 -180.585162 
L 143.452506 -179.935243 
L 142.947439 -179.285325 
L 142.415398 -178.635407 
L 141.855822 -177.985488 
L 141.268504 -177.33557 
L 140.653741 -176.685652 
L 140.012439 -176.035733 
L 139.34618 -175.385815 
L 138.657253 -174.735897 
L 137.948637 -174.085978 
L 137.223955 -173.43606 
L 136.487386 -172.786142 
L 135.743552 -172.136224 
L 134.997375 -171.486305 
L 134.253918 -170.836387 
L 133.518218 -170.186469 
L 132.79512 -169.53655 
L 132.089114 -168.886632 
L 131.404198 -168.236714 
L 130.743761 -167.586795 
L 130.110511 -166.936877 
L 129.506426 -166.286959 
L 128.932759 -165.63704 
L 128.390079 -164.987122 
L 127.878343 -164.337204 
L 127.397005 -163.687285 
L 126.945139 -163.037367 
L 126.521573 -162.387449 
L 126.125029 -161.73753 
L 125.754239 -161.087612 
L 125.40805 -160.437694 
L 125.085498 -159.787775 
L 124.785842 -159.137857 
L 124.508567 -158.487939 
L 124.253351 -157.838021 
L 124.019992 -157.188102 
L 123.808321 -156.538184 
L 123.618082 -155.888266 
L 123.448814 -155.238347 
L 123.299733 -154.588429 
L 123.169622 -153.938511 
L 123.056747 -153.288592 
L 122.958803 -152.638674 
L 122.872893 -151.988756 
L 122.795551 -151.338837 
L 122.722801 -150.688919 
L 122.65026 -150.039001 
L 122.573267 -149.389082 
L 122.487049 -148.739164 
L 122.386892 -148.089246 
L 122.268333 -147.439327 
L 122.127343 -146.789409 
L 121.960492 -146.139491 
L 121.765102 -145.489572 
L 121.539361 -144.839654 
L 121.282404 -144.189736 
L 120.994353 -143.539818 
L 120.676311 -142.889899 
L 120.330323 -142.239981 
L 119.959289 -141.590063 
L 119.566849 -140.940144 
L 119.157247 -140.290226 
L 118.735163 -139.640308 
z
" style="stroke: #484848; stroke-opacity: 0.9; stroke-width: 1.25"/>
    </defs>
    <g clip-path="url(#p32432feefd)">
     <use xlink:href="#md9bb628dc0" x="0" y="252" style="fill: #d86743; fill-opacity: 0.9; stroke: #484848; stroke-opacity: 0.9; stroke-width: 1.25"/>
    </g>
   </g>
   <g id="FillBetweenPolyCollection_2">
    <defs>
     <path id="ma31780039b" d="M 200.7355 -172.40597 
L 197.216217 -172.40597 
L 197.157769 -172.794374 
L 197.119866 -173.182778 
L 197.102862 -173.571182 
L 197.106102 -173.959586 
L 197.127957 -174.34799 
L 197.165915 -174.736394 
L 197.216738 -175.124798 
L 197.276662 -175.513202 
L 197.341617 -175.901606 
L 197.407459 -176.29001 
L 197.470183 -176.678414 
L 197.526113 -177.066818 
L 197.57204 -177.455222 
L 197.605324 -177.843626 
L 197.623929 -178.23203 
L 197.626427 -178.620434 
L 197.611956 -179.008838 
L 197.580161 -179.397242 
L 197.531126 -179.785646 
L 197.465304 -180.17405 
L 197.383471 -180.562454 
L 197.286693 -180.950858 
L 197.176317 -181.339262 
L 197.053981 -181.727666 
L 196.921622 -182.11607 
L 196.781481 -182.504474 
L 196.636087 -182.892878 
L 196.488205 -183.281282 
L 196.340739 -183.669686 
L 196.196586 -184.05809 
L 196.058456 -184.446494 
L 195.928645 -184.834898 
L 195.808809 -185.223302 
L 195.699732 -185.611706 
L 195.601142 -186.00011 
L 195.511576 -186.388514 
L 195.428334 -186.776918 
L 195.347528 -187.165322 
L 195.264232 -187.553726 
L 195.172734 -187.94213 
L 195.066873 -188.330534 
L 194.940426 -188.718938 
L 194.787524 -189.107342 
L 194.603054 -189.495746 
L 194.382999 -189.88415 
L 194.124688 -190.272554 
L 193.826927 -190.660958 
L 193.489983 -191.049362 
L 193.115427 -191.437766 
L 192.705841 -191.82617 
L 192.264408 -192.214574 
L 191.794437 -192.602978 
L 191.298848 -192.991382 
L 190.779687 -193.379786 
L 190.237707 -193.76819 
L 189.672071 -194.156594 
L 189.080208 -194.544998 
L 188.457835 -194.933402 
L 187.79917 -195.321806 
L 187.09731 -195.71021 
L 186.344758 -196.098614 
L 185.534049 -196.487018 
L 184.658448 -196.875422 
L 183.712643 -197.263826 
L 182.693406 -197.65223 
L 181.600154 -198.040634 
L 180.435384 -198.429038 
L 179.204951 -198.817442 
L 177.918172 -199.205846 
L 176.587748 -199.59425 
L 175.22953 -199.982654 
L 173.862124 -200.371058 
L 172.506381 -200.759462 
L 171.184799 -201.147866 
L 169.920859 -201.53627 
L 168.73835 -201.924674 
L 167.660684 -202.313078 
L 166.710253 -202.701482 
L 165.907817 -203.089886 
L 165.271958 -203.47829 
L 164.81859 -203.866694 
L 164.560536 -204.255098 
L 164.507172 -204.643502 
L 164.664136 -205.031906 
L 165.033122 -205.42031 
L 165.611752 -205.808714 
L 166.393547 -206.197118 
L 167.368017 -206.585522 
L 168.520864 -206.973926 
L 169.834314 -207.362329 
L 171.287577 -207.750733 
L 172.857422 -208.139137 
L 174.518834 -208.527541 
L 176.245749 -208.915945 
L 178.011803 -209.304349 
L 179.791077 -209.692753 
L 181.558801 -210.081157 
L 183.29197 -210.469561 
L 184.969876 -210.857965 
L 212.981841 -210.857965 
L 212.981841 -210.857965 
L 214.659747 -210.469561 
L 216.392917 -210.081157 
L 218.16064 -209.692753 
L 219.939914 -209.304349 
L 221.705968 -208.915945 
L 223.432883 -208.527541 
L 225.094296 -208.139137 
L 226.66414 -207.750733 
L 228.117404 -207.362329 
L 229.430853 -206.973926 
L 230.5837 -206.585522 
L 231.55817 -206.197118 
L 232.339966 -205.808714 
L 232.918595 -205.42031 
L 233.287581 -205.031906 
L 233.444545 -204.643502 
L 233.391181 -204.255098 
L 233.133128 -203.866694 
L 232.67976 -203.47829 
L 232.0439 -203.089886 
L 231.241464 -202.701482 
L 230.291033 -202.313078 
L 229.213368 -201.924674 
L 228.030858 -201.53627 
L 226.766919 -201.147866 
L 225.445336 -200.759462 
L 224.089593 -200.371058 
L 222.722187 -199.982654 
L 221.363969 -199.59425 
L 220.033546 -199.205846 
L 218.746766 -198.817442 
L 217.516333 -198.429038 
L 216.351563 -198.040634 
L 215.258311 -197.65223 
L 214.239074 -197.263826 
L 213.29327 -196.875422 
L 212.417668 -196.487018 
L 211.60696 -196.098614 
L 210.854407 -195.71021 
L 210.152547 -195.321806 
L 209.493882 -194.933402 
L 208.871509 -194.544998 
L 208.279646 -194.156594 
L 207.714011 -193.76819 
L 207.172031 -193.379786 
L 206.652869 -192.991382 
L 206.15728 -192.602978 
L 205.687309 -192.214574 
L 205.245876 -191.82617 
L 204.83629 -191.437766 
L 204.461734 -191.049362 
L 204.12479 -190.660958 
L 203.827029 -190.272554 
L 203.568718 -189.88415 
L 203.348663 -189.495746 
L 203.164193 -189.107342 
L 203.011291 -188.718938 
L 202.884844 -188.330534 
L 202.778983 -187.94213 
L 202.687485 -187.553726 
L 202.604189 -187.165322 
L 202.523383 -186.776918 
L 202.440141 -186.388514 
L 202.350575 -186.00011 
L 202.251985 -185.611706 
L 202.142908 -185.223302 
L 202.023072 -184.834898 
L 201.893262 -184.446494 
L 201.755131 -184.05809 
L 201.610979 -183.669686 
L 201.463512 -183.281282 
L 201.31563 -182.892878 
L 201.170236 -182.504474 
L 201.030095 -182.11607 
L 200.897736 -181.727666 
L 200.7754 -181.339262 
L 200.665025 -180.950858 
L 200.568246 -180.562454 
L 200.486413 -180.17405 
L 200.420591 -179.785646 
L 200.371556 -179.397242 
L 200.339761 -179.008838 
L 200.32529 -178.620434 
L 200.327788 -178.23203 
L 200.346393 -177.843626 
L 200.379677 -177.455222 
L 200.425605 -177.066818 
L 200.481534 -176.678414 
L 200.544258 -176.29001 
L 200.6101 -175.901606 
L 200.675055 -175.513202 
L 200.734979 -175.124798 
L 200.785803 -174.736394 
L 200.82376 -174.34799 
L 200.845615 -173.959586 
L 200.848856 -173.571182 
L 200.831851 -173.182778 
L 200.793948 -172.794374 
L 200.7355 -172.40597 
z
" style="stroke: #484848; stroke-opacity: 0.9; stroke-width: 1.25"/>
    </defs>
    <g clip-path="url(#p32432feefd)">
     <use xlink:href="#ma31780039b" x="0" y="252" style="fill: #1ea0d1; fill-opacity: 0.9; stroke: #484848; stroke-opacity: 0.9; stroke-width: 1.25"/>
    </g>
   </g>
   <g id="matplotlib.axis_1">
    <g id="xtick_1">
     <g id="line2d_1">
      <defs>
       <path id="m308d3e043d" d="M 0 0 
L 0 3.5 
" style="stroke: #000000; stroke-width: 0.8"/>
      </defs>
      <g>
       <use xlink:href="#m308d3e043d" x="112.804141" y="168.115081" style="stroke: #000000; stroke-width: 0.8"/>
      </g>
     </g>
     <g id="text_1">
      <!-- interleaved -->
      <g transform="translate(71.032192 238.061592) rotate(-30) scale(0.18 -0.18)">
       <defs>
        <path id="DejaVuSans-69" d="M 603 3500 
L 1178 3500 
L 1178 0 
L 603 0 
L 603 3500 
z
M 603 4863 
L 1178 4863 
L 1178 4134 
L 603 4134 
L 603 4863 
z
" transform="scale(0.015625)"/>
        <path id="DejaVuSans-6e" d="M 3513 2113 
L 3513 0 
L 2938 0 
L 2938 2094 
Q 2938 2591 2744 2837 
Q 2550 3084 2163 3084 
Q 1697 3084 1428 2787 
Q 1159 2491 1159 1978 
L 1159 0 
L 581 0 
L 581 3500 
L 1159 3500 
L 1159 2956 
Q 1366 3272 1645 3428 
Q 1925 3584 2291 3584 
Q 2894 3584 3203 3211 
Q 3513 2838 3513 2113 
z
" transform="scale(0.015625)"/>
        <path id="DejaVuSans-74" d="M 1172 4494 
L 1172 3500 
L 2356 3500 
L 2356 3053 
L 1172 3053 
L 1172 1153 
Q 1172 725 1289 603 
Q 1406 481 1766 481 
L 2356 481 
L 2356 0 
L 1766 0 
Q 1100 0 847 248 
Q 594 497 594 1153 
L 594 3053 
L 172 3053 
L 172 3500 
L 594 3500 
L 594 4494 
L 1172 4494 
z
" transform="scale(0.015625)"/>
        <path id="DejaVuSans-65" d="M 3597 1894 
L 3597 1613 
L 953 1613 
Q 991 1019 1311 708 
Q 1631 397 2203 397 
Q 2534 397 2845 478 
Q 3156 559 3463 722 
L 3463 178 
Q 3153 47 2828 -22 
Q 2503 -91 2169 -91 
Q 1331 -91 842 396 
Q 353 884 353 1716 
Q 353 2575 817 3079 
Q 1281 3584 2069 3584 
Q 2775 3584 3186 3129 
Q 3597 2675 3597 1894 
z
M 3022 2063 
Q 3016 2534 2758 2815 
Q 2500 3097 2075 3097 
Q 1594 3097 1305 2825 
Q 1016 2553 972 2059 
L 3022 2063 
z
" transform="scale(0.015625)"/>
        <path id="DejaVuSans-72" d="M 2631 2963 
Q 2534 3019 2420 3045 
Q 2306 3072 2169 3072 
Q 1681 3072 1420 2755 
Q 1159 2438 1159 1844 
L 1159 0 
L 581 0 
L 581 3500 
L 1159 3500 
L 1159 2956 
Q 1341 3275 1631 3429 
Q 1922 3584 2338 3584 
Q 2397 3584 2469 3576 
Q 2541 3569 2628 3553 
L 2631 2963 
z
" transform="scale(0.015625)"/>
        <path id="DejaVuSans-6c" d="M 603 4863 
L 1178 4863 
L 1178 0 
L 603 0 
L 603 4863 
z
" transform="scale(0.015625)"/>
        <path id="DejaVuSans-61" d="M 2194 1759 
Q 1497 1759 1228 1600 
Q 959 1441 959 1056 
Q 959 750 1161 570 
Q 1363 391 1709 391 
Q 2188 391 2477 730 
Q 2766 1069 2766 1631 
L 2766 1759 
L 2194 1759 
z
M 3341 1997 
L 3341 0 
L 2766 0 
L 2766 531 
Q 2569 213 2275 61 
Q 1981 -91 1556 -91 
Q 1019 -91 701 211 
Q 384 513 384 1019 
Q 384 1609 779 1909 
Q 1175 2209 1959 2209 
L 2766 2209 
L 2766 2266 
Q 2766 2663 2505 2880 
Q 2244 3097 1772 3097 
Q 1472 3097 1187 3025 
Q 903 2953 641 2809 
L 641 3341 
Q 956 3463 1253 3523 
Q 1550 3584 1831 3584 
Q 2591 3584 2966 3190 
Q 3341 2797 3341 1997 
z
" transform="scale(0.015625)"/>
        <path id="DejaVuSans-76" d="M 191 3500 
L 800 3500 
L 1894 563 
L 2988 3500 
L 3597 3500 
L 2284 0 
L 1503 0 
L 191 3500 
z
" transform="scale(0.015625)"/>
        <path id="DejaVuSans-64" d="M 2906 2969 
L 2906 4863 
L 3481 4863 
L 3481 0 
L 2906 0 
L 2906 525 
Q 2725 213 2448 61 
Q 2172 -91 1784 -91 
Q 1150 -91 751 415 
Q 353 922 353 1747 
Q 353 2572 751 3078 
Q 1150 3584 1784 3584 
Q 2172 3584 2448 3432 
Q 2725 3281 2906 2969 
z
M 947 1747 
Q 947 1113 1208 752 
Q 1469 391 1925 391 
Q 2381 391 2643 752 
Q 2906 1113 2906 1747 
Q 2906 2381 2643 2742 
Q 2381 3103 1925 3103 
Q 1469 3103 1208 2742 
Q 947 2381 947 1747 
z
" transform="scale(0.015625)"/>
       </defs>
       <use xlink:href="#DejaVuSans-69"/>
       <use xlink:href="#DejaVuSans-6e" transform="translate(27.783203 0)"/>
       <use xlink:href="#DejaVuSans-74" transform="translate(91.162109 0)"/>
       <use xlink:href="#DejaVuSans-65" transform="translate(130.371094 0)"/>
       <use xlink:href="#DejaVuSans-72" transform="translate(191.894531 0)"/>
       <use xlink:href="#DejaVuSans-6c" transform="translate(233.007812 0)"/>
       <use xlink:href="#DejaVuSans-65" transform="translate(260.791016 0)"/>
       <use xlink:href="#DejaVuSans-61" transform="translate(322.314453 0)"/>
       <use xlink:href="#DejaVuSans-76" transform="translate(383.59375 0)"/>
       <use xlink:href="#DejaVuSans-65" transform="translate(442.773438 0)"/>
       <use xlink:href="#DejaVuSans-64" transform="translate(504.296875 0)"/>
      </g>
     </g>
    </g>
    <g id="xtick_2">
     <g id="line2d_2">
      <g>
       <use xlink:href="#m308d3e043d" x="198.975859" y="168.115081" style="stroke: #000000; stroke-width: 0.8"/>
      </g>
     </g>
     <g id="text_2">
      <!-- blocked -->
      <g transform="translate(171.316335 221.765967) rotate(-30) scale(0.18 -0.18)">
       <defs>
        <path id="DejaVuSans-62" d="M 3116 1747 
Q 3116 2381 2855 2742 
Q 2594 3103 2138 3103 
Q 1681 3103 1420 2742 
Q 1159 2381 1159 1747 
Q 1159 1113 1420 752 
Q 1681 391 2138 391 
Q 2594 391 2855 752 
Q 3116 1113 3116 1747 
z
M 1159 2969 
Q 1341 3281 1617 3432 
Q 1894 3584 2278 3584 
Q 2916 3584 3314 3078 
Q 3713 2572 3713 1747 
Q 3713 922 3314 415 
Q 2916 -91 2278 -91 
Q 1894 -91 1617 61 
Q 1341 213 1159 525 
L 1159 0 
L 581 0 
L 581 4863 
L 1159 4863 
L 1159 2969 
z
" transform="scale(0.015625)"/>
        <path id="DejaVuSans-6f" d="M 1959 3097 
Q 1497 3097 1228 2736 
Q 959 2375 959 1747 
Q 959 1119 1226 758 
Q 1494 397 1959 397 
Q 2419 397 2687 759 
Q 2956 1122 2956 1747 
Q 2956 2369 2687 2733 
Q 2419 3097 1959 3097 
z
M 1959 3584 
Q 2709 3584 3137 3096 
Q 3566 2609 3566 1747 
Q 3566 888 3137 398 
Q 2709 -91 1959 -91 
Q 1206 -91 779 398 
Q 353 888 353 1747 
Q 353 2609 779 3096 
Q 1206 3584 1959 3584 
z
" transform="scale(0.015625)"/>
        <path id="DejaVuSans-63" d="M 3122 3366 
L 3122 2828 
Q 2878 2963 2633 3030 
Q 2388 3097 2138 3097 
Q 1578 3097 1268 2742 
Q 959 2388 959 1747 
Q 959 1106 1268 751 
Q 1578 397 2138 397 
Q 2388 397 2633 464 
Q 2878 531 3122 666 
L 3122 134 
Q 2881 22 2623 -34 
Q 2366 -91 2075 -91 
Q 1284 -91 818 406 
Q 353 903 353 1747 
Q 353 2603 823 3093 
Q 1294 3584 2113 3584 
Q 2378 3584 2631 3529 
Q 2884 3475 3122 3366 
z
" transform="scale(0.015625)"/>
        <path id="DejaVuSans-6b" d="M 581 4863 
L 1159 4863 
L 1159 1991 
L 2875 3500 
L 3609 3500 
L 1753 1863 
L 3688 0 
L 2938 0 
L 1159 1709 
L 1159 0 
L 581 0 
L 581 4863 
z
" transform="scale(0.015625)"/>
       </defs>
       <use xlink:href="#DejaVuSans-62"/>
       <use xlink:href="#DejaVuSans-6c" transform="translate(63.476562 0)"/>
       <use xlink:href="#DejaVuSans-6f" transform="translate(91.259766 0)"/>
       <use xlink:href="#DejaVuSans-63" transform="translate(152.441406 0)"/>
       <use xlink:href="#DejaVuSans-6b" transform="translate(207.421875 0)"/>
       <use xlink:href="#DejaVuSans-65" transform="translate(261.707031 0)"/>
       <use xlink:href="#DejaVuSans-64" transform="translate(323.230469 0)"/>
      </g>
     </g>
    </g>
   </g>
   <g id="matplotlib.axis_2">
    <g id="ytick_1">
     <g id="line2d_3">
      <defs>
       <path id="m6adb7239dd" d="M 0 0 
L -3.5 0 
" style="stroke: #000000; stroke-width: 0.8"/>
      </defs>
      <g>
       <use xlink:href="#m6adb7239dd" x="70.58" y="168.115081" style="stroke: #000000; stroke-width: 0.8"/>
      </g>
     </g>
     <g id="text_3">
      <!-- 0.0 -->
      <g transform="translate(34.954375 174.953675) scale(0.18 -0.18)">
       <defs>
        <path id="DejaVuSans-30" d="M 2034 4250 
Q 1547 4250 1301 3770 
Q 1056 3291 1056 2328 
Q 1056 1369 1301 889 
Q 1547 409 2034 409 
Q 2525 409 2770 889 
Q 3016 1369 3016 2328 
Q 3016 3291 2770 3770 
Q 2525 4250 2034 4250 
z
M 2034 4750 
Q 2819 4750 3233 4129 
Q 3647 3509 3647 2328 
Q 3647 1150 3233 529 
Q 2819 -91 2034 -91 
Q 1250 -91 836 529 
Q 422 1150 422 2328 
Q 422 3509 836 4129 
Q 1250 4750 2034 4750 
z
" transform="scale(0.015625)"/>
        <path id="DejaVuSans-2e" d="M 684 794 
L 1344 794 
L 1344 0 
L 684 0 
L 684 794 
z
" transform="scale(0.015625)"/>
       </defs>
       <use xlink:href="#DejaVuSans-30"/>
       <use xlink:href="#DejaVuSans-2e" transform="translate(63.623047 0)"/>
       <use xlink:href="#DejaVuSans-30" transform="translate(95.410156 0)"/>
      </g>
     </g>
    </g>
    <g id="ytick_2">
     <g id="line2d_4">
      <g>
       <use xlink:href="#m6adb7239dd" x="70.58" y="102.942212" style="stroke: #000000; stroke-width: 0.8"/>
      </g>
     </g>
     <g id="text_4">
      <!-- 0.5 -->
      <g transform="translate(34.954375 109.780805) scale(0.18 -0.18)">
       <defs>
        <path id="DejaVuSans-35" d="M 691 4666 
L 3169 4666 
L 3169 4134 
L 1269 4134 
L 1269 2991 
Q 1406 3038 1543 3061 
Q 1681 3084 1819 3084 
Q 2600 3084 3056 2656 
Q 3513 2228 3513 1497 
Q 3513 744 3044 326 
Q 2575 -91 1722 -91 
Q 1428 -91 1123 -41 
Q 819 9 494 109 
L 494 744 
Q 775 591 1075 516 
Q 1375 441 1709 441 
Q 2250 441 2565 725 
Q 2881 1009 2881 1497 
Q 2881 1984 2565 2268 
Q 2250 2553 1709 2553 
Q 1456 2553 1204 2497 
Q 953 2441 691 2322 
L 691 4666 
z
" transform="scale(0.015625)"/>
       </defs>
       <use xlink:href="#DejaVuSans-30"/>
       <use xlink:href="#DejaVuSans-2e" transform="translate(63.623047 0)"/>
       <use xlink:href="#DejaVuSans-35" transform="translate(95.410156 0)"/>
      </g>
     </g>
    </g>
    <g id="ytick_3">
     <g id="line2d_5">
      <g>
       <use xlink:href="#m6adb7239dd" x="70.58" y="37.769342" style="stroke: #000000; stroke-width: 0.8"/>
      </g>
     </g>
     <g id="text_5">
      <!-- 1.0 -->
      <g transform="translate(34.954375 44.607936) scale(0.18 -0.18)">
       <defs>
        <path id="DejaVuSans-31" d="M 794 531 
L 1825 531 
L 1825 4091 
L 703 3866 
L 703 4441 
L 1819 4666 
L 2450 4666 
L 2450 531 
L 3481 531 
L 3481 0 
L 794 0 
L 794 531 
z
" transform="scale(0.015625)"/>
       </defs>
       <use xlink:href="#DejaVuSans-31"/>
       <use xlink:href="#DejaVuSans-2e" transform="translate(63.623047 0)"/>
       <use xlink:href="#DejaVuSans-30" transform="translate(95.410156 0)"/>
      </g>
     </g>
    </g>
    <g id="text_6">
     <!-- Accuracy -->
     <g transform="translate(26.795 139.426183) rotate(-90) scale(0.2 -0.2)">
      <defs>
       <path id="DejaVuSans-41" d="M 2188 4044 
L 1331 1722 
L 3047 1722 
L 2188 4044 
z
M 1831 4666 
L 2547 4666 
L 4325 0 
L 3669 0 
L 3244 1197 
L 1141 1197 
L 716 0 
L 50 0 
L 1831 4666 
z
" transform="scale(0.015625)"/>
       <path id="DejaVuSans-75" d="M 544 1381 
L 544 3500 
L 1119 3500 
L 1119 1403 
Q 1119 906 1312 657 
Q 1506 409 1894 409 
Q 2359 409 2629 706 
Q 2900 1003 2900 1516 
L 2900 3500 
L 3475 3500 
L 3475 0 
L 2900 0 
L 2900 538 
Q 2691 219 2414 64 
Q 2138 -91 1772 -91 
Q 1169 -91 856 284 
Q 544 659 544 1381 
z
M 1991 3584 
L 1991 3584 
z
" transform="scale(0.015625)"/>
       <path id="DejaVuSans-79" d="M 2059 -325 
Q 1816 -950 1584 -1140 
Q 1353 -1331 966 -1331 
L 506 -1331 
L 506 -850 
L 844 -850 
Q 1081 -850 1212 -737 
Q 1344 -625 1503 -206 
L 1606 56 
L 191 3500 
L 800 3500 
L 1894 763 
L 2988 3500 
L 3597 3500 
L 2059 -325 
z
" transform="scale(0.015625)"/>
      </defs>
      <use xlink:href="#DejaVuSans-41"/>
      <use xlink:href="#DejaVuSans-63" transform="translate(66.658203 0)"/>
      <use xlink:href="#DejaVuSans-63" transform="translate(121.638672 0)"/>
      <use xlink:href="#DejaVuSans-75" transform="translate(176.619141 0)"/>
      <use xlink:href="#DejaVuSans-72" transform="translate(239.998047 0)"/>
      <use xlink:href="#DejaVuSans-61" transform="translate(281.111328 0)"/>
      <use xlink:href="#DejaVuSans-63" transform="translate(342.390625 0)"/>
      <use xlink:href="#DejaVuSans-79" transform="translate(397.371094 0)"/>
     </g>
    </g>
   </g>
   <g id="line2d_6">
    <path d="M 112.804141 39.491745 
L 112.804141 23.850256 
L 198.975859 23.850256 
L 198.975859 39.491745 
" style="fill: none; stroke: #000000; stroke-width: 2; stroke-linecap: square"/>
   </g>
   <g id="patch_3">
    <path d="M 70.58 168.115081 
L 70.58 19.424784 
" style="fill: none; stroke: #000000; stroke-width: 0.8; stroke-linejoin: miter; stroke-linecap: square"/>
   </g>
   <g id="patch_4">
    <path d="M 70.58 168.115081 
L 241.2 168.115081 
" style="fill: none; stroke: #000000; stroke-width: 0.8; stroke-linejoin: miter; stroke-linecap: square"/>
   </g>
   <g id="PathCollection_1">
    <defs>
     <path id="me25aefbe40" d="M 0 1.5 
C 0.397805 1.5 0.77937 1.341951 1.06066 1.06066 
C 1.341951 0.77937 1.5 0.397805 1.5 0 
C 1.5 -0.397805 1.341951 -0.77937 1.06066 -1.06066 
C 0.77937 -1.341951 0.397805 -1.5 0 -1.5 
C -0.397805 -1.5 -0.77937 -1.341951 -1.06066 -1.06066 
C -1.341951 -0.77937 -1.5 -0.397805 -1.5 0 
C -1.5 0.397805 -1.341951 0.77937 -1.06066 1.06066 
C -0.77937 1.341951 -0.397805 1.5 0 1.5 
z
"/>
    </defs>
    <g clip-path="url(#p32432feefd)">
     <use xlink:href="#me25aefbe40" x="101.951087" y="62.355804" style="fill-opacity: 0.05"/>
     <use xlink:href="#me25aefbe40" x="114.248412" y="95.039999" style="fill-opacity: 0.05"/>
     <use xlink:href="#me25aefbe40" x="125.659095" y="112.359692" style="fill-opacity: 0.05"/>
     <use xlink:href="#me25aefbe40" x="120.808628" y="69.378185" style="fill-opacity: 0.05"/>
     <use xlink:href="#me25aefbe40" x="123.370902" y="80.881194" style="fill-opacity: 0.05"/>
     <use xlink:href="#me25aefbe40" x="118.277196" y="78.567561" style="fill-opacity: 0.05"/>
     <use xlink:href="#me25aefbe40" x="119.431662" y="93.052231" style="fill-opacity: 0.05"/>
     <use xlink:href="#me25aefbe40" x="124.840457" y="66.005485" style="fill-opacity: 0.05"/>
     <use xlink:href="#me25aefbe40" x="104.175526" y="78.192814" style="fill-opacity: 0.05"/>
     <use xlink:href="#me25aefbe40" x="112.439634" y="49.190891" style="fill-opacity: 0.05"/>
     <use xlink:href="#me25aefbe40" x="103.194597" y="63.463748" style="fill-opacity: 0.05"/>
     <use xlink:href="#me25aefbe40" x="129.613417" y="88.653062" style="fill-opacity: 0.05"/>
     <use xlink:href="#me25aefbe40" x="128.110284" y="88.229438" style="fill-opacity: 0.05"/>
     <use xlink:href="#me25aefbe40" x="96.928788" y="72.913813" style="fill-opacity: 0.05"/>
     <use xlink:href="#me25aefbe40" x="119.890048" y="50.608399" style="fill-opacity: 0.05"/>
     <use xlink:href="#me25aefbe40" x="127.461893" y="70.420953" style="fill-opacity: 0.05"/>
     <use xlink:href="#me25aefbe40" x="101.793993" y="78.257989" style="fill-opacity: 0.05"/>
     <use xlink:href="#me25aefbe40" x="115.146124" y="62.974948" style="fill-opacity: 0.05"/>
     <use xlink:href="#me25aefbe40" x="127.125477" y="67.194897" style="fill-opacity: 0.05"/>
     <use xlink:href="#me25aefbe40" x="96.739871" y="59.423028" style="fill-opacity: 0.05"/>
     <use xlink:href="#me25aefbe40" x="119.608959" y="57.3212" style="fill-opacity: 0.05"/>
     <use xlink:href="#me25aefbe40" x="105.819028" y="60.49838" style="fill-opacity: 0.05"/>
     <use xlink:href="#me25aefbe40" x="127.432521" y="56.913876" style="fill-opacity: 0.05"/>
     <use xlink:href="#me25aefbe40" x="129.040901" y="76.921942" style="fill-opacity: 0.05"/>
     <use xlink:href="#me25aefbe40" x="128.117424" y="58.755008" style="fill-opacity: 0.05"/>
     <use xlink:href="#me25aefbe40" x="111.915339" y="74.852705" style="fill-opacity: 0.05"/>
     <use xlink:href="#me25aefbe40" x="125.283276" y="69.915861" style="fill-opacity: 0.05"/>
     <use xlink:href="#me25aefbe40" x="124.680307" y="59.960704" style="fill-opacity: 0.05"/>
     <use xlink:href="#me25aefbe40" x="106.568772" y="82.315002" style="fill-opacity: 0.05"/>
     <use xlink:href="#me25aefbe40" x="124.141426" y="57.370084" style="fill-opacity: 0.05"/>
     <use xlink:href="#me25aefbe40" x="96.845403" y="69.198957" style="fill-opacity: 0.05"/>
     <use xlink:href="#me25aefbe40" x="116.122438" y="72.930105" style="fill-opacity: 0.05"/>
     <use xlink:href="#me25aefbe40" x="103.497901" y="79.479978" style="fill-opacity: 0.05"/>
     <use xlink:href="#me25aefbe40" x="99.72558" y="76.058401" style="fill-opacity: 0.05"/>
     <use xlink:href="#me25aefbe40" x="98.222274" y="95.007415" style="fill-opacity: 0.05"/>
     <use xlink:href="#me25aefbe40" x="119.569958" y="58.706124" style="fill-opacity: 0.05"/>
     <use xlink:href="#me25aefbe40" x="107.284842" y="59.325268" style="fill-opacity: 0.05"/>
     <use xlink:href="#me25aefbe40" x="120.551557" y="85.85063" style="fill-opacity: 0.05"/>
     <use xlink:href="#me25aefbe40" x="97.822545" y="65.777381" style="fill-opacity: 0.05"/>
     <use xlink:href="#me25aefbe40" x="106.437442" y="56.718356" style="fill-opacity: 0.05"/>
     <use xlink:href="#me25aefbe40" x="114.165354" y="108.335268" style="fill-opacity: 0.05"/>
     <use xlink:href="#me25aefbe40" x="122.824987" y="57.3375" style="fill-opacity: 0.05"/>
     <use xlink:href="#me25aefbe40" x="106.556778" y="57.598188" style="fill-opacity: 0.05"/>
     <use xlink:href="#me25aefbe40" x="117.143452" y="72.164325" style="fill-opacity: 0.05"/>
     <use xlink:href="#me25aefbe40" x="126.108288" y="73.581833" style="fill-opacity: 0.05"/>
     <use xlink:href="#me25aefbe40" x="116.797793" y="80.539038" style="fill-opacity: 0.05"/>
     <use xlink:href="#me25aefbe40" x="103.599605" y="92.726367" style="fill-opacity: 0.05"/>
     <use xlink:href="#me25aefbe40" x="96.410861" y="72.082857" style="fill-opacity: 0.05"/>
     <use xlink:href="#me25aefbe40" x="125.560964" y="88.701938" style="fill-opacity: 0.05"/>
     <use xlink:href="#me25aefbe40" x="96.302927" y="61.133816" style="fill-opacity: 0.05"/>
     <use xlink:href="#me25aefbe40" x="125.719616" y="106.412668" style="fill-opacity: 0.05"/>
     <use xlink:href="#me25aefbe40" x="113.801566" y="67.765157" style="fill-opacity: 0.05"/>
     <use xlink:href="#me25aefbe40" x="127.938228" y="60.10734" style="fill-opacity: 0.05"/>
     <use xlink:href="#me25aefbe40" x="123.102807" y="69.704049" style="fill-opacity: 0.05"/>
     <use xlink:href="#me25aefbe40" x="129.967276" y="63.610384" style="fill-opacity: 0.05"/>
     <use xlink:href="#me25aefbe40" x="107.658374" y="91.406611" style="fill-opacity: 0.05"/>
     <use xlink:href="#me25aefbe40" x="122.013771" y="78.697906" style="fill-opacity: 0.05"/>
     <use xlink:href="#me25aefbe40" x="109.423829" y="57.304908" style="fill-opacity: 0.05"/>
     <use xlink:href="#me25aefbe40" x="112.11048" y="70.828277" style="fill-opacity: 0.05"/>
     <use xlink:href="#me25aefbe40" x="117.199087" y="57.858876" style="fill-opacity: 0.05"/>
     <use xlink:href="#me25aefbe40" x="125.684301" y="74.787529" style="fill-opacity: 0.05"/>
     <use xlink:href="#me25aefbe40" x="129.489863" y="99.960551" style="fill-opacity: 0.05"/>
     <use xlink:href="#me25aefbe40" x="122.051174" y="67.797741" style="fill-opacity: 0.05"/>
     <use xlink:href="#me25aefbe40" x="109.96967" y="48.653215" style="fill-opacity: 0.05"/>
     <use xlink:href="#me25aefbe40" x="110.093421" y="48.017779" style="fill-opacity: 0.05"/>
     <use xlink:href="#me25aefbe40" x="120.993291" y="82.233534" style="fill-opacity: 0.05"/>
     <use xlink:href="#me25aefbe40" x="103.800133" y="101.752807" style="fill-opacity: 0.05"/>
     <use xlink:href="#me25aefbe40" x="99.377696" y="60.221392" style="fill-opacity: 0.05"/>
     <use xlink:href="#me25aefbe40" x="107.793158" y="72.571657" style="fill-opacity: 0.05"/>
     <use xlink:href="#me25aefbe40" x="105.470549" y="71.789577" style="fill-opacity: 0.05"/>
     <use xlink:href="#me25aefbe40" x="105.78315" y="60.465796" style="fill-opacity: 0.05"/>
     <use xlink:href="#me25aefbe40" x="103.62195" y="70.111381" style="fill-opacity: 0.05"/>
     <use xlink:href="#me25aefbe40" x="97.020695" y="62.486156" style="fill-opacity: 0.05"/>
     <use xlink:href="#me25aefbe40" x="96.185889" y="105.174384" style="fill-opacity: 0.05"/>
     <use xlink:href="#me25aefbe40" x="129.615292" y="52.514707" style="fill-opacity: 0.05"/>
     <use xlink:href="#me25aefbe40" x="110.314576" y="112.00124" style="fill-opacity: 0.05"/>
     <use xlink:href="#me25aefbe40" x="108.817033" y="77.182637" style="fill-opacity: 0.05"/>
     <use xlink:href="#me25aefbe40" x="118.996347" y="76.987117" style="fill-opacity: 0.05"/>
     <use xlink:href="#me25aefbe40" x="103.092723" y="87.398482" style="fill-opacity: 0.05"/>
     <use xlink:href="#me25aefbe40" x="128.313713" y="54.53506" style="fill-opacity: 0.05"/>
     <use xlink:href="#me25aefbe40" x="122.674078" y="66.412817" style="fill-opacity: 0.05"/>
     <use xlink:href="#me25aefbe40" x="98.651678" y="87.528826" style="fill-opacity: 0.05"/>
     <use xlink:href="#me25aefbe40" x="109.963259" y="108.221212" style="fill-opacity: 0.05"/>
     <use xlink:href="#me25aefbe40" x="125.871852" y="55.49636" style="fill-opacity: 0.05"/>
     <use xlink:href="#me25aefbe40" x="128.13347" y="60.514672" style="fill-opacity: 0.05"/>
     <use xlink:href="#me25aefbe40" x="111.680514" y="107.325088" style="fill-opacity: 0.05"/>
     <use xlink:href="#me25aefbe40" x="116.713283" y="96.685619" style="fill-opacity: 0.05"/>
     <use xlink:href="#me25aefbe40" x="101.327239" y="58.983112" style="fill-opacity: 0.05"/>
     <use xlink:href="#me25aefbe40" x="129.734079" y="48.213291" style="fill-opacity: 0.05"/>
     <use xlink:href="#me25aefbe40" x="103.555217" y="81.646974" style="fill-opacity: 0.05"/>
     <use xlink:href="#me25aefbe40" x="128.064524" y="104.734464" style="fill-opacity: 0.05"/>
     <use xlink:href="#me25aefbe40" x="117.962265" y="64.490216" style="fill-opacity: 0.05"/>
     <use xlink:href="#me25aefbe40" x="116.517687" y="66.396525" style="fill-opacity: 0.05"/>
     <use xlink:href="#me25aefbe40" x="113.241498" y="63.887372" style="fill-opacity: 0.05"/>
     <use xlink:href="#me25aefbe40" x="103.520683" y="70.192841" style="fill-opacity: 0.05"/>
     <use xlink:href="#me25aefbe40" x="101.654487" y="79.610322" style="fill-opacity: 0.05"/>
     <use xlink:href="#me25aefbe40" x="103.169668" y="56.979044" style="fill-opacity: 0.05"/>
     <use xlink:href="#me25aefbe40" x="101.99608" y="50.950555" style="fill-opacity: 0.05"/>
     <use xlink:href="#me25aefbe40" x="122.441051" y="102.53488" style="fill-opacity: 0.05"/>
     <use xlink:href="#me25aefbe40" x="107.638156" y="61.55744" style="fill-opacity: 0.05"/>
    </g>
   </g>
   <g id="PathCollection_2">
    <g clip-path="url(#p32432feefd)">
     <use xlink:href="#me25aefbe40" x="183.735276" y="48.066655" style="fill-opacity: 0.05"/>
     <use xlink:href="#me25aefbe40" x="215.14521" y="48.685799" style="fill-opacity: 0.05"/>
     <use xlink:href="#me25aefbe40" x="212.204454" y="45.052411" style="fill-opacity: 0.05"/>
     <use xlink:href="#me25aefbe40" x="213.719918" y="50.103307" style="fill-opacity: 0.05"/>
     <use xlink:href="#me25aefbe40" x="216.034681" y="50.722451" style="fill-opacity: 0.05"/>
     <use xlink:href="#me25aefbe40" x="187.735456" y="68.058437" style="fill-opacity: 0.05"/>
     <use xlink:href="#me25aefbe40" x="195.399457" y="79.056354" style="fill-opacity: 0.05"/>
     <use xlink:href="#me25aefbe40" x="207.877" y="51.748919" style="fill-opacity: 0.05"/>
     <use xlink:href="#me25aefbe40" x="205.732432" y="41.223503" style="fill-opacity: 0.05"/>
     <use xlink:href="#me25aefbe40" x="187.046105" y="45.036119" style="fill-opacity: 0.05"/>
     <use xlink:href="#me25aefbe40" x="209.862212" y="43.683779" style="fill-opacity: 0.05"/>
     <use xlink:href="#me25aefbe40" x="189.477687" y="52.579875" style="fill-opacity: 0.05"/>
     <use xlink:href="#me25aefbe40" x="189.456214" y="49.875203" style="fill-opacity: 0.05"/>
     <use xlink:href="#me25aefbe40" x="200.250318" y="46.616563" style="fill-opacity: 0.05"/>
     <use xlink:href="#me25aefbe40" x="202.179376" y="43.439383" style="fill-opacity: 0.05"/>
     <use xlink:href="#me25aefbe40" x="201.736325" y="46.502503" style="fill-opacity: 0.05"/>
     <use xlink:href="#me25aefbe40" x="184.894946" y="55.936276" style="fill-opacity: 0.05"/>
     <use xlink:href="#me25aefbe40" x="211.986439" y="46.013711" style="fill-opacity: 0.05"/>
     <use xlink:href="#me25aefbe40" x="190.8964" y="49.500455" style="fill-opacity: 0.05"/>
     <use xlink:href="#me25aefbe40" x="186.205724" y="56.213264" style="fill-opacity: 0.05"/>
     <use xlink:href="#me25aefbe40" x="212.375494" y="44.400683" style="fill-opacity: 0.05"/>
     <use xlink:href="#me25aefbe40" x="214.681567" y="43.357915" style="fill-opacity: 0.05"/>
     <use xlink:href="#me25aefbe40" x="211.457922" y="48.962779" style="fill-opacity: 0.05"/>
     <use xlink:href="#me25aefbe40" x="209.644471" y="45.231639" style="fill-opacity: 0.05"/>
     <use xlink:href="#me25aefbe40" x="204.326846" y="47.137939" style="fill-opacity: 0.05"/>
     <use xlink:href="#me25aefbe40" x="200.728845" y="45.084995" style="fill-opacity: 0.05"/>
     <use xlink:href="#me25aefbe40" x="184.739835" y="77.003409" style="fill-opacity: 0.05"/>
     <use xlink:href="#me25aefbe40" x="195.820361" y="48.962779" style="fill-opacity: 0.05"/>
     <use xlink:href="#me25aefbe40" x="194.587599" y="52.987207" style="fill-opacity: 0.05"/>
     <use xlink:href="#me25aefbe40" x="190.694887" y="48.930195" style="fill-opacity: 0.05"/>
     <use xlink:href="#me25aefbe40" x="206.676857" y="47.154239" style="fill-opacity: 0.05"/>
     <use xlink:href="#me25aefbe40" x="198.833701" y="51.292711" style="fill-opacity: 0.05"/>
     <use xlink:href="#me25aefbe40" x="184.535072" y="49.956671" style="fill-opacity: 0.05"/>
     <use xlink:href="#me25aefbe40" x="189.330941" y="48.245883" style="fill-opacity: 0.05"/>
     <use xlink:href="#me25aefbe40" x="205.292548" y="47.414927" style="fill-opacity: 0.05"/>
     <use xlink:href="#me25aefbe40" x="184.365646" y="45.883367" style="fill-opacity: 0.05"/>
     <use xlink:href="#me25aefbe40" x="211.0815" y="41.810062" style="fill-opacity: 0.05"/>
     <use xlink:href="#me25aefbe40" x="198.808566" y="48.001479" style="fill-opacity: 0.05"/>
     <use xlink:href="#me25aefbe40" x="198.306703" y="46.046295" style="fill-opacity: 0.05"/>
     <use xlink:href="#me25aefbe40" x="202.161034" y="41.614542" style="fill-opacity: 0.05"/>
     <use xlink:href="#me25aefbe40" x="210.167185" y="54.73058" style="fill-opacity: 0.05"/>
     <use xlink:href="#me25aefbe40" x="193.730042" y="45.915951" style="fill-opacity: 0.05"/>
     <use xlink:href="#me25aefbe40" x="205.111842" y="45.997419" style="fill-opacity: 0.05"/>
     <use xlink:href="#me25aefbe40" x="201.241553" y="45.394567" style="fill-opacity: 0.05"/>
     <use xlink:href="#me25aefbe40" x="190.945629" y="52.579875" style="fill-opacity: 0.05"/>
     <use xlink:href="#me25aefbe40" x="212.026737" y="49.321235" style="fill-opacity: 0.05"/>
     <use xlink:href="#me25aefbe40" x="209.227743" y="46.551387" style="fill-opacity: 0.05"/>
     <use xlink:href="#me25aefbe40" x="204.437485" y="42.168511" style="fill-opacity: 0.05"/>
     <use xlink:href="#me25aefbe40" x="211.05995" y="52.416947" style="fill-opacity: 0.05"/>
     <use xlink:href="#me25aefbe40" x="211.636007" y="51.700043" style="fill-opacity: 0.05"/>
     <use xlink:href="#me25aefbe40" x="206.157857" y="44.384391" style="fill-opacity: 0.05"/>
     <use xlink:href="#me25aefbe40" x="210.592265" y="48.229591" style="fill-opacity: 0.05"/>
     <use xlink:href="#me25aefbe40" x="205.782441" y="56.767232" style="fill-opacity: 0.05"/>
     <use xlink:href="#me25aefbe40" x="205.185074" y="50.494347" style="fill-opacity: 0.05"/>
     <use xlink:href="#me25aefbe40" x="203.064237" y="51.146075" style="fill-opacity: 0.05"/>
     <use xlink:href="#me25aefbe40" x="207.686669" y="79.59403" style="fill-opacity: 0.05"/>
     <use xlink:href="#me25aefbe40" x="187.208425" y="49.858911" style="fill-opacity: 0.05"/>
     <use xlink:href="#me25aefbe40" x="212.103974" y="51.357887" style="fill-opacity: 0.05"/>
     <use xlink:href="#me25aefbe40" x="211.792817" y="59.520788" style="fill-opacity: 0.05"/>
     <use xlink:href="#me25aefbe40" x="182.749631" y="64.848672" style="fill-opacity: 0.05"/>
     <use xlink:href="#me25aefbe40" x="210.206334" y="58.152156" style="fill-opacity: 0.05"/>
     <use xlink:href="#me25aefbe40" x="186.18349" y="60.40062" style="fill-opacity: 0.05"/>
     <use xlink:href="#me25aefbe40" x="193.292622" y="53.361948" style="fill-opacity: 0.05"/>
     <use xlink:href="#me25aefbe40" x="207.369268" y="46.274399" style="fill-opacity: 0.05"/>
     <use xlink:href="#me25aefbe40" x="187.282698" y="43.830423" style="fill-opacity: 0.05"/>
     <use xlink:href="#me25aefbe40" x="209.935764" y="52.319187" style="fill-opacity: 0.05"/>
     <use xlink:href="#me25aefbe40" x="210.424088" y="63.724436" style="fill-opacity: 0.05"/>
     <use xlink:href="#me25aefbe40" x="199.233262" y="48.832435" style="fill-opacity: 0.05"/>
     <use xlink:href="#me25aefbe40" x="181.961628" y="42.592135" style="fill-opacity: 0.05"/>
     <use xlink:href="#me25aefbe40" x="191.635343" y="46.551387" style="fill-opacity: 0.05"/>
     <use xlink:href="#me25aefbe40" x="203.006176" y="46.844667" style="fill-opacity: 0.05"/>
     <use xlink:href="#me25aefbe40" x="215.561714" y="44.661371" style="fill-opacity: 0.05"/>
     <use xlink:href="#me25aefbe40" x="203.519298" y="48.245883" style="fill-opacity: 0.05"/>
     <use xlink:href="#me25aefbe40" x="190.696603" y="41.142035" style="fill-opacity: 0.05"/>
     <use xlink:href="#me25aefbe40" x="203.594859" y="41.158334" style="fill-opacity: 0.05"/>
     <use xlink:href="#me25aefbe40" x="200.354102" y="45.410859" style="fill-opacity: 0.05"/>
     <use xlink:href="#me25aefbe40" x="208.621762" y="56.506544" style="fill-opacity: 0.05"/>
     <use xlink:href="#me25aefbe40" x="185.428997" y="45.199047" style="fill-opacity: 0.05"/>
     <use xlink:href="#me25aefbe40" x="207.973148" y="66.494285" style="fill-opacity: 0.05"/>
     <use xlink:href="#me25aefbe40" x="200.398263" y="54.095144" style="fill-opacity: 0.05"/>
     <use xlink:href="#me25aefbe40" x="214.934585" y="52.645051" style="fill-opacity: 0.05"/>
     <use xlink:href="#me25aefbe40" x="193.5254" y="47.382343" style="fill-opacity: 0.05"/>
     <use xlink:href="#me25aefbe40" x="203.547161" y="71.561473" style="fill-opacity: 0.05"/>
     <use xlink:href="#me25aefbe40" x="213.8673" y="45.524911" style="fill-opacity: 0.05"/>
     <use xlink:href="#me25aefbe40" x="185.274891" y="48.816143" style="fill-opacity: 0.05"/>
     <use xlink:href="#me25aefbe40" x="214.04655" y="48.734675" style="fill-opacity: 0.05"/>
     <use xlink:href="#me25aefbe40" x="205.452033" y="65.565569" style="fill-opacity: 0.05"/>
     <use xlink:href="#me25aefbe40" x="184.079769" y="48.832435" style="fill-opacity: 0.05"/>
     <use xlink:href="#me25aefbe40" x="192.115334" y="49.581923" style="fill-opacity: 0.05"/>
     <use xlink:href="#me25aefbe40" x="206.151277" y="58.429144" style="fill-opacity: 0.05"/>
     <use xlink:href="#me25aefbe40" x="184.063002" y="49.940379" style="fill-opacity: 0.05"/>
     <use xlink:href="#me25aefbe40" x="201.808166" y="55.610412" style="fill-opacity: 0.05"/>
     <use xlink:href="#me25aefbe40" x="193.66365" y="44.938359" style="fill-opacity: 0.05"/>
     <use xlink:href="#me25aefbe40" x="203.143658" y="43.765247" style="fill-opacity: 0.05"/>
     <use xlink:href="#me25aefbe40" x="183.318183" y="58.168448" style="fill-opacity: 0.05"/>
     <use xlink:href="#me25aefbe40" x="211.782244" y="49.321235" style="fill-opacity: 0.05"/>
     <use xlink:href="#me25aefbe40" x="215.296402" y="43.879299" style="fill-opacity: 0.05"/>
     <use xlink:href="#me25aefbe40" x="215.137463" y="48.148123" style="fill-opacity: 0.05"/>
     <use xlink:href="#me25aefbe40" x="207.581029" y="58.070688" style="fill-opacity: 0.05"/>
     <use xlink:href="#me25aefbe40" x="186.225417" y="45.410859" style="fill-opacity: 0.05"/>
    </g>
   </g>
   <g id="text_7">
    <!-- *** -->
    <g transform="translate(143.89 20.522756) scale(0.16 -0.16)">
     <defs>
      <path id="DejaVuSans-2a" d="M 3009 3897 
L 1888 3291 
L 3009 2681 
L 2828 2375 
L 1778 3009 
L 1778 1831 
L 1422 1831 
L 1422 3009 
L 372 2375 
L 191 2681 
L 1313 3291 
L 191 3897 
L 372 4206 
L 1422 3572 
L 1422 4750 
L 1778 4750 
L 1778 3572 
L 2828 4206 
L 3009 3897 
z
" transform="scale(0.015625)"/>
     </defs>
     <use xlink:href="#DejaVuSans-2a"/>
     <use xlink:href="#DejaVuSans-2a" transform="translate(50 0)"/>
     <use xlink:href="#DejaVuSans-2a" transform="translate(100 0)"/>
    </g>
   </g>
   <g id="LineCollection_1">
    <path d="M 112.804141 74.925619 
L 112.804141 71.633261 
" clip-path="url(#p32432feefd)" style="fill: none; stroke: #000000; stroke-width: 2"/>
    <path d="M 198.975859 51.494532 
L 198.975859 49.919402 
" clip-path="url(#p32432feefd)" style="fill: none; stroke: #000000; stroke-width: 2"/>
   </g>
   <g id="line2d_7">
    <defs>
     <path id="m1c45d36f2b" d="M 5 0 
L -5 -0 
" style="stroke: #000000"/>
    </defs>
    <g clip-path="url(#p32432feefd)">
     <use xlink:href="#m1c45d36f2b" x="112.804141" y="74.925619" style="stroke: #000000"/>
     <use xlink:href="#m1c45d36f2b" x="198.975859" y="51.494532" style="stroke: #000000"/>
    </g>
   </g>
   <g id="line2d_8">
    <g clip-path="url(#p32432feefd)">
     <use xlink:href="#m1c45d36f2b" x="112.804141" y="71.633261" style="stroke: #000000"/>
     <use xlink:href="#m1c45d36f2b" x="198.975859" y="49.919402" style="stroke: #000000"/>
    </g>
   </g>
   <g id="line2d_9">
    <defs>
     <path id="m77576a39dc" d="M 0 3 
C 0.795609 3 1.55874 2.683901 2.12132 2.12132 
C 2.683901 1.55874 3 0.795609 3 0 
C 3 -0.795609 2.683901 -1.55874 2.12132 -2.12132 
C 1.55874 -2.683901 0.795609 -3 0 -3 
C -0.795609 -3 -1.55874 -2.683901 -2.12132 -2.12132 
C -2.683901 -1.55874 -3 -0.795609 -3 0 
C -3 0.795609 -2.683901 1.55874 -2.12132 2.12132 
C -1.55874 2.683901 -0.795609 3 0 3 
z
" style="stroke: #000000"/>
    </defs>
    <g clip-path="url(#p32432feefd)">
     <use xlink:href="#m77576a39dc" x="112.804141" y="73.27944" style="stroke: #000000"/>
     <use xlink:href="#m77576a39dc" x="198.975859" y="50.706967" style="stroke: #000000"/>
    </g>
   </g>
  </g>
 </g>
 <defs>
  <clipPath id="p32432feefd">
   <rect x="70.58" y="19.424784" width="170.62" height="148.690297"/>
  </clipPath>
 </defs>
</svg>
