<?xml version="1.0" encoding="utf-8" standalone="no"?>
<!DOCTYPE svg PUBLIC "-//W3C//DTD SVG 1.1//EN"
  "http://www.w3.org/Graphics/SVG/1.1/DTD/svg11.dtd">
<svg xmlns:xlink="http://www.w3.org/1999/xlink" width="252pt" height="252pt" viewBox="0 0 252 252" xmlns="http://www.w3.org/2000/svg" version="1.1">
 <metadata>
  <rdf:RDF xmlns:dc="http://purl.org/dc/elements/1.1/" xmlns:cc="http://creativecommons.org/ns#" xmlns:rdf="http://www.w3.org/1999/02/22-rdf-syntax-ns#">
   <cc:Work>
    <dc:type rdf:resource="http://purl.org/dc/dcmitype/StillImage"/>
    <dc:date>2025-10-02T07:38:32.800424</dc:date>
    <dc:format>image/svg+xml</dc:format>
    <dc:creator>
     <cc:Agent>
      <dc:title>Matplotlib v3.10.1, https://matplotlib.org/</dc:title>
     </cc:Agent>
    </dc:creator>
   </cc:Work>
  </rdf:RDF>
 </metadata>
 <defs>
  <style type="text/css">*{stroke-linejoin: round; stroke-linecap: butt}</style>
 </defs>
 <g id="figure_1">
  <g id="patch_1">
   <path d="M 0 252 
L 252 252 
L 252 0 
L 0 0 
L 0 252 
z
" style="fill: none"/>
  </g>
  <g id="axes_1">
   <g id="patch_2">
    <path d="M 70.58 168.115081 
L 241.2 168.115081 
L 241.2 18.809278 
L 70.58 18.809278 
L 70.58 168.115081 
z
" style="fill: none"/>
   </g>
   <g id="FillBetweenPolyCollection_1">
    <defs>
     <path id="m6f3f9c2416" d="M 114.005775 -129.925362 
L 111.602508 -129.925362 
L 111.538953 -130.692563 
L 111.475592 -131.459764 
L 111.410107 -132.226965 
L 111.339831 -132.994166 
L 111.261934 -133.761367 
L 111.173617 -134.528568 
L 111.072304 -135.295769 
L 110.9558 -136.06297 
L 110.822406 -136.830171 
L 110.670978 -137.597372 
L 110.500937 -138.364573 
L 110.312222 -139.131774 
L 110.10522 -139.898975 
L 109.880664 -140.666176 
L 109.639538 -141.433377 
L 109.382988 -142.200578 
L 109.112259 -142.967779 
L 108.828655 -143.73498 
L 108.533514 -144.502181 
L 108.228201 -145.269382 
L 107.914085 -146.036583 
L 107.592508 -146.803784 
L 107.264713 -147.570985 
L 106.931739 -148.338186 
L 106.594276 -149.105387 
L 106.252484 -149.872587 
L 105.905807 -150.639788 
L 105.552793 -151.406989 
L 105.190942 -152.17419 
L 104.816633 -152.941391 
L 104.425125 -153.708592 
L 104.010665 -154.475793 
L 103.566715 -155.242994 
L 103.086276 -156.010195 
L 102.562309 -156.777396 
L 101.988214 -157.544597 
L 101.358332 -158.311798 
L 100.668429 -159.078999 
L 99.916111 -159.8462 
L 99.101142 -160.613401 
L 98.225615 -161.380602 
L 97.293987 -162.147803 
L 96.312955 -162.915004 
L 95.291188 -163.682205 
L 94.238961 -164.449406 
L 93.167701 -165.216607 
L 92.089504 -165.983808 
L 91.01665 -166.751009 
L 89.961155 -167.51821 
L 88.93437 -168.285411 
L 87.946657 -169.052612 
L 87.007127 -169.819813 
L 86.123439 -170.587014 
L 85.301653 -171.354215 
L 84.546128 -172.121415 
L 83.859448 -172.888616 
L 83.242387 -173.655817 
L 82.693906 -174.423018 
L 82.211197 -175.190219 
L 81.789792 -175.95742 
L 81.423737 -176.724621 
L 81.105853 -177.491822 
L 80.828078 -178.259023 
L 80.581889 -179.026224 
L 80.358789 -179.793425 
L 80.150825 -180.560626 
L 79.95111 -181.327827 
L 79.754313 -182.095028 
L 79.557075 -182.862229 
L 79.358318 -183.62943 
L 79.159436 -184.396631 
L 78.96433 -185.163832 
L 78.779319 -185.931033 
L 78.612907 -186.698234 
L 78.475449 -187.465435 
L 78.378724 -188.232636 
L 78.335455 -188.999837 
L 78.358797 -189.767038 
L 78.46182 -190.534239 
L 78.656998 -191.30144 
L 78.955733 -192.068641 
L 79.367906 -192.835842 
L 79.901487 -193.603042 
L 80.562186 -194.370243 
L 81.353163 -195.137444 
L 82.274814 -195.904645 
L 83.324612 -196.671846 
L 84.497043 -197.439047 
L 85.78362 -198.206248 
L 87.172989 -198.973449 
L 88.651141 -199.74065 
L 90.201711 -200.507851 
L 91.806387 -201.275052 
L 93.445397 -202.042253 
L 95.098086 -202.809454 
L 96.74354 -203.576655 
L 98.361248 -204.343856 
L 99.931758 -205.111057 
L 101.437309 -205.878258 
L 124.170974 -205.878258 
L 124.170974 -205.878258 
L 125.676525 -205.111057 
L 127.247035 -204.343856 
L 128.864743 -203.576655 
L 130.510197 -202.809454 
L 132.162886 -202.042253 
L 133.801896 -201.275052 
L 135.406572 -200.507851 
L 136.957142 -199.74065 
L 138.435293 -198.973449 
L 139.824663 -198.206248 
L 141.11124 -197.439047 
L 142.283671 -196.671846 
L 143.333469 -195.904645 
L 144.255119 -195.137444 
L 145.046097 -194.370243 
L 145.706795 -193.603042 
L 146.240377 -192.835842 
L 146.65255 -192.068641 
L 146.951284 -191.30144 
L 147.146463 -190.534239 
L 147.249486 -189.767038 
L 147.272828 -188.999837 
L 147.229559 -188.232636 
L 147.132834 -187.465435 
L 146.995376 -186.698234 
L 146.828964 -185.931033 
L 146.643953 -185.163832 
L 146.448847 -184.396631 
L 146.249964 -183.62943 
L 146.051208 -182.862229 
L 145.85397 -182.095028 
L 145.657173 -181.327827 
L 145.457458 -180.560626 
L 145.249494 -179.793425 
L 145.026394 -179.026224 
L 144.780205 -178.259023 
L 144.50243 -177.491822 
L 144.184546 -176.724621 
L 143.818491 -175.95742 
L 143.397086 -175.190219 
L 142.914377 -174.423018 
L 142.365896 -173.655817 
L 141.748835 -172.888616 
L 141.062155 -172.121415 
L 140.30663 -171.354215 
L 139.484844 -170.587014 
L 138.601155 -169.819813 
L 137.661625 -169.052612 
L 136.673913 -168.285411 
L 135.647128 -167.51821 
L 134.591633 -166.751009 
L 133.518779 -165.983808 
L 132.440582 -165.216607 
L 131.369322 -164.449406 
L 130.317095 -163.682205 
L 129.295328 -162.915004 
L 128.314295 -162.147803 
L 127.382668 -161.380602 
L 126.507141 -160.613401 
L 125.692171 -159.8462 
L 124.939854 -159.078999 
L 124.249951 -158.311798 
L 123.620069 -157.544597 
L 123.045973 -156.777396 
L 122.522006 -156.010195 
L 122.041568 -155.242994 
L 121.597618 -154.475793 
L 121.183158 -153.708592 
L 120.79165 -152.941391 
L 120.417341 -152.17419 
L 120.05549 -151.406989 
L 119.702475 -150.639788 
L 119.355799 -149.872587 
L 119.014007 -149.105387 
L 118.676544 -148.338186 
L 118.34357 -147.570985 
L 118.015775 -146.803784 
L 117.694198 -146.036583 
L 117.380082 -145.269382 
L 117.074769 -144.502181 
L 116.779628 -143.73498 
L 116.496024 -142.967779 
L 116.225295 -142.200578 
L 115.968745 -141.433377 
L 115.727618 -140.666176 
L 115.503063 -139.898975 
L 115.296061 -139.131774 
L 115.107346 -138.364573 
L 114.937305 -137.597372 
L 114.785877 -136.830171 
L 114.652483 -136.06297 
L 114.535979 -135.295769 
L 114.434666 -134.528568 
L 114.346349 -133.761367 
L 114.268452 -132.994166 
L 114.198176 -132.226965 
L 114.132691 -131.459764 
L 114.06933 -130.692563 
L 114.005775 -129.925362 
z
" style="stroke: #484848; stroke-opacity: 0.9; stroke-width: 1.25"/>
    </defs>
    <g clip-path="url(#pd6d607ac0a)">
     <use xlink:href="#m6f3f9c2416" x="0" y="252" style="fill: #d86743; fill-opacity: 0.9; stroke: #484848; stroke-opacity: 0.9; stroke-width: 1.25"/>
    </g>
   </g>
   <g id="FillBetweenPolyCollection_2">
    <defs>
     <path id="m6779cfd812" d="M 201.360044 -171.474055 
L 196.591673 -171.474055 
L 196.45572 -171.883053 
L 196.334789 -172.292052 
L 196.230057 -172.70105 
L 196.142014 -173.110049 
L 196.070492 -173.519047 
L 196.014745 -173.928046 
L 195.973576 -174.337044 
L 195.945494 -174.746043 
L 195.928887 -175.155041 
L 195.92219 -175.56404 
L 195.924046 -175.973038 
L 195.933421 -176.382037 
L 195.949684 -176.791035 
L 195.972638 -177.200034 
L 196.002498 -177.609032 
L 196.039819 -178.018031 
L 196.085399 -178.427029 
L 196.140142 -178.836028 
L 196.20491 -179.245026 
L 196.280384 -179.654025 
L 196.366923 -180.063023 
L 196.464454 -180.472022 
L 196.572385 -180.88102 
L 196.689552 -181.290019 
L 196.814196 -181.699017 
L 196.943973 -182.108016 
L 197.075988 -182.517014 
L 197.206853 -182.926013 
L 197.332755 -183.335011 
L 197.449543 -183.74401 
L 197.552817 -184.153008 
L 197.638024 -184.562007 
L 197.700555 -184.971005 
L 197.735852 -185.380004 
L 197.739517 -185.789002 
L 197.707423 -186.198001 
L 197.635836 -186.606999 
L 197.521536 -187.015998 
L 197.361935 -187.424996 
L 197.155194 -187.833995 
L 196.900312 -188.242993 
L 196.597191 -188.651992 
L 196.246661 -189.06099 
L 195.850452 -189.469989 
L 195.411107 -189.878988 
L 194.931827 -190.287986 
L 194.416268 -190.696985 
L 193.868265 -191.105983 
L 193.291541 -191.514982 
L 192.689388 -191.92398 
L 192.064363 -192.332979 
L 191.418033 -192.741977 
L 190.750784 -193.150976 
L 190.061727 -193.559974 
L 189.348726 -193.968973 
L 188.608535 -194.377971 
L 187.837062 -194.78697 
L 187.029733 -195.195968 
L 186.181928 -195.604967 
L 185.289466 -196.013965 
L 184.349074 -196.422964 
L 183.358833 -196.831962 
L 182.318529 -197.240961 
L 181.229909 -197.649959 
L 180.0968 -198.058958 
L 178.925113 -198.467956 
L 177.722718 -198.876955 
L 176.499228 -199.285953 
L 175.265719 -199.694952 
L 174.034427 -200.10395 
L 172.818441 -200.512949 
L 171.631448 -200.921947 
L 170.487517 -201.330946 
L 169.400964 -201.739944 
L 168.386254 -202.148943 
L 167.457948 -202.557941 
L 166.630651 -202.96694 
L 165.918932 -203.375938 
L 165.337175 -203.784937 
L 164.899352 -204.193935 
L 164.618677 -204.602934 
L 164.507172 -205.011932 
L 164.575132 -205.420931 
L 164.830545 -205.829929 
L 165.278494 -206.238928 
L 165.920605 -206.647926 
L 166.75459 -207.056925 
L 167.773935 -207.465923 
L 168.967778 -207.874922 
L 170.320991 -208.28392 
L 171.814491 -208.692919 
L 173.425761 -209.101917 
L 175.12955 -209.510916 
L 176.898728 -209.919914 
L 178.705222 -210.328913 
L 180.521 -210.737911 
L 182.319021 -211.14691 
L 184.074119 -211.555908 
L 185.763755 -211.964907 
L 212.187963 -211.964907 
L 212.187963 -211.964907 
L 213.877599 -211.555908 
L 215.632696 -211.14691 
L 217.430717 -210.737911 
L 219.246495 -210.328913 
L 221.052989 -209.919914 
L 222.822167 -209.510916 
L 224.525957 -209.101917 
L 226.137226 -208.692919 
L 227.630726 -208.28392 
L 228.983939 -207.874922 
L 230.177782 -207.465923 
L 231.197128 -207.056925 
L 232.031113 -206.647926 
L 232.673223 -206.238928 
L 233.121172 -205.829929 
L 233.376585 -205.420931 
L 233.444545 -205.011932 
L 233.33304 -204.602934 
L 233.052365 -204.193935 
L 232.614542 -203.784937 
L 232.032785 -203.375938 
L 231.321066 -202.96694 
L 230.49377 -202.557941 
L 229.565464 -202.148943 
L 228.550753 -201.739944 
L 227.4642 -201.330946 
L 226.32027 -200.921947 
L 225.133276 -200.512949 
L 223.91729 -200.10395 
L 222.685998 -199.694952 
L 221.45249 -199.285953 
L 220.228999 -198.876955 
L 219.026604 -198.467956 
L 217.854917 -198.058958 
L 216.721809 -197.649959 
L 215.633188 -197.240961 
L 214.592884 -196.831962 
L 213.602643 -196.422964 
L 212.662251 -196.013965 
L 211.769789 -195.604967 
L 210.921985 -195.195968 
L 210.114655 -194.78697 
L 209.343182 -194.377971 
L 208.602991 -193.968973 
L 207.88999 -193.559974 
L 207.200934 -193.150976 
L 206.533684 -192.741977 
L 205.887354 -192.332979 
L 205.262329 -191.92398 
L 204.660176 -191.514982 
L 204.083452 -191.105983 
L 203.53545 -190.696985 
L 203.01989 -190.287986 
L 202.540611 -189.878988 
L 202.101265 -189.469989 
L 201.705056 -189.06099 
L 201.354526 -188.651992 
L 201.051405 -188.242993 
L 200.796523 -187.833995 
L 200.589782 -187.424996 
L 200.430182 -187.015998 
L 200.315881 -186.606999 
L 200.244294 -186.198001 
L 200.2122 -185.789002 
L 200.215865 -185.380004 
L 200.251162 -184.971005 
L 200.313693 -184.562007 
L 200.3989 -184.153008 
L 200.502174 -183.74401 
L 200.618962 -183.335011 
L 200.744864 -182.926013 
L 200.875729 -182.517014 
L 201.007744 -182.108016 
L 201.137521 -181.699017 
L 201.262165 -181.290019 
L 201.379332 -180.88102 
L 201.487263 -180.472022 
L 201.584794 -180.063023 
L 201.671334 -179.654025 
L 201.746807 -179.245026 
L 201.811576 -178.836028 
L 201.866318 -178.427029 
L 201.911898 -178.018031 
L 201.94922 -177.609032 
L 201.979079 -177.200034 
L 202.002033 -176.791035 
L 202.018296 -176.382037 
L 202.027671 -175.973038 
L 202.029527 -175.56404 
L 202.022831 -175.155041 
L 202.006223 -174.746043 
L 201.978141 -174.337044 
L 201.936973 -173.928046 
L 201.881225 -173.519047 
L 201.809703 -173.110049 
L 201.72166 -172.70105 
L 201.616928 -172.292052 
L 201.495997 -171.883053 
L 201.360044 -171.474055 
z
" style="stroke: #484848; stroke-opacity: 0.9; stroke-width: 1.25"/>
    </defs>
    <g clip-path="url(#pd6d607ac0a)">
     <use xlink:href="#m6779cfd812" x="0" y="252" style="fill: #1ea0d1; fill-opacity: 0.9; stroke: #484848; stroke-opacity: 0.9; stroke-width: 1.25"/>
    </g>
   </g>
   <g id="matplotlib.axis_1">
    <g id="xtick_1">
     <g id="line2d_1">
      <defs>
       <path id="mf852bb9a64" d="M 0 0 
L 0 3.5 
" style="stroke: #000000; stroke-width: 0.8"/>
      </defs>
      <g>
       <use xlink:href="#mf852bb9a64" x="112.804141" y="168.115081" style="stroke: #000000; stroke-width: 0.8"/>
      </g>
     </g>
     <g id="text_1">
      <!-- interleaved -->
      <g transform="translate(71.032192 238.061592) rotate(-30) scale(0.18 -0.18)">
       <defs>
        <path id="DejaVuSans-69" d="M 603 3500 
L 1178 3500 
L 1178 0 
L 603 0 
L 603 3500 
z
M 603 4863 
L 1178 4863 
L 1178 4134 
L 603 4134 
L 603 4863 
z
" transform="scale(0.015625)"/>
        <path id="DejaVuSans-6e" d="M 3513 2113 
L 3513 0 
L 2938 0 
L 2938 2094 
Q 2938 2591 2744 2837 
Q 2550 3084 2163 3084 
Q 1697 3084 1428 2787 
Q 1159 2491 1159 1978 
L 1159 0 
L 581 0 
L 581 3500 
L 1159 3500 
L 1159 2956 
Q 1366 3272 1645 3428 
Q 1925 3584 2291 3584 
Q 2894 3584 3203 3211 
Q 3513 2838 3513 2113 
z
" transform="scale(0.015625)"/>
        <path id="DejaVuSans-74" d="M 1172 4494 
L 1172 3500 
L 2356 3500 
L 2356 3053 
L 1172 3053 
L 1172 1153 
Q 1172 725 1289 603 
Q 1406 481 1766 481 
L 2356 481 
L 2356 0 
L 1766 0 
Q 1100 0 847 248 
Q 594 497 594 1153 
L 594 3053 
L 172 3053 
L 172 3500 
L 594 3500 
L 594 4494 
L 1172 4494 
z
" transform="scale(0.015625)"/>
        <path id="DejaVuSans-65" d="M 3597 1894 
L 3597 1613 
L 953 1613 
Q 991 1019 1311 708 
Q 1631 397 2203 397 
Q 2534 397 2845 478 
Q 3156 559 3463 722 
L 3463 178 
Q 3153 47 2828 -22 
Q 2503 -91 2169 -91 
Q 1331 -91 842 396 
Q 353 884 353 1716 
Q 353 2575 817 3079 
Q 1281 3584 2069 3584 
Q 2775 3584 3186 3129 
Q 3597 2675 3597 1894 
z
M 3022 2063 
Q 3016 2534 2758 2815 
Q 2500 3097 2075 3097 
Q 1594 3097 1305 2825 
Q 1016 2553 972 2059 
L 3022 2063 
z
" transform="scale(0.015625)"/>
        <path id="DejaVuSans-72" d="M 2631 2963 
Q 2534 3019 2420 3045 
Q 2306 3072 2169 3072 
Q 1681 3072 1420 2755 
Q 1159 2438 1159 1844 
L 1159 0 
L 581 0 
L 581 3500 
L 1159 3500 
L 1159 2956 
Q 1341 3275 1631 3429 
Q 1922 3584 2338 3584 
Q 2397 3584 2469 3576 
Q 2541 3569 2628 3553 
L 2631 2963 
z
" transform="scale(0.015625)"/>
        <path id="DejaVuSans-6c" d="M 603 4863 
L 1178 4863 
L 1178 0 
L 603 0 
L 603 4863 
z
" transform="scale(0.015625)"/>
        <path id="DejaVuSans-61" d="M 2194 1759 
Q 1497 1759 1228 1600 
Q 959 1441 959 1056 
Q 959 750 1161 570 
Q 1363 391 1709 391 
Q 2188 391 2477 730 
Q 2766 1069 2766 1631 
L 2766 1759 
L 2194 1759 
z
M 3341 1997 
L 3341 0 
L 2766 0 
L 2766 531 
Q 2569 213 2275 61 
Q 1981 -91 1556 -91 
Q 1019 -91 701 211 
Q 384 513 384 1019 
Q 384 1609 779 1909 
Q 1175 2209 1959 2209 
L 2766 2209 
L 2766 2266 
Q 2766 2663 2505 2880 
Q 2244 3097 1772 3097 
Q 1472 3097 1187 3025 
Q 903 2953 641 2809 
L 641 3341 
Q 956 3463 1253 3523 
Q 1550 3584 1831 3584 
Q 2591 3584 2966 3190 
Q 3341 2797 3341 1997 
z
" transform="scale(0.015625)"/>
        <path id="DejaVuSans-76" d="M 191 3500 
L 800 3500 
L 1894 563 
L 2988 3500 
L 3597 3500 
L 2284 0 
L 1503 0 
L 191 3500 
z
" transform="scale(0.015625)"/>
        <path id="DejaVuSans-64" d="M 2906 2969 
L 2906 4863 
L 3481 4863 
L 3481 0 
L 2906 0 
L 2906 525 
Q 2725 213 2448 61 
Q 2172 -91 1784 -91 
Q 1150 -91 751 415 
Q 353 922 353 1747 
Q 353 2572 751 3078 
Q 1150 3584 1784 3584 
Q 2172 3584 2448 3432 
Q 2725 3281 2906 2969 
z
M 947 1747 
Q 947 1113 1208 752 
Q 1469 391 1925 391 
Q 2381 391 2643 752 
Q 2906 1113 2906 1747 
Q 2906 2381 2643 2742 
Q 2381 3103 1925 3103 
Q 1469 3103 1208 2742 
Q 947 2381 947 1747 
z
" transform="scale(0.015625)"/>
       </defs>
       <use xlink:href="#DejaVuSans-69"/>
       <use xlink:href="#DejaVuSans-6e" transform="translate(27.783203 0)"/>
       <use xlink:href="#DejaVuSans-74" transform="translate(91.162109 0)"/>
       <use xlink:href="#DejaVuSans-65" transform="translate(130.371094 0)"/>
       <use xlink:href="#DejaVuSans-72" transform="translate(191.894531 0)"/>
       <use xlink:href="#DejaVuSans-6c" transform="translate(233.007812 0)"/>
       <use xlink:href="#DejaVuSans-65" transform="translate(260.791016 0)"/>
       <use xlink:href="#DejaVuSans-61" transform="translate(322.314453 0)"/>
       <use xlink:href="#DejaVuSans-76" transform="translate(383.59375 0)"/>
       <use xlink:href="#DejaVuSans-65" transform="translate(442.773438 0)"/>
       <use xlink:href="#DejaVuSans-64" transform="translate(504.296875 0)"/>
      </g>
     </g>
    </g>
    <g id="xtick_2">
     <g id="line2d_2">
      <g>
       <use xlink:href="#mf852bb9a64" x="198.975859" y="168.115081" style="stroke: #000000; stroke-width: 0.8"/>
      </g>
     </g>
     <g id="text_2">
      <!-- blocked -->
      <g transform="translate(171.316335 221.765967) rotate(-30) scale(0.18 -0.18)">
       <defs>
        <path id="DejaVuSans-62" d="M 3116 1747 
Q 3116 2381 2855 2742 
Q 2594 3103 2138 3103 
Q 1681 3103 1420 2742 
Q 1159 2381 1159 1747 
Q 1159 1113 1420 752 
Q 1681 391 2138 391 
Q 2594 391 2855 752 
Q 3116 1113 3116 1747 
z
M 1159 2969 
Q 1341 3281 1617 3432 
Q 1894 3584 2278 3584 
Q 2916 3584 3314 3078 
Q 3713 2572 3713 1747 
Q 3713 922 3314 415 
Q 2916 -91 2278 -91 
Q 1894 -91 1617 61 
Q 1341 213 1159 525 
L 1159 0 
L 581 0 
L 581 4863 
L 1159 4863 
L 1159 2969 
z
" transform="scale(0.015625)"/>
        <path id="DejaVuSans-6f" d="M 1959 3097 
Q 1497 3097 1228 2736 
Q 959 2375 959 1747 
Q 959 1119 1226 758 
Q 1494 397 1959 397 
Q 2419 397 2687 759 
Q 2956 1122 2956 1747 
Q 2956 2369 2687 2733 
Q 2419 3097 1959 3097 
z
M 1959 3584 
Q 2709 3584 3137 3096 
Q 3566 2609 3566 1747 
Q 3566 888 3137 398 
Q 2709 -91 1959 -91 
Q 1206 -91 779 398 
Q 353 888 353 1747 
Q 353 2609 779 3096 
Q 1206 3584 1959 3584 
z
" transform="scale(0.015625)"/>
        <path id="DejaVuSans-63" d="M 3122 3366 
L 3122 2828 
Q 2878 2963 2633 3030 
Q 2388 3097 2138 3097 
Q 1578 3097 1268 2742 
Q 959 2388 959 1747 
Q 959 1106 1268 751 
Q 1578 397 2138 397 
Q 2388 397 2633 464 
Q 2878 531 3122 666 
L 3122 134 
Q 2881 22 2623 -34 
Q 2366 -91 2075 -91 
Q 1284 -91 818 406 
Q 353 903 353 1747 
Q 353 2603 823 3093 
Q 1294 3584 2113 3584 
Q 2378 3584 2631 3529 
Q 2884 3475 3122 3366 
z
" transform="scale(0.015625)"/>
        <path id="DejaVuSans-6b" d="M 581 4863 
L 1159 4863 
L 1159 1991 
L 2875 3500 
L 3609 3500 
L 1753 1863 
L 3688 0 
L 2938 0 
L 1159 1709 
L 1159 0 
L 581 0 
L 581 4863 
z
" transform="scale(0.015625)"/>
       </defs>
       <use xlink:href="#DejaVuSans-62"/>
       <use xlink:href="#DejaVuSans-6c" transform="translate(63.476562 0)"/>
       <use xlink:href="#DejaVuSans-6f" transform="translate(91.259766 0)"/>
       <use xlink:href="#DejaVuSans-63" transform="translate(152.441406 0)"/>
       <use xlink:href="#DejaVuSans-6b" transform="translate(207.421875 0)"/>
       <use xlink:href="#DejaVuSans-65" transform="translate(261.707031 0)"/>
       <use xlink:href="#DejaVuSans-64" transform="translate(323.230469 0)"/>
      </g>
     </g>
    </g>
   </g>
   <g id="matplotlib.axis_2">
    <g id="ytick_1">
     <g id="line2d_3">
      <defs>
       <path id="m575b347b04" d="M 0 0 
L -3.5 0 
" style="stroke: #000000; stroke-width: 0.8"/>
      </defs>
      <g>
       <use xlink:href="#m575b347b04" x="70.58" y="168.115081" style="stroke: #000000; stroke-width: 0.8"/>
      </g>
     </g>
     <g id="text_3">
      <!-- 0.0 -->
      <g transform="translate(34.954375 174.953675) scale(0.18 -0.18)">
       <defs>
        <path id="DejaVuSans-30" d="M 2034 4250 
Q 1547 4250 1301 3770 
Q 1056 3291 1056 2328 
Q 1056 1369 1301 889 
Q 1547 409 2034 409 
Q 2525 409 2770 889 
Q 3016 1369 3016 2328 
Q 3016 3291 2770 3770 
Q 2525 4250 2034 4250 
z
M 2034 4750 
Q 2819 4750 3233 4129 
Q 3647 3509 3647 2328 
Q 3647 1150 3233 529 
Q 2819 -91 2034 -91 
Q 1250 -91 836 529 
Q 422 1150 422 2328 
Q 422 3509 836 4129 
Q 1250 4750 2034 4750 
z
" transform="scale(0.015625)"/>
        <path id="DejaVuSans-2e" d="M 684 794 
L 1344 794 
L 1344 0 
L 684 0 
L 684 794 
z
" transform="scale(0.015625)"/>
       </defs>
       <use xlink:href="#DejaVuSans-30"/>
       <use xlink:href="#DejaVuSans-2e" transform="translate(63.623047 0)"/>
       <use xlink:href="#DejaVuSans-30" transform="translate(95.410156 0)"/>
      </g>
     </g>
    </g>
    <g id="ytick_2">
     <g id="line2d_4">
      <g>
       <use xlink:href="#m575b347b04" x="70.58" y="103.017246" style="stroke: #000000; stroke-width: 0.8"/>
      </g>
     </g>
     <g id="text_4">
      <!-- 0.5 -->
      <g transform="translate(34.954375 109.85584) scale(0.18 -0.18)">
       <defs>
        <path id="DejaVuSans-35" d="M 691 4666 
L 3169 4666 
L 3169 4134 
L 1269 4134 
L 1269 2991 
Q 1406 3038 1543 3061 
Q 1681 3084 1819 3084 
Q 2600 3084 3056 2656 
Q 3513 2228 3513 1497 
Q 3513 744 3044 326 
Q 2575 -91 1722 -91 
Q 1428 -91 1123 -41 
Q 819 9 494 109 
L 494 744 
Q 775 591 1075 516 
Q 1375 441 1709 441 
Q 2250 441 2565 725 
Q 2881 1009 2881 1497 
Q 2881 1984 2565 2268 
Q 2250 2553 1709 2553 
Q 1456 2553 1204 2497 
Q 953 2441 691 2322 
L 691 4666 
z
" transform="scale(0.015625)"/>
       </defs>
       <use xlink:href="#DejaVuSans-30"/>
       <use xlink:href="#DejaVuSans-2e" transform="translate(63.623047 0)"/>
       <use xlink:href="#DejaVuSans-35" transform="translate(95.410156 0)"/>
      </g>
     </g>
    </g>
    <g id="ytick_3">
     <g id="line2d_5">
      <g>
       <use xlink:href="#m575b347b04" x="70.58" y="37.919412" style="stroke: #000000; stroke-width: 0.8"/>
      </g>
     </g>
     <g id="text_5">
      <!-- 1.0 -->
      <g transform="translate(34.954375 44.758006) scale(0.18 -0.18)">
       <defs>
        <path id="DejaVuSans-31" d="M 794 531 
L 1825 531 
L 1825 4091 
L 703 3866 
L 703 4441 
L 1819 4666 
L 2450 4666 
L 2450 531 
L 3481 531 
L 3481 0 
L 794 0 
L 794 531 
z
" transform="scale(0.015625)"/>
       </defs>
       <use xlink:href="#DejaVuSans-31"/>
       <use xlink:href="#DejaVuSans-2e" transform="translate(63.623047 0)"/>
       <use xlink:href="#DejaVuSans-30" transform="translate(95.410156 0)"/>
      </g>
     </g>
    </g>
    <g id="text_6">
     <!-- Accuracy -->
     <g transform="translate(26.795 139.118429) rotate(-90) scale(0.2 -0.2)">
      <defs>
       <path id="DejaVuSans-41" d="M 2188 4044 
L 1331 1722 
L 3047 1722 
L 2188 4044 
z
M 1831 4666 
L 2547 4666 
L 4325 0 
L 3669 0 
L 3244 1197 
L 1141 1197 
L 716 0 
L 50 0 
L 1831 4666 
z
" transform="scale(0.015625)"/>
       <path id="DejaVuSans-75" d="M 544 1381 
L 544 3500 
L 1119 3500 
L 1119 1403 
Q 1119 906 1312 657 
Q 1506 409 1894 409 
Q 2359 409 2629 706 
Q 2900 1003 2900 1516 
L 2900 3500 
L 3475 3500 
L 3475 0 
L 2900 0 
L 2900 538 
Q 2691 219 2414 64 
Q 2138 -91 1772 -91 
Q 1169 -91 856 284 
Q 544 659 544 1381 
z
M 1991 3584 
L 1991 3584 
z
" transform="scale(0.015625)"/>
       <path id="DejaVuSans-79" d="M 2059 -325 
Q 1816 -950 1584 -1140 
Q 1353 -1331 966 -1331 
L 506 -1331 
L 506 -850 
L 844 -850 
Q 1081 -850 1212 -737 
Q 1344 -625 1503 -206 
L 1606 56 
L 191 3500 
L 800 3500 
L 1894 763 
L 2988 3500 
L 3597 3500 
L 2059 -325 
z
" transform="scale(0.015625)"/>
      </defs>
      <use xlink:href="#DejaVuSans-41"/>
      <use xlink:href="#DejaVuSans-63" transform="translate(66.658203 0)"/>
      <use xlink:href="#DejaVuSans-63" transform="translate(121.638672 0)"/>
      <use xlink:href="#DejaVuSans-75" transform="translate(176.619141 0)"/>
      <use xlink:href="#DejaVuSans-72" transform="translate(239.998047 0)"/>
      <use xlink:href="#DejaVuSans-61" transform="translate(281.111328 0)"/>
      <use xlink:href="#DejaVuSans-63" transform="translate(342.390625 0)"/>
      <use xlink:href="#DejaVuSans-79" transform="translate(397.371094 0)"/>
     </g>
    </g>
   </g>
   <g id="line2d_6">
    <path d="M 112.804141 39.350149 
L 112.804141 23.726676 
L 198.975859 23.726676 
L 198.975859 39.350149 
" style="fill: none; stroke: #000000; stroke-width: 2; stroke-linecap: square"/>
   </g>
   <g id="patch_3">
    <path d="M 70.58 168.115081 
L 70.58 18.809278 
" style="fill: none; stroke: #000000; stroke-width: 0.8; stroke-linejoin: miter; stroke-linecap: square"/>
   </g>
   <g id="patch_4">
    <path d="M 70.58 168.115081 
L 241.2 168.115081 
" style="fill: none; stroke: #000000; stroke-width: 0.8; stroke-linejoin: miter; stroke-linecap: square"/>
   </g>
   <g id="PathCollection_1">
    <defs>
     <path id="mf3fdeba455" d="M 0 1.5 
C 0.397805 1.5 0.77937 1.341951 1.06066 1.06066 
C 1.341951 0.77937 1.5 0.397805 1.5 0 
C 1.5 -0.397805 1.341951 -0.77937 1.06066 -1.06066 
C 0.77937 -1.341951 0.397805 -1.5 0 -1.5 
C -0.397805 -1.5 -0.77937 -1.341951 -1.06066 -1.06066 
C -1.341951 -0.77937 -1.5 -0.397805 -1.5 0 
C -1.5 0.397805 -1.341951 0.77937 -1.06066 1.06066 
C -0.77937 1.341951 -0.397805 1.5 0 1.5 
z
"/>
    </defs>
    <g clip-path="url(#pd6d607ac0a)">
     <use xlink:href="#mf3fdeba455" x="101.951087" y="61.256986" style="fill-opacity: 0.05"/>
     <use xlink:href="#mf3fdeba455" x="114.248412" y="78.426537" style="fill-opacity: 0.05"/>
     <use xlink:href="#mf3fdeba455" x="125.659095" y="70.924012" style="fill-opacity: 0.05"/>
     <use xlink:href="#mf3fdeba455" x="120.808628" y="53.591713" style="fill-opacity: 0.05"/>
     <use xlink:href="#mf3fdeba455" x="123.370902" y="72.567737" style="fill-opacity: 0.05"/>
     <use xlink:href="#mf3fdeba455" x="118.277196" y="58.994837" style="fill-opacity: 0.05"/>
     <use xlink:href="#mf3fdeba455" x="119.431662" y="71.623817" style="fill-opacity: 0.05"/>
     <use xlink:href="#mf3fdeba455" x="124.840457" y="63.079725" style="fill-opacity: 0.05"/>
     <use xlink:href="#mf3fdeba455" x="104.175526" y="65.651089" style="fill-opacity: 0.05"/>
     <use xlink:href="#mf3fdeba455" x="112.439634" y="50.385644" style="fill-opacity: 0.05"/>
     <use xlink:href="#mf3fdeba455" x="103.194597" y="57.806802" style="fill-opacity: 0.05"/>
     <use xlink:href="#mf3fdeba455" x="129.613417" y="122.074638" style="fill-opacity: 0.05"/>
     <use xlink:href="#mf3fdeba455" x="128.110284" y="61.436007" style="fill-opacity: 0.05"/>
     <use xlink:href="#mf3fdeba455" x="96.928788" y="80.916535" style="fill-opacity: 0.05"/>
     <use xlink:href="#mf3fdeba455" x="119.890048" y="49.474278" style="fill-opacity: 0.05"/>
     <use xlink:href="#mf3fdeba455" x="127.461893" y="73.641851" style="fill-opacity: 0.05"/>
     <use xlink:href="#mf3fdeba455" x="101.793993" y="78.914774" style="fill-opacity: 0.05"/>
     <use xlink:href="#mf3fdeba455" x="115.146124" y="66.269521" style="fill-opacity: 0.05"/>
     <use xlink:href="#mf3fdeba455" x="127.125477" y="66.839124" style="fill-opacity: 0.05"/>
     <use xlink:href="#mf3fdeba455" x="96.739871" y="94.635902" style="fill-opacity: 0.05"/>
     <use xlink:href="#mf3fdeba455" x="119.608959" y="76.099295" style="fill-opacity: 0.05"/>
     <use xlink:href="#mf3fdeba455" x="105.819028" y="70.370682" style="fill-opacity: 0.05"/>
     <use xlink:href="#mf3fdeba455" x="127.432521" y="59.808555" style="fill-opacity: 0.05"/>
     <use xlink:href="#mf3fdeba455" x="129.040901" y="86.889255" style="fill-opacity: 0.05"/>
     <use xlink:href="#mf3fdeba455" x="128.117424" y="65.813838" style="fill-opacity: 0.05"/>
     <use xlink:href="#mf3fdeba455" x="111.915339" y="74.195182" style="fill-opacity: 0.05"/>
     <use xlink:href="#mf3fdeba455" x="125.283276" y="97.370007" style="fill-opacity: 0.05"/>
     <use xlink:href="#mf3fdeba455" x="124.680307" y="57.823076" style="fill-opacity: 0.05"/>
     <use xlink:href="#mf3fdeba455" x="106.568772" y="85.652401" style="fill-opacity: 0.05"/>
     <use xlink:href="#mf3fdeba455" x="124.141426" y="60.654828" style="fill-opacity: 0.05"/>
     <use xlink:href="#mf3fdeba455" x="96.845403" y="61.256986" style="fill-opacity: 0.05"/>
     <use xlink:href="#mf3fdeba455" x="116.122438" y="94.961391" style="fill-opacity: 0.05"/>
     <use xlink:href="#mf3fdeba455" x="103.497901" y="57.00935" style="fill-opacity: 0.05"/>
     <use xlink:href="#mf3fdeba455" x="99.72558" y="85.896515" style="fill-opacity: 0.05"/>
     <use xlink:href="#mf3fdeba455" x="98.222274" y="74.048707" style="fill-opacity: 0.05"/>
     <use xlink:href="#mf3fdeba455" x="119.569958" y="72.811852" style="fill-opacity: 0.05"/>
     <use xlink:href="#mf3fdeba455" x="107.284842" y="75.448317" style="fill-opacity: 0.05"/>
     <use xlink:href="#mf3fdeba455" x="120.551557" y="83.504172" style="fill-opacity: 0.05"/>
     <use xlink:href="#mf3fdeba455" x="97.822545" y="49.913688" style="fill-opacity: 0.05"/>
     <use xlink:href="#mf3fdeba455" x="106.437442" y="46.121742" style="fill-opacity: 0.05"/>
     <use xlink:href="#mf3fdeba455" x="114.165354" y="110.910357" style="fill-opacity: 0.05"/>
     <use xlink:href="#mf3fdeba455" x="122.824987" y="55.414452" style="fill-opacity: 0.05"/>
     <use xlink:href="#mf3fdeba455" x="106.556778" y="69.459316" style="fill-opacity: 0.05"/>
     <use xlink:href="#mf3fdeba455" x="117.143452" y="95.644916" style="fill-opacity: 0.05"/>
     <use xlink:href="#mf3fdeba455" x="126.108288" y="56.439746" style="fill-opacity: 0.05"/>
     <use xlink:href="#mf3fdeba455" x="116.797793" y="79.061241" style="fill-opacity: 0.05"/>
     <use xlink:href="#mf3fdeba455" x="103.599605" y="88.5818" style="fill-opacity: 0.05"/>
     <use xlink:href="#mf3fdeba455" x="96.410861" y="49.099962" style="fill-opacity: 0.05"/>
     <use xlink:href="#mf3fdeba455" x="125.560964" y="70.565977" style="fill-opacity: 0.05"/>
     <use xlink:href="#mf3fdeba455" x="96.302927" y="66.139327" style="fill-opacity: 0.05"/>
     <use xlink:href="#mf3fdeba455" x="125.719616" y="80.818887" style="fill-opacity: 0.05"/>
     <use xlink:href="#mf3fdeba455" x="113.801566" y="68.450295" style="fill-opacity: 0.05"/>
     <use xlink:href="#mf3fdeba455" x="127.938228" y="69.703431" style="fill-opacity: 0.05"/>
     <use xlink:href="#mf3fdeba455" x="123.102807" y="101.48745" style="fill-opacity: 0.05"/>
     <use xlink:href="#mf3fdeba455" x="129.967276" y="74.634591" style="fill-opacity: 0.05"/>
     <use xlink:href="#mf3fdeba455" x="107.658374" y="82.023195" style="fill-opacity: 0.05"/>
     <use xlink:href="#mf3fdeba455" x="122.013771" y="79.33791" style="fill-opacity: 0.05"/>
     <use xlink:href="#mf3fdeba455" x="109.423829" y="78.654378" style="fill-opacity: 0.05"/>
     <use xlink:href="#mf3fdeba455" x="112.11048" y="72.779306" style="fill-opacity: 0.05"/>
     <use xlink:href="#mf3fdeba455" x="117.199087" y="66.383441" style="fill-opacity: 0.05"/>
     <use xlink:href="#mf3fdeba455" x="125.684301" y="62.510121" style="fill-opacity: 0.05"/>
     <use xlink:href="#mf3fdeba455" x="129.489863" y="91.267085" style="fill-opacity: 0.05"/>
     <use xlink:href="#mf3fdeba455" x="122.051174" y="79.988888" style="fill-opacity: 0.05"/>
     <use xlink:href="#mf3fdeba455" x="109.96967" y="52.30603" style="fill-opacity: 0.05"/>
     <use xlink:href="#mf3fdeba455" x="110.093421" y="54.682108" style="fill-opacity: 0.05"/>
     <use xlink:href="#mf3fdeba455" x="120.993291" y="79.468104" style="fill-opacity: 0.05"/>
     <use xlink:href="#mf3fdeba455" x="103.800133" y="85.375731" style="fill-opacity: 0.05"/>
     <use xlink:href="#mf3fdeba455" x="99.377696" y="50.890154" style="fill-opacity: 0.05"/>
     <use xlink:href="#mf3fdeba455" x="107.793158" y="57.888176" style="fill-opacity: 0.05"/>
     <use xlink:href="#mf3fdeba455" x="105.470549" y="80.916535" style="fill-opacity: 0.05"/>
     <use xlink:href="#mf3fdeba455" x="105.78315" y="51.541132" style="fill-opacity: 0.05"/>
     <use xlink:href="#mf3fdeba455" x="103.62195" y="64.788543" style="fill-opacity: 0.05"/>
     <use xlink:href="#mf3fdeba455" x="97.020695" y="69.117546" style="fill-opacity: 0.05"/>
     <use xlink:href="#mf3fdeba455" x="96.185889" y="82.10457" style="fill-opacity: 0.05"/>
     <use xlink:href="#mf3fdeba455" x="129.615292" y="53.721914" style="fill-opacity: 0.05"/>
     <use xlink:href="#mf3fdeba455" x="110.314576" y="102.138427" style="fill-opacity: 0.05"/>
     <use xlink:href="#mf3fdeba455" x="108.817033" y="86.433572" style="fill-opacity: 0.05"/>
     <use xlink:href="#mf3fdeba455" x="118.996347" y="56.976803" style="fill-opacity: 0.05"/>
     <use xlink:href="#mf3fdeba455" x="103.092723" y="75.741252" style="fill-opacity: 0.05"/>
     <use xlink:href="#mf3fdeba455" x="128.313713" y="57.985816" style="fill-opacity: 0.05"/>
     <use xlink:href="#mf3fdeba455" x="122.674078" y="63.860897" style="fill-opacity: 0.05"/>
     <use xlink:href="#mf3fdeba455" x="98.651678" y="88.435333" style="fill-opacity: 0.05"/>
     <use xlink:href="#mf3fdeba455" x="109.963259" y="76.766546" style="fill-opacity: 0.05"/>
     <use xlink:href="#mf3fdeba455" x="125.871852" y="50.938982" style="fill-opacity: 0.05"/>
     <use xlink:href="#mf3fdeba455" x="128.13347" y="61.842863" style="fill-opacity: 0.05"/>
     <use xlink:href="#mf3fdeba455" x="111.680514" y="56.732688" style="fill-opacity: 0.05"/>
     <use xlink:href="#mf3fdeba455" x="116.713283" y="101.178234" style="fill-opacity: 0.05"/>
     <use xlink:href="#mf3fdeba455" x="101.327239" y="63.942271" style="fill-opacity: 0.05"/>
     <use xlink:href="#mf3fdeba455" x="129.734079" y="52.940735" style="fill-opacity: 0.05"/>
     <use xlink:href="#mf3fdeba455" x="103.555217" y="107.801936" style="fill-opacity: 0.05"/>
     <use xlink:href="#mf3fdeba455" x="128.064524" y="84.854948" style="fill-opacity: 0.05"/>
     <use xlink:href="#mf3fdeba455" x="117.962265" y="63.763249" style="fill-opacity: 0.05"/>
     <use xlink:href="#mf3fdeba455" x="116.517687" y="73.381456" style="fill-opacity: 0.05"/>
     <use xlink:href="#mf3fdeba455" x="113.241498" y="56.211905" style="fill-opacity: 0.05"/>
     <use xlink:href="#mf3fdeba455" x="103.520683" y="76.213216" style="fill-opacity: 0.05"/>
     <use xlink:href="#mf3fdeba455" x="101.654487" y="64.039918" style="fill-opacity: 0.05"/>
     <use xlink:href="#mf3fdeba455" x="103.169668" y="57.090724" style="fill-opacity: 0.05"/>
     <use xlink:href="#mf3fdeba455" x="101.99608" y="58.148564" style="fill-opacity: 0.05"/>
     <use xlink:href="#mf3fdeba455" x="122.441051" y="86.319652" style="fill-opacity: 0.05"/>
     <use xlink:href="#mf3fdeba455" x="107.638156" y="64.38168" style="fill-opacity: 0.05"/>
    </g>
   </g>
   <g id="PathCollection_2">
    <g clip-path="url(#pd6d607ac0a)">
     <use xlink:href="#mf3fdeba455" x="183.735276" y="48.302517" style="fill-opacity: 0.05"/>
     <use xlink:href="#mf3fdeba455" x="215.14521" y="50.190357" style="fill-opacity: 0.05"/>
     <use xlink:href="#mf3fdeba455" x="212.204454" y="46.463504" style="fill-opacity: 0.05"/>
     <use xlink:href="#mf3fdeba455" x="213.719918" y="49.685846" style="fill-opacity: 0.05"/>
     <use xlink:href="#mf3fdeba455" x="216.034681" y="51.183097" style="fill-opacity: 0.05"/>
     <use xlink:href="#mf3fdeba455" x="187.735456" y="71.705192" style="fill-opacity: 0.05"/>
     <use xlink:href="#mf3fdeba455" x="195.399457" y="79.695946" style="fill-opacity: 0.05"/>
     <use xlink:href="#mf3fdeba455" x="207.877" y="50.955255" style="fill-opacity: 0.05"/>
     <use xlink:href="#mf3fdeba455" x="205.732432" y="40.035093" style="fill-opacity: 0.05"/>
     <use xlink:href="#mf3fdeba455" x="187.046105" y="43.387629" style="fill-opacity: 0.05"/>
     <use xlink:href="#mf3fdeba455" x="209.862212" y="42.069401" style="fill-opacity: 0.05"/>
     <use xlink:href="#mf3fdeba455" x="189.477687" y="43.45273" style="fill-opacity: 0.05"/>
     <use xlink:href="#mf3fdeba455" x="189.456214" y="60.134044" style="fill-opacity: 0.05"/>
     <use xlink:href="#mf3fdeba455" x="200.250318" y="72.942046" style="fill-opacity: 0.05"/>
     <use xlink:href="#mf3fdeba455" x="202.179376" y="43.094687" style="fill-opacity: 0.05"/>
     <use xlink:href="#mf3fdeba455" x="201.736325" y="49.897414" style="fill-opacity: 0.05"/>
     <use xlink:href="#mf3fdeba455" x="184.894946" y="54.258971" style="fill-opacity: 0.05"/>
     <use xlink:href="#mf3fdeba455" x="211.986439" y="43.192335" style="fill-opacity: 0.05"/>
     <use xlink:href="#mf3fdeba455" x="190.8964" y="57.00935" style="fill-opacity: 0.05"/>
     <use xlink:href="#mf3fdeba455" x="186.205724" y="43.859586" style="fill-opacity: 0.05"/>
     <use xlink:href="#mf3fdeba455" x="212.375494" y="46.072914" style="fill-opacity: 0.05"/>
     <use xlink:href="#mf3fdeba455" x="214.681567" y="44.250175" style="fill-opacity: 0.05"/>
     <use xlink:href="#mf3fdeba455" x="211.457922" y="49.490551" style="fill-opacity: 0.05"/>
     <use xlink:href="#mf3fdeba455" x="209.644471" y="45.324289" style="fill-opacity: 0.05"/>
     <use xlink:href="#mf3fdeba455" x="204.326846" y="44.949981" style="fill-opacity: 0.05"/>
     <use xlink:href="#mf3fdeba455" x="200.728845" y="49.441732" style="fill-opacity: 0.05"/>
     <use xlink:href="#mf3fdeba455" x="184.739835" y="58.5066" style="fill-opacity: 0.05"/>
     <use xlink:href="#mf3fdeba455" x="195.820361" y="49.376631" style="fill-opacity: 0.05"/>
     <use xlink:href="#mf3fdeba455" x="194.587599" y="52.159563" style="fill-opacity: 0.05"/>
     <use xlink:href="#mf3fdeba455" x="190.694887" y="42.50881" style="fill-opacity: 0.05"/>
     <use xlink:href="#mf3fdeba455" x="206.676857" y="48.383891" style="fill-opacity: 0.05"/>
     <use xlink:href="#mf3fdeba455" x="198.833701" y="50.548392" style="fill-opacity: 0.05"/>
     <use xlink:href="#mf3fdeba455" x="184.535072" y="50.955255" style="fill-opacity: 0.05"/>
     <use xlink:href="#mf3fdeba455" x="189.330941" y="47.049381" style="fill-opacity: 0.05"/>
     <use xlink:href="#mf3fdeba455" x="205.292548" y="52.582699" style="fill-opacity: 0.05"/>
     <use xlink:href="#mf3fdeba455" x="184.365646" y="46.756447" style="fill-opacity: 0.05"/>
     <use xlink:href="#mf3fdeba455" x="211.0815" y="41.792732" style="fill-opacity: 0.05"/>
     <use xlink:href="#mf3fdeba455" x="198.808566" y="49.539379" style="fill-opacity: 0.05"/>
     <use xlink:href="#mf3fdeba455" x="198.306703" y="44.380369" style="fill-opacity: 0.05"/>
     <use xlink:href="#mf3fdeba455" x="202.161034" y="43.582924" style="fill-opacity: 0.05"/>
     <use xlink:href="#mf3fdeba455" x="210.167185" y="56.244451" style="fill-opacity: 0.05"/>
     <use xlink:href="#mf3fdeba455" x="193.730042" y="47.472517" style="fill-opacity: 0.05"/>
     <use xlink:href="#mf3fdeba455" x="205.111842" y="45.845073" style="fill-opacity: 0.05"/>
     <use xlink:href="#mf3fdeba455" x="201.241553" y="45.861346" style="fill-opacity: 0.05"/>
     <use xlink:href="#mf3fdeba455" x="190.945629" y="59.05993" style="fill-opacity: 0.05"/>
     <use xlink:href="#mf3fdeba455" x="212.026737" y="53.445245" style="fill-opacity: 0.05"/>
     <use xlink:href="#mf3fdeba455" x="209.227743" y="44.819779" style="fill-opacity: 0.05"/>
     <use xlink:href="#mf3fdeba455" x="204.437485" y="42.167048" style="fill-opacity: 0.05"/>
     <use xlink:href="#mf3fdeba455" x="211.05995" y="59.157578" style="fill-opacity: 0.05"/>
     <use xlink:href="#mf3fdeba455" x="211.636007" y="46.33331" style="fill-opacity: 0.05"/>
     <use xlink:href="#mf3fdeba455" x="206.157857" y="45.43821" style="fill-opacity: 0.05"/>
     <use xlink:href="#mf3fdeba455" x="210.592265" y="47.87938" style="fill-opacity: 0.05"/>
     <use xlink:href="#mf3fdeba455" x="205.782441" y="51.70388" style="fill-opacity: 0.05"/>
     <use xlink:href="#mf3fdeba455" x="205.185074" y="45.503311" style="fill-opacity: 0.05"/>
     <use xlink:href="#mf3fdeba455" x="203.064237" y="49.76722" style="fill-opacity: 0.05"/>
     <use xlink:href="#mf3fdeba455" x="207.686669" y="49.018595" style="fill-opacity: 0.05"/>
     <use xlink:href="#mf3fdeba455" x="187.208425" y="49.929961" style="fill-opacity: 0.05"/>
     <use xlink:href="#mf3fdeba455" x="212.103974" y="52.110743" style="fill-opacity: 0.05"/>
     <use xlink:href="#mf3fdeba455" x="211.792817" y="48.400164" style="fill-opacity: 0.05"/>
     <use xlink:href="#mf3fdeba455" x="182.749631" y="57.058177" style="fill-opacity: 0.05"/>
     <use xlink:href="#mf3fdeba455" x="210.206334" y="56.309552" style="fill-opacity: 0.05"/>
     <use xlink:href="#mf3fdeba455" x="186.18349" y="69.573237" style="fill-opacity: 0.05"/>
     <use xlink:href="#mf3fdeba455" x="193.292622" y="48.139768" style="fill-opacity: 0.05"/>
     <use xlink:href="#mf3fdeba455" x="207.369268" y="46.056641" style="fill-opacity: 0.05"/>
     <use xlink:href="#mf3fdeba455" x="187.282698" y="42.459983" style="fill-opacity: 0.05"/>
     <use xlink:href="#mf3fdeba455" x="209.935764" y="51.443485" style="fill-opacity: 0.05"/>
     <use xlink:href="#mf3fdeba455" x="210.424088" y="80.525945" style="fill-opacity: 0.05"/>
     <use xlink:href="#mf3fdeba455" x="199.233262" y="52.485052" style="fill-opacity: 0.05"/>
     <use xlink:href="#mf3fdeba455" x="181.961628" y="42.085674" style="fill-opacity: 0.05"/>
     <use xlink:href="#mf3fdeba455" x="191.635343" y="46.593698" style="fill-opacity: 0.05"/>
     <use xlink:href="#mf3fdeba455" x="203.006176" y="45.38939" style="fill-opacity: 0.05"/>
     <use xlink:href="#mf3fdeba455" x="215.561714" y="45.145268" style="fill-opacity: 0.05"/>
     <use xlink:href="#mf3fdeba455" x="203.519298" y="49.441732" style="fill-opacity: 0.05"/>
     <use xlink:href="#mf3fdeba455" x="190.696603" y="42.622731" style="fill-opacity: 0.05"/>
     <use xlink:href="#mf3fdeba455" x="203.594859" y="40.816265" style="fill-opacity: 0.05"/>
     <use xlink:href="#mf3fdeba455" x="200.354102" y="45.666051" style="fill-opacity: 0.05"/>
     <use xlink:href="#mf3fdeba455" x="208.621762" y="74.244002" style="fill-opacity: 0.05"/>
     <use xlink:href="#mf3fdeba455" x="185.428997" y="46.056641" style="fill-opacity: 0.05"/>
     <use xlink:href="#mf3fdeba455" x="207.973148" y="78.865946" style="fill-opacity: 0.05"/>
     <use xlink:href="#mf3fdeba455" x="200.398263" y="49.002322" style="fill-opacity: 0.05"/>
     <use xlink:href="#mf3fdeba455" x="214.934585" y="53.152303" style="fill-opacity: 0.05"/>
     <use xlink:href="#mf3fdeba455" x="193.5254" y="47.114482" style="fill-opacity: 0.05"/>
     <use xlink:href="#mf3fdeba455" x="203.547161" y="49.392904" style="fill-opacity: 0.05"/>
     <use xlink:href="#mf3fdeba455" x="213.8673" y="44.608211" style="fill-opacity: 0.05"/>
     <use xlink:href="#mf3fdeba455" x="185.274891" y="53.233677" style="fill-opacity: 0.05"/>
     <use xlink:href="#mf3fdeba455" x="214.04655" y="55.544654" style="fill-opacity: 0.05"/>
     <use xlink:href="#mf3fdeba455" x="205.452033" y="77.059488" style="fill-opacity: 0.05"/>
     <use xlink:href="#mf3fdeba455" x="184.079769" y="46.886641" style="fill-opacity: 0.05"/>
     <use xlink:href="#mf3fdeba455" x="192.115334" y="42.704105" style="fill-opacity: 0.05"/>
     <use xlink:href="#mf3fdeba455" x="206.151277" y="59.141304" style="fill-opacity: 0.05"/>
     <use xlink:href="#mf3fdeba455" x="184.063002" y="52.387405" style="fill-opacity: 0.05"/>
     <use xlink:href="#mf3fdeba455" x="201.808166" y="56.781508" style="fill-opacity: 0.05"/>
     <use xlink:href="#mf3fdeba455" x="193.66365" y="46.349584" style="fill-opacity: 0.05"/>
     <use xlink:href="#mf3fdeba455" x="203.143658" y="46.38213" style="fill-opacity: 0.05"/>
     <use xlink:href="#mf3fdeba455" x="183.318183" y="43.794492" style="fill-opacity: 0.05"/>
     <use xlink:href="#mf3fdeba455" x="211.782244" y="45.43821" style="fill-opacity: 0.05"/>
     <use xlink:href="#mf3fdeba455" x="215.296402" y="45.031347" style="fill-opacity: 0.05"/>
     <use xlink:href="#mf3fdeba455" x="215.137463" y="51.882894" style="fill-opacity: 0.05"/>
     <use xlink:href="#mf3fdeba455" x="207.581029" y="52.69662" style="fill-opacity: 0.05"/>
     <use xlink:href="#mf3fdeba455" x="186.225417" y="45.242915" style="fill-opacity: 0.05"/>
    </g>
   </g>
   <g id="text_7">
    <!-- *** -->
    <g transform="translate(143.89 20.399176) scale(0.16 -0.16)">
     <defs>
      <path id="DejaVuSans-2a" d="M 3009 3897 
L 1888 3291 
L 3009 2681 
L 2828 2375 
L 1778 3009 
L 1778 1831 
L 1422 1831 
L 1422 3009 
L 372 2375 
L 191 2681 
L 1313 3291 
L 191 3897 
L 372 4206 
L 1422 3572 
L 1422 4750 
L 1778 4750 
L 1778 3572 
L 2828 4206 
L 3009 3897 
z
" transform="scale(0.015625)"/>
     </defs>
     <use xlink:href="#DejaVuSans-2a"/>
     <use xlink:href="#DejaVuSans-2a" transform="translate(50 0)"/>
     <use xlink:href="#DejaVuSans-2a" transform="translate(100 0)"/>
    </g>
   </g>
   <g id="LineCollection_1">
    <path d="M 112.804141 73.084757 
L 112.804141 70.00404 
" clip-path="url(#pd6d607ac0a)" style="fill: none; stroke: #000000; stroke-width: 2"/>
    <path d="M 198.975859 51.516827 
L 198.975859 49.7658 
" clip-path="url(#pd6d607ac0a)" style="fill: none; stroke: #000000; stroke-width: 2"/>
   </g>
   <g id="line2d_7">
    <defs>
     <path id="md60b7b00f0" d="M 5 0 
L -5 -0 
" style="stroke: #000000"/>
    </defs>
    <g clip-path="url(#pd6d607ac0a)">
     <use xlink:href="#md60b7b00f0" x="112.804141" y="73.084757" style="stroke: #000000"/>
     <use xlink:href="#md60b7b00f0" x="198.975859" y="51.516827" style="stroke: #000000"/>
    </g>
   </g>
   <g id="line2d_8">
    <g clip-path="url(#pd6d607ac0a)">
     <use xlink:href="#md60b7b00f0" x="112.804141" y="70.00404" style="stroke: #000000"/>
     <use xlink:href="#md60b7b00f0" x="198.975859" y="49.7658" style="stroke: #000000"/>
    </g>
   </g>
   <g id="line2d_9">
    <defs>
     <path id="m6d79765fd9" d="M 0 3 
C 0.795609 3 1.55874 2.683901 2.12132 2.12132 
C 2.683901 1.55874 3 0.795609 3 0 
C 3 -0.795609 2.683901 -1.55874 2.12132 -2.12132 
C 1.55874 -2.683901 0.795609 -3 0 -3 
C -0.795609 -3 -1.55874 -2.683901 -2.12132 -2.12132 
C -2.683901 -1.55874 -3 -0.795609 -3 0 
C -3 0.795609 -2.683901 1.55874 -2.12132 2.12132 
C -1.55874 2.683901 -0.795609 3 0 3 
z
" style="stroke: #000000"/>
    </defs>
    <g clip-path="url(#pd6d607ac0a)">
     <use xlink:href="#m6d79765fd9" x="112.804141" y="71.544399" style="stroke: #000000"/>
     <use xlink:href="#m6d79765fd9" x="198.975859" y="50.641314" style="stroke: #000000"/>
    </g>
   </g>
  </g>
 </g>
 <defs>
  <clipPath id="pd6d607ac0a">
   <rect x="70.58" y="18.809278" width="170.62" height="149.305803"/>
  </clipPath>
 </defs>
</svg>
