<?xml version="1.0" encoding="utf-8" standalone="no"?>
<!DOCTYPE svg PUBLIC "-//W3C//DTD SVG 1.1//EN"
  "http://www.w3.org/Graphics/SVG/1.1/DTD/svg11.dtd">
<svg xmlns:xlink="http://www.w3.org/1999/xlink" width="216pt" height="201.6pt" viewBox="0 0 216 201.6" xmlns="http://www.w3.org/2000/svg" version="1.1">
 <metadata>
  <rdf:RDF xmlns:dc="http://purl.org/dc/elements/1.1/" xmlns:cc="http://creativecommons.org/ns#" xmlns:rdf="http://www.w3.org/1999/02/22-rdf-syntax-ns#">
   <cc:Work>
    <dc:type rdf:resource="http://purl.org/dc/dcmitype/StillImage"/>
    <dc:date>2025-10-17T18:56:18.351009</dc:date>
    <dc:format>image/svg+xml</dc:format>
    <dc:creator>
     <cc:Agent>
      <dc:title>Matplotlib v3.10.1, https://matplotlib.org/</dc:title>
     </cc:Agent>
    </dc:creator>
   </cc:Work>
  </rdf:RDF>
 </metadata>
 <defs>
  <style type="text/css">*{stroke-linejoin: round; stroke-linecap: butt}</style>
 </defs>
 <g id="figure_1">
  <g id="patch_1">
   <path d="M 0 201.6 
L 216 201.6 
L 216 0 
L 0 0 
L 0 201.6 
z
" style="fill: none"/>
  </g>
  <g id="axes_1">
   <g id="patch_2">
    <path d="M 27 179.424 
L 194.4 179.424 
L 194.4 24.192 
L 27 24.192 
L 27 179.424 
z
" style="fill: none"/>
   </g>
   <g id="FillBetweenPolyCollection_1">
    <defs>
     <path id="mcc590f1ae7" d="M 70.766463 -112.310188 
L 66.088082 -112.310188 
L 65.954695 -112.731071 
L 65.836046 -113.151954 
L 65.733291 -113.572836 
L 65.64691 -113.993719 
L 65.576737 -114.414602 
L 65.522042 -114.835484 
L 65.48165 -115.256367 
L 65.454098 -115.67725 
L 65.437804 -116.098132 
L 65.431234 -116.519015 
L 65.433055 -116.939898 
L 65.442253 -117.36078 
L 65.458209 -117.781663 
L 65.48073 -118.202546 
L 65.510026 -118.623428 
L 65.546643 -119.044311 
L 65.591363 -119.465194 
L 65.645072 -119.886076 
L 65.708618 -120.306959 
L 65.782668 -120.727841 
L 65.867574 -121.148724 
L 65.963264 -121.569607 
L 66.069159 -121.990489 
L 66.184114 -122.411372 
L 66.306406 -122.832255 
L 66.433734 -123.253137 
L 66.563257 -123.67402 
L 66.691652 -124.094903 
L 66.815178 -124.515785 
L 66.929762 -124.936668 
L 67.031088 -125.357551 
L 67.114686 -125.778433 
L 67.176037 -126.199316 
L 67.210668 -126.620199 
L 67.214264 -127.041081 
L 67.182776 -127.461964 
L 67.11254 -127.882847 
L 67.000396 -128.303729 
L 66.843808 -128.724612 
L 66.640968 -129.145495 
L 66.390896 -129.566377 
L 66.093496 -129.98726 
L 65.749581 -130.408143 
L 65.36085 -130.829025 
L 64.929796 -131.249908 
L 64.459562 -131.670791 
L 63.953732 -132.091673 
L 63.416071 -132.512556 
L 62.850232 -132.933438 
L 62.259443 -133.354321 
L 61.646214 -133.775204 
L 61.012081 -134.196086 
L 60.357424 -134.616969 
L 59.681372 -135.037852 
L 58.981827 -135.458734 
L 58.255605 -135.879617 
L 57.498691 -136.3005 
L 56.706598 -136.721382 
L 55.874794 -137.142265 
L 54.999174 -137.563148 
L 54.07653 -137.98403 
L 53.104977 -138.404913 
L 52.084306 -138.825796 
L 51.01623 -139.246678 
L 49.904506 -139.667561 
L 48.754932 -140.088444 
L 47.575229 -140.509326 
L 46.374829 -140.930209 
L 45.164599 -141.351092 
L 43.956544 -141.771974 
L 42.763507 -142.192857 
L 41.598915 -142.61374 
L 40.476573 -143.034622 
L 39.410526 -143.455505 
L 38.414965 -143.876388 
L 37.504179 -144.29727 
L 36.692495 -144.718153 
L 35.994208 -145.139035 
L 35.42343 -145.559918 
L 34.99387 -145.980801 
L 34.718492 -146.401683 
L 34.609091 -146.822566 
L 34.675769 -147.243449 
L 34.926361 -147.664331 
L 35.365856 -148.085214 
L 35.995849 -148.506097 
L 36.814095 -148.926979 
L 37.814203 -149.347862 
L 38.985515 -149.768745 
L 40.31319 -150.189627 
L 41.778504 -150.61051 
L 43.359365 -151.031393 
L 45.031 -151.452275 
L 46.766789 -151.873158 
L 48.539191 -152.294041 
L 50.320701 -152.714923 
L 52.084789 -153.135806 
L 53.806764 -153.556689 
L 55.464512 -153.977571 
L 81.390033 -153.977571 
L 81.390033 -153.977571 
L 83.047782 -153.556689 
L 84.769756 -153.135806 
L 86.533845 -152.714923 
L 88.315354 -152.294041 
L 90.087756 -151.873158 
L 91.823545 -151.452275 
L 93.49518 -151.031393 
L 95.076041 -150.61051 
L 96.541356 -150.189627 
L 97.86903 -149.768745 
L 99.040342 -149.347862 
L 100.040451 -148.926979 
L 100.858696 -148.506097 
L 101.488689 -148.085214 
L 101.928184 -147.664331 
L 102.178777 -147.243449 
L 102.245455 -146.822566 
L 102.136054 -146.401683 
L 101.860676 -145.980801 
L 101.431115 -145.559918 
L 100.860338 -145.139035 
L 100.16205 -144.718153 
L 99.350367 -144.29727 
L 98.43958 -143.876388 
L 97.44402 -143.455505 
L 96.377972 -143.034622 
L 95.25563 -142.61374 
L 94.091038 -142.192857 
L 92.898001 -141.771974 
L 91.689946 -141.351092 
L 90.479717 -140.930209 
L 89.279317 -140.509326 
L 88.099613 -140.088444 
L 86.950039 -139.667561 
L 85.838315 -139.246678 
L 84.770239 -138.825796 
L 83.749569 -138.404913 
L 82.778015 -137.98403 
L 81.855371 -137.563148 
L 80.979751 -137.142265 
L 80.147947 -136.721382 
L 79.355854 -136.3005 
L 78.598941 -135.879617 
L 77.872719 -135.458734 
L 77.173174 -135.037852 
L 76.497121 -134.616969 
L 75.842464 -134.196086 
L 75.208332 -133.775204 
L 74.595103 -133.354321 
L 74.004314 -132.933438 
L 73.438474 -132.512556 
L 72.900813 -132.091673 
L 72.394984 -131.670791 
L 71.924749 -131.249908 
L 71.493695 -130.829025 
L 71.104964 -130.408143 
L 70.76105 -129.98726 
L 70.463649 -129.566377 
L 70.213577 -129.145495 
L 70.010738 -128.724612 
L 69.854149 -128.303729 
L 69.742006 -127.882847 
L 69.67177 -127.461964 
L 69.640281 -127.041081 
L 69.643877 -126.620199 
L 69.678508 -126.199316 
L 69.739859 -125.778433 
L 69.823458 -125.357551 
L 69.924783 -124.936668 
L 70.039367 -124.515785 
L 70.162893 -124.094903 
L 70.291288 -123.67402 
L 70.420812 -123.253137 
L 70.54814 -122.832255 
L 70.670431 -122.411372 
L 70.785387 -121.990489 
L 70.891281 -121.569607 
L 70.986972 -121.148724 
L 71.071878 -120.727841 
L 71.145927 -120.306959 
L 71.209473 -119.886076 
L 71.263182 -119.465194 
L 71.307902 -119.044311 
L 71.344519 -118.623428 
L 71.373815 -118.202546 
L 71.396336 -117.781663 
L 71.412293 -117.36078 
L 71.42149 -116.939898 
L 71.423311 -116.519015 
L 71.416741 -116.098132 
L 71.400447 -115.67725 
L 71.372895 -115.256367 
L 71.332504 -114.835484 
L 71.277809 -114.414602 
L 71.207636 -113.993719 
L 71.121254 -113.572836 
L 71.018499 -113.151954 
L 70.89985 -112.731071 
L 70.766463 -112.310188 
z
" style="stroke: #484848; stroke-opacity: 0.9; stroke-width: 1.25"/>
    </defs>
    <g clip-path="url(#pea70f21a90)">
     <use xlink:href="#mcc590f1ae7" x="0" y="201.6" style="fill: #d86743; fill-opacity: 0.9; stroke: #484848; stroke-opacity: 0.9; stroke-width: 1.25"/>
    </g>
   </g>
   <g id="FillBetweenPolyCollection_2">
    <defs>
     <path id="m6668d26007" d="M 154.409713 -115.927615 
L 151.535742 -115.927615 
L 151.46543 -116.327352 
L 151.40865 -116.727089 
L 151.365915 -117.126826 
L 151.337004 -117.526563 
L 151.320986 -117.9263 
L 151.316307 -118.326038 
L 151.320917 -118.725775 
L 151.332454 -119.125512 
L 151.348444 -119.525249 
L 151.366513 -119.924986 
L 151.384584 -120.324723 
L 151.401052 -120.72446 
L 151.414901 -121.124197 
L 151.425766 -121.523934 
L 151.433919 -121.923671 
L 151.440194 -122.323408 
L 151.445839 -122.723145 
L 151.45233 -123.122882 
L 151.461144 -123.522619 
L 151.47354 -123.922356 
L 151.490355 -124.322093 
L 151.511852 -124.72183 
L 151.537624 -125.121567 
L 151.566582 -125.521304 
L 151.597012 -125.921041 
L 151.626701 -126.320778 
L 151.653118 -126.720515 
L 151.673615 -127.120252 
L 151.685638 -127.519989 
L 151.686906 -127.919726 
L 151.675551 -128.319463 
L 151.650201 -128.7192 
L 151.609992 -129.118937 
L 151.55453 -129.518674 
L 151.483795 -129.918411 
L 151.398017 -130.318148 
L 151.29754 -130.717885 
L 151.182694 -131.117622 
L 151.05369 -131.517359 
L 150.91055 -131.917096 
L 150.753081 -132.316833 
L 150.580887 -132.71657 
L 150.393409 -133.116307 
L 150.189998 -133.516044 
L 149.96998 -133.915781 
L 149.73273 -134.315518 
L 149.477724 -134.715255 
L 149.204569 -135.114992 
L 148.913006 -135.514729 
L 148.60289 -135.914466 
L 148.274143 -136.314204 
L 147.926696 -136.713941 
L 147.560415 -137.113678 
L 147.175024 -137.513415 
L 146.770028 -137.913152 
L 146.344637 -138.312889 
L 145.897698 -138.712626 
L 145.42763 -139.112363 
L 144.932368 -139.5121 
L 144.409312 -139.911837 
L 143.855294 -140.311574 
L 143.266553 -140.711311 
L 142.638744 -141.111048 
L 141.966984 -141.510785 
L 141.245941 -141.910522 
L 140.469999 -142.310259 
L 139.633501 -142.709996 
L 138.731081 -143.109733 
L 137.758094 -143.50947 
L 136.711136 -143.909207 
L 135.588638 -144.308944 
L 134.39151 -144.708681 
L 133.123777 -145.108418 
L 131.793183 -145.508155 
L 130.41167 -145.907892 
L 128.995709 -146.307629 
L 127.566389 -146.707366 
L 126.149256 -147.107103 
L 124.77384 -147.50684 
L 123.472883 -147.906577 
L 122.281272 -148.306314 
L 121.234715 -148.706051 
L 120.368224 -149.105788 
L 119.714484 -149.505525 
L 119.302203 -149.905262 
L 119.154545 -150.304999 
L 119.287756 -150.704736 
L 119.71008 -151.104473 
L 120.421045 -151.50421 
L 121.411194 -151.903947 
L 122.662276 -152.303684 
L 124.147914 -152.703421 
L 125.834711 -153.103158 
L 127.683726 -153.502895 
L 129.652227 -153.902632 
L 131.69561 -154.30237 
L 133.769348 -154.702107 
L 135.830852 -155.101844 
L 137.841126 -155.501581 
L 168.104328 -155.501581 
L 168.104328 -155.501581 
L 170.114603 -155.101844 
L 172.176107 -154.702107 
L 174.249844 -154.30237 
L 176.293227 -153.902632 
L 178.261728 -153.502895 
L 180.110743 -153.103158 
L 181.79754 -152.703421 
L 183.283178 -152.303684 
L 184.53426 -151.903947 
L 185.52441 -151.50421 
L 186.235375 -151.104473 
L 186.657698 -150.704736 
L 186.790909 -150.304999 
L 186.643251 -149.905262 
L 186.23097 -149.505525 
L 185.577231 -149.105788 
L 184.71074 -148.706051 
L 183.664182 -148.306314 
L 182.472571 -147.906577 
L 181.171615 -147.50684 
L 179.796199 -147.107103 
L 178.379066 -146.707366 
L 176.949746 -146.307629 
L 175.533784 -145.907892 
L 174.152272 -145.508155 
L 172.821677 -145.108418 
L 171.553945 -144.708681 
L 170.356816 -144.308944 
L 169.234319 -143.909207 
L 168.187361 -143.50947 
L 167.214373 -143.109733 
L 166.311954 -142.709996 
L 165.475456 -142.310259 
L 164.699514 -141.910522 
L 163.978471 -141.510785 
L 163.30671 -141.111048 
L 162.678902 -140.711311 
L 162.090161 -140.311574 
L 161.536142 -139.911837 
L 161.013087 -139.5121 
L 160.517824 -139.112363 
L 160.047756 -138.712626 
L 159.600817 -138.312889 
L 159.175426 -137.913152 
L 158.77043 -137.513415 
L 158.385039 -137.113678 
L 158.018759 -136.713941 
L 157.671312 -136.314204 
L 157.342565 -135.914466 
L 157.032448 -135.514729 
L 156.740886 -135.114992 
L 156.46773 -134.715255 
L 156.212725 -134.315518 
L 155.975475 -133.915781 
L 155.755457 -133.516044 
L 155.552045 -133.116307 
L 155.364568 -132.71657 
L 155.192373 -132.316833 
L 155.034905 -131.917096 
L 154.891765 -131.517359 
L 154.762761 -131.117622 
L 154.647915 -130.717885 
L 154.547438 -130.318148 
L 154.46166 -129.918411 
L 154.390924 -129.518674 
L 154.335463 -129.118937 
L 154.295254 -128.7192 
L 154.269904 -128.319463 
L 154.258549 -127.919726 
L 154.259817 -127.519989 
L 154.27184 -127.120252 
L 154.292337 -126.720515 
L 154.318754 -126.320778 
L 154.348443 -125.921041 
L 154.378872 -125.521304 
L 154.40783 -125.121567 
L 154.433603 -124.72183 
L 154.4551 -124.322093 
L 154.471915 -123.922356 
L 154.484311 -123.522619 
L 154.493124 -123.122882 
L 154.499615 -122.723145 
L 154.505261 -122.323408 
L 154.511536 -121.923671 
L 154.519689 -121.523934 
L 154.530553 -121.124197 
L 154.544403 -120.72446 
L 154.560871 -120.324723 
L 154.578942 -119.924986 
L 154.59701 -119.525249 
L 154.613 -119.125512 
L 154.624538 -118.725775 
L 154.629148 -118.326038 
L 154.624468 -117.9263 
L 154.608451 -117.526563 
L 154.57954 -117.126826 
L 154.536805 -116.727089 
L 154.480025 -116.327352 
L 154.409713 -115.927615 
z
" style="stroke: #484848; stroke-opacity: 0.9; stroke-width: 1.25"/>
    </defs>
    <g clip-path="url(#pea70f21a90)">
     <use xlink:href="#m6668d26007" x="0" y="201.6" style="fill: #1ea0d1; fill-opacity: 0.9; stroke: #484848; stroke-opacity: 0.9; stroke-width: 1.25"/>
    </g>
   </g>
   <g id="matplotlib.axis_1">
    <g id="xtick_1">
     <g id="line2d_1">
      <defs>
       <path id="maab7a0054c" d="M 0 0 
L 0 3.5 
" style="stroke: #000000; stroke-width: 0.8"/>
      </defs>
      <g>
       <use xlink:href="#maab7a0054c" x="68.427273" y="179.424" style="stroke: #000000; stroke-width: 0.8"/>
      </g>
     </g>
     <g id="text_1">
      <!-- sensory -->
      <g transform="translate(35.429143 235.516136) rotate(-30) scale(0.18 -0.18)">
       <defs>
        <path id="DejaVuSans-73" d="M 2834 3397 
L 2834 2853 
Q 2591 2978 2328 3040 
Q 2066 3103 1784 3103 
Q 1356 3103 1142 2972 
Q 928 2841 928 2578 
Q 928 2378 1081 2264 
Q 1234 2150 1697 2047 
L 1894 2003 
Q 2506 1872 2764 1633 
Q 3022 1394 3022 966 
Q 3022 478 2636 193 
Q 2250 -91 1575 -91 
Q 1294 -91 989 -36 
Q 684 19 347 128 
L 347 722 
Q 666 556 975 473 
Q 1284 391 1588 391 
Q 1994 391 2212 530 
Q 2431 669 2431 922 
Q 2431 1156 2273 1281 
Q 2116 1406 1581 1522 
L 1381 1569 
Q 847 1681 609 1914 
Q 372 2147 372 2553 
Q 372 3047 722 3315 
Q 1072 3584 1716 3584 
Q 2034 3584 2315 3537 
Q 2597 3491 2834 3397 
z
" transform="scale(0.015625)"/>
        <path id="DejaVuSans-65" d="M 3597 1894 
L 3597 1613 
L 953 1613 
Q 991 1019 1311 708 
Q 1631 397 2203 397 
Q 2534 397 2845 478 
Q 3156 559 3463 722 
L 3463 178 
Q 3153 47 2828 -22 
Q 2503 -91 2169 -91 
Q 1331 -91 842 396 
Q 353 884 353 1716 
Q 353 2575 817 3079 
Q 1281 3584 2069 3584 
Q 2775 3584 3186 3129 
Q 3597 2675 3597 1894 
z
M 3022 2063 
Q 3016 2534 2758 2815 
Q 2500 3097 2075 3097 
Q 1594 3097 1305 2825 
Q 1016 2553 972 2059 
L 3022 2063 
z
" transform="scale(0.015625)"/>
        <path id="DejaVuSans-6e" d="M 3513 2113 
L 3513 0 
L 2938 0 
L 2938 2094 
Q 2938 2591 2744 2837 
Q 2550 3084 2163 3084 
Q 1697 3084 1428 2787 
Q 1159 2491 1159 1978 
L 1159 0 
L 581 0 
L 581 3500 
L 1159 3500 
L 1159 2956 
Q 1366 3272 1645 3428 
Q 1925 3584 2291 3584 
Q 2894 3584 3203 3211 
Q 3513 2838 3513 2113 
z
" transform="scale(0.015625)"/>
        <path id="DejaVuSans-6f" d="M 1959 3097 
Q 1497 3097 1228 2736 
Q 959 2375 959 1747 
Q 959 1119 1226 758 
Q 1494 397 1959 397 
Q 2419 397 2687 759 
Q 2956 1122 2956 1747 
Q 2956 2369 2687 2733 
Q 2419 3097 1959 3097 
z
M 1959 3584 
Q 2709 3584 3137 3096 
Q 3566 2609 3566 1747 
Q 3566 888 3137 398 
Q 2709 -91 1959 -91 
Q 1206 -91 779 398 
Q 353 888 353 1747 
Q 353 2609 779 3096 
Q 1206 3584 1959 3584 
z
" transform="scale(0.015625)"/>
        <path id="DejaVuSans-72" d="M 2631 2963 
Q 2534 3019 2420 3045 
Q 2306 3072 2169 3072 
Q 1681 3072 1420 2755 
Q 1159 2438 1159 1844 
L 1159 0 
L 581 0 
L 581 3500 
L 1159 3500 
L 1159 2956 
Q 1341 3275 1631 3429 
Q 1922 3584 2338 3584 
Q 2397 3584 2469 3576 
Q 2541 3569 2628 3553 
L 2631 2963 
z
" transform="scale(0.015625)"/>
        <path id="DejaVuSans-79" d="M 2059 -325 
Q 1816 -950 1584 -1140 
Q 1353 -1331 966 -1331 
L 506 -1331 
L 506 -850 
L 844 -850 
Q 1081 -850 1212 -737 
Q 1344 -625 1503 -206 
L 1606 56 
L 191 3500 
L 800 3500 
L 1894 763 
L 2988 3500 
L 3597 3500 
L 2059 -325 
z
" transform="scale(0.015625)"/>
       </defs>
       <use xlink:href="#DejaVuSans-73"/>
       <use xlink:href="#DejaVuSans-65" transform="translate(52.099609 0)"/>
       <use xlink:href="#DejaVuSans-6e" transform="translate(113.623047 0)"/>
       <use xlink:href="#DejaVuSans-73" transform="translate(177.001953 0)"/>
       <use xlink:href="#DejaVuSans-6f" transform="translate(229.101562 0)"/>
       <use xlink:href="#DejaVuSans-72" transform="translate(290.283203 0)"/>
       <use xlink:href="#DejaVuSans-79" transform="translate(331.396484 0)"/>
      </g>
      <!-- replayed -->
      <g transform="translate(41.877986 255.06711) rotate(-30) scale(0.18 -0.18)">
       <defs>
        <path id="DejaVuSans-70" d="M 1159 525 
L 1159 -1331 
L 581 -1331 
L 581 3500 
L 1159 3500 
L 1159 2969 
Q 1341 3281 1617 3432 
Q 1894 3584 2278 3584 
Q 2916 3584 3314 3078 
Q 3713 2572 3713 1747 
Q 3713 922 3314 415 
Q 2916 -91 2278 -91 
Q 1894 -91 1617 61 
Q 1341 213 1159 525 
z
M 3116 1747 
Q 3116 2381 2855 2742 
Q 2594 3103 2138 3103 
Q 1681 3103 1420 2742 
Q 1159 2381 1159 1747 
Q 1159 1113 1420 752 
Q 1681 391 2138 391 
Q 2594 391 2855 752 
Q 3116 1113 3116 1747 
z
" transform="scale(0.015625)"/>
        <path id="DejaVuSans-6c" d="M 603 4863 
L 1178 4863 
L 1178 0 
L 603 0 
L 603 4863 
z
" transform="scale(0.015625)"/>
        <path id="DejaVuSans-61" d="M 2194 1759 
Q 1497 1759 1228 1600 
Q 959 1441 959 1056 
Q 959 750 1161 570 
Q 1363 391 1709 391 
Q 2188 391 2477 730 
Q 2766 1069 2766 1631 
L 2766 1759 
L 2194 1759 
z
M 3341 1997 
L 3341 0 
L 2766 0 
L 2766 531 
Q 2569 213 2275 61 
Q 1981 -91 1556 -91 
Q 1019 -91 701 211 
Q 384 513 384 1019 
Q 384 1609 779 1909 
Q 1175 2209 1959 2209 
L 2766 2209 
L 2766 2266 
Q 2766 2663 2505 2880 
Q 2244 3097 1772 3097 
Q 1472 3097 1187 3025 
Q 903 2953 641 2809 
L 641 3341 
Q 956 3463 1253 3523 
Q 1550 3584 1831 3584 
Q 2591 3584 2966 3190 
Q 3341 2797 3341 1997 
z
" transform="scale(0.015625)"/>
        <path id="DejaVuSans-64" d="M 2906 2969 
L 2906 4863 
L 3481 4863 
L 3481 0 
L 2906 0 
L 2906 525 
Q 2725 213 2448 61 
Q 2172 -91 1784 -91 
Q 1150 -91 751 415 
Q 353 922 353 1747 
Q 353 2572 751 3078 
Q 1150 3584 1784 3584 
Q 2172 3584 2448 3432 
Q 2725 3281 2906 2969 
z
M 947 1747 
Q 947 1113 1208 752 
Q 1469 391 1925 391 
Q 2381 391 2643 752 
Q 2906 1113 2906 1747 
Q 2906 2381 2643 2742 
Q 2381 3103 1925 3103 
Q 1469 3103 1208 2742 
Q 947 2381 947 1747 
z
" transform="scale(0.015625)"/>
       </defs>
       <use xlink:href="#DejaVuSans-72"/>
       <use xlink:href="#DejaVuSans-65" transform="translate(38.863281 0)"/>
       <use xlink:href="#DejaVuSans-70" transform="translate(100.386719 0)"/>
       <use xlink:href="#DejaVuSans-6c" transform="translate(163.863281 0)"/>
       <use xlink:href="#DejaVuSans-61" transform="translate(191.646484 0)"/>
       <use xlink:href="#DejaVuSans-79" transform="translate(252.925781 0)"/>
       <use xlink:href="#DejaVuSans-65" transform="translate(312.105469 0)"/>
       <use xlink:href="#DejaVuSans-64" transform="translate(373.628906 0)"/>
      </g>
     </g>
    </g>
    <g id="xtick_2">
     <g id="line2d_2">
      <g>
       <use xlink:href="#maab7a0054c" x="152.972727" y="179.424" style="stroke: #000000; stroke-width: 0.8"/>
      </g>
     </g>
     <g id="text_2">
      <!-- sensory-semantic -->
      <g transform="translate(81.62821 277.699417) rotate(-30) scale(0.18 -0.18)">
       <defs>
        <path id="DejaVuSans-2d" d="M 313 2009 
L 1997 2009 
L 1997 1497 
L 313 1497 
L 313 2009 
z
" transform="scale(0.015625)"/>
        <path id="DejaVuSans-6d" d="M 3328 2828 
Q 3544 3216 3844 3400 
Q 4144 3584 4550 3584 
Q 5097 3584 5394 3201 
Q 5691 2819 5691 2113 
L 5691 0 
L 5113 0 
L 5113 2094 
Q 5113 2597 4934 2840 
Q 4756 3084 4391 3084 
Q 3944 3084 3684 2787 
Q 3425 2491 3425 1978 
L 3425 0 
L 2847 0 
L 2847 2094 
Q 2847 2600 2669 2842 
Q 2491 3084 2119 3084 
Q 1678 3084 1418 2786 
Q 1159 2488 1159 1978 
L 1159 0 
L 581 0 
L 581 3500 
L 1159 3500 
L 1159 2956 
Q 1356 3278 1631 3431 
Q 1906 3584 2284 3584 
Q 2666 3584 2933 3390 
Q 3200 3197 3328 2828 
z
" transform="scale(0.015625)"/>
        <path id="DejaVuSans-74" d="M 1172 4494 
L 1172 3500 
L 2356 3500 
L 2356 3053 
L 1172 3053 
L 1172 1153 
Q 1172 725 1289 603 
Q 1406 481 1766 481 
L 2356 481 
L 2356 0 
L 1766 0 
Q 1100 0 847 248 
Q 594 497 594 1153 
L 594 3053 
L 172 3053 
L 172 3500 
L 594 3500 
L 594 4494 
L 1172 4494 
z
" transform="scale(0.015625)"/>
        <path id="DejaVuSans-69" d="M 603 3500 
L 1178 3500 
L 1178 0 
L 603 0 
L 603 3500 
z
M 603 4863 
L 1178 4863 
L 1178 4134 
L 603 4134 
L 603 4863 
z
" transform="scale(0.015625)"/>
        <path id="DejaVuSans-63" d="M 3122 3366 
L 3122 2828 
Q 2878 2963 2633 3030 
Q 2388 3097 2138 3097 
Q 1578 3097 1268 2742 
Q 959 2388 959 1747 
Q 959 1106 1268 751 
Q 1578 397 2138 397 
Q 2388 397 2633 464 
Q 2878 531 3122 666 
L 3122 134 
Q 2881 22 2623 -34 
Q 2366 -91 2075 -91 
Q 1284 -91 818 406 
Q 353 903 353 1747 
Q 353 2603 823 3093 
Q 1294 3584 2113 3584 
Q 2378 3584 2631 3529 
Q 2884 3475 3122 3366 
z
" transform="scale(0.015625)"/>
       </defs>
       <use xlink:href="#DejaVuSans-73"/>
       <use xlink:href="#DejaVuSans-65" transform="translate(52.099609 0)"/>
       <use xlink:href="#DejaVuSans-6e" transform="translate(113.623047 0)"/>
       <use xlink:href="#DejaVuSans-73" transform="translate(177.001953 0)"/>
       <use xlink:href="#DejaVuSans-6f" transform="translate(229.101562 0)"/>
       <use xlink:href="#DejaVuSans-72" transform="translate(290.283203 0)"/>
       <use xlink:href="#DejaVuSans-79" transform="translate(331.396484 0)"/>
       <use xlink:href="#DejaVuSans-2d" transform="translate(388.826172 0)"/>
       <use xlink:href="#DejaVuSans-73" transform="translate(424.910156 0)"/>
       <use xlink:href="#DejaVuSans-65" transform="translate(477.009766 0)"/>
       <use xlink:href="#DejaVuSans-6d" transform="translate(538.533203 0)"/>
       <use xlink:href="#DejaVuSans-61" transform="translate(635.945312 0)"/>
       <use xlink:href="#DejaVuSans-6e" transform="translate(697.224609 0)"/>
       <use xlink:href="#DejaVuSans-74" transform="translate(760.603516 0)"/>
       <use xlink:href="#DejaVuSans-69" transform="translate(799.8125 0)"/>
       <use xlink:href="#DejaVuSans-63" transform="translate(827.595703 0)"/>
      </g>
      <!-- replayed -->
      <g transform="translate(126.423441 275.111095) rotate(-30) scale(0.18 -0.18)">
       <use xlink:href="#DejaVuSans-72"/>
       <use xlink:href="#DejaVuSans-65" transform="translate(38.863281 0)"/>
       <use xlink:href="#DejaVuSans-70" transform="translate(100.386719 0)"/>
       <use xlink:href="#DejaVuSans-6c" transform="translate(163.863281 0)"/>
       <use xlink:href="#DejaVuSans-61" transform="translate(191.646484 0)"/>
       <use xlink:href="#DejaVuSans-79" transform="translate(252.925781 0)"/>
       <use xlink:href="#DejaVuSans-65" transform="translate(312.105469 0)"/>
       <use xlink:href="#DejaVuSans-64" transform="translate(373.628906 0)"/>
      </g>
     </g>
    </g>
   </g>
   <g id="matplotlib.axis_2">
    <g id="ytick_1">
     <g id="line2d_3">
      <defs>
       <path id="m3cfc849359" d="M 0 0 
L -3.5 0 
" style="stroke: #000000; stroke-width: 0.8"/>
      </defs>
      <g>
       <use xlink:href="#m3cfc849359" x="27" y="179.424" style="stroke: #000000; stroke-width: 0.8"/>
      </g>
     </g>
     <g id="text_3">
      <!-- 0.0 -->
      <g transform="translate(-8.625625 186.262594) scale(0.18 -0.18)">
       <defs>
        <path id="DejaVuSans-30" d="M 2034 4250 
Q 1547 4250 1301 3770 
Q 1056 3291 1056 2328 
Q 1056 1369 1301 889 
Q 1547 409 2034 409 
Q 2525 409 2770 889 
Q 3016 1369 3016 2328 
Q 3016 3291 2770 3770 
Q 2525 4250 2034 4250 
z
M 2034 4750 
Q 2819 4750 3233 4129 
Q 3647 3509 3647 2328 
Q 3647 1150 3233 529 
Q 2819 -91 2034 -91 
Q 1250 -91 836 529 
Q 422 1150 422 2328 
Q 422 3509 836 4129 
Q 1250 4750 2034 4750 
z
" transform="scale(0.015625)"/>
        <path id="DejaVuSans-2e" d="M 684 794 
L 1344 794 
L 1344 0 
L 684 0 
L 684 794 
z
" transform="scale(0.015625)"/>
       </defs>
       <use xlink:href="#DejaVuSans-30"/>
       <use xlink:href="#DejaVuSans-2e" transform="translate(63.623047 0)"/>
       <use xlink:href="#DejaVuSans-30" transform="translate(95.410156 0)"/>
      </g>
     </g>
    </g>
    <g id="ytick_2">
     <g id="line2d_4">
      <g>
       <use xlink:href="#m3cfc849359" x="27" y="112.434636" style="stroke: #000000; stroke-width: 0.8"/>
      </g>
     </g>
     <g id="text_4">
      <!-- 0.5 -->
      <g transform="translate(-8.625625 119.27323) scale(0.18 -0.18)">
       <defs>
        <path id="DejaVuSans-35" d="M 691 4666 
L 3169 4666 
L 3169 4134 
L 1269 4134 
L 1269 2991 
Q 1406 3038 1543 3061 
Q 1681 3084 1819 3084 
Q 2600 3084 3056 2656 
Q 3513 2228 3513 1497 
Q 3513 744 3044 326 
Q 2575 -91 1722 -91 
Q 1428 -91 1123 -41 
Q 819 9 494 109 
L 494 744 
Q 775 591 1075 516 
Q 1375 441 1709 441 
Q 2250 441 2565 725 
Q 2881 1009 2881 1497 
Q 2881 1984 2565 2268 
Q 2250 2553 1709 2553 
Q 1456 2553 1204 2497 
Q 953 2441 691 2322 
L 691 4666 
z
" transform="scale(0.015625)"/>
       </defs>
       <use xlink:href="#DejaVuSans-30"/>
       <use xlink:href="#DejaVuSans-2e" transform="translate(63.623047 0)"/>
       <use xlink:href="#DejaVuSans-35" transform="translate(95.410156 0)"/>
      </g>
     </g>
    </g>
    <g id="ytick_3">
     <g id="line2d_5">
      <g>
       <use xlink:href="#m3cfc849359" x="27" y="45.445273" style="stroke: #000000; stroke-width: 0.8"/>
      </g>
     </g>
     <g id="text_5">
      <!-- 1.0 -->
      <g transform="translate(-8.625625 52.283866) scale(0.18 -0.18)">
       <defs>
        <path id="DejaVuSans-31" d="M 794 531 
L 1825 531 
L 1825 4091 
L 703 3866 
L 703 4441 
L 1819 4666 
L 2450 4666 
L 2450 531 
L 3481 531 
L 3481 0 
L 794 0 
L 794 531 
z
" transform="scale(0.015625)"/>
       </defs>
       <use xlink:href="#DejaVuSans-31"/>
       <use xlink:href="#DejaVuSans-2e" transform="translate(63.623047 0)"/>
       <use xlink:href="#DejaVuSans-30" transform="translate(95.410156 0)"/>
      </g>
     </g>
    </g>
    <g id="text_6">
     <!-- Accuracy -->
     <g transform="translate(-16.785 147.46425) rotate(-90) scale(0.2 -0.2)">
      <defs>
       <path id="DejaVuSans-41" d="M 2188 4044 
L 1331 1722 
L 3047 1722 
L 2188 4044 
z
M 1831 4666 
L 2547 4666 
L 4325 0 
L 3669 0 
L 3244 1197 
L 1141 1197 
L 716 0 
L 50 0 
L 1831 4666 
z
" transform="scale(0.015625)"/>
       <path id="DejaVuSans-75" d="M 544 1381 
L 544 3500 
L 1119 3500 
L 1119 1403 
Q 1119 906 1312 657 
Q 1506 409 1894 409 
Q 2359 409 2629 706 
Q 2900 1003 2900 1516 
L 2900 3500 
L 3475 3500 
L 3475 0 
L 2900 0 
L 2900 538 
Q 2691 219 2414 64 
Q 2138 -91 1772 -91 
Q 1169 -91 856 284 
Q 544 659 544 1381 
z
M 1991 3584 
L 1991 3584 
z
" transform="scale(0.015625)"/>
      </defs>
      <use xlink:href="#DejaVuSans-41"/>
      <use xlink:href="#DejaVuSans-63" transform="translate(66.658203 0)"/>
      <use xlink:href="#DejaVuSans-63" transform="translate(121.638672 0)"/>
      <use xlink:href="#DejaVuSans-75" transform="translate(176.619141 0)"/>
      <use xlink:href="#DejaVuSans-72" transform="translate(239.998047 0)"/>
      <use xlink:href="#DejaVuSans-61" transform="translate(281.111328 0)"/>
      <use xlink:href="#DejaVuSans-63" transform="translate(342.390625 0)"/>
      <use xlink:href="#DejaVuSans-79" transform="translate(397.371094 0)"/>
     </g>
    </g>
   </g>
   <g id="line2d_6">
    <path d="M 68.427273 43.369344 
L 68.427273 27.291896 
L 152.972727 27.291896 
L 152.972727 43.369344 
" style="fill: none; stroke: #000000; stroke-width: 2; stroke-linecap: square"/>
   </g>
   <g id="patch_3">
    <path d="M 27 179.424 
L 27 24.192 
" style="fill: none; stroke: #000000; stroke-width: 0.8; stroke-linejoin: miter; stroke-linecap: square"/>
   </g>
   <g id="patch_4">
    <path d="M 27 179.424 
L 194.4 179.424 
" style="fill: none; stroke: #000000; stroke-width: 0.8; stroke-linejoin: miter; stroke-linecap: square"/>
   </g>
   <g id="PathCollection_1">
    <defs>
     <path id="m620b56b50c" d="M 0 1.5 
C 0.397805 1.5 0.77937 1.341951 1.06066 1.06066 
C 1.341951 0.77937 1.5 0.397805 1.5 0 
C 1.5 -0.397805 1.341951 -0.77937 1.06066 -1.06066 
C 0.77937 -1.341951 0.397805 -1.5 0 -1.5 
C -0.397805 -1.5 -0.77937 -1.341951 -1.06066 -1.06066 
C -1.341951 -0.77937 -1.5 -0.397805 -1.5 0 
C -1.5 0.397805 -1.341951 0.77937 -1.06066 1.06066 
C -0.77937 1.341951 -0.397805 1.5 0 1.5 
z
"/>
    </defs>
    <g clip-path="url(#pea70f21a90)">
     <use xlink:href="#m620b56b50c" x="70.078057" y="56.130076" style="fill-opacity: 0.05"/>
     <use xlink:href="#m620b56b50c" x="75.704586" y="58.072771" style="fill-opacity: 0.05"/>
     <use xlink:href="#m620b56b50c" x="71.902543" y="54.237628" style="fill-opacity: 0.05"/>
     <use xlink:href="#m620b56b50c" x="69.94514" y="57.553601" style="fill-opacity: 0.05"/>
     <use xlink:href="#m620b56b50c" x="65.845417" y="59.094356" style="fill-opacity: 0.05"/>
     <use xlink:href="#m620b56b50c" x="73.361146" y="80.212756" style="fill-opacity: 0.05"/>
     <use xlink:href="#m620b56b50c" x="66.316586" y="88.435695" style="fill-opacity: 0.05"/>
     <use xlink:href="#m620b56b50c" x="81.676323" y="58.859895" style="fill-opacity: 0.05"/>
     <use xlink:href="#m620b56b50c" x="84.107504" y="47.622429" style="fill-opacity: 0.05"/>
     <use xlink:href="#m620b56b50c" x="64.485477" y="51.072379" style="fill-opacity: 0.05"/>
     <use xlink:href="#m620b56b50c" x="78.292883" y="49.715846" style="fill-opacity: 0.05"/>
     <use xlink:href="#m620b56b50c" x="69.404446" y="51.139371" style="fill-opacity: 0.05"/>
     <use xlink:href="#m620b56b50c" x="70.728416" y="68.305389" style="fill-opacity: 0.05"/>
     <use xlink:href="#m620b56b50c" x="82.820177" y="81.485549" style="fill-opacity: 0.05"/>
     <use xlink:href="#m620b56b50c" x="53.920492" y="50.770924" style="fill-opacity: 0.05"/>
     <use xlink:href="#m620b56b50c" x="54.464736" y="57.771316" style="fill-opacity: 0.05"/>
     <use xlink:href="#m620b56b50c" x="52.201931" y="62.259606" style="fill-opacity: 0.05"/>
     <use xlink:href="#m620b56b50c" x="79.675871" y="50.871409" style="fill-opacity: 0.05"/>
     <use xlink:href="#m620b56b50c" x="77.834028" y="65.089901" style="fill-opacity: 0.05"/>
     <use xlink:href="#m620b56b50c" x="80.940411" y="51.558048" style="fill-opacity: 0.05"/>
     <use xlink:href="#m620b56b50c" x="84.613275" y="53.835689" style="fill-opacity: 0.05"/>
     <use xlink:href="#m620b56b50c" x="78.544271" y="51.959987" style="fill-opacity: 0.05"/>
     <use xlink:href="#m620b56b50c" x="67.124575" y="57.352631" style="fill-opacity: 0.05"/>
     <use xlink:href="#m620b56b50c" x="77.914259" y="53.065311" style="fill-opacity: 0.05"/>
     <use xlink:href="#m620b56b50c" x="55.518008" y="52.680127" style="fill-opacity: 0.05"/>
     <use xlink:href="#m620b56b50c" x="73.159147" y="57.302393" style="fill-opacity: 0.05"/>
     <use xlink:href="#m620b56b50c" x="56.366129" y="66.630657" style="fill-opacity: 0.05"/>
     <use xlink:href="#m620b56b50c" x="83.465167" y="57.2354" style="fill-opacity: 0.05"/>
     <use xlink:href="#m620b56b50c" x="69.166143" y="60.099196" style="fill-opacity: 0.05"/>
     <use xlink:href="#m620b56b50c" x="65.541295" y="50.168024" style="fill-opacity: 0.05"/>
     <use xlink:href="#m620b56b50c" x="60.464972" y="56.213815" style="fill-opacity: 0.05"/>
     <use xlink:href="#m620b56b50c" x="77.701357" y="58.441209" style="fill-opacity: 0.05"/>
     <use xlink:href="#m620b56b50c" x="66.944357" y="58.859895" style="fill-opacity: 0.05"/>
     <use xlink:href="#m620b56b50c" x="70.741584" y="54.840529" style="fill-opacity: 0.05"/>
     <use xlink:href="#m620b56b50c" x="52.153619" y="60.534627" style="fill-opacity: 0.05"/>
     <use xlink:href="#m620b56b50c" x="72.405491" y="54.539082" style="fill-opacity: 0.05"/>
     <use xlink:href="#m620b56b50c" x="72.218146" y="49.431138" style="fill-opacity: 0.05"/>
     <use xlink:href="#m620b56b50c" x="72.381768" y="57.402878" style="fill-opacity: 0.05"/>
     <use xlink:href="#m620b56b50c" x="83.434026" y="52.093964" style="fill-opacity: 0.05"/>
     <use xlink:href="#m620b56b50c" x="74.576105" y="51.273348" style="fill-opacity: 0.05"/>
     <use xlink:href="#m620b56b50c" x="63.676085" y="64.302777" style="fill-opacity: 0.05"/>
     <use xlink:href="#m620b56b50c" x="66.297808" y="55.27596" style="fill-opacity: 0.05"/>
     <use xlink:href="#m620b56b50c" x="75.1108" y="53.601227" style="fill-opacity: 0.05"/>
     <use xlink:href="#m620b56b50c" x="53.554898" y="53.617974" style="fill-opacity: 0.05"/>
     <use xlink:href="#m620b56b50c" x="74.06702" y="67.200065" style="fill-opacity: 0.05"/>
     <use xlink:href="#m620b56b50c" x="74.197935" y="61.422236" style="fill-opacity: 0.05"/>
     <use xlink:href="#m620b56b50c" x="58.632938" y="52.546142" style="fill-opacity: 0.05"/>
     <use xlink:href="#m620b56b50c" x="55.878235" y="49.816331" style="fill-opacity: 0.05"/>
     <use xlink:href="#m620b56b50c" x="62.185395" y="67.30055" style="fill-opacity: 0.05"/>
     <use xlink:href="#m620b56b50c" x="63.818219" y="54.103651" style="fill-opacity: 0.05"/>
     <use xlink:href="#m620b56b50c" x="70.8012" y="53.182542" style="fill-opacity: 0.05"/>
     <use xlink:href="#m620b56b50c" x="66.350888" y="55.694645" style="fill-opacity: 0.05"/>
     <use xlink:href="#m620b56b50c" x="84.943188" y="59.630272" style="fill-opacity: 0.05"/>
     <use xlink:href="#m620b56b50c" x="54.969152" y="53.249535" style="fill-opacity: 0.05"/>
     <use xlink:href="#m620b56b50c" x="58.582014" y="57.637339" style="fill-opacity: 0.05"/>
     <use xlink:href="#m620b56b50c" x="56.973376" y="56.866962" style="fill-opacity: 0.05"/>
     <use xlink:href="#m620b56b50c" x="73.605118" y="57.804809" style="fill-opacity: 0.05"/>
     <use xlink:href="#m620b56b50c" x="60.084043" y="60.048957" style="fill-opacity: 0.05"/>
     <use xlink:href="#m620b56b50c" x="67.287964" y="56.230561" style="fill-opacity: 0.05"/>
     <use xlink:href="#m620b56b50c" x="59.784211" y="65.140147" style="fill-opacity: 0.05"/>
     <use xlink:href="#m620b56b50c" x="56.894244" y="64.36977" style="fill-opacity: 0.05"/>
     <use xlink:href="#m620b56b50c" x="55.250868" y="78.018854" style="fill-opacity: 0.05"/>
     <use xlink:href="#m620b56b50c" x="73.714055" y="55.962599" style="fill-opacity: 0.05"/>
     <use xlink:href="#m620b56b50c" x="56.191278" y="53.818943" style="fill-opacity: 0.05"/>
     <use xlink:href="#m620b56b50c" x="58.16624" y="50.117777" style="fill-opacity: 0.05"/>
     <use xlink:href="#m620b56b50c" x="63.987797" y="59.36231" style="fill-opacity: 0.05"/>
     <use xlink:href="#m620b56b50c" x="79.28268" y="89.289812" style="fill-opacity: 0.05"/>
     <use xlink:href="#m620b56b50c" x="54.80197" y="60.434142" style="fill-opacity: 0.05"/>
     <use xlink:href="#m620b56b50c" x="79.855955" y="49.732593" style="fill-opacity: 0.05"/>
     <use xlink:href="#m620b56b50c" x="54.768055" y="54.371605" style="fill-opacity: 0.05"/>
     <use xlink:href="#m620b56b50c" x="84.540266" y="53.132304" style="fill-opacity: 0.05"/>
     <use xlink:href="#m620b56b50c" x="67.367113" y="52.881088" style="fill-opacity: 0.05"/>
     <use xlink:href="#m620b56b50c" x="84.550466" y="57.302393" style="fill-opacity: 0.05"/>
     <use xlink:href="#m620b56b50c" x="71.972958" y="50.285255" style="fill-opacity: 0.05"/>
     <use xlink:href="#m620b56b50c" x="76.518732" y="48.426299" style="fill-opacity: 0.05"/>
     <use xlink:href="#m620b56b50c" x="52.843442" y="53.417004" style="fill-opacity: 0.05"/>
     <use xlink:href="#m620b56b50c" x="61.082199" y="82.825335" style="fill-opacity: 0.05"/>
     <use xlink:href="#m620b56b50c" x="55.583011" y="53.818943" style="fill-opacity: 0.05"/>
     <use xlink:href="#m620b56b50c" x="61.533105" y="87.581579" style="fill-opacity: 0.05"/>
     <use xlink:href="#m620b56b50c" x="55.533337" y="56.850216" style="fill-opacity: 0.05"/>
     <use xlink:href="#m620b56b50c" x="62.271795" y="61.120781" style="fill-opacity: 0.05"/>
     <use xlink:href="#m620b56b50c" x="65.527803" y="54.907521" style="fill-opacity: 0.05"/>
     <use xlink:href="#m620b56b50c" x="53.687534" y="57.252147" style="fill-opacity: 0.05"/>
     <use xlink:href="#m620b56b50c" x="74.93633" y="52.328426" style="fill-opacity: 0.05"/>
     <use xlink:href="#m620b56b50c" x="70.679613" y="61.20452" style="fill-opacity: 0.05"/>
     <use xlink:href="#m620b56b50c" x="60.493172" y="63.582646" style="fill-opacity: 0.05"/>
     <use xlink:href="#m620b56b50c" x="69.21348" y="85.722631" style="fill-opacity: 0.05"/>
     <use xlink:href="#m620b56b50c" x="54.695079" y="54.673059" style="fill-opacity: 0.05"/>
     <use xlink:href="#m620b56b50c" x="70.995645" y="50.368993" style="fill-opacity: 0.05"/>
     <use xlink:href="#m620b56b50c" x="82.94529" y="67.283803" style="fill-opacity: 0.05"/>
     <use xlink:href="#m620b56b50c" x="62.291605" y="60.333658" style="fill-opacity: 0.05"/>
     <use xlink:href="#m620b56b50c" x="74.088787" y="64.855439" style="fill-opacity: 0.05"/>
     <use xlink:href="#m620b56b50c" x="55.975346" y="54.120397" style="fill-opacity: 0.05"/>
     <use xlink:href="#m620b56b50c" x="75.743065" y="54.15389" style="fill-opacity: 0.05"/>
     <use xlink:href="#m620b56b50c" x="61.30537" y="51.491064" style="fill-opacity: 0.05"/>
     <use xlink:href="#m620b56b50c" x="57.713381" y="53.182542" style="fill-opacity: 0.05"/>
     <use xlink:href="#m620b56b50c" x="71.352983" y="52.763857" style="fill-opacity: 0.05"/>
     <use xlink:href="#m620b56b50c" x="52.198182" y="59.814488" style="fill-opacity: 0.05"/>
     <use xlink:href="#m620b56b50c" x="79.551426" y="60.651858" style="fill-opacity: 0.05"/>
     <use xlink:href="#m620b56b50c" x="51.676974" y="52.981573" style="fill-opacity: 0.05"/>
    </g>
   </g>
   <g id="PathCollection_2">
    <g clip-path="url(#pea70f21a90)">
     <use xlink:href="#m620b56b50c" x="158.986159" y="49.933562" style="fill-opacity: 0.05"/>
     <use xlink:href="#m620b56b50c" x="145.194815" y="58.926879" style="fill-opacity: 0.05"/>
     <use xlink:href="#m620b56b50c" x="160.926561" y="51.005386" style="fill-opacity: 0.05"/>
     <use xlink:href="#m620b56b50c" x="168.603104" y="53.400258" style="fill-opacity: 0.05"/>
     <use xlink:href="#m620b56b50c" x="144.476015" y="51.223102" style="fill-opacity: 0.05"/>
     <use xlink:href="#m620b56b50c" x="155.54823" y="54.086897" style="fill-opacity: 0.05"/>
     <use xlink:href="#m620b56b50c" x="156.085418" y="85.672385" style="fill-opacity: 0.05"/>
     <use xlink:href="#m620b56b50c" x="155.416155" y="52.998327" style="fill-opacity: 0.05"/>
     <use xlink:href="#m620b56b50c" x="143.607852" y="53.366766" style="fill-opacity: 0.05"/>
     <use xlink:href="#m620b56b50c" x="168.283876" y="47.639175" style="fill-opacity: 0.05"/>
     <use xlink:href="#m620b56b50c" x="151.184604" y="48.811492" style="fill-opacity: 0.05"/>
     <use xlink:href="#m620b56b50c" x="164.687639" y="50.251762" style="fill-opacity: 0.05"/>
     <use xlink:href="#m620b56b50c" x="159.718754" y="77.014014" style="fill-opacity: 0.05"/>
     <use xlink:href="#m620b56b50c" x="146.122413" y="77.164737" style="fill-opacity: 0.05"/>
     <use xlink:href="#m620b56b50c" x="163.584799" y="46.098419" style="fill-opacity: 0.05"/>
     <use xlink:href="#m620b56b50c" x="149.47274" y="55.996099" style="fill-opacity: 0.05"/>
     <use xlink:href="#m620b56b50c" x="165.860944" y="70.850992" style="fill-opacity: 0.05"/>
     <use xlink:href="#m620b56b50c" x="155.721228" y="48.476545" style="fill-opacity: 0.05"/>
     <use xlink:href="#m620b56b50c" x="165.882323" y="57.804809" style="fill-opacity: 0.05"/>
     <use xlink:href="#m620b56b50c" x="159.483796" y="51.038886" style="fill-opacity: 0.05"/>
     <use xlink:href="#m620b56b50c" x="160.590417" y="49.816331" style="fill-opacity: 0.05"/>
     <use xlink:href="#m620b56b50c" x="153.017515" y="52.02698" style="fill-opacity: 0.05"/>
     <use xlink:href="#m620b56b50c" x="168.396647" y="53.500743" style="fill-opacity: 0.05"/>
     <use xlink:href="#m620b56b50c" x="157.842214" y="55.443437" style="fill-opacity: 0.05"/>
     <use xlink:href="#m620b56b50c" x="150.397643" y="47.873637" style="fill-opacity: 0.05"/>
     <use xlink:href="#m620b56b50c" x="156.570752" y="53.450504" style="fill-opacity: 0.05"/>
     <use xlink:href="#m620b56b50c" x="136.712715" y="56.364538" style="fill-opacity: 0.05"/>
     <use xlink:href="#m620b56b50c" x="146.262348" y="56.6325" style="fill-opacity: 0.05"/>
     <use xlink:href="#m620b56b50c" x="158.389505" y="51.708779" style="fill-opacity: 0.05"/>
     <use xlink:href="#m620b56b50c" x="145.873534" y="53.065311" style="fill-opacity: 0.05"/>
     <use xlink:href="#m620b56b50c" x="156.963795" y="49.766085" style="fill-opacity: 0.05"/>
     <use xlink:href="#m620b56b50c" x="150.563814" y="65.893779" style="fill-opacity: 0.05"/>
     <use xlink:href="#m620b56b50c" x="140.645123" y="52.010234" style="fill-opacity: 0.05"/>
     <use xlink:href="#m620b56b50c" x="146.151002" y="52.613134" style="fill-opacity: 0.05"/>
     <use xlink:href="#m620b56b50c" x="155.338813" y="56.749731" style="fill-opacity: 0.05"/>
     <use xlink:href="#m620b56b50c" x="156.045879" y="48.86173" style="fill-opacity: 0.05"/>
     <use xlink:href="#m620b56b50c" x="155.486272" y="49.297161" style="fill-opacity: 0.05"/>
     <use xlink:href="#m620b56b50c" x="158.1537" y="62.293098" style="fill-opacity: 0.05"/>
     <use xlink:href="#m620b56b50c" x="158.116583" y="49.096192" style="fill-opacity: 0.05"/>
     <use xlink:href="#m620b56b50c" x="150.653423" y="51.625041" style="fill-opacity: 0.05"/>
     <use xlink:href="#m620b56b50c" x="166.383212" y="65.374609" style="fill-opacity: 0.05"/>
     <use xlink:href="#m620b56b50c" x="148.493911" y="52.579642" style="fill-opacity: 0.05"/>
     <use xlink:href="#m620b56b50c" x="150.803796" y="50.904909" style="fill-opacity: 0.05"/>
     <use xlink:href="#m620b56b50c" x="166.226863" y="51.30684" style="fill-opacity: 0.05"/>
     <use xlink:href="#m620b56b50c" x="163.327651" y="56.950692" style="fill-opacity: 0.05"/>
     <use xlink:href="#m620b56b50c" x="159.867868" y="50.603455" style="fill-opacity: 0.05"/>
     <use xlink:href="#m620b56b50c" x="139.453127" y="52.512649" style="fill-opacity: 0.05"/>
     <use xlink:href="#m620b56b50c" x="167.158867" y="49.280415" style="fill-opacity: 0.05"/>
     <use xlink:href="#m620b56b50c" x="160.217978" y="81.987973" style="fill-opacity: 0.05"/>
     <use xlink:href="#m620b56b50c" x="169.842826" y="50.871409" style="fill-opacity: 0.05"/>
     <use xlink:href="#m620b56b50c" x="141.117706" y="52.897842" style="fill-opacity: 0.05"/>
     <use xlink:href="#m620b56b50c" x="165.422081" y="49.916816" style="fill-opacity: 0.05"/>
     <use xlink:href="#m620b56b50c" x="141.558852" y="53.701712" style="fill-opacity: 0.05"/>
     <use xlink:href="#m620b56b50c" x="156.880742" y="50.804425" style="fill-opacity: 0.05"/>
     <use xlink:href="#m620b56b50c" x="140.251003" y="52.010234" style="fill-opacity: 0.05"/>
     <use xlink:href="#m620b56b50c" x="164.741733" y="50.687194" style="fill-opacity: 0.05"/>
     <use xlink:href="#m620b56b50c" x="163.365696" y="50.368993" style="fill-opacity: 0.05"/>
     <use xlink:href="#m620b56b50c" x="155.309589" y="57.771316" style="fill-opacity: 0.05"/>
     <use xlink:href="#m620b56b50c" x="149.833835" y="49.246923" style="fill-opacity: 0.05"/>
     <use xlink:href="#m620b56b50c" x="138.402738" y="48.476545" style="fill-opacity: 0.05"/>
     <use xlink:href="#m620b56b50c" x="159.649409" y="62.879253" style="fill-opacity: 0.05"/>
     <use xlink:href="#m620b56b50c" x="151.401625" y="68.874805" style="fill-opacity: 0.05"/>
     <use xlink:href="#m620b56b50c" x="160.482244" y="58.658925" style="fill-opacity: 0.05"/>
     <use xlink:href="#m620b56b50c" x="165.363111" y="49.900062" style="fill-opacity: 0.05"/>
     <use xlink:href="#m620b56b50c" x="169.054" y="48.727753" style="fill-opacity: 0.05"/>
     <use xlink:href="#m620b56b50c" x="165.005349" y="54.807036" style="fill-opacity: 0.05"/>
     <use xlink:href="#m620b56b50c" x="136.459785" y="60.266673" style="fill-opacity: 0.05"/>
     <use xlink:href="#m620b56b50c" x="148.23744" y="54.589321" style="fill-opacity: 0.05"/>
     <use xlink:href="#m620b56b50c" x="160.75059" y="55.811876" style="fill-opacity: 0.05"/>
     <use xlink:href="#m620b56b50c" x="141.86784" y="54.706552" style="fill-opacity: 0.05"/>
     <use xlink:href="#m620b56b50c" x="153.684147" y="50.168024" style="fill-opacity: 0.05"/>
     <use xlink:href="#m620b56b50c" x="137.901248" y="52.981573" style="fill-opacity: 0.05"/>
     <use xlink:href="#m620b56b50c" x="142.827155" y="50.67044" style="fill-opacity: 0.05"/>
     <use xlink:href="#m620b56b50c" x="136.69001" y="48.476545" style="fill-opacity: 0.05"/>
     <use xlink:href="#m620b56b50c" x="162.90505" y="46.399874" style="fill-opacity: 0.05"/>
     <use xlink:href="#m620b56b50c" x="143.636362" y="53.869181" style="fill-opacity: 0.05"/>
     <use xlink:href="#m620b56b50c" x="147.742802" y="58.106263" style="fill-opacity: 0.05"/>
     <use xlink:href="#m620b56b50c" x="167.449658" y="51.206356" style="fill-opacity: 0.05"/>
     <use xlink:href="#m620b56b50c" x="159.885651" y="84.583807" style="fill-opacity: 0.05"/>
     <use xlink:href="#m620b56b50c" x="137.140371" y="51.02214" style="fill-opacity: 0.05"/>
     <use xlink:href="#m620b56b50c" x="141.633293" y="59.07761" style="fill-opacity: 0.05"/>
     <use xlink:href="#m620b56b50c" x="157.080906" y="47.672667" style="fill-opacity: 0.05"/>
     <use xlink:href="#m620b56b50c" x="155.584458" y="54.019913" style="fill-opacity: 0.05"/>
     <use xlink:href="#m620b56b50c" x="144.108739" y="47.387967" style="fill-opacity: 0.05"/>
     <use xlink:href="#m620b56b50c" x="167.657055" y="61.20452" style="fill-opacity: 0.05"/>
     <use xlink:href="#m620b56b50c" x="156.826849" y="61.422236" style="fill-opacity: 0.05"/>
     <use xlink:href="#m620b56b50c" x="154.177764" y="64.989416" style="fill-opacity: 0.05"/>
     <use xlink:href="#m620b56b50c" x="156.013319" y="49.916816" style="fill-opacity: 0.05"/>
     <use xlink:href="#m620b56b50c" x="160.755036" y="52.060472" style="fill-opacity: 0.05"/>
     <use xlink:href="#m620b56b50c" x="146.613049" y="62.745276" style="fill-opacity: 0.05"/>
     <use xlink:href="#m620b56b50c" x="149.530749" y="54.773544" style="fill-opacity: 0.05"/>
     <use xlink:href="#m620b56b50c" x="143.16017" y="58.340725" style="fill-opacity: 0.05"/>
     <use xlink:href="#m620b56b50c" x="142.360345" y="49.431138" style="fill-opacity: 0.05"/>
     <use xlink:href="#m620b56b50c" x="168.000594" y="48.041114" style="fill-opacity: 0.05"/>
     <use xlink:href="#m620b56b50c" x="161.0739" y="52.462411" style="fill-opacity: 0.05"/>
     <use xlink:href="#m620b56b50c" x="152.650062" y="52.02698" style="fill-opacity: 0.05"/>
     <use xlink:href="#m620b56b50c" x="143.754386" y="49.967054" style="fill-opacity: 0.05"/>
     <use xlink:href="#m620b56b50c" x="144.66551" y="48.359306" style="fill-opacity: 0.05"/>
     <use xlink:href="#m620b56b50c" x="138.026077" y="60.702096" style="fill-opacity: 0.05"/>
     <use xlink:href="#m620b56b50c" x="150.754817" y="48.37606" style="fill-opacity: 0.05"/>
    </g>
   </g>
   <g id="text_7">
    <!-- *** -->
    <g transform="translate(98.7 23.964396) scale(0.16 -0.16)">
     <defs>
      <path id="DejaVuSans-2a" d="M 3009 3897 
L 1888 3291 
L 3009 2681 
L 2828 2375 
L 1778 3009 
L 1778 1831 
L 1422 1831 
L 1422 3009 
L 372 2375 
L 191 2681 
L 1313 3291 
L 191 3897 
L 372 4206 
L 1422 3572 
L 1422 4750 
L 1778 4750 
L 1778 3572 
L 2828 4206 
L 3009 3897 
z
" transform="scale(0.015625)"/>
     </defs>
     <use xlink:href="#DejaVuSans-2a"/>
     <use xlink:href="#DejaVuSans-2a" transform="translate(50 0)"/>
     <use xlink:href="#DejaVuSans-2a" transform="translate(100 0)"/>
    </g>
   </g>
   <g id="LineCollection_1">
    <path d="M 68.427273 59.437784 
L 68.427273 57.635878 
" clip-path="url(#pea70f21a90)" style="fill: none; stroke: #000000; stroke-width: 2"/>
    <path d="M 152.972727 55.668108 
L 152.972727 54.087648 
" clip-path="url(#pea70f21a90)" style="fill: none; stroke: #000000; stroke-width: 2"/>
   </g>
   <g id="line2d_7">
    <defs>
     <path id="mde26265a6d" d="M 5 0 
L -5 -0 
" style="stroke: #000000"/>
    </defs>
    <g clip-path="url(#pea70f21a90)">
     <use xlink:href="#mde26265a6d" x="68.427273" y="59.437784" style="stroke: #000000"/>
     <use xlink:href="#mde26265a6d" x="152.972727" y="55.668108" style="stroke: #000000"/>
    </g>
   </g>
   <g id="line2d_8">
    <g clip-path="url(#pea70f21a90)">
     <use xlink:href="#mde26265a6d" x="68.427273" y="57.635878" style="stroke: #000000"/>
     <use xlink:href="#mde26265a6d" x="152.972727" y="54.087648" style="stroke: #000000"/>
    </g>
   </g>
   <g id="line2d_9">
    <defs>
     <path id="mde26559d0b" d="M 0 3 
C 0.795609 3 1.55874 2.683901 2.12132 2.12132 
C 2.683901 1.55874 3 0.795609 3 0 
C 3 -0.795609 2.683901 -1.55874 2.12132 -2.12132 
C 1.55874 -2.683901 0.795609 -3 0 -3 
C -0.795609 -3 -1.55874 -2.683901 -2.12132 -2.12132 
C -2.683901 -1.55874 -3 -0.795609 -3 0 
C -3 0.795609 -2.683901 1.55874 -2.12132 2.12132 
C -1.55874 2.683901 -0.795609 3 0 3 
z
" style="stroke: #000000"/>
    </defs>
    <g clip-path="url(#pea70f21a90)">
     <use xlink:href="#mde26559d0b" x="68.427273" y="58.536831" style="stroke: #000000"/>
     <use xlink:href="#mde26559d0b" x="152.972727" y="54.877878" style="stroke: #000000"/>
    </g>
   </g>
  </g>
 </g>
 <defs>
  <clipPath id="pea70f21a90">
   <rect x="27" y="24.192" width="167.4" height="155.232"/>
  </clipPath>
 </defs>
</svg>
