<?xml version="1.0" encoding="utf-8" standalone="no"?>
<!DOCTYPE svg PUBLIC "-//W3C//DTD SVG 1.1//EN"
  "http://www.w3.org/Graphics/SVG/1.1/DTD/svg11.dtd">
<svg xmlns:xlink="http://www.w3.org/1999/xlink" width="252pt" height="306pt" viewBox="0 0 252 306" xmlns="http://www.w3.org/2000/svg" version="1.1">
 <metadata>
  <rdf:RDF xmlns:dc="http://purl.org/dc/elements/1.1/" xmlns:cc="http://creativecommons.org/ns#" xmlns:rdf="http://www.w3.org/1999/02/22-rdf-syntax-ns#">
   <cc:Work>
    <dc:type rdf:resource="http://purl.org/dc/dcmitype/StillImage"/>
    <dc:date>2025-08-28T11:09:28.692830</dc:date>
    <dc:format>image/svg+xml</dc:format>
    <dc:creator>
     <cc:Agent>
      <dc:title>Matplotlib v3.10.1, https://matplotlib.org/</dc:title>
     </cc:Agent>
    </dc:creator>
   </cc:Work>
  </rdf:RDF>
 </metadata>
 <defs>
  <style type="text/css">*{stroke-linejoin: round; stroke-linecap: butt}</style>
 </defs>
 <g id="figure_1">
  <g id="patch_1">
   <path d="M 0 306 
L 252 306 
L 252 0 
L 0 0 
L 0 306 
z
" style="fill: none"/>
  </g>
  <g id="axes_1">
   <g id="patch_2">
    <path d="M 70.58 176.340717 
L 211.306837 176.340717 
L 211.306837 20.562203 
L 70.58 20.562203 
L 70.58 176.340717 
z
" style="fill: none"/>
   </g>
   <g id="FillBetweenPolyCollection_1">
    <defs>
     <path id="mffd6c4001a" d="M 106.857685 -221.046606 
L 103.954992 -221.046606 
L 103.906784 -221.447586 
L 103.875521 -221.848566 
L 103.861497 -222.249547 
L 103.864169 -222.650527 
L 103.882195 -223.051507 
L 103.913502 -223.452488 
L 103.955421 -223.853468 
L 104.004847 -224.254448 
L 104.058422 -224.655429 
L 104.112728 -225.056409 
L 104.164462 -225.457389 
L 104.210593 -225.85837 
L 104.248474 -226.25935 
L 104.275926 -226.66033 
L 104.291272 -227.061311 
L 104.293332 -227.462291 
L 104.281396 -227.863271 
L 104.255172 -228.264252 
L 104.214728 -228.665232 
L 104.160438 -229.066212 
L 104.092942 -229.467193 
L 104.01312 -229.868173 
L 103.922082 -230.269153 
L 103.82118 -230.670134 
L 103.712011 -231.071114 
L 103.596423 -231.472094 
L 103.476502 -231.873075 
L 103.35453 -232.274055 
L 103.2329 -232.675035 
L 103.114003 -233.076016 
L 103.000074 -233.476996 
L 102.893007 -233.877976 
L 102.794166 -234.278957 
L 102.7042 -234.679937 
L 102.622883 -235.080917 
L 102.549009 -235.481898 
L 102.480352 -235.882878 
L 102.413703 -236.283858 
L 102.345 -236.684839 
L 102.269534 -237.085819 
L 102.18222 -237.486799 
L 102.077926 -237.88778 
L 101.951814 -238.28876 
L 101.799663 -238.68974 
L 101.618162 -239.090721 
L 101.405108 -239.491701 
L 101.159516 -239.892681 
L 100.881605 -240.293662 
L 100.572673 -240.694642 
L 100.234848 -241.095622 
L 99.870755 -241.496603 
L 99.483125 -241.897583 
L 99.074365 -242.298563 
L 98.646162 -242.699544 
L 98.199138 -243.100524 
L 97.732604 -243.501504 
L 97.244437 -243.902485 
L 96.731106 -244.303465 
L 96.187841 -244.704445 
L 95.608949 -245.105426 
L 94.988246 -245.506406 
L 94.319576 -245.907386 
L 93.597383 -246.308367 
L 92.817287 -246.709347 
L 91.976623 -247.110327 
L 91.074912 -247.511308 
L 90.114214 -247.912288 
L 89.099357 -248.313268 
L 88.038025 -248.714249 
L 86.940696 -249.115229 
L 85.820442 -249.516209 
L 84.692609 -249.91719 
L 83.574397 -250.31817 
L 82.48436 -250.71915 
L 81.441866 -251.120131 
L 80.466537 -251.521111 
L 79.577682 -251.922091 
L 78.793769 -252.323072 
L 78.131922 -252.724052 
L 77.607467 -253.125032 
L 77.233531 -253.526013 
L 77.020689 -253.926993 
L 76.976674 -254.327973 
L 77.106138 -254.728954 
L 77.410477 -255.129934 
L 77.887728 -255.530914 
L 78.532551 -255.931895 
L 79.336291 -256.332875 
L 80.287155 -256.733855 
L 81.370484 -257.134836 
L 82.569131 -257.535816 
L 83.863934 -257.936796 
L 85.234262 -258.337777 
L 86.658616 -258.738757 
L 88.115252 -259.139737 
L 89.582792 -259.540718 
L 91.040804 -259.941698 
L 92.470317 -260.342678 
L 93.854249 -260.743659 
L 116.958428 -260.743659 
L 116.958428 -260.743659 
L 118.34236 -260.342678 
L 119.771873 -259.941698 
L 121.229885 -259.540718 
L 122.697425 -259.139737 
L 124.154061 -258.738757 
L 125.578415 -258.337777 
L 126.948743 -257.936796 
L 128.243546 -257.535816 
L 129.442193 -257.134836 
L 130.525522 -256.733855 
L 131.476386 -256.332875 
L 132.280126 -255.931895 
L 132.924948 -255.530914 
L 133.4022 -255.129934 
L 133.706539 -254.728954 
L 133.836003 -254.327973 
L 133.791988 -253.926993 
L 133.579146 -253.526013 
L 133.205209 -253.125032 
L 132.680755 -252.724052 
L 132.018908 -252.323072 
L 131.234995 -251.922091 
L 130.34614 -251.521111 
L 129.37081 -251.120131 
L 128.328317 -250.71915 
L 127.23828 -250.31817 
L 126.120068 -249.91719 
L 124.992235 -249.516209 
L 123.871981 -249.115229 
L 122.774652 -248.714249 
L 121.71332 -248.313268 
L 120.698463 -247.912288 
L 119.737765 -247.511308 
L 118.836054 -247.110327 
L 117.99539 -246.709347 
L 117.215294 -246.308367 
L 116.493101 -245.907386 
L 115.824431 -245.506406 
L 115.203728 -245.105426 
L 114.624836 -244.704445 
L 114.081571 -244.303465 
L 113.56824 -243.902485 
L 113.080073 -243.501504 
L 112.613539 -243.100524 
L 112.166515 -242.699544 
L 111.738312 -242.298563 
L 111.329552 -241.897583 
L 110.941921 -241.496603 
L 110.577829 -241.095622 
L 110.240004 -240.694642 
L 109.931071 -240.293662 
L 109.653161 -239.892681 
L 109.407569 -239.491701 
L 109.194515 -239.090721 
L 109.013014 -238.68974 
L 108.860863 -238.28876 
L 108.734751 -237.88778 
L 108.630457 -237.486799 
L 108.543143 -237.085819 
L 108.467677 -236.684839 
L 108.398974 -236.283858 
L 108.332325 -235.882878 
L 108.263668 -235.481898 
L 108.189794 -235.080917 
L 108.108477 -234.679937 
L 108.018511 -234.278957 
L 107.91967 -233.877976 
L 107.812603 -233.476996 
L 107.698674 -233.076016 
L 107.579777 -232.675035 
L 107.458147 -232.274055 
L 107.336174 -231.873075 
L 107.216254 -231.472094 
L 107.100666 -231.071114 
L 106.991497 -230.670134 
L 106.890594 -230.269153 
L 106.799557 -229.868173 
L 106.719735 -229.467193 
L 106.652239 -229.066212 
L 106.597949 -228.665232 
L 106.557505 -228.264252 
L 106.531281 -227.863271 
L 106.519345 -227.462291 
L 106.521405 -227.061311 
L 106.536751 -226.66033 
L 106.564203 -226.25935 
L 106.602084 -225.85837 
L 106.648215 -225.457389 
L 106.699949 -225.056409 
L 106.754255 -224.655429 
L 106.80783 -224.254448 
L 106.857256 -223.853468 
L 106.899175 -223.452488 
L 106.930482 -223.051507 
L 106.948507 -222.650527 
L 106.95118 -222.249547 
L 106.937155 -221.848566 
L 106.905893 -221.447586 
L 106.857685 -221.046606 
z
" style="stroke: #484848; stroke-opacity: 0.9; stroke-width: 1.25"/>
    </defs>
    <g clip-path="url(#pd7b5383897)">
     <use xlink:href="#mffd6c4001a" x="0" y="306" style="fill: #d86743; fill-opacity: 0.9; stroke: #484848; stroke-opacity: 0.9; stroke-width: 1.25"/>
    </g>
   </g>
   <g id="FillBetweenPolyCollection_2">
    <defs>
     <path id="maff4fb5b21" d="M 177.474757 -221.43348 
L 175.48624 -221.43348 
L 175.451711 -221.859266 
L 175.4363 -222.285053 
L 175.440872 -222.71084 
L 175.465163 -223.136627 
L 175.507801 -223.562413 
L 175.566425 -223.9882 
L 175.6379 -224.413987 
L 175.718575 -224.839774 
L 175.804578 -225.26556 
L 175.892094 -225.691347 
L 175.977614 -226.117134 
L 176.058106 -226.54292 
L 176.131129 -226.968707 
L 176.194854 -227.394494 
L 176.248027 -227.820281 
L 176.289873 -228.246067 
L 176.319974 -228.671854 
L 176.338131 -229.097641 
L 176.344246 -229.523428 
L 176.33823 -229.949214 
L 176.319944 -230.375001 
L 176.289198 -230.800788 
L 176.245778 -231.226574 
L 176.18951 -231.652361 
L 176.120352 -232.078148 
L 176.038481 -232.503935 
L 175.944378 -232.929721 
L 175.838894 -233.355508 
L 175.723276 -233.781295 
L 175.599162 -234.207082 
L 175.468533 -234.632868 
L 175.333631 -235.058655 
L 175.196841 -235.484442 
L 175.060561 -235.910228 
L 174.927064 -236.336015 
L 174.798364 -236.761802 
L 174.676116 -237.187589 
L 174.561533 -237.613375 
L 174.455358 -238.039162 
L 174.35786 -238.464949 
L 174.268859 -238.890736 
L 174.187762 -239.316522 
L 174.11358 -239.742309 
L 174.044906 -240.168096 
L 173.979845 -240.593882 
L 173.915891 -241.019669 
L 173.849756 -241.445456 
L 173.777204 -241.871243 
L 173.692912 -242.297029 
L 173.590423 -242.722816 
L 173.46222 -243.148603 
L 173.299965 -243.57439 
L 173.094874 -244.000176 
L 172.838223 -244.425963 
L 172.521925 -244.85175 
L 172.139099 -245.277536 
L 171.68456 -245.703323 
L 171.155175 -246.12911 
L 170.55003 -246.554897 
L 169.870413 -246.980683 
L 169.119612 -247.40647 
L 168.302601 -247.832257 
L 167.425649 -248.258044 
L 166.495933 -248.68383 
L 165.521197 -249.109617 
L 164.509495 -249.535404 
L 163.469019 -249.96119 
L 162.407994 -250.386977 
L 161.334614 -250.812764 
L 160.256973 -251.238551 
L 159.182962 -251.664337 
L 158.120117 -252.090124 
L 157.075432 -252.515911 
L 156.055189 -252.941698 
L 155.064852 -253.367484 
L 154.109118 -253.793271 
L 153.192184 -254.219058 
L 152.318278 -254.644844 
L 151.492433 -255.070631 
L 150.72145 -255.496418 
L 150.014901 -255.922205 
L 149.385993 -256.347991 
L 148.852086 -256.773778 
L 148.434665 -257.199565 
L 148.158627 -257.625352 
L 148.050835 -258.051138 
L 148.137999 -258.476925 
L 148.444099 -258.902712 
L 148.987605 -259.328498 
L 149.778875 -259.754285 
L 150.818078 -260.180072 
L 152.093956 -260.605859 
L 153.583614 -261.031645 
L 155.253435 -261.457432 
L 157.061012 -261.883219 
L 158.957894 -262.309006 
L 160.892837 -262.734792 
L 162.81518 -263.160579 
L 164.678008 -263.586366 
L 188.282989 -263.586366 
L 188.282989 -263.586366 
L 190.145818 -263.160579 
L 192.068161 -262.734792 
L 194.003103 -262.309006 
L 195.899985 -261.883219 
L 197.707562 -261.457432 
L 199.377383 -261.031645 
L 200.867042 -260.605859 
L 202.142919 -260.180072 
L 203.182122 -259.754285 
L 203.973392 -259.328498 
L 204.516898 -258.902712 
L 204.822998 -258.476925 
L 204.910163 -258.051138 
L 204.80237 -257.625352 
L 204.526332 -257.199565 
L 204.108912 -256.773778 
L 203.575004 -256.347991 
L 202.946096 -255.922205 
L 202.239547 -255.496418 
L 201.468564 -255.070631 
L 200.64272 -254.644844 
L 199.768813 -254.219058 
L 198.85188 -253.793271 
L 197.896145 -253.367484 
L 196.905808 -252.941698 
L 195.885566 -252.515911 
L 194.840881 -252.090124 
L 193.778035 -251.664337 
L 192.704024 -251.238551 
L 191.626384 -250.812764 
L 190.553004 -250.386977 
L 189.491978 -249.96119 
L 188.451502 -249.535404 
L 187.4398 -249.109617 
L 186.465064 -248.68383 
L 185.535348 -248.258044 
L 184.658396 -247.832257 
L 183.841385 -247.40647 
L 183.090584 -246.980683 
L 182.410967 -246.554897 
L 181.805823 -246.12911 
L 181.276437 -245.703323 
L 180.821898 -245.277536 
L 180.439072 -244.85175 
L 180.122774 -244.425963 
L 179.866123 -244.000176 
L 179.661032 -243.57439 
L 179.498777 -243.148603 
L 179.370575 -242.722816 
L 179.268085 -242.297029 
L 179.183793 -241.871243 
L 179.111241 -241.445456 
L 179.045106 -241.019669 
L 178.981152 -240.593882 
L 178.916091 -240.168096 
L 178.847417 -239.742309 
L 178.773235 -239.316522 
L 178.692138 -238.890736 
L 178.603137 -238.464949 
L 178.505639 -238.039162 
L 178.399464 -237.613375 
L 178.284881 -237.187589 
L 178.162633 -236.761802 
L 178.033933 -236.336015 
L 177.900436 -235.910228 
L 177.764156 -235.484442 
L 177.627366 -235.058655 
L 177.492464 -234.632868 
L 177.361836 -234.207082 
L 177.237722 -233.781295 
L 177.122103 -233.355508 
L 177.016619 -232.929721 
L 176.922516 -232.503935 
L 176.840645 -232.078148 
L 176.771487 -231.652361 
L 176.715219 -231.226574 
L 176.671799 -230.800788 
L 176.641053 -230.375001 
L 176.622767 -229.949214 
L 176.616751 -229.523428 
L 176.622866 -229.097641 
L 176.641024 -228.671854 
L 176.671124 -228.246067 
L 176.712971 -227.820281 
L 176.766143 -227.394494 
L 176.829868 -226.968707 
L 176.902891 -226.54292 
L 176.983383 -226.117134 
L 177.068903 -225.691347 
L 177.15642 -225.26556 
L 177.242422 -224.839774 
L 177.323097 -224.413987 
L 177.394572 -223.9882 
L 177.453196 -223.562413 
L 177.495834 -223.136627 
L 177.520125 -222.71084 
L 177.524697 -222.285053 
L 177.509286 -221.859266 
L 177.474757 -221.43348 
z
" style="stroke: #484848; stroke-opacity: 0.9; stroke-width: 1.25"/>
    </defs>
    <g clip-path="url(#pd7b5383897)">
     <use xlink:href="#maff4fb5b21" x="0" y="306" style="fill: #1ea0d1; fill-opacity: 0.9; stroke: #484848; stroke-opacity: 0.9; stroke-width: 1.25"/>
    </g>
   </g>
   <g id="matplotlib.axis_1">
    <g id="xtick_1">
     <g id="line2d_1">
      <defs>
       <path id="m7b47a8b2f6" d="M 0 0 
L 0 3.5 
" style="stroke: #000000; stroke-width: 0.8"/>
      </defs>
      <g>
       <use xlink:href="#m7b47a8b2f6" x="105.406338" y="176.340717" style="stroke: #000000; stroke-width: 0.8"/>
      </g>
     </g>
     <g id="text_1">
      <!-- sensory -->
      <g transform="translate(72.408208 232.432852) rotate(-30) scale(0.18 -0.18)">
       <defs>
        <path id="DejaVuSans-73" d="M 2834 3397 
L 2834 2853 
Q 2591 2978 2328 3040 
Q 2066 3103 1784 3103 
Q 1356 3103 1142 2972 
Q 928 2841 928 2578 
Q 928 2378 1081 2264 
Q 1234 2150 1697 2047 
L 1894 2003 
Q 2506 1872 2764 1633 
Q 3022 1394 3022 966 
Q 3022 478 2636 193 
Q 2250 -91 1575 -91 
Q 1294 -91 989 -36 
Q 684 19 347 128 
L 347 722 
Q 666 556 975 473 
Q 1284 391 1588 391 
Q 1994 391 2212 530 
Q 2431 669 2431 922 
Q 2431 1156 2273 1281 
Q 2116 1406 1581 1522 
L 1381 1569 
Q 847 1681 609 1914 
Q 372 2147 372 2553 
Q 372 3047 722 3315 
Q 1072 3584 1716 3584 
Q 2034 3584 2315 3537 
Q 2597 3491 2834 3397 
z
" transform="scale(0.015625)"/>
        <path id="DejaVuSans-65" d="M 3597 1894 
L 3597 1613 
L 953 1613 
Q 991 1019 1311 708 
Q 1631 397 2203 397 
Q 2534 397 2845 478 
Q 3156 559 3463 722 
L 3463 178 
Q 3153 47 2828 -22 
Q 2503 -91 2169 -91 
Q 1331 -91 842 396 
Q 353 884 353 1716 
Q 353 2575 817 3079 
Q 1281 3584 2069 3584 
Q 2775 3584 3186 3129 
Q 3597 2675 3597 1894 
z
M 3022 2063 
Q 3016 2534 2758 2815 
Q 2500 3097 2075 3097 
Q 1594 3097 1305 2825 
Q 1016 2553 972 2059 
L 3022 2063 
z
" transform="scale(0.015625)"/>
        <path id="DejaVuSans-6e" d="M 3513 2113 
L 3513 0 
L 2938 0 
L 2938 2094 
Q 2938 2591 2744 2837 
Q 2550 3084 2163 3084 
Q 1697 3084 1428 2787 
Q 1159 2491 1159 1978 
L 1159 0 
L 581 0 
L 581 3500 
L 1159 3500 
L 1159 2956 
Q 1366 3272 1645 3428 
Q 1925 3584 2291 3584 
Q 2894 3584 3203 3211 
Q 3513 2838 3513 2113 
z
" transform="scale(0.015625)"/>
        <path id="DejaVuSans-6f" d="M 1959 3097 
Q 1497 3097 1228 2736 
Q 959 2375 959 1747 
Q 959 1119 1226 758 
Q 1494 397 1959 397 
Q 2419 397 2687 759 
Q 2956 1122 2956 1747 
Q 2956 2369 2687 2733 
Q 2419 3097 1959 3097 
z
M 1959 3584 
Q 2709 3584 3137 3096 
Q 3566 2609 3566 1747 
Q 3566 888 3137 398 
Q 2709 -91 1959 -91 
Q 1206 -91 779 398 
Q 353 888 353 1747 
Q 353 2609 779 3096 
Q 1206 3584 1959 3584 
z
" transform="scale(0.015625)"/>
        <path id="DejaVuSans-72" d="M 2631 2963 
Q 2534 3019 2420 3045 
Q 2306 3072 2169 3072 
Q 1681 3072 1420 2755 
Q 1159 2438 1159 1844 
L 1159 0 
L 581 0 
L 581 3500 
L 1159 3500 
L 1159 2956 
Q 1341 3275 1631 3429 
Q 1922 3584 2338 3584 
Q 2397 3584 2469 3576 
Q 2541 3569 2628 3553 
L 2631 2963 
z
" transform="scale(0.015625)"/>
        <path id="DejaVuSans-79" d="M 2059 -325 
Q 1816 -950 1584 -1140 
Q 1353 -1331 966 -1331 
L 506 -1331 
L 506 -850 
L 844 -850 
Q 1081 -850 1212 -737 
Q 1344 -625 1503 -206 
L 1606 56 
L 191 3500 
L 800 3500 
L 1894 763 
L 2988 3500 
L 3597 3500 
L 2059 -325 
z
" transform="scale(0.015625)"/>
       </defs>
       <use xlink:href="#DejaVuSans-73"/>
       <use xlink:href="#DejaVuSans-65" transform="translate(52.099609 0)"/>
       <use xlink:href="#DejaVuSans-6e" transform="translate(113.623047 0)"/>
       <use xlink:href="#DejaVuSans-73" transform="translate(177.001953 0)"/>
       <use xlink:href="#DejaVuSans-6f" transform="translate(229.101562 0)"/>
       <use xlink:href="#DejaVuSans-72" transform="translate(290.283203 0)"/>
       <use xlink:href="#DejaVuSans-79" transform="translate(331.396484 0)"/>
      </g>
      <!-- replayed -->
      <g transform="translate(78.857052 251.983827) rotate(-30) scale(0.18 -0.18)">
       <defs>
        <path id="DejaVuSans-70" d="M 1159 525 
L 1159 -1331 
L 581 -1331 
L 581 3500 
L 1159 3500 
L 1159 2969 
Q 1341 3281 1617 3432 
Q 1894 3584 2278 3584 
Q 2916 3584 3314 3078 
Q 3713 2572 3713 1747 
Q 3713 922 3314 415 
Q 2916 -91 2278 -91 
Q 1894 -91 1617 61 
Q 1341 213 1159 525 
z
M 3116 1747 
Q 3116 2381 2855 2742 
Q 2594 3103 2138 3103 
Q 1681 3103 1420 2742 
Q 1159 2381 1159 1747 
Q 1159 1113 1420 752 
Q 1681 391 2138 391 
Q 2594 391 2855 752 
Q 3116 1113 3116 1747 
z
" transform="scale(0.015625)"/>
        <path id="DejaVuSans-6c" d="M 603 4863 
L 1178 4863 
L 1178 0 
L 603 0 
L 603 4863 
z
" transform="scale(0.015625)"/>
        <path id="DejaVuSans-61" d="M 2194 1759 
Q 1497 1759 1228 1600 
Q 959 1441 959 1056 
Q 959 750 1161 570 
Q 1363 391 1709 391 
Q 2188 391 2477 730 
Q 2766 1069 2766 1631 
L 2766 1759 
L 2194 1759 
z
M 3341 1997 
L 3341 0 
L 2766 0 
L 2766 531 
Q 2569 213 2275 61 
Q 1981 -91 1556 -91 
Q 1019 -91 701 211 
Q 384 513 384 1019 
Q 384 1609 779 1909 
Q 1175 2209 1959 2209 
L 2766 2209 
L 2766 2266 
Q 2766 2663 2505 2880 
Q 2244 3097 1772 3097 
Q 1472 3097 1187 3025 
Q 903 2953 641 2809 
L 641 3341 
Q 956 3463 1253 3523 
Q 1550 3584 1831 3584 
Q 2591 3584 2966 3190 
Q 3341 2797 3341 1997 
z
" transform="scale(0.015625)"/>
        <path id="DejaVuSans-64" d="M 2906 2969 
L 2906 4863 
L 3481 4863 
L 3481 0 
L 2906 0 
L 2906 525 
Q 2725 213 2448 61 
Q 2172 -91 1784 -91 
Q 1150 -91 751 415 
Q 353 922 353 1747 
Q 353 2572 751 3078 
Q 1150 3584 1784 3584 
Q 2172 3584 2448 3432 
Q 2725 3281 2906 2969 
z
M 947 1747 
Q 947 1113 1208 752 
Q 1469 391 1925 391 
Q 2381 391 2643 752 
Q 2906 1113 2906 1747 
Q 2906 2381 2643 2742 
Q 2381 3103 1925 3103 
Q 1469 3103 1208 2742 
Q 947 2381 947 1747 
z
" transform="scale(0.015625)"/>
       </defs>
       <use xlink:href="#DejaVuSans-72"/>
       <use xlink:href="#DejaVuSans-65" transform="translate(38.863281 0)"/>
       <use xlink:href="#DejaVuSans-70" transform="translate(100.386719 0)"/>
       <use xlink:href="#DejaVuSans-6c" transform="translate(163.863281 0)"/>
       <use xlink:href="#DejaVuSans-61" transform="translate(191.646484 0)"/>
       <use xlink:href="#DejaVuSans-79" transform="translate(252.925781 0)"/>
       <use xlink:href="#DejaVuSans-65" transform="translate(312.105469 0)"/>
       <use xlink:href="#DejaVuSans-64" transform="translate(373.628906 0)"/>
      </g>
     </g>
    </g>
    <g id="xtick_2">
     <g id="line2d_2">
      <g>
       <use xlink:href="#m7b47a8b2f6" x="176.480499" y="176.340717" style="stroke: #000000; stroke-width: 0.8"/>
      </g>
     </g>
     <g id="text_2">
      <!-- sensory-semantic -->
      <g transform="translate(105.135981 274.616133) rotate(-30) scale(0.18 -0.18)">
       <defs>
        <path id="DejaVuSans-2d" d="M 313 2009 
L 1997 2009 
L 1997 1497 
L 313 1497 
L 313 2009 
z
" transform="scale(0.015625)"/>
        <path id="DejaVuSans-6d" d="M 3328 2828 
Q 3544 3216 3844 3400 
Q 4144 3584 4550 3584 
Q 5097 3584 5394 3201 
Q 5691 2819 5691 2113 
L 5691 0 
L 5113 0 
L 5113 2094 
Q 5113 2597 4934 2840 
Q 4756 3084 4391 3084 
Q 3944 3084 3684 2787 
Q 3425 2491 3425 1978 
L 3425 0 
L 2847 0 
L 2847 2094 
Q 2847 2600 2669 2842 
Q 2491 3084 2119 3084 
Q 1678 3084 1418 2786 
Q 1159 2488 1159 1978 
L 1159 0 
L 581 0 
L 581 3500 
L 1159 3500 
L 1159 2956 
Q 1356 3278 1631 3431 
Q 1906 3584 2284 3584 
Q 2666 3584 2933 3390 
Q 3200 3197 3328 2828 
z
" transform="scale(0.015625)"/>
        <path id="DejaVuSans-74" d="M 1172 4494 
L 1172 3500 
L 2356 3500 
L 2356 3053 
L 1172 3053 
L 1172 1153 
Q 1172 725 1289 603 
Q 1406 481 1766 481 
L 2356 481 
L 2356 0 
L 1766 0 
Q 1100 0 847 248 
Q 594 497 594 1153 
L 594 3053 
L 172 3053 
L 172 3500 
L 594 3500 
L 594 4494 
L 1172 4494 
z
" transform="scale(0.015625)"/>
        <path id="DejaVuSans-69" d="M 603 3500 
L 1178 3500 
L 1178 0 
L 603 0 
L 603 3500 
z
M 603 4863 
L 1178 4863 
L 1178 4134 
L 603 4134 
L 603 4863 
z
" transform="scale(0.015625)"/>
        <path id="DejaVuSans-63" d="M 3122 3366 
L 3122 2828 
Q 2878 2963 2633 3030 
Q 2388 3097 2138 3097 
Q 1578 3097 1268 2742 
Q 959 2388 959 1747 
Q 959 1106 1268 751 
Q 1578 397 2138 397 
Q 2388 397 2633 464 
Q 2878 531 3122 666 
L 3122 134 
Q 2881 22 2623 -34 
Q 2366 -91 2075 -91 
Q 1284 -91 818 406 
Q 353 903 353 1747 
Q 353 2603 823 3093 
Q 1294 3584 2113 3584 
Q 2378 3584 2631 3529 
Q 2884 3475 3122 3366 
z
" transform="scale(0.015625)"/>
       </defs>
       <use xlink:href="#DejaVuSans-73"/>
       <use xlink:href="#DejaVuSans-65" transform="translate(52.099609 0)"/>
       <use xlink:href="#DejaVuSans-6e" transform="translate(113.623047 0)"/>
       <use xlink:href="#DejaVuSans-73" transform="translate(177.001953 0)"/>
       <use xlink:href="#DejaVuSans-6f" transform="translate(229.101562 0)"/>
       <use xlink:href="#DejaVuSans-72" transform="translate(290.283203 0)"/>
       <use xlink:href="#DejaVuSans-79" transform="translate(331.396484 0)"/>
       <use xlink:href="#DejaVuSans-2d" transform="translate(388.826172 0)"/>
       <use xlink:href="#DejaVuSans-73" transform="translate(424.910156 0)"/>
       <use xlink:href="#DejaVuSans-65" transform="translate(477.009766 0)"/>
       <use xlink:href="#DejaVuSans-6d" transform="translate(538.533203 0)"/>
       <use xlink:href="#DejaVuSans-61" transform="translate(635.945312 0)"/>
       <use xlink:href="#DejaVuSans-6e" transform="translate(697.224609 0)"/>
       <use xlink:href="#DejaVuSans-74" transform="translate(760.603516 0)"/>
       <use xlink:href="#DejaVuSans-69" transform="translate(799.8125 0)"/>
       <use xlink:href="#DejaVuSans-63" transform="translate(827.595703 0)"/>
      </g>
      <!-- replayed -->
      <g transform="translate(149.931212 272.027811) rotate(-30) scale(0.18 -0.18)">
       <use xlink:href="#DejaVuSans-72"/>
       <use xlink:href="#DejaVuSans-65" transform="translate(38.863281 0)"/>
       <use xlink:href="#DejaVuSans-70" transform="translate(100.386719 0)"/>
       <use xlink:href="#DejaVuSans-6c" transform="translate(163.863281 0)"/>
       <use xlink:href="#DejaVuSans-61" transform="translate(191.646484 0)"/>
       <use xlink:href="#DejaVuSans-79" transform="translate(252.925781 0)"/>
       <use xlink:href="#DejaVuSans-65" transform="translate(312.105469 0)"/>
       <use xlink:href="#DejaVuSans-64" transform="translate(373.628906 0)"/>
      </g>
     </g>
    </g>
   </g>
   <g id="matplotlib.axis_2">
    <g id="ytick_1">
     <g id="line2d_3">
      <defs>
       <path id="m5684865223" d="M 0 0 
L -3.5 0 
" style="stroke: #000000; stroke-width: 0.8"/>
      </defs>
      <g>
       <use xlink:href="#m5684865223" x="70.58" y="176.340717" style="stroke: #000000; stroke-width: 0.8"/>
      </g>
     </g>
     <g id="text_3">
      <!-- 0.0 -->
      <g transform="translate(34.954375 183.17931) scale(0.18 -0.18)">
       <defs>
        <path id="DejaVuSans-30" d="M 2034 4250 
Q 1547 4250 1301 3770 
Q 1056 3291 1056 2328 
Q 1056 1369 1301 889 
Q 1547 409 2034 409 
Q 2525 409 2770 889 
Q 3016 1369 3016 2328 
Q 3016 3291 2770 3770 
Q 2525 4250 2034 4250 
z
M 2034 4750 
Q 2819 4750 3233 4129 
Q 3647 3509 3647 2328 
Q 3647 1150 3233 529 
Q 2819 -91 2034 -91 
Q 1250 -91 836 529 
Q 422 1150 422 2328 
Q 422 3509 836 4129 
Q 1250 4750 2034 4750 
z
" transform="scale(0.015625)"/>
        <path id="DejaVuSans-2e" d="M 684 794 
L 1344 794 
L 1344 0 
L 684 0 
L 684 794 
z
" transform="scale(0.015625)"/>
       </defs>
       <use xlink:href="#DejaVuSans-30"/>
       <use xlink:href="#DejaVuSans-2e" transform="translate(63.623047 0)"/>
       <use xlink:href="#DejaVuSans-30" transform="translate(95.410156 0)"/>
      </g>
     </g>
    </g>
    <g id="ytick_2">
     <g id="line2d_4">
      <g>
       <use xlink:href="#m5684865223" x="70.58" y="109.05758" style="stroke: #000000; stroke-width: 0.8"/>
      </g>
     </g>
     <g id="text_4">
      <!-- 0.5 -->
      <g transform="translate(34.954375 115.896173) scale(0.18 -0.18)">
       <defs>
        <path id="DejaVuSans-35" d="M 691 4666 
L 3169 4666 
L 3169 4134 
L 1269 4134 
L 1269 2991 
Q 1406 3038 1543 3061 
Q 1681 3084 1819 3084 
Q 2600 3084 3056 2656 
Q 3513 2228 3513 1497 
Q 3513 744 3044 326 
Q 2575 -91 1722 -91 
Q 1428 -91 1123 -41 
Q 819 9 494 109 
L 494 744 
Q 775 591 1075 516 
Q 1375 441 1709 441 
Q 2250 441 2565 725 
Q 2881 1009 2881 1497 
Q 2881 1984 2565 2268 
Q 2250 2553 1709 2553 
Q 1456 2553 1204 2497 
Q 953 2441 691 2322 
L 691 4666 
z
" transform="scale(0.015625)"/>
       </defs>
       <use xlink:href="#DejaVuSans-30"/>
       <use xlink:href="#DejaVuSans-2e" transform="translate(63.623047 0)"/>
       <use xlink:href="#DejaVuSans-35" transform="translate(95.410156 0)"/>
      </g>
     </g>
    </g>
    <g id="ytick_3">
     <g id="line2d_5">
      <g>
       <use xlink:href="#m5684865223" x="70.58" y="41.774443" style="stroke: #000000; stroke-width: 0.8"/>
      </g>
     </g>
     <g id="text_5">
      <!-- 1.0 -->
      <g transform="translate(34.954375 48.613036) scale(0.18 -0.18)">
       <defs>
        <path id="DejaVuSans-31" d="M 794 531 
L 1825 531 
L 1825 4091 
L 703 3866 
L 703 4441 
L 1819 4666 
L 2450 4666 
L 2450 531 
L 3481 531 
L 3481 0 
L 794 0 
L 794 531 
z
" transform="scale(0.015625)"/>
       </defs>
       <use xlink:href="#DejaVuSans-31"/>
       <use xlink:href="#DejaVuSans-2e" transform="translate(63.623047 0)"/>
       <use xlink:href="#DejaVuSans-30" transform="translate(95.410156 0)"/>
      </g>
     </g>
    </g>
    <g id="text_6">
     <!-- Accruacy -->
     <g transform="translate(26.795 144.10771) rotate(-90) scale(0.2 -0.2)">
      <defs>
       <path id="DejaVuSans-41" d="M 2188 4044 
L 1331 1722 
L 3047 1722 
L 2188 4044 
z
M 1831 4666 
L 2547 4666 
L 4325 0 
L 3669 0 
L 3244 1197 
L 1141 1197 
L 716 0 
L 50 0 
L 1831 4666 
z
" transform="scale(0.015625)"/>
       <path id="DejaVuSans-75" d="M 544 1381 
L 544 3500 
L 1119 3500 
L 1119 1403 
Q 1119 906 1312 657 
Q 1506 409 1894 409 
Q 2359 409 2629 706 
Q 2900 1003 2900 1516 
L 2900 3500 
L 3475 3500 
L 3475 0 
L 2900 0 
L 2900 538 
Q 2691 219 2414 64 
Q 2138 -91 1772 -91 
Q 1169 -91 856 284 
Q 544 659 544 1381 
z
M 1991 3584 
L 1991 3584 
z
" transform="scale(0.015625)"/>
      </defs>
      <use xlink:href="#DejaVuSans-41"/>
      <use xlink:href="#DejaVuSans-63" transform="translate(66.658203 0)"/>
      <use xlink:href="#DejaVuSans-63" transform="translate(121.638672 0)"/>
      <use xlink:href="#DejaVuSans-72" transform="translate(176.619141 0)"/>
      <use xlink:href="#DejaVuSans-75" transform="translate(217.732422 0)"/>
      <use xlink:href="#DejaVuSans-61" transform="translate(281.111328 0)"/>
      <use xlink:href="#DejaVuSans-63" transform="translate(342.390625 0)"/>
      <use xlink:href="#DejaVuSans-79" transform="translate(397.371094 0)"/>
     </g>
    </g>
   </g>
   <g id="line2d_6">
    <path d="M 105.406338 39.776403 
L 105.406338 23.62845 
L 176.480499 23.62845 
L 176.480499 39.776403 
" style="fill: none; stroke: #000000; stroke-width: 2; stroke-linecap: square"/>
   </g>
   <g id="patch_3">
    <path d="M 70.58 176.340717 
L 70.58 20.562203 
" style="fill: none; stroke: #000000; stroke-width: 0.8; stroke-linejoin: miter; stroke-linecap: square"/>
   </g>
   <g id="patch_4">
    <path d="M 70.58 176.340717 
L 211.306837 176.340717 
" style="fill: none; stroke: #000000; stroke-width: 0.8; stroke-linejoin: miter; stroke-linecap: square"/>
   </g>
   <g id="PathCollection_1">
    <defs>
     <path id="mec21691e62" d="M 0 1.5 
C 0.397805 1.5 0.77937 1.341951 1.06066 1.06066 
C 1.341951 0.77937 1.5 0.397805 1.5 0 
C 1.5 -0.397805 1.341951 -0.77937 1.06066 -1.06066 
C 0.77937 -1.341951 0.397805 -1.5 0 -1.5 
C -0.397805 -1.5 -0.77937 -1.341951 -1.06066 -1.06066 
C -1.341951 -0.77937 -1.5 -0.397805 -1.5 0 
C -1.5 0.397805 -1.341951 0.77937 -1.06066 1.06066 
C -0.77937 1.341951 -0.397805 1.5 0 1.5 
z
"/>
    </defs>
    <g clip-path="url(#pd7b5383897)">
     <use xlink:href="#mec21691e62" x="96.454773" y="52.405178" style="fill-opacity: 0.05"/>
     <use xlink:href="#mec21691e62" x="106.597568" y="53.044369" style="fill-opacity: 0.05"/>
     <use xlink:href="#mec21691e62" x="116.009063" y="49.293334" style="fill-opacity: 0.05"/>
     <use xlink:href="#mec21691e62" x="112.008414" y="54.507776" style="fill-opacity: 0.05"/>
     <use xlink:href="#mec21691e62" x="114.121769" y="55.146967" style="fill-opacity: 0.05"/>
     <use xlink:href="#mec21691e62" x="109.920496" y="73.044284" style="fill-opacity: 0.05"/>
     <use xlink:href="#mec21691e62" x="110.872697" y="84.398309" style="fill-opacity: 0.05"/>
     <use xlink:href="#mec21691e62" x="115.333854" y="56.206672" style="fill-opacity: 0.05"/>
     <use xlink:href="#mec21691e62" x="98.289484" y="45.340447" style="fill-opacity: 0.05"/>
     <use xlink:href="#mec21691e62" x="105.105694" y="49.276514" style="fill-opacity: 0.05"/>
     <use xlink:href="#mec21691e62" x="97.480417" y="47.880386" style="fill-opacity: 0.05"/>
     <use xlink:href="#mec21691e62" x="119.270576" y="57.064534" style="fill-opacity: 0.05"/>
     <use xlink:href="#mec21691e62" x="118.030796" y="54.272286" style="fill-opacity: 0.05"/>
     <use xlink:href="#mec21691e62" x="92.312397" y="50.908132" style="fill-opacity: 0.05"/>
     <use xlink:href="#mec21691e62" x="111.250772" y="47.628076" style="fill-opacity: 0.05"/>
     <use xlink:href="#mec21691e62" x="117.496005" y="50.790379" style="fill-opacity: 0.05"/>
     <use xlink:href="#mec21691e62" x="96.325203" y="60.529613" style="fill-opacity: 0.05"/>
     <use xlink:href="#mec21691e62" x="107.337999" y="50.28576" style="fill-opacity: 0.05"/>
     <use xlink:href="#mec21691e62" x="117.218531" y="53.885404" style="fill-opacity: 0.05"/>
     <use xlink:href="#mec21691e62" x="92.156579" y="60.81557" style="fill-opacity: 0.05"/>
     <use xlink:href="#mec21691e62" x="111.01893" y="48.620503" style="fill-opacity: 0.05"/>
     <use xlink:href="#mec21691e62" x="99.645039" y="47.543971" style="fill-opacity: 0.05"/>
     <use xlink:href="#mec21691e62" x="117.47178" y="53.330318" style="fill-opacity: 0.05"/>
     <use xlink:href="#mec21691e62" x="118.798366" y="49.478365" style="fill-opacity: 0.05"/>
     <use xlink:href="#mec21691e62" x="118.036685" y="51.44639" style="fill-opacity: 0.05"/>
     <use xlink:href="#mec21691e62" x="104.673257" y="49.326973" style="fill-opacity: 0.05"/>
     <use xlink:href="#mec21691e62" x="115.699089" y="82.278891" style="fill-opacity: 0.05"/>
     <use xlink:href="#mec21691e62" x="115.201762" y="53.330318" style="fill-opacity: 0.05"/>
     <use xlink:href="#mec21691e62" x="100.263426" y="57.485055" style="fill-opacity: 0.05"/>
     <use xlink:href="#mec21691e62" x="114.757295" y="53.296679" style="fill-opacity: 0.05"/>
     <use xlink:href="#mec21691e62" x="92.243621" y="51.463218" style="fill-opacity: 0.05"/>
     <use xlink:href="#mec21691e62" x="108.143259" y="55.735692" style="fill-opacity: 0.05"/>
     <use xlink:href="#mec21691e62" x="97.73058" y="54.356392" style="fill-opacity: 0.05"/>
     <use xlink:href="#mec21691e62" x="94.619182" y="52.590209" style="fill-opacity: 0.05"/>
     <use xlink:href="#mec21691e62" x="93.37926" y="51.732347" style="fill-opacity: 0.05"/>
     <use xlink:href="#mec21691e62" x="110.986762" y="50.151196" style="fill-opacity: 0.05"/>
     <use xlink:href="#mec21691e62" x="100.854037" y="45.946" style="fill-opacity: 0.05"/>
     <use xlink:href="#mec21691e62" x="111.796382" y="52.337891" style="fill-opacity: 0.05"/>
     <use xlink:href="#mec21691e62" x="93.049565" y="50.319399" style="fill-opacity: 0.05"/>
     <use xlink:href="#mec21691e62" x="100.155105" y="45.744149" style="fill-opacity: 0.05"/>
     <use xlink:href="#mec21691e62" x="106.529063" y="59.284877" style="fill-opacity: 0.05"/>
     <use xlink:href="#mec21691e62" x="113.6715" y="50.184835" style="fill-opacity: 0.05"/>
     <use xlink:href="#mec21691e62" x="100.253533" y="50.268941" style="fill-opacity: 0.05"/>
     <use xlink:href="#mec21691e62" x="108.985388" y="49.646569" style="fill-opacity: 0.05"/>
     <use xlink:href="#mec21691e62" x="116.379556" y="57.064534" style="fill-opacity: 0.05"/>
     <use xlink:href="#mec21691e62" x="108.70029" y="53.700381" style="fill-opacity: 0.05"/>
     <use xlink:href="#mec21691e62" x="97.814466" y="50.840846" style="fill-opacity: 0.05"/>
     <use xlink:href="#mec21691e62" x="91.885212" y="46.316054" style="fill-opacity: 0.05"/>
     <use xlink:href="#mec21691e62" x="115.928125" y="56.89633" style="fill-opacity: 0.05"/>
     <use xlink:href="#mec21691e62" x="91.796189" y="56.156213" style="fill-opacity: 0.05"/>
     <use xlink:href="#mec21691e62" x="116.058981" y="48.603683" style="fill-opacity: 0.05"/>
     <use xlink:href="#mec21691e62" x="106.229011" y="52.573389" style="fill-opacity: 0.05"/>
     <use xlink:href="#mec21691e62" x="117.888886" y="61.387475" style="fill-opacity: 0.05"/>
     <use xlink:href="#mec21691e62" x="113.900645" y="54.911477" style="fill-opacity: 0.05"/>
     <use xlink:href="#mec21691e62" x="119.562438" y="55.584308" style="fill-opacity: 0.05"/>
     <use xlink:href="#mec21691e62" x="101.162126" y="84.953394" style="fill-opacity: 0.05"/>
     <use xlink:href="#mec21691e62" x="113.002412" y="54.255466" style="fill-opacity: 0.05"/>
     <use xlink:href="#mec21691e62" x="102.618267" y="55.802979" style="fill-opacity: 0.05"/>
     <use xlink:href="#mec21691e62" x="104.834209" y="64.23019" style="fill-opacity: 0.05"/>
     <use xlink:href="#mec21691e62" x="109.031276" y="69.730589" style="fill-opacity: 0.05"/>
     <use xlink:href="#mec21691e62" x="116.029853" y="62.817243" style="fill-opacity: 0.05"/>
     <use xlink:href="#mec21691e62" x="119.168669" y="65.138511" style="fill-opacity: 0.05"/>
     <use xlink:href="#mec21691e62" x="113.033261" y="57.871929" style="fill-opacity: 0.05"/>
     <use xlink:href="#mec21691e62" x="103.068476" y="50.554889" style="fill-opacity: 0.05"/>
     <use xlink:href="#mec21691e62" x="103.170544" y="48.031778" style="fill-opacity: 0.05"/>
     <use xlink:href="#mec21691e62" x="112.160723" y="56.795405" style="fill-opacity: 0.05"/>
     <use xlink:href="#mec21691e62" x="97.97986" y="68.569951" style="fill-opacity: 0.05"/>
     <use xlink:href="#mec21691e62" x="94.332248" y="53.195753" style="fill-opacity: 0.05"/>
     <use xlink:href="#mec21691e62" x="101.273295" y="46.753395" style="fill-opacity: 0.05"/>
     <use xlink:href="#mec21691e62" x="99.357614" y="50.840846" style="fill-opacity: 0.05"/>
     <use xlink:href="#mec21691e62" x="99.615447" y="51.143622" style="fill-opacity: 0.05"/>
     <use xlink:href="#mec21691e62" x="97.832896" y="48.889632" style="fill-opacity: 0.05"/>
     <use xlink:href="#mec21691e62" x="92.388202" y="52.590209" style="fill-opacity: 0.05"/>
     <use xlink:href="#mec21691e62" x="91.699656" y="45.256341" style="fill-opacity: 0.05"/>
     <use xlink:href="#mec21691e62" x="119.272122" y="45.273169" style="fill-opacity: 0.05"/>
     <use xlink:href="#mec21691e62" x="103.352953" y="49.663388" style="fill-opacity: 0.05"/>
     <use xlink:href="#mec21691e62" x="102.117784" y="61.118346" style="fill-opacity: 0.05"/>
     <use xlink:href="#mec21691e62" x="110.51365" y="49.444718" style="fill-opacity: 0.05"/>
     <use xlink:href="#mec21691e62" x="97.396391" y="71.429485" style="fill-opacity: 0.05"/>
     <use xlink:href="#mec21691e62" x="118.198584" y="58.628866" style="fill-opacity: 0.05"/>
     <use xlink:href="#mec21691e62" x="113.547031" y="57.13182" style="fill-opacity: 0.05"/>
     <use xlink:href="#mec21691e62" x="93.733431" y="51.698708" style="fill-opacity: 0.05"/>
     <use xlink:href="#mec21691e62" x="103.063188" y="76.660747" style="fill-opacity: 0.05"/>
     <use xlink:href="#mec21691e62" x="116.184545" y="49.781133" style="fill-opacity: 0.05"/>
     <use xlink:href="#mec21691e62" x="118.04992" y="53.178934" style="fill-opacity: 0.05"/>
     <use xlink:href="#mec21691e62" x="104.479574" y="53.094828" style="fill-opacity: 0.05"/>
     <use xlink:href="#mec21691e62" x="108.630586" y="70.470698" style="fill-opacity: 0.05"/>
     <use xlink:href="#mec21691e62" x="95.940225" y="53.195753" style="fill-opacity: 0.05"/>
     <use xlink:href="#mec21691e62" x="119.370097" y="53.96951" style="fill-opacity: 0.05"/>
     <use xlink:href="#mec21691e62" x="97.777855" y="63.103199" style="fill-opacity: 0.05"/>
     <use xlink:href="#mec21691e62" x="117.993054" y="54.339572" style="fill-opacity: 0.05"/>
     <use xlink:href="#mec21691e62" x="109.660742" y="60.193198" style="fill-opacity: 0.05"/>
     <use xlink:href="#mec21691e62" x="108.469259" y="49.175589" style="fill-opacity: 0.05"/>
     <use xlink:href="#mec21691e62" x="105.767069" y="47.964492" style="fill-opacity: 0.05"/>
     <use xlink:href="#mec21691e62" x="97.749372" y="62.834062" style="fill-opacity: 0.05"/>
     <use xlink:href="#mec21691e62" x="96.210139" y="53.700381" style="fill-opacity: 0.05"/>
     <use xlink:href="#mec21691e62" x="97.459855" y="48.082237" style="fill-opacity: 0.05"/>
     <use xlink:href="#mec21691e62" x="96.491884" y="52.489284" style="fill-opacity: 0.05"/>
     <use xlink:href="#mec21691e62" x="113.354831" y="62.733137" style="fill-opacity: 0.05"/>
     <use xlink:href="#mec21691e62" x="101.14545" y="49.663388" style="fill-opacity: 0.05"/>
    </g>
   </g>
   <g id="PathCollection_2">
    <g clip-path="url(#pd7b5383897)">
     <use xlink:href="#mec21691e62" x="163.910114" y="45.996458" style="fill-opacity: 0.05"/>
     <use xlink:href="#mec21691e62" x="189.816929" y="51.833272" style="fill-opacity: 0.05"/>
     <use xlink:href="#mec21691e62" x="187.391402" y="50.016623" style="fill-opacity: 0.05"/>
     <use xlink:href="#mec21691e62" x="188.641352" y="48.452291" style="fill-opacity: 0.05"/>
     <use xlink:href="#mec21691e62" x="190.550562" y="67.392493" style="fill-opacity: 0.05"/>
     <use xlink:href="#mec21691e62" x="167.20945" y="54.558243" style="fill-opacity: 0.05"/>
     <use xlink:href="#mec21691e62" x="173.530694" y="82.632126" style="fill-opacity: 0.05"/>
     <use xlink:href="#mec21691e62" x="183.822132" y="56.610374" style="fill-opacity: 0.05"/>
     <use xlink:href="#mec21691e62" x="182.053299" y="47.358939" style="fill-opacity: 0.05"/>
     <use xlink:href="#mec21691e62" x="166.640875" y="44.297562" style="fill-opacity: 0.05"/>
     <use xlink:href="#mec21691e62" x="185.459528" y="45.037671" style="fill-opacity: 0.05"/>
     <use xlink:href="#mec21691e62" x="168.646437" y="47.695363" style="fill-opacity: 0.05"/>
     <use xlink:href="#mec21691e62" x="168.628726" y="47.846747" style="fill-opacity: 0.05"/>
     <use xlink:href="#mec21691e62" x="177.531669" y="46.484266" style="fill-opacity: 0.05"/>
     <use xlink:href="#mec21691e62" x="179.12275" y="42.413634" style="fill-opacity: 0.05"/>
     <use xlink:href="#mec21691e62" x="178.757323" y="54.036796" style="fill-opacity: 0.05"/>
     <use xlink:href="#mec21691e62" x="164.866607" y="67.510246" style="fill-opacity: 0.05"/>
     <use xlink:href="#mec21691e62" x="187.211584" y="46.551544" style="fill-opacity: 0.05"/>
     <use xlink:href="#mec21691e62" x="169.816587" y="45.340447" style="fill-opacity: 0.05"/>
     <use xlink:href="#mec21691e62" x="165.947732" y="51.799633" style="fill-opacity: 0.05"/>
     <use xlink:href="#mec21691e62" x="187.532476" y="45.912352" style="fill-opacity: 0.05"/>
     <use xlink:href="#mec21691e62" x="189.434518" y="48.553217" style="fill-opacity: 0.05"/>
     <use xlink:href="#mec21691e62" x="186.775665" y="50.941771" style="fill-opacity: 0.05"/>
     <use xlink:href="#mec21691e62" x="185.279937" y="51.328645" style="fill-opacity: 0.05"/>
     <use xlink:href="#mec21691e62" x="180.893976" y="45.643223" style="fill-opacity: 0.05"/>
     <use xlink:href="#mec21691e62" x="177.926357" y="50.420325" style="fill-opacity: 0.05"/>
     <use xlink:href="#mec21691e62" x="164.738671" y="48.940099" style="fill-opacity: 0.05"/>
     <use xlink:href="#mec21691e62" x="173.877854" y="53.96951" style="fill-opacity: 0.05"/>
     <use xlink:href="#mec21691e62" x="172.861076" y="45.946" style="fill-opacity: 0.05"/>
     <use xlink:href="#mec21691e62" x="169.650379" y="54.709627" style="fill-opacity: 0.05"/>
     <use xlink:href="#mec21691e62" x="182.832257" y="46.568364" style="fill-opacity: 0.05"/>
     <use xlink:href="#mec21691e62" x="176.363247" y="62.817243" style="fill-opacity: 0.05"/>
     <use xlink:href="#mec21691e62" x="164.569783" y="47.443045" style="fill-opacity: 0.05"/>
     <use xlink:href="#mec21691e62" x="168.525401" y="50.252121" style="fill-opacity: 0.05"/>
     <use xlink:href="#mec21691e62" x="181.690484" y="54.591882" style="fill-opacity: 0.05"/>
     <use xlink:href="#mec21691e62" x="164.430041" y="45.407733" style="fill-opacity: 0.05"/>
     <use xlink:href="#mec21691e62" x="186.465193" y="45.559117" style="fill-opacity: 0.05"/>
     <use xlink:href="#mec21691e62" x="176.342516" y="58.124247" style="fill-opacity: 0.05"/>
     <use xlink:href="#mec21691e62" x="175.928582" y="45.660043" style="fill-opacity: 0.05"/>
     <use xlink:href="#mec21691e62" x="179.107621" y="48.048598" style="fill-opacity: 0.05"/>
     <use xlink:href="#mec21691e62" x="185.711069" y="57.754184" style="fill-opacity: 0.05"/>
     <use xlink:href="#mec21691e62" x="172.153766" y="47.409406" style="fill-opacity: 0.05"/>
     <use xlink:href="#mec21691e62" x="181.541438" y="46.955246" style="fill-opacity: 0.05"/>
     <use xlink:href="#mec21691e62" x="178.349236" y="47.930853" style="fill-opacity: 0.05"/>
     <use xlink:href="#mec21691e62" x="169.857191" y="52.640668" style="fill-opacity: 0.05"/>
     <use xlink:href="#mec21691e62" x="187.244822" y="48.099056" style="fill-opacity: 0.05"/>
     <use xlink:href="#mec21691e62" x="184.93622" y="50.52125" style="fill-opacity: 0.05"/>
     <use xlink:href="#mec21691e62" x="180.985231" y="45.205883" style="fill-opacity: 0.05"/>
     <use xlink:href="#mec21691e62" x="186.447419" y="53.363965" style="fill-opacity: 0.05"/>
     <use xlink:href="#mec21691e62" x="186.922549" y="53.616275" style="fill-opacity: 0.05"/>
     <use xlink:href="#mec21691e62" x="182.404188" y="50.016623" style="fill-opacity: 0.05"/>
     <use xlink:href="#mec21691e62" x="186.061674" y="47.745821" style="fill-opacity: 0.05"/>
     <use xlink:href="#mec21691e62" x="182.094546" y="50.638995" style="fill-opacity: 0.05"/>
     <use xlink:href="#mec21691e62" x="181.60184" y="47.08981" style="fill-opacity: 0.05"/>
     <use xlink:href="#mec21691e62" x="179.85258" y="50.437144" style="fill-opacity: 0.05"/>
     <use xlink:href="#mec21691e62" x="183.665148" y="54.17136" style="fill-opacity: 0.05"/>
     <use xlink:href="#mec21691e62" x="166.774756" y="45.676862" style="fill-opacity: 0.05"/>
     <use xlink:href="#mec21691e62" x="187.308526" y="53.229401" style="fill-opacity: 0.05"/>
     <use xlink:href="#mec21691e62" x="187.051885" y="84.56652" style="fill-opacity: 0.05"/>
     <use xlink:href="#mec21691e62" x="163.097157" y="64.381574" style="fill-opacity: 0.05"/>
     <use xlink:href="#mec21691e62" x="185.743359" y="50.336219" style="fill-opacity: 0.05"/>
     <use xlink:href="#mec21691e62" x="165.929394" y="56.778586" style="fill-opacity: 0.05"/>
     <use xlink:href="#mec21691e62" x="171.792983" y="52.993903" style="fill-opacity: 0.05"/>
     <use xlink:href="#mec21691e62" x="183.403357" y="47.056171" style="fill-opacity: 0.05"/>
     <use xlink:href="#mec21691e62" x="166.836016" y="45.020851" style="fill-opacity: 0.05"/>
     <use xlink:href="#mec21691e62" x="185.520194" y="51.345465" style="fill-opacity: 0.05"/>
     <use xlink:href="#mec21691e62" x="185.922962" y="54.743266" style="fill-opacity: 0.05"/>
     <use xlink:href="#mec21691e62" x="176.692804" y="43.877041" style="fill-opacity: 0.05"/>
     <use xlink:href="#mec21691e62" x="162.447215" y="51.951017" style="fill-opacity: 0.05"/>
     <use xlink:href="#mec21691e62" x="170.426064" y="50.739921" style="fill-opacity: 0.05"/>
     <use xlink:href="#mec21691e62" x="179.804692" y="47.039352" style="fill-opacity: 0.05"/>
     <use xlink:href="#mec21691e62" x="190.16046" y="49.259695" style="fill-opacity: 0.05"/>
     <use xlink:href="#mec21691e62" x="180.227913" y="46.517905" style="fill-opacity: 0.05"/>
     <use xlink:href="#mec21691e62" x="169.651795" y="45.071318" style="fill-opacity: 0.05"/>
     <use xlink:href="#mec21691e62" x="180.290236" y="42.935073" style="fill-opacity: 0.05"/>
     <use xlink:href="#mec21691e62" x="177.61727" y="51.126803" style="fill-opacity: 0.05"/>
     <use xlink:href="#mec21691e62" x="184.436409" y="55.853437" style="fill-opacity: 0.05"/>
     <use xlink:href="#mec21691e62" x="165.30709" y="47.358939" style="fill-opacity: 0.05"/>
     <use xlink:href="#mec21691e62" x="183.901434" y="70.369773" style="fill-opacity: 0.05"/>
     <use xlink:href="#mec21691e62" x="177.653694" y="51.109975" style="fill-opacity: 0.05"/>
     <use xlink:href="#mec21691e62" x="189.643206" y="55.315171" style="fill-opacity: 0.05"/>
     <use xlink:href="#mec21691e62" x="171.984977" y="44.936753" style="fill-opacity: 0.05"/>
     <use xlink:href="#mec21691e62" x="180.250894" y="58.040141" style="fill-opacity: 0.05"/>
     <use xlink:href="#mec21691e62" x="188.762912" y="43.742476" style="fill-opacity: 0.05"/>
     <use xlink:href="#mec21691e62" x="165.179984" y="52.640668" style="fill-opacity: 0.05"/>
     <use xlink:href="#mec21691e62" x="188.910758" y="49.007377" style="fill-opacity: 0.05"/>
     <use xlink:href="#mec21691e62" x="181.822027" y="63.389148" style="fill-opacity: 0.05"/>
     <use xlink:href="#mec21691e62" x="164.194251" y="46.517905" style="fill-opacity: 0.05"/>
     <use xlink:href="#mec21691e62" x="170.82196" y="49.394259" style="fill-opacity: 0.05"/>
     <use xlink:href="#mec21691e62" x="182.398761" y="57.300024" style="fill-opacity: 0.05"/>
     <use xlink:href="#mec21691e62" x="164.180422" y="53.162114" style="fill-opacity: 0.05"/>
     <use xlink:href="#mec21691e62" x="178.816577" y="56.509448" style="fill-opacity: 0.05"/>
     <use xlink:href="#mec21691e62" x="172.099006" y="45.357267" style="fill-opacity: 0.05"/>
     <use xlink:href="#mec21691e62" x="179.918086" y="44.516232" style="fill-opacity: 0.05"/>
     <use xlink:href="#mec21691e62" x="163.566097" y="51.126803" style="fill-opacity: 0.05"/>
     <use xlink:href="#mec21691e62" x="187.043165" y="51.765986" style="fill-opacity: 0.05"/>
     <use xlink:href="#mec21691e62" x="189.941631" y="47.34212" style="fill-opacity: 0.05"/>
     <use xlink:href="#mec21691e62" x="189.810539" y="44.465766" style="fill-opacity: 0.05"/>
     <use xlink:href="#mec21691e62" x="183.578016" y="59.991355" style="fill-opacity: 0.05"/>
     <use xlink:href="#mec21691e62" x="165.963975" y="44.633977" style="fill-opacity: 0.05"/>
    </g>
   </g>
   <g id="text_7">
    <!-- *** -->
    <g transform="translate(128.943419 20.30095) scale(0.16 -0.16)">
     <defs>
      <path id="DejaVuSans-2a" d="M 3009 3897 
L 1888 3291 
L 3009 2681 
L 2828 2375 
L 1778 3009 
L 1778 1831 
L 1422 1831 
L 1422 3009 
L 372 2375 
L 191 2681 
L 1313 3291 
L 191 3897 
L 372 4206 
L 1422 3572 
L 1422 4750 
L 1778 4750 
L 1778 3572 
L 2828 4206 
L 3009 3897 
z
" transform="scale(0.015625)"/>
     </defs>
     <use xlink:href="#DejaVuSans-2a"/>
     <use xlink:href="#DejaVuSans-2a" transform="translate(50 0)"/>
     <use xlink:href="#DejaVuSans-2a" transform="translate(100 0)"/>
    </g>
   </g>
   <g id="LineCollection_1">
    <path d="M 105.406338 55.944048 
L 105.406338 54.317916 
" clip-path="url(#pd7b5383897)" style="fill: none; stroke: #000000; stroke-width: 2"/>
    <path d="M 176.480499 51.994137 
L 176.480499 50.541703 
" clip-path="url(#pd7b5383897)" style="fill: none; stroke: #000000; stroke-width: 2"/>
   </g>
   <g id="line2d_7">
    <defs>
     <path id="m25b4966957" d="M 5 0 
L -5 -0 
" style="stroke: #000000"/>
    </defs>
    <g clip-path="url(#pd7b5383897)">
     <use xlink:href="#m25b4966957" x="105.406338" y="55.944048" style="stroke: #000000"/>
     <use xlink:href="#m25b4966957" x="176.480499" y="51.994137" style="stroke: #000000"/>
    </g>
   </g>
   <g id="line2d_8">
    <g clip-path="url(#pd7b5383897)">
     <use xlink:href="#m25b4966957" x="105.406338" y="54.317916" style="stroke: #000000"/>
     <use xlink:href="#m25b4966957" x="176.480499" y="50.541703" style="stroke: #000000"/>
    </g>
   </g>
   <g id="line2d_9">
    <defs>
     <path id="me3cea5388f" d="M 0 3 
C 0.795609 3 1.55874 2.683901 2.12132 2.12132 
C 2.683901 1.55874 3 0.795609 3 0 
C 3 -0.795609 2.683901 -1.55874 2.12132 -2.12132 
C 1.55874 -2.683901 0.795609 -3 0 -3 
C -0.795609 -3 -1.55874 -2.683901 -2.12132 -2.12132 
C -2.683901 -1.55874 -3 -0.795609 -3 0 
C -3 0.795609 -2.683901 1.55874 -2.12132 2.12132 
C -1.55874 2.683901 -0.795609 3 0 3 
z
" style="stroke: #000000"/>
    </defs>
    <g clip-path="url(#pd7b5383897)">
     <use xlink:href="#me3cea5388f" x="105.406338" y="55.130982" style="stroke: #000000"/>
     <use xlink:href="#me3cea5388f" x="176.480499" y="51.26792" style="stroke: #000000"/>
    </g>
   </g>
  </g>
 </g>
 <defs>
  <clipPath id="pd7b5383897">
   <rect x="70.58" y="20.562203" width="140.726837" height="155.778514"/>
  </clipPath>
 </defs>
</svg>
