<?xml version="1.0" encoding="utf-8" standalone="no"?>
<!DOCTYPE svg PUBLIC "-//W3C//DTD SVG 1.1//EN"
  "http://www.w3.org/Graphics/SVG/1.1/DTD/svg11.dtd">
<svg xmlns:xlink="http://www.w3.org/1999/xlink" width="252pt" height="252pt" viewBox="0 0 252 252" xmlns="http://www.w3.org/2000/svg" version="1.1">
 <metadata>
  <rdf:RDF xmlns:dc="http://purl.org/dc/elements/1.1/" xmlns:cc="http://creativecommons.org/ns#" xmlns:rdf="http://www.w3.org/1999/02/22-rdf-syntax-ns#">
   <cc:Work>
    <dc:type rdf:resource="http://purl.org/dc/dcmitype/StillImage"/>
    <dc:date>2025-09-24T19:16:00.997498</dc:date>
    <dc:format>image/svg+xml</dc:format>
    <dc:creator>
     <cc:Agent>
      <dc:title>Matplotlib v3.10.1, https://matplotlib.org/</dc:title>
     </cc:Agent>
    </dc:creator>
   </cc:Work>
  </rdf:RDF>
 </metadata>
 <defs>
  <style type="text/css">*{stroke-linejoin: round; stroke-linecap: butt}</style>
 </defs>
 <g id="figure_1">
  <g id="patch_1">
   <path d="M 0 252 
L 252 252 
L 252 0 
L 0 0 
L 0 252 
z
" style="fill: none"/>
  </g>
  <g id="axes_1">
   <g id="patch_2">
    <path d="M 70.58 122.340717 
L 211.306837 122.340717 
L 211.306837 21.380638 
L 70.58 21.380638 
L 70.58 122.340717 
z
" style="fill: none"/>
   </g>
   <g id="FillBetweenPolyCollection_1">
    <defs>
     <path id="mc93563be0a" d="M 106.857685 -188.887421 
L 103.954992 -188.887421 
L 103.906784 -189.147297 
L 103.875521 -189.407172 
L 103.861497 -189.667047 
L 103.864169 -189.926923 
L 103.882195 -190.186798 
L 103.913502 -190.446674 
L 103.955421 -190.706549 
L 104.004847 -190.966425 
L 104.058422 -191.2263 
L 104.112728 -191.486175 
L 104.164462 -191.746051 
L 104.210593 -192.005926 
L 104.248474 -192.265802 
L 104.275926 -192.525677 
L 104.291272 -192.785552 
L 104.293332 -193.045428 
L 104.281396 -193.305303 
L 104.255172 -193.565179 
L 104.214728 -193.825054 
L 104.160438 -194.08493 
L 104.092942 -194.344805 
L 104.01312 -194.60468 
L 103.922082 -194.864556 
L 103.82118 -195.124431 
L 103.712011 -195.384307 
L 103.596423 -195.644182 
L 103.476502 -195.904057 
L 103.35453 -196.163933 
L 103.2329 -196.423808 
L 103.114003 -196.683684 
L 103.000074 -196.943559 
L 102.893007 -197.203435 
L 102.794166 -197.46331 
L 102.7042 -197.723185 
L 102.622883 -197.983061 
L 102.549009 -198.242936 
L 102.480352 -198.502812 
L 102.413703 -198.762687 
L 102.345 -199.022562 
L 102.269534 -199.282438 
L 102.18222 -199.542313 
L 102.077926 -199.802189 
L 101.951814 -200.062064 
L 101.799663 -200.32194 
L 101.618162 -200.581815 
L 101.405108 -200.84169 
L 101.159516 -201.101566 
L 100.881605 -201.361441 
L 100.572673 -201.621317 
L 100.234848 -201.881192 
L 99.870755 -202.141067 
L 99.483125 -202.400943 
L 99.074365 -202.660818 
L 98.646162 -202.920694 
L 98.199138 -203.180569 
L 97.732604 -203.440445 
L 97.244437 -203.70032 
L 96.731106 -203.960195 
L 96.187841 -204.220071 
L 95.608949 -204.479946 
L 94.988246 -204.739822 
L 94.319576 -204.999697 
L 93.597383 -205.259572 
L 92.817287 -205.519448 
L 91.976623 -205.779323 
L 91.074912 -206.039199 
L 90.114214 -206.299074 
L 89.099357 -206.55895 
L 88.038025 -206.818825 
L 86.940696 -207.0787 
L 85.820442 -207.338576 
L 84.692609 -207.598451 
L 83.574397 -207.858327 
L 82.48436 -208.118202 
L 81.441866 -208.378077 
L 80.466537 -208.637953 
L 79.577682 -208.897828 
L 78.793769 -209.157704 
L 78.131922 -209.417579 
L 77.607467 -209.677455 
L 77.233531 -209.93733 
L 77.020689 -210.197205 
L 76.976674 -210.457081 
L 77.106138 -210.716956 
L 77.410477 -210.976832 
L 77.887728 -211.236707 
L 78.532551 -211.496582 
L 79.336291 -211.756458 
L 80.287155 -212.016333 
L 81.370484 -212.276209 
L 82.569131 -212.536084 
L 83.863934 -212.79596 
L 85.234262 -213.055835 
L 86.658616 -213.31571 
L 88.115252 -213.575586 
L 89.582792 -213.835461 
L 91.040804 -214.095337 
L 92.470317 -214.355212 
L 93.854249 -214.615087 
L 116.958428 -214.615087 
L 116.958428 -214.615087 
L 118.34236 -214.355212 
L 119.771873 -214.095337 
L 121.229885 -213.835461 
L 122.697425 -213.575586 
L 124.154061 -213.31571 
L 125.578415 -213.055835 
L 126.948743 -212.79596 
L 128.243546 -212.536084 
L 129.442193 -212.276209 
L 130.525522 -212.016333 
L 131.476386 -211.756458 
L 132.280126 -211.496582 
L 132.924948 -211.236707 
L 133.4022 -210.976832 
L 133.706539 -210.716956 
L 133.836003 -210.457081 
L 133.791988 -210.197205 
L 133.579146 -209.93733 
L 133.205209 -209.677455 
L 132.680755 -209.417579 
L 132.018908 -209.157704 
L 131.234995 -208.897828 
L 130.34614 -208.637953 
L 129.37081 -208.378077 
L 128.328317 -208.118202 
L 127.23828 -207.858327 
L 126.120068 -207.598451 
L 124.992235 -207.338576 
L 123.871981 -207.0787 
L 122.774652 -206.818825 
L 121.71332 -206.55895 
L 120.698463 -206.299074 
L 119.737765 -206.039199 
L 118.836054 -205.779323 
L 117.99539 -205.519448 
L 117.215294 -205.259572 
L 116.493101 -204.999697 
L 115.824431 -204.739822 
L 115.203728 -204.479946 
L 114.624836 -204.220071 
L 114.081571 -203.960195 
L 113.56824 -203.70032 
L 113.080073 -203.440445 
L 112.613539 -203.180569 
L 112.166515 -202.920694 
L 111.738312 -202.660818 
L 111.329552 -202.400943 
L 110.941921 -202.141067 
L 110.577829 -201.881192 
L 110.240004 -201.621317 
L 109.931071 -201.361441 
L 109.653161 -201.101566 
L 109.407569 -200.84169 
L 109.194515 -200.581815 
L 109.013014 -200.32194 
L 108.860863 -200.062064 
L 108.734751 -199.802189 
L 108.630457 -199.542313 
L 108.543143 -199.282438 
L 108.467677 -199.022562 
L 108.398974 -198.762687 
L 108.332325 -198.502812 
L 108.263668 -198.242936 
L 108.189794 -197.983061 
L 108.108477 -197.723185 
L 108.018511 -197.46331 
L 107.91967 -197.203435 
L 107.812603 -196.943559 
L 107.698674 -196.683684 
L 107.579777 -196.423808 
L 107.458147 -196.163933 
L 107.336174 -195.904057 
L 107.216254 -195.644182 
L 107.100666 -195.384307 
L 106.991497 -195.124431 
L 106.890594 -194.864556 
L 106.799557 -194.60468 
L 106.719735 -194.344805 
L 106.652239 -194.08493 
L 106.597949 -193.825054 
L 106.557505 -193.565179 
L 106.531281 -193.305303 
L 106.519345 -193.045428 
L 106.521405 -192.785552 
L 106.536751 -192.525677 
L 106.564203 -192.265802 
L 106.602084 -192.005926 
L 106.648215 -191.746051 
L 106.699949 -191.486175 
L 106.754255 -191.2263 
L 106.80783 -190.966425 
L 106.857256 -190.706549 
L 106.899175 -190.446674 
L 106.930482 -190.186798 
L 106.948507 -189.926923 
L 106.95118 -189.667047 
L 106.937155 -189.407172 
L 106.905893 -189.147297 
L 106.857685 -188.887421 
z
" style="stroke: #484848; stroke-opacity: 0.9; stroke-width: 1.25"/>
    </defs>
    <g clip-path="url(#p16280dd534)">
     <use xlink:href="#mc93563be0a" x="0" y="252" style="fill: #d86743; fill-opacity: 0.9; stroke: #484848; stroke-opacity: 0.9; stroke-width: 1.25"/>
    </g>
   </g>
   <g id="FillBetweenPolyCollection_2">
    <defs>
     <path id="med24e482bd" d="M 177.474757 -189.138154 
L 175.48624 -189.138154 
L 175.451711 -189.414107 
L 175.4363 -189.690059 
L 175.440872 -189.966012 
L 175.465163 -190.241964 
L 175.507801 -190.517917 
L 175.566425 -190.793869 
L 175.6379 -191.069821 
L 175.718575 -191.345774 
L 175.804578 -191.621726 
L 175.892094 -191.897679 
L 175.977614 -192.173631 
L 176.058106 -192.449584 
L 176.131129 -192.725536 
L 176.194854 -193.001489 
L 176.248027 -193.277441 
L 176.289873 -193.553393 
L 176.319974 -193.829346 
L 176.338131 -194.105298 
L 176.344246 -194.381251 
L 176.33823 -194.657203 
L 176.319944 -194.933156 
L 176.289198 -195.209108 
L 176.245778 -195.485061 
L 176.18951 -195.761013 
L 176.120352 -196.036965 
L 176.038481 -196.312918 
L 175.944378 -196.58887 
L 175.838894 -196.864823 
L 175.723276 -197.140775 
L 175.599162 -197.416728 
L 175.468533 -197.69268 
L 175.333631 -197.968633 
L 175.196841 -198.244585 
L 175.060561 -198.520537 
L 174.927064 -198.79649 
L 174.798364 -199.072442 
L 174.676116 -199.348395 
L 174.561533 -199.624347 
L 174.455358 -199.9003 
L 174.35786 -200.176252 
L 174.268859 -200.452205 
L 174.187762 -200.728157 
L 174.11358 -201.004109 
L 174.044906 -201.280062 
L 173.979845 -201.556014 
L 173.915891 -201.831967 
L 173.849756 -202.107919 
L 173.777204 -202.383872 
L 173.692912 -202.659824 
L 173.590423 -202.935777 
L 173.46222 -203.211729 
L 173.299965 -203.487681 
L 173.094874 -203.763634 
L 172.838223 -204.039586 
L 172.521925 -204.315539 
L 172.139099 -204.591491 
L 171.68456 -204.867444 
L 171.155175 -205.143396 
L 170.55003 -205.419349 
L 169.870413 -205.695301 
L 169.119612 -205.971253 
L 168.302601 -206.247206 
L 167.425649 -206.523158 
L 166.495933 -206.799111 
L 165.521197 -207.075063 
L 164.509495 -207.351016 
L 163.469019 -207.626968 
L 162.407994 -207.902921 
L 161.334614 -208.178873 
L 160.256973 -208.454825 
L 159.182962 -208.730778 
L 158.120117 -209.00673 
L 157.075432 -209.282683 
L 156.055189 -209.558635 
L 155.064852 -209.834588 
L 154.109118 -210.11054 
L 153.192184 -210.386493 
L 152.318278 -210.662445 
L 151.492433 -210.938397 
L 150.72145 -211.21435 
L 150.014901 -211.490302 
L 149.385993 -211.766255 
L 148.852086 -212.042207 
L 148.434665 -212.31816 
L 148.158627 -212.594112 
L 148.050835 -212.870065 
L 148.137999 -213.146017 
L 148.444099 -213.421969 
L 148.987605 -213.697922 
L 149.778875 -213.973874 
L 150.818078 -214.249827 
L 152.093956 -214.525779 
L 153.583614 -214.801732 
L 155.253435 -215.077684 
L 157.061012 -215.353637 
L 158.957894 -215.629589 
L 160.892837 -215.905541 
L 162.81518 -216.181494 
L 164.678008 -216.457446 
L 188.282989 -216.457446 
L 188.282989 -216.457446 
L 190.145818 -216.181494 
L 192.068161 -215.905541 
L 194.003103 -215.629589 
L 195.899985 -215.353637 
L 197.707562 -215.077684 
L 199.377383 -214.801732 
L 200.867042 -214.525779 
L 202.142919 -214.249827 
L 203.182122 -213.973874 
L 203.973392 -213.697922 
L 204.516898 -213.421969 
L 204.822998 -213.146017 
L 204.910163 -212.870065 
L 204.80237 -212.594112 
L 204.526332 -212.31816 
L 204.108912 -212.042207 
L 203.575004 -211.766255 
L 202.946096 -211.490302 
L 202.239547 -211.21435 
L 201.468564 -210.938397 
L 200.64272 -210.662445 
L 199.768813 -210.386493 
L 198.85188 -210.11054 
L 197.896145 -209.834588 
L 196.905808 -209.558635 
L 195.885566 -209.282683 
L 194.840881 -209.00673 
L 193.778035 -208.730778 
L 192.704024 -208.454825 
L 191.626384 -208.178873 
L 190.553004 -207.902921 
L 189.491978 -207.626968 
L 188.451502 -207.351016 
L 187.4398 -207.075063 
L 186.465064 -206.799111 
L 185.535348 -206.523158 
L 184.658396 -206.247206 
L 183.841385 -205.971253 
L 183.090584 -205.695301 
L 182.410967 -205.419349 
L 181.805823 -205.143396 
L 181.276437 -204.867444 
L 180.821898 -204.591491 
L 180.439072 -204.315539 
L 180.122774 -204.039586 
L 179.866123 -203.763634 
L 179.661032 -203.487681 
L 179.498777 -203.211729 
L 179.370575 -202.935777 
L 179.268085 -202.659824 
L 179.183793 -202.383872 
L 179.111241 -202.107919 
L 179.045106 -201.831967 
L 178.981152 -201.556014 
L 178.916091 -201.280062 
L 178.847417 -201.004109 
L 178.773235 -200.728157 
L 178.692138 -200.452205 
L 178.603137 -200.176252 
L 178.505639 -199.9003 
L 178.399464 -199.624347 
L 178.284881 -199.348395 
L 178.162633 -199.072442 
L 178.033933 -198.79649 
L 177.900436 -198.520537 
L 177.764156 -198.244585 
L 177.627366 -197.968633 
L 177.492464 -197.69268 
L 177.361836 -197.416728 
L 177.237722 -197.140775 
L 177.122103 -196.864823 
L 177.016619 -196.58887 
L 176.922516 -196.312918 
L 176.840645 -196.036965 
L 176.771487 -195.761013 
L 176.715219 -195.485061 
L 176.671799 -195.209108 
L 176.641053 -194.933156 
L 176.622767 -194.657203 
L 176.616751 -194.381251 
L 176.622866 -194.105298 
L 176.641024 -193.829346 
L 176.671124 -193.553393 
L 176.712971 -193.277441 
L 176.766143 -193.001489 
L 176.829868 -192.725536 
L 176.902891 -192.449584 
L 176.983383 -192.173631 
L 177.068903 -191.897679 
L 177.15642 -191.621726 
L 177.242422 -191.345774 
L 177.323097 -191.069821 
L 177.394572 -190.793869 
L 177.453196 -190.517917 
L 177.495834 -190.241964 
L 177.520125 -189.966012 
L 177.524697 -189.690059 
L 177.509286 -189.414107 
L 177.474757 -189.138154 
z
" style="stroke: #484848; stroke-opacity: 0.9; stroke-width: 1.25"/>
    </defs>
    <g clip-path="url(#p16280dd534)">
     <use xlink:href="#med24e482bd" x="0" y="252" style="fill: #1ea0d1; fill-opacity: 0.9; stroke: #484848; stroke-opacity: 0.9; stroke-width: 1.25"/>
    </g>
   </g>
   <g id="matplotlib.axis_1">
    <g id="xtick_1">
     <g id="line2d_1">
      <defs>
       <path id="m0b2cbef5c7" d="M 0 0 
L 0 3.5 
" style="stroke: #000000; stroke-width: 0.8"/>
      </defs>
      <g>
       <use xlink:href="#m0b2cbef5c7" x="105.406338" y="122.340717" style="stroke: #000000; stroke-width: 0.8"/>
      </g>
     </g>
     <g id="text_1">
      <!-- sensory -->
      <g transform="translate(72.408208 178.432852) rotate(-30) scale(0.18 -0.18)">
       <defs>
        <path id="DejaVuSans-73" d="M 2834 3397 
L 2834 2853 
Q 2591 2978 2328 3040 
Q 2066 3103 1784 3103 
Q 1356 3103 1142 2972 
Q 928 2841 928 2578 
Q 928 2378 1081 2264 
Q 1234 2150 1697 2047 
L 1894 2003 
Q 2506 1872 2764 1633 
Q 3022 1394 3022 966 
Q 3022 478 2636 193 
Q 2250 -91 1575 -91 
Q 1294 -91 989 -36 
Q 684 19 347 128 
L 347 722 
Q 666 556 975 473 
Q 1284 391 1588 391 
Q 1994 391 2212 530 
Q 2431 669 2431 922 
Q 2431 1156 2273 1281 
Q 2116 1406 1581 1522 
L 1381 1569 
Q 847 1681 609 1914 
Q 372 2147 372 2553 
Q 372 3047 722 3315 
Q 1072 3584 1716 3584 
Q 2034 3584 2315 3537 
Q 2597 3491 2834 3397 
z
" transform="scale(0.015625)"/>
        <path id="DejaVuSans-65" d="M 3597 1894 
L 3597 1613 
L 953 1613 
Q 991 1019 1311 708 
Q 1631 397 2203 397 
Q 2534 397 2845 478 
Q 3156 559 3463 722 
L 3463 178 
Q 3153 47 2828 -22 
Q 2503 -91 2169 -91 
Q 1331 -91 842 396 
Q 353 884 353 1716 
Q 353 2575 817 3079 
Q 1281 3584 2069 3584 
Q 2775 3584 3186 3129 
Q 3597 2675 3597 1894 
z
M 3022 2063 
Q 3016 2534 2758 2815 
Q 2500 3097 2075 3097 
Q 1594 3097 1305 2825 
Q 1016 2553 972 2059 
L 3022 2063 
z
" transform="scale(0.015625)"/>
        <path id="DejaVuSans-6e" d="M 3513 2113 
L 3513 0 
L 2938 0 
L 2938 2094 
Q 2938 2591 2744 2837 
Q 2550 3084 2163 3084 
Q 1697 3084 1428 2787 
Q 1159 2491 1159 1978 
L 1159 0 
L 581 0 
L 581 3500 
L 1159 3500 
L 1159 2956 
Q 1366 3272 1645 3428 
Q 1925 3584 2291 3584 
Q 2894 3584 3203 3211 
Q 3513 2838 3513 2113 
z
" transform="scale(0.015625)"/>
        <path id="DejaVuSans-6f" d="M 1959 3097 
Q 1497 3097 1228 2736 
Q 959 2375 959 1747 
Q 959 1119 1226 758 
Q 1494 397 1959 397 
Q 2419 397 2687 759 
Q 2956 1122 2956 1747 
Q 2956 2369 2687 2733 
Q 2419 3097 1959 3097 
z
M 1959 3584 
Q 2709 3584 3137 3096 
Q 3566 2609 3566 1747 
Q 3566 888 3137 398 
Q 2709 -91 1959 -91 
Q 1206 -91 779 398 
Q 353 888 353 1747 
Q 353 2609 779 3096 
Q 1206 3584 1959 3584 
z
" transform="scale(0.015625)"/>
        <path id="DejaVuSans-72" d="M 2631 2963 
Q 2534 3019 2420 3045 
Q 2306 3072 2169 3072 
Q 1681 3072 1420 2755 
Q 1159 2438 1159 1844 
L 1159 0 
L 581 0 
L 581 3500 
L 1159 3500 
L 1159 2956 
Q 1341 3275 1631 3429 
Q 1922 3584 2338 3584 
Q 2397 3584 2469 3576 
Q 2541 3569 2628 3553 
L 2631 2963 
z
" transform="scale(0.015625)"/>
        <path id="DejaVuSans-79" d="M 2059 -325 
Q 1816 -950 1584 -1140 
Q 1353 -1331 966 -1331 
L 506 -1331 
L 506 -850 
L 844 -850 
Q 1081 -850 1212 -737 
Q 1344 -625 1503 -206 
L 1606 56 
L 191 3500 
L 800 3500 
L 1894 763 
L 2988 3500 
L 3597 3500 
L 2059 -325 
z
" transform="scale(0.015625)"/>
       </defs>
       <use xlink:href="#DejaVuSans-73"/>
       <use xlink:href="#DejaVuSans-65" transform="translate(52.099609 0)"/>
       <use xlink:href="#DejaVuSans-6e" transform="translate(113.623047 0)"/>
       <use xlink:href="#DejaVuSans-73" transform="translate(177.001953 0)"/>
       <use xlink:href="#DejaVuSans-6f" transform="translate(229.101562 0)"/>
       <use xlink:href="#DejaVuSans-72" transform="translate(290.283203 0)"/>
       <use xlink:href="#DejaVuSans-79" transform="translate(331.396484 0)"/>
      </g>
      <!-- replayed -->
      <g transform="translate(78.857052 197.983827) rotate(-30) scale(0.18 -0.18)">
       <defs>
        <path id="DejaVuSans-70" d="M 1159 525 
L 1159 -1331 
L 581 -1331 
L 581 3500 
L 1159 3500 
L 1159 2969 
Q 1341 3281 1617 3432 
Q 1894 3584 2278 3584 
Q 2916 3584 3314 3078 
Q 3713 2572 3713 1747 
Q 3713 922 3314 415 
Q 2916 -91 2278 -91 
Q 1894 -91 1617 61 
Q 1341 213 1159 525 
z
M 3116 1747 
Q 3116 2381 2855 2742 
Q 2594 3103 2138 3103 
Q 1681 3103 1420 2742 
Q 1159 2381 1159 1747 
Q 1159 1113 1420 752 
Q 1681 391 2138 391 
Q 2594 391 2855 752 
Q 3116 1113 3116 1747 
z
" transform="scale(0.015625)"/>
        <path id="DejaVuSans-6c" d="M 603 4863 
L 1178 4863 
L 1178 0 
L 603 0 
L 603 4863 
z
" transform="scale(0.015625)"/>
        <path id="DejaVuSans-61" d="M 2194 1759 
Q 1497 1759 1228 1600 
Q 959 1441 959 1056 
Q 959 750 1161 570 
Q 1363 391 1709 391 
Q 2188 391 2477 730 
Q 2766 1069 2766 1631 
L 2766 1759 
L 2194 1759 
z
M 3341 1997 
L 3341 0 
L 2766 0 
L 2766 531 
Q 2569 213 2275 61 
Q 1981 -91 1556 -91 
Q 1019 -91 701 211 
Q 384 513 384 1019 
Q 384 1609 779 1909 
Q 1175 2209 1959 2209 
L 2766 2209 
L 2766 2266 
Q 2766 2663 2505 2880 
Q 2244 3097 1772 3097 
Q 1472 3097 1187 3025 
Q 903 2953 641 2809 
L 641 3341 
Q 956 3463 1253 3523 
Q 1550 3584 1831 3584 
Q 2591 3584 2966 3190 
Q 3341 2797 3341 1997 
z
" transform="scale(0.015625)"/>
        <path id="DejaVuSans-64" d="M 2906 2969 
L 2906 4863 
L 3481 4863 
L 3481 0 
L 2906 0 
L 2906 525 
Q 2725 213 2448 61 
Q 2172 -91 1784 -91 
Q 1150 -91 751 415 
Q 353 922 353 1747 
Q 353 2572 751 3078 
Q 1150 3584 1784 3584 
Q 2172 3584 2448 3432 
Q 2725 3281 2906 2969 
z
M 947 1747 
Q 947 1113 1208 752 
Q 1469 391 1925 391 
Q 2381 391 2643 752 
Q 2906 1113 2906 1747 
Q 2906 2381 2643 2742 
Q 2381 3103 1925 3103 
Q 1469 3103 1208 2742 
Q 947 2381 947 1747 
z
" transform="scale(0.015625)"/>
       </defs>
       <use xlink:href="#DejaVuSans-72"/>
       <use xlink:href="#DejaVuSans-65" transform="translate(38.863281 0)"/>
       <use xlink:href="#DejaVuSans-70" transform="translate(100.386719 0)"/>
       <use xlink:href="#DejaVuSans-6c" transform="translate(163.863281 0)"/>
       <use xlink:href="#DejaVuSans-61" transform="translate(191.646484 0)"/>
       <use xlink:href="#DejaVuSans-79" transform="translate(252.925781 0)"/>
       <use xlink:href="#DejaVuSans-65" transform="translate(312.105469 0)"/>
       <use xlink:href="#DejaVuSans-64" transform="translate(373.628906 0)"/>
      </g>
     </g>
    </g>
    <g id="xtick_2">
     <g id="line2d_2">
      <g>
       <use xlink:href="#m0b2cbef5c7" x="176.480499" y="122.340717" style="stroke: #000000; stroke-width: 0.8"/>
      </g>
     </g>
     <g id="text_2">
      <!-- sensory-semantic -->
      <g transform="translate(105.135981 220.616133) rotate(-30) scale(0.18 -0.18)">
       <defs>
        <path id="DejaVuSans-2d" d="M 313 2009 
L 1997 2009 
L 1997 1497 
L 313 1497 
L 313 2009 
z
" transform="scale(0.015625)"/>
        <path id="DejaVuSans-6d" d="M 3328 2828 
Q 3544 3216 3844 3400 
Q 4144 3584 4550 3584 
Q 5097 3584 5394 3201 
Q 5691 2819 5691 2113 
L 5691 0 
L 5113 0 
L 5113 2094 
Q 5113 2597 4934 2840 
Q 4756 3084 4391 3084 
Q 3944 3084 3684 2787 
Q 3425 2491 3425 1978 
L 3425 0 
L 2847 0 
L 2847 2094 
Q 2847 2600 2669 2842 
Q 2491 3084 2119 3084 
Q 1678 3084 1418 2786 
Q 1159 2488 1159 1978 
L 1159 0 
L 581 0 
L 581 3500 
L 1159 3500 
L 1159 2956 
Q 1356 3278 1631 3431 
Q 1906 3584 2284 3584 
Q 2666 3584 2933 3390 
Q 3200 3197 3328 2828 
z
" transform="scale(0.015625)"/>
        <path id="DejaVuSans-74" d="M 1172 4494 
L 1172 3500 
L 2356 3500 
L 2356 3053 
L 1172 3053 
L 1172 1153 
Q 1172 725 1289 603 
Q 1406 481 1766 481 
L 2356 481 
L 2356 0 
L 1766 0 
Q 1100 0 847 248 
Q 594 497 594 1153 
L 594 3053 
L 172 3053 
L 172 3500 
L 594 3500 
L 594 4494 
L 1172 4494 
z
" transform="scale(0.015625)"/>
        <path id="DejaVuSans-69" d="M 603 3500 
L 1178 3500 
L 1178 0 
L 603 0 
L 603 3500 
z
M 603 4863 
L 1178 4863 
L 1178 4134 
L 603 4134 
L 603 4863 
z
" transform="scale(0.015625)"/>
        <path id="DejaVuSans-63" d="M 3122 3366 
L 3122 2828 
Q 2878 2963 2633 3030 
Q 2388 3097 2138 3097 
Q 1578 3097 1268 2742 
Q 959 2388 959 1747 
Q 959 1106 1268 751 
Q 1578 397 2138 397 
Q 2388 397 2633 464 
Q 2878 531 3122 666 
L 3122 134 
Q 2881 22 2623 -34 
Q 2366 -91 2075 -91 
Q 1284 -91 818 406 
Q 353 903 353 1747 
Q 353 2603 823 3093 
Q 1294 3584 2113 3584 
Q 2378 3584 2631 3529 
Q 2884 3475 3122 3366 
z
" transform="scale(0.015625)"/>
       </defs>
       <use xlink:href="#DejaVuSans-73"/>
       <use xlink:href="#DejaVuSans-65" transform="translate(52.099609 0)"/>
       <use xlink:href="#DejaVuSans-6e" transform="translate(113.623047 0)"/>
       <use xlink:href="#DejaVuSans-73" transform="translate(177.001953 0)"/>
       <use xlink:href="#DejaVuSans-6f" transform="translate(229.101562 0)"/>
       <use xlink:href="#DejaVuSans-72" transform="translate(290.283203 0)"/>
       <use xlink:href="#DejaVuSans-79" transform="translate(331.396484 0)"/>
       <use xlink:href="#DejaVuSans-2d" transform="translate(388.826172 0)"/>
       <use xlink:href="#DejaVuSans-73" transform="translate(424.910156 0)"/>
       <use xlink:href="#DejaVuSans-65" transform="translate(477.009766 0)"/>
       <use xlink:href="#DejaVuSans-6d" transform="translate(538.533203 0)"/>
       <use xlink:href="#DejaVuSans-61" transform="translate(635.945312 0)"/>
       <use xlink:href="#DejaVuSans-6e" transform="translate(697.224609 0)"/>
       <use xlink:href="#DejaVuSans-74" transform="translate(760.603516 0)"/>
       <use xlink:href="#DejaVuSans-69" transform="translate(799.8125 0)"/>
       <use xlink:href="#DejaVuSans-63" transform="translate(827.595703 0)"/>
      </g>
      <!-- replayed -->
      <g transform="translate(149.931212 218.027811) rotate(-30) scale(0.18 -0.18)">
       <use xlink:href="#DejaVuSans-72"/>
       <use xlink:href="#DejaVuSans-65" transform="translate(38.863281 0)"/>
       <use xlink:href="#DejaVuSans-70" transform="translate(100.386719 0)"/>
       <use xlink:href="#DejaVuSans-6c" transform="translate(163.863281 0)"/>
       <use xlink:href="#DejaVuSans-61" transform="translate(191.646484 0)"/>
       <use xlink:href="#DejaVuSans-79" transform="translate(252.925781 0)"/>
       <use xlink:href="#DejaVuSans-65" transform="translate(312.105469 0)"/>
       <use xlink:href="#DejaVuSans-64" transform="translate(373.628906 0)"/>
      </g>
     </g>
    </g>
   </g>
   <g id="matplotlib.axis_2">
    <g id="ytick_1">
     <g id="line2d_3">
      <defs>
       <path id="mfdb28a7986" d="M 0 0 
L -3.5 0 
" style="stroke: #000000; stroke-width: 0.8"/>
      </defs>
      <g>
       <use xlink:href="#mfdb28a7986" x="70.58" y="122.340717" style="stroke: #000000; stroke-width: 0.8"/>
      </g>
     </g>
     <g id="text_3">
      <!-- 0.0 -->
      <g transform="translate(34.954375 129.17931) scale(0.18 -0.18)">
       <defs>
        <path id="DejaVuSans-30" d="M 2034 4250 
Q 1547 4250 1301 3770 
Q 1056 3291 1056 2328 
Q 1056 1369 1301 889 
Q 1547 409 2034 409 
Q 2525 409 2770 889 
Q 3016 1369 3016 2328 
Q 3016 3291 2770 3770 
Q 2525 4250 2034 4250 
z
M 2034 4750 
Q 2819 4750 3233 4129 
Q 3647 3509 3647 2328 
Q 3647 1150 3233 529 
Q 2819 -91 2034 -91 
Q 1250 -91 836 529 
Q 422 1150 422 2328 
Q 422 3509 836 4129 
Q 1250 4750 2034 4750 
z
" transform="scale(0.015625)"/>
        <path id="DejaVuSans-2e" d="M 684 794 
L 1344 794 
L 1344 0 
L 684 0 
L 684 794 
z
" transform="scale(0.015625)"/>
       </defs>
       <use xlink:href="#DejaVuSans-30"/>
       <use xlink:href="#DejaVuSans-2e" transform="translate(63.623047 0)"/>
       <use xlink:href="#DejaVuSans-30" transform="translate(95.410156 0)"/>
      </g>
     </g>
    </g>
    <g id="ytick_2">
     <g id="line2d_4">
      <g>
       <use xlink:href="#mfdb28a7986" x="70.58" y="78.734505" style="stroke: #000000; stroke-width: 0.8"/>
      </g>
     </g>
     <g id="text_4">
      <!-- 0.5 -->
      <g transform="translate(34.954375 85.573099) scale(0.18 -0.18)">
       <defs>
        <path id="DejaVuSans-35" d="M 691 4666 
L 3169 4666 
L 3169 4134 
L 1269 4134 
L 1269 2991 
Q 1406 3038 1543 3061 
Q 1681 3084 1819 3084 
Q 2600 3084 3056 2656 
Q 3513 2228 3513 1497 
Q 3513 744 3044 326 
Q 2575 -91 1722 -91 
Q 1428 -91 1123 -41 
Q 819 9 494 109 
L 494 744 
Q 775 591 1075 516 
Q 1375 441 1709 441 
Q 2250 441 2565 725 
Q 2881 1009 2881 1497 
Q 2881 1984 2565 2268 
Q 2250 2553 1709 2553 
Q 1456 2553 1204 2497 
Q 953 2441 691 2322 
L 691 4666 
z
" transform="scale(0.015625)"/>
       </defs>
       <use xlink:href="#DejaVuSans-30"/>
       <use xlink:href="#DejaVuSans-2e" transform="translate(63.623047 0)"/>
       <use xlink:href="#DejaVuSans-35" transform="translate(95.410156 0)"/>
      </g>
     </g>
    </g>
    <g id="ytick_3">
     <g id="line2d_5">
      <g>
       <use xlink:href="#mfdb28a7986" x="70.58" y="35.128294" style="stroke: #000000; stroke-width: 0.8"/>
      </g>
     </g>
     <g id="text_5">
      <!-- 1.0 -->
      <g transform="translate(34.954375 41.966887) scale(0.18 -0.18)">
       <defs>
        <path id="DejaVuSans-31" d="M 794 531 
L 1825 531 
L 1825 4091 
L 703 3866 
L 703 4441 
L 1819 4666 
L 2450 4666 
L 2450 531 
L 3481 531 
L 3481 0 
L 794 0 
L 794 531 
z
" transform="scale(0.015625)"/>
       </defs>
       <use xlink:href="#DejaVuSans-31"/>
       <use xlink:href="#DejaVuSans-2e" transform="translate(63.623047 0)"/>
       <use xlink:href="#DejaVuSans-30" transform="translate(95.410156 0)"/>
      </g>
     </g>
    </g>
    <g id="text_6">
     <!-- Accruacy -->
     <g transform="translate(26.795 117.516927) rotate(-90) scale(0.2 -0.2)">
      <defs>
       <path id="DejaVuSans-41" d="M 2188 4044 
L 1331 1722 
L 3047 1722 
L 2188 4044 
z
M 1831 4666 
L 2547 4666 
L 4325 0 
L 3669 0 
L 3244 1197 
L 1141 1197 
L 716 0 
L 50 0 
L 1831 4666 
z
" transform="scale(0.015625)"/>
       <path id="DejaVuSans-75" d="M 544 1381 
L 544 3500 
L 1119 3500 
L 1119 1403 
Q 1119 906 1312 657 
Q 1506 409 1894 409 
Q 2359 409 2629 706 
Q 2900 1003 2900 1516 
L 2900 3500 
L 3475 3500 
L 3475 0 
L 2900 0 
L 2900 538 
Q 2691 219 2414 64 
Q 2138 -91 1772 -91 
Q 1169 -91 856 284 
Q 544 659 544 1381 
z
M 1991 3584 
L 1991 3584 
z
" transform="scale(0.015625)"/>
      </defs>
      <use xlink:href="#DejaVuSans-41"/>
      <use xlink:href="#DejaVuSans-63" transform="translate(66.658203 0)"/>
      <use xlink:href="#DejaVuSans-63" transform="translate(121.638672 0)"/>
      <use xlink:href="#DejaVuSans-72" transform="translate(176.619141 0)"/>
      <use xlink:href="#DejaVuSans-75" transform="translate(217.732422 0)"/>
      <use xlink:href="#DejaVuSans-61" transform="translate(281.111328 0)"/>
      <use xlink:href="#DejaVuSans-63" transform="translate(342.390625 0)"/>
      <use xlink:href="#DejaVuSans-79" transform="translate(397.371094 0)"/>
     </g>
    </g>
   </g>
   <g id="line2d_6">
    <path d="M 105.406338 33.833364 
L 105.406338 23.367873 
L 176.480499 23.367873 
L 176.480499 33.833364 
" style="fill: none; stroke: #000000; stroke-width: 2; stroke-linecap: square"/>
   </g>
   <g id="patch_3">
    <path d="M 70.58 122.340717 
L 70.58 21.380638 
" style="fill: none; stroke: #000000; stroke-width: 0.8; stroke-linejoin: miter; stroke-linecap: square"/>
   </g>
   <g id="patch_4">
    <path d="M 70.58 122.340717 
L 211.306837 122.340717 
" style="fill: none; stroke: #000000; stroke-width: 0.8; stroke-linejoin: miter; stroke-linecap: square"/>
   </g>
   <g id="PathCollection_1">
    <defs>
     <path id="m6c30779140" d="M 0 1.5 
C 0.397805 1.5 0.77937 1.341951 1.06066 1.06066 
C 1.341951 0.77937 1.5 0.397805 1.5 0 
C 1.5 -0.397805 1.341951 -0.77937 1.06066 -1.06066 
C 0.77937 -1.341951 0.397805 -1.5 0 -1.5 
C -0.397805 -1.5 -0.77937 -1.341951 -1.06066 -1.06066 
C -1.341951 -0.77937 -1.5 -0.397805 -1.5 0 
C -1.5 0.397805 -1.341951 0.77937 -1.06066 1.06066 
C -0.77937 1.341951 -0.397805 1.5 0 1.5 
z
"/>
    </defs>
    <g clip-path="url(#p16280dd534)">
     <use xlink:href="#m6c30779140" x="106.79409" y="42.018075" style="fill-opacity: 0.05"/>
     <use xlink:href="#m6c30779140" x="111.5241" y="42.432335" style="fill-opacity: 0.05"/>
     <use xlink:href="#m6c30779140" x="108.327867" y="40.001288" style="fill-opacity: 0.05"/>
     <use xlink:href="#m6c30779140" x="106.682352" y="43.380769" style="fill-opacity: 0.05"/>
     <use xlink:href="#m6c30779140" x="103.23587" y="43.795029" style="fill-opacity: 0.05"/>
     <use xlink:href="#m6c30779140" x="109.554059" y="55.394283" style="fill-opacity: 0.05"/>
     <use xlink:href="#m6c30779140" x="103.631964" y="62.752828" style="fill-opacity: 0.05"/>
     <use xlink:href="#m6c30779140" x="116.544313" y="44.481824" style="fill-opacity: 0.05"/>
     <use xlink:href="#m6c30779140" x="118.588115" y="37.439422" style="fill-opacity: 0.05"/>
     <use xlink:href="#m6c30779140" x="102.09262" y="39.990387" style="fill-opacity: 0.05"/>
     <use xlink:href="#m6c30779140" x="113.699983" y="39.085556" style="fill-opacity: 0.05"/>
     <use xlink:href="#m6c30779140" x="106.227811" y="45.037804" style="fill-opacity: 0.05"/>
     <use xlink:href="#m6c30779140" x="107.340822" y="43.228148" style="fill-opacity: 0.05"/>
     <use xlink:href="#m6c30779140" x="117.505908" y="41.047839" style="fill-opacity: 0.05"/>
     <use xlink:href="#m6c30779140" x="93.211038" y="38.922034" style="fill-opacity: 0.05"/>
     <use xlink:href="#m6c30779140" x="93.668563" y="40.971523" style="fill-opacity: 0.05"/>
     <use xlink:href="#m6c30779140" x="91.766309" y="47.283522" style="fill-opacity: 0.05"/>
     <use xlink:href="#m6c30779140" x="114.862609" y="40.64448" style="fill-opacity: 0.05"/>
     <use xlink:href="#m6c30779140" x="113.314241" y="42.977409" style="fill-opacity: 0.05"/>
     <use xlink:href="#m6c30779140" x="115.92566" y="47.468851" style="fill-opacity: 0.05"/>
     <use xlink:href="#m6c30779140" x="119.013297" y="39.565226" style="fill-opacity: 0.05"/>
     <use xlink:href="#m6c30779140" x="113.911316" y="38.867525" style="fill-opacity: 0.05"/>
     <use xlink:href="#m6c30779140" x="104.31121" y="42.617658" style="fill-opacity: 0.05"/>
     <use xlink:href="#m6c30779140" x="113.381689" y="40.121207" style="fill-opacity: 0.05"/>
     <use xlink:href="#m6c30779140" x="94.554009" y="41.396684" style="fill-opacity: 0.05"/>
     <use xlink:href="#m6c30779140" x="109.384246" y="40.023089" style="fill-opacity: 0.05"/>
     <use xlink:href="#m6c30779140" x="95.266992" y="61.379233" style="fill-opacity: 0.05"/>
     <use xlink:href="#m6c30779140" x="118.048126" y="42.617658" style="fill-opacity: 0.05"/>
     <use xlink:href="#m6c30779140" x="106.027479" y="45.310344" style="fill-opacity: 0.05"/>
     <use xlink:href="#m6c30779140" x="102.980206" y="42.595857" style="fill-opacity: 0.05"/>
     <use xlink:href="#m6c30779140" x="98.712734" y="41.40759" style="fill-opacity: 0.05"/>
     <use xlink:href="#m6c30779140" x="113.20271" y="44.176582" style="fill-opacity: 0.05"/>
     <use xlink:href="#m6c30779140" x="104.159707" y="43.282657" style="fill-opacity: 0.05"/>
     <use xlink:href="#m6c30779140" x="107.351893" y="42.137993" style="fill-opacity: 0.05"/>
     <use xlink:href="#m6c30779140" x="91.725694" y="41.582013" style="fill-opacity: 0.05"/>
     <use xlink:href="#m6c30779140" x="108.750676" y="40.557268" style="fill-opacity: 0.05"/>
     <use xlink:href="#m6c30779140" x="108.593182" y="37.83188" style="fill-opacity: 0.05"/>
     <use xlink:href="#m6c30779140" x="108.730733" y="41.974466" style="fill-opacity: 0.05"/>
     <use xlink:href="#m6c30779140" x="118.021947" y="40.666281" style="fill-opacity: 0.05"/>
     <use xlink:href="#m6c30779140" x="110.575428" y="37.701061" style="fill-opacity: 0.05"/>
     <use xlink:href="#m6c30779140" x="101.412195" y="46.476809" style="fill-opacity: 0.05"/>
     <use xlink:href="#m6c30779140" x="103.616178" y="40.57907" style="fill-opacity: 0.05"/>
     <use xlink:href="#m6c30779140" x="111.024927" y="40.633579" style="fill-opacity: 0.05"/>
     <use xlink:href="#m6c30779140" x="92.903696" y="40.23022" style="fill-opacity: 0.05"/>
     <use xlink:href="#m6c30779140" x="110.14746" y="45.037804" style="fill-opacity: 0.05"/>
     <use xlink:href="#m6c30779140" x="110.257516" y="42.857496" style="fill-opacity: 0.05"/>
     <use xlink:href="#m6c30779140" x="97.172612" y="41.004231" style="fill-opacity: 0.05"/>
     <use xlink:href="#m6c30779140" x="94.856838" y="38.071713" style="fill-opacity: 0.05"/>
     <use xlink:href="#m6c30779140" x="100.159028" y="44.928791" style="fill-opacity: 0.05"/>
     <use xlink:href="#m6c30779140" x="101.531681" y="44.449121" style="fill-opacity: 0.05"/>
     <use xlink:href="#m6c30779140" x="107.402009" y="39.554325" style="fill-opacity: 0.05"/>
     <use xlink:href="#m6c30779140" x="103.6608" y="42.127093" style="fill-opacity: 0.05"/>
     <use xlink:href="#m6c30779140" x="119.290643" y="47.839503" style="fill-opacity: 0.05"/>
     <use xlink:href="#m6c30779140" x="94.092606" y="43.642408" style="fill-opacity: 0.05"/>
     <use xlink:href="#m6c30779140" x="97.129802" y="44.07847" style="fill-opacity: 0.05"/>
     <use xlink:href="#m6c30779140" x="95.777482" y="63.112579" style="fill-opacity: 0.05"/>
     <use xlink:href="#m6c30779140" x="109.759157" y="43.217247" style="fill-opacity: 0.05"/>
     <use xlink:href="#m6c30779140" x="98.392502" y="44.22019" style="fill-opacity: 0.05"/>
     <use xlink:href="#m6c30779140" x="104.448565" y="49.681867" style="fill-opacity: 0.05"/>
     <use xlink:href="#m6c30779140" x="98.140444" y="53.246676" style="fill-opacity: 0.05"/>
     <use xlink:href="#m6c30779140" x="95.710958" y="48.766135" style="fill-opacity: 0.05"/>
     <use xlink:href="#m6c30779140" x="94.329435" y="50.27055" style="fill-opacity: 0.05"/>
     <use xlink:href="#m6c30779140" x="109.850736" y="45.561077" style="fill-opacity: 0.05"/>
     <use xlink:href="#m6c30779140" x="95.120001" y="40.818902" style="fill-opacity: 0.05"/>
     <use xlink:href="#m6c30779140" x="96.780277" y="39.183674" style="fill-opacity: 0.05"/>
     <use xlink:href="#m6c30779140" x="101.674239" y="44.863382" style="fill-opacity: 0.05"/>
     <use xlink:href="#m6c30779140" x="114.532068" y="52.494467" style="fill-opacity: 0.05"/>
     <use xlink:href="#m6c30779140" x="93.952063" y="42.530447" style="fill-opacity: 0.05"/>
     <use xlink:href="#m6c30779140" x="115.013999" y="38.355153" style="fill-opacity: 0.05"/>
     <use xlink:href="#m6c30779140" x="93.923552" y="41.004231" style="fill-opacity: 0.05"/>
     <use xlink:href="#m6c30779140" x="118.951921" y="41.20046" style="fill-opacity: 0.05"/>
     <use xlink:href="#m6c30779140" x="104.515103" y="39.739649" style="fill-opacity: 0.05"/>
     <use xlink:href="#m6c30779140" x="118.960496" y="42.137993" style="fill-opacity: 0.05"/>
     <use xlink:href="#m6c30779140" x="108.387061" y="37.384913" style="fill-opacity: 0.05"/>
     <use xlink:href="#m6c30779140" x="112.208522" y="37.395819" style="fill-opacity: 0.05"/>
     <use xlink:href="#m6c30779140" x="92.305602" y="40.24112" style="fill-opacity: 0.05"/>
     <use xlink:href="#m6c30779140" x="99.231613" y="47.66508" style="fill-opacity: 0.05"/>
     <use xlink:href="#m6c30779140" x="94.608654" y="40.0994" style="fill-opacity: 0.05"/>
     <use xlink:href="#m6c30779140" x="99.610673" y="54.347731" style="fill-opacity: 0.05"/>
     <use xlink:href="#m6c30779140" x="94.566896" y="46.051648" style="fill-opacity: 0.05"/>
     <use xlink:href="#m6c30779140" x="100.231661" y="45.081412" style="fill-opacity: 0.05"/>
     <use xlink:href="#m6c30779140" x="102.968864" y="41.560211" style="fill-opacity: 0.05"/>
     <use xlink:href="#m6c30779140" x="93.015198" y="57.738113" style="fill-opacity: 0.05"/>
     <use xlink:href="#m6c30779140" x="110.878256" y="40.317431" style="fill-opacity: 0.05"/>
     <use xlink:href="#m6c30779140" x="107.299795" y="42.519546" style="fill-opacity: 0.05"/>
     <use xlink:href="#m6c30779140" x="98.736441" y="42.465037" style="fill-opacity: 0.05"/>
     <use xlink:href="#m6c30779140" x="106.067273" y="53.726341" style="fill-opacity: 0.05"/>
     <use xlink:href="#m6c30779140" x="93.862204" y="42.530447" style="fill-opacity: 0.05"/>
     <use xlink:href="#m6c30779140" x="107.565472" y="43.031918" style="fill-opacity: 0.05"/>
     <use xlink:href="#m6c30779140" x="117.611085" y="48.951464" style="fill-opacity: 0.05"/>
     <use xlink:href="#m6c30779140" x="100.248315" y="43.271756" style="fill-opacity: 0.05"/>
     <use xlink:href="#m6c30779140" x="110.165759" y="47.065492" style="fill-opacity: 0.05"/>
     <use xlink:href="#m6c30779140" x="94.938475" y="39.924977" style="fill-opacity: 0.05"/>
     <use xlink:href="#m6c30779140" x="111.556448" y="39.140065" style="fill-opacity: 0.05"/>
     <use xlink:href="#m6c30779140" x="99.419224" y="48.777036" style="fill-opacity: 0.05"/>
     <use xlink:href="#m6c30779140" x="96.399575" y="42.857496" style="fill-opacity: 0.05"/>
     <use xlink:href="#m6c30779140" x="107.865872" y="39.216376" style="fill-opacity: 0.05"/>
     <use xlink:href="#m6c30779140" x="91.763157" y="42.072584" style="fill-opacity: 0.05"/>
     <use xlink:href="#m6c30779140" x="114.757993" y="48.711626" style="fill-opacity: 0.05"/>
     <use xlink:href="#m6c30779140" x="91.324997" y="40.24112" style="fill-opacity: 0.05"/>
    </g>
   </g>
   <g id="PathCollection_2">
    <g clip-path="url(#p16280dd534)">
     <use xlink:href="#m6c30779140" x="181.535763" y="37.864583" style="fill-opacity: 0.05"/>
     <use xlink:href="#m6c30779140" x="169.941903" y="41.647423" style="fill-opacity: 0.05"/>
     <use xlink:href="#m6c30779140" x="183.166986" y="40.470052" style="fill-opacity: 0.05"/>
     <use xlink:href="#m6c30779140" x="189.620364" y="39.456208" style="fill-opacity: 0.05"/>
     <use xlink:href="#m6c30779140" x="169.337635" y="51.731356" style="fill-opacity: 0.05"/>
     <use xlink:href="#m6c30779140" x="178.645626" y="43.413476" style="fill-opacity: 0.05"/>
     <use xlink:href="#m6c30779140" x="179.09722" y="61.608164" style="fill-opacity: 0.05"/>
     <use xlink:href="#m6c30779140" x="178.534596" y="44.743463" style="fill-opacity: 0.05"/>
     <use xlink:href="#m6c30779140" x="168.607802" y="38.747607" style="fill-opacity: 0.05"/>
     <use xlink:href="#m6c30779140" x="189.352001" y="36.763527" style="fill-opacity: 0.05"/>
     <use xlink:href="#m6c30779140" x="174.977291" y="37.243192" style="fill-opacity: 0.05"/>
     <use xlink:href="#m6c30779140" x="186.328781" y="38.965643" style="fill-opacity: 0.05"/>
     <use xlink:href="#m6c30779140" x="182.151627" y="39.063755" style="fill-opacity: 0.05"/>
     <use xlink:href="#m6c30779140" x="170.721699" y="38.180731" style="fill-opacity: 0.05"/>
     <use xlink:href="#m6c30779140" x="185.401665" y="35.542554" style="fill-opacity: 0.05"/>
     <use xlink:href="#m6c30779140" x="173.538192" y="43.075527" style="fill-opacity: 0.05"/>
     <use xlink:href="#m6c30779140" x="187.315134" y="51.807672" style="fill-opacity: 0.05"/>
     <use xlink:href="#m6c30779140" x="178.791059" y="38.224334" style="fill-opacity: 0.05"/>
     <use xlink:href="#m6c30779140" x="187.333107" y="37.439422" style="fill-opacity: 0.05"/>
     <use xlink:href="#m6c30779140" x="181.954107" y="41.625621" style="fill-opacity: 0.05"/>
     <use xlink:href="#m6c30779140" x="182.884402" y="37.810073" style="fill-opacity: 0.05"/>
     <use xlink:href="#m6c30779140" x="176.51815" y="39.521618" style="fill-opacity: 0.05"/>
     <use xlink:href="#m6c30779140" x="189.446803" y="41.069641" style="fill-opacity: 0.05"/>
     <use xlink:href="#m6c30779140" x="180.574092" y="41.320374" style="fill-opacity: 0.05"/>
     <use xlink:href="#m6c30779140" x="174.315723" y="37.635651" style="fill-opacity: 0.05"/>
     <use xlink:href="#m6c30779140" x="179.505222" y="40.731691" style="fill-opacity: 0.05"/>
     <use xlink:href="#m6c30779140" x="162.811323" y="39.772356" style="fill-opacity: 0.05"/>
     <use xlink:href="#m6c30779140" x="170.839337" y="43.031918" style="fill-opacity: 0.05"/>
     <use xlink:href="#m6c30779140" x="181.034178" y="37.83188" style="fill-opacity: 0.05"/>
     <use xlink:href="#m6c30779140" x="170.512475" y="43.511588" style="fill-opacity: 0.05"/>
     <use xlink:href="#m6c30779140" x="179.835638" y="38.235234" style="fill-opacity: 0.05"/>
     <use xlink:href="#m6c30779140" x="174.455417" y="48.766135" style="fill-opacity: 0.05"/>
     <use xlink:href="#m6c30779140" x="166.117149" y="38.802116" style="fill-opacity: 0.05"/>
     <use xlink:href="#m6c30779140" x="170.745733" y="40.622678" style="fill-opacity: 0.05"/>
     <use xlink:href="#m6c30779140" x="178.469577" y="43.435278" style="fill-opacity: 0.05"/>
     <use xlink:href="#m6c30779140" x="179.063981" y="37.48303" style="fill-opacity: 0.05"/>
     <use xlink:href="#m6c30779140" x="178.59354" y="37.581142" style="fill-opacity: 0.05"/>
     <use xlink:href="#m6c30779140" x="180.835946" y="45.724604" style="fill-opacity: 0.05"/>
     <use xlink:href="#m6c30779140" x="180.804743" y="37.646552" style="fill-opacity: 0.05"/>
     <use xlink:href="#m6c30779140" x="174.530748" y="39.194574" style="fill-opacity: 0.05"/>
     <use xlink:href="#m6c30779140" x="187.754185" y="45.484767" style="fill-opacity: 0.05"/>
     <use xlink:href="#m6c30779140" x="172.715327" y="38.780314" style="fill-opacity: 0.05"/>
     <use xlink:href="#m6c30779140" x="174.65716" y="38.485973" style="fill-opacity: 0.05"/>
     <use xlink:href="#m6c30779140" x="187.622748" y="39.118264" style="fill-opacity: 0.05"/>
     <use xlink:href="#m6c30779140" x="185.185491" y="42.170696" style="fill-opacity: 0.05"/>
     <use xlink:href="#m6c30779140" x="182.276983" y="39.227277" style="fill-opacity: 0.05"/>
     <use xlink:href="#m6c30779140" x="165.115083" y="40.797101" style="fill-opacity: 0.05"/>
     <use xlink:href="#m6c30779140" x="188.406248" y="37.35221" style="fill-opacity: 0.05"/>
     <use xlink:href="#m6c30779140" x="182.571307" y="42.639465" style="fill-opacity: 0.05"/>
     <use xlink:href="#m6c30779140" x="190.662551" y="42.802987" style="fill-opacity: 0.05"/>
     <use xlink:href="#m6c30779140" x="166.514432" y="40.470052" style="fill-opacity: 0.05"/>
     <use xlink:href="#m6c30779140" x="186.946199" y="38.998345" style="fill-opacity: 0.05"/>
     <use xlink:href="#m6c30779140" x="166.885286" y="40.873411" style="fill-opacity: 0.05"/>
     <use xlink:href="#m6c30779140" x="179.765818" y="38.573184" style="fill-opacity: 0.05"/>
     <use xlink:href="#m6c30779140" x="165.785827" y="40.742592" style="fill-opacity: 0.05"/>
     <use xlink:href="#m6c30779140" x="186.374256" y="43.162738" style="fill-opacity: 0.05"/>
     <use xlink:href="#m6c30779140" x="185.217473" y="37.657452" style="fill-opacity: 0.05"/>
     <use xlink:href="#m6c30779140" x="178.445009" y="42.552254" style="fill-opacity: 0.05"/>
     <use xlink:href="#m6c30779140" x="173.841751" y="62.861846" style="fill-opacity: 0.05"/>
     <use xlink:href="#m6c30779140" x="164.232061" y="49.779979" style="fill-opacity: 0.05"/>
     <use xlink:href="#m6c30779140" x="182.093332" y="40.677182" style="fill-opacity: 0.05"/>
     <use xlink:href="#m6c30779140" x="175.159733" y="44.852481" style="fill-opacity: 0.05"/>
     <use xlink:href="#m6c30779140" x="182.793465" y="42.399627" style="fill-opacity: 0.05"/>
     <use xlink:href="#m6c30779140" x="186.896625" y="38.551383" style="fill-opacity: 0.05"/>
     <use xlink:href="#m6c30779140" x="189.999415" y="37.232291" style="fill-opacity: 0.05"/>
     <use xlink:href="#m6c30779140" x="186.595868" y="41.331275" style="fill-opacity: 0.05"/>
     <use xlink:href="#m6c30779140" x="162.598694" y="43.53339" style="fill-opacity: 0.05"/>
     <use xlink:href="#m6c30779140" x="172.499722" y="36.490988" style="fill-opacity: 0.05"/>
     <use xlink:href="#m6c30779140" x="183.019053" y="41.723733" style="fill-opacity: 0.05"/>
     <use xlink:href="#m6c30779140" x="167.145041" y="40.938821" style="fill-opacity: 0.05"/>
     <use xlink:href="#m6c30779140" x="177.078562" y="38.540482" style="fill-opacity: 0.05"/>
     <use xlink:href="#m6c30779140" x="163.810477" y="39.979486" style="fill-opacity: 0.05"/>
     <use xlink:href="#m6c30779140" x="167.951501" y="38.202532" style="fill-opacity: 0.05"/>
     <use xlink:href="#m6c30779140" x="162.792235" y="37.264999" style="fill-opacity: 0.05"/>
     <use xlink:href="#m6c30779140" x="184.830226" y="35.880498" style="fill-opacity: 0.05"/>
     <use xlink:href="#m6c30779140" x="168.63177" y="41.189559" style="fill-opacity: 0.05"/>
     <use xlink:href="#m6c30779140" x="172.083899" y="44.252892" style="fill-opacity: 0.05"/>
     <use xlink:href="#m6c30779140" x="188.650706" y="38.747607" style="fill-opacity: 0.05"/>
     <use xlink:href="#m6c30779140" x="182.291931" y="53.660931" style="fill-opacity: 0.05"/>
     <use xlink:href="#m6c30779140" x="163.170837" y="41.178653" style="fill-opacity: 0.05"/>
     <use xlink:href="#m6c30779140" x="166.947866" y="43.904042" style="fill-opacity: 0.05"/>
     <use xlink:href="#m6c30779140" x="179.934089" y="37.177788" style="fill-opacity: 0.05"/>
     <use xlink:href="#m6c30779140" x="178.676081" y="45.670095" style="fill-opacity: 0.05"/>
     <use xlink:href="#m6c30779140" x="169.02888" y="36.403776" style="fill-opacity: 0.05"/>
     <use xlink:href="#m6c30779140" x="188.825057" y="42.170696" style="fill-opacity: 0.05"/>
     <use xlink:href="#m6c30779140" x="179.720512" y="39.815959" style="fill-opacity: 0.05"/>
     <use xlink:href="#m6c30779140" x="177.493527" y="49.136787" style="fill-opacity: 0.05"/>
     <use xlink:href="#m6c30779140" x="179.036609" y="38.202532" style="fill-opacity: 0.05"/>
     <use xlink:href="#m6c30779140" x="183.022791" y="40.066698" style="fill-opacity: 0.05"/>
     <use xlink:href="#m6c30779140" x="171.134158" y="45.190425" style="fill-opacity: 0.05"/>
     <use xlink:href="#m6c30779140" x="173.586958" y="42.508645" style="fill-opacity: 0.05"/>
     <use xlink:href="#m6c30779140" x="168.231454" y="44.678053" style="fill-opacity: 0.05"/>
     <use xlink:href="#m6c30779140" x="167.559071" y="37.450322" style="fill-opacity: 0.05"/>
     <use xlink:href="#m6c30779140" x="189.113856" y="36.905248" style="fill-opacity: 0.05"/>
     <use xlink:href="#m6c30779140" x="183.290847" y="41.189559" style="fill-opacity: 0.05"/>
     <use xlink:href="#m6c30779140" x="176.209246" y="41.603814" style="fill-opacity: 0.05"/>
     <use xlink:href="#m6c30779140" x="168.730988" y="38.736706" style="fill-opacity: 0.05"/>
     <use xlink:href="#m6c30779140" x="169.496936" y="36.87254" style="fill-opacity: 0.05"/>
     <use xlink:href="#m6c30779140" x="163.915416" y="46.934677" style="fill-opacity: 0.05"/>
     <use xlink:href="#m6c30779140" x="174.615985" y="36.981558" style="fill-opacity: 0.05"/>
    </g>
   </g>
   <g id="text_7">
    <!-- *** -->
    <g transform="translate(128.943419 20.040373) scale(0.16 -0.16)">
     <defs>
      <path id="DejaVuSans-2a" d="M 3009 3897 
L 1888 3291 
L 3009 2681 
L 2828 2375 
L 1778 3009 
L 1778 1831 
L 1422 1831 
L 1422 3009 
L 372 2375 
L 191 2681 
L 1313 3291 
L 191 3897 
L 372 4206 
L 1422 3572 
L 1422 4750 
L 1778 4750 
L 1778 3572 
L 2828 4206 
L 3009 3897 
z
" transform="scale(0.015625)"/>
     </defs>
     <use xlink:href="#DejaVuSans-2a"/>
     <use xlink:href="#DejaVuSans-2a" transform="translate(50 0)"/>
     <use xlink:href="#DejaVuSans-2a" transform="translate(100 0)"/>
    </g>
   </g>
   <g id="LineCollection_1">
    <path d="M 105.406338 44.311617 
L 105.406338 43.257721 
" clip-path="url(#p16280dd534)" style="fill: none; stroke: #000000; stroke-width: 2"/>
    <path d="M 176.480499 41.751679 
L 176.480499 40.810356 
" clip-path="url(#p16280dd534)" style="fill: none; stroke: #000000; stroke-width: 2"/>
   </g>
   <g id="line2d_7">
    <defs>
     <path id="m69148c9fa4" d="M 5 0 
L -5 -0 
" style="stroke: #000000"/>
    </defs>
    <g clip-path="url(#p16280dd534)">
     <use xlink:href="#m69148c9fa4" x="105.406338" y="44.311617" style="stroke: #000000"/>
     <use xlink:href="#m69148c9fa4" x="176.480499" y="41.751679" style="stroke: #000000"/>
    </g>
   </g>
   <g id="line2d_8">
    <g clip-path="url(#p16280dd534)">
     <use xlink:href="#m69148c9fa4" x="105.406338" y="43.257721" style="stroke: #000000"/>
     <use xlink:href="#m69148c9fa4" x="176.480499" y="40.810356" style="stroke: #000000"/>
    </g>
   </g>
   <g id="line2d_9">
    <defs>
     <path id="m226d84342a" d="M 0 3 
C 0.795609 3 1.55874 2.683901 2.12132 2.12132 
C 2.683901 1.55874 3 0.795609 3 0 
C 3 -0.795609 2.683901 -1.55874 2.12132 -2.12132 
C 1.55874 -2.683901 0.795609 -3 0 -3 
C -0.795609 -3 -1.55874 -2.683901 -2.12132 -2.12132 
C -2.683901 -1.55874 -3 -0.795609 -3 0 
C -3 0.795609 -2.683901 1.55874 -2.12132 2.12132 
C -1.55874 2.683901 -0.795609 3 0 3 
z
" style="stroke: #000000"/>
    </defs>
    <g clip-path="url(#p16280dd534)">
     <use xlink:href="#m226d84342a" x="105.406338" y="43.784669" style="stroke: #000000"/>
     <use xlink:href="#m226d84342a" x="176.480499" y="41.281018" style="stroke: #000000"/>
    </g>
   </g>
  </g>
 </g>
 <defs>
  <clipPath id="p16280dd534">
   <rect x="70.58" y="21.380638" width="140.726837" height="100.960079"/>
  </clipPath>
 </defs>
</svg>
