<?xml version="1.0" encoding="utf-8" standalone="no"?>
<!DOCTYPE svg PUBLIC "-//W3C//DTD SVG 1.1//EN"
  "http://www.w3.org/Graphics/SVG/1.1/DTD/svg11.dtd">
<svg xmlns:xlink="http://www.w3.org/1999/xlink" width="252pt" height="252pt" viewBox="0 0 252 252" xmlns="http://www.w3.org/2000/svg" version="1.1">
 <metadata>
  <rdf:RDF xmlns:dc="http://purl.org/dc/elements/1.1/" xmlns:cc="http://creativecommons.org/ns#" xmlns:rdf="http://www.w3.org/1999/02/22-rdf-syntax-ns#">
   <cc:Work>
    <dc:type rdf:resource="http://purl.org/dc/dcmitype/StillImage"/>
    <dc:date>2025-10-17T19:10:05.141766</dc:date>
    <dc:format>image/svg+xml</dc:format>
    <dc:creator>
     <cc:Agent>
      <dc:title>Matplotlib v3.10.1, https://matplotlib.org/</dc:title>
     </cc:Agent>
    </dc:creator>
   </cc:Work>
  </rdf:RDF>
 </metadata>
 <defs>
  <style type="text/css">*{stroke-linejoin: round; stroke-linecap: butt}</style>
 </defs>
 <g id="figure_1">
  <g id="patch_1">
   <path d="M 0 252 
L 252 252 
L 252 0 
L 0 0 
L 0 252 
z
" style="fill: none"/>
  </g>
  <g id="axes_1">
   <g id="patch_2">
    <path d="M 93.908 172.075081 
L 241.2 172.075081 
L 241.2 22.155106 
L 93.908 22.155106 
L 93.908 172.075081 
z
" style="fill: none"/>
   </g>
   <g id="FillBetweenPolyCollection_1">
    <defs>
     <path id="m3dec3591cf" d="M 136.444541 -191.208631 
L 124.27356 -191.208631 
L 123.93299 -191.325549 
L 123.57869 -191.442467 
L 123.209418 -191.559385 
L 122.823852 -191.676303 
L 122.420617 -191.793221 
L 121.998315 -191.910139 
L 121.555563 -192.027057 
L 121.091033 -192.143976 
L 120.603494 -192.260894 
L 120.091851 -192.377812 
L 119.555194 -192.49473 
L 118.992835 -192.611648 
L 118.404356 -192.728566 
L 117.789643 -192.845484 
L 117.148924 -192.962402 
L 116.482802 -193.07932 
L 115.792282 -193.196238 
L 115.07879 -193.313156 
L 114.34419 -193.430075 
L 113.590793 -193.546993 
L 112.821353 -193.663911 
L 112.039064 -193.780829 
L 111.247538 -193.897747 
L 110.450782 -194.014665 
L 109.653164 -194.131583 
L 108.859365 -194.248501 
L 108.07433 -194.365419 
L 107.303205 -194.482337 
L 106.551268 -194.599256 
L 105.823851 -194.716174 
L 105.126263 -194.833092 
L 104.463698 -194.95001 
L 103.841153 -195.066928 
L 103.263331 -195.183846 
L 102.734556 -195.300764 
L 102.258691 -195.417682 
L 101.83905 -195.5346 
L 101.478334 -195.651518 
L 101.178563 -195.768436 
L 100.941026 -195.885355 
L 100.766246 -196.002273 
L 100.653956 -196.119191 
L 100.603091 -196.236109 
L 100.611802 -196.353027 
L 100.67748 -196.469945 
L 100.796803 -196.586863 
L 100.965792 -196.703781 
L 101.179891 -196.820699 
L 101.434054 -196.937617 
L 101.722841 -197.054536 
L 102.040531 -197.171454 
L 102.381236 -197.288372 
L 102.739016 -197.40529 
L 103.108002 -197.522208 
L 103.48251 -197.639126 
L 103.857153 -197.756044 
L 104.226943 -197.872962 
L 104.587387 -197.98988 
L 104.934566 -198.106798 
L 105.265203 -198.223716 
L 105.576713 -198.340635 
L 105.86724 -198.457553 
L 106.135677 -198.574471 
L 106.381661 -198.691389 
L 106.605569 -198.808307 
L 106.808478 -198.925225 
L 106.992126 -199.042143 
L 107.158852 -199.159061 
L 107.311524 -199.275979 
L 107.453466 -199.392897 
L 107.588365 -199.509816 
L 107.720179 -199.626734 
L 107.853046 -199.743652 
L 107.991178 -199.86057 
L 108.138776 -199.977488 
L 108.299925 -200.094406 
L 108.478515 -200.211324 
L 108.678156 -200.328242 
L 108.902101 -200.44516 
L 109.15319 -200.562078 
L 109.433791 -200.678996 
L 109.745763 -200.795915 
L 110.090424 -200.912833 
L 110.468536 -201.029751 
L 110.8803 -201.146669 
L 111.325365 -201.263587 
L 111.802844 -201.380505 
L 112.311345 -201.497423 
L 112.84901 -201.614341 
L 113.413557 -201.731259 
L 114.002339 -201.848177 
L 114.612394 -201.965095 
L 115.240514 -202.082014 
L 115.8833 -202.198932 
L 116.537226 -202.31585 
L 117.198705 -202.432768 
L 117.864142 -202.549686 
L 118.529993 -202.666604 
L 119.192811 -202.783522 
L 141.52529 -202.783522 
L 141.52529 -202.783522 
L 142.188108 -202.666604 
L 142.853959 -202.549686 
L 143.519396 -202.432768 
L 144.180875 -202.31585 
L 144.834801 -202.198932 
L 145.477587 -202.082014 
L 146.105707 -201.965095 
L 146.715762 -201.848177 
L 147.304544 -201.731259 
L 147.869091 -201.614341 
L 148.406756 -201.497423 
L 148.915257 -201.380505 
L 149.392736 -201.263587 
L 149.837801 -201.146669 
L 150.249565 -201.029751 
L 150.627677 -200.912833 
L 150.972338 -200.795915 
L 151.28431 -200.678996 
L 151.564912 -200.562078 
L 151.816 -200.44516 
L 152.039945 -200.328242 
L 152.239586 -200.211324 
L 152.418176 -200.094406 
L 152.579325 -199.977488 
L 152.726923 -199.86057 
L 152.865056 -199.743652 
L 152.997922 -199.626734 
L 153.129736 -199.509816 
L 153.264635 -199.392897 
L 153.406577 -199.275979 
L 153.559249 -199.159061 
L 153.725975 -199.042143 
L 153.909623 -198.925225 
L 154.112532 -198.808307 
L 154.33644 -198.691389 
L 154.582424 -198.574471 
L 154.850861 -198.457553 
L 155.141388 -198.340635 
L 155.452898 -198.223716 
L 155.783535 -198.106798 
L 156.130714 -197.98988 
L 156.491158 -197.872962 
L 156.860948 -197.756044 
L 157.235591 -197.639126 
L 157.610099 -197.522208 
L 157.979085 -197.40529 
L 158.336865 -197.288372 
L 158.67757 -197.171454 
L 158.99526 -197.054536 
L 159.284047 -196.937617 
L 159.53821 -196.820699 
L 159.752309 -196.703781 
L 159.921298 -196.586863 
L 160.040621 -196.469945 
L 160.106299 -196.353027 
L 160.11501 -196.236109 
L 160.064145 -196.119191 
L 159.951855 -196.002273 
L 159.777075 -195.885355 
L 159.539538 -195.768436 
L 159.239767 -195.651518 
L 158.879051 -195.5346 
L 158.45941 -195.417682 
L 157.983545 -195.300764 
L 157.45477 -195.183846 
L 156.876948 -195.066928 
L 156.254403 -194.95001 
L 155.591838 -194.833092 
L 154.89425 -194.716174 
L 154.166833 -194.599256 
L 153.414896 -194.482337 
L 152.643771 -194.365419 
L 151.858736 -194.248501 
L 151.064937 -194.131583 
L 150.267319 -194.014665 
L 149.470563 -193.897747 
L 148.679037 -193.780829 
L 147.896748 -193.663911 
L 147.127308 -193.546993 
L 146.373911 -193.430075 
L 145.639311 -193.313156 
L 144.925819 -193.196238 
L 144.235299 -193.07932 
L 143.569177 -192.962402 
L 142.928458 -192.845484 
L 142.313745 -192.728566 
L 141.725266 -192.611648 
L 141.162907 -192.49473 
L 140.62625 -192.377812 
L 140.114607 -192.260894 
L 139.627068 -192.143976 
L 139.162538 -192.027057 
L 138.719786 -191.910139 
L 138.297484 -191.793221 
L 137.894249 -191.676303 
L 137.508683 -191.559385 
L 137.139411 -191.442467 
L 136.785111 -191.325549 
L 136.444541 -191.208631 
z
" style="stroke: #484848; stroke-opacity: 0.9; stroke-width: 1.25"/>
    </defs>
    <g clip-path="url(#pb87cfdc4f2)">
     <use xlink:href="#m3dec3591cf" x="0" y="252" style="fill: #d86743; fill-opacity: 0.9; stroke: #484848; stroke-opacity: 0.9; stroke-width: 1.25"/>
    </g>
   </g>
   <g id="FillBetweenPolyCollection_2">
    <defs>
     <path id="m7a5dccc943" d="M 212.355467 -180.441166 
L 197.142432 -180.441166 
L 196.809199 -180.676285 
L 196.483118 -180.911404 
L 196.164326 -181.146523 
L 195.852522 -181.381642 
L 195.546939 -181.616761 
L 195.246335 -181.85188 
L 194.94899 -182.086999 
L 194.652725 -182.322118 
L 194.354932 -182.557237 
L 194.052621 -182.792356 
L 193.742479 -183.027475 
L 193.420951 -183.262594 
L 193.084326 -183.497713 
L 192.728836 -183.732832 
L 192.350767 -183.967951 
L 191.946574 -184.20307 
L 191.512999 -184.438189 
L 191.047189 -184.673308 
L 190.546808 -184.908427 
L 190.010149 -185.143546 
L 189.436226 -185.378665 
L 188.824857 -185.613784 
L 188.17673 -185.848902 
L 187.493446 -186.084021 
L 186.777546 -186.31914 
L 186.032507 -186.554259 
L 185.262717 -186.789378 
L 184.47343 -187.024497 
L 183.67069 -187.259616 
L 182.861237 -187.494735 
L 182.052388 -187.729854 
L 181.251909 -187.964973 
L 180.467863 -188.200092 
L 179.708454 -188.435211 
L 178.98186 -188.67033 
L 178.296069 -188.905449 
L 177.658717 -189.140568 
L 177.076927 -189.375687 
L 176.55717 -189.610806 
L 176.105133 -189.845925 
L 175.725609 -190.081044 
L 175.422411 -190.316163 
L 175.198304 -190.551282 
L 175.05497 -190.786401 
L 174.99299 -191.02152 
L 175.011859 -191.256638 
L 175.110022 -191.491757 
L 175.284931 -191.726876 
L 175.533127 -191.961995 
L 175.850335 -192.197114 
L 176.231576 -192.432233 
L 176.671287 -192.667352 
L 177.163451 -192.902471 
L 177.701727 -193.13759 
L 178.279583 -193.372709 
L 178.890421 -193.607828 
L 179.527699 -193.842947 
L 180.185042 -194.078066 
L 180.856339 -194.313185 
L 181.535834 -194.548304 
L 182.21819 -194.783423 
L 182.898556 -195.018542 
L 183.572597 -195.253661 
L 184.23653 -195.48878 
L 184.887132 -195.723899 
L 185.521737 -195.959018 
L 186.138231 -196.194137 
L 186.735021 -196.429255 
L 187.31101 -196.664374 
L 187.865553 -196.899493 
L 188.39842 -197.134612 
L 188.909746 -197.369731 
L 189.399982 -197.60485 
L 189.869848 -197.839969 
L 190.320285 -198.075088 
L 190.752409 -198.310207 
L 191.167471 -198.545326 
L 191.566812 -198.780445 
L 191.951834 -199.015564 
L 192.323965 -199.250683 
L 192.684632 -199.485802 
L 193.035242 -199.720921 
L 193.377156 -199.95604 
L 193.711679 -200.191159 
L 194.040043 -200.426278 
L 194.363397 -200.661397 
L 194.682797 -200.896516 
L 194.9992 -201.131635 
L 195.313456 -201.366754 
L 195.626301 -201.601873 
L 195.938355 -201.836991 
L 196.250118 -202.07211 
L 196.561962 -202.307229 
L 196.874131 -202.542348 
L 197.186741 -202.777467 
L 197.499776 -203.012586 
L 197.813094 -203.247705 
L 198.126423 -203.482824 
L 198.439374 -203.717943 
L 211.058525 -203.717943 
L 211.058525 -203.717943 
L 211.371476 -203.482824 
L 211.684805 -203.247705 
L 211.998123 -203.012586 
L 212.311158 -202.777467 
L 212.623768 -202.542348 
L 212.935937 -202.307229 
L 213.247781 -202.07211 
L 213.559544 -201.836991 
L 213.871598 -201.601873 
L 214.184443 -201.366754 
L 214.498699 -201.131635 
L 214.815102 -200.896516 
L 215.134502 -200.661397 
L 215.457856 -200.426278 
L 215.78622 -200.191159 
L 216.120743 -199.95604 
L 216.462657 -199.720921 
L 216.813267 -199.485802 
L 217.173934 -199.250683 
L 217.546065 -199.015564 
L 217.931087 -198.780445 
L 218.330428 -198.545326 
L 218.74549 -198.310207 
L 219.177614 -198.075088 
L 219.628051 -197.839969 
L 220.097917 -197.60485 
L 220.588153 -197.369731 
L 221.099479 -197.134612 
L 221.632346 -196.899493 
L 222.186889 -196.664374 
L 222.762878 -196.429255 
L 223.359668 -196.194137 
L 223.976162 -195.959018 
L 224.610767 -195.723899 
L 225.261369 -195.48878 
L 225.925302 -195.253661 
L 226.599343 -195.018542 
L 227.279709 -194.783423 
L 227.962065 -194.548304 
L 228.64156 -194.313185 
L 229.312857 -194.078066 
L 229.9702 -193.842947 
L 230.607478 -193.607828 
L 231.218316 -193.372709 
L 231.796172 -193.13759 
L 232.334448 -192.902471 
L 232.826612 -192.667352 
L 233.266323 -192.432233 
L 233.647564 -192.197114 
L 233.964772 -191.961995 
L 234.212968 -191.726876 
L 234.387877 -191.491757 
L 234.48604 -191.256638 
L 234.504909 -191.02152 
L 234.442929 -190.786401 
L 234.299595 -190.551282 
L 234.075488 -190.316163 
L 233.77229 -190.081044 
L 233.392766 -189.845925 
L 232.940729 -189.610806 
L 232.420972 -189.375687 
L 231.839182 -189.140568 
L 231.20183 -188.905449 
L 230.516039 -188.67033 
L 229.789445 -188.435211 
L 229.030036 -188.200092 
L 228.24599 -187.964973 
L 227.445511 -187.729854 
L 226.636662 -187.494735 
L 225.827209 -187.259616 
L 225.024469 -187.024497 
L 224.235182 -186.789378 
L 223.465392 -186.554259 
L 222.720353 -186.31914 
L 222.004453 -186.084021 
L 221.321169 -185.848902 
L 220.673042 -185.613784 
L 220.061673 -185.378665 
L 219.48775 -185.143546 
L 218.951091 -184.908427 
L 218.45071 -184.673308 
L 217.9849 -184.438189 
L 217.551325 -184.20307 
L 217.147132 -183.967951 
L 216.769063 -183.732832 
L 216.413573 -183.497713 
L 216.076948 -183.262594 
L 215.75542 -183.027475 
L 215.445278 -182.792356 
L 215.142967 -182.557237 
L 214.845174 -182.322118 
L 214.548909 -182.086999 
L 214.251564 -181.85188 
L 213.95096 -181.616761 
L 213.645377 -181.381642 
L 213.333573 -181.146523 
L 213.014781 -180.911404 
L 212.6887 -180.676285 
L 212.355467 -180.441166 
z
" style="stroke: #484848; stroke-opacity: 0.9; stroke-width: 1.25"/>
    </defs>
    <g clip-path="url(#pb87cfdc4f2)">
     <use xlink:href="#m7a5dccc943" x="0" y="252" style="fill: #1ea0d1; fill-opacity: 0.9; stroke: #484848; stroke-opacity: 0.9; stroke-width: 1.25"/>
    </g>
   </g>
   <g id="matplotlib.axis_1">
    <g id="xtick_1">
     <g id="line2d_1">
      <defs>
       <path id="m0ce2e257a8" d="M 0 0 
L 0 3.5 
" style="stroke: #000000; stroke-width: 0.8"/>
      </defs>
      <g>
       <use xlink:href="#m0ce2e257a8" x="130.359051" y="172.075081" style="stroke: #000000; stroke-width: 0.8"/>
      </g>
     </g>
     <g id="text_1">
      <!-- intact -->
      <g transform="translate(110.56439 216.644404) rotate(-30) scale(0.18 -0.18)">
       <defs>
        <path id="DejaVuSans-69" d="M 603 3500 
L 1178 3500 
L 1178 0 
L 603 0 
L 603 3500 
z
M 603 4863 
L 1178 4863 
L 1178 4134 
L 603 4134 
L 603 4863 
z
" transform="scale(0.015625)"/>
        <path id="DejaVuSans-6e" d="M 3513 2113 
L 3513 0 
L 2938 0 
L 2938 2094 
Q 2938 2591 2744 2837 
Q 2550 3084 2163 3084 
Q 1697 3084 1428 2787 
Q 1159 2491 1159 1978 
L 1159 0 
L 581 0 
L 581 3500 
L 1159 3500 
L 1159 2956 
Q 1366 3272 1645 3428 
Q 1925 3584 2291 3584 
Q 2894 3584 3203 3211 
Q 3513 2838 3513 2113 
z
" transform="scale(0.015625)"/>
        <path id="DejaVuSans-74" d="M 1172 4494 
L 1172 3500 
L 2356 3500 
L 2356 3053 
L 1172 3053 
L 1172 1153 
Q 1172 725 1289 603 
Q 1406 481 1766 481 
L 2356 481 
L 2356 0 
L 1766 0 
Q 1100 0 847 248 
Q 594 497 594 1153 
L 594 3053 
L 172 3053 
L 172 3500 
L 594 3500 
L 594 4494 
L 1172 4494 
z
" transform="scale(0.015625)"/>
        <path id="DejaVuSans-61" d="M 2194 1759 
Q 1497 1759 1228 1600 
Q 959 1441 959 1056 
Q 959 750 1161 570 
Q 1363 391 1709 391 
Q 2188 391 2477 730 
Q 2766 1069 2766 1631 
L 2766 1759 
L 2194 1759 
z
M 3341 1997 
L 3341 0 
L 2766 0 
L 2766 531 
Q 2569 213 2275 61 
Q 1981 -91 1556 -91 
Q 1019 -91 701 211 
Q 384 513 384 1019 
Q 384 1609 779 1909 
Q 1175 2209 1959 2209 
L 2766 2209 
L 2766 2266 
Q 2766 2663 2505 2880 
Q 2244 3097 1772 3097 
Q 1472 3097 1187 3025 
Q 903 2953 641 2809 
L 641 3341 
Q 956 3463 1253 3523 
Q 1550 3584 1831 3584 
Q 2591 3584 2966 3190 
Q 3341 2797 3341 1997 
z
" transform="scale(0.015625)"/>
        <path id="DejaVuSans-63" d="M 3122 3366 
L 3122 2828 
Q 2878 2963 2633 3030 
Q 2388 3097 2138 3097 
Q 1578 3097 1268 2742 
Q 959 2388 959 1747 
Q 959 1106 1268 751 
Q 1578 397 2138 397 
Q 2388 397 2633 464 
Q 2878 531 3122 666 
L 3122 134 
Q 2881 22 2623 -34 
Q 2366 -91 2075 -91 
Q 1284 -91 818 406 
Q 353 903 353 1747 
Q 353 2603 823 3093 
Q 1294 3584 2113 3584 
Q 2378 3584 2631 3529 
Q 2884 3475 3122 3366 
z
" transform="scale(0.015625)"/>
       </defs>
       <use xlink:href="#DejaVuSans-69"/>
       <use xlink:href="#DejaVuSans-6e" transform="translate(27.783203 0)"/>
       <use xlink:href="#DejaVuSans-74" transform="translate(91.162109 0)"/>
       <use xlink:href="#DejaVuSans-61" transform="translate(130.371094 0)"/>
       <use xlink:href="#DejaVuSans-63" transform="translate(191.650391 0)"/>
       <use xlink:href="#DejaVuSans-74" transform="translate(246.630859 0)"/>
      </g>
     </g>
    </g>
    <g id="xtick_2">
     <g id="line2d_2">
      <g>
       <use xlink:href="#m0ce2e257a8" x="204.748949" y="172.075081" style="stroke: #000000; stroke-width: 0.8"/>
      </g>
     </g>
     <g id="text_2">
      <!-- scrambled -->
      <g transform="translate(166.456393 238.003935) rotate(-30) scale(0.18 -0.18)">
       <defs>
        <path id="DejaVuSans-73" d="M 2834 3397 
L 2834 2853 
Q 2591 2978 2328 3040 
Q 2066 3103 1784 3103 
Q 1356 3103 1142 2972 
Q 928 2841 928 2578 
Q 928 2378 1081 2264 
Q 1234 2150 1697 2047 
L 1894 2003 
Q 2506 1872 2764 1633 
Q 3022 1394 3022 966 
Q 3022 478 2636 193 
Q 2250 -91 1575 -91 
Q 1294 -91 989 -36 
Q 684 19 347 128 
L 347 722 
Q 666 556 975 473 
Q 1284 391 1588 391 
Q 1994 391 2212 530 
Q 2431 669 2431 922 
Q 2431 1156 2273 1281 
Q 2116 1406 1581 1522 
L 1381 1569 
Q 847 1681 609 1914 
Q 372 2147 372 2553 
Q 372 3047 722 3315 
Q 1072 3584 1716 3584 
Q 2034 3584 2315 3537 
Q 2597 3491 2834 3397 
z
" transform="scale(0.015625)"/>
        <path id="DejaVuSans-72" d="M 2631 2963 
Q 2534 3019 2420 3045 
Q 2306 3072 2169 3072 
Q 1681 3072 1420 2755 
Q 1159 2438 1159 1844 
L 1159 0 
L 581 0 
L 581 3500 
L 1159 3500 
L 1159 2956 
Q 1341 3275 1631 3429 
Q 1922 3584 2338 3584 
Q 2397 3584 2469 3576 
Q 2541 3569 2628 3553 
L 2631 2963 
z
" transform="scale(0.015625)"/>
        <path id="DejaVuSans-6d" d="M 3328 2828 
Q 3544 3216 3844 3400 
Q 4144 3584 4550 3584 
Q 5097 3584 5394 3201 
Q 5691 2819 5691 2113 
L 5691 0 
L 5113 0 
L 5113 2094 
Q 5113 2597 4934 2840 
Q 4756 3084 4391 3084 
Q 3944 3084 3684 2787 
Q 3425 2491 3425 1978 
L 3425 0 
L 2847 0 
L 2847 2094 
Q 2847 2600 2669 2842 
Q 2491 3084 2119 3084 
Q 1678 3084 1418 2786 
Q 1159 2488 1159 1978 
L 1159 0 
L 581 0 
L 581 3500 
L 1159 3500 
L 1159 2956 
Q 1356 3278 1631 3431 
Q 1906 3584 2284 3584 
Q 2666 3584 2933 3390 
Q 3200 3197 3328 2828 
z
" transform="scale(0.015625)"/>
        <path id="DejaVuSans-62" d="M 3116 1747 
Q 3116 2381 2855 2742 
Q 2594 3103 2138 3103 
Q 1681 3103 1420 2742 
Q 1159 2381 1159 1747 
Q 1159 1113 1420 752 
Q 1681 391 2138 391 
Q 2594 391 2855 752 
Q 3116 1113 3116 1747 
z
M 1159 2969 
Q 1341 3281 1617 3432 
Q 1894 3584 2278 3584 
Q 2916 3584 3314 3078 
Q 3713 2572 3713 1747 
Q 3713 922 3314 415 
Q 2916 -91 2278 -91 
Q 1894 -91 1617 61 
Q 1341 213 1159 525 
L 1159 0 
L 581 0 
L 581 4863 
L 1159 4863 
L 1159 2969 
z
" transform="scale(0.015625)"/>
        <path id="DejaVuSans-6c" d="M 603 4863 
L 1178 4863 
L 1178 0 
L 603 0 
L 603 4863 
z
" transform="scale(0.015625)"/>
        <path id="DejaVuSans-65" d="M 3597 1894 
L 3597 1613 
L 953 1613 
Q 991 1019 1311 708 
Q 1631 397 2203 397 
Q 2534 397 2845 478 
Q 3156 559 3463 722 
L 3463 178 
Q 3153 47 2828 -22 
Q 2503 -91 2169 -91 
Q 1331 -91 842 396 
Q 353 884 353 1716 
Q 353 2575 817 3079 
Q 1281 3584 2069 3584 
Q 2775 3584 3186 3129 
Q 3597 2675 3597 1894 
z
M 3022 2063 
Q 3016 2534 2758 2815 
Q 2500 3097 2075 3097 
Q 1594 3097 1305 2825 
Q 1016 2553 972 2059 
L 3022 2063 
z
" transform="scale(0.015625)"/>
        <path id="DejaVuSans-64" d="M 2906 2969 
L 2906 4863 
L 3481 4863 
L 3481 0 
L 2906 0 
L 2906 525 
Q 2725 213 2448 61 
Q 2172 -91 1784 -91 
Q 1150 -91 751 415 
Q 353 922 353 1747 
Q 353 2572 751 3078 
Q 1150 3584 1784 3584 
Q 2172 3584 2448 3432 
Q 2725 3281 2906 2969 
z
M 947 1747 
Q 947 1113 1208 752 
Q 1469 391 1925 391 
Q 2381 391 2643 752 
Q 2906 1113 2906 1747 
Q 2906 2381 2643 2742 
Q 2381 3103 1925 3103 
Q 1469 3103 1208 2742 
Q 947 2381 947 1747 
z
" transform="scale(0.015625)"/>
       </defs>
       <use xlink:href="#DejaVuSans-73"/>
       <use xlink:href="#DejaVuSans-63" transform="translate(52.099609 0)"/>
       <use xlink:href="#DejaVuSans-72" transform="translate(107.080078 0)"/>
       <use xlink:href="#DejaVuSans-61" transform="translate(148.193359 0)"/>
       <use xlink:href="#DejaVuSans-6d" transform="translate(209.472656 0)"/>
       <use xlink:href="#DejaVuSans-62" transform="translate(306.884766 0)"/>
       <use xlink:href="#DejaVuSans-6c" transform="translate(370.361328 0)"/>
       <use xlink:href="#DejaVuSans-65" transform="translate(398.144531 0)"/>
       <use xlink:href="#DejaVuSans-64" transform="translate(459.667969 0)"/>
      </g>
     </g>
    </g>
   </g>
   <g id="matplotlib.axis_2">
    <g id="ytick_1">
     <g id="line2d_3">
      <defs>
       <path id="m0d3bfa31be" d="M 0 0 
L -3.5 0 
" style="stroke: #000000; stroke-width: 0.8"/>
      </defs>
      <g>
       <use xlink:href="#m0d3bfa31be" x="93.908" y="172.075081" style="stroke: #000000; stroke-width: 0.8"/>
      </g>
     </g>
     <g id="text_3">
      <!-- 0.0 -->
      <g transform="translate(58.282375 178.913675) scale(0.18 -0.18)">
       <defs>
        <path id="DejaVuSans-30" d="M 2034 4250 
Q 1547 4250 1301 3770 
Q 1056 3291 1056 2328 
Q 1056 1369 1301 889 
Q 1547 409 2034 409 
Q 2525 409 2770 889 
Q 3016 1369 3016 2328 
Q 3016 3291 2770 3770 
Q 2525 4250 2034 4250 
z
M 2034 4750 
Q 2819 4750 3233 4129 
Q 3647 3509 3647 2328 
Q 3647 1150 3233 529 
Q 2819 -91 2034 -91 
Q 1250 -91 836 529 
Q 422 1150 422 2328 
Q 422 3509 836 4129 
Q 1250 4750 2034 4750 
z
" transform="scale(0.015625)"/>
        <path id="DejaVuSans-2e" d="M 684 794 
L 1344 794 
L 1344 0 
L 684 0 
L 684 794 
z
" transform="scale(0.015625)"/>
       </defs>
       <use xlink:href="#DejaVuSans-30"/>
       <use xlink:href="#DejaVuSans-2e" transform="translate(63.623047 0)"/>
       <use xlink:href="#DejaVuSans-30" transform="translate(95.410156 0)"/>
      </g>
     </g>
    </g>
    <g id="ytick_2">
     <g id="line2d_4">
      <g>
       <use xlink:href="#m0d3bfa31be" x="93.908" y="98.550164" style="stroke: #000000; stroke-width: 0.8"/>
      </g>
     </g>
     <g id="text_4">
      <!-- 0.5 -->
      <g transform="translate(58.282375 105.388758) scale(0.18 -0.18)">
       <defs>
        <path id="DejaVuSans-35" d="M 691 4666 
L 3169 4666 
L 3169 4134 
L 1269 4134 
L 1269 2991 
Q 1406 3038 1543 3061 
Q 1681 3084 1819 3084 
Q 2600 3084 3056 2656 
Q 3513 2228 3513 1497 
Q 3513 744 3044 326 
Q 2575 -91 1722 -91 
Q 1428 -91 1123 -41 
Q 819 9 494 109 
L 494 744 
Q 775 591 1075 516 
Q 1375 441 1709 441 
Q 2250 441 2565 725 
Q 2881 1009 2881 1497 
Q 2881 1984 2565 2268 
Q 2250 2553 1709 2553 
Q 1456 2553 1204 2497 
Q 953 2441 691 2322 
L 691 4666 
z
" transform="scale(0.015625)"/>
       </defs>
       <use xlink:href="#DejaVuSans-30"/>
       <use xlink:href="#DejaVuSans-2e" transform="translate(63.623047 0)"/>
       <use xlink:href="#DejaVuSans-35" transform="translate(95.410156 0)"/>
      </g>
     </g>
    </g>
    <g id="ytick_3">
     <g id="line2d_5">
      <g>
       <use xlink:href="#m0d3bfa31be" x="93.908" y="25.025246" style="stroke: #000000; stroke-width: 0.8"/>
      </g>
     </g>
     <g id="text_5">
      <!-- 1.0 -->
      <g transform="translate(58.282375 31.86384) scale(0.18 -0.18)">
       <defs>
        <path id="DejaVuSans-31" d="M 794 531 
L 1825 531 
L 1825 4091 
L 703 3866 
L 703 4441 
L 1819 4666 
L 2450 4666 
L 2450 531 
L 3481 531 
L 3481 0 
L 794 0 
L 794 531 
z
" transform="scale(0.015625)"/>
       </defs>
       <use xlink:href="#DejaVuSans-31"/>
       <use xlink:href="#DejaVuSans-2e" transform="translate(63.623047 0)"/>
       <use xlink:href="#DejaVuSans-30" transform="translate(95.410156 0)"/>
      </g>
     </g>
    </g>
    <g id="text_6">
     <!-- CTX Episode -->
     <g transform="translate(27.727375 159.508843) rotate(-90) scale(0.2 -0.2)">
      <defs>
       <path id="DejaVuSans-43" d="M 4122 4306 
L 4122 3641 
Q 3803 3938 3442 4084 
Q 3081 4231 2675 4231 
Q 1875 4231 1450 3742 
Q 1025 3253 1025 2328 
Q 1025 1406 1450 917 
Q 1875 428 2675 428 
Q 3081 428 3442 575 
Q 3803 722 4122 1019 
L 4122 359 
Q 3791 134 3420 21 
Q 3050 -91 2638 -91 
Q 1578 -91 968 557 
Q 359 1206 359 2328 
Q 359 3453 968 4101 
Q 1578 4750 2638 4750 
Q 3056 4750 3426 4639 
Q 3797 4528 4122 4306 
z
" transform="scale(0.015625)"/>
       <path id="DejaVuSans-54" d="M -19 4666 
L 3928 4666 
L 3928 4134 
L 2272 4134 
L 2272 0 
L 1638 0 
L 1638 4134 
L -19 4134 
L -19 4666 
z
" transform="scale(0.015625)"/>
       <path id="DejaVuSans-58" d="M 403 4666 
L 1081 4666 
L 2241 2931 
L 3406 4666 
L 4084 4666 
L 2584 2425 
L 4184 0 
L 3506 0 
L 2194 1984 
L 872 0 
L 191 0 
L 1856 2491 
L 403 4666 
z
" transform="scale(0.015625)"/>
       <path id="DejaVuSans-20" transform="scale(0.015625)"/>
       <path id="DejaVuSans-45" d="M 628 4666 
L 3578 4666 
L 3578 4134 
L 1259 4134 
L 1259 2753 
L 3481 2753 
L 3481 2222 
L 1259 2222 
L 1259 531 
L 3634 531 
L 3634 0 
L 628 0 
L 628 4666 
z
" transform="scale(0.015625)"/>
       <path id="DejaVuSans-70" d="M 1159 525 
L 1159 -1331 
L 581 -1331 
L 581 3500 
L 1159 3500 
L 1159 2969 
Q 1341 3281 1617 3432 
Q 1894 3584 2278 3584 
Q 2916 3584 3314 3078 
Q 3713 2572 3713 1747 
Q 3713 922 3314 415 
Q 2916 -91 2278 -91 
Q 1894 -91 1617 61 
Q 1341 213 1159 525 
z
M 3116 1747 
Q 3116 2381 2855 2742 
Q 2594 3103 2138 3103 
Q 1681 3103 1420 2742 
Q 1159 2381 1159 1747 
Q 1159 1113 1420 752 
Q 1681 391 2138 391 
Q 2594 391 2855 752 
Q 3116 1113 3116 1747 
z
" transform="scale(0.015625)"/>
       <path id="DejaVuSans-6f" d="M 1959 3097 
Q 1497 3097 1228 2736 
Q 959 2375 959 1747 
Q 959 1119 1226 758 
Q 1494 397 1959 397 
Q 2419 397 2687 759 
Q 2956 1122 2956 1747 
Q 2956 2369 2687 2733 
Q 2419 3097 1959 3097 
z
M 1959 3584 
Q 2709 3584 3137 3096 
Q 3566 2609 3566 1747 
Q 3566 888 3137 398 
Q 2709 -91 1959 -91 
Q 1206 -91 779 398 
Q 353 888 353 1747 
Q 353 2609 779 3096 
Q 1206 3584 1959 3584 
z
" transform="scale(0.015625)"/>
      </defs>
      <use xlink:href="#DejaVuSans-43"/>
      <use xlink:href="#DejaVuSans-54" transform="translate(69.824219 0)"/>
      <use xlink:href="#DejaVuSans-58" transform="translate(130.908203 0)"/>
      <use xlink:href="#DejaVuSans-20" transform="translate(199.414062 0)"/>
      <use xlink:href="#DejaVuSans-45" transform="translate(231.201172 0)"/>
      <use xlink:href="#DejaVuSans-70" transform="translate(294.384766 0)"/>
      <use xlink:href="#DejaVuSans-69" transform="translate(357.861328 0)"/>
      <use xlink:href="#DejaVuSans-73" transform="translate(385.644531 0)"/>
      <use xlink:href="#DejaVuSans-6f" transform="translate(437.744141 0)"/>
      <use xlink:href="#DejaVuSans-64" transform="translate(498.925781 0)"/>
      <use xlink:href="#DejaVuSans-65" transform="translate(562.402344 0)"/>
     </g>
     <!-- Max. Selectivity -->
     <g transform="translate(50.123 176.311968) rotate(-90) scale(0.2 -0.2)">
      <defs>
       <path id="DejaVuSans-4d" d="M 628 4666 
L 1569 4666 
L 2759 1491 
L 3956 4666 
L 4897 4666 
L 4897 0 
L 4281 0 
L 4281 4097 
L 3078 897 
L 2444 897 
L 1241 4097 
L 1241 0 
L 628 0 
L 628 4666 
z
" transform="scale(0.015625)"/>
       <path id="DejaVuSans-78" d="M 3513 3500 
L 2247 1797 
L 3578 0 
L 2900 0 
L 1881 1375 
L 863 0 
L 184 0 
L 1544 1831 
L 300 3500 
L 978 3500 
L 1906 2253 
L 2834 3500 
L 3513 3500 
z
" transform="scale(0.015625)"/>
       <path id="DejaVuSans-53" d="M 3425 4513 
L 3425 3897 
Q 3066 4069 2747 4153 
Q 2428 4238 2131 4238 
Q 1616 4238 1336 4038 
Q 1056 3838 1056 3469 
Q 1056 3159 1242 3001 
Q 1428 2844 1947 2747 
L 2328 2669 
Q 3034 2534 3370 2195 
Q 3706 1856 3706 1288 
Q 3706 609 3251 259 
Q 2797 -91 1919 -91 
Q 1588 -91 1214 -16 
Q 841 59 441 206 
L 441 856 
Q 825 641 1194 531 
Q 1563 422 1919 422 
Q 2459 422 2753 634 
Q 3047 847 3047 1241 
Q 3047 1584 2836 1778 
Q 2625 1972 2144 2069 
L 1759 2144 
Q 1053 2284 737 2584 
Q 422 2884 422 3419 
Q 422 4038 858 4394 
Q 1294 4750 2059 4750 
Q 2388 4750 2728 4690 
Q 3069 4631 3425 4513 
z
" transform="scale(0.015625)"/>
       <path id="DejaVuSans-76" d="M 191 3500 
L 800 3500 
L 1894 563 
L 2988 3500 
L 3597 3500 
L 2284 0 
L 1503 0 
L 191 3500 
z
" transform="scale(0.015625)"/>
       <path id="DejaVuSans-79" d="M 2059 -325 
Q 1816 -950 1584 -1140 
Q 1353 -1331 966 -1331 
L 506 -1331 
L 506 -850 
L 844 -850 
Q 1081 -850 1212 -737 
Q 1344 -625 1503 -206 
L 1606 56 
L 191 3500 
L 800 3500 
L 1894 763 
L 2988 3500 
L 3597 3500 
L 2059 -325 
z
" transform="scale(0.015625)"/>
      </defs>
      <use xlink:href="#DejaVuSans-4d"/>
      <use xlink:href="#DejaVuSans-61" transform="translate(86.279297 0)"/>
      <use xlink:href="#DejaVuSans-78" transform="translate(147.558594 0)"/>
      <use xlink:href="#DejaVuSans-2e" transform="translate(206.738281 0)"/>
      <use xlink:href="#DejaVuSans-20" transform="translate(238.525391 0)"/>
      <use xlink:href="#DejaVuSans-53" transform="translate(270.3125 0)"/>
      <use xlink:href="#DejaVuSans-65" transform="translate(333.789062 0)"/>
      <use xlink:href="#DejaVuSans-6c" transform="translate(395.3125 0)"/>
      <use xlink:href="#DejaVuSans-65" transform="translate(423.095703 0)"/>
      <use xlink:href="#DejaVuSans-63" transform="translate(484.619141 0)"/>
      <use xlink:href="#DejaVuSans-74" transform="translate(539.599609 0)"/>
      <use xlink:href="#DejaVuSans-69" transform="translate(578.808594 0)"/>
      <use xlink:href="#DejaVuSans-76" transform="translate(606.591797 0)"/>
      <use xlink:href="#DejaVuSans-69" transform="translate(665.771484 0)"/>
      <use xlink:href="#DejaVuSans-74" transform="translate(693.554688 0)"/>
      <use xlink:href="#DejaVuSans-79" transform="translate(732.763672 0)"/>
     </g>
    </g>
   </g>
   <g id="line2d_6">
    <path d="M 130.359051 42.153636 
L 130.359051 24.507664 
L 204.748949 24.507664 
L 204.748949 42.153636 
" style="fill: none; stroke: #000000; stroke-width: 2; stroke-linecap: square"/>
   </g>
   <g id="patch_3">
    <path d="M 93.908 172.075081 
L 93.908 22.155106 
" style="fill: none; stroke: #000000; stroke-width: 0.8; stroke-linejoin: miter; stroke-linecap: square"/>
   </g>
   <g id="patch_4">
    <path d="M 93.908 172.075081 
L 241.2 172.075081 
" style="fill: none; stroke: #000000; stroke-width: 0.8; stroke-linejoin: miter; stroke-linecap: square"/>
   </g>
   <g id="PathCollection_1">
    <defs>
     <path id="m4c046fb809" d="M 0 1.5 
C 0.397805 1.5 0.77937 1.341951 1.06066 1.06066 
C 1.341951 0.77937 1.5 0.397805 1.5 0 
C 1.5 -0.397805 1.341951 -0.77937 1.06066 -1.06066 
C 0.77937 -1.341951 0.397805 -1.5 0 -1.5 
C -0.397805 -1.5 -0.77937 -1.341951 -1.06066 -1.06066 
C -1.341951 -0.77937 -1.5 -0.397805 -1.5 0 
C -1.5 0.397805 -1.341951 0.77937 -1.06066 1.06066 
C -0.77937 1.341951 -0.397805 1.5 0 1.5 
z
"/>
    </defs>
    <g clip-path="url(#pb87cfdc4f2)">
     <use xlink:href="#m4c046fb809" x="122.125311" y="54.743997" style="fill-opacity: 0.05"/>
     <use xlink:href="#m4c046fb809" x="131.048298" y="52.23533" style="fill-opacity: 0.05"/>
     <use xlink:href="#m4c046fb809" x="131.867721" y="55.257907" style="fill-opacity: 0.05"/>
     <use xlink:href="#m4c046fb809" x="116.838" y="51.268952" style="fill-opacity: 0.05"/>
     <use xlink:href="#m4c046fb809" x="126.214903" y="58.848157" style="fill-opacity: 0.05"/>
     <use xlink:href="#m4c046fb809" x="122.119058" y="50.63428" style="fill-opacity: 0.05"/>
     <use xlink:href="#m4c046fb809" x="135.974779" y="55.790819" style="fill-opacity: 0.05"/>
     <use xlink:href="#m4c046fb809" x="120.353056" y="50.802364" style="fill-opacity: 0.05"/>
     <use xlink:href="#m4c046fb809" x="117.573655" y="49.216478" style="fill-opacity: 0.05"/>
     <use xlink:href="#m4c046fb809" x="143.481752" y="55.859868" style="fill-opacity: 0.05"/>
     <use xlink:href="#m4c046fb809" x="132.253951" y="60.791369" style="fill-opacity: 0.05"/>
     <use xlink:href="#m4c046fb809" x="117.801808" y="56.056175" style="fill-opacity: 0.05"/>
     <use xlink:href="#m4c046fb809" x="136.983933" y="53.046202" style="fill-opacity: 0.05"/>
     <use xlink:href="#m4c046fb809" x="120.195967" y="57.70771" style="fill-opacity: 0.05"/>
     <use xlink:href="#m4c046fb809" x="122.928431" y="51.405307" style="fill-opacity: 0.05"/>
     <use xlink:href="#m4c046fb809" x="124.214066" y="54.791371" style="fill-opacity: 0.05"/>
     <use xlink:href="#m4c046fb809" x="136.209391" y="56.724048" style="fill-opacity: 0.05"/>
     <use xlink:href="#m4c046fb809" x="129.295694" y="57.388573" style="fill-opacity: 0.05"/>
     <use xlink:href="#m4c046fb809" x="121.880451" y="53.21297" style="fill-opacity: 0.05"/>
     <use xlink:href="#m4c046fb809" x="128.776815" y="56.217185" style="fill-opacity: 0.05"/>
    </g>
   </g>
   <g id="PathCollection_2">
    <g clip-path="url(#pb87cfdc4f2)">
     <use xlink:href="#m4c046fb809" x="193.467833" y="57.600752" style="fill-opacity: 0.05"/>
     <use xlink:href="#m4c046fb809" x="217.177627" y="59.409818" style="fill-opacity: 0.05"/>
     <use xlink:href="#m4c046fb809" x="206.726124" y="61.246239" style="fill-opacity: 0.05"/>
     <use xlink:href="#m4c046fb809" x="203.916357" y="53.553178" style="fill-opacity: 0.05"/>
     <use xlink:href="#m4c046fb809" x="199.231196" y="61.473231" style="fill-opacity: 0.05"/>
     <use xlink:href="#m4c046fb809" x="191.156895" y="53.980088" style="fill-opacity: 0.05"/>
     <use xlink:href="#m4c046fb809" x="212.26069" y="65.015248" style="fill-opacity: 0.05"/>
     <use xlink:href="#m4c046fb809" x="206.036461" y="61.423631" style="fill-opacity: 0.05"/>
     <use xlink:href="#m4c046fb809" x="212.699457" y="50.796667" style="fill-opacity: 0.05"/>
     <use xlink:href="#m4c046fb809" x="213.391531" y="61.762708" style="fill-opacity: 0.05"/>
     <use xlink:href="#m4c046fb809" x="192.019986" y="69.478636" style="fill-opacity: 0.05"/>
     <use xlink:href="#m4c046fb809" x="209.501447" y="56.599876" style="fill-opacity: 0.05"/>
     <use xlink:href="#m4c046fb809" x="191.456943" y="63.281701" style="fill-opacity: 0.05"/>
     <use xlink:href="#m4c046fb809" x="210.25453" y="62.899097" style="fill-opacity: 0.05"/>
     <use xlink:href="#m4c046fb809" x="203.063303" y="71.558834" style="fill-opacity: 0.05"/>
     <use xlink:href="#m4c046fb809" x="203.796644" y="58.347623" style="fill-opacity: 0.05"/>
     <use xlink:href="#m4c046fb809" x="209.541425" y="68.852624" style="fill-opacity: 0.05"/>
     <use xlink:href="#m4c046fb809" x="210.401589" y="60.356755" style="fill-opacity: 0.05"/>
     <use xlink:href="#m4c046fb809" x="197.706591" y="61.643313" style="fill-opacity: 0.05"/>
     <use xlink:href="#m4c046fb809" x="190.212536" y="48.282057" style="fill-opacity: 0.05"/>
    </g>
   </g>
   <g id="text_7">
    <!-- *** -->
    <g transform="translate(155.554 21.180164) scale(0.16 -0.16)">
     <defs>
      <path id="DejaVuSans-2a" d="M 3009 3897 
L 1888 3291 
L 3009 2681 
L 2828 2375 
L 1778 3009 
L 1778 1831 
L 1422 1831 
L 1422 3009 
L 372 2375 
L 191 2681 
L 1313 3291 
L 191 3897 
L 372 4206 
L 1422 3572 
L 1422 4750 
L 1778 4750 
L 1778 3572 
L 2828 4206 
L 3009 3897 
z
" transform="scale(0.015625)"/>
     </defs>
     <use xlink:href="#DejaVuSans-2a"/>
     <use xlink:href="#DejaVuSans-2a" transform="translate(50 0)"/>
     <use xlink:href="#DejaVuSans-2a" transform="translate(100 0)"/>
    </g>
   </g>
   <g id="LineCollection_1">
    <path d="M 130.359051 55.282291 
L 130.359051 53.917621 
" clip-path="url(#pb87cfdc4f2)" style="fill: none; stroke: #000000; stroke-width: 2"/>
    <path d="M 204.748949 61.711065 
L 204.748949 59.04513 
" clip-path="url(#pb87cfdc4f2)" style="fill: none; stroke: #000000; stroke-width: 2"/>
   </g>
   <g id="line2d_7">
    <defs>
     <path id="m99f935a817" d="M 5 0 
L -5 -0 
" style="stroke: #000000"/>
    </defs>
    <g clip-path="url(#pb87cfdc4f2)">
     <use xlink:href="#m99f935a817" x="130.359051" y="55.282291" style="stroke: #000000"/>
     <use xlink:href="#m99f935a817" x="204.748949" y="61.711065" style="stroke: #000000"/>
    </g>
   </g>
   <g id="line2d_8">
    <g clip-path="url(#pb87cfdc4f2)">
     <use xlink:href="#m99f935a817" x="130.359051" y="53.917621" style="stroke: #000000"/>
     <use xlink:href="#m99f935a817" x="204.748949" y="59.04513" style="stroke: #000000"/>
    </g>
   </g>
   <g id="line2d_9">
    <defs>
     <path id="md852ff4677" d="M 0 3 
C 0.795609 3 1.55874 2.683901 2.12132 2.12132 
C 2.683901 1.55874 3 0.795609 3 0 
C 3 -0.795609 2.683901 -1.55874 2.12132 -2.12132 
C 1.55874 -2.683901 0.795609 -3 0 -3 
C -0.795609 -3 -1.55874 -2.683901 -2.12132 -2.12132 
C -2.683901 -1.55874 -3 -0.795609 -3 0 
C -3 0.795609 -2.683901 1.55874 -2.12132 2.12132 
C -1.55874 2.683901 -0.795609 3 0 3 
z
" style="stroke: #000000"/>
    </defs>
    <g clip-path="url(#pb87cfdc4f2)">
     <use xlink:href="#md852ff4677" x="130.359051" y="54.599956" style="stroke: #000000"/>
     <use xlink:href="#md852ff4677" x="204.748949" y="60.378098" style="stroke: #000000"/>
    </g>
   </g>
  </g>
 </g>
 <defs>
  <clipPath id="pb87cfdc4f2">
   <rect x="93.908" y="22.155106" width="147.292" height="149.919975"/>
  </clipPath>
 </defs>
</svg>
