<?xml version="1.0" encoding="utf-8" standalone="no"?>
<!DOCTYPE svg PUBLIC "-//W3C//DTD SVG 1.1//EN"
  "http://www.w3.org/Graphics/SVG/1.1/DTD/svg11.dtd">
<svg xmlns:xlink="http://www.w3.org/1999/xlink" width="252pt" height="252pt" viewBox="0 0 252 252" xmlns="http://www.w3.org/2000/svg" version="1.1">
 <metadata>
  <rdf:RDF xmlns:dc="http://purl.org/dc/elements/1.1/" xmlns:cc="http://creativecommons.org/ns#" xmlns:rdf="http://www.w3.org/1999/02/22-rdf-syntax-ns#">
   <cc:Work>
    <dc:type rdf:resource="http://purl.org/dc/dcmitype/StillImage"/>
    <dc:date>2025-10-02T17:23:20.923025</dc:date>
    <dc:format>image/svg+xml</dc:format>
    <dc:creator>
     <cc:Agent>
      <dc:title>Matplotlib v3.10.1, https://matplotlib.org/</dc:title>
     </cc:Agent>
    </dc:creator>
   </cc:Work>
  </rdf:RDF>
 </metadata>
 <defs>
  <style type="text/css">*{stroke-linejoin: round; stroke-linecap: butt}</style>
 </defs>
 <g id="figure_1">
  <g id="patch_1">
   <path d="M 0 252 
L 252 252 
L 252 0 
L 0 0 
L 0 252 
z
" style="fill: none"/>
  </g>
  <g id="axes_1">
   <g id="patch_2">
    <path d="M 93.908 172.075081 
L 241.2 172.075081 
L 241.2 21.586559 
L 93.908 21.586559 
L 93.908 172.075081 
z
" style="fill: none"/>
   </g>
   <g id="FillBetweenPolyCollection_1">
    <defs>
     <path id="m7770209c84" d="M 132.946534 -195.607537 
L 127.771567 -195.607537 
L 127.724499 -195.684987 
L 127.684093 -195.762436 
L 127.649958 -195.839886 
L 127.621598 -195.917336 
L 127.598431 -195.994785 
L 127.579816 -196.072235 
L 127.565079 -196.149684 
L 127.553547 -196.227134 
L 127.544568 -196.304584 
L 127.537544 -196.382033 
L 127.531948 -196.459483 
L 127.527346 -196.536933 
L 127.523403 -196.614382 
L 127.519894 -196.691832 
L 127.516703 -196.769282 
L 127.51381 -196.846731 
L 127.511282 -196.924181 
L 127.509251 -197.001631 
L 127.507886 -197.07908 
L 127.507364 -197.15653 
L 127.507839 -197.233979 
L 127.509404 -197.311429 
L 127.512058 -197.388879 
L 127.51567 -197.466328 
L 127.519952 -197.543778 
L 127.524431 -197.621228 
L 127.528424 -197.698677 
L 127.531029 -197.776127 
L 127.531113 -197.853577 
L 127.527313 -197.931026 
L 127.518042 -198.008476 
L 127.501502 -198.085926 
L 127.475708 -198.163375 
L 127.43851 -198.240825 
L 127.387631 -198.318274 
L 127.320702 -198.395724 
L 127.235297 -198.473174 
L 127.128984 -198.550623 
L 126.99936 -198.628073 
L 126.844098 -198.705523 
L 126.660984 -198.782972 
L 126.447963 -198.860422 
L 126.203166 -198.937872 
L 125.924947 -199.015321 
L 125.611911 -199.092771 
L 125.262933 -199.170221 
L 124.877177 -199.24767 
L 124.45411 -199.32512 
L 123.993509 -199.402569 
L 123.495463 -199.480019 
L 122.960373 -199.557469 
L 122.388946 -199.634918 
L 121.782187 -199.712368 
L 121.141384 -199.789818 
L 120.4681 -199.867267 
L 119.764153 -199.944717 
L 119.0316 -200.022167 
L 118.272721 -200.099616 
L 117.490002 -200.177066 
L 116.68612 -200.254516 
L 115.863928 -200.331965 
L 115.026444 -200.409415 
L 114.176839 -200.486864 
L 113.318433 -200.564314 
L 112.454688 -200.641764 
L 111.589209 -200.719213 
L 110.725743 -200.796663 
L 109.868182 -200.874113 
L 109.020566 -200.951562 
L 108.187088 -201.029012 
L 107.372097 -201.106462 
L 106.580098 -201.183911 
L 105.815749 -201.261361 
L 105.083853 -201.338811 
L 104.389342 -201.41626 
L 103.737255 -201.49371 
L 103.132706 -201.571159 
L 102.580841 -201.648609 
L 102.086785 -201.726059 
L 101.65558 -201.803508 
L 101.292113 -201.880958 
L 101.00103 -201.958408 
L 100.786652 -202.035857 
L 100.652878 -202.113307 
L 100.603091 -202.190757 
L 100.640057 -202.268206 
L 100.76584 -202.345656 
L 100.981713 -202.423106 
L 101.288085 -202.500555 
L 101.684444 -202.578005 
L 102.169313 -202.655454 
L 102.740228 -202.732904 
L 103.393736 -202.810354 
L 104.125419 -202.887803 
L 104.929937 -202.965253 
L 105.801096 -203.042703 
L 106.731935 -203.120152 
L 107.714838 -203.197602 
L 108.741651 -203.275052 
L 151.97645 -203.275052 
L 151.97645 -203.275052 
L 153.003263 -203.197602 
L 153.986166 -203.120152 
L 154.917006 -203.042703 
L 155.788164 -202.965253 
L 156.592682 -202.887803 
L 157.324365 -202.810354 
L 157.977873 -202.732904 
L 158.548788 -202.655454 
L 159.033657 -202.578005 
L 159.430016 -202.500555 
L 159.736388 -202.423106 
L 159.952261 -202.345656 
L 160.078044 -202.268206 
L 160.11501 -202.190757 
L 160.065223 -202.113307 
L 159.931449 -202.035857 
L 159.717071 -201.958408 
L 159.425988 -201.880958 
L 159.062521 -201.803508 
L 158.631316 -201.726059 
L 158.13726 -201.648609 
L 157.585395 -201.571159 
L 156.980846 -201.49371 
L 156.328759 -201.41626 
L 155.634248 -201.338811 
L 154.902352 -201.261361 
L 154.138003 -201.183911 
L 153.346004 -201.106462 
L 152.531013 -201.029012 
L 151.697535 -200.951562 
L 150.849919 -200.874113 
L 149.992358 -200.796663 
L 149.128892 -200.719213 
L 148.263413 -200.641764 
L 147.399669 -200.564314 
L 146.541262 -200.486864 
L 145.691657 -200.409415 
L 144.854173 -200.331965 
L 144.031981 -200.254516 
L 143.228099 -200.177066 
L 142.44538 -200.099616 
L 141.686501 -200.022167 
L 140.953948 -199.944717 
L 140.250001 -199.867267 
L 139.576717 -199.789818 
L 138.935914 -199.712368 
L 138.329155 -199.634918 
L 137.757728 -199.557469 
L 137.222638 -199.480019 
L 136.724592 -199.402569 
L 136.263991 -199.32512 
L 135.840924 -199.24767 
L 135.455168 -199.170221 
L 135.10619 -199.092771 
L 134.793154 -199.015321 
L 134.514935 -198.937872 
L 134.270138 -198.860422 
L 134.057117 -198.782972 
L 133.874003 -198.705523 
L 133.718741 -198.628073 
L 133.589117 -198.550623 
L 133.482804 -198.473174 
L 133.397399 -198.395724 
L 133.33047 -198.318274 
L 133.279591 -198.240825 
L 133.242393 -198.163375 
L 133.216599 -198.085926 
L 133.200059 -198.008476 
L 133.190788 -197.931026 
L 133.186988 -197.853577 
L 133.187072 -197.776127 
L 133.189677 -197.698677 
L 133.19367 -197.621228 
L 133.198149 -197.543778 
L 133.202431 -197.466328 
L 133.206043 -197.388879 
L 133.208697 -197.311429 
L 133.210262 -197.233979 
L 133.210737 -197.15653 
L 133.210215 -197.07908 
L 133.20885 -197.001631 
L 133.206819 -196.924181 
L 133.204291 -196.846731 
L 133.201398 -196.769282 
L 133.198207 -196.691832 
L 133.194698 -196.614382 
L 133.190755 -196.536933 
L 133.186153 -196.459483 
L 133.180557 -196.382033 
L 133.173533 -196.304584 
L 133.164554 -196.227134 
L 133.153022 -196.149684 
L 133.138285 -196.072235 
L 133.11967 -195.994785 
L 133.096503 -195.917336 
L 133.068143 -195.839886 
L 133.034008 -195.762436 
L 132.993602 -195.684987 
L 132.946534 -195.607537 
z
" style="stroke: #484848; stroke-opacity: 0.9; stroke-width: 1.25"/>
    </defs>
    <g clip-path="url(#pd15ddc6065)">
     <use xlink:href="#m7770209c84" x="0" y="252" style="fill: #d86743; fill-opacity: 0.9; stroke: #484848; stroke-opacity: 0.9; stroke-width: 1.25"/>
    </g>
   </g>
   <g id="FillBetweenPolyCollection_2">
    <defs>
     <path id="m2a7dfb7d83" d="M 217.228923 -171.562639 
L 192.268976 -171.562639 
L 191.721301 -171.735938 
L 191.179332 -171.909238 
L 190.644563 -172.082537 
L 190.118334 -172.255836 
L 189.601814 -172.429135 
L 189.095991 -172.602434 
L 188.601662 -172.775734 
L 188.119432 -172.949033 
L 187.649715 -173.122332 
L 187.19274 -173.295631 
L 186.748563 -173.468931 
L 186.317081 -173.64223 
L 185.898051 -173.815529 
L 185.491113 -173.988828 
L 185.095813 -174.162127 
L 184.711632 -174.335427 
L 184.338013 -174.508726 
L 183.974382 -174.682025 
L 183.620185 -174.855324 
L 183.274901 -175.028624 
L 182.938067 -175.201923 
L 182.609295 -175.375222 
L 182.288282 -175.548521 
L 181.974818 -175.72182 
L 181.668783 -175.89512 
L 181.370147 -176.068419 
L 181.078955 -176.241718 
L 180.795315 -176.415017 
L 180.519375 -176.588316 
L 180.251305 -176.761616 
L 179.991266 -176.934915 
L 179.739389 -177.108214 
L 179.495748 -177.281513 
L 179.260337 -177.454813 
L 179.033055 -177.628112 
L 178.813687 -177.801411 
L 178.601899 -177.97471 
L 178.397241 -178.148009 
L 178.199149 -178.321309 
L 178.006966 -178.494608 
L 177.819961 -178.667907 
L 177.637362 -178.841206 
L 177.458396 -179.014506 
L 177.282325 -179.187805 
L 177.108498 -179.361104 
L 176.936394 -179.534403 
L 176.76567 -179.707702 
L 176.596207 -179.881002 
L 176.428146 -180.054301 
L 176.261924 -180.2276 
L 176.098295 -180.400899 
L 175.938348 -180.574199 
L 175.783511 -180.747498 
L 175.635538 -180.920797 
L 175.496494 -181.094096 
L 175.368725 -181.267395 
L 175.254811 -181.440695 
L 175.157521 -181.613994 
L 175.079747 -181.787293 
L 175.024448 -181.960592 
L 174.994571 -182.133891 
L 174.99299 -182.307191 
L 175.022428 -182.48049 
L 175.085398 -182.653789 
L 175.184136 -182.827088 
L 175.320548 -183.000388 
L 175.496166 -183.173687 
L 175.712113 -183.346986 
L 175.969073 -183.520285 
L 176.267284 -183.693584 
L 176.606531 -183.866884 
L 176.986158 -184.040183 
L 177.405084 -184.213482 
L 177.861834 -184.386781 
L 178.354574 -184.560081 
L 178.881153 -184.73338 
L 179.43915 -184.906679 
L 180.025927 -185.079978 
L 180.638677 -185.253277 
L 181.274478 -185.426577 
L 181.930343 -185.599876 
L 182.603267 -185.773175 
L 183.290269 -185.946474 
L 183.98843 -186.119774 
L 184.694928 -186.293073 
L 185.407063 -186.466372 
L 186.122278 -186.639671 
L 186.838174 -186.81297 
L 187.552522 -186.98627 
L 188.263264 -187.159569 
L 188.968515 -187.332868 
L 189.666557 -187.506167 
L 190.355836 -187.679466 
L 191.034947 -187.852766 
L 191.702629 -188.026065 
L 192.357749 -188.199364 
L 192.999289 -188.372663 
L 193.626338 -188.545963 
L 194.238077 -188.719262 
L 215.259822 -188.719262 
L 215.259822 -188.719262 
L 215.871561 -188.545963 
L 216.49861 -188.372663 
L 217.14015 -188.199364 
L 217.79527 -188.026065 
L 218.462952 -187.852766 
L 219.142063 -187.679466 
L 219.831342 -187.506167 
L 220.529384 -187.332868 
L 221.234635 -187.159569 
L 221.945377 -186.98627 
L 222.659725 -186.81297 
L 223.375621 -186.639671 
L 224.090836 -186.466372 
L 224.802971 -186.293073 
L 225.509469 -186.119774 
L 226.20763 -185.946474 
L 226.894632 -185.773175 
L 227.567556 -185.599876 
L 228.223421 -185.426577 
L 228.859222 -185.253277 
L 229.471972 -185.079978 
L 230.058749 -184.906679 
L 230.616746 -184.73338 
L 231.143325 -184.560081 
L 231.636065 -184.386781 
L 232.092815 -184.213482 
L 232.511741 -184.040183 
L 232.891368 -183.866884 
L 233.230615 -183.693584 
L 233.528826 -183.520285 
L 233.785786 -183.346986 
L 234.001733 -183.173687 
L 234.177351 -183.000388 
L 234.313763 -182.827088 
L 234.412501 -182.653789 
L 234.475471 -182.48049 
L 234.504909 -182.307191 
L 234.503328 -182.133891 
L 234.473451 -181.960592 
L 234.418152 -181.787293 
L 234.340378 -181.613994 
L 234.243088 -181.440695 
L 234.129174 -181.267395 
L 234.001405 -181.094096 
L 233.862361 -180.920797 
L 233.714388 -180.747498 
L 233.55955 -180.574199 
L 233.399604 -180.400899 
L 233.235975 -180.2276 
L 233.069753 -180.054301 
L 232.901692 -179.881002 
L 232.732229 -179.707702 
L 232.561505 -179.534403 
L 232.389401 -179.361104 
L 232.215574 -179.187805 
L 232.039503 -179.014506 
L 231.860537 -178.841206 
L 231.677938 -178.667907 
L 231.490933 -178.494608 
L 231.29875 -178.321309 
L 231.100658 -178.148009 
L 230.896 -177.97471 
L 230.684212 -177.801411 
L 230.464844 -177.628112 
L 230.237562 -177.454813 
L 230.002151 -177.281513 
L 229.75851 -177.108214 
L 229.506633 -176.934915 
L 229.246594 -176.761616 
L 228.978524 -176.588316 
L 228.702584 -176.415017 
L 228.418944 -176.241718 
L 228.127752 -176.068419 
L 227.829116 -175.89512 
L 227.523081 -175.72182 
L 227.209617 -175.548521 
L 226.888604 -175.375222 
L 226.559832 -175.201923 
L 226.222998 -175.028624 
L 225.877714 -174.855324 
L 225.523517 -174.682025 
L 225.159886 -174.508726 
L 224.786267 -174.335427 
L 224.402086 -174.162127 
L 224.006786 -173.988828 
L 223.599848 -173.815529 
L 223.180818 -173.64223 
L 222.749336 -173.468931 
L 222.305159 -173.295631 
L 221.848184 -173.122332 
L 221.378467 -172.949033 
L 220.896237 -172.775734 
L 220.401908 -172.602434 
L 219.896085 -172.429135 
L 219.379565 -172.255836 
L 218.853336 -172.082537 
L 218.318567 -171.909238 
L 217.776598 -171.735938 
L 217.228923 -171.562639 
z
" style="stroke: #484848; stroke-opacity: 0.9; stroke-width: 1.25"/>
    </defs>
    <g clip-path="url(#pd15ddc6065)">
     <use xlink:href="#m2a7dfb7d83" x="0" y="252" style="fill: #1ea0d1; fill-opacity: 0.9; stroke: #484848; stroke-opacity: 0.9; stroke-width: 1.25"/>
    </g>
   </g>
   <g id="matplotlib.axis_1">
    <g id="xtick_1">
     <g id="line2d_1">
      <defs>
       <path id="m3efaed494e" d="M 0 0 
L 0 3.5 
" style="stroke: #000000; stroke-width: 0.8"/>
      </defs>
      <g>
       <use xlink:href="#m3efaed494e" x="130.359051" y="172.075081" style="stroke: #000000; stroke-width: 0.8"/>
      </g>
     </g>
     <g id="text_1">
      <!-- intact -->
      <g transform="translate(110.56439 216.644404) rotate(-30) scale(0.18 -0.18)">
       <defs>
        <path id="DejaVuSans-69" d="M 603 3500 
L 1178 3500 
L 1178 0 
L 603 0 
L 603 3500 
z
M 603 4863 
L 1178 4863 
L 1178 4134 
L 603 4134 
L 603 4863 
z
" transform="scale(0.015625)"/>
        <path id="DejaVuSans-6e" d="M 3513 2113 
L 3513 0 
L 2938 0 
L 2938 2094 
Q 2938 2591 2744 2837 
Q 2550 3084 2163 3084 
Q 1697 3084 1428 2787 
Q 1159 2491 1159 1978 
L 1159 0 
L 581 0 
L 581 3500 
L 1159 3500 
L 1159 2956 
Q 1366 3272 1645 3428 
Q 1925 3584 2291 3584 
Q 2894 3584 3203 3211 
Q 3513 2838 3513 2113 
z
" transform="scale(0.015625)"/>
        <path id="DejaVuSans-74" d="M 1172 4494 
L 1172 3500 
L 2356 3500 
L 2356 3053 
L 1172 3053 
L 1172 1153 
Q 1172 725 1289 603 
Q 1406 481 1766 481 
L 2356 481 
L 2356 0 
L 1766 0 
Q 1100 0 847 248 
Q 594 497 594 1153 
L 594 3053 
L 172 3053 
L 172 3500 
L 594 3500 
L 594 4494 
L 1172 4494 
z
" transform="scale(0.015625)"/>
        <path id="DejaVuSans-61" d="M 2194 1759 
Q 1497 1759 1228 1600 
Q 959 1441 959 1056 
Q 959 750 1161 570 
Q 1363 391 1709 391 
Q 2188 391 2477 730 
Q 2766 1069 2766 1631 
L 2766 1759 
L 2194 1759 
z
M 3341 1997 
L 3341 0 
L 2766 0 
L 2766 531 
Q 2569 213 2275 61 
Q 1981 -91 1556 -91 
Q 1019 -91 701 211 
Q 384 513 384 1019 
Q 384 1609 779 1909 
Q 1175 2209 1959 2209 
L 2766 2209 
L 2766 2266 
Q 2766 2663 2505 2880 
Q 2244 3097 1772 3097 
Q 1472 3097 1187 3025 
Q 903 2953 641 2809 
L 641 3341 
Q 956 3463 1253 3523 
Q 1550 3584 1831 3584 
Q 2591 3584 2966 3190 
Q 3341 2797 3341 1997 
z
" transform="scale(0.015625)"/>
        <path id="DejaVuSans-63" d="M 3122 3366 
L 3122 2828 
Q 2878 2963 2633 3030 
Q 2388 3097 2138 3097 
Q 1578 3097 1268 2742 
Q 959 2388 959 1747 
Q 959 1106 1268 751 
Q 1578 397 2138 397 
Q 2388 397 2633 464 
Q 2878 531 3122 666 
L 3122 134 
Q 2881 22 2623 -34 
Q 2366 -91 2075 -91 
Q 1284 -91 818 406 
Q 353 903 353 1747 
Q 353 2603 823 3093 
Q 1294 3584 2113 3584 
Q 2378 3584 2631 3529 
Q 2884 3475 3122 3366 
z
" transform="scale(0.015625)"/>
       </defs>
       <use xlink:href="#DejaVuSans-69"/>
       <use xlink:href="#DejaVuSans-6e" transform="translate(27.783203 0)"/>
       <use xlink:href="#DejaVuSans-74" transform="translate(91.162109 0)"/>
       <use xlink:href="#DejaVuSans-61" transform="translate(130.371094 0)"/>
       <use xlink:href="#DejaVuSans-63" transform="translate(191.650391 0)"/>
       <use xlink:href="#DejaVuSans-74" transform="translate(246.630859 0)"/>
      </g>
     </g>
    </g>
    <g id="xtick_2">
     <g id="line2d_2">
      <g>
       <use xlink:href="#m3efaed494e" x="204.748949" y="172.075081" style="stroke: #000000; stroke-width: 0.8"/>
      </g>
     </g>
     <g id="text_2">
      <!-- scrambled -->
      <g transform="translate(166.456393 238.003935) rotate(-30) scale(0.18 -0.18)">
       <defs>
        <path id="DejaVuSans-73" d="M 2834 3397 
L 2834 2853 
Q 2591 2978 2328 3040 
Q 2066 3103 1784 3103 
Q 1356 3103 1142 2972 
Q 928 2841 928 2578 
Q 928 2378 1081 2264 
Q 1234 2150 1697 2047 
L 1894 2003 
Q 2506 1872 2764 1633 
Q 3022 1394 3022 966 
Q 3022 478 2636 193 
Q 2250 -91 1575 -91 
Q 1294 -91 989 -36 
Q 684 19 347 128 
L 347 722 
Q 666 556 975 473 
Q 1284 391 1588 391 
Q 1994 391 2212 530 
Q 2431 669 2431 922 
Q 2431 1156 2273 1281 
Q 2116 1406 1581 1522 
L 1381 1569 
Q 847 1681 609 1914 
Q 372 2147 372 2553 
Q 372 3047 722 3315 
Q 1072 3584 1716 3584 
Q 2034 3584 2315 3537 
Q 2597 3491 2834 3397 
z
" transform="scale(0.015625)"/>
        <path id="DejaVuSans-72" d="M 2631 2963 
Q 2534 3019 2420 3045 
Q 2306 3072 2169 3072 
Q 1681 3072 1420 2755 
Q 1159 2438 1159 1844 
L 1159 0 
L 581 0 
L 581 3500 
L 1159 3500 
L 1159 2956 
Q 1341 3275 1631 3429 
Q 1922 3584 2338 3584 
Q 2397 3584 2469 3576 
Q 2541 3569 2628 3553 
L 2631 2963 
z
" transform="scale(0.015625)"/>
        <path id="DejaVuSans-6d" d="M 3328 2828 
Q 3544 3216 3844 3400 
Q 4144 3584 4550 3584 
Q 5097 3584 5394 3201 
Q 5691 2819 5691 2113 
L 5691 0 
L 5113 0 
L 5113 2094 
Q 5113 2597 4934 2840 
Q 4756 3084 4391 3084 
Q 3944 3084 3684 2787 
Q 3425 2491 3425 1978 
L 3425 0 
L 2847 0 
L 2847 2094 
Q 2847 2600 2669 2842 
Q 2491 3084 2119 3084 
Q 1678 3084 1418 2786 
Q 1159 2488 1159 1978 
L 1159 0 
L 581 0 
L 581 3500 
L 1159 3500 
L 1159 2956 
Q 1356 3278 1631 3431 
Q 1906 3584 2284 3584 
Q 2666 3584 2933 3390 
Q 3200 3197 3328 2828 
z
" transform="scale(0.015625)"/>
        <path id="DejaVuSans-62" d="M 3116 1747 
Q 3116 2381 2855 2742 
Q 2594 3103 2138 3103 
Q 1681 3103 1420 2742 
Q 1159 2381 1159 1747 
Q 1159 1113 1420 752 
Q 1681 391 2138 391 
Q 2594 391 2855 752 
Q 3116 1113 3116 1747 
z
M 1159 2969 
Q 1341 3281 1617 3432 
Q 1894 3584 2278 3584 
Q 2916 3584 3314 3078 
Q 3713 2572 3713 1747 
Q 3713 922 3314 415 
Q 2916 -91 2278 -91 
Q 1894 -91 1617 61 
Q 1341 213 1159 525 
L 1159 0 
L 581 0 
L 581 4863 
L 1159 4863 
L 1159 2969 
z
" transform="scale(0.015625)"/>
        <path id="DejaVuSans-6c" d="M 603 4863 
L 1178 4863 
L 1178 0 
L 603 0 
L 603 4863 
z
" transform="scale(0.015625)"/>
        <path id="DejaVuSans-65" d="M 3597 1894 
L 3597 1613 
L 953 1613 
Q 991 1019 1311 708 
Q 1631 397 2203 397 
Q 2534 397 2845 478 
Q 3156 559 3463 722 
L 3463 178 
Q 3153 47 2828 -22 
Q 2503 -91 2169 -91 
Q 1331 -91 842 396 
Q 353 884 353 1716 
Q 353 2575 817 3079 
Q 1281 3584 2069 3584 
Q 2775 3584 3186 3129 
Q 3597 2675 3597 1894 
z
M 3022 2063 
Q 3016 2534 2758 2815 
Q 2500 3097 2075 3097 
Q 1594 3097 1305 2825 
Q 1016 2553 972 2059 
L 3022 2063 
z
" transform="scale(0.015625)"/>
        <path id="DejaVuSans-64" d="M 2906 2969 
L 2906 4863 
L 3481 4863 
L 3481 0 
L 2906 0 
L 2906 525 
Q 2725 213 2448 61 
Q 2172 -91 1784 -91 
Q 1150 -91 751 415 
Q 353 922 353 1747 
Q 353 2572 751 3078 
Q 1150 3584 1784 3584 
Q 2172 3584 2448 3432 
Q 2725 3281 2906 2969 
z
M 947 1747 
Q 947 1113 1208 752 
Q 1469 391 1925 391 
Q 2381 391 2643 752 
Q 2906 1113 2906 1747 
Q 2906 2381 2643 2742 
Q 2381 3103 1925 3103 
Q 1469 3103 1208 2742 
Q 947 2381 947 1747 
z
" transform="scale(0.015625)"/>
       </defs>
       <use xlink:href="#DejaVuSans-73"/>
       <use xlink:href="#DejaVuSans-63" transform="translate(52.099609 0)"/>
       <use xlink:href="#DejaVuSans-72" transform="translate(107.080078 0)"/>
       <use xlink:href="#DejaVuSans-61" transform="translate(148.193359 0)"/>
       <use xlink:href="#DejaVuSans-6d" transform="translate(209.472656 0)"/>
       <use xlink:href="#DejaVuSans-62" transform="translate(306.884766 0)"/>
       <use xlink:href="#DejaVuSans-6c" transform="translate(370.361328 0)"/>
       <use xlink:href="#DejaVuSans-65" transform="translate(398.144531 0)"/>
       <use xlink:href="#DejaVuSans-64" transform="translate(459.667969 0)"/>
      </g>
     </g>
    </g>
   </g>
   <g id="matplotlib.axis_2">
    <g id="ytick_1">
     <g id="line2d_3">
      <defs>
       <path id="m75651e63d0" d="M 0 0 
L -3.5 0 
" style="stroke: #000000; stroke-width: 0.8"/>
      </defs>
      <g>
       <use xlink:href="#m75651e63d0" x="93.908" y="172.075081" style="stroke: #000000; stroke-width: 0.8"/>
      </g>
     </g>
     <g id="text_3">
      <!-- 0.0 -->
      <g transform="translate(58.282375 178.913675) scale(0.18 -0.18)">
       <defs>
        <path id="DejaVuSans-30" d="M 2034 4250 
Q 1547 4250 1301 3770 
Q 1056 3291 1056 2328 
Q 1056 1369 1301 889 
Q 1547 409 2034 409 
Q 2525 409 2770 889 
Q 3016 1369 3016 2328 
Q 3016 3291 2770 3770 
Q 2525 4250 2034 4250 
z
M 2034 4750 
Q 2819 4750 3233 4129 
Q 3647 3509 3647 2328 
Q 3647 1150 3233 529 
Q 2819 -91 2034 -91 
Q 1250 -91 836 529 
Q 422 1150 422 2328 
Q 422 3509 836 4129 
Q 1250 4750 2034 4750 
z
" transform="scale(0.015625)"/>
        <path id="DejaVuSans-2e" d="M 684 794 
L 1344 794 
L 1344 0 
L 684 0 
L 684 794 
z
" transform="scale(0.015625)"/>
       </defs>
       <use xlink:href="#DejaVuSans-30"/>
       <use xlink:href="#DejaVuSans-2e" transform="translate(63.623047 0)"/>
       <use xlink:href="#DejaVuSans-30" transform="translate(95.410156 0)"/>
      </g>
     </g>
    </g>
    <g id="ytick_2">
     <g id="line2d_4">
      <g>
       <use xlink:href="#m75651e63d0" x="93.908" y="107.767525" style="stroke: #000000; stroke-width: 0.8"/>
      </g>
     </g>
     <g id="text_4">
      <!-- 0.5 -->
      <g transform="translate(58.282375 114.606119) scale(0.18 -0.18)">
       <defs>
        <path id="DejaVuSans-35" d="M 691 4666 
L 3169 4666 
L 3169 4134 
L 1269 4134 
L 1269 2991 
Q 1406 3038 1543 3061 
Q 1681 3084 1819 3084 
Q 2600 3084 3056 2656 
Q 3513 2228 3513 1497 
Q 3513 744 3044 326 
Q 2575 -91 1722 -91 
Q 1428 -91 1123 -41 
Q 819 9 494 109 
L 494 744 
Q 775 591 1075 516 
Q 1375 441 1709 441 
Q 2250 441 2565 725 
Q 2881 1009 2881 1497 
Q 2881 1984 2565 2268 
Q 2250 2553 1709 2553 
Q 1456 2553 1204 2497 
Q 953 2441 691 2322 
L 691 4666 
z
" transform="scale(0.015625)"/>
       </defs>
       <use xlink:href="#DejaVuSans-30"/>
       <use xlink:href="#DejaVuSans-2e" transform="translate(63.623047 0)"/>
       <use xlink:href="#DejaVuSans-35" transform="translate(95.410156 0)"/>
      </g>
     </g>
    </g>
    <g id="ytick_3">
     <g id="line2d_5">
      <g>
       <use xlink:href="#m75651e63d0" x="93.908" y="43.459969" style="stroke: #000000; stroke-width: 0.8"/>
      </g>
     </g>
     <g id="text_5">
      <!-- 1.0 -->
      <g transform="translate(58.282375 50.298562) scale(0.18 -0.18)">
       <defs>
        <path id="DejaVuSans-31" d="M 794 531 
L 1825 531 
L 1825 4091 
L 703 3866 
L 703 4441 
L 1819 4666 
L 2450 4666 
L 2450 531 
L 3481 531 
L 3481 0 
L 794 0 
L 794 531 
z
" transform="scale(0.015625)"/>
       </defs>
       <use xlink:href="#DejaVuSans-31"/>
       <use xlink:href="#DejaVuSans-2e" transform="translate(63.623047 0)"/>
       <use xlink:href="#DejaVuSans-30" transform="translate(95.410156 0)"/>
      </g>
     </g>
    </g>
    <g id="text_6">
     <!-- CTX Episode -->
     <g transform="translate(27.727375 159.22457) rotate(-90) scale(0.2 -0.2)">
      <defs>
       <path id="DejaVuSans-43" d="M 4122 4306 
L 4122 3641 
Q 3803 3938 3442 4084 
Q 3081 4231 2675 4231 
Q 1875 4231 1450 3742 
Q 1025 3253 1025 2328 
Q 1025 1406 1450 917 
Q 1875 428 2675 428 
Q 3081 428 3442 575 
Q 3803 722 4122 1019 
L 4122 359 
Q 3791 134 3420 21 
Q 3050 -91 2638 -91 
Q 1578 -91 968 557 
Q 359 1206 359 2328 
Q 359 3453 968 4101 
Q 1578 4750 2638 4750 
Q 3056 4750 3426 4639 
Q 3797 4528 4122 4306 
z
" transform="scale(0.015625)"/>
       <path id="DejaVuSans-54" d="M -19 4666 
L 3928 4666 
L 3928 4134 
L 2272 4134 
L 2272 0 
L 1638 0 
L 1638 4134 
L -19 4134 
L -19 4666 
z
" transform="scale(0.015625)"/>
       <path id="DejaVuSans-58" d="M 403 4666 
L 1081 4666 
L 2241 2931 
L 3406 4666 
L 4084 4666 
L 2584 2425 
L 4184 0 
L 3506 0 
L 2194 1984 
L 872 0 
L 191 0 
L 1856 2491 
L 403 4666 
z
" transform="scale(0.015625)"/>
       <path id="DejaVuSans-20" transform="scale(0.015625)"/>
       <path id="DejaVuSans-45" d="M 628 4666 
L 3578 4666 
L 3578 4134 
L 1259 4134 
L 1259 2753 
L 3481 2753 
L 3481 2222 
L 1259 2222 
L 1259 531 
L 3634 531 
L 3634 0 
L 628 0 
L 628 4666 
z
" transform="scale(0.015625)"/>
       <path id="DejaVuSans-70" d="M 1159 525 
L 1159 -1331 
L 581 -1331 
L 581 3500 
L 1159 3500 
L 1159 2969 
Q 1341 3281 1617 3432 
Q 1894 3584 2278 3584 
Q 2916 3584 3314 3078 
Q 3713 2572 3713 1747 
Q 3713 922 3314 415 
Q 2916 -91 2278 -91 
Q 1894 -91 1617 61 
Q 1341 213 1159 525 
z
M 3116 1747 
Q 3116 2381 2855 2742 
Q 2594 3103 2138 3103 
Q 1681 3103 1420 2742 
Q 1159 2381 1159 1747 
Q 1159 1113 1420 752 
Q 1681 391 2138 391 
Q 2594 391 2855 752 
Q 3116 1113 3116 1747 
z
" transform="scale(0.015625)"/>
       <path id="DejaVuSans-6f" d="M 1959 3097 
Q 1497 3097 1228 2736 
Q 959 2375 959 1747 
Q 959 1119 1226 758 
Q 1494 397 1959 397 
Q 2419 397 2687 759 
Q 2956 1122 2956 1747 
Q 2956 2369 2687 2733 
Q 2419 3097 1959 3097 
z
M 1959 3584 
Q 2709 3584 3137 3096 
Q 3566 2609 3566 1747 
Q 3566 888 3137 398 
Q 2709 -91 1959 -91 
Q 1206 -91 779 398 
Q 353 888 353 1747 
Q 353 2609 779 3096 
Q 1206 3584 1959 3584 
z
" transform="scale(0.015625)"/>
      </defs>
      <use xlink:href="#DejaVuSans-43"/>
      <use xlink:href="#DejaVuSans-54" transform="translate(69.824219 0)"/>
      <use xlink:href="#DejaVuSans-58" transform="translate(130.908203 0)"/>
      <use xlink:href="#DejaVuSans-20" transform="translate(199.414062 0)"/>
      <use xlink:href="#DejaVuSans-45" transform="translate(231.201172 0)"/>
      <use xlink:href="#DejaVuSans-70" transform="translate(294.384766 0)"/>
      <use xlink:href="#DejaVuSans-69" transform="translate(357.861328 0)"/>
      <use xlink:href="#DejaVuSans-73" transform="translate(385.644531 0)"/>
      <use xlink:href="#DejaVuSans-6f" transform="translate(437.744141 0)"/>
      <use xlink:href="#DejaVuSans-64" transform="translate(498.925781 0)"/>
      <use xlink:href="#DejaVuSans-65" transform="translate(562.402344 0)"/>
     </g>
     <!-- Max. Selectivity -->
     <g transform="translate(50.123 176.027695) rotate(-90) scale(0.2 -0.2)">
      <defs>
       <path id="DejaVuSans-4d" d="M 628 4666 
L 1569 4666 
L 2759 1491 
L 3956 4666 
L 4897 4666 
L 4897 0 
L 4281 0 
L 4281 4097 
L 3078 897 
L 2444 897 
L 1241 4097 
L 1241 0 
L 628 0 
L 628 4666 
z
" transform="scale(0.015625)"/>
       <path id="DejaVuSans-78" d="M 3513 3500 
L 2247 1797 
L 3578 0 
L 2900 0 
L 1881 1375 
L 863 0 
L 184 0 
L 1544 1831 
L 300 3500 
L 978 3500 
L 1906 2253 
L 2834 3500 
L 3513 3500 
z
" transform="scale(0.015625)"/>
       <path id="DejaVuSans-53" d="M 3425 4513 
L 3425 3897 
Q 3066 4069 2747 4153 
Q 2428 4238 2131 4238 
Q 1616 4238 1336 4038 
Q 1056 3838 1056 3469 
Q 1056 3159 1242 3001 
Q 1428 2844 1947 2747 
L 2328 2669 
Q 3034 2534 3370 2195 
Q 3706 1856 3706 1288 
Q 3706 609 3251 259 
Q 2797 -91 1919 -91 
Q 1588 -91 1214 -16 
Q 841 59 441 206 
L 441 856 
Q 825 641 1194 531 
Q 1563 422 1919 422 
Q 2459 422 2753 634 
Q 3047 847 3047 1241 
Q 3047 1584 2836 1778 
Q 2625 1972 2144 2069 
L 1759 2144 
Q 1053 2284 737 2584 
Q 422 2884 422 3419 
Q 422 4038 858 4394 
Q 1294 4750 2059 4750 
Q 2388 4750 2728 4690 
Q 3069 4631 3425 4513 
z
" transform="scale(0.015625)"/>
       <path id="DejaVuSans-76" d="M 191 3500 
L 800 3500 
L 1894 563 
L 2988 3500 
L 3597 3500 
L 2284 0 
L 1503 0 
L 191 3500 
z
" transform="scale(0.015625)"/>
       <path id="DejaVuSans-79" d="M 2059 -325 
Q 1816 -950 1584 -1140 
Q 1353 -1331 966 -1331 
L 506 -1331 
L 506 -850 
L 844 -850 
Q 1081 -850 1212 -737 
Q 1344 -625 1503 -206 
L 1606 56 
L 191 3500 
L 800 3500 
L 1894 763 
L 2988 3500 
L 3597 3500 
L 2059 -325 
z
" transform="scale(0.015625)"/>
      </defs>
      <use xlink:href="#DejaVuSans-4d"/>
      <use xlink:href="#DejaVuSans-61" transform="translate(86.279297 0)"/>
      <use xlink:href="#DejaVuSans-78" transform="translate(147.558594 0)"/>
      <use xlink:href="#DejaVuSans-2e" transform="translate(206.738281 0)"/>
      <use xlink:href="#DejaVuSans-20" transform="translate(238.525391 0)"/>
      <use xlink:href="#DejaVuSans-53" transform="translate(270.3125 0)"/>
      <use xlink:href="#DejaVuSans-65" transform="translate(333.789062 0)"/>
      <use xlink:href="#DejaVuSans-6c" transform="translate(395.3125 0)"/>
      <use xlink:href="#DejaVuSans-65" transform="translate(423.095703 0)"/>
      <use xlink:href="#DejaVuSans-63" transform="translate(484.619141 0)"/>
      <use xlink:href="#DejaVuSans-74" transform="translate(539.599609 0)"/>
      <use xlink:href="#DejaVuSans-69" transform="translate(578.808594 0)"/>
      <use xlink:href="#DejaVuSans-76" transform="translate(606.591797 0)"/>
      <use xlink:href="#DejaVuSans-69" transform="translate(665.771484 0)"/>
      <use xlink:href="#DejaVuSans-74" transform="translate(693.554688 0)"/>
      <use xlink:href="#DejaVuSans-79" transform="translate(732.763672 0)"/>
     </g>
    </g>
   </g>
   <g id="line2d_6">
    <path d="M 130.359051 39.822792 
L 130.359051 24.388978 
L 204.748949 24.388978 
L 204.748949 39.822792 
" style="fill: none; stroke: #000000; stroke-width: 2; stroke-linecap: square"/>
   </g>
   <g id="patch_3">
    <path d="M 93.908 172.075081 
L 93.908 21.586559 
" style="fill: none; stroke: #000000; stroke-width: 0.8; stroke-linejoin: miter; stroke-linecap: square"/>
   </g>
   <g id="patch_4">
    <path d="M 93.908 172.075081 
L 241.2 172.075081 
" style="fill: none; stroke: #000000; stroke-width: 0.8; stroke-linejoin: miter; stroke-linecap: square"/>
   </g>
   <g id="PathCollection_1">
    <defs>
     <path id="m05ec795a3c" d="M 0 1.5 
C 0.397805 1.5 0.77937 1.341951 1.06066 1.06066 
C 1.341951 0.77937 1.5 0.397805 1.5 0 
C 1.5 -0.397805 1.341951 -0.77937 1.06066 -1.06066 
C 0.77937 -1.341951 0.397805 -1.5 0 -1.5 
C -0.397805 -1.5 -0.77937 -1.341951 -1.06066 -1.06066 
C -1.341951 -0.77937 -1.5 -0.397805 -1.5 0 
C -1.5 0.397805 -1.341951 0.77937 -1.06066 1.06066 
C -0.77937 1.341951 -0.397805 1.5 0 1.5 
z
"/>
    </defs>
    <g clip-path="url(#pd15ddc6065)">
     <use xlink:href="#m05ec795a3c" x="127.889961" y="49.404299" style="fill-opacity: 0.05"/>
     <use xlink:href="#m05ec795a3c" x="136.915017" y="50.908249" style="fill-opacity: 0.05"/>
     <use xlink:href="#m05ec795a3c" x="115.484474" y="49.31236" style="fill-opacity: 0.05"/>
     <use xlink:href="#m05ec795a3c" x="124.477267" y="48.991543" style="fill-opacity: 0.05"/>
     <use xlink:href="#m05ec795a3c" x="119.847933" y="48.724948" style="fill-opacity: 0.05"/>
     <use xlink:href="#m05ec795a3c" x="118.228694" y="48.825926" style="fill-opacity: 0.05"/>
     <use xlink:href="#m05ec795a3c" x="121.023422" y="49.268771" style="fill-opacity: 0.05"/>
     <use xlink:href="#m05ec795a3c" x="125.763562" y="49.392547" style="fill-opacity: 0.05"/>
     <use xlink:href="#m05ec795a3c" x="127.287268" y="51.46364" style="fill-opacity: 0.05"/>
     <use xlink:href="#m05ec795a3c" x="131.51408" y="50.374699" style="fill-opacity: 0.05"/>
     <use xlink:href="#m05ec795a3c" x="127.954606" y="49.475854" style="fill-opacity: 0.05"/>
     <use xlink:href="#m05ec795a3c" x="135.870434" y="56.392463" style="fill-opacity: 0.05"/>
     <use xlink:href="#m05ec795a3c" x="121.564744" y="50.780809" style="fill-opacity: 0.05"/>
     <use xlink:href="#m05ec795a3c" x="141.610298" y="50.136799" style="fill-opacity: 0.05"/>
     <use xlink:href="#m05ec795a3c" x="116.296015" y="51.996347" style="fill-opacity: 0.05"/>
     <use xlink:href="#m05ec795a3c" x="135.431475" y="51.016364" style="fill-opacity: 0.05"/>
     <use xlink:href="#m05ec795a3c" x="127.898376" y="49.792094" style="fill-opacity: 0.05"/>
     <use xlink:href="#m05ec795a3c" x="132.105423" y="54.382538" style="fill-opacity: 0.05"/>
     <use xlink:href="#m05ec795a3c" x="119.658419" y="50.436664" style="fill-opacity: 0.05"/>
     <use xlink:href="#m05ec795a3c" x="121.375771" y="49.70743" style="fill-opacity: 0.05"/>
    </g>
   </g>
   <g id="PathCollection_2">
    <g clip-path="url(#pd15ddc6065)">
     <use xlink:href="#m05ec795a3c" x="213.697893" y="65.624574" style="fill-opacity: 0.05"/>
     <use xlink:href="#m05ec795a3c" x="218.682522" y="77.188915" style="fill-opacity: 0.05"/>
     <use xlink:href="#m05ec795a3c" x="199.197207" y="73.634279" style="fill-opacity: 0.05"/>
     <use xlink:href="#m05ec795a3c" x="210.471693" y="68.910032" style="fill-opacity: 0.05"/>
     <use xlink:href="#m05ec795a3c" x="215.94877" y="69.5169" style="fill-opacity: 0.05"/>
     <use xlink:href="#m05ec795a3c" x="216.490849" y="69.223267" style="fill-opacity: 0.05"/>
     <use xlink:href="#m05ec795a3c" x="192.401542" y="73.803208" style="fill-opacity: 0.05"/>
     <use xlink:href="#m05ec795a3c" x="191.033082" y="74.079516" style="fill-opacity: 0.05"/>
     <use xlink:href="#m05ec795a3c" x="194.924437" y="65.764181" style="fill-opacity: 0.05"/>
     <use xlink:href="#m05ec795a3c" x="216.000943" y="69.946529" style="fill-opacity: 0.05"/>
     <use xlink:href="#m05ec795a3c" x="192.797374" y="69.884572" style="fill-opacity: 0.05"/>
     <use xlink:href="#m05ec795a3c" x="202.401431" y="79.777965" style="fill-opacity: 0.05"/>
     <use xlink:href="#m05ec795a3c" x="218.373892" y="67.68541" style="fill-opacity: 0.05"/>
     <use xlink:href="#m05ec795a3c" x="205.735814" y="73.532052" style="fill-opacity: 0.05"/>
     <use xlink:href="#m05ec795a3c" x="210.458437" y="80.437361" style="fill-opacity: 0.05"/>
     <use xlink:href="#m05ec795a3c" x="199.25944" y="77.422898" style="fill-opacity: 0.05"/>
     <use xlink:href="#m05ec795a3c" x="210.298464" y="73.375779" style="fill-opacity: 0.05"/>
     <use xlink:href="#m05ec795a3c" x="214.706057" y="77.519636" style="fill-opacity: 0.05"/>
     <use xlink:href="#m05ec795a3c" x="190.415155" y="63.280738" style="fill-opacity: 0.05"/>
     <use xlink:href="#m05ec795a3c" x="212.192234" y="68.065547" style="fill-opacity: 0.05"/>
    </g>
   </g>
   <g id="text_7">
    <!-- *** -->
    <g transform="translate(155.554 21.061478) scale(0.16 -0.16)">
     <defs>
      <path id="DejaVuSans-2a" d="M 3009 3897 
L 1888 3291 
L 3009 2681 
L 2828 2375 
L 1778 3009 
L 1778 1831 
L 1422 1831 
L 1422 3009 
L 372 2375 
L 191 2681 
L 1313 3291 
L 191 3897 
L 372 4206 
L 1422 3572 
L 1422 4750 
L 1778 4750 
L 1778 3572 
L 2828 4206 
L 3009 3897 
z
" transform="scale(0.015625)"/>
     </defs>
     <use xlink:href="#DejaVuSans-2a"/>
     <use xlink:href="#DejaVuSans-2a" transform="translate(50 0)"/>
     <use xlink:href="#DejaVuSans-2a" transform="translate(100 0)"/>
    </g>
   </g>
   <g id="LineCollection_1">
    <path d="M 130.359051 50.966442 
L 130.359051 50.111999 
" clip-path="url(#pd15ddc6065)" style="fill: none; stroke: #000000; stroke-width: 2"/>
    <path d="M 204.748949 73.027479 
L 204.748949 70.839832 
" clip-path="url(#pd15ddc6065)" style="fill: none; stroke: #000000; stroke-width: 2"/>
   </g>
   <g id="line2d_7">
    <defs>
     <path id="mce40b4336d" d="M 5 0 
L -5 -0 
" style="stroke: #000000"/>
    </defs>
    <g clip-path="url(#pd15ddc6065)">
     <use xlink:href="#mce40b4336d" x="130.359051" y="50.966442" style="stroke: #000000"/>
     <use xlink:href="#mce40b4336d" x="204.748949" y="73.027479" style="stroke: #000000"/>
    </g>
   </g>
   <g id="line2d_8">
    <g clip-path="url(#pd15ddc6065)">
     <use xlink:href="#mce40b4336d" x="130.359051" y="50.111999" style="stroke: #000000"/>
     <use xlink:href="#mce40b4336d" x="204.748949" y="70.839832" style="stroke: #000000"/>
    </g>
   </g>
   <g id="line2d_9">
    <defs>
     <path id="m17ac6820d5" d="M 0 3 
C 0.795609 3 1.55874 2.683901 2.12132 2.12132 
C 2.683901 1.55874 3 0.795609 3 0 
C 3 -0.795609 2.683901 -1.55874 2.12132 -2.12132 
C 1.55874 -2.683901 0.795609 -3 0 -3 
C -0.795609 -3 -1.55874 -2.683901 -2.12132 -2.12132 
C -2.683901 -1.55874 -3 -0.795609 -3 0 
C -3 0.795609 -2.683901 1.55874 -2.12132 2.12132 
C -1.55874 2.683901 -0.795609 3 0 3 
z
" style="stroke: #000000"/>
    </defs>
    <g clip-path="url(#pd15ddc6065)">
     <use xlink:href="#m17ac6820d5" x="130.359051" y="50.539221" style="stroke: #000000"/>
     <use xlink:href="#m17ac6820d5" x="204.748949" y="71.933656" style="stroke: #000000"/>
    </g>
   </g>
  </g>
 </g>
 <defs>
  <clipPath id="pd15ddc6065">
   <rect x="93.908" y="21.586559" width="147.292" height="150.488522"/>
  </clipPath>
 </defs>
</svg>
