<?xml version="1.0" encoding="utf-8" standalone="no"?>
<!DOCTYPE svg PUBLIC "-//W3C//DTD SVG 1.1//EN"
  "http://www.w3.org/Graphics/SVG/1.1/DTD/svg11.dtd">
<svg xmlns:xlink="http://www.w3.org/1999/xlink" width="252pt" height="252pt" viewBox="0 0 252 252" xmlns="http://www.w3.org/2000/svg" version="1.1">
 <metadata>
  <rdf:RDF xmlns:dc="http://purl.org/dc/elements/1.1/" xmlns:cc="http://creativecommons.org/ns#" xmlns:rdf="http://www.w3.org/1999/02/22-rdf-syntax-ns#">
   <cc:Work>
    <dc:type rdf:resource="http://purl.org/dc/dcmitype/StillImage"/>
    <dc:date>2025-10-02T13:09:07.410663</dc:date>
    <dc:format>image/svg+xml</dc:format>
    <dc:creator>
     <cc:Agent>
      <dc:title>Matplotlib v3.10.1, https://matplotlib.org/</dc:title>
     </cc:Agent>
    </dc:creator>
   </cc:Work>
  </rdf:RDF>
 </metadata>
 <defs>
  <style type="text/css">*{stroke-linejoin: round; stroke-linecap: butt}</style>
 </defs>
 <g id="figure_1">
  <g id="patch_1">
   <path d="M 0 252 
L 252 252 
L 252 0 
L 0 0 
L 0 252 
z
" style="fill: none"/>
  </g>
  <g id="axes_1">
   <g id="patch_2">
    <path d="M 93.908 172.075081 
L 241.2 172.075081 
L 241.2 21.853293 
L 93.908 21.853293 
L 93.908 172.075081 
z
" style="fill: none"/>
   </g>
   <g id="FillBetweenPolyCollection_1">
    <defs>
     <path id="m0aad14a714" d="M 133.180521 -195.865232 
L 127.53758 -195.865232 
L 127.472428 -195.939575 
L 127.413857 -196.013919 
L 127.361788 -196.088262 
L 127.316072 -196.162606 
L 127.276493 -196.236949 
L 127.242796 -196.311292 
L 127.214695 -196.385636 
L 127.191896 -196.459979 
L 127.174108 -196.534323 
L 127.161056 -196.608666 
L 127.15249 -196.683009 
L 127.148189 -196.757353 
L 127.147963 -196.831696 
L 127.151647 -196.90604 
L 127.159094 -196.980383 
L 127.170159 -197.054727 
L 127.184685 -197.12907 
L 127.202481 -197.203413 
L 127.223304 -197.277757 
L 127.24683 -197.3521 
L 127.272634 -197.426444 
L 127.300171 -197.500787 
L 127.32875 -197.575131 
L 127.357526 -197.649474 
L 127.385479 -197.723817 
L 127.411413 -197.798161 
L 127.433953 -197.872504 
L 127.451546 -197.946848 
L 127.462473 -198.021191 
L 127.464865 -198.095535 
L 127.45672 -198.169878 
L 127.43593 -198.244221 
L 127.400307 -198.318565 
L 127.34762 -198.392908 
L 127.275623 -198.467252 
L 127.182093 -198.541595 
L 127.064865 -198.615939 
L 126.921867 -198.690282 
L 126.75115 -198.764625 
L 126.550924 -198.838969 
L 126.319582 -198.913312 
L 126.055728 -198.987656 
L 125.758194 -199.061999 
L 125.42606 -199.136342 
L 125.058666 -199.210686 
L 124.65562 -199.285029 
L 124.216803 -199.359373 
L 123.742371 -199.433716 
L 123.232751 -199.50806 
L 122.688635 -199.582403 
L 122.110971 -199.656746 
L 121.500953 -199.73109 
L 120.860007 -199.805433 
L 120.189776 -199.879777 
L 119.492108 -199.95412 
L 118.769034 -200.028464 
L 118.022758 -200.102807 
L 117.255639 -200.17715 
L 116.470178 -200.251494 
L 115.669007 -200.325837 
L 114.854879 -200.400181 
L 114.03066 -200.474524 
L 113.199324 -200.548868 
L 112.363953 -200.623211 
L 111.527734 -200.697554 
L 110.693969 -200.771898 
L 109.866074 -200.846241 
L 109.047593 -200.920585 
L 108.242197 -200.994928 
L 107.453702 -201.069271 
L 106.686067 -201.143615 
L 105.943399 -201.217958 
L 105.229955 -201.292302 
L 104.550132 -201.366645 
L 103.908454 -201.440989 
L 103.30955 -201.515332 
L 102.758124 -201.589675 
L 102.258911 -201.664019 
L 101.816629 -201.738362 
L 101.435914 -201.812706 
L 101.121255 -201.887049 
L 100.876909 -201.961393 
L 100.706821 -202.035736 
L 100.614533 -202.110079 
L 100.603091 -202.184423 
L 100.674959 -202.258766 
L 100.831932 -202.33311 
L 101.075057 -202.407453 
L 101.404567 -202.481797 
L 101.819828 -202.55614 
L 102.319302 -202.630483 
L 102.900525 -202.704827 
L 103.560115 -202.77917 
L 104.293787 -202.853514 
L 105.096402 -202.927857 
L 105.962027 -203.0022 
L 106.884024 -203.076544 
L 107.855144 -203.150887 
L 108.867646 -203.225231 
L 151.850455 -203.225231 
L 151.850455 -203.225231 
L 152.862957 -203.150887 
L 153.834077 -203.076544 
L 154.756074 -203.0022 
L 155.621699 -202.927857 
L 156.424314 -202.853514 
L 157.157986 -202.77917 
L 157.817576 -202.704827 
L 158.398799 -202.630483 
L 158.898273 -202.55614 
L 159.313534 -202.481797 
L 159.643044 -202.407453 
L 159.886169 -202.33311 
L 160.043142 -202.258766 
L 160.11501 -202.184423 
L 160.103568 -202.110079 
L 160.01128 -202.035736 
L 159.841192 -201.961393 
L 159.596846 -201.887049 
L 159.282187 -201.812706 
L 158.901472 -201.738362 
L 158.45919 -201.664019 
L 157.959977 -201.589675 
L 157.408551 -201.515332 
L 156.809647 -201.440989 
L 156.167969 -201.366645 
L 155.488146 -201.292302 
L 154.774702 -201.217958 
L 154.032034 -201.143615 
L 153.264399 -201.069271 
L 152.475904 -200.994928 
L 151.670508 -200.920585 
L 150.852027 -200.846241 
L 150.024132 -200.771898 
L 149.190367 -200.697554 
L 148.354148 -200.623211 
L 147.518777 -200.548868 
L 146.687441 -200.474524 
L 145.863222 -200.400181 
L 145.049094 -200.325837 
L 144.247923 -200.251494 
L 143.462462 -200.17715 
L 142.695343 -200.102807 
L 141.949067 -200.028464 
L 141.225993 -199.95412 
L 140.528325 -199.879777 
L 139.858094 -199.805433 
L 139.217148 -199.73109 
L 138.60713 -199.656746 
L 138.029466 -199.582403 
L 137.48535 -199.50806 
L 136.97573 -199.433716 
L 136.501298 -199.359373 
L 136.062481 -199.285029 
L 135.659435 -199.210686 
L 135.292041 -199.136342 
L 134.959907 -199.061999 
L 134.662373 -198.987656 
L 134.398519 -198.913312 
L 134.167177 -198.838969 
L 133.966951 -198.764625 
L 133.796234 -198.690282 
L 133.653236 -198.615939 
L 133.536008 -198.541595 
L 133.442478 -198.467252 
L 133.370481 -198.392908 
L 133.317794 -198.318565 
L 133.282171 -198.244221 
L 133.261381 -198.169878 
L 133.253236 -198.095535 
L 133.255628 -198.021191 
L 133.266555 -197.946848 
L 133.284148 -197.872504 
L 133.306688 -197.798161 
L 133.332622 -197.723817 
L 133.360575 -197.649474 
L 133.389351 -197.575131 
L 133.41793 -197.500787 
L 133.445467 -197.426444 
L 133.471271 -197.3521 
L 133.494797 -197.277757 
L 133.51562 -197.203413 
L 133.533416 -197.12907 
L 133.547942 -197.054727 
L 133.559007 -196.980383 
L 133.566454 -196.90604 
L 133.570138 -196.831696 
L 133.569912 -196.757353 
L 133.565611 -196.683009 
L 133.557045 -196.608666 
L 133.543993 -196.534323 
L 133.526205 -196.459979 
L 133.503406 -196.385636 
L 133.475305 -196.311292 
L 133.441608 -196.236949 
L 133.402029 -196.162606 
L 133.356313 -196.088262 
L 133.304245 -196.013919 
L 133.245673 -195.939575 
L 133.180521 -195.865232 
z
" style="stroke: #484848; stroke-opacity: 0.9; stroke-width: 1.25"/>
    </defs>
    <g clip-path="url(#p35c5a5b6a5)">
     <use xlink:href="#m0aad14a714" x="0" y="252" style="fill: #d86743; fill-opacity: 0.9; stroke: #484848; stroke-opacity: 0.9; stroke-width: 1.25"/>
    </g>
   </g>
   <g id="FillBetweenPolyCollection_2">
    <defs>
     <path id="mbcadec5182" d="M 223.553254 -175.736716 
L 185.944645 -175.736716 
L 185.337751 -175.877432 
L 184.750963 -176.018149 
L 184.185923 -176.158865 
L 183.644045 -176.299582 
L 183.126503 -176.440298 
L 182.634228 -176.581015 
L 182.167904 -176.721731 
L 181.727968 -176.862448 
L 181.314621 -177.003164 
L 180.927832 -177.143881 
L 180.56735 -177.284597 
L 180.232722 -177.425314 
L 179.923306 -177.56603 
L 179.638291 -177.706747 
L 179.376716 -177.847463 
L 179.137488 -177.98818 
L 178.919405 -178.128896 
L 178.721176 -178.269613 
L 178.541438 -178.410329 
L 178.378774 -178.551046 
L 178.231734 -178.691762 
L 178.098849 -178.832479 
L 177.978644 -178.973195 
L 177.869653 -179.113912 
L 177.770431 -179.254628 
L 177.679561 -179.395345 
L 177.59567 -179.536061 
L 177.517428 -179.676778 
L 177.443564 -179.817495 
L 177.372867 -179.958211 
L 177.304196 -180.098928 
L 177.236485 -180.239644 
L 177.168751 -180.380361 
L 177.100096 -180.521077 
L 177.029723 -180.661794 
L 176.956933 -180.80251 
L 176.881142 -180.943227 
L 176.80188 -181.083943 
L 176.718807 -181.22466 
L 176.631714 -181.365376 
L 176.540533 -181.506093 
L 176.445343 -181.646809 
L 176.346374 -181.787526 
L 176.244012 -181.928242 
L 176.138798 -182.068959 
L 176.031431 -182.209675 
L 175.922762 -182.350392 
L 175.813792 -182.491108 
L 175.70566 -182.631825 
L 175.599637 -182.772541 
L 175.497109 -182.913258 
L 175.399563 -183.053974 
L 175.308566 -183.194691 
L 175.225751 -183.335407 
L 175.152789 -183.476124 
L 175.091367 -183.61684 
L 175.043168 -183.757557 
L 175.009843 -183.898273 
L 174.99299 -184.03899 
L 174.994131 -184.179706 
L 175.014691 -184.320423 
L 175.055977 -184.46114 
L 175.119167 -184.601856 
L 175.205289 -184.742573 
L 175.315214 -184.883289 
L 175.449649 -185.024006 
L 175.609131 -185.164722 
L 175.794028 -185.305439 
L 176.004536 -185.446155 
L 176.240691 -185.586872 
L 176.502372 -185.727588 
L 176.78931 -185.868305 
L 177.101105 -186.009021 
L 177.437234 -186.149738 
L 177.797065 -186.290454 
L 178.179875 -186.431171 
L 178.584863 -186.571887 
L 179.011159 -186.712604 
L 179.457845 -186.85332 
L 179.923957 -186.994037 
L 180.408504 -187.134753 
L 180.91047 -187.27547 
L 181.428821 -187.416186 
L 181.962512 -187.556903 
L 182.510488 -187.697619 
L 183.071685 -187.838336 
L 183.645027 -187.979052 
L 184.229431 -188.119769 
L 184.823794 -188.260485 
L 185.427001 -188.401202 
L 186.037911 -188.541918 
L 186.655361 -188.682635 
L 187.278158 -188.823351 
L 187.905081 -188.964068 
L 188.534874 -189.104785 
L 189.166251 -189.245501 
L 189.797895 -189.386218 
L 190.428462 -189.526934 
L 191.056583 -189.667651 
L 218.441316 -189.667651 
L 218.441316 -189.667651 
L 219.069437 -189.526934 
L 219.700004 -189.386218 
L 220.331648 -189.245501 
L 220.963025 -189.104785 
L 221.592818 -188.964068 
L 222.219741 -188.823351 
L 222.842538 -188.682635 
L 223.459988 -188.541918 
L 224.070898 -188.401202 
L 224.674105 -188.260485 
L 225.268468 -188.119769 
L 225.852872 -187.979052 
L 226.426214 -187.838336 
L 226.987411 -187.697619 
L 227.535387 -187.556903 
L 228.069078 -187.416186 
L 228.587429 -187.27547 
L 229.089394 -187.134753 
L 229.573942 -186.994037 
L 230.040054 -186.85332 
L 230.48674 -186.712604 
L 230.913036 -186.571887 
L 231.318024 -186.431171 
L 231.700834 -186.290454 
L 232.060665 -186.149738 
L 232.396794 -186.009021 
L 232.708589 -185.868305 
L 232.995527 -185.727588 
L 233.257208 -185.586872 
L 233.493363 -185.446155 
L 233.703871 -185.305439 
L 233.888768 -185.164722 
L 234.04825 -185.024006 
L 234.182685 -184.883289 
L 234.29261 -184.742573 
L 234.378732 -184.601856 
L 234.441922 -184.46114 
L 234.483208 -184.320423 
L 234.503768 -184.179706 
L 234.504909 -184.03899 
L 234.488056 -183.898273 
L 234.454731 -183.757557 
L 234.406532 -183.61684 
L 234.34511 -183.476124 
L 234.272148 -183.335407 
L 234.189333 -183.194691 
L 234.098336 -183.053974 
L 234.00079 -182.913258 
L 233.898262 -182.772541 
L 233.792239 -182.631825 
L 233.684107 -182.491108 
L 233.575137 -182.350392 
L 233.466468 -182.209675 
L 233.359101 -182.068959 
L 233.253887 -181.928242 
L 233.151525 -181.787526 
L 233.052556 -181.646809 
L 232.957366 -181.506093 
L 232.866185 -181.365376 
L 232.779092 -181.22466 
L 232.696019 -181.083943 
L 232.616757 -180.943227 
L 232.540966 -180.80251 
L 232.468176 -180.661794 
L 232.397803 -180.521077 
L 232.329148 -180.380361 
L 232.261413 -180.239644 
L 232.193703 -180.098928 
L 232.125032 -179.958211 
L 232.054335 -179.817495 
L 231.980471 -179.676778 
L 231.902229 -179.536061 
L 231.818338 -179.395345 
L 231.727468 -179.254628 
L 231.628246 -179.113912 
L 231.519255 -178.973195 
L 231.39905 -178.832479 
L 231.266165 -178.691762 
L 231.119125 -178.551046 
L 230.956461 -178.410329 
L 230.776723 -178.269613 
L 230.578494 -178.128896 
L 230.360411 -177.98818 
L 230.121183 -177.847463 
L 229.859608 -177.706747 
L 229.574593 -177.56603 
L 229.265177 -177.425314 
L 228.930549 -177.284597 
L 228.570067 -177.143881 
L 228.183278 -177.003164 
L 227.769931 -176.862448 
L 227.329995 -176.721731 
L 226.863671 -176.581015 
L 226.371396 -176.440298 
L 225.853854 -176.299582 
L 225.311976 -176.158865 
L 224.746936 -176.018149 
L 224.160148 -175.877432 
L 223.553254 -175.736716 
z
" style="stroke: #484848; stroke-opacity: 0.9; stroke-width: 1.25"/>
    </defs>
    <g clip-path="url(#p35c5a5b6a5)">
     <use xlink:href="#mbcadec5182" x="0" y="252" style="fill: #1ea0d1; fill-opacity: 0.9; stroke: #484848; stroke-opacity: 0.9; stroke-width: 1.25"/>
    </g>
   </g>
   <g id="matplotlib.axis_1">
    <g id="xtick_1">
     <g id="line2d_1">
      <defs>
       <path id="m5d5ccd412f" d="M 0 0 
L 0 3.5 
" style="stroke: #000000; stroke-width: 0.8"/>
      </defs>
      <g>
       <use xlink:href="#m5d5ccd412f" x="130.359051" y="172.075081" style="stroke: #000000; stroke-width: 0.8"/>
      </g>
     </g>
     <g id="text_1">
      <!-- intact -->
      <g transform="translate(110.56439 216.644404) rotate(-30) scale(0.18 -0.18)">
       <defs>
        <path id="DejaVuSans-69" d="M 603 3500 
L 1178 3500 
L 1178 0 
L 603 0 
L 603 3500 
z
M 603 4863 
L 1178 4863 
L 1178 4134 
L 603 4134 
L 603 4863 
z
" transform="scale(0.015625)"/>
        <path id="DejaVuSans-6e" d="M 3513 2113 
L 3513 0 
L 2938 0 
L 2938 2094 
Q 2938 2591 2744 2837 
Q 2550 3084 2163 3084 
Q 1697 3084 1428 2787 
Q 1159 2491 1159 1978 
L 1159 0 
L 581 0 
L 581 3500 
L 1159 3500 
L 1159 2956 
Q 1366 3272 1645 3428 
Q 1925 3584 2291 3584 
Q 2894 3584 3203 3211 
Q 3513 2838 3513 2113 
z
" transform="scale(0.015625)"/>
        <path id="DejaVuSans-74" d="M 1172 4494 
L 1172 3500 
L 2356 3500 
L 2356 3053 
L 1172 3053 
L 1172 1153 
Q 1172 725 1289 603 
Q 1406 481 1766 481 
L 2356 481 
L 2356 0 
L 1766 0 
Q 1100 0 847 248 
Q 594 497 594 1153 
L 594 3053 
L 172 3053 
L 172 3500 
L 594 3500 
L 594 4494 
L 1172 4494 
z
" transform="scale(0.015625)"/>
        <path id="DejaVuSans-61" d="M 2194 1759 
Q 1497 1759 1228 1600 
Q 959 1441 959 1056 
Q 959 750 1161 570 
Q 1363 391 1709 391 
Q 2188 391 2477 730 
Q 2766 1069 2766 1631 
L 2766 1759 
L 2194 1759 
z
M 3341 1997 
L 3341 0 
L 2766 0 
L 2766 531 
Q 2569 213 2275 61 
Q 1981 -91 1556 -91 
Q 1019 -91 701 211 
Q 384 513 384 1019 
Q 384 1609 779 1909 
Q 1175 2209 1959 2209 
L 2766 2209 
L 2766 2266 
Q 2766 2663 2505 2880 
Q 2244 3097 1772 3097 
Q 1472 3097 1187 3025 
Q 903 2953 641 2809 
L 641 3341 
Q 956 3463 1253 3523 
Q 1550 3584 1831 3584 
Q 2591 3584 2966 3190 
Q 3341 2797 3341 1997 
z
" transform="scale(0.015625)"/>
        <path id="DejaVuSans-63" d="M 3122 3366 
L 3122 2828 
Q 2878 2963 2633 3030 
Q 2388 3097 2138 3097 
Q 1578 3097 1268 2742 
Q 959 2388 959 1747 
Q 959 1106 1268 751 
Q 1578 397 2138 397 
Q 2388 397 2633 464 
Q 2878 531 3122 666 
L 3122 134 
Q 2881 22 2623 -34 
Q 2366 -91 2075 -91 
Q 1284 -91 818 406 
Q 353 903 353 1747 
Q 353 2603 823 3093 
Q 1294 3584 2113 3584 
Q 2378 3584 2631 3529 
Q 2884 3475 3122 3366 
z
" transform="scale(0.015625)"/>
       </defs>
       <use xlink:href="#DejaVuSans-69"/>
       <use xlink:href="#DejaVuSans-6e" transform="translate(27.783203 0)"/>
       <use xlink:href="#DejaVuSans-74" transform="translate(91.162109 0)"/>
       <use xlink:href="#DejaVuSans-61" transform="translate(130.371094 0)"/>
       <use xlink:href="#DejaVuSans-63" transform="translate(191.650391 0)"/>
       <use xlink:href="#DejaVuSans-74" transform="translate(246.630859 0)"/>
      </g>
     </g>
    </g>
    <g id="xtick_2">
     <g id="line2d_2">
      <g>
       <use xlink:href="#m5d5ccd412f" x="204.748949" y="172.075081" style="stroke: #000000; stroke-width: 0.8"/>
      </g>
     </g>
     <g id="text_2">
      <!-- scrambled -->
      <g transform="translate(166.456393 238.003935) rotate(-30) scale(0.18 -0.18)">
       <defs>
        <path id="DejaVuSans-73" d="M 2834 3397 
L 2834 2853 
Q 2591 2978 2328 3040 
Q 2066 3103 1784 3103 
Q 1356 3103 1142 2972 
Q 928 2841 928 2578 
Q 928 2378 1081 2264 
Q 1234 2150 1697 2047 
L 1894 2003 
Q 2506 1872 2764 1633 
Q 3022 1394 3022 966 
Q 3022 478 2636 193 
Q 2250 -91 1575 -91 
Q 1294 -91 989 -36 
Q 684 19 347 128 
L 347 722 
Q 666 556 975 473 
Q 1284 391 1588 391 
Q 1994 391 2212 530 
Q 2431 669 2431 922 
Q 2431 1156 2273 1281 
Q 2116 1406 1581 1522 
L 1381 1569 
Q 847 1681 609 1914 
Q 372 2147 372 2553 
Q 372 3047 722 3315 
Q 1072 3584 1716 3584 
Q 2034 3584 2315 3537 
Q 2597 3491 2834 3397 
z
" transform="scale(0.015625)"/>
        <path id="DejaVuSans-72" d="M 2631 2963 
Q 2534 3019 2420 3045 
Q 2306 3072 2169 3072 
Q 1681 3072 1420 2755 
Q 1159 2438 1159 1844 
L 1159 0 
L 581 0 
L 581 3500 
L 1159 3500 
L 1159 2956 
Q 1341 3275 1631 3429 
Q 1922 3584 2338 3584 
Q 2397 3584 2469 3576 
Q 2541 3569 2628 3553 
L 2631 2963 
z
" transform="scale(0.015625)"/>
        <path id="DejaVuSans-6d" d="M 3328 2828 
Q 3544 3216 3844 3400 
Q 4144 3584 4550 3584 
Q 5097 3584 5394 3201 
Q 5691 2819 5691 2113 
L 5691 0 
L 5113 0 
L 5113 2094 
Q 5113 2597 4934 2840 
Q 4756 3084 4391 3084 
Q 3944 3084 3684 2787 
Q 3425 2491 3425 1978 
L 3425 0 
L 2847 0 
L 2847 2094 
Q 2847 2600 2669 2842 
Q 2491 3084 2119 3084 
Q 1678 3084 1418 2786 
Q 1159 2488 1159 1978 
L 1159 0 
L 581 0 
L 581 3500 
L 1159 3500 
L 1159 2956 
Q 1356 3278 1631 3431 
Q 1906 3584 2284 3584 
Q 2666 3584 2933 3390 
Q 3200 3197 3328 2828 
z
" transform="scale(0.015625)"/>
        <path id="DejaVuSans-62" d="M 3116 1747 
Q 3116 2381 2855 2742 
Q 2594 3103 2138 3103 
Q 1681 3103 1420 2742 
Q 1159 2381 1159 1747 
Q 1159 1113 1420 752 
Q 1681 391 2138 391 
Q 2594 391 2855 752 
Q 3116 1113 3116 1747 
z
M 1159 2969 
Q 1341 3281 1617 3432 
Q 1894 3584 2278 3584 
Q 2916 3584 3314 3078 
Q 3713 2572 3713 1747 
Q 3713 922 3314 415 
Q 2916 -91 2278 -91 
Q 1894 -91 1617 61 
Q 1341 213 1159 525 
L 1159 0 
L 581 0 
L 581 4863 
L 1159 4863 
L 1159 2969 
z
" transform="scale(0.015625)"/>
        <path id="DejaVuSans-6c" d="M 603 4863 
L 1178 4863 
L 1178 0 
L 603 0 
L 603 4863 
z
" transform="scale(0.015625)"/>
        <path id="DejaVuSans-65" d="M 3597 1894 
L 3597 1613 
L 953 1613 
Q 991 1019 1311 708 
Q 1631 397 2203 397 
Q 2534 397 2845 478 
Q 3156 559 3463 722 
L 3463 178 
Q 3153 47 2828 -22 
Q 2503 -91 2169 -91 
Q 1331 -91 842 396 
Q 353 884 353 1716 
Q 353 2575 817 3079 
Q 1281 3584 2069 3584 
Q 2775 3584 3186 3129 
Q 3597 2675 3597 1894 
z
M 3022 2063 
Q 3016 2534 2758 2815 
Q 2500 3097 2075 3097 
Q 1594 3097 1305 2825 
Q 1016 2553 972 2059 
L 3022 2063 
z
" transform="scale(0.015625)"/>
        <path id="DejaVuSans-64" d="M 2906 2969 
L 2906 4863 
L 3481 4863 
L 3481 0 
L 2906 0 
L 2906 525 
Q 2725 213 2448 61 
Q 2172 -91 1784 -91 
Q 1150 -91 751 415 
Q 353 922 353 1747 
Q 353 2572 751 3078 
Q 1150 3584 1784 3584 
Q 2172 3584 2448 3432 
Q 2725 3281 2906 2969 
z
M 947 1747 
Q 947 1113 1208 752 
Q 1469 391 1925 391 
Q 2381 391 2643 752 
Q 2906 1113 2906 1747 
Q 2906 2381 2643 2742 
Q 2381 3103 1925 3103 
Q 1469 3103 1208 2742 
Q 947 2381 947 1747 
z
" transform="scale(0.015625)"/>
       </defs>
       <use xlink:href="#DejaVuSans-73"/>
       <use xlink:href="#DejaVuSans-63" transform="translate(52.099609 0)"/>
       <use xlink:href="#DejaVuSans-72" transform="translate(107.080078 0)"/>
       <use xlink:href="#DejaVuSans-61" transform="translate(148.193359 0)"/>
       <use xlink:href="#DejaVuSans-6d" transform="translate(209.472656 0)"/>
       <use xlink:href="#DejaVuSans-62" transform="translate(306.884766 0)"/>
       <use xlink:href="#DejaVuSans-6c" transform="translate(370.361328 0)"/>
       <use xlink:href="#DejaVuSans-65" transform="translate(398.144531 0)"/>
       <use xlink:href="#DejaVuSans-64" transform="translate(459.667969 0)"/>
      </g>
     </g>
    </g>
   </g>
   <g id="matplotlib.axis_2">
    <g id="ytick_1">
     <g id="line2d_3">
      <defs>
       <path id="ma70d86667c" d="M 0 0 
L -3.5 0 
" style="stroke: #000000; stroke-width: 0.8"/>
      </defs>
      <g>
       <use xlink:href="#ma70d86667c" x="93.908" y="172.075081" style="stroke: #000000; stroke-width: 0.8"/>
      </g>
     </g>
     <g id="text_3">
      <!-- 0.0 -->
      <g transform="translate(58.282375 178.913675) scale(0.18 -0.18)">
       <defs>
        <path id="DejaVuSans-30" d="M 2034 4250 
Q 1547 4250 1301 3770 
Q 1056 3291 1056 2328 
Q 1056 1369 1301 889 
Q 1547 409 2034 409 
Q 2525 409 2770 889 
Q 3016 1369 3016 2328 
Q 3016 3291 2770 3770 
Q 2525 4250 2034 4250 
z
M 2034 4750 
Q 2819 4750 3233 4129 
Q 3647 3509 3647 2328 
Q 3647 1150 3233 529 
Q 2819 -91 2034 -91 
Q 1250 -91 836 529 
Q 422 1150 422 2328 
Q 422 3509 836 4129 
Q 1250 4750 2034 4750 
z
" transform="scale(0.015625)"/>
        <path id="DejaVuSans-2e" d="M 684 794 
L 1344 794 
L 1344 0 
L 684 0 
L 684 794 
z
" transform="scale(0.015625)"/>
       </defs>
       <use xlink:href="#DejaVuSans-30"/>
       <use xlink:href="#DejaVuSans-2e" transform="translate(63.623047 0)"/>
       <use xlink:href="#DejaVuSans-30" transform="translate(95.410156 0)"/>
      </g>
     </g>
    </g>
    <g id="ytick_2">
     <g id="line2d_4">
      <g>
       <use xlink:href="#ma70d86667c" x="93.908" y="107.793499" style="stroke: #000000; stroke-width: 0.8"/>
      </g>
     </g>
     <g id="text_4">
      <!-- 0.5 -->
      <g transform="translate(58.282375 114.632092) scale(0.18 -0.18)">
       <defs>
        <path id="DejaVuSans-35" d="M 691 4666 
L 3169 4666 
L 3169 4134 
L 1269 4134 
L 1269 2991 
Q 1406 3038 1543 3061 
Q 1681 3084 1819 3084 
Q 2600 3084 3056 2656 
Q 3513 2228 3513 1497 
Q 3513 744 3044 326 
Q 2575 -91 1722 -91 
Q 1428 -91 1123 -41 
Q 819 9 494 109 
L 494 744 
Q 775 591 1075 516 
Q 1375 441 1709 441 
Q 2250 441 2565 725 
Q 2881 1009 2881 1497 
Q 2881 1984 2565 2268 
Q 2250 2553 1709 2553 
Q 1456 2553 1204 2497 
Q 953 2441 691 2322 
L 691 4666 
z
" transform="scale(0.015625)"/>
       </defs>
       <use xlink:href="#DejaVuSans-30"/>
       <use xlink:href="#DejaVuSans-2e" transform="translate(63.623047 0)"/>
       <use xlink:href="#DejaVuSans-35" transform="translate(95.410156 0)"/>
      </g>
     </g>
    </g>
    <g id="ytick_3">
     <g id="line2d_5">
      <g>
       <use xlink:href="#ma70d86667c" x="93.908" y="43.511916" style="stroke: #000000; stroke-width: 0.8"/>
      </g>
     </g>
     <g id="text_5">
      <!-- 1.0 -->
      <g transform="translate(58.282375 50.35051) scale(0.18 -0.18)">
       <defs>
        <path id="DejaVuSans-31" d="M 794 531 
L 1825 531 
L 1825 4091 
L 703 3866 
L 703 4441 
L 1819 4666 
L 2450 4666 
L 2450 531 
L 3481 531 
L 3481 0 
L 794 0 
L 794 531 
z
" transform="scale(0.015625)"/>
       </defs>
       <use xlink:href="#DejaVuSans-31"/>
       <use xlink:href="#DejaVuSans-2e" transform="translate(63.623047 0)"/>
       <use xlink:href="#DejaVuSans-30" transform="translate(95.410156 0)"/>
      </g>
     </g>
    </g>
    <g id="text_6">
     <!-- CTX Episode -->
     <g transform="translate(27.727375 159.357937) rotate(-90) scale(0.2 -0.2)">
      <defs>
       <path id="DejaVuSans-43" d="M 4122 4306 
L 4122 3641 
Q 3803 3938 3442 4084 
Q 3081 4231 2675 4231 
Q 1875 4231 1450 3742 
Q 1025 3253 1025 2328 
Q 1025 1406 1450 917 
Q 1875 428 2675 428 
Q 3081 428 3442 575 
Q 3803 722 4122 1019 
L 4122 359 
Q 3791 134 3420 21 
Q 3050 -91 2638 -91 
Q 1578 -91 968 557 
Q 359 1206 359 2328 
Q 359 3453 968 4101 
Q 1578 4750 2638 4750 
Q 3056 4750 3426 4639 
Q 3797 4528 4122 4306 
z
" transform="scale(0.015625)"/>
       <path id="DejaVuSans-54" d="M -19 4666 
L 3928 4666 
L 3928 4134 
L 2272 4134 
L 2272 0 
L 1638 0 
L 1638 4134 
L -19 4134 
L -19 4666 
z
" transform="scale(0.015625)"/>
       <path id="DejaVuSans-58" d="M 403 4666 
L 1081 4666 
L 2241 2931 
L 3406 4666 
L 4084 4666 
L 2584 2425 
L 4184 0 
L 3506 0 
L 2194 1984 
L 872 0 
L 191 0 
L 1856 2491 
L 403 4666 
z
" transform="scale(0.015625)"/>
       <path id="DejaVuSans-20" transform="scale(0.015625)"/>
       <path id="DejaVuSans-45" d="M 628 4666 
L 3578 4666 
L 3578 4134 
L 1259 4134 
L 1259 2753 
L 3481 2753 
L 3481 2222 
L 1259 2222 
L 1259 531 
L 3634 531 
L 3634 0 
L 628 0 
L 628 4666 
z
" transform="scale(0.015625)"/>
       <path id="DejaVuSans-70" d="M 1159 525 
L 1159 -1331 
L 581 -1331 
L 581 3500 
L 1159 3500 
L 1159 2969 
Q 1341 3281 1617 3432 
Q 1894 3584 2278 3584 
Q 2916 3584 3314 3078 
Q 3713 2572 3713 1747 
Q 3713 922 3314 415 
Q 2916 -91 2278 -91 
Q 1894 -91 1617 61 
Q 1341 213 1159 525 
z
M 3116 1747 
Q 3116 2381 2855 2742 
Q 2594 3103 2138 3103 
Q 1681 3103 1420 2742 
Q 1159 2381 1159 1747 
Q 1159 1113 1420 752 
Q 1681 391 2138 391 
Q 2594 391 2855 752 
Q 3116 1113 3116 1747 
z
" transform="scale(0.015625)"/>
       <path id="DejaVuSans-6f" d="M 1959 3097 
Q 1497 3097 1228 2736 
Q 959 2375 959 1747 
Q 959 1119 1226 758 
Q 1494 397 1959 397 
Q 2419 397 2687 759 
Q 2956 1122 2956 1747 
Q 2956 2369 2687 2733 
Q 2419 3097 1959 3097 
z
M 1959 3584 
Q 2709 3584 3137 3096 
Q 3566 2609 3566 1747 
Q 3566 888 3137 398 
Q 2709 -91 1959 -91 
Q 1206 -91 779 398 
Q 353 888 353 1747 
Q 353 2609 779 3096 
Q 1206 3584 1959 3584 
z
" transform="scale(0.015625)"/>
      </defs>
      <use xlink:href="#DejaVuSans-43"/>
      <use xlink:href="#DejaVuSans-54" transform="translate(69.824219 0)"/>
      <use xlink:href="#DejaVuSans-58" transform="translate(130.908203 0)"/>
      <use xlink:href="#DejaVuSans-20" transform="translate(199.414062 0)"/>
      <use xlink:href="#DejaVuSans-45" transform="translate(231.201172 0)"/>
      <use xlink:href="#DejaVuSans-70" transform="translate(294.384766 0)"/>
      <use xlink:href="#DejaVuSans-69" transform="translate(357.861328 0)"/>
      <use xlink:href="#DejaVuSans-73" transform="translate(385.644531 0)"/>
      <use xlink:href="#DejaVuSans-6f" transform="translate(437.744141 0)"/>
      <use xlink:href="#DejaVuSans-64" transform="translate(498.925781 0)"/>
      <use xlink:href="#DejaVuSans-65" transform="translate(562.402344 0)"/>
     </g>
     <!-- Max. Selectivity -->
     <g transform="translate(50.123 176.161062) rotate(-90) scale(0.2 -0.2)">
      <defs>
       <path id="DejaVuSans-4d" d="M 628 4666 
L 1569 4666 
L 2759 1491 
L 3956 4666 
L 4897 4666 
L 4897 0 
L 4281 0 
L 4281 4097 
L 3078 897 
L 2444 897 
L 1241 4097 
L 1241 0 
L 628 0 
L 628 4666 
z
" transform="scale(0.015625)"/>
       <path id="DejaVuSans-78" d="M 3513 3500 
L 2247 1797 
L 3578 0 
L 2900 0 
L 1881 1375 
L 863 0 
L 184 0 
L 1544 1831 
L 300 3500 
L 978 3500 
L 1906 2253 
L 2834 3500 
L 3513 3500 
z
" transform="scale(0.015625)"/>
       <path id="DejaVuSans-53" d="M 3425 4513 
L 3425 3897 
Q 3066 4069 2747 4153 
Q 2428 4238 2131 4238 
Q 1616 4238 1336 4038 
Q 1056 3838 1056 3469 
Q 1056 3159 1242 3001 
Q 1428 2844 1947 2747 
L 2328 2669 
Q 3034 2534 3370 2195 
Q 3706 1856 3706 1288 
Q 3706 609 3251 259 
Q 2797 -91 1919 -91 
Q 1588 -91 1214 -16 
Q 841 59 441 206 
L 441 856 
Q 825 641 1194 531 
Q 1563 422 1919 422 
Q 2459 422 2753 634 
Q 3047 847 3047 1241 
Q 3047 1584 2836 1778 
Q 2625 1972 2144 2069 
L 1759 2144 
Q 1053 2284 737 2584 
Q 422 2884 422 3419 
Q 422 4038 858 4394 
Q 1294 4750 2059 4750 
Q 2388 4750 2728 4690 
Q 3069 4631 3425 4513 
z
" transform="scale(0.015625)"/>
       <path id="DejaVuSans-76" d="M 191 3500 
L 800 3500 
L 1894 563 
L 2988 3500 
L 3597 3500 
L 2284 0 
L 1503 0 
L 191 3500 
z
" transform="scale(0.015625)"/>
       <path id="DejaVuSans-79" d="M 2059 -325 
Q 1816 -950 1584 -1140 
Q 1353 -1331 966 -1331 
L 506 -1331 
L 506 -850 
L 844 -850 
Q 1081 -850 1212 -737 
Q 1344 -625 1503 -206 
L 1606 56 
L 191 3500 
L 800 3500 
L 1894 763 
L 2988 3500 
L 3597 3500 
L 2059 -325 
z
" transform="scale(0.015625)"/>
      </defs>
      <use xlink:href="#DejaVuSans-4d"/>
      <use xlink:href="#DejaVuSans-61" transform="translate(86.279297 0)"/>
      <use xlink:href="#DejaVuSans-78" transform="translate(147.558594 0)"/>
      <use xlink:href="#DejaVuSans-2e" transform="translate(206.738281 0)"/>
      <use xlink:href="#DejaVuSans-20" transform="translate(238.525391 0)"/>
      <use xlink:href="#DejaVuSans-53" transform="translate(270.3125 0)"/>
      <use xlink:href="#DejaVuSans-65" transform="translate(333.789062 0)"/>
      <use xlink:href="#DejaVuSans-6c" transform="translate(395.3125 0)"/>
      <use xlink:href="#DejaVuSans-65" transform="translate(423.095703 0)"/>
      <use xlink:href="#DejaVuSans-63" transform="translate(484.619141 0)"/>
      <use xlink:href="#DejaVuSans-74" transform="translate(539.599609 0)"/>
      <use xlink:href="#DejaVuSans-69" transform="translate(578.808594 0)"/>
      <use xlink:href="#DejaVuSans-76" transform="translate(606.591797 0)"/>
      <use xlink:href="#DejaVuSans-69" transform="translate(665.771484 0)"/>
      <use xlink:href="#DejaVuSans-74" transform="translate(693.554688 0)"/>
      <use xlink:href="#DejaVuSans-79" transform="translate(732.763672 0)"/>
     </g>
    </g>
   </g>
   <g id="line2d_6">
    <path d="M 130.359051 39.871825 
L 130.359051 24.444245 
L 204.748949 24.444245 
L 204.748949 39.871825 
" style="fill: none; stroke: #000000; stroke-width: 2; stroke-linecap: square"/>
   </g>
   <g id="patch_3">
    <path d="M 93.908 172.075081 
L 93.908 21.853293 
" style="fill: none; stroke: #000000; stroke-width: 0.8; stroke-linejoin: miter; stroke-linecap: square"/>
   </g>
   <g id="patch_4">
    <path d="M 93.908 172.075081 
L 241.2 172.075081 
" style="fill: none; stroke: #000000; stroke-width: 0.8; stroke-linejoin: miter; stroke-linecap: square"/>
   </g>
   <g id="PathCollection_1">
    <defs>
     <path id="m6dbb9d2b76" d="M 0 1.5 
C 0.397805 1.5 0.77937 1.341951 1.06066 1.06066 
C 1.341951 0.77937 1.5 0.397805 1.5 0 
C 1.5 -0.397805 1.341951 -0.77937 1.06066 -1.06066 
C 0.77937 -1.341951 0.397805 -1.5 0 -1.5 
C -0.397805 -1.5 -0.77937 -1.341951 -1.06066 -1.06066 
C -1.341951 -0.77937 -1.5 -0.397805 -1.5 0 
C -1.5 0.397805 -1.341951 0.77937 -1.06066 1.06066 
C -0.77937 1.341951 -0.397805 1.5 0 1.5 
z
"/>
    </defs>
    <g clip-path="url(#p35c5a5b6a5)">
     <use xlink:href="#m6dbb9d2b76" x="127.889961" y="49.453846" style="fill-opacity: 0.05"/>
     <use xlink:href="#m6dbb9d2b76" x="136.915017" y="50.957188" style="fill-opacity: 0.05"/>
     <use xlink:href="#m6dbb9d2b76" x="115.484474" y="49.361951" style="fill-opacity: 0.05"/>
     <use xlink:href="#m6dbb9d2b76" x="124.477267" y="49.041256" style="fill-opacity: 0.05"/>
     <use xlink:href="#m6dbb9d2b76" x="119.847933" y="48.774769" style="fill-opacity: 0.05"/>
     <use xlink:href="#m6dbb9d2b76" x="118.228694" y="48.875698" style="fill-opacity: 0.05"/>
     <use xlink:href="#m6dbb9d2b76" x="121.023422" y="49.318372" style="fill-opacity: 0.05"/>
     <use xlink:href="#m6dbb9d2b76" x="125.763562" y="49.442098" style="fill-opacity: 0.05"/>
     <use xlink:href="#m6dbb9d2b76" x="127.287268" y="51.512355" style="fill-opacity: 0.05"/>
     <use xlink:href="#m6dbb9d2b76" x="131.51408" y="50.423877" style="fill-opacity: 0.05"/>
     <use xlink:href="#m6dbb9d2b76" x="127.954606" y="49.525372" style="fill-opacity: 0.05"/>
     <use xlink:href="#m6dbb9d2b76" x="135.870434" y="56.134768" style="fill-opacity: 0.05"/>
     <use xlink:href="#m6dbb9d2b76" x="121.564744" y="50.829799" style="fill-opacity: 0.05"/>
     <use xlink:href="#m6dbb9d2b76" x="141.610298" y="50.186049" style="fill-opacity: 0.05"/>
     <use xlink:href="#m6dbb9d2b76" x="116.296015" y="52.044846" style="fill-opacity: 0.05"/>
     <use xlink:href="#m6dbb9d2b76" x="135.431475" y="51.065259" style="fill-opacity: 0.05"/>
     <use xlink:href="#m6dbb9d2b76" x="127.898376" y="49.841484" style="fill-opacity: 0.05"/>
     <use xlink:href="#m6dbb9d2b76" x="132.105423" y="54.430081" style="fill-opacity: 0.05"/>
     <use xlink:href="#m6dbb9d2b76" x="119.658419" y="50.485794" style="fill-opacity: 0.05"/>
     <use xlink:href="#m6dbb9d2b76" x="121.375771" y="49.756854" style="fill-opacity: 0.05"/>
    </g>
   </g>
   <g id="PathCollection_2">
    <g clip-path="url(#p35c5a5b6a5)">
     <use xlink:href="#m6dbb9d2b76" x="213.697893" y="63.729246" style="fill-opacity: 0.05"/>
     <use xlink:href="#m6dbb9d2b76" x="218.682522" y="76.132209" style="fill-opacity: 0.05"/>
     <use xlink:href="#m6dbb9d2b76" x="199.197207" y="71.946378" style="fill-opacity: 0.05"/>
     <use xlink:href="#m6dbb9d2b76" x="210.471693" y="68.385484" style="fill-opacity: 0.05"/>
     <use xlink:href="#m6dbb9d2b76" x="215.94877" y="68.161296" style="fill-opacity: 0.05"/>
     <use xlink:href="#m6dbb9d2b76" x="216.490849" y="66.437306" style="fill-opacity: 0.05"/>
     <use xlink:href="#m6dbb9d2b76" x="192.401542" y="70.552355" style="fill-opacity: 0.05"/>
     <use xlink:href="#m6dbb9d2b76" x="191.033082" y="73.378294" style="fill-opacity: 0.05"/>
     <use xlink:href="#m6dbb9d2b76" x="194.924437" y="63.832895" style="fill-opacity: 0.05"/>
     <use xlink:href="#m6dbb9d2b76" x="216.000943" y="66.464349" style="fill-opacity: 0.05"/>
     <use xlink:href="#m6dbb9d2b76" x="192.797374" y="68.191902" style="fill-opacity: 0.05"/>
     <use xlink:href="#m6dbb9d2b76" x="202.401431" y="74.429775" style="fill-opacity: 0.05"/>
     <use xlink:href="#m6dbb9d2b76" x="218.373892" y="65.362491" style="fill-opacity: 0.05"/>
     <use xlink:href="#m6dbb9d2b76" x="205.735814" y="70.841762" style="fill-opacity: 0.05"/>
     <use xlink:href="#m6dbb9d2b76" x="210.458437" y="76.263284" style="fill-opacity: 0.05"/>
     <use xlink:href="#m6dbb9d2b76" x="199.25944" y="75.822158" style="fill-opacity: 0.05"/>
     <use xlink:href="#m6dbb9d2b76" x="210.298464" y="71.426423" style="fill-opacity: 0.05"/>
     <use xlink:href="#m6dbb9d2b76" x="214.706057" y="73.940127" style="fill-opacity: 0.05"/>
     <use xlink:href="#m6dbb9d2b76" x="190.415155" y="62.332349" style="fill-opacity: 0.05"/>
     <use xlink:href="#m6dbb9d2b76" x="212.192234" y="67.048634" style="fill-opacity: 0.05"/>
    </g>
   </g>
   <g id="text_7">
    <!-- *** -->
    <g transform="translate(155.554 21.116745) scale(0.16 -0.16)">
     <defs>
      <path id="DejaVuSans-2a" d="M 3009 3897 
L 1888 3291 
L 3009 2681 
L 2828 2375 
L 1778 3009 
L 1778 1831 
L 1422 1831 
L 1422 3009 
L 372 2375 
L 191 2681 
L 1313 3291 
L 191 3897 
L 372 4206 
L 1422 3572 
L 1422 4750 
L 1778 4750 
L 1778 3572 
L 2828 4206 
L 3009 3897 
z
" transform="scale(0.015625)"/>
     </defs>
     <use xlink:href="#DejaVuSans-2a"/>
     <use xlink:href="#DejaVuSans-2a" transform="translate(50 0)"/>
     <use xlink:href="#DejaVuSans-2a" transform="translate(100 0)"/>
    </g>
   </g>
   <g id="LineCollection_1">
    <path d="M 130.359051 50.989289 
L 130.359051 50.156876 
" clip-path="url(#p35c5a5b6a5)" style="fill: none; stroke: #000000; stroke-width: 2"/>
    <path d="M 204.748949 70.71202 
L 204.748949 68.75585 
" clip-path="url(#p35c5a5b6a5)" style="fill: none; stroke: #000000; stroke-width: 2"/>
   </g>
   <g id="line2d_7">
    <defs>
     <path id="m6ae4f4fb6e" d="M 5 0 
L -5 -0 
" style="stroke: #000000"/>
    </defs>
    <g clip-path="url(#p35c5a5b6a5)">
     <use xlink:href="#m6ae4f4fb6e" x="130.359051" y="50.989289" style="stroke: #000000"/>
     <use xlink:href="#m6ae4f4fb6e" x="204.748949" y="70.71202" style="stroke: #000000"/>
    </g>
   </g>
   <g id="line2d_8">
    <g clip-path="url(#p35c5a5b6a5)">
     <use xlink:href="#m6ae4f4fb6e" x="130.359051" y="50.156876" style="stroke: #000000"/>
     <use xlink:href="#m6ae4f4fb6e" x="204.748949" y="68.75585" style="stroke: #000000"/>
    </g>
   </g>
   <g id="line2d_9">
    <defs>
     <path id="m406129d52c" d="M 0 3 
C 0.795609 3 1.55874 2.683901 2.12132 2.12132 
C 2.683901 1.55874 3 0.795609 3 0 
C 3 -0.795609 2.683901 -1.55874 2.12132 -2.12132 
C 1.55874 -2.683901 0.795609 -3 0 -3 
C -0.795609 -3 -1.55874 -2.683901 -2.12132 -2.12132 
C -2.683901 -1.55874 -3 -0.795609 -3 0 
C -3 0.795609 -2.683901 1.55874 -2.12132 2.12132 
C -1.55874 2.683901 -0.795609 3 0 3 
z
" style="stroke: #000000"/>
    </defs>
    <g clip-path="url(#p35c5a5b6a5)">
     <use xlink:href="#m406129d52c" x="130.359051" y="50.573082" style="stroke: #000000"/>
     <use xlink:href="#m406129d52c" x="204.748949" y="69.733935" style="stroke: #000000"/>
    </g>
   </g>
  </g>
 </g>
 <defs>
  <clipPath id="p35c5a5b6a5">
   <rect x="93.908" y="21.853293" width="147.292" height="150.221788"/>
  </clipPath>
 </defs>
</svg>
