<?xml version="1.0" encoding="utf-8" standalone="no"?>
<!DOCTYPE svg PUBLIC "-//W3C//DTD SVG 1.1//EN"
  "http://www.w3.org/Graphics/SVG/1.1/DTD/svg11.dtd">
<svg xmlns:xlink="http://www.w3.org/1999/xlink" width="252pt" height="252pt" viewBox="0 0 252 252" xmlns="http://www.w3.org/2000/svg" version="1.1">
 <metadata>
  <rdf:RDF xmlns:dc="http://purl.org/dc/elements/1.1/" xmlns:cc="http://creativecommons.org/ns#" xmlns:rdf="http://www.w3.org/1999/02/22-rdf-syntax-ns#">
   <cc:Work>
    <dc:type rdf:resource="http://purl.org/dc/dcmitype/StillImage"/>
    <dc:date>2025-09-24T19:48:29.055903</dc:date>
    <dc:format>image/svg+xml</dc:format>
    <dc:creator>
     <cc:Agent>
      <dc:title>Matplotlib v3.10.1, https://matplotlib.org/</dc:title>
     </cc:Agent>
    </dc:creator>
   </cc:Work>
  </rdf:RDF>
 </metadata>
 <defs>
  <style type="text/css">*{stroke-linejoin: round; stroke-linecap: butt}</style>
 </defs>
 <g id="figure_1">
  <g id="patch_1">
   <path d="M 0 252 
L 252 252 
L 252 0 
L 0 0 
L 0 252 
z
" style="fill: none"/>
  </g>
  <g id="axes_1">
   <g id="patch_2">
    <path d="M 93.908 172.075081 
L 241.2 172.075081 
L 241.2 21.508399 
L 93.908 21.508399 
L 93.908 172.075081 
z
" style="fill: none"/>
   </g>
   <g id="FillBetweenPolyCollection_1">
    <defs>
     <path id="m17ab329e29" d="M 134.488376 -198.645489 
L 126.229725 -198.645489 
L 126.059134 -198.690431 
L 125.891247 -198.735372 
L 125.726702 -198.780314 
L 125.566159 -198.825256 
L 125.410297 -198.870197 
L 125.259814 -198.915139 
L 125.115422 -198.960081 
L 124.977838 -199.005022 
L 124.847777 -199.049964 
L 124.725933 -199.094906 
L 124.612963 -199.139847 
L 124.509467 -199.184789 
L 124.415964 -199.229731 
L 124.332865 -199.274672 
L 124.260449 -199.319614 
L 124.198833 -199.364556 
L 124.147948 -199.409497 
L 124.107514 -199.454439 
L 124.077016 -199.499381 
L 124.055692 -199.544322 
L 124.042516 -199.589264 
L 124.036189 -199.634206 
L 124.035147 -199.679147 
L 124.037555 -199.724089 
L 124.041331 -199.769031 
L 124.044157 -199.813972 
L 124.04351 -199.858914 
L 124.03669 -199.903856 
L 124.020861 -199.948797 
L 123.993088 -199.993739 
L 123.950382 -200.038681 
L 123.889749 -200.083622 
L 123.80823 -200.128564 
L 123.702956 -200.173506 
L 123.571185 -200.218447 
L 123.41035 -200.263389 
L 123.218096 -200.308331 
L 122.992317 -200.353272 
L 122.731185 -200.398214 
L 122.433179 -200.443156 
L 122.097104 -200.488097 
L 121.722111 -200.533039 
L 121.307707 -200.577981 
L 120.853762 -200.622923 
L 120.360518 -200.667864 
L 119.828583 -200.712806 
L 119.258936 -200.757748 
L 118.652915 -200.802689 
L 118.012215 -200.847631 
L 117.338876 -200.892573 
L 116.635275 -200.937514 
L 115.90411 -200.982456 
L 115.14839 -201.027398 
L 114.371419 -201.072339 
L 113.576779 -201.117281 
L 112.768309 -201.162223 
L 111.950087 -201.207164 
L 111.126408 -201.252106 
L 110.301755 -201.297048 
L 109.480771 -201.341989 
L 108.668231 -201.386931 
L 107.869006 -201.431873 
L 107.088025 -201.476814 
L 106.330235 -201.521756 
L 105.600565 -201.566698 
L 104.903874 -201.611639 
L 104.244913 -201.656581 
L 103.628275 -201.701523 
L 103.058353 -201.746464 
L 102.539294 -201.791406 
L 102.074955 -201.836348 
L 101.668864 -201.881289 
L 101.324184 -201.926231 
L 101.043676 -201.971173 
L 100.829672 -202.016114 
L 100.684051 -202.061056 
L 100.608217 -202.105998 
L 100.603091 -202.150939 
L 100.669095 -202.195881 
L 100.806155 -202.240823 
L 101.013701 -202.285764 
L 101.290676 -202.330706 
L 101.635544 -202.375648 
L 102.046314 -202.42059 
L 102.520554 -202.465531 
L 103.055419 -202.510473 
L 103.647679 -202.555415 
L 104.293748 -202.600356 
L 104.98972 -202.645298 
L 105.731404 -202.69024 
L 106.514358 -202.735181 
L 107.333936 -202.780123 
L 108.185324 -202.825065 
L 109.063583 -202.870006 
L 109.963694 -202.914948 
L 110.880601 -202.95989 
L 111.809255 -203.004831 
L 112.74466 -203.049773 
L 113.681915 -203.094715 
L 147.036186 -203.094715 
L 147.036186 -203.094715 
L 147.973441 -203.049773 
L 148.908846 -203.004831 
L 149.8375 -202.95989 
L 150.754407 -202.914948 
L 151.654518 -202.870006 
L 152.532777 -202.825065 
L 153.384165 -202.780123 
L 154.203743 -202.735181 
L 154.986697 -202.69024 
L 155.728381 -202.645298 
L 156.424353 -202.600356 
L 157.070422 -202.555415 
L 157.662682 -202.510473 
L 158.197547 -202.465531 
L 158.671787 -202.42059 
L 159.082557 -202.375648 
L 159.427425 -202.330706 
L 159.7044 -202.285764 
L 159.911946 -202.240823 
L 160.049006 -202.195881 
L 160.11501 -202.150939 
L 160.109884 -202.105998 
L 160.03405 -202.061056 
L 159.888429 -202.016114 
L 159.674425 -201.971173 
L 159.393917 -201.926231 
L 159.049237 -201.881289 
L 158.643146 -201.836348 
L 158.178807 -201.791406 
L 157.659748 -201.746464 
L 157.089826 -201.701523 
L 156.473188 -201.656581 
L 155.814227 -201.611639 
L 155.117536 -201.566698 
L 154.387866 -201.521756 
L 153.630076 -201.476814 
L 152.849095 -201.431873 
L 152.04987 -201.386931 
L 151.23733 -201.341989 
L 150.416346 -201.297048 
L 149.591693 -201.252106 
L 148.768014 -201.207164 
L 147.949792 -201.162223 
L 147.141322 -201.117281 
L 146.346682 -201.072339 
L 145.569711 -201.027398 
L 144.813991 -200.982456 
L 144.082826 -200.937514 
L 143.379225 -200.892573 
L 142.705886 -200.847631 
L 142.065186 -200.802689 
L 141.459165 -200.757748 
L 140.889518 -200.712806 
L 140.357583 -200.667864 
L 139.864339 -200.622923 
L 139.410394 -200.577981 
L 138.99599 -200.533039 
L 138.620997 -200.488097 
L 138.284922 -200.443156 
L 137.986916 -200.398214 
L 137.725784 -200.353272 
L 137.500005 -200.308331 
L 137.307751 -200.263389 
L 137.146916 -200.218447 
L 137.015145 -200.173506 
L 136.909871 -200.128564 
L 136.828352 -200.083622 
L 136.767719 -200.038681 
L 136.725013 -199.993739 
L 136.69724 -199.948797 
L 136.681411 -199.903856 
L 136.674592 -199.858914 
L 136.673944 -199.813972 
L 136.67677 -199.769031 
L 136.680546 -199.724089 
L 136.682954 -199.679147 
L 136.681912 -199.634206 
L 136.675585 -199.589264 
L 136.662409 -199.544322 
L 136.641085 -199.499381 
L 136.610587 -199.454439 
L 136.570153 -199.409497 
L 136.519268 -199.364556 
L 136.457652 -199.319614 
L 136.385236 -199.274672 
L 136.302137 -199.229731 
L 136.208634 -199.184789 
L 136.105138 -199.139847 
L 135.992168 -199.094906 
L 135.870324 -199.049964 
L 135.740263 -199.005022 
L 135.602679 -198.960081 
L 135.458287 -198.915139 
L 135.307804 -198.870197 
L 135.151942 -198.825256 
L 134.991399 -198.780314 
L 134.826854 -198.735372 
L 134.658967 -198.690431 
L 134.488376 -198.645489 
z
" style="stroke: #484848; stroke-opacity: 0.9; stroke-width: 1.25"/>
    </defs>
    <g clip-path="url(#p01978fe885)">
     <use xlink:href="#m17ab329e29" x="0" y="252" style="fill: #d86743; fill-opacity: 0.9; stroke: #484848; stroke-opacity: 0.9; stroke-width: 1.25"/>
    </g>
   </g>
   <g id="FillBetweenPolyCollection_2">
    <defs>
     <path id="mfcfaa71afc" d="M 215.648894 -170.33661 
L 193.849005 -170.33661 
L 193.335409 -170.557962 
L 192.822087 -170.779314 
L 192.310336 -171.000667 
L 191.801438 -171.222019 
L 191.296653 -171.443371 
L 190.797219 -171.664723 
L 190.304338 -171.886076 
L 189.819164 -172.107428 
L 189.342795 -172.32878 
L 188.876247 -172.550132 
L 188.42044 -172.771485 
L 187.97617 -172.992837 
L 187.544089 -173.214189 
L 187.124676 -173.435542 
L 186.718215 -173.656894 
L 186.324771 -173.878246 
L 185.944172 -174.099598 
L 185.575991 -174.320951 
L 185.219546 -174.542303 
L 184.87389 -174.763655 
L 184.537828 -174.985007 
L 184.209928 -175.20636 
L 183.888554 -175.427712 
L 183.571903 -175.649064 
L 183.25805 -175.870417 
L 182.945006 -176.091769 
L 182.630781 -176.313121 
L 182.313452 -176.534473 
L 181.991238 -176.755826 
L 181.662569 -176.977178 
L 181.326165 -177.19853 
L 180.981099 -177.419883 
L 180.626861 -177.641235 
L 180.263413 -177.862587 
L 179.891231 -178.083939 
L 179.511332 -178.305292 
L 179.125294 -178.526644 
L 178.735255 -178.747996 
L 178.343892 -178.969348 
L 177.954399 -179.190701 
L 177.570434 -179.412053 
L 177.196061 -179.633405 
L 176.835674 -179.854758 
L 176.493918 -180.07611 
L 176.175593 -180.297462 
L 175.885554 -180.518814 
L 175.628614 -180.740167 
L 175.409436 -180.961519 
L 175.232438 -181.182871 
L 175.10169 -181.404223 
L 175.020832 -181.625576 
L 174.99299 -181.846928 
L 175.020706 -182.06828 
L 175.105886 -182.289633 
L 175.249755 -182.510985 
L 175.452827 -182.732337 
L 175.714898 -182.953689 
L 176.035041 -183.175042 
L 176.411626 -183.396394 
L 176.842351 -183.617746 
L 177.324285 -183.839099 
L 177.85392 -184.060451 
L 178.427241 -184.281803 
L 179.039795 -184.503155 
L 179.686777 -184.724508 
L 180.36311 -184.94586 
L 181.063536 -185.167212 
L 181.782707 -185.388564 
L 182.515271 -185.609917 
L 183.255959 -185.831269 
L 183.999668 -186.052621 
L 184.741537 -186.273974 
L 185.477015 -186.495326 
L 186.201923 -186.716678 
L 186.912504 -186.93803 
L 187.605466 -187.159383 
L 188.278013 -187.380735 
L 188.927862 -187.602087 
L 189.553257 -187.823439 
L 190.152961 -188.044792 
L 190.72625 -188.266144 
L 191.272888 -188.487496 
L 191.793095 -188.708849 
L 192.287511 -188.930201 
L 192.757148 -189.151553 
L 193.203341 -189.372905 
L 193.62769 -189.594258 
L 194.032005 -189.81561 
L 194.418241 -190.036962 
L 194.788447 -190.258314 
L 195.144698 -190.479667 
L 195.489049 -190.701019 
L 195.823479 -190.922371 
L 196.149843 -191.143724 
L 196.469841 -191.365076 
L 196.784974 -191.586428 
L 197.096524 -191.80778 
L 197.405537 -192.029133 
L 197.712807 -192.250485 
L 211.785092 -192.250485 
L 211.785092 -192.250485 
L 212.092362 -192.029133 
L 212.401375 -191.80778 
L 212.712925 -191.586428 
L 213.028058 -191.365076 
L 213.348056 -191.143724 
L 213.67442 -190.922371 
L 214.00885 -190.701019 
L 214.353201 -190.479667 
L 214.709452 -190.258314 
L 215.079658 -190.036962 
L 215.465894 -189.81561 
L 215.870209 -189.594258 
L 216.294558 -189.372905 
L 216.740751 -189.151553 
L 217.210388 -188.930201 
L 217.704804 -188.708849 
L 218.225011 -188.487496 
L 218.771649 -188.266144 
L 219.344938 -188.044792 
L 219.944642 -187.823439 
L 220.570037 -187.602087 
L 221.219886 -187.380735 
L 221.892433 -187.159383 
L 222.585395 -186.93803 
L 223.295976 -186.716678 
L 224.020884 -186.495326 
L 224.756362 -186.273974 
L 225.498231 -186.052621 
L 226.24194 -185.831269 
L 226.982628 -185.609917 
L 227.715192 -185.388564 
L 228.434363 -185.167212 
L 229.134789 -184.94586 
L 229.811122 -184.724508 
L 230.458104 -184.503155 
L 231.070658 -184.281803 
L 231.643979 -184.060451 
L 232.173614 -183.839099 
L 232.655548 -183.617746 
L 233.086273 -183.396394 
L 233.462858 -183.175042 
L 233.783001 -182.953689 
L 234.045071 -182.732337 
L 234.248144 -182.510985 
L 234.392013 -182.289633 
L 234.477193 -182.06828 
L 234.504909 -181.846928 
L 234.477067 -181.625576 
L 234.396209 -181.404223 
L 234.265461 -181.182871 
L 234.088463 -180.961519 
L 233.869285 -180.740167 
L 233.612345 -180.518814 
L 233.322306 -180.297462 
L 233.003981 -180.07611 
L 232.662225 -179.854758 
L 232.301838 -179.633405 
L 231.927465 -179.412053 
L 231.5435 -179.190701 
L 231.154007 -178.969348 
L 230.762644 -178.747996 
L 230.372605 -178.526644 
L 229.986567 -178.305292 
L 229.606668 -178.083939 
L 229.234486 -177.862587 
L 228.871038 -177.641235 
L 228.5168 -177.419883 
L 228.171734 -177.19853 
L 227.83533 -176.977178 
L 227.506661 -176.755826 
L 227.184447 -176.534473 
L 226.867118 -176.313121 
L 226.552893 -176.091769 
L 226.239849 -175.870417 
L 225.925996 -175.649064 
L 225.609345 -175.427712 
L 225.287971 -175.20636 
L 224.960071 -174.985007 
L 224.624009 -174.763655 
L 224.278353 -174.542303 
L 223.921908 -174.320951 
L 223.553727 -174.099598 
L 223.173128 -173.878246 
L 222.779684 -173.656894 
L 222.373223 -173.435542 
L 221.95381 -173.214189 
L 221.521729 -172.992837 
L 221.077459 -172.771485 
L 220.621652 -172.550132 
L 220.155104 -172.32878 
L 219.678735 -172.107428 
L 219.193561 -171.886076 
L 218.70068 -171.664723 
L 218.201246 -171.443371 
L 217.696461 -171.222019 
L 217.187563 -171.000667 
L 216.675812 -170.779314 
L 216.16249 -170.557962 
L 215.648894 -170.33661 
z
" style="stroke: #484848; stroke-opacity: 0.9; stroke-width: 1.25"/>
    </defs>
    <g clip-path="url(#p01978fe885)">
     <use xlink:href="#mfcfaa71afc" x="0" y="252" style="fill: #1ea0d1; fill-opacity: 0.9; stroke: #484848; stroke-opacity: 0.9; stroke-width: 1.25"/>
    </g>
   </g>
   <g id="matplotlib.axis_1">
    <g id="xtick_1">
     <g id="line2d_1">
      <defs>
       <path id="m6c3eadd497" d="M 0 0 
L 0 3.5 
" style="stroke: #000000; stroke-width: 0.8"/>
      </defs>
      <g>
       <use xlink:href="#m6c3eadd497" x="130.359051" y="172.075081" style="stroke: #000000; stroke-width: 0.8"/>
      </g>
     </g>
     <g id="text_1">
      <!-- intact -->
      <g transform="translate(110.56439 216.644404) rotate(-30) scale(0.18 -0.18)">
       <defs>
        <path id="DejaVuSans-69" d="M 603 3500 
L 1178 3500 
L 1178 0 
L 603 0 
L 603 3500 
z
M 603 4863 
L 1178 4863 
L 1178 4134 
L 603 4134 
L 603 4863 
z
" transform="scale(0.015625)"/>
        <path id="DejaVuSans-6e" d="M 3513 2113 
L 3513 0 
L 2938 0 
L 2938 2094 
Q 2938 2591 2744 2837 
Q 2550 3084 2163 3084 
Q 1697 3084 1428 2787 
Q 1159 2491 1159 1978 
L 1159 0 
L 581 0 
L 581 3500 
L 1159 3500 
L 1159 2956 
Q 1366 3272 1645 3428 
Q 1925 3584 2291 3584 
Q 2894 3584 3203 3211 
Q 3513 2838 3513 2113 
z
" transform="scale(0.015625)"/>
        <path id="DejaVuSans-74" d="M 1172 4494 
L 1172 3500 
L 2356 3500 
L 2356 3053 
L 1172 3053 
L 1172 1153 
Q 1172 725 1289 603 
Q 1406 481 1766 481 
L 2356 481 
L 2356 0 
L 1766 0 
Q 1100 0 847 248 
Q 594 497 594 1153 
L 594 3053 
L 172 3053 
L 172 3500 
L 594 3500 
L 594 4494 
L 1172 4494 
z
" transform="scale(0.015625)"/>
        <path id="DejaVuSans-61" d="M 2194 1759 
Q 1497 1759 1228 1600 
Q 959 1441 959 1056 
Q 959 750 1161 570 
Q 1363 391 1709 391 
Q 2188 391 2477 730 
Q 2766 1069 2766 1631 
L 2766 1759 
L 2194 1759 
z
M 3341 1997 
L 3341 0 
L 2766 0 
L 2766 531 
Q 2569 213 2275 61 
Q 1981 -91 1556 -91 
Q 1019 -91 701 211 
Q 384 513 384 1019 
Q 384 1609 779 1909 
Q 1175 2209 1959 2209 
L 2766 2209 
L 2766 2266 
Q 2766 2663 2505 2880 
Q 2244 3097 1772 3097 
Q 1472 3097 1187 3025 
Q 903 2953 641 2809 
L 641 3341 
Q 956 3463 1253 3523 
Q 1550 3584 1831 3584 
Q 2591 3584 2966 3190 
Q 3341 2797 3341 1997 
z
" transform="scale(0.015625)"/>
        <path id="DejaVuSans-63" d="M 3122 3366 
L 3122 2828 
Q 2878 2963 2633 3030 
Q 2388 3097 2138 3097 
Q 1578 3097 1268 2742 
Q 959 2388 959 1747 
Q 959 1106 1268 751 
Q 1578 397 2138 397 
Q 2388 397 2633 464 
Q 2878 531 3122 666 
L 3122 134 
Q 2881 22 2623 -34 
Q 2366 -91 2075 -91 
Q 1284 -91 818 406 
Q 353 903 353 1747 
Q 353 2603 823 3093 
Q 1294 3584 2113 3584 
Q 2378 3584 2631 3529 
Q 2884 3475 3122 3366 
z
" transform="scale(0.015625)"/>
       </defs>
       <use xlink:href="#DejaVuSans-69"/>
       <use xlink:href="#DejaVuSans-6e" transform="translate(27.783203 0)"/>
       <use xlink:href="#DejaVuSans-74" transform="translate(91.162109 0)"/>
       <use xlink:href="#DejaVuSans-61" transform="translate(130.371094 0)"/>
       <use xlink:href="#DejaVuSans-63" transform="translate(191.650391 0)"/>
       <use xlink:href="#DejaVuSans-74" transform="translate(246.630859 0)"/>
      </g>
     </g>
    </g>
    <g id="xtick_2">
     <g id="line2d_2">
      <g>
       <use xlink:href="#m6c3eadd497" x="204.748949" y="172.075081" style="stroke: #000000; stroke-width: 0.8"/>
      </g>
     </g>
     <g id="text_2">
      <!-- scrambled -->
      <g transform="translate(166.456393 238.003935) rotate(-30) scale(0.18 -0.18)">
       <defs>
        <path id="DejaVuSans-73" d="M 2834 3397 
L 2834 2853 
Q 2591 2978 2328 3040 
Q 2066 3103 1784 3103 
Q 1356 3103 1142 2972 
Q 928 2841 928 2578 
Q 928 2378 1081 2264 
Q 1234 2150 1697 2047 
L 1894 2003 
Q 2506 1872 2764 1633 
Q 3022 1394 3022 966 
Q 3022 478 2636 193 
Q 2250 -91 1575 -91 
Q 1294 -91 989 -36 
Q 684 19 347 128 
L 347 722 
Q 666 556 975 473 
Q 1284 391 1588 391 
Q 1994 391 2212 530 
Q 2431 669 2431 922 
Q 2431 1156 2273 1281 
Q 2116 1406 1581 1522 
L 1381 1569 
Q 847 1681 609 1914 
Q 372 2147 372 2553 
Q 372 3047 722 3315 
Q 1072 3584 1716 3584 
Q 2034 3584 2315 3537 
Q 2597 3491 2834 3397 
z
" transform="scale(0.015625)"/>
        <path id="DejaVuSans-72" d="M 2631 2963 
Q 2534 3019 2420 3045 
Q 2306 3072 2169 3072 
Q 1681 3072 1420 2755 
Q 1159 2438 1159 1844 
L 1159 0 
L 581 0 
L 581 3500 
L 1159 3500 
L 1159 2956 
Q 1341 3275 1631 3429 
Q 1922 3584 2338 3584 
Q 2397 3584 2469 3576 
Q 2541 3569 2628 3553 
L 2631 2963 
z
" transform="scale(0.015625)"/>
        <path id="DejaVuSans-6d" d="M 3328 2828 
Q 3544 3216 3844 3400 
Q 4144 3584 4550 3584 
Q 5097 3584 5394 3201 
Q 5691 2819 5691 2113 
L 5691 0 
L 5113 0 
L 5113 2094 
Q 5113 2597 4934 2840 
Q 4756 3084 4391 3084 
Q 3944 3084 3684 2787 
Q 3425 2491 3425 1978 
L 3425 0 
L 2847 0 
L 2847 2094 
Q 2847 2600 2669 2842 
Q 2491 3084 2119 3084 
Q 1678 3084 1418 2786 
Q 1159 2488 1159 1978 
L 1159 0 
L 581 0 
L 581 3500 
L 1159 3500 
L 1159 2956 
Q 1356 3278 1631 3431 
Q 1906 3584 2284 3584 
Q 2666 3584 2933 3390 
Q 3200 3197 3328 2828 
z
" transform="scale(0.015625)"/>
        <path id="DejaVuSans-62" d="M 3116 1747 
Q 3116 2381 2855 2742 
Q 2594 3103 2138 3103 
Q 1681 3103 1420 2742 
Q 1159 2381 1159 1747 
Q 1159 1113 1420 752 
Q 1681 391 2138 391 
Q 2594 391 2855 752 
Q 3116 1113 3116 1747 
z
M 1159 2969 
Q 1341 3281 1617 3432 
Q 1894 3584 2278 3584 
Q 2916 3584 3314 3078 
Q 3713 2572 3713 1747 
Q 3713 922 3314 415 
Q 2916 -91 2278 -91 
Q 1894 -91 1617 61 
Q 1341 213 1159 525 
L 1159 0 
L 581 0 
L 581 4863 
L 1159 4863 
L 1159 2969 
z
" transform="scale(0.015625)"/>
        <path id="DejaVuSans-6c" d="M 603 4863 
L 1178 4863 
L 1178 0 
L 603 0 
L 603 4863 
z
" transform="scale(0.015625)"/>
        <path id="DejaVuSans-65" d="M 3597 1894 
L 3597 1613 
L 953 1613 
Q 991 1019 1311 708 
Q 1631 397 2203 397 
Q 2534 397 2845 478 
Q 3156 559 3463 722 
L 3463 178 
Q 3153 47 2828 -22 
Q 2503 -91 2169 -91 
Q 1331 -91 842 396 
Q 353 884 353 1716 
Q 353 2575 817 3079 
Q 1281 3584 2069 3584 
Q 2775 3584 3186 3129 
Q 3597 2675 3597 1894 
z
M 3022 2063 
Q 3016 2534 2758 2815 
Q 2500 3097 2075 3097 
Q 1594 3097 1305 2825 
Q 1016 2553 972 2059 
L 3022 2063 
z
" transform="scale(0.015625)"/>
        <path id="DejaVuSans-64" d="M 2906 2969 
L 2906 4863 
L 3481 4863 
L 3481 0 
L 2906 0 
L 2906 525 
Q 2725 213 2448 61 
Q 2172 -91 1784 -91 
Q 1150 -91 751 415 
Q 353 922 353 1747 
Q 353 2572 751 3078 
Q 1150 3584 1784 3584 
Q 2172 3584 2448 3432 
Q 2725 3281 2906 2969 
z
M 947 1747 
Q 947 1113 1208 752 
Q 1469 391 1925 391 
Q 2381 391 2643 752 
Q 2906 1113 2906 1747 
Q 2906 2381 2643 2742 
Q 2381 3103 1925 3103 
Q 1469 3103 1208 2742 
Q 947 2381 947 1747 
z
" transform="scale(0.015625)"/>
       </defs>
       <use xlink:href="#DejaVuSans-73"/>
       <use xlink:href="#DejaVuSans-63" transform="translate(52.099609 0)"/>
       <use xlink:href="#DejaVuSans-72" transform="translate(107.080078 0)"/>
       <use xlink:href="#DejaVuSans-61" transform="translate(148.193359 0)"/>
       <use xlink:href="#DejaVuSans-6d" transform="translate(209.472656 0)"/>
       <use xlink:href="#DejaVuSans-62" transform="translate(306.884766 0)"/>
       <use xlink:href="#DejaVuSans-6c" transform="translate(370.361328 0)"/>
       <use xlink:href="#DejaVuSans-65" transform="translate(398.144531 0)"/>
       <use xlink:href="#DejaVuSans-64" transform="translate(459.667969 0)"/>
      </g>
     </g>
    </g>
   </g>
   <g id="matplotlib.axis_2">
    <g id="ytick_1">
     <g id="line2d_3">
      <defs>
       <path id="m36ca1df06c" d="M 0 0 
L -3.5 0 
" style="stroke: #000000; stroke-width: 0.8"/>
      </defs>
      <g>
       <use xlink:href="#m36ca1df06c" x="93.908" y="172.075081" style="stroke: #000000; stroke-width: 0.8"/>
      </g>
     </g>
     <g id="text_3">
      <!-- 0.0 -->
      <g transform="translate(58.282375 178.913675) scale(0.18 -0.18)">
       <defs>
        <path id="DejaVuSans-30" d="M 2034 4250 
Q 1547 4250 1301 3770 
Q 1056 3291 1056 2328 
Q 1056 1369 1301 889 
Q 1547 409 2034 409 
Q 2525 409 2770 889 
Q 3016 1369 3016 2328 
Q 3016 3291 2770 3770 
Q 2525 4250 2034 4250 
z
M 2034 4750 
Q 2819 4750 3233 4129 
Q 3647 3509 3647 2328 
Q 3647 1150 3233 529 
Q 2819 -91 2034 -91 
Q 1250 -91 836 529 
Q 422 1150 422 2328 
Q 422 3509 836 4129 
Q 1250 4750 2034 4750 
z
" transform="scale(0.015625)"/>
        <path id="DejaVuSans-2e" d="M 684 794 
L 1344 794 
L 1344 0 
L 684 0 
L 684 794 
z
" transform="scale(0.015625)"/>
       </defs>
       <use xlink:href="#DejaVuSans-30"/>
       <use xlink:href="#DejaVuSans-2e" transform="translate(63.623047 0)"/>
       <use xlink:href="#DejaVuSans-30" transform="translate(95.410156 0)"/>
      </g>
     </g>
    </g>
    <g id="ytick_2">
     <g id="line2d_4">
      <g>
       <use xlink:href="#m36ca1df06c" x="93.908" y="107.829971" style="stroke: #000000; stroke-width: 0.8"/>
      </g>
     </g>
     <g id="text_4">
      <!-- 0.5 -->
      <g transform="translate(58.282375 114.668565) scale(0.18 -0.18)">
       <defs>
        <path id="DejaVuSans-35" d="M 691 4666 
L 3169 4666 
L 3169 4134 
L 1269 4134 
L 1269 2991 
Q 1406 3038 1543 3061 
Q 1681 3084 1819 3084 
Q 2600 3084 3056 2656 
Q 3513 2228 3513 1497 
Q 3513 744 3044 326 
Q 2575 -91 1722 -91 
Q 1428 -91 1123 -41 
Q 819 9 494 109 
L 494 744 
Q 775 591 1075 516 
Q 1375 441 1709 441 
Q 2250 441 2565 725 
Q 2881 1009 2881 1497 
Q 2881 1984 2565 2268 
Q 2250 2553 1709 2553 
Q 1456 2553 1204 2497 
Q 953 2441 691 2322 
L 691 4666 
z
" transform="scale(0.015625)"/>
       </defs>
       <use xlink:href="#DejaVuSans-30"/>
       <use xlink:href="#DejaVuSans-2e" transform="translate(63.623047 0)"/>
       <use xlink:href="#DejaVuSans-35" transform="translate(95.410156 0)"/>
      </g>
     </g>
    </g>
    <g id="ytick_3">
     <g id="line2d_5">
      <g>
       <use xlink:href="#m36ca1df06c" x="93.908" y="43.584862" style="stroke: #000000; stroke-width: 0.8"/>
      </g>
     </g>
     <g id="text_5">
      <!-- 1.0 -->
      <g transform="translate(58.282375 50.423455) scale(0.18 -0.18)">
       <defs>
        <path id="DejaVuSans-31" d="M 794 531 
L 1825 531 
L 1825 4091 
L 703 3866 
L 703 4441 
L 1819 4666 
L 2450 4666 
L 2450 531 
L 3481 531 
L 3481 0 
L 794 0 
L 794 531 
z
" transform="scale(0.015625)"/>
       </defs>
       <use xlink:href="#DejaVuSans-31"/>
       <use xlink:href="#DejaVuSans-2e" transform="translate(63.623047 0)"/>
       <use xlink:href="#DejaVuSans-30" transform="translate(95.410156 0)"/>
      </g>
     </g>
    </g>
    <g id="text_6">
     <!-- CTX Episode -->
     <g transform="translate(27.727375 159.18549) rotate(-90) scale(0.2 -0.2)">
      <defs>
       <path id="DejaVuSans-43" d="M 4122 4306 
L 4122 3641 
Q 3803 3938 3442 4084 
Q 3081 4231 2675 4231 
Q 1875 4231 1450 3742 
Q 1025 3253 1025 2328 
Q 1025 1406 1450 917 
Q 1875 428 2675 428 
Q 3081 428 3442 575 
Q 3803 722 4122 1019 
L 4122 359 
Q 3791 134 3420 21 
Q 3050 -91 2638 -91 
Q 1578 -91 968 557 
Q 359 1206 359 2328 
Q 359 3453 968 4101 
Q 1578 4750 2638 4750 
Q 3056 4750 3426 4639 
Q 3797 4528 4122 4306 
z
" transform="scale(0.015625)"/>
       <path id="DejaVuSans-54" d="M -19 4666 
L 3928 4666 
L 3928 4134 
L 2272 4134 
L 2272 0 
L 1638 0 
L 1638 4134 
L -19 4134 
L -19 4666 
z
" transform="scale(0.015625)"/>
       <path id="DejaVuSans-58" d="M 403 4666 
L 1081 4666 
L 2241 2931 
L 3406 4666 
L 4084 4666 
L 2584 2425 
L 4184 0 
L 3506 0 
L 2194 1984 
L 872 0 
L 191 0 
L 1856 2491 
L 403 4666 
z
" transform="scale(0.015625)"/>
       <path id="DejaVuSans-20" transform="scale(0.015625)"/>
       <path id="DejaVuSans-45" d="M 628 4666 
L 3578 4666 
L 3578 4134 
L 1259 4134 
L 1259 2753 
L 3481 2753 
L 3481 2222 
L 1259 2222 
L 1259 531 
L 3634 531 
L 3634 0 
L 628 0 
L 628 4666 
z
" transform="scale(0.015625)"/>
       <path id="DejaVuSans-70" d="M 1159 525 
L 1159 -1331 
L 581 -1331 
L 581 3500 
L 1159 3500 
L 1159 2969 
Q 1341 3281 1617 3432 
Q 1894 3584 2278 3584 
Q 2916 3584 3314 3078 
Q 3713 2572 3713 1747 
Q 3713 922 3314 415 
Q 2916 -91 2278 -91 
Q 1894 -91 1617 61 
Q 1341 213 1159 525 
z
M 3116 1747 
Q 3116 2381 2855 2742 
Q 2594 3103 2138 3103 
Q 1681 3103 1420 2742 
Q 1159 2381 1159 1747 
Q 1159 1113 1420 752 
Q 1681 391 2138 391 
Q 2594 391 2855 752 
Q 3116 1113 3116 1747 
z
" transform="scale(0.015625)"/>
       <path id="DejaVuSans-6f" d="M 1959 3097 
Q 1497 3097 1228 2736 
Q 959 2375 959 1747 
Q 959 1119 1226 758 
Q 1494 397 1959 397 
Q 2419 397 2687 759 
Q 2956 1122 2956 1747 
Q 2956 2369 2687 2733 
Q 2419 3097 1959 3097 
z
M 1959 3584 
Q 2709 3584 3137 3096 
Q 3566 2609 3566 1747 
Q 3566 888 3137 398 
Q 2709 -91 1959 -91 
Q 1206 -91 779 398 
Q 353 888 353 1747 
Q 353 2609 779 3096 
Q 1206 3584 1959 3584 
z
" transform="scale(0.015625)"/>
      </defs>
      <use xlink:href="#DejaVuSans-43"/>
      <use xlink:href="#DejaVuSans-54" transform="translate(69.824219 0)"/>
      <use xlink:href="#DejaVuSans-58" transform="translate(130.908203 0)"/>
      <use xlink:href="#DejaVuSans-20" transform="translate(199.414062 0)"/>
      <use xlink:href="#DejaVuSans-45" transform="translate(231.201172 0)"/>
      <use xlink:href="#DejaVuSans-70" transform="translate(294.384766 0)"/>
      <use xlink:href="#DejaVuSans-69" transform="translate(357.861328 0)"/>
      <use xlink:href="#DejaVuSans-73" transform="translate(385.644531 0)"/>
      <use xlink:href="#DejaVuSans-6f" transform="translate(437.744141 0)"/>
      <use xlink:href="#DejaVuSans-64" transform="translate(498.925781 0)"/>
      <use xlink:href="#DejaVuSans-65" transform="translate(562.402344 0)"/>
     </g>
     <!-- Max. Selectivity -->
     <g transform="translate(50.123 175.988615) rotate(-90) scale(0.2 -0.2)">
      <defs>
       <path id="DejaVuSans-4d" d="M 628 4666 
L 1569 4666 
L 2759 1491 
L 3956 4666 
L 4897 4666 
L 4897 0 
L 4281 0 
L 4281 4097 
L 3078 897 
L 2444 897 
L 1241 4097 
L 1241 0 
L 628 0 
L 628 4666 
z
" transform="scale(0.015625)"/>
       <path id="DejaVuSans-78" d="M 3513 3500 
L 2247 1797 
L 3578 0 
L 2900 0 
L 1881 1375 
L 863 0 
L 184 0 
L 1544 1831 
L 300 3500 
L 978 3500 
L 1906 2253 
L 2834 3500 
L 3513 3500 
z
" transform="scale(0.015625)"/>
       <path id="DejaVuSans-53" d="M 3425 4513 
L 3425 3897 
Q 3066 4069 2747 4153 
Q 2428 4238 2131 4238 
Q 1616 4238 1336 4038 
Q 1056 3838 1056 3469 
Q 1056 3159 1242 3001 
Q 1428 2844 1947 2747 
L 2328 2669 
Q 3034 2534 3370 2195 
Q 3706 1856 3706 1288 
Q 3706 609 3251 259 
Q 2797 -91 1919 -91 
Q 1588 -91 1214 -16 
Q 841 59 441 206 
L 441 856 
Q 825 641 1194 531 
Q 1563 422 1919 422 
Q 2459 422 2753 634 
Q 3047 847 3047 1241 
Q 3047 1584 2836 1778 
Q 2625 1972 2144 2069 
L 1759 2144 
Q 1053 2284 737 2584 
Q 422 2884 422 3419 
Q 422 4038 858 4394 
Q 1294 4750 2059 4750 
Q 2388 4750 2728 4690 
Q 3069 4631 3425 4513 
z
" transform="scale(0.015625)"/>
       <path id="DejaVuSans-76" d="M 191 3500 
L 800 3500 
L 1894 563 
L 2988 3500 
L 3597 3500 
L 2284 0 
L 1503 0 
L 191 3500 
z
" transform="scale(0.015625)"/>
       <path id="DejaVuSans-79" d="M 2059 -325 
Q 1816 -950 1584 -1140 
Q 1353 -1331 966 -1331 
L 506 -1331 
L 506 -850 
L 844 -850 
Q 1081 -850 1212 -737 
Q 1344 -625 1503 -206 
L 1606 56 
L 191 3500 
L 800 3500 
L 1894 763 
L 2988 3500 
L 3597 3500 
L 2059 -325 
z
" transform="scale(0.015625)"/>
      </defs>
      <use xlink:href="#DejaVuSans-4d"/>
      <use xlink:href="#DejaVuSans-61" transform="translate(86.279297 0)"/>
      <use xlink:href="#DejaVuSans-78" transform="translate(147.558594 0)"/>
      <use xlink:href="#DejaVuSans-2e" transform="translate(206.738281 0)"/>
      <use xlink:href="#DejaVuSans-20" transform="translate(238.525391 0)"/>
      <use xlink:href="#DejaVuSans-53" transform="translate(270.3125 0)"/>
      <use xlink:href="#DejaVuSans-65" transform="translate(333.789062 0)"/>
      <use xlink:href="#DejaVuSans-6c" transform="translate(395.3125 0)"/>
      <use xlink:href="#DejaVuSans-65" transform="translate(423.095703 0)"/>
      <use xlink:href="#DejaVuSans-63" transform="translate(484.619141 0)"/>
      <use xlink:href="#DejaVuSans-74" transform="translate(539.599609 0)"/>
      <use xlink:href="#DejaVuSans-69" transform="translate(578.808594 0)"/>
      <use xlink:href="#DejaVuSans-76" transform="translate(606.591797 0)"/>
      <use xlink:href="#DejaVuSans-69" transform="translate(665.771484 0)"/>
      <use xlink:href="#DejaVuSans-74" transform="translate(693.554688 0)"/>
      <use xlink:href="#DejaVuSans-79" transform="translate(732.763672 0)"/>
     </g>
    </g>
   </g>
   <g id="line2d_6">
    <path d="M 130.359051 39.791749 
L 130.359051 24.372922 
L 204.748949 24.372922 
L 204.748949 39.791749 
" style="fill: none; stroke: #000000; stroke-width: 2; stroke-linecap: square"/>
   </g>
   <g id="patch_3">
    <path d="M 93.908 172.075081 
L 93.908 21.508399 
" style="fill: none; stroke: #000000; stroke-width: 0.8; stroke-linejoin: miter; stroke-linecap: square"/>
   </g>
   <g id="patch_4">
    <path d="M 93.908 172.075081 
L 241.2 172.075081 
" style="fill: none; stroke: #000000; stroke-width: 0.8; stroke-linejoin: miter; stroke-linecap: square"/>
   </g>
   <g id="PathCollection_1">
    <defs>
     <path id="m0c9f4d7641" d="M 0 1.5 
C 0.397805 1.5 0.77937 1.341951 1.06066 1.06066 
C 1.341951 0.77937 1.5 0.397805 1.5 0 
C 1.5 -0.397805 1.341951 -0.77937 1.06066 -1.06066 
C 0.77937 -1.341951 0.397805 -1.5 0 -1.5 
C -0.397805 -1.5 -0.77937 -1.341951 -1.06066 -1.06066 
C -1.341951 -0.77937 -1.5 -0.397805 -1.5 0 
C -1.5 0.397805 -1.341951 0.77937 -1.06066 1.06066 
C -0.77937 1.341951 -0.397805 1.5 0 1.5 
z
"/>
    </defs>
    <g clip-path="url(#p01978fe885)">
     <use xlink:href="#m0c9f4d7641" x="127.889961" y="49.559591" style="fill-opacity: 0.05"/>
     <use xlink:href="#m0c9f4d7641" x="136.915017" y="50.064777" style="fill-opacity: 0.05"/>
     <use xlink:href="#m0c9f4d7641" x="115.484474" y="48.905285" style="fill-opacity: 0.05"/>
     <use xlink:href="#m0c9f4d7641" x="124.477267" y="49.284678" style="fill-opacity: 0.05"/>
     <use xlink:href="#m0c9f4d7641" x="119.847933" y="49.198587" style="fill-opacity: 0.05"/>
     <use xlink:href="#m0c9f4d7641" x="118.228694" y="50.061652" style="fill-opacity: 0.05"/>
     <use xlink:href="#m0c9f4d7641" x="121.023422" y="53.354511" style="fill-opacity: 0.05"/>
     <use xlink:href="#m0c9f4d7641" x="125.763562" y="50.246462" style="fill-opacity: 0.05"/>
     <use xlink:href="#m0c9f4d7641" x="127.287268" y="49.833862" style="fill-opacity: 0.05"/>
     <use xlink:href="#m0c9f4d7641" x="131.51408" y="51.182559" style="fill-opacity: 0.05"/>
     <use xlink:href="#m0c9f4d7641" x="127.954606" y="49.658633" style="fill-opacity: 0.05"/>
     <use xlink:href="#m0c9f4d7641" x="135.870434" y="49.583073" style="fill-opacity: 0.05"/>
     <use xlink:href="#m0c9f4d7641" x="121.564744" y="50.624476" style="fill-opacity: 0.05"/>
     <use xlink:href="#m0c9f4d7641" x="141.610298" y="50.454845" style="fill-opacity: 0.05"/>
     <use xlink:href="#m0c9f4d7641" x="116.296015" y="50.038975" style="fill-opacity: 0.05"/>
     <use xlink:href="#m0c9f4d7641" x="135.431475" y="49.977016" style="fill-opacity: 0.05"/>
     <use xlink:href="#m0c9f4d7641" x="127.898376" y="52.406842" style="fill-opacity: 0.05"/>
     <use xlink:href="#m0c9f4d7641" x="132.105423" y="52.410939" style="fill-opacity: 0.05"/>
     <use xlink:href="#m0c9f4d7641" x="119.658419" y="50.761312" style="fill-opacity: 0.05"/>
     <use xlink:href="#m0c9f4d7641" x="121.375771" y="49.12848" style="fill-opacity: 0.05"/>
    </g>
   </g>
   <g id="PathCollection_2">
    <g clip-path="url(#p01978fe885)">
     <use xlink:href="#m0c9f4d7641" x="213.697893" y="77.849355" style="fill-opacity: 0.05"/>
     <use xlink:href="#m0c9f4d7641" x="218.682522" y="77.158379" style="fill-opacity: 0.05"/>
     <use xlink:href="#m0c9f4d7641" x="199.197207" y="71.398182" style="fill-opacity: 0.05"/>
     <use xlink:href="#m0c9f4d7641" x="210.471693" y="67.918323" style="fill-opacity: 0.05"/>
     <use xlink:href="#m0c9f4d7641" x="215.94877" y="68.499321" style="fill-opacity: 0.05"/>
     <use xlink:href="#m0c9f4d7641" x="216.490849" y="81.66339" style="fill-opacity: 0.05"/>
     <use xlink:href="#m0c9f4d7641" x="192.401542" y="69.499804" style="fill-opacity: 0.05"/>
     <use xlink:href="#m0c9f4d7641" x="191.033082" y="71.494497" style="fill-opacity: 0.05"/>
     <use xlink:href="#m0c9f4d7641" x="194.924437" y="59.749515" style="fill-opacity: 0.05"/>
     <use xlink:href="#m0c9f4d7641" x="216.000943" y="74.701067" style="fill-opacity: 0.05"/>
     <use xlink:href="#m0c9f4d7641" x="192.797374" y="71.816236" style="fill-opacity: 0.05"/>
     <use xlink:href="#m0c9f4d7641" x="202.401431" y="76.769176" style="fill-opacity: 0.05"/>
     <use xlink:href="#m0c9f4d7641" x="218.373892" y="66.615286" style="fill-opacity: 0.05"/>
     <use xlink:href="#m0c9f4d7641" x="205.735814" y="69.400081" style="fill-opacity: 0.05"/>
     <use xlink:href="#m0c9f4d7641" x="210.458437" y="61.684387" style="fill-opacity: 0.05"/>
     <use xlink:href="#m0c9f4d7641" x="199.25944" y="81.233122" style="fill-opacity: 0.05"/>
     <use xlink:href="#m0c9f4d7641" x="210.298464" y="76.48583" style="fill-opacity: 0.05"/>
     <use xlink:href="#m0c9f4d7641" x="214.706057" y="65.036034" style="fill-opacity: 0.05"/>
     <use xlink:href="#m0c9f4d7641" x="190.415155" y="71.331997" style="fill-opacity: 0.05"/>
     <use xlink:href="#m0c9f4d7641" x="212.192234" y="68.694608" style="fill-opacity: 0.05"/>
    </g>
   </g>
   <g id="text_7">
    <!-- *** -->
    <g transform="translate(155.554 21.045422) scale(0.16 -0.16)">
     <defs>
      <path id="DejaVuSans-2a" d="M 3009 3897 
L 1888 3291 
L 3009 2681 
L 2828 2375 
L 1778 3009 
L 1778 1831 
L 1422 1831 
L 1422 3009 
L 372 2375 
L 191 2681 
L 1313 3291 
L 191 3897 
L 372 4206 
L 1422 3572 
L 1422 4750 
L 1778 4750 
L 1778 3572 
L 2828 4206 
L 3009 3897 
z
" transform="scale(0.015625)"/>
     </defs>
     <use xlink:href="#DejaVuSans-2a"/>
     <use xlink:href="#DejaVuSans-2a" transform="translate(50 0)"/>
     <use xlink:href="#DejaVuSans-2a" transform="translate(100 0)"/>
    </g>
   </g>
   <g id="LineCollection_1">
    <path d="M 130.359051 50.602695 
L 130.359051 50.070972 
" clip-path="url(#p01978fe885)" style="fill: none; stroke: #000000; stroke-width: 2"/>
    <path d="M 204.748949 72.779245 
L 204.748949 70.120603 
" clip-path="url(#p01978fe885)" style="fill: none; stroke: #000000; stroke-width: 2"/>
   </g>
   <g id="line2d_7">
    <defs>
     <path id="m83cfa133f1" d="M 5 0 
L -5 -0 
" style="stroke: #000000"/>
    </defs>
    <g clip-path="url(#p01978fe885)">
     <use xlink:href="#m83cfa133f1" x="130.359051" y="50.602695" style="stroke: #000000"/>
     <use xlink:href="#m83cfa133f1" x="204.748949" y="72.779245" style="stroke: #000000"/>
    </g>
   </g>
   <g id="line2d_8">
    <g clip-path="url(#p01978fe885)">
     <use xlink:href="#m83cfa133f1" x="130.359051" y="50.070972" style="stroke: #000000"/>
     <use xlink:href="#m83cfa133f1" x="204.748949" y="70.120603" style="stroke: #000000"/>
    </g>
   </g>
   <g id="line2d_9">
    <defs>
     <path id="m5a2ce27316" d="M 0 3 
C 0.795609 3 1.55874 2.683901 2.12132 2.12132 
C 2.683901 1.55874 3 0.795609 3 0 
C 3 -0.795609 2.683901 -1.55874 2.12132 -2.12132 
C 1.55874 -2.683901 0.795609 -3 0 -3 
C -0.795609 -3 -1.55874 -2.683901 -2.12132 -2.12132 
C -2.683901 -1.55874 -3 -0.795609 -3 0 
C -3 0.795609 -2.683901 1.55874 -2.12132 2.12132 
C -1.55874 2.683901 -0.795609 3 0 3 
z
" style="stroke: #000000"/>
    </defs>
    <g clip-path="url(#p01978fe885)">
     <use xlink:href="#m5a2ce27316" x="130.359051" y="50.336833" style="stroke: #000000"/>
     <use xlink:href="#m5a2ce27316" x="204.748949" y="71.449924" style="stroke: #000000"/>
    </g>
   </g>
  </g>
 </g>
 <defs>
  <clipPath id="p01978fe885">
   <rect x="93.908" y="21.508399" width="147.292" height="150.566682"/>
  </clipPath>
 </defs>
</svg>
