<?xml version="1.0" encoding="utf-8" standalone="no"?>
<!DOCTYPE svg PUBLIC "-//W3C//DTD SVG 1.1//EN"
  "http://www.w3.org/Graphics/SVG/1.1/DTD/svg11.dtd">
<svg xmlns:xlink="http://www.w3.org/1999/xlink" width="252pt" height="252pt" viewBox="0 0 252 252" xmlns="http://www.w3.org/2000/svg" version="1.1">
 <metadata>
  <rdf:RDF xmlns:dc="http://purl.org/dc/elements/1.1/" xmlns:cc="http://creativecommons.org/ns#" xmlns:rdf="http://www.w3.org/1999/02/22-rdf-syntax-ns#">
   <cc:Work>
    <dc:type rdf:resource="http://purl.org/dc/dcmitype/StillImage"/>
    <dc:date>2025-10-02T13:12:04.783801</dc:date>
    <dc:format>image/svg+xml</dc:format>
    <dc:creator>
     <cc:Agent>
      <dc:title>Matplotlib v3.10.1, https://matplotlib.org/</dc:title>
     </cc:Agent>
    </dc:creator>
   </cc:Work>
  </rdf:RDF>
 </metadata>
 <defs>
  <style type="text/css">*{stroke-linejoin: round; stroke-linecap: butt}</style>
 </defs>
 <g id="figure_1">
  <g id="patch_1">
   <path d="M 0 252 
L 252 252 
L 252 0 
L 0 0 
L 0 252 
z
" style="fill: none"/>
  </g>
  <g id="axes_1">
   <g id="patch_2">
    <path d="M 93.908 172.075081 
L 241.2 172.075081 
L 241.2 22.390527 
L 93.908 22.390527 
L 93.908 172.075081 
z
" style="fill: none"/>
   </g>
   <g id="FillBetweenPolyCollection_1">
    <defs>
     <path id="mc3e78439f8" d="M 146.127168 -194.230162 
L 114.590933 -194.230162 
L 113.750581 -194.309528 
L 112.908405 -194.388893 
L 112.06806 -194.468258 
L 111.233284 -194.547623 
L 110.407862 -194.626989 
L 109.595588 -194.706354 
L 108.800229 -194.785719 
L 108.02549 -194.865084 
L 107.27497 -194.94445 
L 106.552133 -195.023815 
L 105.860268 -195.10318 
L 105.20246 -195.182545 
L 104.581556 -195.261911 
L 104.00014 -195.341276 
L 103.460509 -195.420641 
L 102.964646 -195.500006 
L 102.514212 -195.579372 
L 102.110519 -195.658737 
L 101.754531 -195.738102 
L 101.446847 -195.817467 
L 101.187706 -195.896833 
L 100.976977 -195.976198 
L 100.814169 -196.055563 
L 100.698437 -196.134928 
L 100.628587 -196.214293 
L 100.603091 -196.293659 
L 100.620103 -196.373024 
L 100.677475 -196.452389 
L 100.77278 -196.531754 
L 100.903336 -196.61112 
L 101.066226 -196.690485 
L 101.258337 -196.76985 
L 101.47638 -196.849215 
L 101.716932 -196.928581 
L 101.976465 -197.007946 
L 102.25139 -197.087311 
L 102.53809 -197.166676 
L 102.832962 -197.246042 
L 103.132462 -197.325407 
L 103.433144 -197.404772 
L 103.731704 -197.484137 
L 104.025021 -197.563503 
L 104.3102 -197.642868 
L 104.584609 -197.722233 
L 104.845918 -197.801598 
L 105.092132 -197.880964 
L 105.321619 -197.960329 
L 105.53314 -198.039694 
L 105.725862 -198.119059 
L 105.899377 -198.198425 
L 106.053704 -198.27779 
L 106.189292 -198.357155 
L 106.307012 -198.43652 
L 106.408139 -198.515886 
L 106.494331 -198.595251 
L 106.567595 -198.674616 
L 106.630254 -198.753981 
L 106.684898 -198.833347 
L 106.734338 -198.912712 
L 106.78155 -198.992077 
L 106.829613 -199.071442 
L 106.881654 -199.150808 
L 106.940786 -199.230173 
L 107.010042 -199.309538 
L 107.092322 -199.388903 
L 107.190335 -199.468269 
L 107.306548 -199.547634 
L 107.443143 -199.626999 
L 107.601976 -199.706364 
L 107.784553 -199.78573 
L 107.992004 -199.865095 
L 108.225077 -199.94446 
L 108.48413 -200.023825 
L 108.76914 -200.103191 
L 109.07972 -200.182556 
L 109.415141 -200.261921 
L 109.774362 -200.341286 
L 110.156067 -200.420652 
L 110.558705 -200.500017 
L 110.980539 -200.579382 
L 111.419684 -200.658747 
L 111.874161 -200.738113 
L 112.341941 -200.817478 
L 112.820983 -200.896843 
L 113.309282 -200.976208 
L 113.804896 -201.055574 
L 114.305981 -201.134939 
L 114.810813 -201.214304 
L 115.317806 -201.293669 
L 115.825521 -201.373035 
L 116.332675 -201.4524 
L 116.838135 -201.531765 
L 117.340918 -201.61113 
L 117.840175 -201.690496 
L 118.33518 -201.769861 
L 118.825311 -201.849226 
L 119.310034 -201.928591 
L 119.78888 -202.007957 
L 120.261431 -202.087322 
L 140.45667 -202.087322 
L 140.45667 -202.087322 
L 140.929221 -202.007957 
L 141.408067 -201.928591 
L 141.89279 -201.849226 
L 142.382921 -201.769861 
L 142.877926 -201.690496 
L 143.377183 -201.61113 
L 143.879966 -201.531765 
L 144.385426 -201.4524 
L 144.89258 -201.373035 
L 145.400295 -201.293669 
L 145.907288 -201.214304 
L 146.41212 -201.134939 
L 146.913206 -201.055574 
L 147.408819 -200.976208 
L 147.897118 -200.896843 
L 148.37616 -200.817478 
L 148.84394 -200.738113 
L 149.298417 -200.658747 
L 149.737562 -200.579382 
L 150.159396 -200.500017 
L 150.562034 -200.420652 
L 150.943739 -200.341286 
L 151.30296 -200.261921 
L 151.638381 -200.182556 
L 151.948961 -200.103191 
L 152.233971 -200.023825 
L 152.493024 -199.94446 
L 152.726097 -199.865095 
L 152.933548 -199.78573 
L 153.116125 -199.706364 
L 153.274958 -199.626999 
L 153.411553 -199.547634 
L 153.527766 -199.468269 
L 153.625779 -199.388903 
L 153.708059 -199.309538 
L 153.777315 -199.230173 
L 153.836447 -199.150808 
L 153.888488 -199.071442 
L 153.936551 -198.992077 
L 153.983763 -198.912712 
L 154.033203 -198.833347 
L 154.087847 -198.753981 
L 154.150506 -198.674616 
L 154.22377 -198.595251 
L 154.309962 -198.515886 
L 154.411089 -198.43652 
L 154.528809 -198.357155 
L 154.664397 -198.27779 
L 154.818724 -198.198425 
L 154.992239 -198.119059 
L 155.184961 -198.039694 
L 155.396482 -197.960329 
L 155.625969 -197.880964 
L 155.872183 -197.801598 
L 156.133492 -197.722233 
L 156.407901 -197.642868 
L 156.69308 -197.563503 
L 156.986397 -197.484137 
L 157.284957 -197.404772 
L 157.585639 -197.325407 
L 157.885139 -197.246042 
L 158.180011 -197.166676 
L 158.466711 -197.087311 
L 158.741636 -197.007946 
L 159.001169 -196.928581 
L 159.241721 -196.849215 
L 159.459764 -196.76985 
L 159.651875 -196.690485 
L 159.814765 -196.61112 
L 159.945321 -196.531754 
L 160.040626 -196.452389 
L 160.097998 -196.373024 
L 160.11501 -196.293659 
L 160.089514 -196.214293 
L 160.019664 -196.134928 
L 159.903932 -196.055563 
L 159.741124 -195.976198 
L 159.530395 -195.896833 
L 159.271254 -195.817467 
L 158.96357 -195.738102 
L 158.607582 -195.658737 
L 158.203889 -195.579372 
L 157.753455 -195.500006 
L 157.257592 -195.420641 
L 156.717961 -195.341276 
L 156.136545 -195.261911 
L 155.515641 -195.182545 
L 154.857833 -195.10318 
L 154.165968 -195.023815 
L 153.443131 -194.94445 
L 152.692611 -194.865084 
L 151.917872 -194.785719 
L 151.122513 -194.706354 
L 150.310239 -194.626989 
L 149.484817 -194.547623 
L 148.650041 -194.468258 
L 147.809696 -194.388893 
L 146.96752 -194.309528 
L 146.127168 -194.230162 
z
" style="stroke: #484848; stroke-opacity: 0.9; stroke-width: 1.25"/>
    </defs>
    <g clip-path="url(#p7b77aff826)">
     <use xlink:href="#mc3e78439f8" x="0" y="252" style="fill: #d86743; fill-opacity: 0.9; stroke: #484848; stroke-opacity: 0.9; stroke-width: 1.25"/>
    </g>
   </g>
   <g id="FillBetweenPolyCollection_2">
    <defs>
     <path id="mc9efb4cc35" d="M 213.701366 -184.097057 
L 195.796533 -184.097057 
L 195.459096 -184.292357 
L 195.128962 -184.487657 
L 194.806019 -184.682957 
L 194.489825 -184.878257 
L 194.179593 -185.073556 
L 193.874198 -185.268856 
L 193.572182 -185.464156 
L 193.271767 -185.659456 
L 192.970886 -185.854756 
L 192.667212 -186.050056 
L 192.3582 -186.245355 
L 192.041141 -186.440655 
L 191.713215 -186.635955 
L 191.371558 -186.831255 
L 191.013332 -187.026555 
L 190.635799 -187.221855 
L 190.2364 -187.417155 
L 189.812834 -187.612454 
L 189.363137 -187.807754 
L 188.885758 -188.003054 
L 188.37963 -188.198354 
L 187.844237 -188.393654 
L 187.279673 -188.588954 
L 186.686683 -188.784253 
L 186.066699 -188.979553 
L 185.421862 -189.174853 
L 184.755023 -189.370153 
L 184.069731 -189.565453 
L 183.370206 -189.760753 
L 182.66129 -189.956053 
L 181.948387 -190.151352 
L 181.237381 -190.346652 
L 180.534548 -190.541952 
L 179.846448 -190.737252 
L 179.179813 -190.932552 
L 178.54142 -191.127852 
L 177.937971 -191.323151 
L 177.375965 -191.518451 
L 176.861568 -191.713751 
L 176.400503 -191.909051 
L 175.997931 -192.104351 
L 175.658359 -192.299651 
L 175.385554 -192.494951 
L 175.182473 -192.69025 
L 175.051215 -192.88555 
L 174.99299 -193.08085 
L 175.008106 -193.27615 
L 175.095977 -193.47145 
L 175.25515 -193.66675 
L 175.483346 -193.86205 
L 175.777521 -194.057349 
L 176.133936 -194.252649 
L 176.548243 -194.447949 
L 177.015572 -194.643249 
L 177.530636 -194.838549 
L 178.087822 -195.033849 
L 178.6813 -195.229148 
L 179.305117 -195.424448 
L 179.953295 -195.619748 
L 180.619919 -195.815048 
L 181.299221 -196.010348 
L 181.98565 -196.205648 
L 182.673941 -196.400948 
L 183.359167 -196.596247 
L 184.036786 -196.791547 
L 184.70268 -196.986847 
L 185.353179 -197.182147 
L 185.985081 -197.377447 
L 186.595665 -197.572747 
L 187.182696 -197.768046 
L 187.744424 -197.963346 
L 188.279573 -198.158646 
L 188.787335 -198.353946 
L 189.267351 -198.549246 
L 189.719689 -198.744546 
L 190.144825 -198.939846 
L 190.543609 -199.135145 
L 190.917243 -199.330445 
L 191.267238 -199.525745 
L 191.595386 -199.721045 
L 191.903715 -199.916345 
L 192.19445 -200.111645 
L 192.469968 -200.306944 
L 192.732754 -200.502244 
L 192.985353 -200.697544 
L 193.230322 -200.892844 
L 193.470185 -201.088144 
L 193.707384 -201.283444 
L 193.94424 -201.478744 
L 194.182903 -201.674043 
L 194.425324 -201.869343 
L 194.673213 -202.064643 
L 194.928016 -202.259943 
L 195.190891 -202.455243 
L 195.462695 -202.650543 
L 195.74397 -202.845842 
L 196.034945 -203.041142 
L 196.33554 -203.236442 
L 196.645377 -203.431742 
L 212.852522 -203.431742 
L 212.852522 -203.431742 
L 213.162359 -203.236442 
L 213.462954 -203.041142 
L 213.753929 -202.845842 
L 214.035204 -202.650543 
L 214.307008 -202.455243 
L 214.569883 -202.259943 
L 214.824686 -202.064643 
L 215.072575 -201.869343 
L 215.314996 -201.674043 
L 215.553659 -201.478744 
L 215.790515 -201.283444 
L 216.027714 -201.088144 
L 216.267577 -200.892844 
L 216.512546 -200.697544 
L 216.765145 -200.502244 
L 217.027931 -200.306944 
L 217.303449 -200.111645 
L 217.594184 -199.916345 
L 217.902513 -199.721045 
L 218.230661 -199.525745 
L 218.580656 -199.330445 
L 218.95429 -199.135145 
L 219.353074 -198.939846 
L 219.77821 -198.744546 
L 220.230548 -198.549246 
L 220.710564 -198.353946 
L 221.218326 -198.158646 
L 221.753475 -197.963346 
L 222.315203 -197.768046 
L 222.902234 -197.572747 
L 223.512818 -197.377447 
L 224.14472 -197.182147 
L 224.795219 -196.986847 
L 225.461113 -196.791547 
L 226.138732 -196.596247 
L 226.823958 -196.400948 
L 227.512249 -196.205648 
L 228.198678 -196.010348 
L 228.87798 -195.815048 
L 229.544604 -195.619748 
L 230.192782 -195.424448 
L 230.816599 -195.229148 
L 231.410077 -195.033849 
L 231.967263 -194.838549 
L 232.482327 -194.643249 
L 232.949656 -194.447949 
L 233.363963 -194.252649 
L 233.720378 -194.057349 
L 234.014553 -193.86205 
L 234.242749 -193.66675 
L 234.401922 -193.47145 
L 234.489793 -193.27615 
L 234.504909 -193.08085 
L 234.446684 -192.88555 
L 234.315426 -192.69025 
L 234.112345 -192.494951 
L 233.83954 -192.299651 
L 233.499968 -192.104351 
L 233.097396 -191.909051 
L 232.636331 -191.713751 
L 232.121934 -191.518451 
L 231.559928 -191.323151 
L 230.956479 -191.127852 
L 230.318086 -190.932552 
L 229.651451 -190.737252 
L 228.963351 -190.541952 
L 228.260518 -190.346652 
L 227.549512 -190.151352 
L 226.836609 -189.956053 
L 226.127693 -189.760753 
L 225.428168 -189.565453 
L 224.742876 -189.370153 
L 224.076037 -189.174853 
L 223.4312 -188.979553 
L 222.811216 -188.784253 
L 222.218226 -188.588954 
L 221.653662 -188.393654 
L 221.118269 -188.198354 
L 220.612141 -188.003054 
L 220.134762 -187.807754 
L 219.685065 -187.612454 
L 219.261499 -187.417155 
L 218.8621 -187.221855 
L 218.484567 -187.026555 
L 218.126341 -186.831255 
L 217.784684 -186.635955 
L 217.456758 -186.440655 
L 217.139699 -186.245355 
L 216.830687 -186.050056 
L 216.527013 -185.854756 
L 216.226132 -185.659456 
L 215.925717 -185.464156 
L 215.623701 -185.268856 
L 215.318306 -185.073556 
L 215.008074 -184.878257 
L 214.69188 -184.682957 
L 214.368937 -184.487657 
L 214.038803 -184.292357 
L 213.701366 -184.097057 
z
" style="stroke: #484848; stroke-opacity: 0.9; stroke-width: 1.25"/>
    </defs>
    <g clip-path="url(#p7b77aff826)">
     <use xlink:href="#mc9efb4cc35" x="0" y="252" style="fill: #1ea0d1; fill-opacity: 0.9; stroke: #484848; stroke-opacity: 0.9; stroke-width: 1.25"/>
    </g>
   </g>
   <g id="matplotlib.axis_1">
    <g id="xtick_1">
     <g id="line2d_1">
      <defs>
       <path id="mb2cf83af05" d="M 0 0 
L 0 3.5 
" style="stroke: #000000; stroke-width: 0.8"/>
      </defs>
      <g>
       <use xlink:href="#mb2cf83af05" x="130.359051" y="172.075081" style="stroke: #000000; stroke-width: 0.8"/>
      </g>
     </g>
     <g id="text_1">
      <!-- intact -->
      <g transform="translate(110.56439 216.644404) rotate(-30) scale(0.18 -0.18)">
       <defs>
        <path id="DejaVuSans-69" d="M 603 3500 
L 1178 3500 
L 1178 0 
L 603 0 
L 603 3500 
z
M 603 4863 
L 1178 4863 
L 1178 4134 
L 603 4134 
L 603 4863 
z
" transform="scale(0.015625)"/>
        <path id="DejaVuSans-6e" d="M 3513 2113 
L 3513 0 
L 2938 0 
L 2938 2094 
Q 2938 2591 2744 2837 
Q 2550 3084 2163 3084 
Q 1697 3084 1428 2787 
Q 1159 2491 1159 1978 
L 1159 0 
L 581 0 
L 581 3500 
L 1159 3500 
L 1159 2956 
Q 1366 3272 1645 3428 
Q 1925 3584 2291 3584 
Q 2894 3584 3203 3211 
Q 3513 2838 3513 2113 
z
" transform="scale(0.015625)"/>
        <path id="DejaVuSans-74" d="M 1172 4494 
L 1172 3500 
L 2356 3500 
L 2356 3053 
L 1172 3053 
L 1172 1153 
Q 1172 725 1289 603 
Q 1406 481 1766 481 
L 2356 481 
L 2356 0 
L 1766 0 
Q 1100 0 847 248 
Q 594 497 594 1153 
L 594 3053 
L 172 3053 
L 172 3500 
L 594 3500 
L 594 4494 
L 1172 4494 
z
" transform="scale(0.015625)"/>
        <path id="DejaVuSans-61" d="M 2194 1759 
Q 1497 1759 1228 1600 
Q 959 1441 959 1056 
Q 959 750 1161 570 
Q 1363 391 1709 391 
Q 2188 391 2477 730 
Q 2766 1069 2766 1631 
L 2766 1759 
L 2194 1759 
z
M 3341 1997 
L 3341 0 
L 2766 0 
L 2766 531 
Q 2569 213 2275 61 
Q 1981 -91 1556 -91 
Q 1019 -91 701 211 
Q 384 513 384 1019 
Q 384 1609 779 1909 
Q 1175 2209 1959 2209 
L 2766 2209 
L 2766 2266 
Q 2766 2663 2505 2880 
Q 2244 3097 1772 3097 
Q 1472 3097 1187 3025 
Q 903 2953 641 2809 
L 641 3341 
Q 956 3463 1253 3523 
Q 1550 3584 1831 3584 
Q 2591 3584 2966 3190 
Q 3341 2797 3341 1997 
z
" transform="scale(0.015625)"/>
        <path id="DejaVuSans-63" d="M 3122 3366 
L 3122 2828 
Q 2878 2963 2633 3030 
Q 2388 3097 2138 3097 
Q 1578 3097 1268 2742 
Q 959 2388 959 1747 
Q 959 1106 1268 751 
Q 1578 397 2138 397 
Q 2388 397 2633 464 
Q 2878 531 3122 666 
L 3122 134 
Q 2881 22 2623 -34 
Q 2366 -91 2075 -91 
Q 1284 -91 818 406 
Q 353 903 353 1747 
Q 353 2603 823 3093 
Q 1294 3584 2113 3584 
Q 2378 3584 2631 3529 
Q 2884 3475 3122 3366 
z
" transform="scale(0.015625)"/>
       </defs>
       <use xlink:href="#DejaVuSans-69"/>
       <use xlink:href="#DejaVuSans-6e" transform="translate(27.783203 0)"/>
       <use xlink:href="#DejaVuSans-74" transform="translate(91.162109 0)"/>
       <use xlink:href="#DejaVuSans-61" transform="translate(130.371094 0)"/>
       <use xlink:href="#DejaVuSans-63" transform="translate(191.650391 0)"/>
       <use xlink:href="#DejaVuSans-74" transform="translate(246.630859 0)"/>
      </g>
     </g>
    </g>
    <g id="xtick_2">
     <g id="line2d_2">
      <g>
       <use xlink:href="#mb2cf83af05" x="204.748949" y="172.075081" style="stroke: #000000; stroke-width: 0.8"/>
      </g>
     </g>
     <g id="text_2">
      <!-- scrambled -->
      <g transform="translate(166.456393 238.003935) rotate(-30) scale(0.18 -0.18)">
       <defs>
        <path id="DejaVuSans-73" d="M 2834 3397 
L 2834 2853 
Q 2591 2978 2328 3040 
Q 2066 3103 1784 3103 
Q 1356 3103 1142 2972 
Q 928 2841 928 2578 
Q 928 2378 1081 2264 
Q 1234 2150 1697 2047 
L 1894 2003 
Q 2506 1872 2764 1633 
Q 3022 1394 3022 966 
Q 3022 478 2636 193 
Q 2250 -91 1575 -91 
Q 1294 -91 989 -36 
Q 684 19 347 128 
L 347 722 
Q 666 556 975 473 
Q 1284 391 1588 391 
Q 1994 391 2212 530 
Q 2431 669 2431 922 
Q 2431 1156 2273 1281 
Q 2116 1406 1581 1522 
L 1381 1569 
Q 847 1681 609 1914 
Q 372 2147 372 2553 
Q 372 3047 722 3315 
Q 1072 3584 1716 3584 
Q 2034 3584 2315 3537 
Q 2597 3491 2834 3397 
z
" transform="scale(0.015625)"/>
        <path id="DejaVuSans-72" d="M 2631 2963 
Q 2534 3019 2420 3045 
Q 2306 3072 2169 3072 
Q 1681 3072 1420 2755 
Q 1159 2438 1159 1844 
L 1159 0 
L 581 0 
L 581 3500 
L 1159 3500 
L 1159 2956 
Q 1341 3275 1631 3429 
Q 1922 3584 2338 3584 
Q 2397 3584 2469 3576 
Q 2541 3569 2628 3553 
L 2631 2963 
z
" transform="scale(0.015625)"/>
        <path id="DejaVuSans-6d" d="M 3328 2828 
Q 3544 3216 3844 3400 
Q 4144 3584 4550 3584 
Q 5097 3584 5394 3201 
Q 5691 2819 5691 2113 
L 5691 0 
L 5113 0 
L 5113 2094 
Q 5113 2597 4934 2840 
Q 4756 3084 4391 3084 
Q 3944 3084 3684 2787 
Q 3425 2491 3425 1978 
L 3425 0 
L 2847 0 
L 2847 2094 
Q 2847 2600 2669 2842 
Q 2491 3084 2119 3084 
Q 1678 3084 1418 2786 
Q 1159 2488 1159 1978 
L 1159 0 
L 581 0 
L 581 3500 
L 1159 3500 
L 1159 2956 
Q 1356 3278 1631 3431 
Q 1906 3584 2284 3584 
Q 2666 3584 2933 3390 
Q 3200 3197 3328 2828 
z
" transform="scale(0.015625)"/>
        <path id="DejaVuSans-62" d="M 3116 1747 
Q 3116 2381 2855 2742 
Q 2594 3103 2138 3103 
Q 1681 3103 1420 2742 
Q 1159 2381 1159 1747 
Q 1159 1113 1420 752 
Q 1681 391 2138 391 
Q 2594 391 2855 752 
Q 3116 1113 3116 1747 
z
M 1159 2969 
Q 1341 3281 1617 3432 
Q 1894 3584 2278 3584 
Q 2916 3584 3314 3078 
Q 3713 2572 3713 1747 
Q 3713 922 3314 415 
Q 2916 -91 2278 -91 
Q 1894 -91 1617 61 
Q 1341 213 1159 525 
L 1159 0 
L 581 0 
L 581 4863 
L 1159 4863 
L 1159 2969 
z
" transform="scale(0.015625)"/>
        <path id="DejaVuSans-6c" d="M 603 4863 
L 1178 4863 
L 1178 0 
L 603 0 
L 603 4863 
z
" transform="scale(0.015625)"/>
        <path id="DejaVuSans-65" d="M 3597 1894 
L 3597 1613 
L 953 1613 
Q 991 1019 1311 708 
Q 1631 397 2203 397 
Q 2534 397 2845 478 
Q 3156 559 3463 722 
L 3463 178 
Q 3153 47 2828 -22 
Q 2503 -91 2169 -91 
Q 1331 -91 842 396 
Q 353 884 353 1716 
Q 353 2575 817 3079 
Q 1281 3584 2069 3584 
Q 2775 3584 3186 3129 
Q 3597 2675 3597 1894 
z
M 3022 2063 
Q 3016 2534 2758 2815 
Q 2500 3097 2075 3097 
Q 1594 3097 1305 2825 
Q 1016 2553 972 2059 
L 3022 2063 
z
" transform="scale(0.015625)"/>
        <path id="DejaVuSans-64" d="M 2906 2969 
L 2906 4863 
L 3481 4863 
L 3481 0 
L 2906 0 
L 2906 525 
Q 2725 213 2448 61 
Q 2172 -91 1784 -91 
Q 1150 -91 751 415 
Q 353 922 353 1747 
Q 353 2572 751 3078 
Q 1150 3584 1784 3584 
Q 2172 3584 2448 3432 
Q 2725 3281 2906 2969 
z
M 947 1747 
Q 947 1113 1208 752 
Q 1469 391 1925 391 
Q 2381 391 2643 752 
Q 2906 1113 2906 1747 
Q 2906 2381 2643 2742 
Q 2381 3103 1925 3103 
Q 1469 3103 1208 2742 
Q 947 2381 947 1747 
z
" transform="scale(0.015625)"/>
       </defs>
       <use xlink:href="#DejaVuSans-73"/>
       <use xlink:href="#DejaVuSans-63" transform="translate(52.099609 0)"/>
       <use xlink:href="#DejaVuSans-72" transform="translate(107.080078 0)"/>
       <use xlink:href="#DejaVuSans-61" transform="translate(148.193359 0)"/>
       <use xlink:href="#DejaVuSans-6d" transform="translate(209.472656 0)"/>
       <use xlink:href="#DejaVuSans-62" transform="translate(306.884766 0)"/>
       <use xlink:href="#DejaVuSans-6c" transform="translate(370.361328 0)"/>
       <use xlink:href="#DejaVuSans-65" transform="translate(398.144531 0)"/>
       <use xlink:href="#DejaVuSans-64" transform="translate(459.667969 0)"/>
      </g>
     </g>
    </g>
   </g>
   <g id="matplotlib.axis_2">
    <g id="ytick_1">
     <g id="line2d_3">
      <defs>
       <path id="mb7ccd9b66a" d="M 0 0 
L -3.5 0 
" style="stroke: #000000; stroke-width: 0.8"/>
      </defs>
      <g>
       <use xlink:href="#mb7ccd9b66a" x="93.908" y="172.075081" style="stroke: #000000; stroke-width: 0.8"/>
      </g>
     </g>
     <g id="text_3">
      <!-- 0.0 -->
      <g transform="translate(58.282375 178.913675) scale(0.18 -0.18)">
       <defs>
        <path id="DejaVuSans-30" d="M 2034 4250 
Q 1547 4250 1301 3770 
Q 1056 3291 1056 2328 
Q 1056 1369 1301 889 
Q 1547 409 2034 409 
Q 2525 409 2770 889 
Q 3016 1369 3016 2328 
Q 3016 3291 2770 3770 
Q 2525 4250 2034 4250 
z
M 2034 4750 
Q 2819 4750 3233 4129 
Q 3647 3509 3647 2328 
Q 3647 1150 3233 529 
Q 2819 -91 2034 -91 
Q 1250 -91 836 529 
Q 422 1150 422 2328 
Q 422 3509 836 4129 
Q 1250 4750 2034 4750 
z
" transform="scale(0.015625)"/>
        <path id="DejaVuSans-2e" d="M 684 794 
L 1344 794 
L 1344 0 
L 684 0 
L 684 794 
z
" transform="scale(0.015625)"/>
       </defs>
       <use xlink:href="#DejaVuSans-30"/>
       <use xlink:href="#DejaVuSans-2e" transform="translate(63.623047 0)"/>
       <use xlink:href="#DejaVuSans-30" transform="translate(95.410156 0)"/>
      </g>
     </g>
    </g>
    <g id="ytick_2">
     <g id="line2d_4">
      <g>
       <use xlink:href="#mb7ccd9b66a" x="93.908" y="99.216752" style="stroke: #000000; stroke-width: 0.8"/>
      </g>
     </g>
     <g id="text_4">
      <!-- 0.5 -->
      <g transform="translate(58.282375 106.055345) scale(0.18 -0.18)">
       <defs>
        <path id="DejaVuSans-35" d="M 691 4666 
L 3169 4666 
L 3169 4134 
L 1269 4134 
L 1269 2991 
Q 1406 3038 1543 3061 
Q 1681 3084 1819 3084 
Q 2600 3084 3056 2656 
Q 3513 2228 3513 1497 
Q 3513 744 3044 326 
Q 2575 -91 1722 -91 
Q 1428 -91 1123 -41 
Q 819 9 494 109 
L 494 744 
Q 775 591 1075 516 
Q 1375 441 1709 441 
Q 2250 441 2565 725 
Q 2881 1009 2881 1497 
Q 2881 1984 2565 2268 
Q 2250 2553 1709 2553 
Q 1456 2553 1204 2497 
Q 953 2441 691 2322 
L 691 4666 
z
" transform="scale(0.015625)"/>
       </defs>
       <use xlink:href="#DejaVuSans-30"/>
       <use xlink:href="#DejaVuSans-2e" transform="translate(63.623047 0)"/>
       <use xlink:href="#DejaVuSans-35" transform="translate(95.410156 0)"/>
      </g>
     </g>
    </g>
    <g id="ytick_3">
     <g id="line2d_5">
      <g>
       <use xlink:href="#mb7ccd9b66a" x="93.908" y="26.358422" style="stroke: #000000; stroke-width: 0.8"/>
      </g>
     </g>
     <g id="text_5">
      <!-- 1.0 -->
      <g transform="translate(58.282375 33.197016) scale(0.18 -0.18)">
       <defs>
        <path id="DejaVuSans-31" d="M 794 531 
L 1825 531 
L 1825 4091 
L 703 3866 
L 703 4441 
L 1819 4666 
L 2450 4666 
L 2450 531 
L 3481 531 
L 3481 0 
L 794 0 
L 794 531 
z
" transform="scale(0.015625)"/>
       </defs>
       <use xlink:href="#DejaVuSans-31"/>
       <use xlink:href="#DejaVuSans-2e" transform="translate(63.623047 0)"/>
       <use xlink:href="#DejaVuSans-30" transform="translate(95.410156 0)"/>
      </g>
     </g>
    </g>
    <g id="text_6">
     <!-- CTX Episode -->
     <g transform="translate(27.727375 159.626554) rotate(-90) scale(0.2 -0.2)">
      <defs>
       <path id="DejaVuSans-43" d="M 4122 4306 
L 4122 3641 
Q 3803 3938 3442 4084 
Q 3081 4231 2675 4231 
Q 1875 4231 1450 3742 
Q 1025 3253 1025 2328 
Q 1025 1406 1450 917 
Q 1875 428 2675 428 
Q 3081 428 3442 575 
Q 3803 722 4122 1019 
L 4122 359 
Q 3791 134 3420 21 
Q 3050 -91 2638 -91 
Q 1578 -91 968 557 
Q 359 1206 359 2328 
Q 359 3453 968 4101 
Q 1578 4750 2638 4750 
Q 3056 4750 3426 4639 
Q 3797 4528 4122 4306 
z
" transform="scale(0.015625)"/>
       <path id="DejaVuSans-54" d="M -19 4666 
L 3928 4666 
L 3928 4134 
L 2272 4134 
L 2272 0 
L 1638 0 
L 1638 4134 
L -19 4134 
L -19 4666 
z
" transform="scale(0.015625)"/>
       <path id="DejaVuSans-58" d="M 403 4666 
L 1081 4666 
L 2241 2931 
L 3406 4666 
L 4084 4666 
L 2584 2425 
L 4184 0 
L 3506 0 
L 2194 1984 
L 872 0 
L 191 0 
L 1856 2491 
L 403 4666 
z
" transform="scale(0.015625)"/>
       <path id="DejaVuSans-20" transform="scale(0.015625)"/>
       <path id="DejaVuSans-45" d="M 628 4666 
L 3578 4666 
L 3578 4134 
L 1259 4134 
L 1259 2753 
L 3481 2753 
L 3481 2222 
L 1259 2222 
L 1259 531 
L 3634 531 
L 3634 0 
L 628 0 
L 628 4666 
z
" transform="scale(0.015625)"/>
       <path id="DejaVuSans-70" d="M 1159 525 
L 1159 -1331 
L 581 -1331 
L 581 3500 
L 1159 3500 
L 1159 2969 
Q 1341 3281 1617 3432 
Q 1894 3584 2278 3584 
Q 2916 3584 3314 3078 
Q 3713 2572 3713 1747 
Q 3713 922 3314 415 
Q 2916 -91 2278 -91 
Q 1894 -91 1617 61 
Q 1341 213 1159 525 
z
M 3116 1747 
Q 3116 2381 2855 2742 
Q 2594 3103 2138 3103 
Q 1681 3103 1420 2742 
Q 1159 2381 1159 1747 
Q 1159 1113 1420 752 
Q 1681 391 2138 391 
Q 2594 391 2855 752 
Q 3116 1113 3116 1747 
z
" transform="scale(0.015625)"/>
       <path id="DejaVuSans-6f" d="M 1959 3097 
Q 1497 3097 1228 2736 
Q 959 2375 959 1747 
Q 959 1119 1226 758 
Q 1494 397 1959 397 
Q 2419 397 2687 759 
Q 2956 1122 2956 1747 
Q 2956 2369 2687 2733 
Q 2419 3097 1959 3097 
z
M 1959 3584 
Q 2709 3584 3137 3096 
Q 3566 2609 3566 1747 
Q 3566 888 3137 398 
Q 2709 -91 1959 -91 
Q 1206 -91 779 398 
Q 353 888 353 1747 
Q 353 2609 779 3096 
Q 1206 3584 1959 3584 
z
" transform="scale(0.015625)"/>
      </defs>
      <use xlink:href="#DejaVuSans-43"/>
      <use xlink:href="#DejaVuSans-54" transform="translate(69.824219 0)"/>
      <use xlink:href="#DejaVuSans-58" transform="translate(130.908203 0)"/>
      <use xlink:href="#DejaVuSans-20" transform="translate(199.414062 0)"/>
      <use xlink:href="#DejaVuSans-45" transform="translate(231.201172 0)"/>
      <use xlink:href="#DejaVuSans-70" transform="translate(294.384766 0)"/>
      <use xlink:href="#DejaVuSans-69" transform="translate(357.861328 0)"/>
      <use xlink:href="#DejaVuSans-73" transform="translate(385.644531 0)"/>
      <use xlink:href="#DejaVuSans-6f" transform="translate(437.744141 0)"/>
      <use xlink:href="#DejaVuSans-64" transform="translate(498.925781 0)"/>
      <use xlink:href="#DejaVuSans-65" transform="translate(562.402344 0)"/>
     </g>
     <!-- Max. Selectivity -->
     <g transform="translate(50.123 176.429679) rotate(-90) scale(0.2 -0.2)">
      <defs>
       <path id="DejaVuSans-4d" d="M 628 4666 
L 1569 4666 
L 2759 1491 
L 3956 4666 
L 4897 4666 
L 4897 0 
L 4281 0 
L 4281 4097 
L 3078 897 
L 2444 897 
L 1241 4097 
L 1241 0 
L 628 0 
L 628 4666 
z
" transform="scale(0.015625)"/>
       <path id="DejaVuSans-78" d="M 3513 3500 
L 2247 1797 
L 3578 0 
L 2900 0 
L 1881 1375 
L 863 0 
L 184 0 
L 1544 1831 
L 300 3500 
L 978 3500 
L 1906 2253 
L 2834 3500 
L 3513 3500 
z
" transform="scale(0.015625)"/>
       <path id="DejaVuSans-53" d="M 3425 4513 
L 3425 3897 
Q 3066 4069 2747 4153 
Q 2428 4238 2131 4238 
Q 1616 4238 1336 4038 
Q 1056 3838 1056 3469 
Q 1056 3159 1242 3001 
Q 1428 2844 1947 2747 
L 2328 2669 
Q 3034 2534 3370 2195 
Q 3706 1856 3706 1288 
Q 3706 609 3251 259 
Q 2797 -91 1919 -91 
Q 1588 -91 1214 -16 
Q 841 59 441 206 
L 441 856 
Q 825 641 1194 531 
Q 1563 422 1919 422 
Q 2459 422 2753 634 
Q 3047 847 3047 1241 
Q 3047 1584 2836 1778 
Q 2625 1972 2144 2069 
L 1759 2144 
Q 1053 2284 737 2584 
Q 422 2884 422 3419 
Q 422 4038 858 4394 
Q 1294 4750 2059 4750 
Q 2388 4750 2728 4690 
Q 3069 4631 3425 4513 
z
" transform="scale(0.015625)"/>
       <path id="DejaVuSans-76" d="M 191 3500 
L 800 3500 
L 1894 563 
L 2988 3500 
L 3597 3500 
L 2284 0 
L 1503 0 
L 191 3500 
z
" transform="scale(0.015625)"/>
       <path id="DejaVuSans-79" d="M 2059 -325 
Q 1816 -950 1584 -1140 
Q 1353 -1331 966 -1331 
L 506 -1331 
L 506 -850 
L 844 -850 
Q 1081 -850 1212 -737 
Q 1344 -625 1503 -206 
L 1606 56 
L 191 3500 
L 800 3500 
L 1894 763 
L 2988 3500 
L 3597 3500 
L 2059 -325 
z
" transform="scale(0.015625)"/>
      </defs>
      <use xlink:href="#DejaVuSans-4d"/>
      <use xlink:href="#DejaVuSans-61" transform="translate(86.279297 0)"/>
      <use xlink:href="#DejaVuSans-78" transform="translate(147.558594 0)"/>
      <use xlink:href="#DejaVuSans-2e" transform="translate(206.738281 0)"/>
      <use xlink:href="#DejaVuSans-20" transform="translate(238.525391 0)"/>
      <use xlink:href="#DejaVuSans-53" transform="translate(270.3125 0)"/>
      <use xlink:href="#DejaVuSans-65" transform="translate(333.789062 0)"/>
      <use xlink:href="#DejaVuSans-6c" transform="translate(395.3125 0)"/>
      <use xlink:href="#DejaVuSans-65" transform="translate(423.095703 0)"/>
      <use xlink:href="#DejaVuSans-63" transform="translate(484.619141 0)"/>
      <use xlink:href="#DejaVuSans-74" transform="translate(539.599609 0)"/>
      <use xlink:href="#DejaVuSans-69" transform="translate(578.808594 0)"/>
      <use xlink:href="#DejaVuSans-76" transform="translate(606.591797 0)"/>
      <use xlink:href="#DejaVuSans-69" transform="translate(665.771484 0)"/>
      <use xlink:href="#DejaVuSans-74" transform="translate(693.554688 0)"/>
      <use xlink:href="#DejaVuSans-79" transform="translate(732.763672 0)"/>
     </g>
    </g>
   </g>
   <g id="line2d_6">
    <path d="M 130.359051 42.043785 
L 130.359051 24.557785 
L 204.748949 24.557785 
L 204.748949 42.043785 
" style="fill: none; stroke: #000000; stroke-width: 2; stroke-linecap: square"/>
   </g>
   <g id="patch_3">
    <path d="M 93.908 172.075081 
L 93.908 22.390527 
" style="fill: none; stroke: #000000; stroke-width: 0.8; stroke-linejoin: miter; stroke-linecap: square"/>
   </g>
   <g id="patch_4">
    <path d="M 93.908 172.075081 
L 241.2 172.075081 
" style="fill: none; stroke: #000000; stroke-width: 0.8; stroke-linejoin: miter; stroke-linecap: square"/>
   </g>
   <g id="PathCollection_1">
    <defs>
     <path id="m724a84fc5a" d="M 0 1.5 
C 0.397805 1.5 0.77937 1.341951 1.06066 1.06066 
C 1.341951 0.77937 1.5 0.397805 1.5 0 
C 1.5 -0.397805 1.341951 -0.77937 1.06066 -1.06066 
C 0.77937 -1.341951 0.397805 -1.5 0 -1.5 
C -0.397805 -1.5 -0.77937 -1.341951 -1.06066 -1.06066 
C -1.341951 -0.77937 -1.5 -0.397805 -1.5 0 
C -1.5 0.397805 -1.341951 0.77937 -1.06066 1.06066 
C -0.77937 1.341951 -0.397805 1.5 0 1.5 
z
"/>
    </defs>
    <g clip-path="url(#p7b77aff826)">
     <use xlink:href="#m724a84fc5a" x="122.125311" y="51.848947" style="fill-opacity: 0.05"/>
     <use xlink:href="#m724a84fc5a" x="131.048298" y="52.177654" style="fill-opacity: 0.05"/>
     <use xlink:href="#m724a84fc5a" x="131.867721" y="54.030447" style="fill-opacity: 0.05"/>
     <use xlink:href="#m724a84fc5a" x="116.838" y="52.218623" style="fill-opacity: 0.05"/>
     <use xlink:href="#m724a84fc5a" x="126.214903" y="56.266058" style="fill-opacity: 0.05"/>
     <use xlink:href="#m724a84fc5a" x="122.119058" y="49.912678" style="fill-opacity: 0.05"/>
     <use xlink:href="#m724a84fc5a" x="135.974779" y="55.310908" style="fill-opacity: 0.05"/>
     <use xlink:href="#m724a84fc5a" x="120.353056" y="51.901832" style="fill-opacity: 0.05"/>
     <use xlink:href="#m724a84fc5a" x="117.573655" y="50.330332" style="fill-opacity: 0.05"/>
     <use xlink:href="#m724a84fc5a" x="143.481752" y="56.913484" style="fill-opacity: 0.05"/>
     <use xlink:href="#m724a84fc5a" x="132.253951" y="56.533533" style="fill-opacity: 0.05"/>
     <use xlink:href="#m724a84fc5a" x="117.801808" y="55.314765" style="fill-opacity: 0.05"/>
     <use xlink:href="#m724a84fc5a" x="136.983933" y="53.346516" style="fill-opacity: 0.05"/>
     <use xlink:href="#m724a84fc5a" x="120.195967" y="56.884805" style="fill-opacity: 0.05"/>
     <use xlink:href="#m724a84fc5a" x="122.928431" y="52.499326" style="fill-opacity: 0.05"/>
     <use xlink:href="#m724a84fc5a" x="124.214066" y="55.114462" style="fill-opacity: 0.05"/>
     <use xlink:href="#m724a84fc5a" x="136.209391" y="57.769838" style="fill-opacity: 0.05"/>
     <use xlink:href="#m724a84fc5a" x="129.295694" y="56.319048" style="fill-opacity: 0.05"/>
     <use xlink:href="#m724a84fc5a" x="121.880451" y="54.290601" style="fill-opacity: 0.05"/>
     <use xlink:href="#m724a84fc5a" x="128.776815" y="55.406126" style="fill-opacity: 0.05"/>
    </g>
   </g>
   <g id="PathCollection_2">
    <g clip-path="url(#p7b77aff826)">
     <use xlink:href="#m724a84fc5a" x="193.467833" y="54.86025" style="fill-opacity: 0.05"/>
     <use xlink:href="#m724a84fc5a" x="217.177627" y="57.684226" style="fill-opacity: 0.05"/>
     <use xlink:href="#m724a84fc5a" x="206.726124" y="59.489693" style="fill-opacity: 0.05"/>
     <use xlink:href="#m724a84fc5a" x="203.916357" y="54.066448" style="fill-opacity: 0.05"/>
     <use xlink:href="#m724a84fc5a" x="199.231196" y="59.067895" style="fill-opacity: 0.05"/>
     <use xlink:href="#m724a84fc5a" x="191.156895" y="50.985133" style="fill-opacity: 0.05"/>
     <use xlink:href="#m724a84fc5a" x="212.26069" y="64.284297" style="fill-opacity: 0.05"/>
     <use xlink:href="#m724a84fc5a" x="206.036461" y="59.355034" style="fill-opacity: 0.05"/>
     <use xlink:href="#m724a84fc5a" x="212.699457" y="49.838366" style="fill-opacity: 0.05"/>
     <use xlink:href="#m724a84fc5a" x="213.391531" y="60.149912" style="fill-opacity: 0.05"/>
     <use xlink:href="#m724a84fc5a" x="192.019986" y="67.433602" style="fill-opacity: 0.05"/>
     <use xlink:href="#m724a84fc5a" x="209.501447" y="55.75785" style="fill-opacity: 0.05"/>
     <use xlink:href="#m724a84fc5a" x="191.456943" y="59.979948" style="fill-opacity: 0.05"/>
     <use xlink:href="#m724a84fc5a" x="210.25453" y="59.352568" style="fill-opacity: 0.05"/>
     <use xlink:href="#m724a84fc5a" x="203.063303" y="65.040091" style="fill-opacity: 0.05"/>
     <use xlink:href="#m724a84fc5a" x="203.796644" y="57.689889" style="fill-opacity: 0.05"/>
     <use xlink:href="#m724a84fc5a" x="209.541425" y="67.902943" style="fill-opacity: 0.05"/>
     <use xlink:href="#m724a84fc5a" x="210.401589" y="58.338479" style="fill-opacity: 0.05"/>
     <use xlink:href="#m724a84fc5a" x="197.706591" y="61.409294" style="fill-opacity: 0.05"/>
     <use xlink:href="#m724a84fc5a" x="190.212536" y="48.568258" style="fill-opacity: 0.05"/>
    </g>
   </g>
   <g id="text_7">
    <!-- ** -->
    <g transform="translate(159.554 21.230285) scale(0.16 -0.16)">
     <defs>
      <path id="DejaVuSans-2a" d="M 3009 3897 
L 1888 3291 
L 3009 2681 
L 2828 2375 
L 1778 3009 
L 1778 1831 
L 1422 1831 
L 1422 3009 
L 372 2375 
L 191 2681 
L 1313 3291 
L 191 3897 
L 372 4206 
L 1422 3572 
L 1422 4750 
L 1778 4750 
L 1778 3572 
L 2828 4206 
L 3009 3897 
z
" transform="scale(0.015625)"/>
     </defs>
     <use xlink:href="#DejaVuSans-2a"/>
     <use xlink:href="#DejaVuSans-2a" transform="translate(50 0)"/>
    </g>
   </g>
   <g id="LineCollection_1">
    <path d="M 130.359051 54.73789 
L 130.359051 53.701115 
" clip-path="url(#p7b77aff826)" style="fill: none; stroke: #000000; stroke-width: 2"/>
    <path d="M 204.748949 59.746398 
L 204.748949 57.379021 
" clip-path="url(#p7b77aff826)" style="fill: none; stroke: #000000; stroke-width: 2"/>
   </g>
   <g id="line2d_7">
    <defs>
     <path id="mab42bde75f" d="M 5 0 
L -5 -0 
" style="stroke: #000000"/>
    </defs>
    <g clip-path="url(#p7b77aff826)">
     <use xlink:href="#mab42bde75f" x="130.359051" y="54.73789" style="stroke: #000000"/>
     <use xlink:href="#mab42bde75f" x="204.748949" y="59.746398" style="stroke: #000000"/>
    </g>
   </g>
   <g id="line2d_8">
    <g clip-path="url(#p7b77aff826)">
     <use xlink:href="#mab42bde75f" x="130.359051" y="53.701115" style="stroke: #000000"/>
     <use xlink:href="#mab42bde75f" x="204.748949" y="57.379021" style="stroke: #000000"/>
    </g>
   </g>
   <g id="line2d_9">
    <defs>
     <path id="m9f0d97c801" d="M 0 3 
C 0.795609 3 1.55874 2.683901 2.12132 2.12132 
C 2.683901 1.55874 3 0.795609 3 0 
C 3 -0.795609 2.683901 -1.55874 2.12132 -2.12132 
C 1.55874 -2.683901 0.795609 -3 0 -3 
C -0.795609 -3 -1.55874 -2.683901 -2.12132 -2.12132 
C -2.683901 -1.55874 -3 -0.795609 -3 0 
C -3 0.795609 -2.683901 1.55874 -2.12132 2.12132 
C -1.55874 2.683901 -0.795609 3 0 3 
z
" style="stroke: #000000"/>
    </defs>
    <g clip-path="url(#p7b77aff826)">
     <use xlink:href="#m9f0d97c801" x="130.359051" y="54.219502" style="stroke: #000000"/>
     <use xlink:href="#m9f0d97c801" x="204.748949" y="58.56271" style="stroke: #000000"/>
    </g>
   </g>
  </g>
 </g>
 <defs>
  <clipPath id="p7b77aff826">
   <rect x="93.908" y="22.390527" width="147.292" height="149.684554"/>
  </clipPath>
 </defs>
</svg>
