<?xml version="1.0" encoding="utf-8" standalone="no"?>
<!DOCTYPE svg PUBLIC "-//W3C//DTD SVG 1.1//EN"
  "http://www.w3.org/Graphics/SVG/1.1/DTD/svg11.dtd">
<svg xmlns:xlink="http://www.w3.org/1999/xlink" width="252pt" height="252pt" viewBox="0 0 252 252" xmlns="http://www.w3.org/2000/svg" version="1.1">
 <metadata>
  <rdf:RDF xmlns:dc="http://purl.org/dc/elements/1.1/" xmlns:cc="http://creativecommons.org/ns#" xmlns:rdf="http://www.w3.org/1999/02/22-rdf-syntax-ns#">
   <cc:Work>
    <dc:type rdf:resource="http://purl.org/dc/dcmitype/StillImage"/>
    <dc:date>2025-09-24T19:51:30.240194</dc:date>
    <dc:format>image/svg+xml</dc:format>
    <dc:creator>
     <cc:Agent>
      <dc:title>Matplotlib v3.10.1, https://matplotlib.org/</dc:title>
     </cc:Agent>
    </dc:creator>
   </cc:Work>
  </rdf:RDF>
 </metadata>
 <defs>
  <style type="text/css">*{stroke-linejoin: round; stroke-linecap: butt}</style>
 </defs>
 <g id="figure_1">
  <g id="patch_1">
   <path d="M 0 252 
L 252 252 
L 252 0 
L 0 0 
L 0 252 
z
" style="fill: none"/>
  </g>
  <g id="axes_1">
   <g id="patch_2">
    <path d="M 93.908 172.075081 
L 241.2 172.075081 
L 241.2 21.73123 
L 93.908 21.73123 
L 93.908 172.075081 
z
" style="fill: none"/>
   </g>
   <g id="FillBetweenPolyCollection_1">
    <defs>
     <path id="mc1bebf419b" d="M 135.632573 -196.040928 
L 125.085528 -196.040928 
L 124.90582 -196.102739 
L 124.73494 -196.16455 
L 124.573194 -196.226361 
L 124.420671 -196.288172 
L 124.277231 -196.349983 
L 124.142498 -196.411794 
L 124.015853 -196.473605 
L 123.896435 -196.535416 
L 123.783143 -196.597227 
L 123.674641 -196.659038 
L 123.569371 -196.720849 
L 123.465564 -196.78266 
L 123.36126 -196.844471 
L 123.254323 -196.906282 
L 123.142472 -196.968093 
L 123.0233 -197.029904 
L 122.894308 -197.091715 
L 122.752931 -197.153526 
L 122.596579 -197.215337 
L 122.422667 -197.277147 
L 122.228652 -197.338958 
L 122.012077 -197.400769 
L 121.770604 -197.46258 
L 121.502061 -197.524391 
L 121.204474 -197.586202 
L 120.876115 -197.648013 
L 120.515531 -197.709824 
L 120.121587 -197.771635 
L 119.693492 -197.833446 
L 119.230834 -197.895257 
L 118.733596 -197.957068 
L 118.202182 -198.018879 
L 117.637423 -198.08069 
L 117.040587 -198.142501 
L 116.413374 -198.204312 
L 115.757906 -198.266123 
L 115.076713 -198.327934 
L 114.372707 -198.389745 
L 113.649151 -198.451556 
L 112.909623 -198.513367 
L 112.15797 -198.575178 
L 111.398263 -198.636989 
L 110.634747 -198.6988 
L 109.871785 -198.760611 
L 109.113809 -198.822422 
L 108.365264 -198.884233 
L 107.630557 -198.946044 
L 106.914009 -199.007855 
L 106.219811 -199.069666 
L 105.551983 -199.131477 
L 104.914337 -199.193288 
L 104.31045 -199.255099 
L 103.74364 -199.31691 
L 103.216941 -199.37872 
L 102.733093 -199.440531 
L 102.294527 -199.502342 
L 101.903364 -199.564153 
L 101.561402 -199.625964 
L 101.27012 -199.687775 
L 101.030674 -199.749586 
L 100.843898 -199.811397 
L 100.710303 -199.873208 
L 100.630077 -199.935019 
L 100.603091 -199.99683 
L 100.628893 -200.058641 
L 100.706715 -200.120452 
L 100.835476 -200.182263 
L 101.013788 -200.244074 
L 101.239964 -200.305885 
L 101.512029 -200.367696 
L 101.827739 -200.429507 
L 102.184602 -200.491318 
L 102.579901 -200.553129 
L 103.01073 -200.61494 
L 103.474027 -200.676751 
L 103.966619 -200.738562 
L 104.485267 -200.800373 
L 105.026709 -200.862184 
L 105.58772 -200.923995 
L 106.165153 -200.985806 
L 106.755993 -201.047617 
L 107.357402 -201.109428 
L 107.96676 -201.171239 
L 108.581698 -201.23305 
L 109.200124 -201.294861 
L 109.820247 -201.356672 
L 110.440575 -201.418483 
L 111.059924 -201.480293 
L 111.677395 -201.542104 
L 112.292363 -201.603915 
L 112.904438 -201.665726 
L 113.513433 -201.727537 
L 114.119315 -201.789348 
L 114.722165 -201.851159 
L 115.322119 -201.91297 
L 115.919328 -201.974781 
L 116.5139 -202.036592 
L 117.105867 -202.098403 
L 117.69514 -202.160214 
L 143.022961 -202.160214 
L 143.022961 -202.160214 
L 143.612234 -202.098403 
L 144.204201 -202.036592 
L 144.798773 -201.974781 
L 145.395982 -201.91297 
L 145.995936 -201.851159 
L 146.598786 -201.789348 
L 147.204668 -201.727537 
L 147.813663 -201.665726 
L 148.425738 -201.603915 
L 149.040706 -201.542104 
L 149.658177 -201.480293 
L 150.277526 -201.418483 
L 150.897854 -201.356672 
L 151.517977 -201.294861 
L 152.136403 -201.23305 
L 152.751341 -201.171239 
L 153.360699 -201.109428 
L 153.962108 -201.047617 
L 154.552948 -200.985806 
L 155.130381 -200.923995 
L 155.691392 -200.862184 
L 156.232834 -200.800373 
L 156.751482 -200.738562 
L 157.244074 -200.676751 
L 157.707371 -200.61494 
L 158.1382 -200.553129 
L 158.533499 -200.491318 
L 158.890362 -200.429507 
L 159.206072 -200.367696 
L 159.478137 -200.305885 
L 159.704313 -200.244074 
L 159.882625 -200.182263 
L 160.011386 -200.120452 
L 160.089208 -200.058641 
L 160.11501 -199.99683 
L 160.088024 -199.935019 
L 160.007798 -199.873208 
L 159.874203 -199.811397 
L 159.687427 -199.749586 
L 159.447981 -199.687775 
L 159.156699 -199.625964 
L 158.814737 -199.564153 
L 158.423574 -199.502342 
L 157.985008 -199.440531 
L 157.50116 -199.37872 
L 156.974461 -199.31691 
L 156.407651 -199.255099 
L 155.803764 -199.193288 
L 155.166118 -199.131477 
L 154.49829 -199.069666 
L 153.804092 -199.007855 
L 153.087544 -198.946044 
L 152.352837 -198.884233 
L 151.604292 -198.822422 
L 150.846316 -198.760611 
L 150.083354 -198.6988 
L 149.319838 -198.636989 
L 148.560131 -198.575178 
L 147.808478 -198.513367 
L 147.06895 -198.451556 
L 146.345394 -198.389745 
L 145.641388 -198.327934 
L 144.960195 -198.266123 
L 144.304727 -198.204312 
L 143.677514 -198.142501 
L 143.080678 -198.08069 
L 142.515919 -198.018879 
L 141.984505 -197.957068 
L 141.487267 -197.895257 
L 141.024609 -197.833446 
L 140.596514 -197.771635 
L 140.20257 -197.709824 
L 139.841986 -197.648013 
L 139.513627 -197.586202 
L 139.21604 -197.524391 
L 138.947497 -197.46258 
L 138.706024 -197.400769 
L 138.489449 -197.338958 
L 138.295434 -197.277147 
L 138.121522 -197.215337 
L 137.96517 -197.153526 
L 137.823793 -197.091715 
L 137.694801 -197.029904 
L 137.575629 -196.968093 
L 137.463778 -196.906282 
L 137.356841 -196.844471 
L 137.252537 -196.78266 
L 137.14873 -196.720849 
L 137.04346 -196.659038 
L 136.934958 -196.597227 
L 136.821666 -196.535416 
L 136.702248 -196.473605 
L 136.575603 -196.411794 
L 136.44087 -196.349983 
L 136.29743 -196.288172 
L 136.144907 -196.226361 
L 135.983161 -196.16455 
L 135.812281 -196.102739 
L 135.632573 -196.040928 
z
" style="stroke: #484848; stroke-opacity: 0.9; stroke-width: 1.25"/>
    </defs>
    <g clip-path="url(#pbbeac90053)">
     <use xlink:href="#mc1bebf419b" x="0" y="252" style="fill: #d86743; fill-opacity: 0.9; stroke: #484848; stroke-opacity: 0.9; stroke-width: 1.25"/>
    </g>
   </g>
   <g id="FillBetweenPolyCollection_2">
    <defs>
     <path id="me8f48581ed" d="M 209.652225 -173.828483 
L 199.845674 -173.828483 
L 199.585589 -174.05542 
L 199.311188 -174.282357 
L 199.020502 -174.509293 
L 198.711478 -174.73623 
L 198.382024 -174.963167 
L 198.03006 -175.190104 
L 197.653575 -175.41704 
L 197.250675 -175.643977 
L 196.819645 -175.870914 
L 196.358998 -176.097851 
L 195.867532 -176.324787 
L 195.344373 -176.551724 
L 194.789017 -176.778661 
L 194.201367 -177.005597 
L 193.581759 -177.232534 
L 192.930979 -177.459471 
L 192.250277 -177.686408 
L 191.541363 -177.913344 
L 190.806405 -178.140281 
L 190.048008 -178.367218 
L 189.269192 -178.594155 
L 188.473361 -178.821091 
L 187.664261 -179.048028 
L 186.845942 -179.274965 
L 186.022701 -179.501901 
L 185.19904 -179.728838 
L 184.379601 -179.955775 
L 183.569115 -180.182712 
L 182.772341 -180.409648 
L 181.99401 -180.636585 
L 181.238763 -180.863522 
L 180.511099 -181.090458 
L 179.815318 -181.317395 
L 179.155471 -181.544332 
L 178.535307 -181.771269 
L 177.958234 -181.998205 
L 177.427276 -182.225142 
L 176.945035 -182.452079 
L 176.513669 -182.679016 
L 176.13486 -182.905952 
L 175.809805 -183.132889 
L 175.539203 -183.359826 
L 175.323252 -183.586762 
L 175.161657 -183.813699 
L 175.053644 -184.040636 
L 174.997978 -184.267573 
L 174.99299 -184.494509 
L 175.036614 -184.721446 
L 175.126426 -184.948383 
L 175.259684 -185.17532 
L 175.433381 -185.402256 
L 175.644291 -185.629193 
L 175.889026 -185.85613 
L 176.164079 -186.083066 
L 176.465883 -186.310003 
L 176.790854 -186.53694 
L 177.135437 -186.763877 
L 177.49615 -186.990813 
L 177.869617 -187.21775 
L 178.252606 -187.444687 
L 178.642054 -187.671624 
L 179.035094 -187.89856 
L 179.429073 -188.125497 
L 179.82157 -188.352434 
L 180.210413 -188.57937 
L 180.593686 -188.806307 
L 180.969746 -189.033244 
L 181.337224 -189.260181 
L 181.69504 -189.487117 
L 182.042405 -189.714054 
L 182.37883 -189.940991 
L 182.70413 -190.167927 
L 183.018425 -190.394864 
L 183.322141 -190.621801 
L 183.616008 -190.848738 
L 183.901055 -191.075674 
L 184.178594 -191.302611 
L 184.450207 -191.529548 
L 184.717722 -191.756485 
L 184.983183 -191.983421 
L 185.248817 -192.210358 
L 185.516988 -192.437295 
L 185.790153 -192.664231 
L 186.070809 -192.891168 
L 186.361432 -193.118105 
L 186.664424 -193.345042 
L 186.982047 -193.571978 
L 187.316367 -193.798915 
L 187.669197 -194.025852 
L 188.042042 -194.252789 
L 188.436056 -194.479725 
L 188.852 -194.706662 
L 189.290215 -194.933599 
L 189.750602 -195.160535 
L 190.232616 -195.387472 
L 190.735265 -195.614409 
L 191.25713 -195.841346 
L 191.796383 -196.068282 
L 192.350833 -196.295219 
L 217.147066 -196.295219 
L 217.147066 -196.295219 
L 217.701516 -196.068282 
L 218.240769 -195.841346 
L 218.762633 -195.614409 
L 219.265283 -195.387472 
L 219.747297 -195.160535 
L 220.207684 -194.933599 
L 220.645899 -194.706662 
L 221.061843 -194.479725 
L 221.455857 -194.252789 
L 221.828702 -194.025852 
L 222.181532 -193.798915 
L 222.515852 -193.571978 
L 222.833475 -193.345042 
L 223.136467 -193.118105 
L 223.42709 -192.891168 
L 223.707746 -192.664231 
L 223.980911 -192.437295 
L 224.249082 -192.210358 
L 224.514716 -191.983421 
L 224.780177 -191.756485 
L 225.047692 -191.529548 
L 225.319305 -191.302611 
L 225.596844 -191.075674 
L 225.881891 -190.848738 
L 226.175758 -190.621801 
L 226.479474 -190.394864 
L 226.793769 -190.167927 
L 227.119069 -189.940991 
L 227.455494 -189.714054 
L 227.802859 -189.487117 
L 228.160675 -189.260181 
L 228.528153 -189.033244 
L 228.904213 -188.806307 
L 229.287486 -188.57937 
L 229.676329 -188.352434 
L 230.068826 -188.125497 
L 230.462805 -187.89856 
L 230.855845 -187.671624 
L 231.245293 -187.444687 
L 231.628282 -187.21775 
L 232.001749 -186.990813 
L 232.362462 -186.763877 
L 232.707045 -186.53694 
L 233.032016 -186.310003 
L 233.33382 -186.083066 
L 233.608873 -185.85613 
L 233.853608 -185.629193 
L 234.064518 -185.402256 
L 234.238215 -185.17532 
L 234.371473 -184.948383 
L 234.461285 -184.721446 
L 234.504909 -184.494509 
L 234.499921 -184.267573 
L 234.444255 -184.040636 
L 234.336242 -183.813699 
L 234.174647 -183.586762 
L 233.958696 -183.359826 
L 233.688094 -183.132889 
L 233.363039 -182.905952 
L 232.98423 -182.679016 
L 232.552864 -182.452079 
L 232.070623 -182.225142 
L 231.539665 -181.998205 
L 230.962592 -181.771269 
L 230.342428 -181.544332 
L 229.682581 -181.317395 
L 228.9868 -181.090458 
L 228.259136 -180.863522 
L 227.503889 -180.636585 
L 226.725558 -180.409648 
L 225.928784 -180.182712 
L 225.118298 -179.955775 
L 224.298859 -179.728838 
L 223.475198 -179.501901 
L 222.651957 -179.274965 
L 221.833638 -179.048028 
L 221.024538 -178.821091 
L 220.228707 -178.594155 
L 219.449891 -178.367218 
L 218.691494 -178.140281 
L 217.956536 -177.913344 
L 217.247622 -177.686408 
L 216.56692 -177.459471 
L 215.91614 -177.232534 
L 215.296532 -177.005597 
L 214.708882 -176.778661 
L 214.153526 -176.551724 
L 213.630367 -176.324787 
L 213.138901 -176.097851 
L 212.678254 -175.870914 
L 212.247224 -175.643977 
L 211.844324 -175.41704 
L 211.467838 -175.190104 
L 211.115875 -174.963167 
L 210.786421 -174.73623 
L 210.477397 -174.509293 
L 210.186711 -174.282357 
L 209.91231 -174.05542 
L 209.652225 -173.828483 
z
" style="stroke: #484848; stroke-opacity: 0.9; stroke-width: 1.25"/>
    </defs>
    <g clip-path="url(#pbbeac90053)">
     <use xlink:href="#me8f48581ed" x="0" y="252" style="fill: #1ea0d1; fill-opacity: 0.9; stroke: #484848; stroke-opacity: 0.9; stroke-width: 1.25"/>
    </g>
   </g>
   <g id="matplotlib.axis_1">
    <g id="xtick_1">
     <g id="line2d_1">
      <defs>
       <path id="mdf7f290c53" d="M 0 0 
L 0 3.5 
" style="stroke: #000000; stroke-width: 0.8"/>
      </defs>
      <g>
       <use xlink:href="#mdf7f290c53" x="130.359051" y="172.075081" style="stroke: #000000; stroke-width: 0.8"/>
      </g>
     </g>
     <g id="text_1">
      <!-- intact -->
      <g transform="translate(110.56439 216.644404) rotate(-30) scale(0.18 -0.18)">
       <defs>
        <path id="DejaVuSans-69" d="M 603 3500 
L 1178 3500 
L 1178 0 
L 603 0 
L 603 3500 
z
M 603 4863 
L 1178 4863 
L 1178 4134 
L 603 4134 
L 603 4863 
z
" transform="scale(0.015625)"/>
        <path id="DejaVuSans-6e" d="M 3513 2113 
L 3513 0 
L 2938 0 
L 2938 2094 
Q 2938 2591 2744 2837 
Q 2550 3084 2163 3084 
Q 1697 3084 1428 2787 
Q 1159 2491 1159 1978 
L 1159 0 
L 581 0 
L 581 3500 
L 1159 3500 
L 1159 2956 
Q 1366 3272 1645 3428 
Q 1925 3584 2291 3584 
Q 2894 3584 3203 3211 
Q 3513 2838 3513 2113 
z
" transform="scale(0.015625)"/>
        <path id="DejaVuSans-74" d="M 1172 4494 
L 1172 3500 
L 2356 3500 
L 2356 3053 
L 1172 3053 
L 1172 1153 
Q 1172 725 1289 603 
Q 1406 481 1766 481 
L 2356 481 
L 2356 0 
L 1766 0 
Q 1100 0 847 248 
Q 594 497 594 1153 
L 594 3053 
L 172 3053 
L 172 3500 
L 594 3500 
L 594 4494 
L 1172 4494 
z
" transform="scale(0.015625)"/>
        <path id="DejaVuSans-61" d="M 2194 1759 
Q 1497 1759 1228 1600 
Q 959 1441 959 1056 
Q 959 750 1161 570 
Q 1363 391 1709 391 
Q 2188 391 2477 730 
Q 2766 1069 2766 1631 
L 2766 1759 
L 2194 1759 
z
M 3341 1997 
L 3341 0 
L 2766 0 
L 2766 531 
Q 2569 213 2275 61 
Q 1981 -91 1556 -91 
Q 1019 -91 701 211 
Q 384 513 384 1019 
Q 384 1609 779 1909 
Q 1175 2209 1959 2209 
L 2766 2209 
L 2766 2266 
Q 2766 2663 2505 2880 
Q 2244 3097 1772 3097 
Q 1472 3097 1187 3025 
Q 903 2953 641 2809 
L 641 3341 
Q 956 3463 1253 3523 
Q 1550 3584 1831 3584 
Q 2591 3584 2966 3190 
Q 3341 2797 3341 1997 
z
" transform="scale(0.015625)"/>
        <path id="DejaVuSans-63" d="M 3122 3366 
L 3122 2828 
Q 2878 2963 2633 3030 
Q 2388 3097 2138 3097 
Q 1578 3097 1268 2742 
Q 959 2388 959 1747 
Q 959 1106 1268 751 
Q 1578 397 2138 397 
Q 2388 397 2633 464 
Q 2878 531 3122 666 
L 3122 134 
Q 2881 22 2623 -34 
Q 2366 -91 2075 -91 
Q 1284 -91 818 406 
Q 353 903 353 1747 
Q 353 2603 823 3093 
Q 1294 3584 2113 3584 
Q 2378 3584 2631 3529 
Q 2884 3475 3122 3366 
z
" transform="scale(0.015625)"/>
       </defs>
       <use xlink:href="#DejaVuSans-69"/>
       <use xlink:href="#DejaVuSans-6e" transform="translate(27.783203 0)"/>
       <use xlink:href="#DejaVuSans-74" transform="translate(91.162109 0)"/>
       <use xlink:href="#DejaVuSans-61" transform="translate(130.371094 0)"/>
       <use xlink:href="#DejaVuSans-63" transform="translate(191.650391 0)"/>
       <use xlink:href="#DejaVuSans-74" transform="translate(246.630859 0)"/>
      </g>
     </g>
    </g>
    <g id="xtick_2">
     <g id="line2d_2">
      <g>
       <use xlink:href="#mdf7f290c53" x="204.748949" y="172.075081" style="stroke: #000000; stroke-width: 0.8"/>
      </g>
     </g>
     <g id="text_2">
      <!-- scrambled -->
      <g transform="translate(166.456393 238.003935) rotate(-30) scale(0.18 -0.18)">
       <defs>
        <path id="DejaVuSans-73" d="M 2834 3397 
L 2834 2853 
Q 2591 2978 2328 3040 
Q 2066 3103 1784 3103 
Q 1356 3103 1142 2972 
Q 928 2841 928 2578 
Q 928 2378 1081 2264 
Q 1234 2150 1697 2047 
L 1894 2003 
Q 2506 1872 2764 1633 
Q 3022 1394 3022 966 
Q 3022 478 2636 193 
Q 2250 -91 1575 -91 
Q 1294 -91 989 -36 
Q 684 19 347 128 
L 347 722 
Q 666 556 975 473 
Q 1284 391 1588 391 
Q 1994 391 2212 530 
Q 2431 669 2431 922 
Q 2431 1156 2273 1281 
Q 2116 1406 1581 1522 
L 1381 1569 
Q 847 1681 609 1914 
Q 372 2147 372 2553 
Q 372 3047 722 3315 
Q 1072 3584 1716 3584 
Q 2034 3584 2315 3537 
Q 2597 3491 2834 3397 
z
" transform="scale(0.015625)"/>
        <path id="DejaVuSans-72" d="M 2631 2963 
Q 2534 3019 2420 3045 
Q 2306 3072 2169 3072 
Q 1681 3072 1420 2755 
Q 1159 2438 1159 1844 
L 1159 0 
L 581 0 
L 581 3500 
L 1159 3500 
L 1159 2956 
Q 1341 3275 1631 3429 
Q 1922 3584 2338 3584 
Q 2397 3584 2469 3576 
Q 2541 3569 2628 3553 
L 2631 2963 
z
" transform="scale(0.015625)"/>
        <path id="DejaVuSans-6d" d="M 3328 2828 
Q 3544 3216 3844 3400 
Q 4144 3584 4550 3584 
Q 5097 3584 5394 3201 
Q 5691 2819 5691 2113 
L 5691 0 
L 5113 0 
L 5113 2094 
Q 5113 2597 4934 2840 
Q 4756 3084 4391 3084 
Q 3944 3084 3684 2787 
Q 3425 2491 3425 1978 
L 3425 0 
L 2847 0 
L 2847 2094 
Q 2847 2600 2669 2842 
Q 2491 3084 2119 3084 
Q 1678 3084 1418 2786 
Q 1159 2488 1159 1978 
L 1159 0 
L 581 0 
L 581 3500 
L 1159 3500 
L 1159 2956 
Q 1356 3278 1631 3431 
Q 1906 3584 2284 3584 
Q 2666 3584 2933 3390 
Q 3200 3197 3328 2828 
z
" transform="scale(0.015625)"/>
        <path id="DejaVuSans-62" d="M 3116 1747 
Q 3116 2381 2855 2742 
Q 2594 3103 2138 3103 
Q 1681 3103 1420 2742 
Q 1159 2381 1159 1747 
Q 1159 1113 1420 752 
Q 1681 391 2138 391 
Q 2594 391 2855 752 
Q 3116 1113 3116 1747 
z
M 1159 2969 
Q 1341 3281 1617 3432 
Q 1894 3584 2278 3584 
Q 2916 3584 3314 3078 
Q 3713 2572 3713 1747 
Q 3713 922 3314 415 
Q 2916 -91 2278 -91 
Q 1894 -91 1617 61 
Q 1341 213 1159 525 
L 1159 0 
L 581 0 
L 581 4863 
L 1159 4863 
L 1159 2969 
z
" transform="scale(0.015625)"/>
        <path id="DejaVuSans-6c" d="M 603 4863 
L 1178 4863 
L 1178 0 
L 603 0 
L 603 4863 
z
" transform="scale(0.015625)"/>
        <path id="DejaVuSans-65" d="M 3597 1894 
L 3597 1613 
L 953 1613 
Q 991 1019 1311 708 
Q 1631 397 2203 397 
Q 2534 397 2845 478 
Q 3156 559 3463 722 
L 3463 178 
Q 3153 47 2828 -22 
Q 2503 -91 2169 -91 
Q 1331 -91 842 396 
Q 353 884 353 1716 
Q 353 2575 817 3079 
Q 1281 3584 2069 3584 
Q 2775 3584 3186 3129 
Q 3597 2675 3597 1894 
z
M 3022 2063 
Q 3016 2534 2758 2815 
Q 2500 3097 2075 3097 
Q 1594 3097 1305 2825 
Q 1016 2553 972 2059 
L 3022 2063 
z
" transform="scale(0.015625)"/>
        <path id="DejaVuSans-64" d="M 2906 2969 
L 2906 4863 
L 3481 4863 
L 3481 0 
L 2906 0 
L 2906 525 
Q 2725 213 2448 61 
Q 2172 -91 1784 -91 
Q 1150 -91 751 415 
Q 353 922 353 1747 
Q 353 2572 751 3078 
Q 1150 3584 1784 3584 
Q 2172 3584 2448 3432 
Q 2725 3281 2906 2969 
z
M 947 1747 
Q 947 1113 1208 752 
Q 1469 391 1925 391 
Q 2381 391 2643 752 
Q 2906 1113 2906 1747 
Q 2906 2381 2643 2742 
Q 2381 3103 1925 3103 
Q 1469 3103 1208 2742 
Q 947 2381 947 1747 
z
" transform="scale(0.015625)"/>
       </defs>
       <use xlink:href="#DejaVuSans-73"/>
       <use xlink:href="#DejaVuSans-63" transform="translate(52.099609 0)"/>
       <use xlink:href="#DejaVuSans-72" transform="translate(107.080078 0)"/>
       <use xlink:href="#DejaVuSans-61" transform="translate(148.193359 0)"/>
       <use xlink:href="#DejaVuSans-6d" transform="translate(209.472656 0)"/>
       <use xlink:href="#DejaVuSans-62" transform="translate(306.884766 0)"/>
       <use xlink:href="#DejaVuSans-6c" transform="translate(370.361328 0)"/>
       <use xlink:href="#DejaVuSans-65" transform="translate(398.144531 0)"/>
       <use xlink:href="#DejaVuSans-64" transform="translate(459.667969 0)"/>
      </g>
     </g>
    </g>
   </g>
   <g id="matplotlib.axis_2">
    <g id="ytick_1">
     <g id="line2d_3">
      <defs>
       <path id="mb43f6a2202" d="M 0 0 
L -3.5 0 
" style="stroke: #000000; stroke-width: 0.8"/>
      </defs>
      <g>
       <use xlink:href="#mb43f6a2202" x="93.908" y="172.075081" style="stroke: #000000; stroke-width: 0.8"/>
      </g>
     </g>
     <g id="text_3">
      <!-- 0.0 -->
      <g transform="translate(58.282375 178.913675) scale(0.18 -0.18)">
       <defs>
        <path id="DejaVuSans-30" d="M 2034 4250 
Q 1547 4250 1301 3770 
Q 1056 3291 1056 2328 
Q 1056 1369 1301 889 
Q 1547 409 2034 409 
Q 2525 409 2770 889 
Q 3016 1369 3016 2328 
Q 3016 3291 2770 3770 
Q 2525 4250 2034 4250 
z
M 2034 4750 
Q 2819 4750 3233 4129 
Q 3647 3509 3647 2328 
Q 3647 1150 3233 529 
Q 2819 -91 2034 -91 
Q 1250 -91 836 529 
Q 422 1150 422 2328 
Q 422 3509 836 4129 
Q 1250 4750 2034 4750 
z
" transform="scale(0.015625)"/>
        <path id="DejaVuSans-2e" d="M 684 794 
L 1344 794 
L 1344 0 
L 684 0 
L 684 794 
z
" transform="scale(0.015625)"/>
       </defs>
       <use xlink:href="#DejaVuSans-30"/>
       <use xlink:href="#DejaVuSans-2e" transform="translate(63.623047 0)"/>
       <use xlink:href="#DejaVuSans-30" transform="translate(95.410156 0)"/>
      </g>
     </g>
    </g>
    <g id="ytick_2">
     <g id="line2d_4">
      <g>
       <use xlink:href="#mb43f6a2202" x="93.908" y="103.454251" style="stroke: #000000; stroke-width: 0.8"/>
      </g>
     </g>
     <g id="text_4">
      <!-- 0.5 -->
      <g transform="translate(58.282375 110.292845) scale(0.18 -0.18)">
       <defs>
        <path id="DejaVuSans-35" d="M 691 4666 
L 3169 4666 
L 3169 4134 
L 1269 4134 
L 1269 2991 
Q 1406 3038 1543 3061 
Q 1681 3084 1819 3084 
Q 2600 3084 3056 2656 
Q 3513 2228 3513 1497 
Q 3513 744 3044 326 
Q 2575 -91 1722 -91 
Q 1428 -91 1123 -41 
Q 819 9 494 109 
L 494 744 
Q 775 591 1075 516 
Q 1375 441 1709 441 
Q 2250 441 2565 725 
Q 2881 1009 2881 1497 
Q 2881 1984 2565 2268 
Q 2250 2553 1709 2553 
Q 1456 2553 1204 2497 
Q 953 2441 691 2322 
L 691 4666 
z
" transform="scale(0.015625)"/>
       </defs>
       <use xlink:href="#DejaVuSans-30"/>
       <use xlink:href="#DejaVuSans-2e" transform="translate(63.623047 0)"/>
       <use xlink:href="#DejaVuSans-35" transform="translate(95.410156 0)"/>
      </g>
     </g>
    </g>
    <g id="ytick_3">
     <g id="line2d_5">
      <g>
       <use xlink:href="#mb43f6a2202" x="93.908" y="34.833421" style="stroke: #000000; stroke-width: 0.8"/>
      </g>
     </g>
     <g id="text_5">
      <!-- 1.0 -->
      <g transform="translate(58.282375 41.672015) scale(0.18 -0.18)">
       <defs>
        <path id="DejaVuSans-31" d="M 794 531 
L 1825 531 
L 1825 4091 
L 703 3866 
L 703 4441 
L 1819 4666 
L 2450 4666 
L 2450 531 
L 3481 531 
L 3481 0 
L 794 0 
L 794 531 
z
" transform="scale(0.015625)"/>
       </defs>
       <use xlink:href="#DejaVuSans-31"/>
       <use xlink:href="#DejaVuSans-2e" transform="translate(63.623047 0)"/>
       <use xlink:href="#DejaVuSans-30" transform="translate(95.410156 0)"/>
      </g>
     </g>
    </g>
    <g id="text_6">
     <!-- CTX Episode -->
     <g transform="translate(27.727375 159.296905) rotate(-90) scale(0.2 -0.2)">
      <defs>
       <path id="DejaVuSans-43" d="M 4122 4306 
L 4122 3641 
Q 3803 3938 3442 4084 
Q 3081 4231 2675 4231 
Q 1875 4231 1450 3742 
Q 1025 3253 1025 2328 
Q 1025 1406 1450 917 
Q 1875 428 2675 428 
Q 3081 428 3442 575 
Q 3803 722 4122 1019 
L 4122 359 
Q 3791 134 3420 21 
Q 3050 -91 2638 -91 
Q 1578 -91 968 557 
Q 359 1206 359 2328 
Q 359 3453 968 4101 
Q 1578 4750 2638 4750 
Q 3056 4750 3426 4639 
Q 3797 4528 4122 4306 
z
" transform="scale(0.015625)"/>
       <path id="DejaVuSans-54" d="M -19 4666 
L 3928 4666 
L 3928 4134 
L 2272 4134 
L 2272 0 
L 1638 0 
L 1638 4134 
L -19 4134 
L -19 4666 
z
" transform="scale(0.015625)"/>
       <path id="DejaVuSans-58" d="M 403 4666 
L 1081 4666 
L 2241 2931 
L 3406 4666 
L 4084 4666 
L 2584 2425 
L 4184 0 
L 3506 0 
L 2194 1984 
L 872 0 
L 191 0 
L 1856 2491 
L 403 4666 
z
" transform="scale(0.015625)"/>
       <path id="DejaVuSans-20" transform="scale(0.015625)"/>
       <path id="DejaVuSans-45" d="M 628 4666 
L 3578 4666 
L 3578 4134 
L 1259 4134 
L 1259 2753 
L 3481 2753 
L 3481 2222 
L 1259 2222 
L 1259 531 
L 3634 531 
L 3634 0 
L 628 0 
L 628 4666 
z
" transform="scale(0.015625)"/>
       <path id="DejaVuSans-70" d="M 1159 525 
L 1159 -1331 
L 581 -1331 
L 581 3500 
L 1159 3500 
L 1159 2969 
Q 1341 3281 1617 3432 
Q 1894 3584 2278 3584 
Q 2916 3584 3314 3078 
Q 3713 2572 3713 1747 
Q 3713 922 3314 415 
Q 2916 -91 2278 -91 
Q 1894 -91 1617 61 
Q 1341 213 1159 525 
z
M 3116 1747 
Q 3116 2381 2855 2742 
Q 2594 3103 2138 3103 
Q 1681 3103 1420 2742 
Q 1159 2381 1159 1747 
Q 1159 1113 1420 752 
Q 1681 391 2138 391 
Q 2594 391 2855 752 
Q 3116 1113 3116 1747 
z
" transform="scale(0.015625)"/>
       <path id="DejaVuSans-6f" d="M 1959 3097 
Q 1497 3097 1228 2736 
Q 959 2375 959 1747 
Q 959 1119 1226 758 
Q 1494 397 1959 397 
Q 2419 397 2687 759 
Q 2956 1122 2956 1747 
Q 2956 2369 2687 2733 
Q 2419 3097 1959 3097 
z
M 1959 3584 
Q 2709 3584 3137 3096 
Q 3566 2609 3566 1747 
Q 3566 888 3137 398 
Q 2709 -91 1959 -91 
Q 1206 -91 779 398 
Q 353 888 353 1747 
Q 353 2609 779 3096 
Q 1206 3584 1959 3584 
z
" transform="scale(0.015625)"/>
      </defs>
      <use xlink:href="#DejaVuSans-43"/>
      <use xlink:href="#DejaVuSans-54" transform="translate(69.824219 0)"/>
      <use xlink:href="#DejaVuSans-58" transform="translate(130.908203 0)"/>
      <use xlink:href="#DejaVuSans-20" transform="translate(199.414062 0)"/>
      <use xlink:href="#DejaVuSans-45" transform="translate(231.201172 0)"/>
      <use xlink:href="#DejaVuSans-70" transform="translate(294.384766 0)"/>
      <use xlink:href="#DejaVuSans-69" transform="translate(357.861328 0)"/>
      <use xlink:href="#DejaVuSans-73" transform="translate(385.644531 0)"/>
      <use xlink:href="#DejaVuSans-6f" transform="translate(437.744141 0)"/>
      <use xlink:href="#DejaVuSans-64" transform="translate(498.925781 0)"/>
      <use xlink:href="#DejaVuSans-65" transform="translate(562.402344 0)"/>
     </g>
     <!-- Max. Selectivity -->
     <g transform="translate(50.123 176.10003) rotate(-90) scale(0.2 -0.2)">
      <defs>
       <path id="DejaVuSans-4d" d="M 628 4666 
L 1569 4666 
L 2759 1491 
L 3956 4666 
L 4897 4666 
L 4897 0 
L 4281 0 
L 4281 4097 
L 3078 897 
L 2444 897 
L 1241 4097 
L 1241 0 
L 628 0 
L 628 4666 
z
" transform="scale(0.015625)"/>
       <path id="DejaVuSans-78" d="M 3513 3500 
L 2247 1797 
L 3578 0 
L 2900 0 
L 1881 1375 
L 863 0 
L 184 0 
L 1544 1831 
L 300 3500 
L 978 3500 
L 1906 2253 
L 2834 3500 
L 3513 3500 
z
" transform="scale(0.015625)"/>
       <path id="DejaVuSans-53" d="M 3425 4513 
L 3425 3897 
Q 3066 4069 2747 4153 
Q 2428 4238 2131 4238 
Q 1616 4238 1336 4038 
Q 1056 3838 1056 3469 
Q 1056 3159 1242 3001 
Q 1428 2844 1947 2747 
L 2328 2669 
Q 3034 2534 3370 2195 
Q 3706 1856 3706 1288 
Q 3706 609 3251 259 
Q 2797 -91 1919 -91 
Q 1588 -91 1214 -16 
Q 841 59 441 206 
L 441 856 
Q 825 641 1194 531 
Q 1563 422 1919 422 
Q 2459 422 2753 634 
Q 3047 847 3047 1241 
Q 3047 1584 2836 1778 
Q 2625 1972 2144 2069 
L 1759 2144 
Q 1053 2284 737 2584 
Q 422 2884 422 3419 
Q 422 4038 858 4394 
Q 1294 4750 2059 4750 
Q 2388 4750 2728 4690 
Q 3069 4631 3425 4513 
z
" transform="scale(0.015625)"/>
       <path id="DejaVuSans-76" d="M 191 3500 
L 800 3500 
L 1894 563 
L 2988 3500 
L 3597 3500 
L 2284 0 
L 1503 0 
L 191 3500 
z
" transform="scale(0.015625)"/>
       <path id="DejaVuSans-79" d="M 2059 -325 
Q 1816 -950 1584 -1140 
Q 1353 -1331 966 -1331 
L 506 -1331 
L 506 -850 
L 844 -850 
Q 1081 -850 1212 -737 
Q 1344 -625 1503 -206 
L 1606 56 
L 191 3500 
L 800 3500 
L 1894 763 
L 2988 3500 
L 3597 3500 
L 2059 -325 
z
" transform="scale(0.015625)"/>
      </defs>
      <use xlink:href="#DejaVuSans-4d"/>
      <use xlink:href="#DejaVuSans-61" transform="translate(86.279297 0)"/>
      <use xlink:href="#DejaVuSans-78" transform="translate(147.558594 0)"/>
      <use xlink:href="#DejaVuSans-2e" transform="translate(206.738281 0)"/>
      <use xlink:href="#DejaVuSans-20" transform="translate(238.525391 0)"/>
      <use xlink:href="#DejaVuSans-53" transform="translate(270.3125 0)"/>
      <use xlink:href="#DejaVuSans-65" transform="translate(333.789062 0)"/>
      <use xlink:href="#DejaVuSans-6c" transform="translate(395.3125 0)"/>
      <use xlink:href="#DejaVuSans-65" transform="translate(423.095703 0)"/>
      <use xlink:href="#DejaVuSans-63" transform="translate(484.619141 0)"/>
      <use xlink:href="#DejaVuSans-74" transform="translate(539.599609 0)"/>
      <use xlink:href="#DejaVuSans-69" transform="translate(578.808594 0)"/>
      <use xlink:href="#DejaVuSans-76" transform="translate(606.591797 0)"/>
      <use xlink:href="#DejaVuSans-69" transform="translate(665.771484 0)"/>
      <use xlink:href="#DejaVuSans-74" transform="translate(693.554688 0)"/>
      <use xlink:href="#DejaVuSans-79" transform="translate(732.763672 0)"/>
     </g>
    </g>
   </g>
   <g id="line2d_6">
    <path d="M 130.359051 40.887862 
L 130.359051 24.418863 
L 204.748949 24.418863 
L 204.748949 40.887862 
" style="fill: none; stroke: #000000; stroke-width: 2; stroke-linecap: square"/>
   </g>
   <g id="patch_3">
    <path d="M 93.908 172.075081 
L 93.908 21.73123 
" style="fill: none; stroke: #000000; stroke-width: 0.8; stroke-linejoin: miter; stroke-linecap: square"/>
   </g>
   <g id="patch_4">
    <path d="M 93.908 172.075081 
L 241.2 172.075081 
" style="fill: none; stroke: #000000; stroke-width: 0.8; stroke-linejoin: miter; stroke-linecap: square"/>
   </g>
   <g id="PathCollection_1">
    <defs>
     <path id="mb025352593" d="M 0 1.5 
C 0.397805 1.5 0.77937 1.341951 1.06066 1.06066 
C 1.341951 0.77937 1.5 0.397805 1.5 0 
C 1.5 -0.397805 1.341951 -0.77937 1.06066 -1.06066 
C 0.77937 -1.341951 0.397805 -1.5 0 -1.5 
C -0.397805 -1.5 -0.77937 -1.341951 -1.06066 -1.06066 
C -1.341951 -0.77937 -1.5 -0.397805 -1.5 0 
C -1.5 0.397805 -1.341951 0.77937 -1.06066 1.06066 
C -0.77937 1.341951 -0.397805 1.5 0 1.5 
z
"/>
    </defs>
    <g clip-path="url(#pbbeac90053)">
     <use xlink:href="#mb025352593" x="126.930364" y="50.085913" style="fill-opacity: 0.05"/>
     <use xlink:href="#mb025352593" x="141.062503" y="52.668685" style="fill-opacity: 0.05"/>
     <use xlink:href="#mb025352593" x="143.576637" y="51.316671" style="fill-opacity: 0.05"/>
     <use xlink:href="#mb025352593" x="136.3943" y="54.255553" style="fill-opacity: 0.05"/>
     <use xlink:href="#mb025352593" x="134.335461" y="52.425576" style="fill-opacity: 0.05"/>
     <use xlink:href="#mb025352593" x="133.51203" y="50.93782" style="fill-opacity: 0.05"/>
     <use xlink:href="#mb025352593" x="121.436037" y="52.042545" style="fill-opacity: 0.05"/>
     <use xlink:href="#mb025352593" x="127.008169" y="52.544844" style="fill-opacity: 0.05"/>
     <use xlink:href="#mb025352593" x="123.187363" y="53.142877" style="fill-opacity: 0.05"/>
     <use xlink:href="#mb025352593" x="117.701082" y="55.959072" style="fill-opacity: 0.05"/>
     <use xlink:href="#mb025352593" x="123.841215" y="51.285153" style="fill-opacity: 0.05"/>
     <use xlink:href="#mb025352593" x="128.5271" y="53.10506" style="fill-opacity: 0.05"/>
     <use xlink:href="#mb025352593" x="129.86061" y="55.236585" style="fill-opacity: 0.05"/>
     <use xlink:href="#mb025352593" x="141.323809" y="51.925305" style="fill-opacity: 0.05"/>
     <use xlink:href="#mb025352593" x="131.240701" y="53.048248" style="fill-opacity: 0.05"/>
     <use xlink:href="#mb025352593" x="132.21175" y="49.94662" style="fill-opacity: 0.05"/>
     <use xlink:href="#mb025352593" x="129.497774" y="51.972694" style="fill-opacity: 0.05"/>
     <use xlink:href="#mb025352593" x="135.978226" y="49.839786" style="fill-opacity: 0.05"/>
     <use xlink:href="#mb025352593" x="130.50273" y="51.305996" style="fill-opacity: 0.05"/>
     <use xlink:href="#mb025352593" x="139.975455" y="51.558422" style="fill-opacity: 0.05"/>
    </g>
   </g>
   <g id="PathCollection_2">
    <g clip-path="url(#pbbeac90053)">
     <use xlink:href="#mb025352593" x="218.447616" y="72.059797" style="fill-opacity: 0.05"/>
     <use xlink:href="#mb025352593" x="215.405875" y="60.738762" style="fill-opacity: 0.05"/>
     <use xlink:href="#mb025352593" x="199.070811" y="69.40153" style="fill-opacity: 0.05"/>
     <use xlink:href="#mb025352593" x="206.228447" y="70.813317" style="fill-opacity: 0.05"/>
     <use xlink:href="#mb025352593" x="209.351553" y="58.144014" style="fill-opacity: 0.05"/>
     <use xlink:href="#mb025352593" x="218.164684" y="58.007159" style="fill-opacity: 0.05"/>
     <use xlink:href="#mb025352593" x="218.876176" y="64.014375" style="fill-opacity: 0.05"/>
     <use xlink:href="#mb025352593" x="203.217549" y="70.171741" style="fill-opacity: 0.05"/>
     <use xlink:href="#mb025352593" x="213.654103" y="57.037072" style="fill-opacity: 0.05"/>
     <use xlink:href="#mb025352593" x="211.543831" y="62.023174" style="fill-opacity: 0.05"/>
     <use xlink:href="#mb025352593" x="192.493825" y="66.938329" style="fill-opacity: 0.05"/>
     <use xlink:href="#mb025352593" x="213.468475" y="55.704781" style="fill-opacity: 0.05"/>
     <use xlink:href="#mb025352593" x="217.340609" y="64.362453" style="fill-opacity: 0.05"/>
     <use xlink:href="#mb025352593" x="208.168095" y="66.807821" style="fill-opacity: 0.05"/>
     <use xlink:href="#mb025352593" x="196.143107" y="78.171517" style="fill-opacity: 0.05"/>
     <use xlink:href="#mb025352593" x="197.061235" y="68.077836" style="fill-opacity: 0.05"/>
     <use xlink:href="#mb025352593" x="202.165508" y="67.892374" style="fill-opacity: 0.05"/>
     <use xlink:href="#mb025352593" x="211.568699" y="63.15361" style="fill-opacity: 0.05"/>
     <use xlink:href="#mb025352593" x="190.319998" y="72.811062" style="fill-opacity: 0.05"/>
     <use xlink:href="#mb025352593" x="195.354359" y="67.617902" style="fill-opacity: 0.05"/>
    </g>
   </g>
   <g id="text_7">
    <!-- *** -->
    <g transform="translate(155.554 21.091363) scale(0.16 -0.16)">
     <defs>
      <path id="DejaVuSans-2a" d="M 3009 3897 
L 1888 3291 
L 3009 2681 
L 2828 2375 
L 1778 3009 
L 1778 1831 
L 1422 1831 
L 1422 3009 
L 372 2375 
L 191 2681 
L 1313 3291 
L 191 3897 
L 372 4206 
L 1422 3572 
L 1422 4750 
L 1778 4750 
L 1778 3572 
L 2828 4206 
L 3009 3897 
z
" transform="scale(0.015625)"/>
     </defs>
     <use xlink:href="#DejaVuSans-2a"/>
     <use xlink:href="#DejaVuSans-2a" transform="translate(50 0)"/>
     <use xlink:href="#DejaVuSans-2a" transform="translate(100 0)"/>
    </g>
   </g>
   <g id="LineCollection_1">
    <path d="M 130.359051 52.593157 
L 130.359051 51.867193 
" clip-path="url(#pbbeac90053)" style="fill: none; stroke: #000000; stroke-width: 2"/>
    <path d="M 204.748949 67.019076 
L 204.748949 64.375779 
" clip-path="url(#pbbeac90053)" style="fill: none; stroke: #000000; stroke-width: 2"/>
   </g>
   <g id="line2d_7">
    <defs>
     <path id="mefbd87b67a" d="M 5 0 
L -5 -0 
" style="stroke: #000000"/>
    </defs>
    <g clip-path="url(#pbbeac90053)">
     <use xlink:href="#mefbd87b67a" x="130.359051" y="52.593157" style="stroke: #000000"/>
     <use xlink:href="#mefbd87b67a" x="204.748949" y="67.019076" style="stroke: #000000"/>
    </g>
   </g>
   <g id="line2d_8">
    <g clip-path="url(#pbbeac90053)">
     <use xlink:href="#mefbd87b67a" x="130.359051" y="51.867193" style="stroke: #000000"/>
     <use xlink:href="#mefbd87b67a" x="204.748949" y="64.375779" style="stroke: #000000"/>
    </g>
   </g>
   <g id="line2d_9">
    <defs>
     <path id="m4f772349f1" d="M 0 3 
C 0.795609 3 1.55874 2.683901 2.12132 2.12132 
C 2.683901 1.55874 3 0.795609 3 0 
C 3 -0.795609 2.683901 -1.55874 2.12132 -2.12132 
C 1.55874 -2.683901 0.795609 -3 0 -3 
C -0.795609 -3 -1.55874 -2.683901 -2.12132 -2.12132 
C -2.683901 -1.55874 -3 -0.795609 -3 0 
C -3 0.795609 -2.683901 1.55874 -2.12132 2.12132 
C -1.55874 2.683901 -0.795609 3 0 3 
z
" style="stroke: #000000"/>
    </defs>
    <g clip-path="url(#pbbeac90053)">
     <use xlink:href="#m4f772349f1" x="130.359051" y="52.230175" style="stroke: #000000"/>
     <use xlink:href="#m4f772349f1" x="204.748949" y="65.697427" style="stroke: #000000"/>
    </g>
   </g>
  </g>
 </g>
 <defs>
  <clipPath id="pbbeac90053">
   <rect x="93.908" y="21.73123" width="147.292" height="150.343851"/>
  </clipPath>
 </defs>
</svg>
